<?xml version="1.0" encoding="UTF-8" standalone="no"?>
<!DOCTYPE svg PUBLIC "-//W3C//DTD SVG 1.1//EN"
 "http://www.w3.org/Graphics/SVG/1.1/DTD/svg11.dtd">
<!-- Generated by graphviz version 2.40.1 (20161225.0304)
  See <https://github.com/PyCQA/pylint/issues/568>.
  % pyreverse \-\-only-classnames \-\-output=svg \-\-output-directory=docs \-\-project=dyce dyce/r.py
 -->
<!-- Title: classes_dyce Pages: 1 -->
<svg width="600pt" height="264pt"
 viewBox="0.00 0.00 599.50 264.00" xmlns="http://www.w3.org/2000/svg" xmlns:xlink="http://www.w3.org/1999/xlink">
<g id="graph0" class="graph" transform="scale(1 1) rotate(0) translate(4 260)">
<title>classes_dyce</title>
<!-- 0 -->
<g id="node1" class="node">
<title>0</title>
<polygon fill="none" stroke="DarkSlateGray" points="0,-.5 0,-36.5 146,-36.5 146,-.5 0,-.5"/>
<text text-anchor="middle" x="73" y="-14.8" font-family="Times,serif" font-size="14.00" fill="DarkSlateGray">BinaryOperationRoller</text>
</g>
<!-- 9 -->
<g id="node10" class="node">
<title>9</title>
<polygon fill="none" stroke="DarkSlateGray" points="196.5,-73.5 196.5,-109.5 273.5,-109.5 273.5,-73.5 196.5,-73.5"/>
<text text-anchor="middle" x="235" y="-87.8" font-family="Times,serif" font-size="14.00" fill="DarkSlateGray">SumRoller</text>
</g>
<!-- 0&#45;&gt;9 -->
<g id="edge1" class="edge">
<title>0&#45;&gt;9</title>
<path fill="none" stroke="DarkSlateGray" d="M113.045,-36.5449C135.4612,-46.6461 163.5564,-59.3063 187.1289,-69.9285"/>
<polygon fill="none" stroke="DarkSlateGray" points="185.6982,-73.1227 196.2533,-74.0401 188.5741,-66.7407 185.6982,-73.1227"/>
</g>
<!-- 1 -->
<g id="node2" class="node">
<title>1</title>
<polygon fill="none" stroke="DarkSlateGray" points="320.5,-73.5 320.5,-109.5 405.5,-109.5 405.5,-73.5 320.5,-73.5"/>
<text text-anchor="middle" x="363" y="-87.8" font-family="Times,serif" font-size="14.00" fill="DarkSlateGray">ChainRoller</text>
</g>
<!-- 2 -->
<g id="node3" class="node">
<title>2</title>
<polygon fill="none" stroke="DarkSlateGray" points="231.5,-146.5 231.5,-182.5 366.5,-182.5 366.5,-146.5 231.5,-146.5"/>
<text text-anchor="middle" x="299" y="-160.8" font-family="Times,serif" font-size="14.00" fill="DarkSlateGray">OperationRollerBase</text>
</g>
<!-- 1&#45;&gt;2 -->
<g id="edge2" class="edge">
<title>1&#45;&gt;2</title>
<path fill="none" stroke="DarkSlateGray" d="M347.1798,-109.5449C339.4874,-118.3191 330.1022,-129.0241 321.6656,-138.647"/>
<polygon fill="none" stroke="DarkSlateGray" points="318.8206,-136.5829 314.86,-146.4096 324.0842,-141.1976 318.8206,-136.5829"/>
</g>
<!-- 4 -->
<g id="node5" class="node">
<title>4</title>
<polygon fill="none" stroke="DarkSlateGray" points="403,-219.5 403,-255.5 457,-255.5 457,-219.5 403,-219.5"/>
<text text-anchor="middle" x="430" y="-233.8" font-family="Times,serif" font-size="14.00" fill="DarkSlateGray">R</text>
</g>
<!-- 2&#45;&gt;4 -->
<g id="edge3" class="edge">
<title>2&#45;&gt;4</title>
<path fill="none" stroke="DarkSlateGray" d="M331.382,-182.5449C350.3505,-193.1152 374.3475,-206.4876 393.9204,-217.3946"/>
<polygon fill="none" stroke="DarkSlateGray" points="392.4102,-220.5598 402.8493,-222.3702 395.8177,-214.4451 392.4102,-220.5598"/>
</g>
<!-- 3 -->
<g id="node4" class="node">
<title>3</title>
<polygon fill="none" stroke="DarkSlateGray" points="324.5,-.5 324.5,-36.5 401.5,-36.5 401.5,-.5 324.5,-.5"/>
<text text-anchor="middle" x="363" y="-14.8" font-family="Times,serif" font-size="14.00" fill="DarkSlateGray">PoolRoller</text>
</g>
<!-- 3&#45;&gt;1 -->
<g id="edge4" class="edge">
<title>3&#45;&gt;1</title>
<path fill="none" stroke="DarkSlateGray" d="M363,-36.5449C363,-44.6172 363,-54.3236 363,-63.3183"/>
<polygon fill="none" stroke="DarkSlateGray" points="359.5001,-63.4096 363,-73.4096 366.5001,-63.4097 359.5001,-63.4096"/>
</g>
<!-- 5 -->
<g id="node6" class="node">
<title>5</title>
<polygon fill="none" stroke="DarkSlateGray" points="385,-146.5 385,-182.5 475,-182.5 475,-146.5 385,-146.5"/>
<text text-anchor="middle" x="430" y="-160.8" font-family="Times,serif" font-size="14.00" fill="DarkSlateGray">RepeatRoller</text>
</g>
<!-- 5&#45;&gt;4 -->
<g id="edge5" class="edge">
<title>5&#45;&gt;4</title>
<path fill="none" stroke="DarkSlateGray" d="M430,-182.5449C430,-190.6172 430,-200.3236 430,-209.3183"/>
<polygon fill="none" stroke="DarkSlateGray" points="426.5001,-209.4096 430,-219.4096 433.5001,-209.4097 426.5001,-209.4096"/>
</g>
<!-- 8 -->
<g id="node9" class="node">
<title>8</title>
<polygon fill="none" stroke="DarkSlateGray" points="420,-.5 420,-36.5 524,-36.5 524,-.5 420,-.5"/>
<text text-anchor="middle" x="472" y="-14.8" font-family="Times,serif" font-size="14.00" fill="DarkSlateGray">SelectionRoller</text>
</g>
<!-- 8&#45;&gt;1 -->
<g id="edge6" class="edge">
<title>8&#45;&gt;1</title>
<path fill="none" stroke="DarkSlateGray" d="M445.0562,-36.5449C431.038,-45.9333 413.719,-57.5322 398.6103,-67.6509"/>
<polygon fill="none" stroke="DarkSlateGray" points="396.3728,-64.9369 390.0116,-73.4096 400.268,-70.7531 396.3728,-64.9369"/>
</g>
<!-- 9&#45;&gt;2 -->
<g id="edge7" class="edge">
<title>9&#45;&gt;2</title>
<path fill="none" stroke="DarkSlateGray" d="M250.8202,-109.5449C258.5126,-118.3191 267.8978,-129.0241 276.3344,-138.647"/>
<polygon fill="none" stroke="DarkSlateGray" points="273.9158,-141.1976 283.14,-146.4096 279.1794,-136.5829 273.9158,-141.1976"/>
</g>
<!-- 10 -->
<g id="node11" class="node">
<title>10</title>
<polygon fill="none" stroke="DarkSlateGray" points="164,-.5 164,-36.5 306,-36.5 306,-.5 164,-.5"/>
<text text-anchor="middle" x="235" y="-14.8" font-family="Times,serif" font-size="14.00" fill="DarkSlateGray">UnaryOperationRoller</text>
</g>
<!-- 10&#45;&gt;9 -->
<g id="edge8" class="edge">
<title>10&#45;&gt;9</title>
<path fill="none" stroke="DarkSlateGray" d="M235,-36.5449C235,-44.6172 235,-54.3236 235,-63.3183"/>
<polygon fill="none" stroke="DarkSlateGray" points="231.5001,-63.4096 235,-73.4096 238.5001,-63.4097 231.5001,-63.4096"/>
</g>
<!-- 11 -->
<g id="node12" class="node">
<title>11</title>
<polygon fill="none" stroke="DarkSlateGray" points="493.5,-146.5 493.5,-182.5 578.5,-182.5 578.5,-146.5 493.5,-146.5"/>
<text text-anchor="middle" x="536" y="-160.8" font-family="Times,serif" font-size="14.00" fill="DarkSlateGray">ValueRoller</text>
</g>
<!-- 11&#45;&gt;4 -->
<g id="edge9" class="edge">
<title>11&#45;&gt;4</title>
<path fill="none" stroke="DarkSlateGray" d="M509.7977,-182.5449C496.1654,-191.9333 479.3231,-203.5322 464.6302,-213.6509"/>
<polygon fill="none" stroke="DarkSlateGray" points="462.5189,-210.8552 456.2682,-219.4096 466.4893,-216.6203 462.5189,-210.8552"/>
</g>
</g>
</svg>
