<?xml version="1.0" encoding="utf-8" standalone="no"?>
<!DOCTYPE svg PUBLIC "-//W3C//DTD SVG 1.1//EN"
  "http://www.w3.org/Graphics/SVG/1.1/DTD/svg11.dtd">
<svg xmlns:xlink="http://www.w3.org/1999/xlink" width="460.8pt" height="345.6pt" viewBox="0 0 460.8 345.6" xmlns="http://www.w3.org/2000/svg" version="1.1">
 <metadata>
  <rdf:RDF xmlns:dc="http://purl.org/dc/elements/1.1/" xmlns:cc="http://creativecommons.org/ns#" xmlns:rdf="http://www.w3.org/1999/02/22-rdf-syntax-ns#">
   <cc:Work>
    <dc:type rdf:resource="http://purl.org/dc/dcmitype/StillImage"/>
    <dc:format>image/svg+xml</dc:format>
    <dc:creator>
     <cc:Agent>
      <dc:title>Matplotlib, https://matplotlib.org/</dc:title>
     </cc:Agent>
    </dc:creator>
   </cc:Work>
  </rdf:RDF>
 </metadata>
 <defs>
  <style type="text/css">*{stroke-linejoin: round; stroke-linecap: butt}</style>
 </defs>
 <g id="figure_1">
  <g id="patch_1">
   <path d="M 0 345.6 
L 460.8 345.6 
L 460.8 0 
L 0 0 
L 0 345.6 
z
" style="fill: none"/>
  </g>
  <g id="axes_1">
   <g id="patch_2">
    <path d="M 27.26 321.3 
L 450 321.3 
L 450 27.740625 
L 27.26 27.740625 
L 27.26 321.3 
z
" style="fill: none"/>
   </g>
   <g id="patch_3">
    <path d="M 27.26 285.169615 
L 94.361587 285.169615 
L 94.361587 276.137019 
L 27.26 276.137019 
z
" clip-path="url(#p42293b66c5)" style="fill: #348abd; opacity: 0.75"/>
   </g>
   <g id="patch_4">
    <path d="M 27.26 262.588125 
L 161.463175 262.588125 
L 161.463175 253.555529 
L 27.26 253.555529 
z
" clip-path="url(#p42293b66c5)" style="fill: #348abd; opacity: 0.75"/>
   </g>
   <g id="patch_5">
    <path d="M 27.26 240.006635 
L 228.564762 240.006635 
L 228.564762 230.974038 
L 27.26 230.974038 
z
" clip-path="url(#p42293b66c5)" style="fill: #348abd; opacity: 0.75"/>
   </g>
   <g id="patch_6">
    <path d="M 27.26 217.425144 
L 295.666349 217.425144 
L 295.666349 208.392548 
L 27.26 208.392548 
z
" clip-path="url(#p42293b66c5)" style="fill: #348abd; opacity: 0.75"/>
   </g>
   <g id="patch_7">
    <path d="M 27.26 194.843654 
L 362.767937 194.843654 
L 362.767937 185.811058 
L 27.26 185.811058 
z
" clip-path="url(#p42293b66c5)" style="fill: #348abd; opacity: 0.75"/>
   </g>
   <g id="patch_8">
    <path d="M 27.26 172.262163 
L 429.869524 172.262163 
L 429.869524 163.229567 
L 27.26 163.229567 
z
" clip-path="url(#p42293b66c5)" style="fill: #348abd; opacity: 0.75"/>
   </g>
   <g id="patch_9">
    <path d="M 27.26 149.680673 
L 362.767937 149.680673 
L 362.767937 140.648077 
L 27.26 140.648077 
z
" clip-path="url(#p42293b66c5)" style="fill: #348abd; opacity: 0.75"/>
   </g>
   <g id="patch_10">
    <path d="M 27.26 127.099183 
L 295.666349 127.099183 
L 295.666349 118.066587 
L 27.26 118.066587 
z
" clip-path="url(#p42293b66c5)" style="fill: #348abd; opacity: 0.75"/>
   </g>
   <g id="patch_11">
    <path d="M 27.26 104.517692 
L 228.564762 104.517692 
L 228.564762 95.485096 
L 27.26 95.485096 
z
" clip-path="url(#p42293b66c5)" style="fill: #348abd; opacity: 0.75"/>
   </g>
   <g id="patch_12">
    <path d="M 27.26 81.936202 
L 161.463175 81.936202 
L 161.463175 72.903606 
L 27.26 72.903606 
z
" clip-path="url(#p42293b66c5)" style="fill: #348abd; opacity: 0.75"/>
   </g>
   <g id="patch_13">
    <path d="M 27.26 59.354712 
L 94.361587 59.354712 
L 94.361587 50.322115 
L 27.26 50.322115 
z
" clip-path="url(#p42293b66c5)" style="fill: #348abd; opacity: 0.75"/>
   </g>
   <g id="patch_14">
    <path d="M 27.26 298.71851 
L 228.564762 298.71851 
L 228.564762 289.685913 
L 27.26 289.685913 
z
" clip-path="url(#p42293b66c5)" style="fill: #a60628; opacity: 0.75"/>
   </g>
   <g id="patch_15">
    <path d="M 27.26 276.137019 
L 228.564762 276.137019 
L 228.564762 267.104423 
L 27.26 267.104423 
z
" clip-path="url(#p42293b66c5)" style="fill: #a60628; opacity: 0.75"/>
   </g>
   <g id="patch_16">
    <path d="M 27.26 253.555529 
L 228.564762 253.555529 
L 228.564762 244.522933 
L 27.26 244.522933 
z
" clip-path="url(#p42293b66c5)" style="fill: #a60628; opacity: 0.75"/>
   </g>
   <g id="patch_17">
    <path d="M 27.26 230.974038 
L 228.564762 230.974038 
L 228.564762 221.941442 
L 27.26 221.941442 
z
" clip-path="url(#p42293b66c5)" style="fill: #a60628; opacity: 0.75"/>
   </g>
   <g id="patch_18">
    <path d="M 27.26 208.392548 
L 228.564762 208.392548 
L 228.564762 199.359952 
L 27.26 199.359952 
z
" clip-path="url(#p42293b66c5)" style="fill: #a60628; opacity: 0.75"/>
   </g>
   <g id="patch_19">
    <path d="M 27.26 185.811058 
L 228.564762 185.811058 
L 228.564762 176.778462 
L 27.26 176.778462 
z
" clip-path="url(#p42293b66c5)" style="fill: #a60628; opacity: 0.75"/>
   </g>
   <g id="patch_20">
    <path d="M 27.26 163.229567 
L 228.564762 163.229567 
L 228.564762 154.196971 
L 27.26 154.196971 
z
" clip-path="url(#p42293b66c5)" style="fill: #a60628; opacity: 0.75"/>
   </g>
   <g id="patch_21">
    <path d="M 27.26 140.648077 
L 228.564762 140.648077 
L 228.564762 131.615481 
L 27.26 131.615481 
z
" clip-path="url(#p42293b66c5)" style="fill: #a60628; opacity: 0.75"/>
   </g>
   <g id="patch_22">
    <path d="M 27.26 118.066587 
L 228.564762 118.066587 
L 228.564762 109.03399 
L 27.26 109.03399 
z
" clip-path="url(#p42293b66c5)" style="fill: #a60628; opacity: 0.75"/>
   </g>
   <g id="patch_23">
    <path d="M 27.26 95.485096 
L 228.564762 95.485096 
L 228.564762 86.4525 
L 27.26 86.4525 
z
" clip-path="url(#p42293b66c5)" style="fill: #a60628; opacity: 0.75"/>
   </g>
   <g id="patch_24">
    <path d="M 27.26 72.903606 
L 228.564762 72.903606 
L 228.564762 63.87101 
L 27.26 63.87101 
z
" clip-path="url(#p42293b66c5)" style="fill: #a60628; opacity: 0.75"/>
   </g>
   <g id="patch_25">
    <path d="M 27.26 50.322115 
L 228.564762 50.322115 
L 228.564762 41.289519 
L 27.26 41.289519 
z
" clip-path="url(#p42293b66c5)" style="fill: #a60628; opacity: 0.75"/>
   </g>
   <g id="matplotlib.axis_1">
    <g id="xtick_1">
     <g id="line2d_1">
      <path d="M 27.26 321.3 
L 27.26 27.740625 
" clip-path="url(#p42293b66c5)" style="fill: none; stroke-dasharray: 1.85,0.8; stroke-dashoffset: 0; stroke: #b2b2b2; stroke-width: 0.5"/>
     </g>
     <g id="line2d_2">
      <defs>
       <path id="m21876d499b" d="M 0 0 
L 0 -3.5 
" style="stroke: #d9d9d9; stroke-width: 0.8"/>
      </defs>
      <g>
       <use xlink:href="#m21876d499b" x="27.26" y="321.3" style="fill: #d9d9d9; stroke: #d9d9d9; stroke-width: 0.8"/>
      </g>
     </g>
     <g id="text_1">
      <!-- 0.0% -->
      <g style="fill: #d9d9d9" transform="translate(14.557656 332.397656) scale(0.1 -0.1)">
       <defs>
        <path id="DejaVuSans-13" d="M 2034 4250 
Q 1547 4250 1301 3770 
Q 1056 3291 1056 2328 
Q 1056 1369 1301 889 
Q 1547 409 2034 409 
Q 2525 409 2770 889 
Q 3016 1369 3016 2328 
Q 3016 3291 2770 3770 
Q 2525 4250 2034 4250 
z
M 2034 4750 
Q 2819 4750 3233 4129 
Q 3647 3509 3647 2328 
Q 3647 1150 3233 529 
Q 2819 -91 2034 -91 
Q 1250 -91 836 529 
Q 422 1150 422 2328 
Q 422 3509 836 4129 
Q 1250 4750 2034 4750 
z
" transform="scale(0.015625)"/>
        <path id="DejaVuSans-11" d="M 684 794 
L 1344 794 
L 1344 0 
L 684 0 
L 684 794 
z
" transform="scale(0.015625)"/>
        <path id="DejaVuSans-8" d="M 4653 2053 
Q 4381 2053 4226 1822 
Q 4072 1591 4072 1178 
Q 4072 772 4226 539 
Q 4381 306 4653 306 
Q 4919 306 5073 539 
Q 5228 772 5228 1178 
Q 5228 1588 5073 1820 
Q 4919 2053 4653 2053 
z
M 4653 2450 
Q 5147 2450 5437 2106 
Q 5728 1763 5728 1178 
Q 5728 594 5436 251 
Q 5144 -91 4653 -91 
Q 4153 -91 3862 251 
Q 3572 594 3572 1178 
Q 3572 1766 3864 2108 
Q 4156 2450 4653 2450 
z
M 1428 4353 
Q 1159 4353 1004 4120 
Q 850 3888 850 3481 
Q 850 3069 1003 2837 
Q 1156 2606 1428 2606 
Q 1700 2606 1854 2837 
Q 2009 3069 2009 3481 
Q 2009 3884 1853 4118 
Q 1697 4353 1428 4353 
z
M 4250 4750 
L 4750 4750 
L 1831 -91 
L 1331 -91 
L 4250 4750 
z
M 1428 4750 
Q 1922 4750 2215 4408 
Q 2509 4066 2509 3481 
Q 2509 2891 2217 2550 
Q 1925 2209 1428 2209 
Q 931 2209 642 2551 
Q 353 2894 353 3481 
Q 353 4063 643 4406 
Q 934 4750 1428 4750 
z
" transform="scale(0.015625)"/>
       </defs>
       <use xlink:href="#DejaVuSans-13"/>
       <use xlink:href="#DejaVuSans-11" transform="translate(63.625 0)"/>
       <use xlink:href="#DejaVuSans-13" transform="translate(95.40625 0)"/>
       <use xlink:href="#DejaVuSans-8" transform="translate(159.03125 0)"/>
      </g>
     </g>
    </g>
    <g id="xtick_2">
     <g id="line2d_3">
      <path d="M 75.573143 321.3 
L 75.573143 27.740625 
" clip-path="url(#p42293b66c5)" style="fill: none; stroke-dasharray: 1.85,0.8; stroke-dashoffset: 0; stroke: #b2b2b2; stroke-width: 0.5"/>
     </g>
     <g id="line2d_4">
      <g>
       <use xlink:href="#m21876d499b" x="75.573143" y="321.3" style="fill: #d9d9d9; stroke: #d9d9d9; stroke-width: 0.8"/>
      </g>
     </g>
     <g id="text_2">
      <!-- 2.0% -->
      <g style="fill: #d9d9d9" transform="translate(62.870799 332.397656) scale(0.1 -0.1)">
       <defs>
        <path id="DejaVuSans-15" d="M 1228 531 
L 3431 531 
L 3431 0 
L 469 0 
L 469 531 
Q 828 903 1448 1529 
Q 2069 2156 2228 2338 
Q 2531 2678 2651 2914 
Q 2772 3150 2772 3378 
Q 2772 3750 2511 3984 
Q 2250 4219 1831 4219 
Q 1534 4219 1204 4116 
Q 875 4013 500 3803 
L 500 4441 
Q 881 4594 1212 4672 
Q 1544 4750 1819 4750 
Q 2544 4750 2975 4387 
Q 3406 4025 3406 3419 
Q 3406 3131 3298 2873 
Q 3191 2616 2906 2266 
Q 2828 2175 2409 1742 
Q 1991 1309 1228 531 
z
" transform="scale(0.015625)"/>
       </defs>
       <use xlink:href="#DejaVuSans-15"/>
       <use xlink:href="#DejaVuSans-11" transform="translate(63.625 0)"/>
       <use xlink:href="#DejaVuSans-13" transform="translate(95.40625 0)"/>
       <use xlink:href="#DejaVuSans-8" transform="translate(159.03125 0)"/>
      </g>
     </g>
    </g>
    <g id="xtick_3">
     <g id="line2d_5">
      <path d="M 123.886286 321.3 
L 123.886286 27.740625 
" clip-path="url(#p42293b66c5)" style="fill: none; stroke-dasharray: 1.85,0.8; stroke-dashoffset: 0; stroke: #b2b2b2; stroke-width: 0.5"/>
     </g>
     <g id="line2d_6">
      <g>
       <use xlink:href="#m21876d499b" x="123.886286" y="321.3" style="fill: #d9d9d9; stroke: #d9d9d9; stroke-width: 0.8"/>
      </g>
     </g>
     <g id="text_3">
      <!-- 4.0% -->
      <g style="fill: #d9d9d9" transform="translate(111.183942 332.397656) scale(0.1 -0.1)">
       <defs>
        <path id="DejaVuSans-17" d="M 2419 4116 
L 825 1625 
L 2419 1625 
L 2419 4116 
z
M 2253 4666 
L 3047 4666 
L 3047 1625 
L 3713 1625 
L 3713 1100 
L 3047 1100 
L 3047 0 
L 2419 0 
L 2419 1100 
L 313 1100 
L 313 1709 
L 2253 4666 
z
" transform="scale(0.015625)"/>
       </defs>
       <use xlink:href="#DejaVuSans-17"/>
       <use xlink:href="#DejaVuSans-11" transform="translate(63.625 0)"/>
       <use xlink:href="#DejaVuSans-13" transform="translate(95.40625 0)"/>
       <use xlink:href="#DejaVuSans-8" transform="translate(159.03125 0)"/>
      </g>
     </g>
    </g>
    <g id="xtick_4">
     <g id="line2d_7">
      <path d="M 172.199429 321.3 
L 172.199429 27.740625 
" clip-path="url(#p42293b66c5)" style="fill: none; stroke-dasharray: 1.85,0.8; stroke-dashoffset: 0; stroke: #b2b2b2; stroke-width: 0.5"/>
     </g>
     <g id="line2d_8">
      <g>
       <use xlink:href="#m21876d499b" x="172.199429" y="321.3" style="fill: #d9d9d9; stroke: #d9d9d9; stroke-width: 0.8"/>
      </g>
     </g>
     <g id="text_4">
      <!-- 6.0% -->
      <g style="fill: #d9d9d9" transform="translate(159.497085 332.397656) scale(0.1 -0.1)">
       <defs>
        <path id="DejaVuSans-19" d="M 2113 2584 
Q 1688 2584 1439 2293 
Q 1191 2003 1191 1497 
Q 1191 994 1439 701 
Q 1688 409 2113 409 
Q 2538 409 2786 701 
Q 3034 994 3034 1497 
Q 3034 2003 2786 2293 
Q 2538 2584 2113 2584 
z
M 3366 4563 
L 3366 3988 
Q 3128 4100 2886 4159 
Q 2644 4219 2406 4219 
Q 1781 4219 1451 3797 
Q 1122 3375 1075 2522 
Q 1259 2794 1537 2939 
Q 1816 3084 2150 3084 
Q 2853 3084 3261 2657 
Q 3669 2231 3669 1497 
Q 3669 778 3244 343 
Q 2819 -91 2113 -91 
Q 1303 -91 875 529 
Q 447 1150 447 2328 
Q 447 3434 972 4092 
Q 1497 4750 2381 4750 
Q 2619 4750 2861 4703 
Q 3103 4656 3366 4563 
z
" transform="scale(0.015625)"/>
       </defs>
       <use xlink:href="#DejaVuSans-19"/>
       <use xlink:href="#DejaVuSans-11" transform="translate(63.625 0)"/>
       <use xlink:href="#DejaVuSans-13" transform="translate(95.40625 0)"/>
       <use xlink:href="#DejaVuSans-8" transform="translate(159.03125 0)"/>
      </g>
     </g>
    </g>
    <g id="xtick_5">
     <g id="line2d_9">
      <path d="M 220.512571 321.3 
L 220.512571 27.740625 
" clip-path="url(#p42293b66c5)" style="fill: none; stroke-dasharray: 1.85,0.8; stroke-dashoffset: 0; stroke: #b2b2b2; stroke-width: 0.5"/>
     </g>
     <g id="line2d_10">
      <g>
       <use xlink:href="#m21876d499b" x="220.512571" y="321.3" style="fill: #d9d9d9; stroke: #d9d9d9; stroke-width: 0.8"/>
      </g>
     </g>
     <g id="text_5">
      <!-- 8.0% -->
      <g style="fill: #d9d9d9" transform="translate(207.810228 332.397656) scale(0.1 -0.1)">
       <defs>
        <path id="DejaVuSans-1b" d="M 2034 2216 
Q 1584 2216 1326 1975 
Q 1069 1734 1069 1313 
Q 1069 891 1326 650 
Q 1584 409 2034 409 
Q 2484 409 2743 651 
Q 3003 894 3003 1313 
Q 3003 1734 2745 1975 
Q 2488 2216 2034 2216 
z
M 1403 2484 
Q 997 2584 770 2862 
Q 544 3141 544 3541 
Q 544 4100 942 4425 
Q 1341 4750 2034 4750 
Q 2731 4750 3128 4425 
Q 3525 4100 3525 3541 
Q 3525 3141 3298 2862 
Q 3072 2584 2669 2484 
Q 3125 2378 3379 2068 
Q 3634 1759 3634 1313 
Q 3634 634 3220 271 
Q 2806 -91 2034 -91 
Q 1263 -91 848 271 
Q 434 634 434 1313 
Q 434 1759 690 2068 
Q 947 2378 1403 2484 
z
M 1172 3481 
Q 1172 3119 1398 2916 
Q 1625 2713 2034 2713 
Q 2441 2713 2670 2916 
Q 2900 3119 2900 3481 
Q 2900 3844 2670 4047 
Q 2441 4250 2034 4250 
Q 1625 4250 1398 4047 
Q 1172 3844 1172 3481 
z
" transform="scale(0.015625)"/>
       </defs>
       <use xlink:href="#DejaVuSans-1b"/>
       <use xlink:href="#DejaVuSans-11" transform="translate(63.625 0)"/>
       <use xlink:href="#DejaVuSans-13" transform="translate(95.40625 0)"/>
       <use xlink:href="#DejaVuSans-8" transform="translate(159.03125 0)"/>
      </g>
     </g>
    </g>
    <g id="xtick_6">
     <g id="line2d_11">
      <path d="M 268.825714 321.3 
L 268.825714 27.740625 
" clip-path="url(#p42293b66c5)" style="fill: none; stroke-dasharray: 1.85,0.8; stroke-dashoffset: 0; stroke: #b2b2b2; stroke-width: 0.5"/>
     </g>
     <g id="line2d_12">
      <g>
       <use xlink:href="#m21876d499b" x="268.825714" y="321.3" style="fill: #d9d9d9; stroke: #d9d9d9; stroke-width: 0.8"/>
      </g>
     </g>
     <g id="text_6">
      <!-- 10.0% -->
      <g style="fill: #d9d9d9" transform="translate(252.942121 332.397656) scale(0.1 -0.1)">
       <defs>
        <path id="DejaVuSans-14" d="M 794 531 
L 1825 531 
L 1825 4091 
L 703 3866 
L 703 4441 
L 1819 4666 
L 2450 4666 
L 2450 531 
L 3481 531 
L 3481 0 
L 794 0 
L 794 531 
z
" transform="scale(0.015625)"/>
       </defs>
       <use xlink:href="#DejaVuSans-14"/>
       <use xlink:href="#DejaVuSans-13" transform="translate(63.625 0)"/>
       <use xlink:href="#DejaVuSans-11" transform="translate(127.25 0)"/>
       <use xlink:href="#DejaVuSans-13" transform="translate(159.03125 0)"/>
       <use xlink:href="#DejaVuSans-8" transform="translate(222.65625 0)"/>
      </g>
     </g>
    </g>
    <g id="xtick_7">
     <g id="line2d_13">
      <path d="M 317.138857 321.3 
L 317.138857 27.740625 
" clip-path="url(#p42293b66c5)" style="fill: none; stroke-dasharray: 1.85,0.8; stroke-dashoffset: 0; stroke: #b2b2b2; stroke-width: 0.5"/>
     </g>
     <g id="line2d_14">
      <g>
       <use xlink:href="#m21876d499b" x="317.138857" y="321.3" style="fill: #d9d9d9; stroke: #d9d9d9; stroke-width: 0.8"/>
      </g>
     </g>
     <g id="text_7">
      <!-- 12.0% -->
      <g style="fill: #d9d9d9" transform="translate(301.255263 332.397656) scale(0.1 -0.1)">
       <use xlink:href="#DejaVuSans-14"/>
       <use xlink:href="#DejaVuSans-15" transform="translate(63.625 0)"/>
       <use xlink:href="#DejaVuSans-11" transform="translate(127.25 0)"/>
       <use xlink:href="#DejaVuSans-13" transform="translate(159.03125 0)"/>
       <use xlink:href="#DejaVuSans-8" transform="translate(222.65625 0)"/>
      </g>
     </g>
    </g>
    <g id="xtick_8">
     <g id="line2d_15">
      <path d="M 365.452 321.3 
L 365.452 27.740625 
" clip-path="url(#p42293b66c5)" style="fill: none; stroke-dasharray: 1.85,0.8; stroke-dashoffset: 0; stroke: #b2b2b2; stroke-width: 0.5"/>
     </g>
     <g id="line2d_16">
      <g>
       <use xlink:href="#m21876d499b" x="365.452" y="321.3" style="fill: #d9d9d9; stroke: #d9d9d9; stroke-width: 0.8"/>
      </g>
     </g>
     <g id="text_8">
      <!-- 14.0% -->
      <g style="fill: #d9d9d9" transform="translate(349.568406 332.397656) scale(0.1 -0.1)">
       <use xlink:href="#DejaVuSans-14"/>
       <use xlink:href="#DejaVuSans-17" transform="translate(63.625 0)"/>
       <use xlink:href="#DejaVuSans-11" transform="translate(127.25 0)"/>
       <use xlink:href="#DejaVuSans-13" transform="translate(159.03125 0)"/>
       <use xlink:href="#DejaVuSans-8" transform="translate(222.65625 0)"/>
      </g>
     </g>
    </g>
    <g id="xtick_9">
     <g id="line2d_17">
      <path d="M 413.765143 321.3 
L 413.765143 27.740625 
" clip-path="url(#p42293b66c5)" style="fill: none; stroke-dasharray: 1.85,0.8; stroke-dashoffset: 0; stroke: #b2b2b2; stroke-width: 0.5"/>
     </g>
     <g id="line2d_18">
      <g>
       <use xlink:href="#m21876d499b" x="413.765143" y="321.3" style="fill: #d9d9d9; stroke: #d9d9d9; stroke-width: 0.8"/>
      </g>
     </g>
     <g id="text_9">
      <!-- 16.0% -->
      <g style="fill: #d9d9d9" transform="translate(397.881549 332.397656) scale(0.1 -0.1)">
       <use xlink:href="#DejaVuSans-14"/>
       <use xlink:href="#DejaVuSans-19" transform="translate(63.625 0)"/>
       <use xlink:href="#DejaVuSans-11" transform="translate(127.25 0)"/>
       <use xlink:href="#DejaVuSans-13" transform="translate(159.03125 0)"/>
       <use xlink:href="#DejaVuSans-8" transform="translate(222.65625 0)"/>
      </g>
     </g>
    </g>
   </g>
   <g id="matplotlib.axis_2">
    <g id="ytick_1">
     <g id="line2d_19">
      <path d="M 27.26 298.71851 
L 450 298.71851 
" clip-path="url(#p42293b66c5)" style="fill: none; stroke-dasharray: 1.85,0.8; stroke-dashoffset: 0; stroke: #b2b2b2; stroke-width: 0.5"/>
     </g>
     <g id="line2d_20">
      <defs>
       <path id="m99eab70db1" d="M 0 0 
L 3.5 0 
" style="stroke: #d9d9d9; stroke-width: 0.8"/>
      </defs>
      <g>
       <use xlink:href="#m99eab70db1" x="27.26" y="298.71851" style="fill: #d9d9d9; stroke: #d9d9d9; stroke-width: 0.8"/>
      </g>
     </g>
     <g id="text_10">
      <!-- 1 -->
      <g style="fill: #d9d9d9" transform="translate(17.3975 302.517338) scale(0.1 -0.1)">
       <use xlink:href="#DejaVuSans-14"/>
      </g>
     </g>
    </g>
    <g id="ytick_2">
     <g id="line2d_21">
      <path d="M 27.26 276.137019 
L 450 276.137019 
" clip-path="url(#p42293b66c5)" style="fill: none; stroke-dasharray: 1.85,0.8; stroke-dashoffset: 0; stroke: #b2b2b2; stroke-width: 0.5"/>
     </g>
     <g id="line2d_22">
      <g>
       <use xlink:href="#m99eab70db1" x="27.26" y="276.137019" style="fill: #d9d9d9; stroke: #d9d9d9; stroke-width: 0.8"/>
      </g>
     </g>
     <g id="text_11">
      <!-- 2 -->
      <g style="fill: #d9d9d9" transform="translate(17.3975 279.935847) scale(0.1 -0.1)">
       <use xlink:href="#DejaVuSans-15"/>
      </g>
     </g>
    </g>
    <g id="ytick_3">
     <g id="line2d_23">
      <path d="M 27.26 253.555529 
L 450 253.555529 
" clip-path="url(#p42293b66c5)" style="fill: none; stroke-dasharray: 1.85,0.8; stroke-dashoffset: 0; stroke: #b2b2b2; stroke-width: 0.5"/>
     </g>
     <g id="line2d_24">
      <g>
       <use xlink:href="#m99eab70db1" x="27.26" y="253.555529" style="fill: #d9d9d9; stroke: #d9d9d9; stroke-width: 0.8"/>
      </g>
     </g>
     <g id="text_12">
      <!-- 3 -->
      <g style="fill: #d9d9d9" transform="translate(17.3975 257.354357) scale(0.1 -0.1)">
       <defs>
        <path id="DejaVuSans-16" d="M 2597 2516 
Q 3050 2419 3304 2112 
Q 3559 1806 3559 1356 
Q 3559 666 3084 287 
Q 2609 -91 1734 -91 
Q 1441 -91 1130 -33 
Q 819 25 488 141 
L 488 750 
Q 750 597 1062 519 
Q 1375 441 1716 441 
Q 2309 441 2620 675 
Q 2931 909 2931 1356 
Q 2931 1769 2642 2001 
Q 2353 2234 1838 2234 
L 1294 2234 
L 1294 2753 
L 1863 2753 
Q 2328 2753 2575 2939 
Q 2822 3125 2822 3475 
Q 2822 3834 2567 4026 
Q 2313 4219 1838 4219 
Q 1578 4219 1281 4162 
Q 984 4106 628 3988 
L 628 4550 
Q 988 4650 1302 4700 
Q 1616 4750 1894 4750 
Q 2613 4750 3031 4423 
Q 3450 4097 3450 3541 
Q 3450 3153 3228 2886 
Q 3006 2619 2597 2516 
z
" transform="scale(0.015625)"/>
       </defs>
       <use xlink:href="#DejaVuSans-16"/>
      </g>
     </g>
    </g>
    <g id="ytick_4">
     <g id="line2d_25">
      <path d="M 27.26 230.974038 
L 450 230.974038 
" clip-path="url(#p42293b66c5)" style="fill: none; stroke-dasharray: 1.85,0.8; stroke-dashoffset: 0; stroke: #b2b2b2; stroke-width: 0.5"/>
     </g>
     <g id="line2d_26">
      <g>
       <use xlink:href="#m99eab70db1" x="27.26" y="230.974038" style="fill: #d9d9d9; stroke: #d9d9d9; stroke-width: 0.8"/>
      </g>
     </g>
     <g id="text_13">
      <!-- 4 -->
      <g style="fill: #d9d9d9" transform="translate(17.3975 234.772867) scale(0.1 -0.1)">
       <use xlink:href="#DejaVuSans-17"/>
      </g>
     </g>
    </g>
    <g id="ytick_5">
     <g id="line2d_27">
      <path d="M 27.26 208.392548 
L 450 208.392548 
" clip-path="url(#p42293b66c5)" style="fill: none; stroke-dasharray: 1.85,0.8; stroke-dashoffset: 0; stroke: #b2b2b2; stroke-width: 0.5"/>
     </g>
     <g id="line2d_28">
      <g>
       <use xlink:href="#m99eab70db1" x="27.26" y="208.392548" style="fill: #d9d9d9; stroke: #d9d9d9; stroke-width: 0.8"/>
      </g>
     </g>
     <g id="text_14">
      <!-- 5 -->
      <g style="fill: #d9d9d9" transform="translate(17.3975 212.191376) scale(0.1 -0.1)">
       <defs>
        <path id="DejaVuSans-18" d="M 691 4666 
L 3169 4666 
L 3169 4134 
L 1269 4134 
L 1269 2991 
Q 1406 3038 1543 3061 
Q 1681 3084 1819 3084 
Q 2600 3084 3056 2656 
Q 3513 2228 3513 1497 
Q 3513 744 3044 326 
Q 2575 -91 1722 -91 
Q 1428 -91 1123 -41 
Q 819 9 494 109 
L 494 744 
Q 775 591 1075 516 
Q 1375 441 1709 441 
Q 2250 441 2565 725 
Q 2881 1009 2881 1497 
Q 2881 1984 2565 2268 
Q 2250 2553 1709 2553 
Q 1456 2553 1204 2497 
Q 953 2441 691 2322 
L 691 4666 
z
" transform="scale(0.015625)"/>
       </defs>
       <use xlink:href="#DejaVuSans-18"/>
      </g>
     </g>
    </g>
    <g id="ytick_6">
     <g id="line2d_29">
      <path d="M 27.26 185.811058 
L 450 185.811058 
" clip-path="url(#p42293b66c5)" style="fill: none; stroke-dasharray: 1.85,0.8; stroke-dashoffset: 0; stroke: #b2b2b2; stroke-width: 0.5"/>
     </g>
     <g id="line2d_30">
      <g>
       <use xlink:href="#m99eab70db1" x="27.26" y="185.811058" style="fill: #d9d9d9; stroke: #d9d9d9; stroke-width: 0.8"/>
      </g>
     </g>
     <g id="text_15">
      <!-- 6 -->
      <g style="fill: #d9d9d9" transform="translate(17.3975 189.609886) scale(0.1 -0.1)">
       <use xlink:href="#DejaVuSans-19"/>
      </g>
     </g>
    </g>
    <g id="ytick_7">
     <g id="line2d_31">
      <path d="M 27.26 163.229567 
L 450 163.229567 
" clip-path="url(#p42293b66c5)" style="fill: none; stroke-dasharray: 1.85,0.8; stroke-dashoffset: 0; stroke: #b2b2b2; stroke-width: 0.5"/>
     </g>
     <g id="line2d_32">
      <g>
       <use xlink:href="#m99eab70db1" x="27.26" y="163.229567" style="fill: #d9d9d9; stroke: #d9d9d9; stroke-width: 0.8"/>
      </g>
     </g>
     <g id="text_16">
      <!-- 7 -->
      <g style="fill: #d9d9d9" transform="translate(17.3975 167.028395) scale(0.1 -0.1)">
       <defs>
        <path id="DejaVuSans-1a" d="M 525 4666 
L 3525 4666 
L 3525 4397 
L 1831 0 
L 1172 0 
L 2766 4134 
L 525 4134 
L 525 4666 
z
" transform="scale(0.015625)"/>
       </defs>
       <use xlink:href="#DejaVuSans-1a"/>
      </g>
     </g>
    </g>
    <g id="ytick_8">
     <g id="line2d_33">
      <path d="M 27.26 140.648077 
L 450 140.648077 
" clip-path="url(#p42293b66c5)" style="fill: none; stroke-dasharray: 1.85,0.8; stroke-dashoffset: 0; stroke: #b2b2b2; stroke-width: 0.5"/>
     </g>
     <g id="line2d_34">
      <g>
       <use xlink:href="#m99eab70db1" x="27.26" y="140.648077" style="fill: #d9d9d9; stroke: #d9d9d9; stroke-width: 0.8"/>
      </g>
     </g>
     <g id="text_17">
      <!-- 8 -->
      <g style="fill: #d9d9d9" transform="translate(17.3975 144.446905) scale(0.1 -0.1)">
       <use xlink:href="#DejaVuSans-1b"/>
      </g>
     </g>
    </g>
    <g id="ytick_9">
     <g id="line2d_35">
      <path d="M 27.26 118.066587 
L 450 118.066587 
" clip-path="url(#p42293b66c5)" style="fill: none; stroke-dasharray: 1.85,0.8; stroke-dashoffset: 0; stroke: #b2b2b2; stroke-width: 0.5"/>
     </g>
     <g id="line2d_36">
      <g>
       <use xlink:href="#m99eab70db1" x="27.26" y="118.066587" style="fill: #d9d9d9; stroke: #d9d9d9; stroke-width: 0.8"/>
      </g>
     </g>
     <g id="text_18">
      <!-- 9 -->
      <g style="fill: #d9d9d9" transform="translate(17.3975 121.865415) scale(0.1 -0.1)">
       <defs>
        <path id="DejaVuSans-1c" d="M 703 97 
L 703 672 
Q 941 559 1184 500 
Q 1428 441 1663 441 
Q 2288 441 2617 861 
Q 2947 1281 2994 2138 
Q 2813 1869 2534 1725 
Q 2256 1581 1919 1581 
Q 1219 1581 811 2004 
Q 403 2428 403 3163 
Q 403 3881 828 4315 
Q 1253 4750 1959 4750 
Q 2769 4750 3195 4129 
Q 3622 3509 3622 2328 
Q 3622 1225 3098 567 
Q 2575 -91 1691 -91 
Q 1453 -91 1209 -44 
Q 966 3 703 97 
z
M 1959 2075 
Q 2384 2075 2632 2365 
Q 2881 2656 2881 3163 
Q 2881 3666 2632 3958 
Q 2384 4250 1959 4250 
Q 1534 4250 1286 3958 
Q 1038 3666 1038 3163 
Q 1038 2656 1286 2365 
Q 1534 2075 1959 2075 
z
" transform="scale(0.015625)"/>
       </defs>
       <use xlink:href="#DejaVuSans-1c"/>
      </g>
     </g>
    </g>
    <g id="ytick_10">
     <g id="line2d_37">
      <path d="M 27.26 95.485096 
L 450 95.485096 
" clip-path="url(#p42293b66c5)" style="fill: none; stroke-dasharray: 1.85,0.8; stroke-dashoffset: 0; stroke: #b2b2b2; stroke-width: 0.5"/>
     </g>
     <g id="line2d_38">
      <g>
       <use xlink:href="#m99eab70db1" x="27.26" y="95.485096" style="fill: #d9d9d9; stroke: #d9d9d9; stroke-width: 0.8"/>
      </g>
     </g>
     <g id="text_19">
      <!-- 10 -->
      <g style="fill: #d9d9d9" transform="translate(11.035 99.283924) scale(0.1 -0.1)">
       <use xlink:href="#DejaVuSans-14"/>
       <use xlink:href="#DejaVuSans-13" transform="translate(63.625 0)"/>
      </g>
     </g>
    </g>
    <g id="ytick_11">
     <g id="line2d_39">
      <path d="M 27.26 72.903606 
L 450 72.903606 
" clip-path="url(#p42293b66c5)" style="fill: none; stroke-dasharray: 1.85,0.8; stroke-dashoffset: 0; stroke: #b2b2b2; stroke-width: 0.5"/>
     </g>
     <g id="line2d_40">
      <g>
       <use xlink:href="#m99eab70db1" x="27.26" y="72.903606" style="fill: #d9d9d9; stroke: #d9d9d9; stroke-width: 0.8"/>
      </g>
     </g>
     <g id="text_20">
      <!-- 11 -->
      <g style="fill: #d9d9d9" transform="translate(11.035 76.702434) scale(0.1 -0.1)">
       <use xlink:href="#DejaVuSans-14"/>
       <use xlink:href="#DejaVuSans-14" transform="translate(63.625 0)"/>
      </g>
     </g>
    </g>
    <g id="ytick_12">
     <g id="line2d_41">
      <path d="M 27.26 50.322115 
L 450 50.322115 
" clip-path="url(#p42293b66c5)" style="fill: none; stroke-dasharray: 1.85,0.8; stroke-dashoffset: 0; stroke: #b2b2b2; stroke-width: 0.5"/>
     </g>
     <g id="line2d_42">
      <g>
       <use xlink:href="#m99eab70db1" x="27.26" y="50.322115" style="fill: #d9d9d9; stroke: #d9d9d9; stroke-width: 0.8"/>
      </g>
     </g>
     <g id="text_21">
      <!-- 12 -->
      <g style="fill: #d9d9d9" transform="translate(11.035 54.120944) scale(0.1 -0.1)">
       <use xlink:href="#DejaVuSans-14"/>
       <use xlink:href="#DejaVuSans-15" transform="translate(63.625 0)"/>
      </g>
     </g>
    </g>
   </g>
   <g id="patch_26">
    <path d="M 27.26 321.3 
L 27.26 27.740625 
" style="fill: none; stroke: #bcbcbc; stroke-width: 0.8; stroke-linejoin: miter; stroke-linecap: square"/>
   </g>
   <g id="patch_27">
    <path d="M 450 321.3 
L 450 27.740625 
" style="fill: none; stroke: #bcbcbc; stroke-width: 0.8; stroke-linejoin: miter; stroke-linecap: square"/>
   </g>
   <g id="patch_28">
    <path d="M 27.26 321.3 
L 450 321.3 
" style="fill: none; stroke: #bcbcbc; stroke-width: 0.8; stroke-linejoin: miter; stroke-linecap: square"/>
   </g>
   <g id="patch_29">
    <path d="M 27.26 27.740625 
L 450 27.740625 
" style="fill: none; stroke: #bcbcbc; stroke-width: 0.8; stroke-linejoin: miter; stroke-linecap: square"/>
   </g>
   <g id="text_22">
    <!-- 2d6 vs. d12 -->
    <g style="fill: #d9d9d9" transform="translate(196.28725 21.740625) scale(0.144 -0.144)">
     <defs>
      <path id="DejaVuSans-47" d="M 2906 2969 
L 2906 4863 
L 3481 4863 
L 3481 0 
L 2906 0 
L 2906 525 
Q 2725 213 2448 61 
Q 2172 -91 1784 -91 
Q 1150 -91 751 415 
Q 353 922 353 1747 
Q 353 2572 751 3078 
Q 1150 3584 1784 3584 
Q 2172 3584 2448 3432 
Q 2725 3281 2906 2969 
z
M 947 1747 
Q 947 1113 1208 752 
Q 1469 391 1925 391 
Q 2381 391 2643 752 
Q 2906 1113 2906 1747 
Q 2906 2381 2643 2742 
Q 2381 3103 1925 3103 
Q 1469 3103 1208 2742 
Q 947 2381 947 1747 
z
" transform="scale(0.015625)"/>
      <path id="DejaVuSans-3" transform="scale(0.015625)"/>
      <path id="DejaVuSans-59" d="M 191 3500 
L 800 3500 
L 1894 563 
L 2988 3500 
L 3597 3500 
L 2284 0 
L 1503 0 
L 191 3500 
z
" transform="scale(0.015625)"/>
      <path id="DejaVuSans-56" d="M 2834 3397 
L 2834 2853 
Q 2591 2978 2328 3040 
Q 2066 3103 1784 3103 
Q 1356 3103 1142 2972 
Q 928 2841 928 2578 
Q 928 2378 1081 2264 
Q 1234 2150 1697 2047 
L 1894 2003 
Q 2506 1872 2764 1633 
Q 3022 1394 3022 966 
Q 3022 478 2636 193 
Q 2250 -91 1575 -91 
Q 1294 -91 989 -36 
Q 684 19 347 128 
L 347 722 
Q 666 556 975 473 
Q 1284 391 1588 391 
Q 1994 391 2212 530 
Q 2431 669 2431 922 
Q 2431 1156 2273 1281 
Q 2116 1406 1581 1522 
L 1381 1569 
Q 847 1681 609 1914 
Q 372 2147 372 2553 
Q 372 3047 722 3315 
Q 1072 3584 1716 3584 
Q 2034 3584 2315 3537 
Q 2597 3491 2834 3397 
z
" transform="scale(0.015625)"/>
     </defs>
     <use xlink:href="#DejaVuSans-15"/>
     <use xlink:href="#DejaVuSans-47" transform="translate(63.625 0)"/>
     <use xlink:href="#DejaVuSans-19" transform="translate(127.109375 0)"/>
     <use xlink:href="#DejaVuSans-3" transform="translate(190.734375 0)"/>
     <use xlink:href="#DejaVuSans-59" transform="translate(222.515625 0)"/>
     <use xlink:href="#DejaVuSans-56" transform="translate(281.703125 0)"/>
     <use xlink:href="#DejaVuSans-11" transform="translate(333.796875 0)"/>
     <use xlink:href="#DejaVuSans-3" transform="translate(365.578125 0)"/>
     <use xlink:href="#DejaVuSans-47" transform="translate(397.359375 0)"/>
     <use xlink:href="#DejaVuSans-14" transform="translate(460.84375 0)"/>
     <use xlink:href="#DejaVuSans-15" transform="translate(524.46875 0)"/>
    </g>
   </g>
   <g id="legend_1">
    <g id="patch_30">
     <path d="M 391.926562 65.742188 
L 443 65.742188 
Q 445 65.742188 445 63.742188 
L 445 34.740625 
Q 445 32.740625 443 32.740625 
L 391.926562 32.740625 
Q 389.926562 32.740625 389.926562 34.740625 
L 389.926562 63.742188 
Q 389.926562 65.742188 391.926562 65.742188 
z
" style="fill: #eeeeee; opacity: 0.8; stroke: #cccccc; stroke-width: 0.5; stroke-linejoin: miter"/>
    </g>
    <g id="patch_31">
     <path d="M 393.926562 44.339063 
L 413.926562 44.339063 
L 413.926562 37.339063 
L 393.926562 37.339063 
z
" style="fill: #348abd; opacity: 0.75"/>
    </g>
    <g id="text_23">
     <!-- 2d6 -->
     <g transform="translate(421.926562 44.339063) scale(0.1 -0.1)">
      <use xlink:href="#DejaVuSans-15"/>
      <use xlink:href="#DejaVuSans-47" transform="translate(63.625 0)"/>
      <use xlink:href="#DejaVuSans-19" transform="translate(127.109375 0)"/>
     </g>
    </g>
    <g id="patch_32">
     <path d="M 393.926562 59.339844 
L 413.926562 59.339844 
L 413.926562 52.339844 
L 393.926562 52.339844 
z
" style="fill: #a60628; opacity: 0.75"/>
    </g>
    <g id="text_24">
     <!-- d12 -->
     <g transform="translate(421.926562 59.339844) scale(0.1 -0.1)">
      <use xlink:href="#DejaVuSans-47"/>
      <use xlink:href="#DejaVuSans-14" transform="translate(63.484375 0)"/>
      <use xlink:href="#DejaVuSans-15" transform="translate(127.109375 0)"/>
     </g>
    </g>
   </g>
  </g>
 </g>
 <defs>
  <clipPath id="p42293b66c5">
   <rect x="27.26" y="27.740625" width="422.74" height="293.559375"/>
  </clipPath>
 </defs>
</svg>
