<?xml version="1.0" encoding="utf-8" standalone="no"?>
<!DOCTYPE svg PUBLIC "-//W3C//DTD SVG 1.1//EN"
  "http://www.w3.org/Graphics/SVG/1.1/DTD/svg11.dtd">
<svg xmlns:xlink="http://www.w3.org/1999/xlink" width="460.8pt" height="345.6pt" viewBox="0 0 460.8 345.6" xmlns="http://www.w3.org/2000/svg" version="1.1">
 <metadata>
  <rdf:RDF xmlns:dc="http://purl.org/dc/elements/1.1/" xmlns:cc="http://creativecommons.org/ns#" xmlns:rdf="http://www.w3.org/1999/02/22-rdf-syntax-ns#">
   <cc:Work>
    <dc:type rdf:resource="http://purl.org/dc/dcmitype/StillImage"/>
    <dc:format>image/svg+xml</dc:format>
    <dc:creator>
     <cc:Agent>
      <dc:title>Matplotlib, https://matplotlib.org/</dc:title>
     </cc:Agent>
    </dc:creator>
   </cc:Work>
  </rdf:RDF>
 </metadata>
 <defs>
  <style type="text/css">*{stroke-linejoin: round; stroke-linecap: butt}</style>
 </defs>
 <g id="figure_1">
  <g id="patch_1">
   <path d="M 0 345.6 
L 460.8 345.6 
L 460.8 0 
L 0 0 
L 0 345.6 
z
" style="fill: none"/>
  </g>
  <g id="axes_1">
   <g id="patch_2">
    <path d="M 43.1 321.3 
L 450 321.3 
L 450 27.740625 
L 43.1 27.740625 
L 43.1 321.3 
z
" style="fill: none"/>
   </g>
   <g id="matplotlib.axis_1">
    <g id="xtick_1">
     <g id="line2d_1">
      <path d="M 60.054167 321.3 
L 60.054167 27.740625 
" clip-path="url(#p5c086211e8)" style="fill: none; stroke-dasharray: 1.85,0.8; stroke-dashoffset: 0; stroke: #b2b2b2; stroke-width: 0.5"/>
     </g>
     <g id="line2d_2">
      <defs>
       <path id="m64ba15eece" d="M 0 0 
L 0 -3.5 
" style="stroke: #262626; stroke-width: 0.8"/>
      </defs>
      <g>
       <use xlink:href="#m64ba15eece" x="60.054167" y="321.3" style="fill: #262626; stroke: #262626; stroke-width: 0.8"/>
      </g>
     </g>
     <g id="text_1">
      <!-- 1 -->
      <g style="fill: #262626" transform="translate(56.872917 332.397656) scale(0.1 -0.1)">
       <defs>
        <path id="DejaVuSans-14" d="M 794 531 
L 1825 531 
L 1825 4091 
L 703 3866 
L 703 4441 
L 1819 4666 
L 2450 4666 
L 2450 531 
L 3481 531 
L 3481 0 
L 794 0 
L 794 531 
z
" transform="scale(0.015625)"/>
       </defs>
       <use xlink:href="#DejaVuSans-14"/>
      </g>
     </g>
    </g>
    <g id="xtick_2">
     <g id="line2d_3">
      <path d="M 93.9625 321.3 
L 93.9625 27.740625 
" clip-path="url(#p5c086211e8)" style="fill: none; stroke-dasharray: 1.85,0.8; stroke-dashoffset: 0; stroke: #b2b2b2; stroke-width: 0.5"/>
     </g>
     <g id="line2d_4">
      <g>
       <use xlink:href="#m64ba15eece" x="93.9625" y="321.3" style="fill: #262626; stroke: #262626; stroke-width: 0.8"/>
      </g>
     </g>
     <g id="text_2">
      <!-- 2 -->
      <g style="fill: #262626" transform="translate(90.78125 332.397656) scale(0.1 -0.1)">
       <defs>
        <path id="DejaVuSans-15" d="M 1228 531 
L 3431 531 
L 3431 0 
L 469 0 
L 469 531 
Q 828 903 1448 1529 
Q 2069 2156 2228 2338 
Q 2531 2678 2651 2914 
Q 2772 3150 2772 3378 
Q 2772 3750 2511 3984 
Q 2250 4219 1831 4219 
Q 1534 4219 1204 4116 
Q 875 4013 500 3803 
L 500 4441 
Q 881 4594 1212 4672 
Q 1544 4750 1819 4750 
Q 2544 4750 2975 4387 
Q 3406 4025 3406 3419 
Q 3406 3131 3298 2873 
Q 3191 2616 2906 2266 
Q 2828 2175 2409 1742 
Q 1991 1309 1228 531 
z
" transform="scale(0.015625)"/>
       </defs>
       <use xlink:href="#DejaVuSans-15"/>
      </g>
     </g>
    </g>
    <g id="xtick_3">
     <g id="line2d_5">
      <path d="M 127.870833 321.3 
L 127.870833 27.740625 
" clip-path="url(#p5c086211e8)" style="fill: none; stroke-dasharray: 1.85,0.8; stroke-dashoffset: 0; stroke: #b2b2b2; stroke-width: 0.5"/>
     </g>
     <g id="line2d_6">
      <g>
       <use xlink:href="#m64ba15eece" x="127.870833" y="321.3" style="fill: #262626; stroke: #262626; stroke-width: 0.8"/>
      </g>
     </g>
     <g id="text_3">
      <!-- 3 -->
      <g style="fill: #262626" transform="translate(124.689583 332.397656) scale(0.1 -0.1)">
       <defs>
        <path id="DejaVuSans-16" d="M 2597 2516 
Q 3050 2419 3304 2112 
Q 3559 1806 3559 1356 
Q 3559 666 3084 287 
Q 2609 -91 1734 -91 
Q 1441 -91 1130 -33 
Q 819 25 488 141 
L 488 750 
Q 750 597 1062 519 
Q 1375 441 1716 441 
Q 2309 441 2620 675 
Q 2931 909 2931 1356 
Q 2931 1769 2642 2001 
Q 2353 2234 1838 2234 
L 1294 2234 
L 1294 2753 
L 1863 2753 
Q 2328 2753 2575 2939 
Q 2822 3125 2822 3475 
Q 2822 3834 2567 4026 
Q 2313 4219 1838 4219 
Q 1578 4219 1281 4162 
Q 984 4106 628 3988 
L 628 4550 
Q 988 4650 1302 4700 
Q 1616 4750 1894 4750 
Q 2613 4750 3031 4423 
Q 3450 4097 3450 3541 
Q 3450 3153 3228 2886 
Q 3006 2619 2597 2516 
z
" transform="scale(0.015625)"/>
       </defs>
       <use xlink:href="#DejaVuSans-16"/>
      </g>
     </g>
    </g>
    <g id="xtick_4">
     <g id="line2d_7">
      <path d="M 161.779167 321.3 
L 161.779167 27.740625 
" clip-path="url(#p5c086211e8)" style="fill: none; stroke-dasharray: 1.85,0.8; stroke-dashoffset: 0; stroke: #b2b2b2; stroke-width: 0.5"/>
     </g>
     <g id="line2d_8">
      <g>
       <use xlink:href="#m64ba15eece" x="161.779167" y="321.3" style="fill: #262626; stroke: #262626; stroke-width: 0.8"/>
      </g>
     </g>
     <g id="text_4">
      <!-- 4 -->
      <g style="fill: #262626" transform="translate(158.597917 332.397656) scale(0.1 -0.1)">
       <defs>
        <path id="DejaVuSans-17" d="M 2419 4116 
L 825 1625 
L 2419 1625 
L 2419 4116 
z
M 2253 4666 
L 3047 4666 
L 3047 1625 
L 3713 1625 
L 3713 1100 
L 3047 1100 
L 3047 0 
L 2419 0 
L 2419 1100 
L 313 1100 
L 313 1709 
L 2253 4666 
z
" transform="scale(0.015625)"/>
       </defs>
       <use xlink:href="#DejaVuSans-17"/>
      </g>
     </g>
    </g>
    <g id="xtick_5">
     <g id="line2d_9">
      <path d="M 195.6875 321.3 
L 195.6875 27.740625 
" clip-path="url(#p5c086211e8)" style="fill: none; stroke-dasharray: 1.85,0.8; stroke-dashoffset: 0; stroke: #b2b2b2; stroke-width: 0.5"/>
     </g>
     <g id="line2d_10">
      <g>
       <use xlink:href="#m64ba15eece" x="195.6875" y="321.3" style="fill: #262626; stroke: #262626; stroke-width: 0.8"/>
      </g>
     </g>
     <g id="text_5">
      <!-- 5 -->
      <g style="fill: #262626" transform="translate(192.50625 332.397656) scale(0.1 -0.1)">
       <defs>
        <path id="DejaVuSans-18" d="M 691 4666 
L 3169 4666 
L 3169 4134 
L 1269 4134 
L 1269 2991 
Q 1406 3038 1543 3061 
Q 1681 3084 1819 3084 
Q 2600 3084 3056 2656 
Q 3513 2228 3513 1497 
Q 3513 744 3044 326 
Q 2575 -91 1722 -91 
Q 1428 -91 1123 -41 
Q 819 9 494 109 
L 494 744 
Q 775 591 1075 516 
Q 1375 441 1709 441 
Q 2250 441 2565 725 
Q 2881 1009 2881 1497 
Q 2881 1984 2565 2268 
Q 2250 2553 1709 2553 
Q 1456 2553 1204 2497 
Q 953 2441 691 2322 
L 691 4666 
z
" transform="scale(0.015625)"/>
       </defs>
       <use xlink:href="#DejaVuSans-18"/>
      </g>
     </g>
    </g>
    <g id="xtick_6">
     <g id="line2d_11">
      <path d="M 229.595833 321.3 
L 229.595833 27.740625 
" clip-path="url(#p5c086211e8)" style="fill: none; stroke-dasharray: 1.85,0.8; stroke-dashoffset: 0; stroke: #b2b2b2; stroke-width: 0.5"/>
     </g>
     <g id="line2d_12">
      <g>
       <use xlink:href="#m64ba15eece" x="229.595833" y="321.3" style="fill: #262626; stroke: #262626; stroke-width: 0.8"/>
      </g>
     </g>
     <g id="text_6">
      <!-- 6 -->
      <g style="fill: #262626" transform="translate(226.414583 332.397656) scale(0.1 -0.1)">
       <defs>
        <path id="DejaVuSans-19" d="M 2113 2584 
Q 1688 2584 1439 2293 
Q 1191 2003 1191 1497 
Q 1191 994 1439 701 
Q 1688 409 2113 409 
Q 2538 409 2786 701 
Q 3034 994 3034 1497 
Q 3034 2003 2786 2293 
Q 2538 2584 2113 2584 
z
M 3366 4563 
L 3366 3988 
Q 3128 4100 2886 4159 
Q 2644 4219 2406 4219 
Q 1781 4219 1451 3797 
Q 1122 3375 1075 2522 
Q 1259 2794 1537 2939 
Q 1816 3084 2150 3084 
Q 2853 3084 3261 2657 
Q 3669 2231 3669 1497 
Q 3669 778 3244 343 
Q 2819 -91 2113 -91 
Q 1303 -91 875 529 
Q 447 1150 447 2328 
Q 447 3434 972 4092 
Q 1497 4750 2381 4750 
Q 2619 4750 2861 4703 
Q 3103 4656 3366 4563 
z
" transform="scale(0.015625)"/>
       </defs>
       <use xlink:href="#DejaVuSans-19"/>
      </g>
     </g>
    </g>
    <g id="xtick_7">
     <g id="line2d_13">
      <path d="M 263.504167 321.3 
L 263.504167 27.740625 
" clip-path="url(#p5c086211e8)" style="fill: none; stroke-dasharray: 1.85,0.8; stroke-dashoffset: 0; stroke: #b2b2b2; stroke-width: 0.5"/>
     </g>
     <g id="line2d_14">
      <g>
       <use xlink:href="#m64ba15eece" x="263.504167" y="321.3" style="fill: #262626; stroke: #262626; stroke-width: 0.8"/>
      </g>
     </g>
     <g id="text_7">
      <!-- 7 -->
      <g style="fill: #262626" transform="translate(260.322917 332.397656) scale(0.1 -0.1)">
       <defs>
        <path id="DejaVuSans-1a" d="M 525 4666 
L 3525 4666 
L 3525 4397 
L 1831 0 
L 1172 0 
L 2766 4134 
L 525 4134 
L 525 4666 
z
" transform="scale(0.015625)"/>
       </defs>
       <use xlink:href="#DejaVuSans-1a"/>
      </g>
     </g>
    </g>
    <g id="xtick_8">
     <g id="line2d_15">
      <path d="M 297.4125 321.3 
L 297.4125 27.740625 
" clip-path="url(#p5c086211e8)" style="fill: none; stroke-dasharray: 1.85,0.8; stroke-dashoffset: 0; stroke: #b2b2b2; stroke-width: 0.5"/>
     </g>
     <g id="line2d_16">
      <g>
       <use xlink:href="#m64ba15eece" x="297.4125" y="321.3" style="fill: #262626; stroke: #262626; stroke-width: 0.8"/>
      </g>
     </g>
     <g id="text_8">
      <!-- 8 -->
      <g style="fill: #262626" transform="translate(294.23125 332.397656) scale(0.1 -0.1)">
       <defs>
        <path id="DejaVuSans-1b" d="M 2034 2216 
Q 1584 2216 1326 1975 
Q 1069 1734 1069 1313 
Q 1069 891 1326 650 
Q 1584 409 2034 409 
Q 2484 409 2743 651 
Q 3003 894 3003 1313 
Q 3003 1734 2745 1975 
Q 2488 2216 2034 2216 
z
M 1403 2484 
Q 997 2584 770 2862 
Q 544 3141 544 3541 
Q 544 4100 942 4425 
Q 1341 4750 2034 4750 
Q 2731 4750 3128 4425 
Q 3525 4100 3525 3541 
Q 3525 3141 3298 2862 
Q 3072 2584 2669 2484 
Q 3125 2378 3379 2068 
Q 3634 1759 3634 1313 
Q 3634 634 3220 271 
Q 2806 -91 2034 -91 
Q 1263 -91 848 271 
Q 434 634 434 1313 
Q 434 1759 690 2068 
Q 947 2378 1403 2484 
z
M 1172 3481 
Q 1172 3119 1398 2916 
Q 1625 2713 2034 2713 
Q 2441 2713 2670 2916 
Q 2900 3119 2900 3481 
Q 2900 3844 2670 4047 
Q 2441 4250 2034 4250 
Q 1625 4250 1398 4047 
Q 1172 3844 1172 3481 
z
" transform="scale(0.015625)"/>
       </defs>
       <use xlink:href="#DejaVuSans-1b"/>
      </g>
     </g>
    </g>
    <g id="xtick_9">
     <g id="line2d_17">
      <path d="M 331.320833 321.3 
L 331.320833 27.740625 
" clip-path="url(#p5c086211e8)" style="fill: none; stroke-dasharray: 1.85,0.8; stroke-dashoffset: 0; stroke: #b2b2b2; stroke-width: 0.5"/>
     </g>
     <g id="line2d_18">
      <g>
       <use xlink:href="#m64ba15eece" x="331.320833" y="321.3" style="fill: #262626; stroke: #262626; stroke-width: 0.8"/>
      </g>
     </g>
     <g id="text_9">
      <!-- 9 -->
      <g style="fill: #262626" transform="translate(328.139583 332.397656) scale(0.1 -0.1)">
       <defs>
        <path id="DejaVuSans-1c" d="M 703 97 
L 703 672 
Q 941 559 1184 500 
Q 1428 441 1663 441 
Q 2288 441 2617 861 
Q 2947 1281 2994 2138 
Q 2813 1869 2534 1725 
Q 2256 1581 1919 1581 
Q 1219 1581 811 2004 
Q 403 2428 403 3163 
Q 403 3881 828 4315 
Q 1253 4750 1959 4750 
Q 2769 4750 3195 4129 
Q 3622 3509 3622 2328 
Q 3622 1225 3098 567 
Q 2575 -91 1691 -91 
Q 1453 -91 1209 -44 
Q 966 3 703 97 
z
M 1959 2075 
Q 2384 2075 2632 2365 
Q 2881 2656 2881 3163 
Q 2881 3666 2632 3958 
Q 2384 4250 1959 4250 
Q 1534 4250 1286 3958 
Q 1038 3666 1038 3163 
Q 1038 2656 1286 2365 
Q 1534 2075 1959 2075 
z
" transform="scale(0.015625)"/>
       </defs>
       <use xlink:href="#DejaVuSans-1c"/>
      </g>
     </g>
    </g>
    <g id="xtick_10">
     <g id="line2d_19">
      <path d="M 365.229167 321.3 
L 365.229167 27.740625 
" clip-path="url(#p5c086211e8)" style="fill: none; stroke-dasharray: 1.85,0.8; stroke-dashoffset: 0; stroke: #b2b2b2; stroke-width: 0.5"/>
     </g>
     <g id="line2d_20">
      <g>
       <use xlink:href="#m64ba15eece" x="365.229167" y="321.3" style="fill: #262626; stroke: #262626; stroke-width: 0.8"/>
      </g>
     </g>
     <g id="text_10">
      <!-- 10 -->
      <g style="fill: #262626" transform="translate(358.866667 332.397656) scale(0.1 -0.1)">
       <defs>
        <path id="DejaVuSans-13" d="M 2034 4250 
Q 1547 4250 1301 3770 
Q 1056 3291 1056 2328 
Q 1056 1369 1301 889 
Q 1547 409 2034 409 
Q 2525 409 2770 889 
Q 3016 1369 3016 2328 
Q 3016 3291 2770 3770 
Q 2525 4250 2034 4250 
z
M 2034 4750 
Q 2819 4750 3233 4129 
Q 3647 3509 3647 2328 
Q 3647 1150 3233 529 
Q 2819 -91 2034 -91 
Q 1250 -91 836 529 
Q 422 1150 422 2328 
Q 422 3509 836 4129 
Q 1250 4750 2034 4750 
z
" transform="scale(0.015625)"/>
       </defs>
       <use xlink:href="#DejaVuSans-14"/>
       <use xlink:href="#DejaVuSans-13" transform="translate(63.625 0)"/>
      </g>
     </g>
    </g>
    <g id="xtick_11">
     <g id="line2d_21">
      <path d="M 399.1375 321.3 
L 399.1375 27.740625 
" clip-path="url(#p5c086211e8)" style="fill: none; stroke-dasharray: 1.85,0.8; stroke-dashoffset: 0; stroke: #b2b2b2; stroke-width: 0.5"/>
     </g>
     <g id="line2d_22">
      <g>
       <use xlink:href="#m64ba15eece" x="399.1375" y="321.3" style="fill: #262626; stroke: #262626; stroke-width: 0.8"/>
      </g>
     </g>
     <g id="text_11">
      <!-- 11 -->
      <g style="fill: #262626" transform="translate(392.775 332.397656) scale(0.1 -0.1)">
       <use xlink:href="#DejaVuSans-14"/>
       <use xlink:href="#DejaVuSans-14" transform="translate(63.625 0)"/>
      </g>
     </g>
    </g>
    <g id="xtick_12">
     <g id="line2d_23">
      <path d="M 433.045833 321.3 
L 433.045833 27.740625 
" clip-path="url(#p5c086211e8)" style="fill: none; stroke-dasharray: 1.85,0.8; stroke-dashoffset: 0; stroke: #b2b2b2; stroke-width: 0.5"/>
     </g>
     <g id="line2d_24">
      <g>
       <use xlink:href="#m64ba15eece" x="433.045833" y="321.3" style="fill: #262626; stroke: #262626; stroke-width: 0.8"/>
      </g>
     </g>
     <g id="text_12">
      <!-- 12 -->
      <g style="fill: #262626" transform="translate(426.683333 332.397656) scale(0.1 -0.1)">
       <use xlink:href="#DejaVuSans-14"/>
       <use xlink:href="#DejaVuSans-15" transform="translate(63.625 0)"/>
      </g>
     </g>
    </g>
   </g>
   <g id="matplotlib.axis_2">
    <g id="ytick_1">
     <g id="line2d_25">
      <path d="M 43.1 315.581311 
L 450 315.581311 
" clip-path="url(#p5c086211e8)" style="fill: none; stroke-dasharray: 1.85,0.8; stroke-dashoffset: 0; stroke: #b2b2b2; stroke-width: 0.5"/>
     </g>
     <g id="line2d_26">
      <defs>
       <path id="mfdb6909f6b" d="M 0 0 
L 3.5 0 
" style="stroke: #262626; stroke-width: 0.8"/>
      </defs>
      <g>
       <use xlink:href="#mfdb6909f6b" x="43.1" y="315.581311" style="fill: #262626; stroke: #262626; stroke-width: 0.8"/>
      </g>
     </g>
     <g id="text_13">
      <!-- 0% -->
      <g style="fill: #262626" transform="translate(23.735937 319.380139) scale(0.1 -0.1)">
       <defs>
        <path id="DejaVuSans-8" d="M 4653 2053 
Q 4381 2053 4226 1822 
Q 4072 1591 4072 1178 
Q 4072 772 4226 539 
Q 4381 306 4653 306 
Q 4919 306 5073 539 
Q 5228 772 5228 1178 
Q 5228 1588 5073 1820 
Q 4919 2053 4653 2053 
z
M 4653 2450 
Q 5147 2450 5437 2106 
Q 5728 1763 5728 1178 
Q 5728 594 5436 251 
Q 5144 -91 4653 -91 
Q 4153 -91 3862 251 
Q 3572 594 3572 1178 
Q 3572 1766 3864 2108 
Q 4156 2450 4653 2450 
z
M 1428 4353 
Q 1159 4353 1004 4120 
Q 850 3888 850 3481 
Q 850 3069 1003 2837 
Q 1156 2606 1428 2606 
Q 1700 2606 1854 2837 
Q 2009 3069 2009 3481 
Q 2009 3884 1853 4118 
Q 1697 4353 1428 4353 
z
M 4250 4750 
L 4750 4750 
L 1831 -91 
L 1331 -91 
L 4250 4750 
z
M 1428 4750 
Q 1922 4750 2215 4408 
Q 2509 4066 2509 3481 
Q 2509 2891 2217 2550 
Q 1925 2209 1428 2209 
Q 931 2209 642 2551 
Q 353 2894 353 3481 
Q 353 4063 643 4406 
Q 934 4750 1428 4750 
z
" transform="scale(0.015625)"/>
       </defs>
       <use xlink:href="#DejaVuSans-13"/>
       <use xlink:href="#DejaVuSans-8" transform="translate(63.625 0)"/>
      </g>
     </g>
    </g>
    <g id="ytick_2">
     <g id="line2d_27">
      <path d="M 43.1 260.681895 
L 450 260.681895 
" clip-path="url(#p5c086211e8)" style="fill: none; stroke-dasharray: 1.85,0.8; stroke-dashoffset: 0; stroke: #b2b2b2; stroke-width: 0.5"/>
     </g>
     <g id="line2d_28">
      <g>
       <use xlink:href="#mfdb6909f6b" x="43.1" y="260.681895" style="fill: #262626; stroke: #262626; stroke-width: 0.8"/>
      </g>
     </g>
     <g id="text_14">
      <!-- 20% -->
      <g style="fill: #262626" transform="translate(17.373438 264.480723) scale(0.1 -0.1)">
       <use xlink:href="#DejaVuSans-15"/>
       <use xlink:href="#DejaVuSans-13" transform="translate(63.625 0)"/>
       <use xlink:href="#DejaVuSans-8" transform="translate(127.25 0)"/>
      </g>
     </g>
    </g>
    <g id="ytick_3">
     <g id="line2d_29">
      <path d="M 43.1 205.78248 
L 450 205.78248 
" clip-path="url(#p5c086211e8)" style="fill: none; stroke-dasharray: 1.85,0.8; stroke-dashoffset: 0; stroke: #b2b2b2; stroke-width: 0.5"/>
     </g>
     <g id="line2d_30">
      <g>
       <use xlink:href="#mfdb6909f6b" x="43.1" y="205.78248" style="fill: #262626; stroke: #262626; stroke-width: 0.8"/>
      </g>
     </g>
     <g id="text_15">
      <!-- 40% -->
      <g style="fill: #262626" transform="translate(17.373438 209.581308) scale(0.1 -0.1)">
       <use xlink:href="#DejaVuSans-17"/>
       <use xlink:href="#DejaVuSans-13" transform="translate(63.625 0)"/>
       <use xlink:href="#DejaVuSans-8" transform="translate(127.25 0)"/>
      </g>
     </g>
    </g>
    <g id="ytick_4">
     <g id="line2d_31">
      <path d="M 43.1 150.883064 
L 450 150.883064 
" clip-path="url(#p5c086211e8)" style="fill: none; stroke-dasharray: 1.85,0.8; stroke-dashoffset: 0; stroke: #b2b2b2; stroke-width: 0.5"/>
     </g>
     <g id="line2d_32">
      <g>
       <use xlink:href="#mfdb6909f6b" x="43.1" y="150.883064" style="fill: #262626; stroke: #262626; stroke-width: 0.8"/>
      </g>
     </g>
     <g id="text_16">
      <!-- 60% -->
      <g style="fill: #262626" transform="translate(17.373438 154.681892) scale(0.1 -0.1)">
       <use xlink:href="#DejaVuSans-19"/>
       <use xlink:href="#DejaVuSans-13" transform="translate(63.625 0)"/>
       <use xlink:href="#DejaVuSans-8" transform="translate(127.25 0)"/>
      </g>
     </g>
    </g>
    <g id="ytick_5">
     <g id="line2d_33">
      <path d="M 43.1 95.983649 
L 450 95.983649 
" clip-path="url(#p5c086211e8)" style="fill: none; stroke-dasharray: 1.85,0.8; stroke-dashoffset: 0; stroke: #b2b2b2; stroke-width: 0.5"/>
     </g>
     <g id="line2d_34">
      <g>
       <use xlink:href="#mfdb6909f6b" x="43.1" y="95.983649" style="fill: #262626; stroke: #262626; stroke-width: 0.8"/>
      </g>
     </g>
     <g id="text_17">
      <!-- 80% -->
      <g style="fill: #262626" transform="translate(17.373438 99.782477) scale(0.1 -0.1)">
       <use xlink:href="#DejaVuSans-1b"/>
       <use xlink:href="#DejaVuSans-13" transform="translate(63.625 0)"/>
       <use xlink:href="#DejaVuSans-8" transform="translate(127.25 0)"/>
      </g>
     </g>
    </g>
    <g id="ytick_6">
     <g id="line2d_35">
      <path d="M 43.1 41.084233 
L 450 41.084233 
" clip-path="url(#p5c086211e8)" style="fill: none; stroke-dasharray: 1.85,0.8; stroke-dashoffset: 0; stroke: #b2b2b2; stroke-width: 0.5"/>
     </g>
     <g id="line2d_36">
      <g>
       <use xlink:href="#mfdb6909f6b" x="43.1" y="41.084233" style="fill: #262626; stroke: #262626; stroke-width: 0.8"/>
      </g>
     </g>
     <g id="text_18">
      <!-- 100% -->
      <g style="fill: #262626" transform="translate(11.010938 44.883061) scale(0.1 -0.1)">
       <use xlink:href="#DejaVuSans-14"/>
       <use xlink:href="#DejaVuSans-13" transform="translate(63.625 0)"/>
       <use xlink:href="#DejaVuSans-13" transform="translate(127.25 0)"/>
       <use xlink:href="#DejaVuSans-8" transform="translate(190.875 0)"/>
      </g>
     </g>
    </g>
   </g>
   <g id="line2d_37">
    <path d="M 93.9625 307.956392 
L 127.870833 292.706554 
L 161.779167 269.831798 
L 195.6875 239.332123 
L 229.595833 201.207528 
L 263.504167 155.458015 
L 297.4125 117.333421 
L 331.320833 86.833746 
L 365.229167 63.958989 
L 399.1375 48.709152 
L 433.045833 41.084233 
" clip-path="url(#p5c086211e8)" style="fill: none; stroke: #348abd; stroke-opacity: 0.75; stroke-width: 2; stroke-linecap: square"/>
    <defs>
     <path id="m140c80c427" d="M 0 3 
C 0.795609 3 1.55874 2.683901 2.12132 2.12132 
C 2.683901 1.55874 3 0.795609 3 0 
C 3 -0.795609 2.683901 -1.55874 2.12132 -2.12132 
C 1.55874 -2.683901 0.795609 -3 0 -3 
C -0.795609 -3 -1.55874 -2.683901 -2.12132 -2.12132 
C -2.683901 -1.55874 -3 -0.795609 -3 0 
C -3 0.795609 -2.683901 1.55874 -2.12132 2.12132 
C -1.55874 2.683901 -0.795609 3 0 3 
z
" style="stroke: #348abd; stroke-opacity: 0.75"/>
    </defs>
    <g clip-path="url(#p5c086211e8)">
     <use xlink:href="#m140c80c427" x="93.9625" y="307.956392" style="fill: #348abd; fill-opacity: 0.75; stroke: #348abd; stroke-opacity: 0.75"/>
     <use xlink:href="#m140c80c427" x="127.870833" y="292.706554" style="fill: #348abd; fill-opacity: 0.75; stroke: #348abd; stroke-opacity: 0.75"/>
     <use xlink:href="#m140c80c427" x="161.779167" y="269.831798" style="fill: #348abd; fill-opacity: 0.75; stroke: #348abd; stroke-opacity: 0.75"/>
     <use xlink:href="#m140c80c427" x="195.6875" y="239.332123" style="fill: #348abd; fill-opacity: 0.75; stroke: #348abd; stroke-opacity: 0.75"/>
     <use xlink:href="#m140c80c427" x="229.595833" y="201.207528" style="fill: #348abd; fill-opacity: 0.75; stroke: #348abd; stroke-opacity: 0.75"/>
     <use xlink:href="#m140c80c427" x="263.504167" y="155.458015" style="fill: #348abd; fill-opacity: 0.75; stroke: #348abd; stroke-opacity: 0.75"/>
     <use xlink:href="#m140c80c427" x="297.4125" y="117.333421" style="fill: #348abd; fill-opacity: 0.75; stroke: #348abd; stroke-opacity: 0.75"/>
     <use xlink:href="#m140c80c427" x="331.320833" y="86.833746" style="fill: #348abd; fill-opacity: 0.75; stroke: #348abd; stroke-opacity: 0.75"/>
     <use xlink:href="#m140c80c427" x="365.229167" y="63.958989" style="fill: #348abd; fill-opacity: 0.75; stroke: #348abd; stroke-opacity: 0.75"/>
     <use xlink:href="#m140c80c427" x="399.1375" y="48.709152" style="fill: #348abd; fill-opacity: 0.75; stroke: #348abd; stroke-opacity: 0.75"/>
     <use xlink:href="#m140c80c427" x="433.045833" y="41.084233" style="fill: #348abd; fill-opacity: 0.75; stroke: #348abd; stroke-opacity: 0.75"/>
    </g>
   </g>
   <g id="line2d_38">
    <path d="M 60.054167 292.706554 
L 93.9625 269.831798 
L 127.870833 246.957041 
L 161.779167 224.082285 
L 195.6875 201.207528 
L 229.595833 178.332772 
L 263.504167 155.458015 
L 297.4125 132.583259 
L 331.320833 109.708502 
L 365.229167 86.833746 
L 399.1375 63.958989 
L 433.045833 41.084233 
" clip-path="url(#p5c086211e8)" style="fill: none; stroke: #a60628; stroke-opacity: 0.75; stroke-width: 2; stroke-linecap: square"/>
    <defs>
     <path id="m0fee9c74ac" d="M -1.5 3 
L 0 1.5 
L 1.5 3 
L 3 1.5 
L 1.5 0 
L 3 -1.5 
L 1.5 -3 
L 0 -1.5 
L -1.5 -3 
L -3 -1.5 
L -1.5 0 
L -3 1.5 
z
" style="stroke: #a60628; stroke-opacity: 0.75; stroke-linejoin: miter"/>
    </defs>
    <g clip-path="url(#p5c086211e8)">
     <use xlink:href="#m0fee9c74ac" x="60.054167" y="292.706554" style="fill: #a60628; fill-opacity: 0.75; stroke: #a60628; stroke-opacity: 0.75; stroke-linejoin: miter"/>
     <use xlink:href="#m0fee9c74ac" x="93.9625" y="269.831798" style="fill: #a60628; fill-opacity: 0.75; stroke: #a60628; stroke-opacity: 0.75; stroke-linejoin: miter"/>
     <use xlink:href="#m0fee9c74ac" x="127.870833" y="246.957041" style="fill: #a60628; fill-opacity: 0.75; stroke: #a60628; stroke-opacity: 0.75; stroke-linejoin: miter"/>
     <use xlink:href="#m0fee9c74ac" x="161.779167" y="224.082285" style="fill: #a60628; fill-opacity: 0.75; stroke: #a60628; stroke-opacity: 0.75; stroke-linejoin: miter"/>
     <use xlink:href="#m0fee9c74ac" x="195.6875" y="201.207528" style="fill: #a60628; fill-opacity: 0.75; stroke: #a60628; stroke-opacity: 0.75; stroke-linejoin: miter"/>
     <use xlink:href="#m0fee9c74ac" x="229.595833" y="178.332772" style="fill: #a60628; fill-opacity: 0.75; stroke: #a60628; stroke-opacity: 0.75; stroke-linejoin: miter"/>
     <use xlink:href="#m0fee9c74ac" x="263.504167" y="155.458015" style="fill: #a60628; fill-opacity: 0.75; stroke: #a60628; stroke-opacity: 0.75; stroke-linejoin: miter"/>
     <use xlink:href="#m0fee9c74ac" x="297.4125" y="132.583259" style="fill: #a60628; fill-opacity: 0.75; stroke: #a60628; stroke-opacity: 0.75; stroke-linejoin: miter"/>
     <use xlink:href="#m0fee9c74ac" x="331.320833" y="109.708502" style="fill: #a60628; fill-opacity: 0.75; stroke: #a60628; stroke-opacity: 0.75; stroke-linejoin: miter"/>
     <use xlink:href="#m0fee9c74ac" x="365.229167" y="86.833746" style="fill: #a60628; fill-opacity: 0.75; stroke: #a60628; stroke-opacity: 0.75; stroke-linejoin: miter"/>
     <use xlink:href="#m0fee9c74ac" x="399.1375" y="63.958989" style="fill: #a60628; fill-opacity: 0.75; stroke: #a60628; stroke-opacity: 0.75; stroke-linejoin: miter"/>
     <use xlink:href="#m0fee9c74ac" x="433.045833" y="41.084233" style="fill: #a60628; fill-opacity: 0.75; stroke: #a60628; stroke-opacity: 0.75; stroke-linejoin: miter"/>
    </g>
   </g>
   <g id="patch_3">
    <path d="M 43.1 321.3 
L 43.1 27.740625 
" style="fill: none; stroke: #bcbcbc; stroke-width: 0.8; stroke-linejoin: miter; stroke-linecap: square"/>
   </g>
   <g id="patch_4">
    <path d="M 450 321.3 
L 450 27.740625 
" style="fill: none; stroke: #bcbcbc; stroke-width: 0.8; stroke-linejoin: miter; stroke-linecap: square"/>
   </g>
   <g id="patch_5">
    <path d="M 43.1 321.3 
L 450 321.3 
" style="fill: none; stroke: #bcbcbc; stroke-width: 0.8; stroke-linejoin: miter; stroke-linecap: square"/>
   </g>
   <g id="patch_6">
    <path d="M 43.1 27.740625 
L 450 27.740625 
" style="fill: none; stroke: #bcbcbc; stroke-width: 0.8; stroke-linejoin: miter; stroke-linecap: square"/>
   </g>
   <g id="text_19">
    <!-- 2d6 vs. d12 -->
    <g style="fill: #262626" transform="translate(204.20725 21.740625) scale(0.144 -0.144)">
     <defs>
      <path id="DejaVuSans-47" d="M 2906 2969 
L 2906 4863 
L 3481 4863 
L 3481 0 
L 2906 0 
L 2906 525 
Q 2725 213 2448 61 
Q 2172 -91 1784 -91 
Q 1150 -91 751 415 
Q 353 922 353 1747 
Q 353 2572 751 3078 
Q 1150 3584 1784 3584 
Q 2172 3584 2448 3432 
Q 2725 3281 2906 2969 
z
M 947 1747 
Q 947 1113 1208 752 
Q 1469 391 1925 391 
Q 2381 391 2643 752 
Q 2906 1113 2906 1747 
Q 2906 2381 2643 2742 
Q 2381 3103 1925 3103 
Q 1469 3103 1208 2742 
Q 947 2381 947 1747 
z
" transform="scale(0.015625)"/>
      <path id="DejaVuSans-3" transform="scale(0.015625)"/>
      <path id="DejaVuSans-59" d="M 191 3500 
L 800 3500 
L 1894 563 
L 2988 3500 
L 3597 3500 
L 2284 0 
L 1503 0 
L 191 3500 
z
" transform="scale(0.015625)"/>
      <path id="DejaVuSans-56" d="M 2834 3397 
L 2834 2853 
Q 2591 2978 2328 3040 
Q 2066 3103 1784 3103 
Q 1356 3103 1142 2972 
Q 928 2841 928 2578 
Q 928 2378 1081 2264 
Q 1234 2150 1697 2047 
L 1894 2003 
Q 2506 1872 2764 1633 
Q 3022 1394 3022 966 
Q 3022 478 2636 193 
Q 2250 -91 1575 -91 
Q 1294 -91 989 -36 
Q 684 19 347 128 
L 347 722 
Q 666 556 975 473 
Q 1284 391 1588 391 
Q 1994 391 2212 530 
Q 2431 669 2431 922 
Q 2431 1156 2273 1281 
Q 2116 1406 1581 1522 
L 1381 1569 
Q 847 1681 609 1914 
Q 372 2147 372 2553 
Q 372 3047 722 3315 
Q 1072 3584 1716 3584 
Q 2034 3584 2315 3537 
Q 2597 3491 2834 3397 
z
" transform="scale(0.015625)"/>
      <path id="DejaVuSans-11" d="M 684 794 
L 1344 794 
L 1344 0 
L 684 0 
L 684 794 
z
" transform="scale(0.015625)"/>
     </defs>
     <use xlink:href="#DejaVuSans-15"/>
     <use xlink:href="#DejaVuSans-47" transform="translate(63.625 0)"/>
     <use xlink:href="#DejaVuSans-19" transform="translate(127.109375 0)"/>
     <use xlink:href="#DejaVuSans-3" transform="translate(190.734375 0)"/>
     <use xlink:href="#DejaVuSans-59" transform="translate(222.515625 0)"/>
     <use xlink:href="#DejaVuSans-56" transform="translate(281.703125 0)"/>
     <use xlink:href="#DejaVuSans-11" transform="translate(333.796875 0)"/>
     <use xlink:href="#DejaVuSans-3" transform="translate(365.578125 0)"/>
     <use xlink:href="#DejaVuSans-47" transform="translate(397.359375 0)"/>
     <use xlink:href="#DejaVuSans-14" transform="translate(460.84375 0)"/>
     <use xlink:href="#DejaVuSans-15" transform="translate(524.46875 0)"/>
    </g>
   </g>
   <g id="legend_1">
    <g id="patch_7">
     <path d="M 50.1 65.742188 
L 101.173438 65.742188 
Q 103.173438 65.742188 103.173438 63.742188 
L 103.173438 34.740625 
Q 103.173438 32.740625 101.173438 32.740625 
L 50.1 32.740625 
Q 48.1 32.740625 48.1 34.740625 
L 48.1 63.742188 
Q 48.1 65.742188 50.1 65.742188 
z
" style="fill: #eeeeee; opacity: 0.8; stroke: #cccccc; stroke-width: 0.5; stroke-linejoin: miter"/>
    </g>
    <g id="line2d_39">
     <path d="M 52.1 40.839063 
L 62.1 40.839063 
L 72.1 40.839063 
" style="fill: none; stroke: #348abd; stroke-opacity: 0.75; stroke-width: 2; stroke-linecap: square"/>
     <g>
      <use xlink:href="#m140c80c427" x="62.1" y="40.839063" style="fill: #348abd; fill-opacity: 0.75; stroke: #348abd; stroke-opacity: 0.75"/>
     </g>
    </g>
    <g id="text_20">
     <!-- 2d6 -->
     <g transform="translate(80.1 44.339063) scale(0.1 -0.1)">
      <use xlink:href="#DejaVuSans-15"/>
      <use xlink:href="#DejaVuSans-47" transform="translate(63.625 0)"/>
      <use xlink:href="#DejaVuSans-19" transform="translate(127.109375 0)"/>
     </g>
    </g>
    <g id="line2d_40">
     <path d="M 52.1 55.839844 
L 62.1 55.839844 
L 72.1 55.839844 
" style="fill: none; stroke: #a60628; stroke-opacity: 0.75; stroke-width: 2; stroke-linecap: square"/>
     <g>
      <use xlink:href="#m0fee9c74ac" x="62.1" y="55.839844" style="fill: #a60628; fill-opacity: 0.75; stroke: #a60628; stroke-opacity: 0.75; stroke-linejoin: miter"/>
     </g>
    </g>
    <g id="text_21">
     <!-- d12 -->
     <g transform="translate(80.1 59.339844) scale(0.1 -0.1)">
      <use xlink:href="#DejaVuSans-47"/>
      <use xlink:href="#DejaVuSans-14" transform="translate(63.484375 0)"/>
      <use xlink:href="#DejaVuSans-15" transform="translate(127.109375 0)"/>
     </g>
    </g>
   </g>
  </g>
 </g>
 <defs>
  <clipPath id="p5c086211e8">
   <rect x="43.1" y="27.740625" width="406.9" height="293.559375"/>
  </clipPath>
 </defs>
</svg>
