<?xml version="1.0" encoding="UTF-8" standalone="no"?>
<!DOCTYPE svg PUBLIC "-//W3C//DTD SVG 1.1//EN"
 "http://www.w3.org/Graphics/SVG/1.1/DTD/svg11.dtd">
<!-- Generated by graphviz version 2.43.0 (0)
 -->
<!-- Title: %3 Pages: 1 -->
<svg width="1719pt" height="402pt"
 viewBox="0.00 0.00 1719.00 402.00" xmlns="http://www.w3.org/2000/svg" xmlns:xlink="http://www.w3.org/1999/xlink">
<g id="graph0" class="graph" transform="scale(1 1) rotate(0) translate(4 398)">
<title>%3</title>
<g id="clust1" class="cluster">
<title>cluster_rolls</title>
<polygon fill="transparent" stroke="DarkSlateGray" stroke-dasharray="1,5" points="669,-203 669,-386 1316,-386 1316,-203 669,-203"/>
<text text-anchor="start" x="965" y="-371.8" font-family="Helvetica,sans-Serif" font-style="italic" font-size="14.00" fill="DarkSlateGray">Roll Tree</text>
</g>
<g id="clust2" class="cluster">
<title>cluster_rollers</title>
<polygon fill="transparent" stroke="DarkSlateGray" stroke-dasharray="1,5" points="8,-95 8,-278 661,-278 661,-95 8,-95"/>
<text text-anchor="start" x="301" y="-263.8" font-family="Helvetica,sans-Serif" font-style="italic" font-size="14.00" fill="DarkSlateGray">Roller Tree</text>
</g>
<g id="clust3" class="cluster">
<title>cluster_roll_outcomes</title>
<polygon fill="transparent" stroke="DarkSlateGray" stroke-dasharray="1,5" points="985,-8 985,-170 1703,-170 1703,-8 985,-8"/>
<text text-anchor="start" x="1298.5" y="-155.8" font-family="Helvetica,sans-Serif" font-style="italic" font-size="14.00" fill="DarkSlateGray">Roll Outcomes</text>
</g>
<!-- Roll&#45;1 -->
<g id="node1" class="node">
<title>Roll&#45;1</title>
<polygon fill="none" stroke="DarkSlateGray" points="1252,-355 1198,-355 1198,-319 1252,-319 1252,-355"/>
<text text-anchor="start" x="1212" y="-334.3" font-family="Helvetica,sans-Serif" font-weight="bold" font-size="14.00" fill="DarkSlateGray">Roll</text>
</g>
<!-- FilterRoller&#45;2 -->
<g id="node2" class="node">
<title>FilterRoller&#45;2</title>
<polygon fill="none" stroke="DarkSlateGray" points="402,-247 314,-247 314,-211 402,-211 402,-247"/>
<text text-anchor="start" x="322" y="-226.3" font-family="Helvetica,sans-Serif" font-weight="bold" font-size="14.00" fill="DarkSlateGray">FilterRoller</text>
</g>
<!-- Roll&#45;1&#45;&gt;FilterRoller&#45;2 -->
<g id="edge1" class="edge">
<title>Roll&#45;1&#45;&gt;FilterRoller&#45;2</title>
<path fill="none" stroke="DarkSlateGray" d="M1197.79,-335.41C1120.88,-333.46 895.41,-325.89 710,-301 603.41,-286.69 480.62,-259.42 411.88,-243.16"/>
<polygon fill="DarkSlateGray" stroke="DarkSlateGray" points="412.68,-239.75 402.14,-240.85 411.06,-246.56 412.68,-239.75"/>
<text text-anchor="middle" x="714.5" y="-289.8" font-family="Courier New" font-size="14.00" fill="DarkSlateGray">r</text>
</g>
<!-- RollOutcome&#45;3 -->
<g id="node3" class="node">
<title>RollOutcome&#45;3</title>
<polygon fill="none" stroke="DarkSlateGray" stroke-dasharray="1,5" points="1455,-139 1353,-139 1353,-103 1455,-103 1455,-139"/>
<text text-anchor="start" x="1361" y="-124.8" font-family="Helvetica,sans-Serif" font-weight="bold" font-size="14.00" fill="DarkSlateGray">RollOutcome</text>
<text text-anchor="start" x="1362.5" y="-110.8" font-family="Courier New" font-size="14.00" fill="DarkSlateGray">value=None</text>
</g>
<!-- Roll&#45;1&#45;&gt;RollOutcome&#45;3 -->
<g id="edge2" class="edge">
<title>Roll&#45;1&#45;&gt;RollOutcome&#45;3</title>
<path fill="none" stroke="DarkSlateGray" d="M1252.27,-333.92C1284.18,-330.57 1337.89,-322.08 1379,-301 1392.73,-293.96 1398.66,-292.07 1405,-278 1423.79,-236.29 1417.35,-181.71 1410.79,-149.4"/>
<polygon fill="DarkSlateGray" stroke="DarkSlateGray" points="1414.15,-148.37 1408.6,-139.35 1407.31,-149.86 1414.15,-148.37"/>
<text text-anchor="middle" x="1429.5" y="-225.3" font-family="Courier New" font-size="14.00" fill="DarkSlateGray">[0]</text>
</g>
<!-- RollOutcome&#45;4 -->
<g id="node4" class="node">
<title>RollOutcome&#45;4</title>
<polygon fill="none" stroke="MediumBlue" stroke-dasharray="5,2" points="1095,-139 993,-139 993,-103 1095,-103 1095,-139"/>
<text text-anchor="start" x="1001" y="-124.8" font-family="Helvetica,sans-Serif" font-weight="bold" font-size="14.00" fill="MediumBlue">RollOutcome</text>
<text text-anchor="start" x="1015" y="-110.8" font-family="Courier New" font-size="14.00" fill="MediumBlue">value=1</text>
</g>
<!-- Roll&#45;1&#45;&gt;RollOutcome&#45;4 -->
<g id="edge3" class="edge">
<title>Roll&#45;1&#45;&gt;RollOutcome&#45;4</title>
<path fill="none" stroke="MediumBlue" stroke-dasharray="5,2" d="M1252.33,-332.55C1271.73,-328.52 1296.47,-319.8 1309,-301 1312.7,-295.45 1313.04,-291.3 1309,-286 1300.9,-275.36 1289.81,-287.09 1280,-278 1254.01,-253.92 1278.75,-227.34 1253,-203 1224.69,-176.24 1207.13,-185.96 1169,-178 1140.51,-172.05 1130.83,-181.3 1104,-170 1090.68,-164.39 1077.88,-154.93 1067.55,-145.88"/>
<polygon fill="MediumBlue" stroke="MediumBlue" points="1069.91,-143.29 1060.17,-139.11 1065.18,-148.45 1069.91,-143.29"/>
<text text-anchor="middle" x="1292.5" y="-225.3" font-family="Courier New" font-size="14.00" fill="MediumBlue">[1]</text>
</g>
<!-- RollOutcome&#45;5 -->
<g id="node5" class="node">
<title>RollOutcome&#45;5</title>
<polygon fill="none" stroke="DarkSlateGray" stroke-dasharray="1,5" points="1695,-139 1593,-139 1593,-103 1695,-103 1695,-139"/>
<text text-anchor="start" x="1601" y="-124.8" font-family="Helvetica,sans-Serif" font-weight="bold" font-size="14.00" fill="DarkSlateGray">RollOutcome</text>
<text text-anchor="start" x="1602.5" y="-110.8" font-family="Courier New" font-size="14.00" fill="DarkSlateGray">value=None</text>
</g>
<!-- Roll&#45;1&#45;&gt;RollOutcome&#45;5 -->
<g id="edge4" class="edge">
<title>Roll&#45;1&#45;&gt;RollOutcome&#45;5</title>
<path fill="none" stroke="DarkSlateGray" d="M1252.28,-333.34C1317.1,-326.62 1478.27,-307.35 1523,-278 1573.56,-244.83 1611.9,-183.29 1630.85,-148.24"/>
<polygon fill="DarkSlateGray" stroke="DarkSlateGray" points="1634.1,-149.58 1635.67,-139.1 1627.91,-146.31 1634.1,-149.58"/>
<text text-anchor="middle" x="1607.5" y="-225.3" font-family="Courier New" font-size="14.00" fill="DarkSlateGray">[2]</text>
</g>
<!-- RollOutcome&#45;6 -->
<g id="node6" class="node">
<title>RollOutcome&#45;6</title>
<polygon fill="none" stroke="Goldenrod" stroke-dasharray="5,2" points="1215,-139 1113,-139 1113,-103 1215,-103 1215,-139"/>
<text text-anchor="start" x="1121" y="-124.8" font-family="Helvetica,sans-Serif" font-weight="bold" font-size="14.00" fill="Goldenrod">RollOutcome</text>
<text text-anchor="start" x="1135" y="-110.8" font-family="Courier New" font-size="14.00" fill="Goldenrod">value=3</text>
</g>
<!-- Roll&#45;1&#45;&gt;RollOutcome&#45;6 -->
<g id="edge5" class="edge">
<title>Roll&#45;1&#45;&gt;RollOutcome&#45;6</title>
<path fill="none" stroke="Goldenrod" stroke-dasharray="5,2" d="M1252.07,-335.73C1277.84,-333.85 1315.38,-326.53 1334,-301 1337.93,-295.61 1334.97,-292.6 1334,-286 1328.38,-247.89 1330.76,-234.8 1309,-203 1298.81,-188.11 1293.58,-185.14 1277,-178 1255.12,-168.58 1245.83,-179.55 1224,-170 1210.98,-164.31 1198.41,-155.04 1188.16,-146.16"/>
<polygon fill="Goldenrod" stroke="Goldenrod" points="1190.24,-143.32 1180.48,-139.2 1185.54,-148.51 1190.24,-143.32"/>
<text text-anchor="middle" x="1344.5" y="-225.3" font-family="Courier New" font-size="14.00" fill="Goldenrod">[3]</text>
</g>
<!-- RollOutcome&#45;7 -->
<g id="node7" class="node">
<title>RollOutcome&#45;7</title>
<polygon fill="none" stroke="DarkSlateGray" stroke-dasharray="1,5" points="1575,-139 1473,-139 1473,-103 1575,-103 1575,-139"/>
<text text-anchor="start" x="1481" y="-124.8" font-family="Helvetica,sans-Serif" font-weight="bold" font-size="14.00" fill="DarkSlateGray">RollOutcome</text>
<text text-anchor="start" x="1482.5" y="-110.8" font-family="Courier New" font-size="14.00" fill="DarkSlateGray">value=None</text>
</g>
<!-- Roll&#45;1&#45;&gt;RollOutcome&#45;7 -->
<g id="edge6" class="edge">
<title>Roll&#45;1&#45;&gt;RollOutcome&#45;7</title>
<path fill="none" stroke="DarkSlateGray" d="M1252.2,-333.19C1287.7,-328.96 1351.39,-319.41 1403,-301 1423.41,-293.72 1430.89,-293.53 1446,-278 1482.55,-240.43 1505.33,-182.35 1516.26,-148.67"/>
<polygon fill="DarkSlateGray" stroke="DarkSlateGray" points="1519.62,-149.64 1519.27,-139.05 1512.94,-147.54 1519.62,-149.64"/>
<text text-anchor="middle" x="1506.5" y="-225.3" font-family="Courier New" font-size="14.00" fill="DarkSlateGray">[4]</text>
</g>
<!-- RollOutcome&#45;8 -->
<g id="node8" class="node">
<title>RollOutcome&#45;8</title>
<polygon fill="none" stroke="MediumVioletRed" stroke-dasharray="5,2" points="1335,-139 1233,-139 1233,-103 1335,-103 1335,-139"/>
<text text-anchor="start" x="1241" y="-124.8" font-family="Helvetica,sans-Serif" font-weight="bold" font-size="14.00" fill="MediumVioletRed">RollOutcome</text>
<text text-anchor="start" x="1255" y="-110.8" font-family="Courier New" font-size="14.00" fill="MediumVioletRed">value=5</text>
</g>
<!-- Roll&#45;1&#45;&gt;RollOutcome&#45;8 -->
<g id="edge7" class="edge">
<title>Roll&#45;1&#45;&gt;RollOutcome&#45;8</title>
<path fill="none" stroke="MediumVioletRed" stroke-dasharray="5,2" d="M1252.22,-336.31C1282.71,-335.18 1331.81,-328.74 1362,-301 1369.97,-293.68 1368.2,-288.67 1370,-278 1377.49,-233.69 1385.34,-211.15 1355,-178 1350.92,-173.54 1348.81,-173.67 1344,-170 1333.73,-162.16 1322.64,-153.38 1312.82,-145.5"/>
<polygon fill="MediumVioletRed" stroke="MediumVioletRed" points="1314.9,-142.68 1304.92,-139.12 1310.5,-148.12 1314.9,-142.68"/>
<text text-anchor="middle" x="1388.5" y="-225.3" font-family="Courier New" font-size="14.00" fill="MediumVioletRed">[5]</text>
</g>
<!-- Roll&#45;9 -->
<g id="node9" class="node">
<title>Roll&#45;9</title>
<polygon fill="none" stroke="Indigo" stroke-dasharray="5,2" points="731,-247 677,-247 677,-211 731,-211 731,-247"/>
<text text-anchor="start" x="691" y="-226.3" font-family="Helvetica,sans-Serif" font-weight="bold" font-size="14.00" fill="Indigo">Roll</text>
</g>
<!-- Roll&#45;1&#45;&gt;Roll&#45;9 -->
<g id="edge20" class="edge">
<title>Roll&#45;1&#45;&gt;Roll&#45;9</title>
<path fill="none" stroke="Indigo" stroke-dasharray="5,2" d="M1197.79,-335.64C1100.69,-334.15 775.02,-327.22 737,-301 722.45,-290.97 714.17,-272.82 709.54,-257.38"/>
<polygon fill="Indigo" stroke="Indigo" points="712.81,-256.04 706.89,-247.26 706.04,-257.82 712.81,-256.04"/>
<text text-anchor="middle" x="778.5" y="-289.8" font-family="Courier New" font-size="14.00" fill="Indigo">sources[0]</text>
</g>
<!-- Roll&#45;12 -->
<g id="node12" class="node">
<title>Roll&#45;12</title>
<polygon fill="none" stroke="MediumBlue" stroke-dasharray="5,2" points="1040,-247 986,-247 986,-211 1040,-211 1040,-247"/>
<text text-anchor="start" x="1000" y="-226.3" font-family="Helvetica,sans-Serif" font-weight="bold" font-size="14.00" fill="MediumBlue">Roll</text>
</g>
<!-- Roll&#45;1&#45;&gt;Roll&#45;12 -->
<g id="edge21" class="edge">
<title>Roll&#45;1&#45;&gt;Roll&#45;12</title>
<path fill="none" stroke="MediumBlue" stroke-dasharray="5,2" d="M1197.78,-334.21C1151.85,-330.66 1061.64,-321.26 1038,-301 1025.18,-290.01 1018.93,-272.03 1015.89,-256.92"/>
<polygon fill="MediumBlue" stroke="MediumBlue" points="1019.34,-256.33 1014.25,-247.03 1012.43,-257.47 1019.34,-256.33"/>
<text text-anchor="middle" x="1079.5" y="-289.8" font-family="Courier New" font-size="14.00" fill="MediumBlue">sources[1]</text>
</g>
<!-- Roll&#45;14 -->
<g id="node14" class="node">
<title>Roll&#45;14</title>
<polygon fill="none" stroke="MediumSeaGreen" stroke-dasharray="5,2" points="934,-247 880,-247 880,-211 934,-211 934,-247"/>
<text text-anchor="start" x="894" y="-226.3" font-family="Helvetica,sans-Serif" font-weight="bold" font-size="14.00" fill="MediumSeaGreen">Roll</text>
</g>
<!-- Roll&#45;1&#45;&gt;Roll&#45;14 -->
<g id="edge22" class="edge">
<title>Roll&#45;1&#45;&gt;Roll&#45;14</title>
<path fill="none" stroke="MediumSeaGreen" stroke-dasharray="5,2" d="M1197.62,-335.98C1134.23,-335.43 979.69,-330.95 939,-301 924.84,-290.58 916.81,-272.43 912.34,-257.1"/>
<polygon fill="MediumSeaGreen" stroke="MediumSeaGreen" points="915.64,-255.88 909.78,-247.05 908.86,-257.61 915.64,-255.88"/>
<text text-anchor="middle" x="980.5" y="-289.8" font-family="Courier New" font-size="14.00" fill="MediumSeaGreen">sources[2]</text>
</g>
<!-- Roll&#45;17 -->
<g id="node17" class="node">
<title>Roll&#45;17</title>
<polygon fill="none" stroke="Goldenrod" stroke-dasharray="5,2" points="1146,-247 1092,-247 1092,-211 1146,-211 1146,-247"/>
<text text-anchor="start" x="1106" y="-226.3" font-family="Helvetica,sans-Serif" font-weight="bold" font-size="14.00" fill="Goldenrod">Roll</text>
</g>
<!-- Roll&#45;1&#45;&gt;Roll&#45;17 -->
<g id="edge23" class="edge">
<title>Roll&#45;1&#45;&gt;Roll&#45;17</title>
<path fill="none" stroke="Goldenrod" stroke-dasharray="5,2" d="M1197.91,-332.58C1177.38,-328.55 1150.03,-319.81 1134,-301 1123.84,-289.08 1120.01,-272 1118.76,-257.57"/>
<polygon fill="Goldenrod" stroke="Goldenrod" points="1122.23,-257 1118.24,-247.19 1115.24,-257.35 1122.23,-257"/>
<text text-anchor="middle" x="1175.5" y="-289.8" font-family="Courier New" font-size="14.00" fill="Goldenrod">sources[3]</text>
</g>
<!-- Roll&#45;19 -->
<g id="node19" class="node">
<title>Roll&#45;19</title>
<polygon fill="none" stroke="DarkSalmon" stroke-dasharray="5,2" points="828,-247 774,-247 774,-211 828,-211 828,-247"/>
<text text-anchor="start" x="788" y="-226.3" font-family="Helvetica,sans-Serif" font-weight="bold" font-size="14.00" fill="DarkSalmon">Roll</text>
</g>
<!-- Roll&#45;1&#45;&gt;Roll&#45;19 -->
<g id="edge24" class="edge">
<title>Roll&#45;1&#45;&gt;Roll&#45;19</title>
<path fill="none" stroke="DarkSalmon" stroke-dasharray="5,2" d="M1197.93,-335.02C1115.09,-331.82 868.8,-320.74 839,-301 823.7,-290.87 814.1,-272.46 808.38,-256.93"/>
<polygon fill="DarkSalmon" stroke="DarkSalmon" points="811.64,-255.64 805.16,-247.25 804.99,-257.85 811.64,-255.64"/>
<text text-anchor="middle" x="880.5" y="-289.8" font-family="Courier New" font-size="14.00" fill="DarkSalmon">sources[4]</text>
</g>
<!-- Roll&#45;22 -->
<g id="node22" class="node">
<title>Roll&#45;22</title>
<polygon fill="none" stroke="MediumVioletRed" stroke-dasharray="5,2" points="1244,-247 1190,-247 1190,-211 1244,-211 1244,-247"/>
<text text-anchor="start" x="1204" y="-226.3" font-family="Helvetica,sans-Serif" font-weight="bold" font-size="14.00" fill="MediumVioletRed">Roll</text>
</g>
<!-- Roll&#45;1&#45;&gt;Roll&#45;22 -->
<g id="edge25" class="edge">
<title>Roll&#45;1&#45;&gt;Roll&#45;22</title>
<path fill="none" stroke="MediumVioletRed" stroke-dasharray="5,2" d="M1223.71,-318.97C1222.46,-302.38 1220.54,-276.88 1219.07,-257.43"/>
<polygon fill="MediumVioletRed" stroke="MediumVioletRed" points="1222.55,-257.05 1218.31,-247.34 1215.57,-257.58 1222.55,-257.05"/>
<text text-anchor="middle" x="1263.5" y="-289.8" font-family="Courier New" font-size="14.00" fill="MediumVioletRed">sources[5]</text>
</g>
<!-- ValueRoller&#45;10 -->
<g id="node10" class="node">
<title>ValueRoller&#45;10</title>
<polygon fill="none" stroke="Indigo" stroke-dasharray="5,2" points="107.5,-139 16.5,-139 16.5,-103 107.5,-103 107.5,-139"/>
<text text-anchor="start" x="24.5" y="-124.8" font-family="Helvetica,sans-Serif" font-weight="bold" font-size="14.00" fill="Indigo">ValueRoller</text>
<text text-anchor="start" x="33" y="-110.8" font-family="Courier New" font-size="14.00" fill="Indigo">value=0</text>
</g>
<!-- FilterRoller&#45;2&#45;&gt;ValueRoller&#45;10 -->
<g id="edge26" class="edge">
<title>FilterRoller&#45;2&#45;&gt;ValueRoller&#45;10</title>
<path fill="none" stroke="Indigo" stroke-dasharray="5,2" d="M313.82,-228.07C245.08,-227.26 116.86,-221.81 83,-193 70.47,-182.34 65.22,-164.6 63.1,-149.52"/>
<polygon fill="Indigo" stroke="Indigo" points="66.54,-148.75 62.06,-139.15 59.58,-149.45 66.54,-148.75"/>
<text text-anchor="middle" x="124.5" y="-181.8" font-family="Courier New" font-size="14.00" fill="Indigo">sources[0]</text>
</g>
<!-- ValueRoller&#45;13 -->
<g id="node13" class="node">
<title>ValueRoller&#45;13</title>
<polygon fill="none" stroke="MediumBlue" stroke-dasharray="5,2" points="434.5,-139 343.5,-139 343.5,-103 434.5,-103 434.5,-139"/>
<text text-anchor="start" x="351.5" y="-124.8" font-family="Helvetica,sans-Serif" font-weight="bold" font-size="14.00" fill="MediumBlue">ValueRoller</text>
<text text-anchor="start" x="360" y="-110.8" font-family="Courier New" font-size="14.00" fill="MediumBlue">value=1</text>
</g>
<!-- FilterRoller&#45;2&#45;&gt;ValueRoller&#45;13 -->
<g id="edge27" class="edge">
<title>FilterRoller&#45;2&#45;&gt;ValueRoller&#45;13</title>
<path fill="none" stroke="MediumBlue" stroke-dasharray="5,2" d="M356.37,-210.6C355.95,-200.86 356.23,-188.58 359,-178 361.72,-167.6 366.72,-156.99 371.87,-147.85"/>
<polygon fill="MediumBlue" stroke="MediumBlue" points="374.88,-149.65 376.99,-139.26 368.86,-146.06 374.88,-149.65"/>
<text text-anchor="middle" x="400.5" y="-181.8" font-family="Courier New" font-size="14.00" fill="MediumBlue">sources[1]</text>
</g>
<!-- ValueRoller&#45;15 -->
<g id="node15" class="node">
<title>ValueRoller&#45;15</title>
<polygon fill="none" stroke="MediumSeaGreen" stroke-dasharray="5,2" points="325.5,-139 234.5,-139 234.5,-103 325.5,-103 325.5,-139"/>
<text text-anchor="start" x="242.5" y="-124.8" font-family="Helvetica,sans-Serif" font-weight="bold" font-size="14.00" fill="MediumSeaGreen">ValueRoller</text>
<text text-anchor="start" x="251" y="-110.8" font-family="Courier New" font-size="14.00" fill="MediumSeaGreen">value=2</text>
</g>
<!-- FilterRoller&#45;2&#45;&gt;ValueRoller&#45;15 -->
<g id="edge28" class="edge">
<title>FilterRoller&#45;2&#45;&gt;ValueRoller&#45;15</title>
<path fill="none" stroke="MediumSeaGreen" stroke-dasharray="5,2" d="M313.77,-221.17C297.19,-216.22 279.97,-207.69 270,-193 261.34,-180.23 263.41,-163.19 267.85,-149"/>
<polygon fill="MediumSeaGreen" stroke="MediumSeaGreen" points="271.25,-149.87 271.38,-139.28 264.67,-147.48 271.25,-149.87"/>
<text text-anchor="middle" x="311.5" y="-181.8" font-family="Courier New" font-size="14.00" fill="MediumSeaGreen">sources[2]</text>
</g>
<!-- ValueRoller&#45;18 -->
<g id="node18" class="node">
<title>ValueRoller&#45;18</title>
<polygon fill="none" stroke="Goldenrod" stroke-dasharray="5,2" points="543.5,-139 452.5,-139 452.5,-103 543.5,-103 543.5,-139"/>
<text text-anchor="start" x="460.5" y="-124.8" font-family="Helvetica,sans-Serif" font-weight="bold" font-size="14.00" fill="Goldenrod">ValueRoller</text>
<text text-anchor="start" x="469" y="-110.8" font-family="Courier New" font-size="14.00" fill="Goldenrod">value=3</text>
</g>
<!-- FilterRoller&#45;2&#45;&gt;ValueRoller&#45;18 -->
<g id="edge29" class="edge">
<title>FilterRoller&#45;2&#45;&gt;ValueRoller&#45;18</title>
<path fill="none" stroke="Goldenrod" stroke-dasharray="5,2" d="M402.13,-214.47C415.7,-209.08 430.17,-201.97 442,-193 458.16,-180.74 472.27,-162.78 482.29,-147.98"/>
<polygon fill="Goldenrod" stroke="Goldenrod" points="485.44,-149.55 487.97,-139.26 479.58,-145.73 485.44,-149.55"/>
<text text-anchor="middle" x="500.5" y="-181.8" font-family="Courier New" font-size="14.00" fill="Goldenrod">sources[3]</text>
</g>
<!-- ValueRoller&#45;20 -->
<g id="node20" class="node">
<title>ValueRoller&#45;20</title>
<polygon fill="none" stroke="DarkSalmon" stroke-dasharray="5,2" points="216.5,-139 125.5,-139 125.5,-103 216.5,-103 216.5,-139"/>
<text text-anchor="start" x="133.5" y="-124.8" font-family="Helvetica,sans-Serif" font-weight="bold" font-size="14.00" fill="DarkSalmon">ValueRoller</text>
<text text-anchor="start" x="142" y="-110.8" font-family="Courier New" font-size="14.00" fill="DarkSalmon">value=4</text>
</g>
<!-- FilterRoller&#45;2&#45;&gt;ValueRoller&#45;20 -->
<g id="edge30" class="edge">
<title>FilterRoller&#45;2&#45;&gt;ValueRoller&#45;20</title>
<path fill="none" stroke="DarkSalmon" stroke-dasharray="5,2" d="M313.92,-225.34C266.62,-221.51 195.84,-212.6 178,-193 167.47,-181.43 165.62,-163.99 166.46,-149.29"/>
<polygon fill="DarkSalmon" stroke="DarkSalmon" points="169.96,-149.49 167.46,-139.19 162.99,-148.8 169.96,-149.49"/>
<text text-anchor="middle" x="219.5" y="-181.8" font-family="Courier New" font-size="14.00" fill="DarkSalmon">sources[4]</text>
</g>
<!-- ValueRoller&#45;23 -->
<g id="node23" class="node">
<title>ValueRoller&#45;23</title>
<polygon fill="none" stroke="MediumVioletRed" stroke-dasharray="5,2" points="652.5,-139 561.5,-139 561.5,-103 652.5,-103 652.5,-139"/>
<text text-anchor="start" x="569.5" y="-124.8" font-family="Helvetica,sans-Serif" font-weight="bold" font-size="14.00" fill="MediumVioletRed">ValueRoller</text>
<text text-anchor="start" x="578" y="-110.8" font-family="Courier New" font-size="14.00" fill="MediumVioletRed">value=5</text>
</g>
<!-- FilterRoller&#45;2&#45;&gt;ValueRoller&#45;23 -->
<g id="edge31" class="edge">
<title>FilterRoller&#45;2&#45;&gt;ValueRoller&#45;23</title>
<path fill="none" stroke="MediumVioletRed" stroke-dasharray="5,2" d="M402.26,-227.93C442.28,-226.05 501.55,-218.6 546,-193 564.72,-182.22 580.44,-163.49 591.24,-147.98"/>
<polygon fill="MediumVioletRed" stroke="MediumVioletRed" points="594.38,-149.57 597.01,-139.3 588.56,-145.69 594.38,-149.57"/>
<text text-anchor="middle" x="606.5" y="-181.8" font-family="Courier New" font-size="14.00" fill="MediumVioletRed">sources[5]</text>
</g>
<!-- RollOutcome&#45;11 -->
<g id="node11" class="node">
<title>RollOutcome&#45;11</title>
<polygon fill="none" stroke="Indigo" stroke-dasharray="5,2" points="1259,-52 1157,-52 1157,-16 1259,-16 1259,-52"/>
<text text-anchor="start" x="1165" y="-37.8" font-family="Helvetica,sans-Serif" font-weight="bold" font-size="14.00" fill="Indigo">RollOutcome</text>
<text text-anchor="start" x="1179" y="-23.8" font-family="Courier New" font-size="14.00" fill="Indigo">value=0</text>
</g>
<!-- RollOutcome&#45;3&#45;&gt;RollOutcome&#45;11 -->
<g id="edge32" class="edge">
<title>RollOutcome&#45;3&#45;&gt;RollOutcome&#45;11</title>
<path fill="none" stroke="Indigo" stroke-dasharray="5,2" d="M1364.34,-102.8C1333.28,-89.33 1289.95,-70.54 1256.77,-56.15"/>
<polygon fill="Indigo" stroke="Indigo" points="1257.84,-52.8 1247.27,-52.03 1255.05,-59.22 1257.84,-52.8"/>
<text text-anchor="middle" x="1358.5" y="-73.8" font-family="Courier New" font-size="14.00" fill="Indigo">sources[0]</text>
</g>
<!-- RollOutcome&#45;16 -->
<g id="node16" class="node">
<title>RollOutcome&#45;16</title>
<polygon fill="none" stroke="MediumSeaGreen" stroke-dasharray="5,2" points="1622,-52 1520,-52 1520,-16 1622,-16 1622,-52"/>
<text text-anchor="start" x="1528" y="-37.8" font-family="Helvetica,sans-Serif" font-weight="bold" font-size="14.00" fill="MediumSeaGreen">RollOutcome</text>
<text text-anchor="start" x="1542" y="-23.8" font-family="Courier New" font-size="14.00" fill="MediumSeaGreen">value=2</text>
</g>
<!-- RollOutcome&#45;5&#45;&gt;RollOutcome&#45;16 -->
<g id="edge33" class="edge">
<title>RollOutcome&#45;5&#45;&gt;RollOutcome&#45;16</title>
<path fill="none" stroke="MediumSeaGreen" stroke-dasharray="5,2" d="M1629.23,-102.8C1618.64,-90.47 1604.22,-73.68 1592.38,-59.89"/>
<polygon fill="MediumSeaGreen" stroke="MediumSeaGreen" points="1594.92,-57.48 1585.75,-52.18 1589.61,-62.04 1594.92,-57.48"/>
<text text-anchor="middle" x="1652.5" y="-73.8" font-family="Courier New" font-size="14.00" fill="MediumSeaGreen">sources[0]</text>
</g>
<!-- RollOutcome&#45;21 -->
<g id="node21" class="node">
<title>RollOutcome&#45;21</title>
<polygon fill="none" stroke="DarkSalmon" stroke-dasharray="5,2" points="1461,-52 1359,-52 1359,-16 1461,-16 1461,-52"/>
<text text-anchor="start" x="1367" y="-37.8" font-family="Helvetica,sans-Serif" font-weight="bold" font-size="14.00" fill="DarkSalmon">RollOutcome</text>
<text text-anchor="start" x="1381" y="-23.8" font-family="Courier New" font-size="14.00" fill="DarkSalmon">value=4</text>
</g>
<!-- RollOutcome&#45;7&#45;&gt;RollOutcome&#45;21 -->
<g id="edge34" class="edge">
<title>RollOutcome&#45;7&#45;&gt;RollOutcome&#45;21</title>
<path fill="none" stroke="DarkSalmon" stroke-dasharray="5,2" d="M1500.93,-102.8C1483.7,-89.95 1459.97,-72.26 1441.07,-58.17"/>
<polygon fill="DarkSalmon" stroke="DarkSalmon" points="1443.14,-55.35 1433.04,-52.18 1438.96,-60.96 1443.14,-55.35"/>
<text text-anchor="middle" x="1514.5" y="-73.8" font-family="Courier New" font-size="14.00" fill="DarkSalmon">sources[0]</text>
</g>
<!-- Roll&#45;9&#45;&gt;ValueRoller&#45;10 -->
<g id="edge8" class="edge">
<title>Roll&#45;9&#45;&gt;ValueRoller&#45;10</title>
<path fill="none" stroke="Indigo" stroke-dasharray="5,2" d="M691.63,-210.62C682.25,-199 668.21,-184.67 652,-178 596.92,-155.34 171.51,-191.58 116,-170 103.4,-165.1 91.83,-155.81 82.66,-146.7"/>
<polygon fill="Indigo" stroke="Indigo" points="84.97,-144.05 75.56,-139.2 79.89,-148.86 84.97,-144.05"/>
<text text-anchor="middle" x="679.5" y="-181.8" font-family="Courier New" font-size="14.00" fill="Indigo">r</text>
</g>
<!-- Roll&#45;9&#45;&gt;RollOutcome&#45;11 -->
<g id="edge9" class="edge">
<title>Roll&#45;9&#45;&gt;RollOutcome&#45;11</title>
<path fill="none" stroke="Indigo" stroke-dasharray="5,2" d="M731.24,-215.56C741.64,-211.15 753.72,-206.43 765,-203 786.27,-196.53 797.69,-208.1 814,-193 847.24,-162.23 816.41,-132.38 842,-95 852.4,-79.82 857.89,-76.77 875,-70 922.95,-51.04 1064.37,-41.55 1146.68,-37.51"/>
<polygon fill="Indigo" stroke="Indigo" points="1147.08,-40.99 1156.9,-37.02 1146.75,-34 1147.08,-40.99"/>
<text text-anchor="middle" x="854.5" y="-117.3" font-family="Courier New" font-size="14.00" fill="Indigo">[0]</text>
</g>
<!-- Roll&#45;12&#45;&gt;RollOutcome&#45;4 -->
<g id="edge11" class="edge">
<title>Roll&#45;12&#45;&gt;RollOutcome&#45;4</title>
<path fill="none" stroke="MediumBlue" stroke-dasharray="5,2" d="M1017.98,-210.97C1022.86,-194.3 1030.36,-168.65 1036.06,-149.16"/>
<polygon fill="MediumBlue" stroke="MediumBlue" points="1039.48,-149.92 1038.93,-139.34 1032.76,-147.96 1039.48,-149.92"/>
<text text-anchor="middle" x="1039.5" y="-181.8" font-family="Courier New" font-size="14.00" fill="MediumBlue">[0]</text>
</g>
<!-- Roll&#45;12&#45;&gt;ValueRoller&#45;13 -->
<g id="edge10" class="edge">
<title>Roll&#45;12&#45;&gt;ValueRoller&#45;13</title>
<path fill="none" stroke="MediumBlue" stroke-dasharray="5,2" d="M985.92,-216.3C973.14,-211.31 957.54,-205.96 943,-203 868.84,-187.9 844.88,-216.69 773,-193 761.41,-189.18 761.65,-181.63 750,-178 717.42,-167.85 474.73,-182.54 443,-170 430.42,-165.03 418.86,-155.73 409.69,-146.63"/>
<polygon fill="MediumBlue" stroke="MediumBlue" points="412,-143.98 402.58,-139.14 406.92,-148.8 412,-143.98"/>
<text text-anchor="middle" x="777.5" y="-181.8" font-family="Courier New" font-size="14.00" fill="MediumBlue">r</text>
</g>
<!-- Roll&#45;14&#45;&gt;ValueRoller&#45;15 -->
<g id="edge12" class="edge">
<title>Roll&#45;14&#45;&gt;ValueRoller&#45;15</title>
<path fill="none" stroke="MediumSeaGreen" stroke-dasharray="5,2" d="M879.86,-216.59C867.07,-211.67 851.47,-206.29 837,-203 795.17,-193.5 781.43,-207.34 741,-193 729.5,-188.92 729.66,-181.6 718,-178 677.22,-165.41 373.73,-185.58 334,-170 321.41,-165.06 309.85,-155.77 300.68,-146.67"/>
<polygon fill="MediumSeaGreen" stroke="MediumSeaGreen" points="302.99,-144.02 293.57,-139.17 297.91,-148.83 302.99,-144.02"/>
<text text-anchor="middle" x="745.5" y="-181.8" font-family="Courier New" font-size="14.00" fill="MediumSeaGreen">r</text>
</g>
<!-- Roll&#45;14&#45;&gt;RollOutcome&#45;16 -->
<g id="edge13" class="edge">
<title>Roll&#45;14&#45;&gt;RollOutcome&#45;16</title>
<path fill="none" stroke="MediumSeaGreen" stroke-dasharray="5,2" d="M913.14,-210.91C925.81,-175.83 954.09,-98.66 959,-95 1050.33,-26.85 1356.94,-66.25 1470,-52 1483,-50.36 1496.89,-48.26 1510.08,-46.09"/>
<polygon fill="MediumSeaGreen" stroke="MediumSeaGreen" points="1510.71,-49.53 1520,-44.43 1509.56,-42.63 1510.71,-49.53"/>
<text text-anchor="middle" x="971.5" y="-117.3" font-family="Courier New" font-size="14.00" fill="MediumSeaGreen">[0]</text>
</g>
<!-- Roll&#45;17&#45;&gt;RollOutcome&#45;6 -->
<g id="edge15" class="edge">
<title>Roll&#45;17&#45;&gt;RollOutcome&#45;6</title>
<path fill="none" stroke="Goldenrod" stroke-dasharray="5,2" d="M1126.23,-210.97C1133.37,-194.15 1144.4,-168.17 1152.7,-148.62"/>
<polygon fill="Goldenrod" stroke="Goldenrod" points="1155.95,-149.91 1156.64,-139.34 1149.51,-147.18 1155.95,-149.91"/>
<text text-anchor="middle" x="1152.5" y="-181.8" font-family="Courier New" font-size="14.00" fill="Goldenrod">[0]</text>
</g>
<!-- Roll&#45;17&#45;&gt;ValueRoller&#45;18 -->
<g id="edge14" class="edge">
<title>Roll&#45;17&#45;&gt;ValueRoller&#45;18</title>
<path fill="none" stroke="Goldenrod" stroke-dasharray="5,2" d="M1091.87,-216.53C1079.09,-211.58 1063.49,-206.21 1049,-203 932.64,-177.2 900.94,-185.63 782,-178 756.48,-176.36 575.74,-179.5 552,-170 539.44,-164.98 527.89,-155.67 518.71,-146.58"/>
<polygon fill="Goldenrod" stroke="Goldenrod" points="521.03,-143.93 511.6,-139.09 515.95,-148.75 521.03,-143.93"/>
<text text-anchor="middle" x="997.5" y="-181.8" font-family="Courier New" font-size="14.00" fill="Goldenrod">r</text>
</g>
<!-- Roll&#45;19&#45;&gt;ValueRoller&#45;20 -->
<g id="edge16" class="edge">
<title>Roll&#45;19&#45;&gt;ValueRoller&#45;20</title>
<path fill="none" stroke="DarkSalmon" stroke-dasharray="5,2" d="M773.85,-216.35C763.34,-211.98 751.18,-207.09 740,-203 726.4,-198.03 722.07,-199.23 709,-193 697.98,-187.75 697.67,-181.58 686,-178 637.02,-162.98 272.73,-188.62 225,-170 212.4,-165.08 200.84,-155.8 191.67,-146.69"/>
<polygon fill="DarkSalmon" stroke="DarkSalmon" points="193.98,-144.04 184.56,-139.18 188.9,-148.85 193.98,-144.04"/>
<text text-anchor="middle" x="713.5" y="-181.8" font-family="Courier New" font-size="14.00" fill="DarkSalmon">r</text>
</g>
<!-- Roll&#45;19&#45;&gt;RollOutcome&#45;21 -->
<g id="edge17" class="edge">
<title>Roll&#45;19&#45;&gt;RollOutcome&#45;21</title>
<path fill="none" stroke="DarkSalmon" stroke-dasharray="5,2" d="M824.84,-210.92C838.45,-200.29 855.11,-185.68 867,-170 899.62,-126.97 885.3,-88.58 936,-70 1005.37,-44.58 1194.39,-58.39 1268,-52 1294.52,-49.7 1323.74,-46.34 1348.74,-43.22"/>
<polygon fill="DarkSalmon" stroke="DarkSalmon" points="1349.33,-46.67 1358.82,-41.94 1348.46,-39.72 1349.33,-46.67"/>
<text text-anchor="middle" x="914.5" y="-117.3" font-family="Courier New" font-size="14.00" fill="DarkSalmon">[0]</text>
</g>
<!-- Roll&#45;22&#45;&gt;RollOutcome&#45;8 -->
<g id="edge19" class="edge">
<title>Roll&#45;22&#45;&gt;RollOutcome&#45;8</title>
<path fill="none" stroke="MediumVioletRed" stroke-dasharray="5,2" d="M1227.76,-210.97C1238.54,-193.92 1255.27,-167.46 1267.68,-147.82"/>
<polygon fill="MediumVioletRed" stroke="MediumVioletRed" points="1270.66,-149.66 1273.04,-139.34 1264.74,-145.92 1270.66,-149.66"/>
<text text-anchor="middle" x="1260.5" y="-181.8" font-family="Courier New" font-size="14.00" fill="MediumVioletRed">[0]</text>
</g>
<!-- Roll&#45;22&#45;&gt;ValueRoller&#45;23 -->
<g id="edge18" class="edge">
<title>Roll&#45;22&#45;&gt;ValueRoller&#45;23</title>
<path fill="none" stroke="MediumVioletRed" stroke-dasharray="5,2" d="M1189.83,-216.11C1179.1,-211.66 1166.59,-206.78 1155,-203 1133.43,-195.96 1078.47,-181.16 1056,-178 945.91,-162.52 916.17,-184.89 806,-170 756.81,-163.35 702.06,-149.67 662.46,-138.61"/>
<polygon fill="MediumVioletRed" stroke="MediumVioletRed" points="663.31,-135.21 652.73,-135.86 661.4,-141.95 663.31,-135.21"/>
<text text-anchor="middle" x="1123.5" y="-181.8" font-family="Courier New" font-size="14.00" fill="MediumVioletRed">r</text>
</g>
</g>
</svg>
