<?xml version="1.0" encoding="UTF-8" standalone="no"?>
<!DOCTYPE svg PUBLIC "-//W3C//DTD SVG 1.1//EN"
 "http://www.w3.org/Graphics/SVG/1.1/DTD/svg11.dtd">
<!-- Generated by graphviz version 2.43.0 (0)
 -->
<!-- Title: %3 Pages: 1 -->
<svg width="909pt" height="315pt"
 viewBox="0.00 0.00 909.00 315.00" xmlns="http://www.w3.org/2000/svg" xmlns:xlink="http://www.w3.org/1999/xlink">
<g id="graph0" class="graph" transform="scale(1 1) rotate(0) translate(4 311)">
<title>%3</title>
<g id="clust1" class="cluster">
<title>cluster_rolls</title>
<polygon fill="transparent" stroke="DarkSlateGray" stroke-dasharray="1,5" points="100,-116 100,-299 323,-299 323,-116 100,-116"/>
<text text-anchor="start" x="184" y="-284.8" font-family="Helvetica,sans-Serif" font-style="italic" font-size="14.00" fill="DarkSlateGray">Roll Tree</text>
</g>
<g id="clust2" class="cluster">
<title>cluster_rollers</title>
<polygon fill="transparent" stroke="DarkSlateGray" stroke-dasharray="1,5" points="331,-8 331,-191 893,-191 893,-8 331,-8"/>
<text text-anchor="start" x="578.5" y="-176.8" font-family="Helvetica,sans-Serif" font-style="italic" font-size="14.00" fill="DarkSlateGray">Roller Tree</text>
</g>
<g id="clust3" class="cluster">
<title>cluster_roll_outcomes</title>
<polygon fill="transparent" stroke="DarkSlateGray" stroke-dasharray="1,5" points="8,-8 8,-83 246,-83 246,-8 8,-8"/>
<text text-anchor="start" x="81.5" y="-68.8" font-family="Helvetica,sans-Serif" font-style="italic" font-size="14.00" fill="DarkSlateGray">Roll Outcomes</text>
</g>
<!-- Roll&#45;1 -->
<g id="node1" class="node">
<title>Roll&#45;1</title>
<polygon fill="none" stroke="DarkSlateGray" points="162,-268 108,-268 108,-232 162,-232 162,-268"/>
<text text-anchor="start" x="122" y="-247.3" font-family="Helvetica,sans-Serif" font-weight="bold" font-size="14.00" fill="DarkSlateGray">Roll</text>
</g>
<!-- PoolRoller&#45;2 -->
<g id="node2" class="node">
<title>PoolRoller&#45;2</title>
<polygon fill="none" stroke="DarkSlateGray" points="513,-160 429,-160 429,-124 513,-124 513,-160"/>
<text text-anchor="start" x="437" y="-139.3" font-family="Helvetica,sans-Serif" font-weight="bold" font-size="14.00" fill="DarkSlateGray">PoolRoller</text>
</g>
<!-- Roll&#45;1&#45;&gt;PoolRoller&#45;2 -->
<g id="edge1" class="edge">
<title>Roll&#45;1&#45;&gt;PoolRoller&#45;2</title>
<path fill="none" stroke="DarkSlateGray" d="M162.09,-245.21C196.17,-240.04 256.27,-229.61 306,-214 348.52,-200.66 394.98,-180.09 427.73,-164.52"/>
<polygon fill="DarkSlateGray" stroke="DarkSlateGray" points="429.51,-167.55 437.02,-160.06 426.49,-161.23 429.51,-167.55"/>
<text text-anchor="middle" x="351.5" y="-202.8" font-family="Courier New" font-size="14.00" fill="DarkSlateGray">r</text>
</g>
<!-- RollOutcome&#45;3 -->
<g id="node3" class="node">
<title>RollOutcome&#45;3</title>
<polygon fill="none" stroke="MediumBlue" stroke-dasharray="5,2" points="118,-52 16,-52 16,-16 118,-16 118,-52"/>
<text text-anchor="start" x="24" y="-37.8" font-family="Helvetica,sans-Serif" font-weight="bold" font-size="14.00" fill="MediumBlue">RollOutcome</text>
<text text-anchor="start" x="33.5" y="-23.8" font-family="Courier New" font-size="14.00" fill="MediumBlue">value=60</text>
</g>
<!-- Roll&#45;1&#45;&gt;RollOutcome&#45;3 -->
<g id="edge2" class="edge">
<title>Roll&#45;1&#45;&gt;RollOutcome&#45;3</title>
<path fill="none" stroke="MediumBlue" stroke-dasharray="5,2" d="M107.94,-233.99C92.85,-223.99 75.45,-209.32 67,-191 47.83,-149.46 53.96,-94.83 60.35,-62.46"/>
<polygon fill="MediumBlue" stroke="MediumBlue" points="63.83,-62.9 62.48,-52.39 56.98,-61.44 63.83,-62.9"/>
<text text-anchor="middle" x="79.5" y="-138.3" font-family="Courier New" font-size="14.00" fill="MediumBlue">[0]</text>
</g>
<!-- RollOutcome&#45;4 -->
<g id="node4" class="node">
<title>RollOutcome&#45;4</title>
<polygon fill="none" stroke="MediumVioletRed" stroke-dasharray="5,2" points="238,-52 136,-52 136,-16 238,-16 238,-52"/>
<text text-anchor="start" x="144" y="-37.8" font-family="Helvetica,sans-Serif" font-weight="bold" font-size="14.00" fill="MediumVioletRed">RollOutcome</text>
<text text-anchor="start" x="158" y="-23.8" font-family="Courier New" font-size="14.00" fill="MediumVioletRed">value=9</text>
</g>
<!-- Roll&#45;1&#45;&gt;RollOutcome&#45;4 -->
<g id="edge3" class="edge">
<title>Roll&#45;1&#45;&gt;RollOutcome&#45;4</title>
<path fill="none" stroke="MediumVioletRed" stroke-dasharray="5,2" d="M122.03,-231.76C114.56,-220.74 105.91,-205.78 102,-191 93.47,-158.78 95.14,-148.62 102,-116 104.5,-104.12 104.88,-100.02 113,-91 117.8,-85.67 121.07,-87.03 127,-83 137.95,-75.56 149.42,-66.68 159.37,-58.59"/>
<polygon fill="MediumVioletRed" stroke="MediumVioletRed" points="161.83,-61.09 167.32,-52.03 157.38,-55.69 161.83,-61.09"/>
<text text-anchor="middle" x="114.5" y="-138.3" font-family="Courier New" font-size="14.00" fill="MediumVioletRed">[1]</text>
</g>
<!-- Roll&#45;5 -->
<g id="node5" class="node">
<title>Roll&#45;5</title>
<polygon fill="none" stroke="MediumBlue" stroke-dasharray="5,2" points="190,-160 136,-160 136,-124 190,-124 190,-160"/>
<text text-anchor="start" x="150" y="-139.3" font-family="Helvetica,sans-Serif" font-weight="bold" font-size="14.00" fill="MediumBlue">Roll</text>
</g>
<!-- Roll&#45;1&#45;&gt;Roll&#45;5 -->
<g id="edge8" class="edge">
<title>Roll&#45;1&#45;&gt;Roll&#45;5</title>
<path fill="none" stroke="MediumBlue" stroke-dasharray="5,2" d="M128.49,-231.64C125.77,-221.91 123.88,-209.63 127,-199 130.16,-188.24 136.09,-177.6 142.24,-168.52"/>
<polygon fill="MediumBlue" stroke="MediumBlue" points="145.12,-170.51 148.13,-160.35 139.44,-166.43 145.12,-170.51"/>
<text text-anchor="middle" x="168.5" y="-202.8" font-family="Courier New" font-size="14.00" fill="MediumBlue">sources[0]</text>
</g>
<!-- Roll&#45;7 -->
<g id="node7" class="node">
<title>Roll&#45;7</title>
<polygon fill="none" stroke="MediumVioletRed" stroke-dasharray="5,2" points="262,-160 208,-160 208,-124 262,-124 262,-160"/>
<text text-anchor="start" x="222" y="-139.3" font-family="Helvetica,sans-Serif" font-weight="bold" font-size="14.00" fill="MediumVioletRed">Roll</text>
</g>
<!-- Roll&#45;1&#45;&gt;Roll&#45;7 -->
<g id="edge9" class="edge">
<title>Roll&#45;1&#45;&gt;Roll&#45;7</title>
<path fill="none" stroke="MediumVioletRed" stroke-dasharray="5,2" d="M162.14,-242.09C178.02,-236.78 197.36,-227.95 210,-214 221.02,-201.85 227.24,-184.54 230.72,-170.06"/>
<polygon fill="MediumVioletRed" stroke="MediumVioletRed" points="234.18,-170.63 232.8,-160.12 227.33,-169.19 234.18,-170.63"/>
<text text-anchor="middle" x="260.5" y="-202.8" font-family="Courier New" font-size="14.00" fill="MediumVioletRed">sources[1]</text>
</g>
<!-- ValueRoller&#45;6 -->
<g id="node6" class="node">
<title>ValueRoller&#45;6</title>
<polygon fill="none" stroke="MediumBlue" stroke-dasharray="5,2" points="603,-52 339,-52 339,-16 603,-16 603,-52"/>
<text text-anchor="start" x="433.5" y="-37.8" font-family="Helvetica,sans-Serif" font-weight="bold" font-size="14.00" fill="MediumBlue">ValueRoller</text>
<text text-anchor="start" x="347" y="-23.8" font-family="Courier New" font-size="14.00" fill="MediumBlue">value=H({0: 1, 10: 1, 20: 1...</text>
</g>
<!-- PoolRoller&#45;2&#45;&gt;ValueRoller&#45;6 -->
<g id="edge10" class="edge">
<title>PoolRoller&#45;2&#45;&gt;ValueRoller&#45;6</title>
<path fill="none" stroke="MediumBlue" stroke-dasharray="5,2" d="M471,-123.97C471,-107.38 471,-81.88 471,-62.43"/>
<polygon fill="MediumBlue" stroke="MediumBlue" points="474.5,-62.34 471,-52.34 467.5,-62.34 474.5,-62.34"/>
<text text-anchor="middle" x="512.5" y="-94.8" font-family="Courier New" font-size="14.00" fill="MediumBlue">sources[0]</text>
</g>
<!-- ValueRoller&#45;8 -->
<g id="node8" class="node">
<title>ValueRoller&#45;8</title>
<polygon fill="none" stroke="MediumVioletRed" stroke-dasharray="5,2" points="885,-52 621,-52 621,-16 885,-16 885,-52"/>
<text text-anchor="start" x="715.5" y="-37.8" font-family="Helvetica,sans-Serif" font-weight="bold" font-size="14.00" fill="MediumVioletRed">ValueRoller</text>
<text text-anchor="start" x="629" y="-23.8" font-family="Courier New" font-size="14.00" fill="MediumVioletRed">value=H({0: 1, 1: 1, 2: 1, ...</text>
</g>
<!-- PoolRoller&#45;2&#45;&gt;ValueRoller&#45;8 -->
<g id="edge11" class="edge">
<title>PoolRoller&#45;2&#45;&gt;ValueRoller&#45;8</title>
<path fill="none" stroke="MediumVioletRed" stroke-dasharray="5,2" d="M513.22,-125.13C562.5,-106.61 644.14,-75.92 698.25,-55.58"/>
<polygon fill="MediumVioletRed" stroke="MediumVioletRed" points="699.56,-58.83 707.69,-52.03 697.09,-52.27 699.56,-58.83"/>
<text text-anchor="middle" x="644.5" y="-94.8" font-family="Courier New" font-size="14.00" fill="MediumVioletRed">sources[1]</text>
</g>
<!-- Roll&#45;5&#45;&gt;RollOutcome&#45;3 -->
<g id="edge5" class="edge">
<title>Roll&#45;5&#45;&gt;RollOutcome&#45;3</title>
<path fill="none" stroke="MediumBlue" stroke-dasharray="5,2" d="M147.58,-123.97C131.85,-106.61 107.3,-79.5 89.43,-59.77"/>
<polygon fill="MediumBlue" stroke="MediumBlue" points="92.01,-57.4 82.7,-52.34 86.82,-62.1 92.01,-57.4"/>
<text text-anchor="middle" x="141.5" y="-94.8" font-family="Courier New" font-size="14.00" fill="MediumBlue">[0]</text>
</g>
<!-- Roll&#45;5&#45;&gt;ValueRoller&#45;6 -->
<g id="edge4" class="edge">
<title>Roll&#45;5&#45;&gt;ValueRoller&#45;6</title>
<path fill="none" stroke="MediumBlue" stroke-dasharray="5,2" d="M170.88,-123.85C176.95,-112.66 186.42,-98.73 199,-91 218.55,-78.98 227.45,-87.21 250,-83 295.82,-74.44 346.68,-63.49 388.04,-54.22"/>
<polygon fill="MediumBlue" stroke="MediumBlue" points="388.81,-57.63 397.8,-52.02 387.28,-50.8 388.81,-57.63"/>
<text text-anchor="middle" x="203.5" y="-94.8" font-family="Courier New" font-size="14.00" fill="MediumBlue">r</text>
</g>
<!-- Roll&#45;7&#45;&gt;RollOutcome&#45;4 -->
<g id="edge7" class="edge">
<title>Roll&#45;7&#45;&gt;RollOutcome&#45;4</title>
<path fill="none" stroke="MediumVioletRed" stroke-dasharray="5,2" d="M227.29,-123.97C219.67,-107.15 207.91,-81.17 199.06,-61.62"/>
<polygon fill="MediumVioletRed" stroke="MediumVioletRed" points="202.17,-60.01 194.85,-52.34 195.79,-62.89 202.17,-60.01"/>
<text text-anchor="middle" x="230.5" y="-94.8" font-family="Courier New" font-size="14.00" fill="MediumVioletRed">[0]</text>
</g>
<!-- Roll&#45;7&#45;&gt;ValueRoller&#45;8 -->
<g id="edge6" class="edge">
<title>Roll&#45;7&#45;&gt;ValueRoller&#45;8</title>
<path fill="none" stroke="MediumVioletRed" stroke-dasharray="5,2" d="M262.24,-133.01C280.47,-127.8 305.07,-121.06 327,-116 384.75,-102.66 399.15,-98.11 458,-91 526.04,-82.78 544.7,-95.94 612,-83 643.1,-77.02 676.71,-65.78 703.31,-55.67"/>
<polygon fill="MediumVioletRed" stroke="MediumVioletRed" points="704.71,-58.89 712.78,-52.02 702.19,-52.36 704.71,-58.89"/>
<text text-anchor="middle" x="462.5" y="-94.8" font-family="Courier New" font-size="14.00" fill="MediumVioletRed">r</text>
</g>
</g>
</svg>
