<?xml version="1.0" encoding="UTF-8" standalone="no"?>
<!DOCTYPE svg PUBLIC "-//W3C//DTD SVG 1.1//EN"
 "http://www.w3.org/Graphics/SVG/1.1/DTD/svg11.dtd">
<!-- Generated by graphviz version 2.43.0 (0)
 -->
<!-- Title: %3 Pages: 1 -->
<svg width="258pt" height="207pt"
 viewBox="0.00 0.00 258.00 207.00" xmlns="http://www.w3.org/2000/svg" xmlns:xlink="http://www.w3.org/1999/xlink">
<g id="graph0" class="graph" transform="scale(1 1) rotate(0) translate(4 203)">
<title>%3</title>
<g id="clust1" class="cluster">
<title>cluster_rolls</title>
<polygon fill="transparent" stroke="DarkSlateGray" stroke-dasharray="1,5" points="98,-116 98,-191 169,-191 169,-116 98,-116"/>
<text text-anchor="start" x="106" y="-176.8" font-family="Helvetica,sans-Serif" font-style="italic" font-size="14.00" fill="DarkSlateGray">Roll Tree</text>
</g>
<g id="clust2" class="cluster">
<title>cluster_rollers</title>
<polygon fill="transparent" stroke="DarkSlateGray" stroke-dasharray="1,5" points="8,-8 8,-83 116,-83 116,-8 8,-8"/>
<text text-anchor="start" x="28.5" y="-68.8" font-family="Helvetica,sans-Serif" font-style="italic" font-size="14.00" fill="DarkSlateGray">Roller Tree</text>
</g>
<g id="clust3" class="cluster">
<title>cluster_roll_outcomes</title>
<polygon fill="transparent" stroke="DarkSlateGray" stroke-dasharray="1,5" points="124,-8 124,-83 242,-83 242,-8 124,-8"/>
<text text-anchor="start" x="137.5" y="-68.8" font-family="Helvetica,sans-Serif" font-style="italic" font-size="14.00" fill="DarkSlateGray">Roll Outcomes</text>
</g>
<!-- Roll&#45;1 -->
<g id="node1" class="node">
<title>Roll&#45;1</title>
<polygon fill="none" stroke="DarkSlateGray" points="160,-160 106,-160 106,-124 160,-124 160,-160"/>
<text text-anchor="start" x="120" y="-139.3" font-family="Helvetica,sans-Serif" font-weight="bold" font-size="14.00" fill="DarkSlateGray">Roll</text>
</g>
<!-- ValueRoller&#45;2 -->
<g id="node2" class="node">
<title>ValueRoller&#45;2</title>
<polygon fill="none" stroke="DarkSlateGray" points="107.5,-52 16.5,-52 16.5,-16 107.5,-16 107.5,-52"/>
<text text-anchor="start" x="24.5" y="-37.8" font-family="Helvetica,sans-Serif" font-weight="bold" font-size="14.00" fill="DarkSlateGray">ValueRoller</text>
<text text-anchor="start" x="33" y="-23.8" font-family="Courier New" font-size="14.00" fill="DarkSlateGray">value=1</text>
</g>
<!-- Roll&#45;1&#45;&gt;ValueRoller&#45;2 -->
<g id="edge1" class="edge">
<title>Roll&#45;1&#45;&gt;ValueRoller&#45;2</title>
<path fill="none" stroke="DarkSlateGray" d="M121.59,-123.97C110.17,-106.92 92.45,-80.46 79.3,-60.82"/>
<polygon fill="DarkSlateGray" stroke="DarkSlateGray" points="82.09,-58.7 73.61,-52.34 76.27,-62.6 82.09,-58.7"/>
<text text-anchor="middle" x="112.5" y="-94.8" font-family="Courier New" font-size="14.00" fill="DarkSlateGray">r</text>
</g>
<!-- RollOutcome&#45;3 -->
<g id="node3" class="node">
<title>RollOutcome&#45;3</title>
<polygon fill="none" stroke="DarkSlateGray" points="234,-52 132,-52 132,-16 234,-16 234,-52"/>
<text text-anchor="start" x="140" y="-37.8" font-family="Helvetica,sans-Serif" font-weight="bold" font-size="14.00" fill="DarkSlateGray">RollOutcome</text>
<text text-anchor="start" x="154" y="-23.8" font-family="Courier New" font-size="14.00" fill="DarkSlateGray">value=1</text>
</g>
<!-- Roll&#45;1&#45;&gt;RollOutcome&#45;3 -->
<g id="edge2" class="edge">
<title>Roll&#45;1&#45;&gt;RollOutcome&#45;3</title>
<path fill="none" stroke="DarkSlateGray" d="M141.03,-123.97C148.97,-107.15 161.22,-81.17 170.44,-61.62"/>
<polygon fill="DarkSlateGray" stroke="DarkSlateGray" points="173.72,-62.88 174.82,-52.34 167.39,-59.89 173.72,-62.88"/>
<text text-anchor="middle" x="168.5" y="-94.8" font-family="Courier New" font-size="14.00" fill="DarkSlateGray">[0]</text>
</g>
</g>
</svg>
