<?xml version="1.0" encoding="UTF-8" standalone="no"?>
<!DOCTYPE svg PUBLIC "-//W3C//DTD SVG 1.1//EN"
 "http://www.w3.org/Graphics/SVG/1.1/DTD/svg11.dtd">
<!-- Generated by graphviz version 2.43.0 (0)
 -->
<!-- Title: %3 Pages: 1 -->
<svg width="847pt" height="489pt"
 viewBox="0.00 0.00 847.00 489.00" xmlns="http://www.w3.org/2000/svg" xmlns:xlink="http://www.w3.org/1999/xlink">
<g id="graph0" class="graph" transform="scale(1 1) rotate(0) translate(4 485)">
<title>%3</title>
<g id="clust1" class="cluster">
<title>cluster_rolls</title>
<polygon fill="transparent" stroke="DarkSlateGray" stroke-dasharray="1,5" points="296,-290 296,-473 625,-473 625,-290 296,-290"/>
<text text-anchor="start" x="433" y="-458.8" font-family="Helvetica,sans-Serif" font-style="italic" font-size="14.00" fill="DarkSlateGray">Roll Tree</text>
</g>
<g id="clust2" class="cluster">
<title>cluster_rollers</title>
<polygon fill="transparent" stroke="DarkSlateGray" stroke-dasharray="1,5" points="8,-182 8,-365 288,-365 288,-182 8,-182"/>
<text text-anchor="start" x="114.5" y="-350.8" font-family="Helvetica,sans-Serif" font-style="italic" font-size="14.00" fill="DarkSlateGray">Roller Tree</text>
</g>
<g id="clust3" class="cluster">
<title>cluster_roll_outcomes</title>
<polygon fill="transparent" stroke="DarkSlateGray" stroke-dasharray="1,5" points="509,-8 509,-257 747,-257 747,-8 509,-8"/>
<text text-anchor="start" x="582.5" y="-242.8" font-family="Helvetica,sans-Serif" font-style="italic" font-size="14.00" fill="DarkSlateGray">Roll Outcomes</text>
</g>
<!-- Roll&#45;1 -->
<g id="node1" class="node">
<title>Roll&#45;1</title>
<polygon fill="none" stroke="DarkSlateGray" points="561,-442 507,-442 507,-406 561,-406 561,-442"/>
<text text-anchor="start" x="521" y="-421.3" font-family="Helvetica,sans-Serif" font-weight="bold" font-size="14.00" fill="DarkSlateGray">Roll</text>
</g>
<!-- SubstitutionRoller&#45;2 -->
<g id="node2" class="node">
<title>SubstitutionRoller&#45;2</title>
<polygon fill="none" stroke="DarkSlateGray" points="254,-334 120,-334 120,-298 254,-298 254,-334"/>
<text text-anchor="start" x="128" y="-313.3" font-family="Helvetica,sans-Serif" font-weight="bold" font-size="14.00" fill="DarkSlateGray">SubstitutionRoller</text>
</g>
<!-- Roll&#45;1&#45;&gt;SubstitutionRoller&#45;2 -->
<g id="edge1" class="edge">
<title>Roll&#45;1&#45;&gt;SubstitutionRoller&#45;2</title>
<path fill="none" stroke="DarkSlateGray" d="M506.76,-422.07C463.46,-419.87 376.82,-412.51 308,-388 275.65,-376.48 242.23,-356.11 218.74,-340.14"/>
<polygon fill="DarkSlateGray" stroke="DarkSlateGray" points="220.45,-337.07 210.24,-334.26 216.47,-342.83 220.45,-337.07"/>
<text text-anchor="middle" x="312.5" y="-376.8" font-family="Courier New" font-size="14.00" fill="DarkSlateGray">r</text>
</g>
<!-- RollOutcome&#45;3 -->
<g id="node3" class="node">
<title>RollOutcome&#45;3</title>
<polygon fill="none" stroke="DarkSlateGray" stroke-dasharray="1,5" points="739,-139 637,-139 637,-103 739,-103 739,-139"/>
<text text-anchor="start" x="645" y="-124.8" font-family="Helvetica,sans-Serif" font-weight="bold" font-size="14.00" fill="DarkSlateGray">RollOutcome</text>
<text text-anchor="start" x="646.5" y="-110.8" font-family="Courier New" font-size="14.00" fill="DarkSlateGray">value=None</text>
</g>
<!-- Roll&#45;1&#45;&gt;RollOutcome&#45;3 -->
<g id="edge2" class="edge">
<title>Roll&#45;1&#45;&gt;RollOutcome&#45;3</title>
<path fill="none" stroke="DarkSlateGray" d="M561.4,-415.29C579.7,-409.42 603.84,-400.26 623,-388 663.93,-361.8 721.42,-324.35 748,-257 764.4,-215.45 765.75,-192 738,-157 734.71,-152.85 730.8,-148.99 726.64,-145.46"/>
<polygon fill="DarkSlateGray" stroke="DarkSlateGray" points="728.47,-142.45 718.42,-139.09 724.18,-147.98 728.47,-142.45"/>
<text text-anchor="middle" x="756.5" y="-268.8" font-family="Courier New" font-size="14.00" fill="DarkSlateGray">[0]</text>
</g>
<!-- RollOutcome&#45;4 -->
<g id="node4" class="node">
<title>RollOutcome&#45;4</title>
<polygon fill="none" stroke="DarkSlateGray" stroke-dasharray="1,5" points="739,-226 637,-226 637,-190 739,-190 739,-226"/>
<text text-anchor="start" x="645" y="-211.8" font-family="Helvetica,sans-Serif" font-weight="bold" font-size="14.00" fill="DarkSlateGray">RollOutcome</text>
<text text-anchor="start" x="646.5" y="-197.8" font-family="Courier New" font-size="14.00" fill="DarkSlateGray">value=None</text>
</g>
<!-- Roll&#45;1&#45;&gt;RollOutcome&#45;4 -->
<g id="edge3" class="edge">
<title>Roll&#45;1&#45;&gt;RollOutcome&#45;4</title>
<path fill="none" stroke="DarkSlateGray" d="M561.19,-423.1C618.86,-422.72 750.65,-418.44 781,-388 819.89,-349 824.61,-312.06 796,-265 785.3,-247.4 767.08,-235.08 748.62,-226.58"/>
<polygon fill="DarkSlateGray" stroke="DarkSlateGray" points="749.85,-223.3 739.28,-222.58 747.1,-229.73 749.85,-223.3"/>
<text text-anchor="middle" x="826.5" y="-312.3" font-family="Courier New" font-size="14.00" fill="DarkSlateGray">[1]</text>
</g>
<!-- RollOutcome&#45;5 -->
<g id="node5" class="node">
<title>RollOutcome&#45;5</title>
<polygon fill="none" stroke="MediumVioletRed" stroke-dasharray="5,2" points="619,-226 517,-226 517,-190 619,-190 619,-226"/>
<text text-anchor="start" x="525" y="-211.8" font-family="Helvetica,sans-Serif" font-weight="bold" font-size="14.00" fill="MediumVioletRed">RollOutcome</text>
<text text-anchor="start" x="539" y="-197.8" font-family="Courier New" font-size="14.00" fill="MediumVioletRed">value=2</text>
</g>
<!-- Roll&#45;1&#45;&gt;RollOutcome&#45;5 -->
<g id="edge4" class="edge">
<title>Roll&#45;1&#45;&gt;RollOutcome&#45;5</title>
<path fill="none" stroke="MediumVioletRed" stroke-dasharray="5,2" d="M561.1,-417.38C577.14,-412.5 596.19,-403.67 606,-388 636.14,-339.84 605.62,-271.61 584.49,-234.85"/>
<polygon fill="MediumVioletRed" stroke="MediumVioletRed" points="587.48,-233.03 579.36,-226.22 581.46,-236.6 587.48,-233.03"/>
<text text-anchor="middle" x="630.5" y="-312.3" font-family="Courier New" font-size="14.00" fill="MediumVioletRed">[2]</text>
</g>
<!-- Roll&#45;6 -->
<g id="node6" class="node">
<title>Roll&#45;6</title>
<polygon fill="none" stroke="MediumVioletRed" stroke-dasharray="5,2" points="358,-334 304,-334 304,-298 358,-298 358,-334"/>
<text text-anchor="start" x="318" y="-313.3" font-family="Helvetica,sans-Serif" font-weight="bold" font-size="14.00" fill="MediumVioletRed">Roll</text>
</g>
<!-- Roll&#45;1&#45;&gt;Roll&#45;6 -->
<g id="edge11" class="edge">
<title>Roll&#45;1&#45;&gt;Roll&#45;6</title>
<path fill="none" stroke="MediumVioletRed" stroke-dasharray="5,2" d="M506.82,-422.54C456.2,-421.06 350.59,-414.75 328,-388 317.94,-376.09 318.54,-358.65 321.73,-344.03"/>
<polygon fill="MediumVioletRed" stroke="MediumVioletRed" points="325.21,-344.57 324.39,-334 318.44,-342.77 325.21,-344.57"/>
<text text-anchor="middle" x="369.5" y="-376.8" font-family="Courier New" font-size="14.00" fill="MediumVioletRed">sources[0]</text>
</g>
<!-- Roll&#45;9 -->
<g id="node9" class="node">
<title>Roll&#45;9</title>
<polygon fill="none" stroke="MediumVioletRed" stroke-dasharray="5,2" points="502,-334 448,-334 448,-298 502,-298 502,-334"/>
<text text-anchor="start" x="462" y="-313.3" font-family="Helvetica,sans-Serif" font-weight="bold" font-size="14.00" fill="MediumVioletRed">Roll</text>
</g>
<!-- Roll&#45;1&#45;&gt;Roll&#45;9 -->
<g id="edge12" class="edge">
<title>Roll&#45;1&#45;&gt;Roll&#45;9</title>
<path fill="none" stroke="MediumVioletRed" stroke-dasharray="5,2" d="M527.36,-405.99C523.31,-396.16 517.81,-383.66 512,-373 506.42,-362.77 499.55,-351.98 493.25,-342.64"/>
<polygon fill="MediumVioletRed" stroke="MediumVioletRed" points="496,-340.45 487.45,-334.18 490.22,-344.41 496,-340.45"/>
<text text-anchor="middle" x="560.5" y="-376.8" font-family="Courier New" font-size="14.00" fill="MediumVioletRed">sources[1]</text>
</g>
<!-- Roll&#45;11 -->
<g id="node11" class="node">
<title>Roll&#45;11</title>
<polygon fill="none" stroke="MediumVioletRed" stroke-dasharray="5,2" points="430,-334 376,-334 376,-298 430,-298 430,-334"/>
<text text-anchor="start" x="390" y="-313.3" font-family="Helvetica,sans-Serif" font-weight="bold" font-size="14.00" fill="MediumVioletRed">Roll</text>
</g>
<!-- Roll&#45;1&#45;&gt;Roll&#45;11 -->
<g id="edge13" class="edge">
<title>Roll&#45;1&#45;&gt;Roll&#45;11</title>
<path fill="none" stroke="MediumVioletRed" stroke-dasharray="5,2" d="M506.61,-421.18C482.06,-418.11 446.67,-409.89 425,-388 413.53,-376.41 408.02,-358.97 405.39,-344.27"/>
<polygon fill="MediumVioletRed" stroke="MediumVioletRed" points="408.82,-343.58 403.93,-334.18 401.9,-344.58 408.82,-343.58"/>
<text text-anchor="middle" x="466.5" y="-376.8" font-family="Courier New" font-size="14.00" fill="MediumVioletRed">sources[2]</text>
</g>
<!-- ValueRoller&#45;7 -->
<g id="node7" class="node">
<title>ValueRoller&#45;7</title>
<polygon fill="none" stroke="MediumVioletRed" stroke-dasharray="5,2" points="280,-226 16,-226 16,-190 280,-190 280,-226"/>
<text text-anchor="start" x="110.5" y="-211.8" font-family="Helvetica,sans-Serif" font-weight="bold" font-size="14.00" fill="MediumVioletRed">ValueRoller</text>
<text text-anchor="start" x="24" y="-197.8" font-family="Courier New" font-size="14.00" fill="MediumVioletRed">value=H({1: 1, 2: 1, 3: 1, ...</text>
</g>
<!-- SubstitutionRoller&#45;2&#45;&gt;ValueRoller&#45;7 -->
<g id="edge14" class="edge">
<title>SubstitutionRoller&#45;2&#45;&gt;ValueRoller&#45;7</title>
<path fill="none" stroke="MediumVioletRed" stroke-dasharray="5,2" d="M180.73,-297.97C174.57,-281.22 165.08,-255.41 157.89,-235.89"/>
<polygon fill="MediumVioletRed" stroke="MediumVioletRed" points="161.12,-234.52 154.38,-226.34 154.55,-236.93 161.12,-234.52"/>
<text text-anchor="middle" x="215.5" y="-268.8" font-family="Courier New" font-size="14.00" fill="MediumVioletRed">sources[0]</text>
</g>
<!-- RollOutcome&#45;8 -->
<g id="node8" class="node">
<title>RollOutcome&#45;8</title>
<polygon fill="none" stroke="MediumVioletRed" stroke-dasharray="5,2" points="619,-52 517,-52 517,-16 619,-16 619,-52"/>
<text text-anchor="start" x="525" y="-37.8" font-family="Helvetica,sans-Serif" font-weight="bold" font-size="14.00" fill="MediumVioletRed">RollOutcome</text>
<text text-anchor="start" x="539" y="-23.8" font-family="Courier New" font-size="14.00" fill="MediumVioletRed">value=1</text>
</g>
<!-- RollOutcome&#45;3&#45;&gt;RollOutcome&#45;8 -->
<g id="edge15" class="edge">
<title>RollOutcome&#45;3&#45;&gt;RollOutcome&#45;8</title>
<path fill="none" stroke="MediumVioletRed" stroke-dasharray="5,2" d="M671.48,-102.57C661.26,-92.36 647.54,-79.61 634,-70 627.53,-65.41 620.38,-61.01 613.25,-56.98"/>
<polygon fill="MediumVioletRed" stroke="MediumVioletRed" points="614.74,-53.8 604.28,-52.08 611.38,-59.95 614.74,-53.8"/>
<text text-anchor="middle" x="692.5" y="-73.8" font-family="Courier New" font-size="14.00" fill="MediumVioletRed">sources[0]</text>
</g>
<!-- RollOutcome&#45;10 -->
<g id="node10" class="node">
<title>RollOutcome&#45;10</title>
<polygon fill="none" stroke="MediumVioletRed" stroke-dasharray="5,2" points="619,-139 517,-139 517,-103 619,-103 619,-139"/>
<text text-anchor="start" x="525" y="-124.8" font-family="Helvetica,sans-Serif" font-weight="bold" font-size="14.00" fill="MediumVioletRed">RollOutcome</text>
<text text-anchor="start" x="539" y="-110.8" font-family="Courier New" font-size="14.00" fill="MediumVioletRed">value=1</text>
</g>
<!-- RollOutcome&#45;4&#45;&gt;RollOutcome&#45;10 -->
<g id="edge16" class="edge">
<title>RollOutcome&#45;4&#45;&gt;RollOutcome&#45;10</title>
<path fill="none" stroke="MediumVioletRed" stroke-dasharray="5,2" d="M671.48,-189.57C661.26,-179.36 647.54,-166.61 634,-157 627.53,-152.41 620.38,-148.01 613.25,-143.98"/>
<polygon fill="MediumVioletRed" stroke="MediumVioletRed" points="614.74,-140.8 604.28,-139.08 611.38,-146.95 614.74,-140.8"/>
<text text-anchor="middle" x="692.5" y="-160.8" font-family="Courier New" font-size="14.00" fill="MediumVioletRed">sources[0]</text>
</g>
<!-- RollOutcome&#45;5&#45;&gt;RollOutcome&#45;10 -->
<g id="edge17" class="edge">
<title>RollOutcome&#45;5&#45;&gt;RollOutcome&#45;10</title>
<path fill="none" stroke="MediumVioletRed" stroke-dasharray="5,2" d="M557.07,-189.67C552.36,-180.16 548.45,-168.08 551,-157 551.65,-154.16 552.57,-151.29 553.64,-148.47"/>
<polygon fill="MediumVioletRed" stroke="MediumVioletRed" points="556.88,-149.79 557.72,-139.23 550.48,-146.96 556.88,-149.79"/>
<text text-anchor="middle" x="592.5" y="-160.8" font-family="Courier New" font-size="14.00" fill="MediumVioletRed">sources[0]</text>
</g>
<!-- Roll&#45;6&#45;&gt;ValueRoller&#45;7 -->
<g id="edge5" class="edge">
<title>Roll&#45;6&#45;&gt;ValueRoller&#45;7</title>
<path fill="none" stroke="MediumVioletRed" stroke-dasharray="5,2" d="M308.92,-297.84C295.44,-287.72 277.65,-274.98 261,-265 240.08,-252.45 215.96,-240.22 195.39,-230.4"/>
<polygon fill="MediumVioletRed" stroke="MediumVioletRed" points="196.75,-227.17 186.21,-226.07 193.76,-233.5 196.75,-227.17"/>
<text text-anchor="middle" x="287.5" y="-268.8" font-family="Courier New" font-size="14.00" fill="MediumVioletRed">r</text>
</g>
<!-- Roll&#45;6&#45;&gt;RollOutcome&#45;8 -->
<g id="edge6" class="edge">
<title>Roll&#45;6&#45;&gt;RollOutcome&#45;8</title>
<path fill="none" stroke="MediumVioletRed" stroke-dasharray="5,2" d="M334,-297.98C336.27,-287.9 340.05,-275.17 346,-265 397.57,-176.89 489.66,-96.65 537.4,-58.46"/>
<polygon fill="MediumVioletRed" stroke="MediumVioletRed" points="539.84,-61 545.5,-52.05 535.49,-55.51 539.84,-61"/>
<text text-anchor="middle" x="440.5" y="-160.8" font-family="Courier New" font-size="14.00" fill="MediumVioletRed">[0]</text>
</g>
<!-- Roll&#45;9&#45;&gt;ValueRoller&#45;7 -->
<g id="edge7" class="edge">
<title>Roll&#45;9&#45;&gt;ValueRoller&#45;7</title>
<path fill="none" stroke="MediumVioletRed" stroke-dasharray="5,2" d="M463.04,-297.53C454.54,-286.48 442.17,-272.87 428,-265 386.31,-241.85 336.42,-228.19 290.37,-220.16"/>
<polygon fill="MediumVioletRed" stroke="MediumVioletRed" points="290.74,-216.67 280.3,-218.48 289.59,-223.58 290.74,-216.67"/>
<text text-anchor="middle" x="452.5" y="-268.8" font-family="Courier New" font-size="14.00" fill="MediumVioletRed">r</text>
</g>
<!-- Roll&#45;9&#45;&gt;RollOutcome&#45;10 -->
<g id="edge8" class="edge">
<title>Roll&#45;9&#45;&gt;RollOutcome&#45;10</title>
<path fill="none" stroke="MediumVioletRed" stroke-dasharray="5,2" d="M471.56,-297.75C467.17,-271.06 462.4,-218.98 483,-182 491.74,-166.3 506.52,-153.74 521.33,-144.26"/>
<polygon fill="MediumVioletRed" stroke="MediumVioletRed" points="523.25,-147.19 530.01,-139.02 519.64,-141.19 523.25,-147.19"/>
<text text-anchor="middle" x="495.5" y="-204.3" font-family="Courier New" font-size="14.00" fill="MediumVioletRed">[0]</text>
</g>
<!-- RollOutcome&#45;10&#45;&gt;RollOutcome&#45;8 -->
<g id="edge18" class="edge">
<title>RollOutcome&#45;10&#45;&gt;RollOutcome&#45;8</title>
<path fill="none" stroke="MediumVioletRed" stroke-dasharray="5,2" d="M557.07,-102.67C552.36,-93.16 548.45,-81.08 551,-70 551.65,-67.16 552.57,-64.29 553.64,-61.47"/>
<polygon fill="MediumVioletRed" stroke="MediumVioletRed" points="556.88,-62.79 557.72,-52.23 550.48,-59.96 556.88,-62.79"/>
<text text-anchor="middle" x="592.5" y="-73.8" font-family="Courier New" font-size="14.00" fill="MediumVioletRed">sources[0]</text>
</g>
<!-- Roll&#45;11&#45;&gt;RollOutcome&#45;5 -->
<g id="edge10" class="edge">
<title>Roll&#45;11&#45;&gt;RollOutcome&#45;5</title>
<path fill="none" stroke="MediumVioletRed" stroke-dasharray="5,2" d="M397.62,-297.58C395.48,-286.85 395.11,-273.55 403,-265 418.12,-248.62 482.12,-264.81 503,-257 517.48,-251.58 531.55,-241.93 542.87,-232.69"/>
<polygon fill="MediumVioletRed" stroke="MediumVioletRed" points="545.25,-235.26 550.59,-226.11 540.71,-229.93 545.25,-235.26"/>
<text text-anchor="middle" x="415.5" y="-268.8" font-family="Courier New" font-size="14.00" fill="MediumVioletRed">[0]</text>
</g>
<!-- Roll&#45;11&#45;&gt;ValueRoller&#45;7 -->
<g id="edge9" class="edge">
<title>Roll&#45;11&#45;&gt;ValueRoller&#45;7</title>
<path fill="none" stroke="MediumVioletRed" stroke-dasharray="5,2" d="M380.3,-297.97C376,-295.11 371.45,-292.32 367,-290 318.38,-264.65 259.99,-243.47 215.74,-229.14"/>
<polygon fill="MediumVioletRed" stroke="MediumVioletRed" points="216.54,-225.72 205.95,-226 214.41,-232.39 216.54,-225.72"/>
<text text-anchor="middle" x="349.5" y="-268.8" font-family="Courier New" font-size="14.00" fill="MediumVioletRed">r</text>
</g>
</g>
</svg>
