<?xml version="1.0" encoding="UTF-8" standalone="no"?>
<!DOCTYPE svg PUBLIC "-//W3C//DTD SVG 1.1//EN"
 "http://www.w3.org/Graphics/SVG/1.1/DTD/svg11.dtd">
<!-- Generated by graphviz version 2.49.3 (20211023.0002)
 -->
<!-- Title: classes_dyce_r_light Pages: 1 -->
<svg width="907pt" height="264pt"
 viewBox="0.00 0.00 907.00 264.00" xmlns="http://www.w3.org/2000/svg" xmlns:xlink="http://www.w3.org/1999/xlink">
<g id="graph0" class="graph" transform="scale(1 1) rotate(0) translate(4 260)">
<title>classes_dyce_r_light</title>
<!-- dyce.r.BasicOpRoller -->
<g id="node1" class="node">
<title>dyce.r.BasicOpRoller</title>
<polygon fill="none" stroke="DarkSlateGray" points="698,-146.5 698,-182.5 804,-182.5 804,-146.5 698,-146.5"/>
<text text-anchor="middle" x="751" y="-160.8" font-family="Helvetica,sans-Serif" font-size="14.00" fill="DarkSlateGray">BasicOpRoller</text>
</g>
<!-- dyce.r.R -->
<g id="node2" class="node">
<title>dyce.r.R</title>
<polygon fill="none" stroke="DarkSlateGray" points="347,-219.5 347,-255.5 401,-255.5 401,-219.5 347,-219.5"/>
<text text-anchor="middle" x="374" y="-233.8" font-family="Helvetica,sans-Serif" font-size="14.00" fill="DarkSlateGray">R</text>
</g>
<!-- dyce.r.BasicOpRoller&#45;&gt;dyce.r.R -->
<g id="edge1" class="edge">
<title>dyce.r.BasicOpRoller&#45;&gt;dyce.r.R</title>
<path fill="none" stroke="DarkSlateGray" d="M698,-180.86C694.96,-181.62 691.95,-182.34 689,-183 589.46,-205.43 470.32,-223.25 411.15,-231.5"/>
<polygon fill="none" stroke="DarkSlateGray" points="410.58,-228.05 401.16,-232.89 411.54,-234.98 410.58,-228.05"/>
</g>
<!-- dyce.r.BinarySumOpRoller -->
<g id="node3" class="node">
<title>dyce.r.BinarySumOpRoller</title>
<polygon fill="none" stroke="DarkSlateGray" points="603,-0.5 603,-36.5 743,-36.5 743,-0.5 603,-0.5"/>
<text text-anchor="middle" x="673" y="-14.8" font-family="Helvetica,sans-Serif" font-size="14.00" fill="DarkSlateGray">BinarySumOpRoller</text>
</g>
<!-- dyce.r.NarySumOpRoller -->
<g id="node4" class="node">
<title>dyce.r.NarySumOpRoller</title>
<polygon fill="none" stroke="DarkSlateGray" points="686,-73.5 686,-109.5 816,-109.5 816,-73.5 686,-73.5"/>
<text text-anchor="middle" x="751" y="-87.8" font-family="Helvetica,sans-Serif" font-size="14.00" fill="DarkSlateGray">NarySumOpRoller</text>
</g>
<!-- dyce.r.BinarySumOpRoller&#45;&gt;dyce.r.NarySumOpRoller -->
<g id="edge2" class="edge">
<title>dyce.r.BinarySumOpRoller&#45;&gt;dyce.r.NarySumOpRoller</title>
<path fill="none" stroke="DarkSlateGray" d="M691.88,-36.69C701.75,-45.67 713.98,-56.81 724.76,-66.61"/>
<polygon fill="none" stroke="DarkSlateGray" points="722.54,-69.33 732.29,-73.47 727.25,-64.15 722.54,-69.33"/>
</g>
<!-- dyce.r.NarySumOpRoller&#45;&gt;dyce.r.BasicOpRoller -->
<g id="edge3" class="edge">
<title>dyce.r.NarySumOpRoller&#45;&gt;dyce.r.BasicOpRoller</title>
<path fill="none" stroke="DarkSlateGray" d="M751,-109.69C751,-117.71 751,-127.45 751,-136.43"/>
<polygon fill="none" stroke="DarkSlateGray" points="747.5,-136.47 751,-146.47 754.5,-136.47 747.5,-136.47"/>
</g>
<!-- dyce.r.FilterRoller -->
<g id="node5" class="node">
<title>dyce.r.FilterRoller</title>
<polygon fill="none" stroke="DarkSlateGray" points="0,-146.5 0,-182.5 84,-182.5 84,-146.5 0,-146.5"/>
<text text-anchor="middle" x="42" y="-160.8" font-family="Helvetica,sans-Serif" font-size="14.00" fill="DarkSlateGray">FilterRoller</text>
</g>
<!-- dyce.r.FilterRoller&#45;&gt;dyce.r.R -->
<g id="edge4" class="edge">
<title>dyce.r.FilterRoller&#45;&gt;dyce.r.R</title>
<path fill="none" stroke="DarkSlateGray" d="M84.14,-180.22C87.46,-181.21 90.78,-182.15 94,-183 179.71,-205.5 282.51,-222.7 336.56,-231"/>
<polygon fill="none" stroke="DarkSlateGray" points="336.28,-234.5 346.7,-232.55 337.34,-227.58 336.28,-234.5"/>
</g>
<!-- dyce.r.PoolRoller -->
<g id="node6" class="node">
<title>dyce.r.PoolRoller</title>
<polygon fill="none" stroke="DarkSlateGray" points="102.5,-146.5 102.5,-182.5 183.5,-182.5 183.5,-146.5 102.5,-146.5"/>
<text text-anchor="middle" x="143" y="-160.8" font-family="Helvetica,sans-Serif" font-size="14.00" fill="DarkSlateGray">PoolRoller</text>
</g>
<!-- dyce.r.PoolRoller&#45;&gt;dyce.r.R -->
<g id="edge5" class="edge">
<title>dyce.r.PoolRoller&#45;&gt;dyce.r.R</title>
<path fill="none" stroke="DarkSlateGray" d="M183.6,-179.9C186.78,-180.97 189.94,-182.01 193,-183 242.6,-199 300.43,-215.77 337.12,-226.18"/>
<polygon fill="none" stroke="DarkSlateGray" points="336.31,-229.58 346.89,-228.94 338.22,-222.85 336.31,-229.58"/>
</g>
<!-- dyce.r.RepeatRoller -->
<g id="node7" class="node">
<title>dyce.r.RepeatRoller</title>
<polygon fill="none" stroke="DarkSlateGray" points="202,-146.5 202,-182.5 300,-182.5 300,-146.5 202,-146.5"/>
<text text-anchor="middle" x="251" y="-160.8" font-family="Helvetica,sans-Serif" font-size="14.00" fill="DarkSlateGray">RepeatRoller</text>
</g>
<!-- dyce.r.RepeatRoller&#45;&gt;dyce.r.R -->
<g id="edge6" class="edge">
<title>dyce.r.RepeatRoller&#45;&gt;dyce.r.R</title>
<path fill="none" stroke="DarkSlateGray" d="M280.46,-182.51C297.81,-192.52 319.87,-205.25 338.21,-215.84"/>
<polygon fill="none" stroke="DarkSlateGray" points="336.47,-218.88 346.88,-220.85 339.97,-212.82 336.47,-218.88"/>
</g>
<!-- dyce.r.SelectionRoller -->
<g id="node8" class="node">
<title>dyce.r.SelectionRoller</title>
<polygon fill="none" stroke="DarkSlateGray" points="318.5,-146.5 318.5,-182.5 429.5,-182.5 429.5,-146.5 318.5,-146.5"/>
<text text-anchor="middle" x="374" y="-160.8" font-family="Helvetica,sans-Serif" font-size="14.00" fill="DarkSlateGray">SelectionRoller</text>
</g>
<!-- dyce.r.SelectionRoller&#45;&gt;dyce.r.R -->
<g id="edge7" class="edge">
<title>dyce.r.SelectionRoller&#45;&gt;dyce.r.R</title>
<path fill="none" stroke="DarkSlateGray" d="M374,-182.69C374,-190.71 374,-200.45 374,-209.43"/>
<polygon fill="none" stroke="DarkSlateGray" points="370.5,-209.47 374,-219.47 377.5,-209.47 370.5,-209.47"/>
</g>
<!-- dyce.r.SubstitutionRoller -->
<g id="node9" class="node">
<title>dyce.r.SubstitutionRoller</title>
<polygon fill="none" stroke="DarkSlateGray" points="448,-146.5 448,-182.5 574,-182.5 574,-146.5 448,-146.5"/>
<text text-anchor="middle" x="511" y="-160.8" font-family="Helvetica,sans-Serif" font-size="14.00" fill="DarkSlateGray">SubstitutionRoller</text>
</g>
<!-- dyce.r.SubstitutionRoller&#45;&gt;dyce.r.R -->
<g id="edge8" class="edge">
<title>dyce.r.SubstitutionRoller&#45;&gt;dyce.r.R</title>
<path fill="none" stroke="DarkSlateGray" d="M478.19,-182.51C457.64,-193.16 431.14,-206.89 410.02,-217.84"/>
<polygon fill="none" stroke="DarkSlateGray" points="408.29,-214.79 401.02,-222.49 411.51,-221 408.29,-214.79"/>
</g>
<!-- dyce.r.UnarySumOpRoller -->
<g id="node10" class="node">
<title>dyce.r.UnarySumOpRoller</title>
<polygon fill="none" stroke="DarkSlateGray" points="761,-0.5 761,-36.5 899,-36.5 899,-0.5 761,-0.5"/>
<text text-anchor="middle" x="830" y="-14.8" font-family="Helvetica,sans-Serif" font-size="14.00" fill="DarkSlateGray">UnarySumOpRoller</text>
</g>
<!-- dyce.r.UnarySumOpRoller&#45;&gt;dyce.r.NarySumOpRoller -->
<g id="edge9" class="edge">
<title>dyce.r.UnarySumOpRoller&#45;&gt;dyce.r.NarySumOpRoller</title>
<path fill="none" stroke="DarkSlateGray" d="M810.88,-36.69C800.88,-45.67 788.49,-56.81 777.58,-66.61"/>
<polygon fill="none" stroke="DarkSlateGray" points="775.05,-64.18 769.95,-73.47 779.72,-69.39 775.05,-64.18"/>
</g>
<!-- dyce.r.ValueRoller -->
<g id="node11" class="node">
<title>dyce.r.ValueRoller</title>
<polygon fill="none" stroke="DarkSlateGray" points="592,-146.5 592,-182.5 680,-182.5 680,-146.5 592,-146.5"/>
<text text-anchor="middle" x="636" y="-160.8" font-family="Helvetica,sans-Serif" font-size="14.00" fill="DarkSlateGray">ValueRoller</text>
</g>
<!-- dyce.r.ValueRoller&#45;&gt;dyce.r.R -->
<g id="edge10" class="edge">
<title>dyce.r.ValueRoller&#45;&gt;dyce.r.R</title>
<path fill="none" stroke="DarkSlateGray" d="M591.82,-180.34C588.84,-181.26 585.88,-182.16 583,-183 523.23,-200.5 452.92,-217.84 410.99,-227.84"/>
<polygon fill="none" stroke="DarkSlateGray" points="410.14,-224.45 401.22,-230.16 411.75,-231.26 410.14,-224.45"/>
</g>
</g>
</svg>
