<?xml version="1.0" encoding="UTF-8" standalone="no"?>
<!DOCTYPE svg PUBLIC "-//W3C//DTD SVG 1.1//EN"
 "http://www.w3.org/Graphics/SVG/1.1/DTD/svg11.dtd">
<!-- Generated by graphviz version 2.49.3 (20211023.0002)
 -->
<!-- Pages: 1 -->
<svg width="871pt" height="402pt"
 viewBox="0.00 0.00 871.00 402.00" xmlns="http://www.w3.org/2000/svg" xmlns:xlink="http://www.w3.org/1999/xlink">
<g id="graph0" class="graph" transform="scale(1 1) rotate(0) translate(4 398)">
<g id="clust1" class="cluster">
<title>cluster_rolls</title>
<polygon fill="transparent" stroke="DarkSlateGray" stroke-dasharray="1,5" points="333,-203 333,-386 560,-386 560,-203 333,-203"/>
<text text-anchor="start" x="418" y="-371.8" font-family="Helvetica,sans-Serif" font-style="italic" font-size="14.00" fill="DarkSlateGray">Roll Tree</text>
</g>
<g id="clust2" class="cluster">
<title>cluster_rollers</title>
<polygon fill="transparent" stroke="DarkSlateGray" stroke-dasharray="1,5" points="568,-95 568,-278 855,-278 855,-95 568,-95"/>
<text text-anchor="start" x="677" y="-263.8" font-family="Helvetica,sans-Serif" font-style="italic" font-size="14.00" fill="DarkSlateGray">Roller Tree</text>
</g>
<g id="clust3" class="cluster">
<title>cluster_roll_outcomes</title>
<polygon fill="transparent" stroke="DarkSlateGray" stroke-dasharray="1,5" points="8,-8 8,-170 494,-170 494,-8 8,-8"/>
<text text-anchor="start" x="205" y="-155.8" font-family="Helvetica,sans-Serif" font-style="italic" font-size="14.00" fill="DarkSlateGray">Roll Outcomes</text>
</g>
<!-- Roll&#45;1 -->
<g id="node1" class="node">
<title>Roll&#45;1</title>
<polygon fill="none" stroke="DarkSlateGray" points="395,-355 341,-355 341,-319 395,-319 395,-355"/>
<text text-anchor="start" x="354.5" y="-334.3" font-family="Helvetica,sans-Serif" font-weight="bold" font-size="14.00" fill="DarkSlateGray">Roll</text>
</g>
<!-- SelectionRoller&#45;2 -->
<g id="node2" class="node">
<title>SelectionRoller&#45;2</title>
<polygon fill="none" stroke="DarkSlateGray" points="836,-247 576,-247 576,-211 836,-211 836,-247"/>
<text text-anchor="start" x="655" y="-232.8" font-family="Helvetica,sans-Serif" font-weight="bold" font-size="14.00" fill="DarkSlateGray">SelectionRoller</text>
<text text-anchor="start" x="584" y="-218.8" font-family="Courier New" font-size="14.00" fill="DarkSlateGray">which=(slice(1, None, None),)</text>
</g>
<!-- Roll&#45;1&#45;&gt;SelectionRoller&#45;2 -->
<g id="edge1" class="edge">
<title>Roll&#45;1&#45;&gt;SelectionRoller&#45;2</title>
<path fill="none" stroke="DarkSlateGray" d="M395.02,-332.96C431.35,-328.4 497.65,-318.41 552,-301 592.15,-288.14 635.56,-267.45 666.03,-251.72"/>
<polygon fill="DarkSlateGray" stroke="DarkSlateGray" points="667.81,-254.74 675.05,-247.01 664.57,-248.54 667.81,-254.74"/>
<text text-anchor="middle" x="595.5" y="-289.8" font-family="Courier New" font-size="14.00" fill="DarkSlateGray">r</text>
</g>
<!-- RollOutcome&#45;3 -->
<g id="node3" class="node">
<title>RollOutcome&#45;3</title>
<polygon fill="none" stroke="MediumBlue" stroke-dasharray="5,2" points="242,-139 138,-139 138,-103 242,-103 242,-139"/>
<text text-anchor="start" x="146" y="-124.8" font-family="Helvetica,sans-Serif" font-weight="bold" font-size="14.00" fill="MediumBlue">RollOutcome</text>
<text text-anchor="start" x="160.5" y="-110.8" font-family="Courier New" font-size="14.00" fill="MediumBlue">value=2</text>
</g>
<!-- Roll&#45;1&#45;&gt;RollOutcome&#45;3 -->
<g id="edge2" class="edge">
<title>Roll&#45;1&#45;&gt;RollOutcome&#45;3</title>
<path fill="none" stroke="MediumBlue" stroke-dasharray="5,2" d="M340.92,-331.43C311.06,-324.92 263.84,-310.02 238,-278 207.49,-240.19 196.32,-183.06 192.26,-149.44"/>
<polygon fill="MediumBlue" stroke="MediumBlue" points="195.73,-148.97 191.18,-139.41 188.77,-149.72 195.73,-148.97"/>
<text text-anchor="middle" x="251" y="-225.3" font-family="Courier New" font-size="14.00" fill="MediumBlue">[0]</text>
</g>
<!-- RollOutcome&#45;4 -->
<g id="node4" class="node">
<title>RollOutcome&#45;4</title>
<polygon fill="none" stroke="MediumBlue" stroke-dasharray="5,2" points="364,-139 260,-139 260,-103 364,-103 364,-139"/>
<text text-anchor="start" x="268" y="-124.8" font-family="Helvetica,sans-Serif" font-weight="bold" font-size="14.00" fill="MediumBlue">RollOutcome</text>
<text text-anchor="start" x="282.5" y="-110.8" font-family="Courier New" font-size="14.00" fill="MediumBlue">value=4</text>
</g>
<!-- Roll&#45;1&#45;&gt;RollOutcome&#45;4 -->
<g id="edge3" class="edge">
<title>Roll&#45;1&#45;&gt;RollOutcome&#45;4</title>
<path fill="none" stroke="MediumBlue" stroke-dasharray="5,2" d="M340.78,-326.89C319.34,-318.1 290.99,-302.46 278,-278 255.76,-236.11 278.44,-180.52 295.93,-148.27"/>
<polygon fill="MediumBlue" stroke="MediumBlue" points="299.05,-149.86 300.91,-139.43 292.95,-146.42 299.05,-149.86"/>
<text text-anchor="middle" x="291" y="-225.3" font-family="Courier New" font-size="14.00" fill="MediumBlue">[1]</text>
</g>
<!-- RollOutcome&#45;5 -->
<g id="node5" class="node">
<title>RollOutcome&#45;5</title>
<polygon fill="none" stroke="MediumBlue" stroke-dasharray="5,2" points="486,-139 382,-139 382,-103 486,-103 486,-139"/>
<text text-anchor="start" x="390" y="-124.8" font-family="Helvetica,sans-Serif" font-weight="bold" font-size="14.00" fill="MediumBlue">RollOutcome</text>
<text text-anchor="start" x="404.5" y="-110.8" font-family="Courier New" font-size="14.00" fill="MediumBlue">value=4</text>
</g>
<!-- Roll&#45;1&#45;&gt;RollOutcome&#45;5 -->
<g id="edge4" class="edge">
<title>Roll&#45;1&#45;&gt;RollOutcome&#45;5</title>
<path fill="none" stroke="MediumBlue" stroke-dasharray="5,2" d="M355.03,-318.76C347.56,-307.74 338.91,-292.78 335,-278 326.47,-245.78 324.77,-234.72 335,-203 339.2,-189.97 342.21,-186.43 353,-178 360.54,-172.1 364.71,-174.79 373,-170 384.97,-163.09 397.14,-154.01 407.43,-145.61"/>
<polygon fill="MediumBlue" stroke="MediumBlue" points="409.82,-148.17 415.24,-139.07 405.33,-142.81 409.82,-148.17"/>
<text text-anchor="middle" x="348" y="-225.3" font-family="Courier New" font-size="14.00" fill="MediumBlue">[2]</text>
</g>
<!-- RollOutcome&#45;6 -->
<g id="node6" class="node">
<title>RollOutcome&#45;6</title>
<polygon fill="none" stroke="DarkSlateGray" stroke-dasharray="1,5" points="120,-139 16,-139 16,-103 120,-103 120,-139"/>
<text text-anchor="start" x="24" y="-124.8" font-family="Helvetica,sans-Serif" font-weight="bold" font-size="14.00" fill="DarkSlateGray">RollOutcome</text>
<text text-anchor="start" x="25.5" y="-110.8" font-family="Courier New" font-size="14.00" fill="DarkSlateGray">value=None</text>
</g>
<!-- Roll&#45;1&#45;&gt;RollOutcome&#45;6 -->
<g id="edge5" class="edge">
<title>Roll&#45;1&#45;&gt;RollOutcome&#45;6</title>
<path fill="none" stroke="DarkSlateGray" d="M340.89,-334.03C300.36,-329.84 223.27,-316.99 172,-278 126.72,-243.57 94.8,-183.45 79.1,-148.76"/>
<polygon fill="DarkSlateGray" stroke="DarkSlateGray" points="82.15,-147.02 74.92,-139.28 75.75,-149.84 82.15,-147.02"/>
<text text-anchor="middle" x="185" y="-225.3" font-family="Courier New" font-size="14.00" fill="DarkSlateGray">[3]</text>
</g>
<!-- Roll&#45;7 -->
<g id="node7" class="node">
<title>Roll&#45;7</title>
<polygon fill="none" stroke="MediumBlue" stroke-dasharray="5,2" points="424,-247 370,-247 370,-211 424,-211 424,-247"/>
<text text-anchor="start" x="383.5" y="-226.3" font-family="Helvetica,sans-Serif" font-weight="bold" font-size="14.00" fill="MediumBlue">Roll</text>
</g>
<!-- Roll&#45;1&#45;&gt;Roll&#45;7 -->
<g id="edge12" class="edge">
<title>Roll&#45;1&#45;&gt;Roll&#45;7</title>
<path fill="none" stroke="MediumBlue" stroke-dasharray="5,2" d="M361.44,-318.62C358.7,-308.89 356.81,-296.61 360,-286 363.25,-275.18 369.35,-264.51 375.68,-255.45"/>
<polygon fill="MediumBlue" stroke="MediumBlue" points="378.58,-257.41 381.72,-247.29 372.95,-253.24 378.58,-257.41"/>
<text text-anchor="middle" x="402.5" y="-289.8" font-family="Courier New" font-size="14.00" fill="MediumBlue">sources[0]</text>
</g>
<!-- Roll&#45;9 -->
<g id="node9" class="node">
<title>Roll&#45;9</title>
<polygon fill="none" stroke="MediumVioletRed" stroke-dasharray="5,2" points="549,-247 495,-247 495,-211 549,-211 549,-247"/>
<text text-anchor="start" x="508.5" y="-226.3" font-family="Helvetica,sans-Serif" font-weight="bold" font-size="14.00" fill="MediumVioletRed">Roll</text>
</g>
<!-- Roll&#45;1&#45;&gt;Roll&#45;9 -->
<g id="edge13" class="edge">
<title>Roll&#45;1&#45;&gt;Roll&#45;9</title>
<path fill="none" stroke="MediumVioletRed" stroke-dasharray="5,2" d="M395.11,-326.15C410.39,-320 429.46,-311.31 445,-301 465,-287.73 484.85,-269.27 499.38,-254.5"/>
<polygon fill="MediumVioletRed" stroke="MediumVioletRed" points="502.04,-256.78 506.47,-247.16 497,-251.92 502.04,-256.78"/>
<text text-anchor="middle" x="505.5" y="-289.8" font-family="Courier New" font-size="14.00" fill="MediumVioletRed">sources[1]</text>
</g>
<!-- ValueRoller&#45;8 -->
<g id="node8" class="node">
<title>ValueRoller&#45;8</title>
<polygon fill="none" stroke="MediumBlue" stroke-dasharray="5,2" points="727.5,-139 576.5,-139 576.5,-103 727.5,-103 727.5,-139"/>
<text text-anchor="start" x="613.5" y="-124.8" font-family="Helvetica,sans-Serif" font-weight="bold" font-size="14.00" fill="MediumBlue">ValueRoller</text>
<text text-anchor="start" x="584.5" y="-110.8" font-family="Courier New" font-size="14.00" fill="MediumBlue">value=P(6, 6, 6)</text>
</g>
<!-- SelectionRoller&#45;2&#45;&gt;ValueRoller&#45;8 -->
<g id="edge14" class="edge">
<title>SelectionRoller&#45;2&#45;&gt;ValueRoller&#45;8</title>
<path fill="none" stroke="MediumBlue" stroke-dasharray="5,2" d="M670.68,-210.97C664.03,-206.11 657.94,-200.15 654,-193 646.75,-179.83 645.95,-163.1 647.1,-149.19"/>
<polygon fill="MediumBlue" stroke="MediumBlue" points="650.59,-149.55 648.29,-139.21 643.63,-148.72 650.59,-149.55"/>
<text text-anchor="middle" x="696.5" y="-181.8" font-family="Courier New" font-size="14.00" fill="MediumBlue">sources[0]</text>
</g>
<!-- ValueRoller&#45;10 -->
<g id="node10" class="node">
<title>ValueRoller&#45;10</title>
<polygon fill="none" stroke="MediumVioletRed" stroke-dasharray="5,2" points="846.5,-139 745.5,-139 745.5,-103 846.5,-103 846.5,-139"/>
<text text-anchor="start" x="757.5" y="-124.8" font-family="Helvetica,sans-Serif" font-weight="bold" font-size="14.00" fill="MediumVioletRed">ValueRoller</text>
<text text-anchor="start" x="753.5" y="-110.8" font-family="Courier New" font-size="14.00" fill="MediumVioletRed">value=H(8)</text>
</g>
<!-- SelectionRoller&#45;2&#45;&gt;ValueRoller&#45;10 -->
<g id="edge15" class="edge">
<title>SelectionRoller&#45;2&#45;&gt;ValueRoller&#45;10</title>
<path fill="none" stroke="MediumVioletRed" stroke-dasharray="5,2" d="M722.73,-210.81C728.03,-205.21 733.85,-198.92 739,-193 751.89,-178.19 765.69,-161.03 776.49,-147.3"/>
<polygon fill="MediumVioletRed" stroke="MediumVioletRed" points="779.38,-149.27 782.78,-139.24 773.87,-144.96 779.38,-149.27"/>
<text text-anchor="middle" x="792.5" y="-181.8" font-family="Courier New" font-size="14.00" fill="MediumVioletRed">sources[1]</text>
</g>
<!-- RollOutcome&#45;11 -->
<g id="node11" class="node">
<title>RollOutcome&#45;11</title>
<polygon fill="none" stroke="MediumVioletRed" stroke-dasharray="5,2" points="394,-52 290,-52 290,-16 394,-16 394,-52"/>
<text text-anchor="start" x="298" y="-37.8" font-family="Helvetica,sans-Serif" font-weight="bold" font-size="14.00" fill="MediumVioletRed">RollOutcome</text>
<text text-anchor="start" x="312.5" y="-23.8" font-family="Courier New" font-size="14.00" fill="MediumVioletRed">value=1</text>
</g>
<!-- RollOutcome&#45;6&#45;&gt;RollOutcome&#45;11 -->
<g id="edge16" class="edge">
<title>RollOutcome&#45;6&#45;&gt;RollOutcome&#45;11</title>
<path fill="none" stroke="MediumVioletRed" stroke-dasharray="5,2" d="M107.78,-102.93C114.8,-100.14 122.07,-97.39 129,-95 179.21,-77.7 237.3,-61.59 280.12,-50.43"/>
<polygon fill="MediumVioletRed" stroke="MediumVioletRed" points="281.04,-53.81 289.84,-47.91 279.28,-47.03 281.04,-53.81"/>
<text text-anchor="middle" x="246.5" y="-73.8" font-family="Courier New" font-size="14.00" fill="MediumVioletRed">sources[0]</text>
</g>
<!-- Roll&#45;7&#45;&gt;RollOutcome&#45;3 -->
<g id="edge7" class="edge">
<title>Roll&#45;7&#45;&gt;RollOutcome&#45;3</title>
<path fill="none" stroke="MediumBlue" stroke-dasharray="5,2" d="M371.05,-210.89C366.16,-208.04 361.01,-205.27 356,-203 333.73,-192.89 272.63,-181.42 251,-170 238.59,-163.45 226.18,-154.28 215.82,-145.71"/>
<polygon fill="MediumBlue" stroke="MediumBlue" points="217.88,-142.86 208,-139.03 213.33,-148.19 217.88,-142.86"/>
<text text-anchor="middle" x="338" y="-181.8" font-family="Courier New" font-size="14.00" fill="MediumBlue">[0]</text>
</g>
<!-- Roll&#45;7&#45;&gt;RollOutcome&#45;4 -->
<g id="edge8" class="edge">
<title>Roll&#45;7&#45;&gt;RollOutcome&#45;4</title>
<path fill="none" stroke="MediumBlue" stroke-dasharray="5,2" d="M383.34,-210.97C369.55,-193.76 348.07,-166.98 332.28,-147.29"/>
<polygon fill="MediumBlue" stroke="MediumBlue" points="334.89,-144.95 325.91,-139.34 329.43,-149.33 334.89,-144.95"/>
<text text-anchor="middle" x="380" y="-181.8" font-family="Courier New" font-size="14.00" fill="MediumBlue">[1]</text>
</g>
<!-- Roll&#45;7&#45;&gt;RollOutcome&#45;5 -->
<g id="edge9" class="edge">
<title>Roll&#45;7&#45;&gt;RollOutcome&#45;5</title>
<path fill="none" stroke="MediumBlue" stroke-dasharray="5,2" d="M402.94,-210.97C408.79,-194.22 417.8,-168.41 424.61,-148.89"/>
<polygon fill="MediumBlue" stroke="MediumBlue" points="427.96,-149.94 427.95,-139.34 421.35,-147.63 427.96,-149.94"/>
<text text-anchor="middle" x="427" y="-181.8" font-family="Courier New" font-size="14.00" fill="MediumBlue">[2]</text>
</g>
<!-- Roll&#45;7&#45;&gt;ValueRoller&#45;8 -->
<g id="edge6" class="edge">
<title>Roll&#45;7&#45;&gt;ValueRoller&#45;8</title>
<path fill="none" stroke="MediumBlue" stroke-dasharray="5,2" d="M424.17,-218.66C455.35,-207.76 507.86,-188.81 552,-170 570.83,-161.97 591.27,-152.34 608.73,-143.81"/>
<polygon fill="MediumBlue" stroke="MediumBlue" points="610.67,-146.76 618.1,-139.2 607.58,-140.48 610.67,-146.76"/>
<text text-anchor="middle" x="535.5" y="-181.8" font-family="Courier New" font-size="14.00" fill="MediumBlue">r</text>
</g>
<!-- Roll&#45;9&#45;&gt;ValueRoller&#45;10 -->
<g id="edge10" class="edge">
<title>Roll&#45;9&#45;&gt;ValueRoller&#45;10</title>
<path fill="none" stroke="MediumVioletRed" stroke-dasharray="5,2" d="M549.14,-210.79C554,-208.02 559.08,-205.3 564,-203 594.3,-188.82 602.27,-184.92 635,-178 679.49,-168.59 694.78,-186.89 737,-170 750.16,-164.74 762.65,-155.45 772.72,-146.44"/>
<polygon fill="MediumVioletRed" stroke="MediumVioletRed" points="775.37,-148.76 780.25,-139.36 770.57,-143.66 775.37,-148.76"/>
<text text-anchor="middle" x="639.5" y="-181.8" font-family="Courier New" font-size="14.00" fill="MediumVioletRed">r</text>
</g>
<!-- Roll&#45;9&#45;&gt;RollOutcome&#45;11 -->
<g id="edge11" class="edge">
<title>Roll&#45;9&#45;&gt;RollOutcome&#45;11</title>
<path fill="none" stroke="MediumVioletRed" stroke-dasharray="5,2" d="M523.39,-210.69C524.65,-182.97 523.04,-128.38 495,-95 472.31,-67.99 435.86,-53.08 404.22,-44.87"/>
<polygon fill="MediumVioletRed" stroke="MediumVioletRed" points="404.69,-41.39 394.15,-42.44 403.05,-48.19 404.69,-41.39"/>
<text text-anchor="middle" x="535" y="-117.3" font-family="Courier New" font-size="14.00" fill="MediumVioletRed">[0]</text>
</g>
</g>
</svg>
