<?xml version="1.0" encoding="UTF-8" standalone="no"?>
<!-- Created with Inkscape (http://www.inkscape.org/) -->

<svg
   xmlns:dc="http://purl.org/dc/elements/1.1/"
   xmlns:cc="http://creativecommons.org/ns#"
   xmlns:rdf="http://www.w3.org/1999/02/22-rdf-syntax-ns#"
   xmlns:svg="http://www.w3.org/2000/svg"
   xmlns="http://www.w3.org/2000/svg"
   xmlns:sodipodi="http://sodipodi.sourceforge.net/DTD/sodipodi-0.dtd"
   xmlns:inkscape="http://www.inkscape.org/namespaces/inkscape"
   version="1.1"
   id="svg4537"
   xml:space="preserve"
   width="190.00444"
   height="292.35248"
   viewBox="0 0 190.00444 292.35248"
   sodipodi:docname="dyce.svg"
   inkscape:version="0.92.5 (2060ec1f9f, 2020-04-08)"><metadata
     id="metadata4543"><rdf:RDF><cc:Work
         rdf:about=""><dc:format>image/svg+xml</dc:format><dc:type
           rdf:resource="http://purl.org/dc/dcmitype/StillImage" /><dc:title></dc:title></cc:Work></rdf:RDF></metadata><defs
     id="defs4541" /><sodipodi:namedview
     pagecolor="#ffffff"
     bordercolor="#666666"
     borderopacity="1"
     objecttolerance="10"
     gridtolerance="10"
     guidetolerance="10"
     inkscape:pageopacity="0"
     inkscape:pageshadow="2"
     inkscape:window-width="1280"
     inkscape:window-height="755"
     id="namedview4539"
     showgrid="false"
     inkscape:snap-text-baseline="false"
     inkscape:zoom="0.55492424"
     inkscape:cx="94.337811"
     inkscape:cy="132.99996"
     inkscape:window-x="0"
     inkscape:window-y="1"
     inkscape:window-maximized="1"
     inkscape:current-layer="g4545"
     inkscape:pagecheckerboard="false" /><g
     id="g4545"
     inkscape:groupmode="layer"
     inkscape:label="dyce"
     transform="matrix(1.3333333,0,0,-1.3333333,-313.66219,687.35251)"><g
       id="g4547" /><path
       d="M 300.6283,443.5379 254.6557,411.2673 313.5,395.5 l 43.077,43.077 z"
       style="fill:#00ffff;fill-opacity:0.5;fill-rule:evenodd;stroke:none"
       id="path4557"
       inkscape:connector-curvature="0" /><path
       d="M 254.6557,411.2673 278.3338,360.3338 329.2673,336.6557 313.5,395.5 Z"
       style="fill:#01ff00;fill-opacity:0.5;fill-rule:evenodd;stroke:none"
       id="path4559"
       inkscape:connector-curvature="0" /><path
       d="M 356.577,438.577 313.5,395.5 l 15.7673,-58.8443 32.2706,45.9726 z"
       style="fill:#ffff00;fill-opacity:0.5;fill-rule:evenodd;stroke:none"
       id="path4561"
       inkscape:connector-curvature="0" /><g
       id="g4563"
       transform="matrix(1,0,0,-1,-320,1108)"><path
         d="m 696.1042,760.538 c 0,27.4665 -22.266,49.7325 -49.7325,49.7325 -27.4665,0 -49.7325,-22.266 -49.7325,-49.7325 0,-27.4666 22.266,-49.7326 49.7325,-49.7326 27.4665,0 49.7325,22.266 49.7325,49.7326 z"
         style="fill:none;stroke:#a0a0a0;stroke-width:0.5;stroke-linecap:round;stroke-linejoin:bevel;stroke-miterlimit:10;stroke-dasharray:0.5, 3;stroke-dashoffset:0;stroke-opacity:1"
         id="path4565"
         inkscape:connector-curvature="0" /></g><g
       id="g4567"
       transform="matrix(1,0,0,-1,-320,1108)"><path
         d="m 678.6529,653.6557 c 0,33.6453 -27.2749,60.9201 -60.9202,60.9201 -33.6452,0 -60.9201,-27.2748 -60.9201,-60.9201 0,-33.6453 27.2749,-60.9201 60.9201,-60.9201 33.6453,0 60.9202,27.2748 60.9202,60.9201 z"
         style="fill:none;stroke:#a0a0a0;stroke-width:0.5;stroke-linecap:round;stroke-linejoin:bevel;stroke-miterlimit:10;stroke-dasharray:0.5, 3;stroke-dashoffset:0;stroke-opacity:1"
         id="path4569"
         inkscape:connector-curvature="0" /></g><g
       id="g4571"
       transform="matrix(1,0,0,-1,-320,1108)"><path
         d="m 683.2325,712.5 c 0,27.4665 -22.266,49.7325 -49.7325,49.7325 -27.4665,0 -49.7325,-22.266 -49.7325,-49.7325 0,-27.4665 22.266,-49.7325 49.7325,-49.7325 27.4665,0 49.7325,22.266 49.7325,49.7325 z"
         style="fill:none;stroke:#a0a0a0;stroke-width:0.5;stroke-linecap:round;stroke-linejoin:bevel;stroke-miterlimit:10;stroke-dasharray:0.5, 3;stroke-dashoffset:0;stroke-opacity:1"
         id="path4573"
         inkscape:connector-curvature="0" /></g><g
       id="g4575"
       transform="matrix(1,0,0,-1,-320,1108)"><path
         d="m 694.4201,712.5 c 0,33.6453 -27.2748,60.9201 -60.9201,60.9201 -33.6453,0 -60.9201,-27.2748 -60.9201,-60.9201 0,-33.6453 27.2748,-60.9201 60.9201,-60.9201 33.6453,0 60.9201,27.2748 60.9201,60.9201 z"
         style="fill:none;stroke:#a0a0a0;stroke-width:0.5;stroke-linecap:round;stroke-linejoin:bevel;stroke-miterlimit:10;stroke-dasharray:0.5, 3;stroke-dashoffset:0;stroke-opacity:1"
         id="path4577"
         inkscape:connector-curvature="0" /></g><g
       id="g4579"
       transform="matrix(1,0,0,-1,-320,1108)"><path
         d="M 617.7327,653.6557 660.027,811.5"
         style="fill:none;stroke:#a0a0a0;stroke-width:0.5;stroke-linecap:round;stroke-linejoin:bevel;stroke-miterlimit:10;stroke-dasharray:0.5, 3;stroke-dashoffset:0;stroke-opacity:1"
         id="path4581"
         inkscape:connector-curvature="0" /></g><g
       id="g4583"
       transform="matrix(1,0,0,-1,-320,1108)"><path
         d="m 656.8474,806.7399 3.6526,4.7601 0.7832,-5.9487 -1.9479,1.602 z"
         style="fill:#a0a0a0;fill-opacity:1;fill-rule:nonzero;stroke:#a0a0a0;stroke-width:0.5;stroke-linecap:round;stroke-linejoin:round;stroke-miterlimit:10;stroke-dasharray:none;stroke-opacity:1"
         id="path4585"
         inkscape:connector-curvature="0" /></g><g
       id="g4587"
       transform="matrix(1,0,0,-1,-320,1108)"><path
         d="M 655.0385,690.9615 555.5,672.9878"
         style="fill:none;stroke:#a0a0a0;stroke-width:0.5;stroke-linecap:round;stroke-linejoin:bevel;stroke-miterlimit:10;stroke-dasharray:0.5, 3;stroke-dashoffset:0;stroke-opacity:1"
         id="path4589"
         inkscape:connector-curvature="0" /></g><g
       id="g4591"
       transform="matrix(1,0,0,-1,-320,1108)"><path
         d="M 561.3631,671.2255 555.5,672.5 l 5.047,3.2446 -0.6186,-2.445 z"
         style="fill:#a0a0a0;fill-opacity:1;fill-rule:nonzero;stroke:#a0a0a0;stroke-width:0.5;stroke-linecap:round;stroke-linejoin:round;stroke-miterlimit:10;stroke-dasharray:none;stroke-opacity:1"
         id="path4593"
         inkscape:connector-curvature="0" /></g><g
       id="g4595"
       transform="matrix(1,0,0,-1,-320,1108)"><path
         d="M 604.0778,704.6163 697.5,625.5689"
         style="fill:none;stroke:#a0a0a0;stroke-width:0.5;stroke-linecap:round;stroke-linejoin:bevel;stroke-miterlimit:10;stroke-dasharray:0.5, 3;stroke-dashoffset:0;stroke-opacity:1"
         id="path4597"
         inkscape:connector-curvature="0" /></g><g
       id="g4599"
       transform="matrix(1,0,0,-1,-320,1108)"><path
         d="M 694.7514,630.8334 697.5,625.5 l -5.7148,1.8278 2.2795,1.0789 z"
         style="fill:#a0a0a0;fill-opacity:1;fill-rule:nonzero;stroke:#a0a0a0;stroke-width:0.5;stroke-linecap:round;stroke-linejoin:round;stroke-miterlimit:10;stroke-dasharray:none;stroke-opacity:1"
         id="path4601"
         inkscape:connector-curvature="0" /></g><g
       id="g4603"
       transform="matrix(1,0,0,-1,-320,1108)"><path
         d="M 641.3837,741.9222 697.5,675.6011"
         style="fill:none;stroke:#a0a0a0;stroke-width:0.5;stroke-linecap:round;stroke-linejoin:bevel;stroke-miterlimit:10;stroke-dasharray:0.5, 3;stroke-dashoffset:0;stroke-opacity:1"
         id="path4605"
         inkscape:connector-curvature="0" /></g><g
       id="g4607"
       transform="matrix(1,0,0,-1,-320,1108)"><path
         d="M 695.6722,681.2148 697.5,675.5 l -5.3334,2.7486 2.4267,0.6867 z"
         style="fill:#a0a0a0;fill-opacity:1;fill-rule:nonzero;stroke:#a0a0a0;stroke-width:0.5;stroke-linecap:round;stroke-linejoin:round;stroke-miterlimit:10;stroke-dasharray:none;stroke-opacity:1"
         id="path4609"
         inkscape:connector-curvature="0" /></g><g
       id="g4611"
       transform="matrix(1,0,0,-1,-320,1108)"><path
         d="M 655.0385,690.9615 676.8042,811.5"
         style="fill:none;stroke:#a0a0a0;stroke-width:0.5;stroke-linecap:round;stroke-linejoin:bevel;stroke-miterlimit:10;stroke-dasharray:0.5, 3;stroke-dashoffset:0;stroke-opacity:1"
         id="path4613"
         inkscape:connector-curvature="0" /></g><g
       id="g4615"
       transform="matrix(1,0,0,-1,-320,1108)"><path
         d="m 673.2554,806.453 3.2446,5.047 1.2745,-5.8631 -2.0741,1.4347 z"
         style="fill:#a0a0a0;fill-opacity:1;fill-rule:nonzero;stroke:#a0a0a0;stroke-width:0.5;stroke-linecap:round;stroke-linejoin:round;stroke-miterlimit:10;stroke-dasharray:none;stroke-opacity:1"
         id="path4617"
         inkscape:connector-curvature="0" /></g><g
       id="g4619"
       transform="matrix(1,0,0,-1,-320,1108)"><path
         d="M 604.0778,704.6163 642.4833,811.5"
         style="fill:none;stroke:#a0a0a0;stroke-width:0.5;stroke-linecap:round;stroke-linejoin:bevel;stroke-miterlimit:10;stroke-dasharray:0.5, 3;stroke-dashoffset:0;stroke-opacity:1"
         id="path4621"
         inkscape:connector-curvature="0" /></g><g
       id="g4623"
       transform="matrix(1,0,0,-1,-320,1108)"><path
         d="m 638.4647,807.0597 4.0353,4.4403 0.2864,-5.9932 -1.8081,1.7583 z"
         style="fill:#a0a0a0;fill-opacity:1;fill-rule:nonzero;stroke:#a0a0a0;stroke-width:0.5;stroke-linecap:round;stroke-linejoin:round;stroke-miterlimit:10;stroke-dasharray:none;stroke-opacity:1"
         id="path4625"
         inkscape:connector-curvature="0" /></g><g
       id="g4627"
       transform="matrix(1,0,0,-1,-320,1108)"><path
         d="M 641.3837,741.9222 555.5,711.0624"
         style="fill:none;stroke:#a0a0a0;stroke-width:0.5;stroke-linecap:round;stroke-linejoin:bevel;stroke-miterlimit:10;stroke-dasharray:0.5, 3;stroke-dashoffset:0;stroke-opacity:1"
         id="path4629"
         inkscape:connector-curvature="0" /></g><g
       id="g4631"
       transform="matrix(1,0,0,-1,-320,1108)"><path
         d="M 561.4932,711.2136 555.5,711.5 l 4.4403,4.0353 -0.2054,-2.5136 z"
         style="fill:#a0a0a0;fill-opacity:1;fill-rule:nonzero;stroke:#a0a0a0;stroke-width:0.5;stroke-linecap:round;stroke-linejoin:round;stroke-miterlimit:10;stroke-dasharray:none;stroke-opacity:1"
         id="path4633"
         inkscape:connector-curvature="0" /></g><g
       id="g4635"
       transform="matrix(1,0,0,-1,-320,1108)"><path
         d="m 676.577,669.423 -55.9487,-4.961"
         style="fill:none;stroke:#a0a0a0;stroke-width:3;stroke-linecap:round;stroke-linejoin:bevel;stroke-miterlimit:10;stroke-dasharray:none;stroke-opacity:1"
         id="path4637"
         inkscape:connector-curvature="0" /></g><g
       id="g4639"
       transform="matrix(1,0,0,-1,-320,1108)"><path
         d="m 620.6283,664.462 -45.9726,32.2707"
         style="fill:none;stroke:#a0a0a0;stroke-width:3;stroke-linecap:round;stroke-linejoin:bevel;stroke-miterlimit:10;stroke-dasharray:none;stroke-opacity:1"
         id="path4641"
         inkscape:connector-curvature="0" /></g><g
       id="g4643"
       transform="matrix(1,0,0,-1,-320,1108)"><path
         d="M 574.6557,696.7327 633.5,712.5"
         style="fill:none;stroke:#a0a0a0;stroke-width:3;stroke-linecap:round;stroke-linejoin:bevel;stroke-miterlimit:10;stroke-dasharray:none;stroke-opacity:1"
         id="path4645"
         inkscape:connector-curvature="0" /></g><g
       id="g4647"
       transform="matrix(1,0,0,-1,-320,1108)"><path
         d="M 649.2673,771.3443 633.5,712.5"
         style="fill:none;stroke:#a0a0a0;stroke-width:3;stroke-linecap:round;stroke-linejoin:bevel;stroke-miterlimit:10;stroke-dasharray:none;stroke-opacity:1"
         id="path4649"
         inkscape:connector-curvature="0" /></g><g
       id="g4651"
       transform="matrix(1,0,0,-1,-320,1108)"><path
         d="M 676.577,669.423 633.5,712.5"
         style="fill:none;stroke:#a0a0a0;stroke-width:3;stroke-linecap:round;stroke-linejoin:bevel;stroke-miterlimit:10;stroke-dasharray:none;stroke-opacity:1"
         id="path4653"
         inkscape:connector-curvature="0" /></g><g
       id="g4655"
       transform="matrix(1,0,0,-1,-320,1108)"><path
         d="M 681.538,725.3717 676.577,669.423"
         style="fill:none;stroke:#a0a0a0;stroke-width:3;stroke-linecap:round;stroke-linejoin:bevel;stroke-miterlimit:10;stroke-dasharray:none;stroke-opacity:1"
         id="path4657"
         inkscape:connector-curvature="0" /></g><g
       id="g4659"
       transform="matrix(1,0,0,-1,-320,1108)"><path
         d="M 649.2673,771.3443 681.538,725.3717"
         style="fill:none;stroke:#a0a0a0;stroke-width:3;stroke-linecap:round;stroke-linejoin:bevel;stroke-miterlimit:10;stroke-dasharray:none;stroke-opacity:1"
         id="path4661"
         inkscape:connector-curvature="0" /></g><g
       id="g4663"
       transform="matrix(1,0,0,-1,-320,1108)"><path
         d="m 598.3338,747.6662 50.9335,23.6781"
         style="fill:none;stroke:#a0a0a0;stroke-width:3;stroke-linecap:round;stroke-linejoin:bevel;stroke-miterlimit:10;stroke-dasharray:none;stroke-opacity:1"
         id="path4665"
         inkscape:connector-curvature="0" /></g><g
       id="g4667"
       transform="matrix(1,0,0,-1,-320,1108)"><path
         d="m 574.6557,696.7327 23.6781,50.9335"
         style="fill:none;stroke:#a0a0a0;stroke-width:3;stroke-linecap:round;stroke-linejoin:bevel;stroke-miterlimit:10;stroke-dasharray:none;stroke-opacity:1"
         id="path4669"
         inkscape:connector-curvature="0" /></g><path
       d="m 267.9948,385.8005 c 0,-0.8284 -0.6716,-1.5 -1.5,-1.5 -0.8285,0 -1.5,0.6716 -1.5,1.5 0,0.8285 0.6715,1.5 1.5,1.5 0.8284,0 1.5,-0.6715 1.5,-1.5 z"
       style="fill:#a0a0a0;fill-opacity:1;fill-rule:nonzero;stroke:none"
       id="path4671"
       inkscape:connector-curvature="0" /><path
       d="m 305.3005,348.4948 c 0,-0.8285 -0.6715,-1.5 -1.5,-1.5 -0.8284,0 -1.5,0.6715 -1.5,1.5 0,0.8284 0.6716,1.5 1.5,1.5 0.8285,0 1.5,-0.6716 1.5,-1.5 z"
       style="fill:#a0a0a0;fill-opacity:1;fill-rule:nonzero;stroke:none"
       id="path4673"
       inkscape:connector-curvature="0" /><path
       d="m 279.8338,360.3338 c 0,-0.8284 -0.6716,-1.5 -1.5,-1.5 -0.8284,0 -1.5,0.6716 -1.5,1.5 0,0.8284 0.6716,1.5 1.5,1.5 0.8284,0 1.5,-0.6716 1.5,-1.5 z"
       style="fill:#a0a0a0;fill-opacity:1;fill-rule:nonzero;stroke:none"
       id="path4675"
       inkscape:connector-curvature="0" /><path
       d="m 346.9026,359.642 c 0,-0.8285 -0.6715,-1.5 -1.5,-1.5 -0.8284,0 -1.5,0.6715 -1.5,1.5 0,0.8284 0.6716,1.5 1.5,1.5 0.8285,0 1.5,-0.6716 1.5,-1.5 z"
       style="fill:#a0a0a0;fill-opacity:1;fill-rule:nonzero;stroke:none"
       id="path4677"
       inkscape:connector-curvature="0" /><path
       d="m 360.5575,410.6027 c 0,-0.8285 -0.6716,-1.5 -1.5,-1.5 -0.8284,0 -1.5,0.6715 -1.5,1.5 0,0.8284 0.6716,1.5 1.5,1.5 0.8284,0 1.5,-0.6716 1.5,-1.5 z"
       style="fill:#a0a0a0;fill-opacity:1;fill-rule:nonzero;stroke:none"
       id="path4679"
       inkscape:connector-curvature="0" /><path
       d="m 363.038,382.6283 c 0,-0.8284 -0.6716,-1.5 -1.5,-1.5 -0.8285,0 -1.5,0.6716 -1.5,1.5 0,0.8284 0.6715,1.5 1.5,1.5 0.8284,0 1.5,-0.6716 1.5,-1.5 z"
       style="fill:#a0a0a0;fill-opacity:1;fill-rule:nonzero;stroke:none"
       id="path4681"
       inkscape:connector-curvature="0" /><path
       d="m 327.8717,347.462 c 0,-0.8284 -0.6716,-1.5 -1.5,-1.5 -0.8284,0 -1.5,0.6716 -1.5,1.5 0,0.8285 0.6716,1.5 1.5,1.5 0.8284,0 1.5,-0.6715 1.5,-1.5 z"
       style="fill:#a0a0a0;fill-opacity:1;fill-rule:nonzero;stroke:none"
       id="path4683"
       inkscape:connector-curvature="0" /><path
       d="m 322.8837,366.0778 c 0,-0.8284 -0.6716,-1.5 -1.5,-1.5 -0.8285,0 -1.5,0.6716 -1.5,1.5 0,0.8284 0.6715,1.5 1.5,1.5 0.8284,0 1.5,-0.6716 1.5,-1.5 z"
       style="fill:#a0a0a0;fill-opacity:1;fill-rule:nonzero;stroke:none"
       id="path4685"
       inkscape:connector-curvature="0" /><path
       d="m 330.1027,441.0575 c 0,-0.8284 -0.6716,-1.5 -1.5,-1.5 -0.8285,0 -1.5,0.6716 -1.5,1.5 0,0.8284 0.6715,1.5 1.5,1.5 0.8284,0 1.5,-0.6716 1.5,-1.5 z"
       style="fill:#a0a0a0;fill-opacity:1;fill-rule:nonzero;stroke:none"
       id="path4687"
       inkscape:connector-curvature="0" /><path
       d="m 285.5778,403.3837 c 0,-0.8285 -0.6716,-1.5 -1.5,-1.5 -0.8284,0 -1.5,0.6715 -1.5,1.5 0,0.8284 0.6716,1.5 1.5,1.5 0.8284,0 1.5,-0.6716 1.5,-1.5 z"
       style="fill:#a0a0a0;fill-opacity:1;fill-rule:nonzero;stroke:none"
       id="path4689"
       inkscape:connector-curvature="0" /><path
       d="m 336.5385,417.0385 c 0,-0.8284 -0.6716,-1.5 -1.5,-1.5 -0.8284,0 -1.5,0.6716 -1.5,1.5 0,0.8284 0.6716,1.5 1.5,1.5 0.8284,0 1.5,-0.6716 1.5,-1.5 z"
       style="fill:#a0a0a0;fill-opacity:1;fill-rule:nonzero;stroke:none"
       id="path4691"
       inkscape:connector-curvature="0" /><path
       d="m 279.142,427.4026 c 0,-0.8284 -0.6716,-1.5 -1.5,-1.5 -0.8285,0 -1.5,0.6716 -1.5,1.5 0,0.8285 0.6715,1.5 1.5,1.5 0.8284,0 1.5,-0.6715 1.5,-1.5 z"
       style="fill:#a0a0a0;fill-opacity:1;fill-rule:nonzero;stroke:none"
       id="path4693"
       inkscape:connector-curvature="0" /><path
       d="m 358.077,438.577 c 0,-0.8284 -0.6715,-1.5 -1.5,-1.5 -0.8284,0 -1.5,0.6716 -1.5,1.5 0,0.8285 0.6716,1.5 1.5,1.5 0.8285,0 1.5,-0.6715 1.5,-1.5 z"
       style="fill:#a0a0a0;fill-opacity:1;fill-rule:nonzero;stroke:none"
       id="path4695"
       inkscape:connector-curvature="0" /><path
       d="m 330.7673,336.6557 c 0,-0.8284 -0.6716,-1.5 -1.5,-1.5 -0.8285,0 -1.5,0.6716 -1.5,1.5 0,0.8284 0.6715,1.5 1.5,1.5 0.8284,0 1.5,-0.6716 1.5,-1.5 z"
       style="fill:#a0a0a0;fill-opacity:1;fill-rule:nonzero;stroke:none"
       id="path4697"
       inkscape:connector-curvature="0" /><path
       d="m 256.1557,411.2673 c 0,-0.8285 -0.6716,-1.5 -1.5,-1.5 -0.8284,0 -1.5,0.6715 -1.5,1.5 0,0.8284 0.6716,1.5 1.5,1.5 0.8284,0 1.5,-0.6716 1.5,-1.5 z"
       style="fill:#a0a0a0;fill-opacity:1;fill-rule:nonzero;stroke:none"
       id="path4699"
       inkscape:connector-curvature="0" /><path
       d="m 315,395.5 c 0,-0.8284 -0.6716,-1.5 -1.5,-1.5 -0.8284,0 -1.5,0.6716 -1.5,1.5 0,0.8284 0.6716,1.5 1.5,1.5 0.8284,0 1.5,-0.6716 1.5,-1.5 z"
       style="fill:#a0a0a0;fill-opacity:1;fill-rule:nonzero;stroke:none"
       id="path4701"
       inkscape:connector-curvature="0" /><path
       d="m 299.2327,454.3443 c 0,-0.8284 -0.6715,-1.5 -1.5,-1.5 -0.8284,0 -1.5,0.6716 -1.5,1.5 0,0.8284 0.6716,1.5 1.5,1.5 0.8285,0 1.5,-0.6716 1.5,-1.5 z"
       style="fill:#a0a0a0;fill-opacity:1;fill-rule:nonzero;stroke:none"
       id="path4703"
       inkscape:connector-curvature="0" /><path
       d="m 302.1283,443.538 c 0,-0.8285 -0.6716,-1.5 -1.5,-1.5 -0.8284,0 -1.5,0.6715 -1.5,1.5 0,0.8284 0.6716,1.5 1.5,1.5 0.8284,0 1.5,-0.6716 1.5,-1.5 z"
       style="fill:#a0a0a0;fill-opacity:1;fill-rule:nonzero;stroke:none"
       id="path4705"
       inkscape:connector-curvature="0" /><text
       xml:space="preserve"
       style="font-style:normal;font-variant:normal;font-weight:normal;font-stretch:normal;font-size:48px;line-height:18.75px;font-family:'SF Compact Rounded';-inkscape-font-specification:'SF Compact Rounded, Normal';font-variant-ligatures:normal;font-variant-caps:normal;font-variant-numeric:normal;font-feature-settings:normal;text-align:center;letter-spacing:0px;word-spacing:0px;writing-mode:lr-tb;text-anchor:middle;fill:#a0a0a0;fill-opacity:1;stroke:none;stroke-width:0.75px;stroke-linecap:butt;stroke-linejoin:miter;stroke-opacity:1"
       x="297.69119"
       y="-464.01599"
       id="text4709"
       transform="scale(1,-1)"><tspan
         sodipodi:role="line"
         id="tspan4707"
         x="297.69119"
         y="-464.01599"
         style="font-style:normal;font-variant:normal;font-weight:normal;font-stretch:normal;font-size:48px;font-family:'SF Compact Rounded';-inkscape-font-specification:'SF Compact Rounded, Normal';font-variant-ligatures:normal;font-variant-caps:normal;font-variant-numeric:normal;font-feature-settings:normal;text-align:center;writing-mode:lr-tb;text-anchor:middle;fill:#a0a0a0;fill-opacity:1;stroke-width:0.75px">dyce</tspan></text>
</g></svg>
