<?xml version="1.0" encoding="UTF-8" standalone="no"?>
<!DOCTYPE svg PUBLIC "-//W3C//DTD SVG 1.1//EN"
 "http://www.w3.org/Graphics/SVG/1.1/DTD/svg11.dtd">
<!-- Generated by graphviz version 2.49.3 (20211023.0002)
 -->
<!-- Pages: 1 -->
<svg width="1866pt" height="489pt"
 viewBox="0.00 0.00 1866.05 489.00" xmlns="http://www.w3.org/2000/svg" xmlns:xlink="http://www.w3.org/1999/xlink">
<g id="graph0" class="graph" transform="scale(1 1) rotate(0) translate(4 485)">
<g id="clust2" class="cluster">
<title>cluster_rollers</title>
<polygon fill="transparent" stroke="Azure" stroke-dasharray="1,5" points="1185.05,-95 1185.05,-365 1850.05,-365 1850.05,-95 1185.05,-95"/>
<text text-anchor="start" x="1483.05" y="-350.8" font-family="Helvetica,sans-Serif" font-style="italic" font-size="14.00" fill="Azure">Roller Tree</text>
</g>
<g id="clust3" class="cluster">
<title>cluster_roll_outcomes</title>
<polygon fill="transparent" stroke="Azure" stroke-dasharray="1,5" points="167.05,-8 167.05,-170 897.05,-170 897.05,-8 167.05,-8"/>
<text text-anchor="start" x="486.05" y="-155.8" font-family="Helvetica,sans-Serif" font-style="italic" font-size="14.00" fill="Azure">Roll Outcomes</text>
</g>
<g id="clust1" class="cluster">
<title>cluster_rolls</title>
<polygon fill="transparent" stroke="Azure" stroke-dasharray="1,5" points="347.05,-203 347.05,-473 1006.05,-473 1006.05,-203 347.05,-203"/>
<text text-anchor="start" x="648.05" y="-458.8" font-family="Helvetica,sans-Serif" font-style="italic" font-size="14.00" fill="Azure">Roll Tree</text>
</g>
<!-- Roll&#45;1 -->
<g id="node1" class="node">
<title>Roll&#45;1</title>
<polygon fill="none" stroke="Azure" points="885.05,-442 831.05,-442 831.05,-406 885.05,-406 885.05,-442"/>
<text text-anchor="start" x="844.55" y="-421.3" font-family="Helvetica,sans-Serif" font-weight="bold" font-size="14.00" fill="Azure">Roll</text>
</g>
<!-- FilterRoller&#45;2 -->
<g id="node2" class="node">
<title>FilterRoller&#45;2</title>
<polygon fill="none" stroke="Azure" points="1326.05,-334 1236.05,-334 1236.05,-298 1326.05,-298 1326.05,-334"/>
<text text-anchor="start" x="1244.05" y="-313.3" font-family="Helvetica,sans-Serif" font-weight="bold" font-size="14.00" fill="Azure">FilterRoller</text>
</g>
<!-- Roll&#45;1&#45;&gt;FilterRoller&#45;2 -->
<g id="edge1" class="edge">
<title>Roll&#45;1&#45;&gt;FilterRoller&#45;2</title>
<path fill="none" stroke="Azure" d="M885.18,-423.78C939.78,-424.53 1066.13,-422.03 1165.05,-388 1196.72,-377.1 1228.92,-356.48 1251.33,-340.25"/>
<polygon fill="Azure" stroke="Azure" points="1253.45,-343.04 1259.41,-334.28 1249.29,-337.4 1253.45,-343.04"/>
<text text-anchor="middle" x="1203.55" y="-376.8" font-family="Courier New" font-size="14.00" fill="Azure">r</text>
</g>
<!-- RollOutcome&#45;3 -->
<g id="node3" class="node">
<title>RollOutcome&#45;3</title>
<polygon fill="none" stroke="Azure" stroke-dasharray="1,5" points="767.05,-139 663.05,-139 663.05,-103 767.05,-103 767.05,-139"/>
<text text-anchor="start" x="671.05" y="-124.8" font-family="Helvetica,sans-Serif" font-weight="bold" font-size="14.00" fill="Azure">RollOutcome</text>
<text text-anchor="start" x="672.55" y="-110.8" font-family="Courier New" font-size="14.00" fill="Azure">value=None</text>
</g>
<!-- Roll&#45;1&#45;&gt;RollOutcome&#45;3 -->
<g id="edge2" class="edge">
<title>Roll&#45;1&#45;&gt;RollOutcome&#45;3</title>
<path fill="none" stroke="Azure" d="M885.35,-421.42C929.87,-418.25 1015.13,-409.48 1035.05,-388 1063.01,-357.85 1062.65,-229.31 1031.05,-203 1010.99,-186.3 939.06,-200.43 914.05,-193 900.51,-188.98 899.61,-181.93 886.05,-178 838.97,-164.35 821.75,-187.71 776.05,-170 762.43,-164.72 749.41,-155.31 738.92,-146.21"/>
<polygon fill="Azure" stroke="Azure" points="741.18,-143.53 731.43,-139.39 736.46,-148.71 741.18,-143.53"/>
<text text-anchor="middle" x="1067.05" y="-268.8" font-family="Courier New" font-size="14.00" fill="Azure">[0]</text>
</g>
<!-- RollOutcome&#45;4 -->
<g id="node4" class="node">
<title>RollOutcome&#45;4</title>
<polygon fill="none" stroke="LightBlue" stroke-dasharray="5,2" points="401.05,-139 297.05,-139 297.05,-103 401.05,-103 401.05,-139"/>
<text text-anchor="start" x="305.05" y="-124.8" font-family="Helvetica,sans-Serif" font-weight="bold" font-size="14.00" fill="LightBlue">RollOutcome</text>
<text text-anchor="start" x="319.55" y="-110.8" font-family="Courier New" font-size="14.00" fill="LightBlue">value=1</text>
</g>
<!-- Roll&#45;1&#45;&gt;RollOutcome&#45;4 -->
<g id="edge3" class="edge">
<title>Roll&#45;1&#45;&gt;RollOutcome&#45;4</title>
<path fill="none" stroke="LightBlue" stroke-dasharray="5,2" d="M830.95,-421.74C725.05,-416.63 342.83,-396.14 299.05,-365 238.94,-322.25 228.1,-267.95 263.05,-203 270.27,-189.57 298.13,-164.4 320.21,-145.67"/>
<polygon fill="LightBlue" stroke="LightBlue" points="322.63,-148.21 328.03,-139.09 318.12,-142.85 322.63,-148.21"/>
<text text-anchor="middle" x="256.05" y="-268.8" font-family="Courier New" font-size="14.00" fill="LightBlue">[1]</text>
</g>
<!-- RollOutcome&#45;5 -->
<g id="node5" class="node">
<title>RollOutcome&#45;5</title>
<polygon fill="none" stroke="Azure" stroke-dasharray="1,5" points="279.05,-139 175.05,-139 175.05,-103 279.05,-103 279.05,-139"/>
<text text-anchor="start" x="183.05" y="-124.8" font-family="Helvetica,sans-Serif" font-weight="bold" font-size="14.00" fill="Azure">RollOutcome</text>
<text text-anchor="start" x="184.55" y="-110.8" font-family="Courier New" font-size="14.00" fill="Azure">value=None</text>
</g>
<!-- Roll&#45;1&#45;&gt;RollOutcome&#45;5 -->
<g id="edge4" class="edge">
<title>Roll&#45;1&#45;&gt;RollOutcome&#45;5</title>
<path fill="none" stroke="Azure" d="M830.87,-423.59C750.87,-424.81 509.57,-424.94 314.05,-388 281.04,-381.76 266.03,-388.52 242.05,-365 184.01,-308.09 204.7,-199.54 218.59,-149.06"/>
<polygon fill="Azure" stroke="Azure" points="222.03,-149.79 221.42,-139.21 215.3,-147.86 222.03,-149.79"/>
<text text-anchor="middle" x="217.05" y="-268.8" font-family="Courier New" font-size="14.00" fill="Azure">[2]</text>
</g>
<!-- RollOutcome&#45;6 -->
<g id="node6" class="node">
<title>RollOutcome&#45;6</title>
<polygon fill="none" stroke="LightGoldenRodYellow" stroke-dasharray="5,2" points="523.05,-139 419.05,-139 419.05,-103 523.05,-103 523.05,-139"/>
<text text-anchor="start" x="427.05" y="-124.8" font-family="Helvetica,sans-Serif" font-weight="bold" font-size="14.00" fill="LightGoldenRodYellow">RollOutcome</text>
<text text-anchor="start" x="441.55" y="-110.8" font-family="Courier New" font-size="14.00" fill="LightGoldenRodYellow">value=3</text>
</g>
<!-- Roll&#45;1&#45;&gt;RollOutcome&#45;6 -->
<g id="edge5" class="edge">
<title>Roll&#45;1&#45;&gt;RollOutcome&#45;6</title>
<path fill="none" stroke="LightGoldenRodYellow" stroke-dasharray="5,2" d="M830.88,-421.55C744.12,-416.63 474.7,-398.92 395.05,-365 339.8,-341.48 324.91,-328.88 290.05,-280 269.93,-251.8 258.36,-231.5 278.05,-203 312.41,-153.24 354.2,-193.2 410.05,-170 423.53,-164.4 436.53,-154.94 447.04,-145.89"/>
<polygon fill="LightGoldenRodYellow" stroke="LightGoldenRodYellow" points="449.47,-148.41 454.56,-139.12 444.79,-143.21 449.47,-148.41"/>
<text text-anchor="middle" x="303.05" y="-268.8" font-family="Courier New" font-size="14.00" fill="LightGoldenRodYellow">[3]</text>
</g>
<!-- RollOutcome&#45;7 -->
<g id="node7" class="node">
<title>RollOutcome&#45;7</title>
<polygon fill="none" stroke="Azure" stroke-dasharray="1,5" points="889.05,-139 785.05,-139 785.05,-103 889.05,-103 889.05,-139"/>
<text text-anchor="start" x="793.05" y="-124.8" font-family="Helvetica,sans-Serif" font-weight="bold" font-size="14.00" fill="Azure">RollOutcome</text>
<text text-anchor="start" x="794.55" y="-110.8" font-family="Courier New" font-size="14.00" fill="Azure">value=None</text>
</g>
<!-- Roll&#45;1&#45;&gt;RollOutcome&#45;7 -->
<g id="edge6" class="edge">
<title>Roll&#45;1&#45;&gt;RollOutcome&#45;7</title>
<path fill="none" stroke="Azure" d="M885.24,-422.05C938.4,-419.69 1053.58,-411.88 1084.05,-388 1122.71,-357.7 1187.22,-213.28 1153.05,-178 1143.3,-167.94 914.26,-174.64 901.05,-170 886.49,-164.89 872.52,-155.18 861.37,-145.83"/>
<polygon fill="Azure" stroke="Azure" points="863.6,-143.12 853.78,-139.15 858.97,-148.38 863.6,-143.12"/>
<text text-anchor="middle" x="1165.05" y="-268.8" font-family="Courier New" font-size="14.00" fill="Azure">[4]</text>
</g>
<!-- RollOutcome&#45;8 -->
<g id="node8" class="node">
<title>RollOutcome&#45;8</title>
<polygon fill="none" stroke="LightPink" stroke-dasharray="5,2" points="645.05,-139 541.05,-139 541.05,-103 645.05,-103 645.05,-139"/>
<text text-anchor="start" x="549.05" y="-124.8" font-family="Helvetica,sans-Serif" font-weight="bold" font-size="14.00" fill="LightPink">RollOutcome</text>
<text text-anchor="start" x="563.55" y="-110.8" font-family="Courier New" font-size="14.00" fill="LightPink">value=5</text>
</g>
<!-- Roll&#45;1&#45;&gt;RollOutcome&#45;8 -->
<g id="edge7" class="edge">
<title>Roll&#45;1&#45;&gt;RollOutcome&#45;8</title>
<path fill="none" stroke="LightPink" stroke-dasharray="5,2" d="M882.95,-405.8C937.43,-366.24 1057.4,-267.28 994.05,-203 985.82,-194.65 900.71,-194.13 889.05,-193 862.93,-190.48 678.39,-179.78 654.05,-170 640.49,-164.55 627.48,-155.12 616.99,-146.04"/>
<polygon fill="LightPink" stroke="LightPink" points="619.24,-143.36 609.48,-139.25 614.54,-148.55 619.24,-143.36"/>
<text text-anchor="middle" x="1021.05" y="-268.8" font-family="Courier New" font-size="14.00" fill="LightPink">[5]</text>
</g>
<!-- Roll&#45;9 -->
<g id="node9" class="node">
<title>Roll&#45;9</title>
<polygon fill="none" stroke="Azure" points="458.05,-334 404.05,-334 404.05,-298 458.05,-298 458.05,-334"/>
<text text-anchor="start" x="417.55" y="-313.3" font-family="Helvetica,sans-Serif" font-weight="bold" font-size="14.00" fill="Azure">Roll</text>
</g>
<!-- Roll&#45;1&#45;&gt;Roll&#45;9 -->
<g id="edge27" class="edge">
<title>Roll&#45;1&#45;&gt;Roll&#45;9</title>
<path fill="none" stroke="Azure" d="M831.01,-416.29C757.27,-397.98 552.55,-347.16 468.15,-326.21"/>
<polygon fill="Azure" stroke="Azure" points="468.79,-322.76 458.24,-323.75 467.1,-329.56 468.79,-322.76"/>
<text text-anchor="middle" x="749.55" y="-376.8" font-family="Courier New" font-size="14.00" fill="Azure">sources[0]</text>
</g>
<!-- PoolRoller&#45;10 -->
<g id="node10" class="node">
<title>PoolRoller&#45;10</title>
<polygon fill="none" stroke="Azure" points="1422.55,-247 1335.55,-247 1335.55,-211 1422.55,-211 1422.55,-247"/>
<text text-anchor="start" x="1343.55" y="-226.3" font-family="Helvetica,sans-Serif" font-weight="bold" font-size="14.00" fill="Azure">PoolRoller</text>
</g>
<!-- FilterRoller&#45;2&#45;&gt;PoolRoller&#45;10 -->
<g id="edge34" class="edge">
<title>FilterRoller&#45;2&#45;&gt;PoolRoller&#45;10</title>
<path fill="none" stroke="Azure" d="M1300.88,-297.8C1315.49,-285.13 1335.54,-267.73 1351.68,-253.74"/>
<polygon fill="Azure" stroke="Azure" points="1353.98,-256.37 1359.24,-247.18 1349.4,-251.08 1353.98,-256.37"/>
<text text-anchor="middle" x="1377.55" y="-268.8" font-family="Courier New" font-size="14.00" fill="Azure">sources[0]</text>
</g>
<!-- RollOutcome&#45;11 -->
<g id="node11" class="node">
<title>RollOutcome&#45;11</title>
<polygon fill="none" stroke="Lavender" stroke-dasharray="5,2" points="279.05,-52 175.05,-52 175.05,-16 279.05,-16 279.05,-52"/>
<text text-anchor="start" x="183.05" y="-37.8" font-family="Helvetica,sans-Serif" font-weight="bold" font-size="14.00" fill="Lavender">RollOutcome</text>
<text text-anchor="start" x="197.55" y="-23.8" font-family="Courier New" font-size="14.00" fill="Lavender">value=0</text>
</g>
<!-- RollOutcome&#45;3&#45;&gt;RollOutcome&#45;11 -->
<g id="edge41" class="edge">
<title>RollOutcome&#45;3&#45;&gt;RollOutcome&#45;11</title>
<path fill="none" stroke="Lavender" stroke-dasharray="5,2" d="M677.85,-102.89C670.11,-99.86 661.91,-97.03 654.05,-95 498.72,-54.85 450.71,-82.45 289.44,-52.08"/>
<polygon fill="Lavender" stroke="Lavender" points="289.64,-48.56 279.16,-50.1 288.32,-55.43 289.64,-48.56"/>
<text text-anchor="middle" x="651.55" y="-73.8" font-family="Courier New" font-size="14.00" fill="Lavender">sources[0]</text>
</g>
<!-- RollOutcome&#45;12 -->
<g id="node12" class="node">
<title>RollOutcome&#45;12</title>
<polygon fill="none" stroke="LightGreen" stroke-dasharray="5,2" points="401.05,-52 297.05,-52 297.05,-16 401.05,-16 401.05,-52"/>
<text text-anchor="start" x="305.05" y="-37.8" font-family="Helvetica,sans-Serif" font-weight="bold" font-size="14.00" fill="LightGreen">RollOutcome</text>
<text text-anchor="start" x="319.55" y="-23.8" font-family="Courier New" font-size="14.00" fill="LightGreen">value=2</text>
</g>
<!-- RollOutcome&#45;5&#45;&gt;RollOutcome&#45;12 -->
<g id="edge42" class="edge">
<title>RollOutcome&#45;5&#45;&gt;RollOutcome&#45;12</title>
<path fill="none" stroke="LightGreen" stroke-dasharray="5,2" d="M251.73,-102.8C270.25,-89.9 295.8,-72.1 316.07,-57.98"/>
<polygon fill="LightGreen" stroke="LightGreen" points="318.19,-60.76 324.39,-52.18 314.19,-55.02 318.19,-60.76"/>
<text text-anchor="middle" x="337.55" y="-73.8" font-family="Courier New" font-size="14.00" fill="LightGreen">sources[0]</text>
</g>
<!-- RollOutcome&#45;13 -->
<g id="node13" class="node">
<title>RollOutcome&#45;13</title>
<polygon fill="none" stroke="LightSalmon" stroke-dasharray="5,2" points="856.05,-52 752.05,-52 752.05,-16 856.05,-16 856.05,-52"/>
<text text-anchor="start" x="760.05" y="-37.8" font-family="Helvetica,sans-Serif" font-weight="bold" font-size="14.00" fill="LightSalmon">RollOutcome</text>
<text text-anchor="start" x="774.55" y="-23.8" font-family="Courier New" font-size="14.00" fill="LightSalmon">value=4</text>
</g>
<!-- RollOutcome&#45;7&#45;&gt;RollOutcome&#45;13 -->
<g id="edge43" class="edge">
<title>RollOutcome&#45;7&#45;&gt;RollOutcome&#45;13</title>
<path fill="none" stroke="LightSalmon" stroke-dasharray="5,2" d="M830.37,-102.8C825.81,-91.05 819.67,-75.24 814.47,-61.84"/>
<polygon fill="LightSalmon" stroke="LightSalmon" points="817.6,-60.23 810.71,-52.18 811.07,-62.76 817.6,-60.23"/>
<text text-anchor="middle" x="864.55" y="-73.8" font-family="Courier New" font-size="14.00" fill="LightSalmon">sources[0]</text>
</g>
<!-- Roll&#45;9&#45;&gt;RollOutcome&#45;4 -->
<g id="edge10" class="edge">
<title>Roll&#45;9&#45;&gt;RollOutcome&#45;4</title>
<path fill="none" stroke="LightBlue" stroke-dasharray="5,2" d="M403.92,-312.73C367.24,-307.94 304.4,-293.05 287.05,-247 280.15,-228.7 280.77,-221.52 287.05,-203 294.3,-181.58 309.76,-161.36 323.42,-146.49"/>
<polygon fill="LightBlue" stroke="LightBlue" points="325.98,-148.87 330.34,-139.22 320.91,-144.05 325.98,-148.87"/>
<text text-anchor="middle" x="300.05" y="-225.3" font-family="Courier New" font-size="14.00" fill="LightBlue">[1]</text>
</g>
<!-- Roll&#45;9&#45;&gt;RollOutcome&#45;6 -->
<g id="edge12" class="edge">
<title>Roll&#45;9&#45;&gt;RollOutcome&#45;6</title>
<path fill="none" stroke="LightGoldenRodYellow" stroke-dasharray="5,2" d="M403.82,-313.98C379.74,-311.47 345.91,-303.62 329.05,-280 317.61,-263.98 305.54,-247.27 339.05,-203 360.04,-175.25 380.4,-188.21 410.05,-170 421.73,-162.82 433.77,-153.76 444.03,-145.45"/>
<polygon fill="LightGoldenRodYellow" stroke="LightGoldenRodYellow" points="446.36,-148.07 451.84,-139 441.9,-142.67 446.36,-148.07"/>
<text text-anchor="middle" x="352.05" y="-225.3" font-family="Courier New" font-size="14.00" fill="LightGoldenRodYellow">[3]</text>
</g>
<!-- Roll&#45;9&#45;&gt;RollOutcome&#45;8 -->
<g id="edge14" class="edge">
<title>Roll&#45;9&#45;&gt;RollOutcome&#45;8</title>
<path fill="none" stroke="LightPink" stroke-dasharray="5,2" d="M403.93,-307.45C390.32,-302.14 375.05,-293.51 367.05,-280 359.38,-267.06 381.79,-214.66 396.05,-203 444.19,-163.62 476.1,-197.19 532.05,-170 544.77,-163.82 557.31,-154.64 567.68,-145.96"/>
<polygon fill="LightPink" stroke="LightPink" points="570.24,-148.37 575.5,-139.17 565.65,-143.08 570.24,-148.37"/>
<text text-anchor="middle" x="409.05" y="-225.3" font-family="Courier New" font-size="14.00" fill="LightPink">[5]</text>
</g>
<!-- Roll&#45;9&#45;&gt;PoolRoller&#45;10 -->
<g id="edge8" class="edge">
<title>Roll&#45;9&#45;&gt;PoolRoller&#45;10</title>
<path fill="none" stroke="Azure" d="M458.33,-314.4C575.86,-311.72 1035.68,-300.01 1097.05,-280 1108.65,-276.22 1108.61,-269.25 1120.05,-265 1187.82,-239.79 1271.59,-232.4 1325.17,-230.42"/>
<polygon fill="Azure" stroke="Azure" points="1325.59,-233.91 1335.47,-230.09 1325.37,-226.91 1325.59,-233.91"/>
<text text-anchor="middle" x="1124.55" y="-268.8" font-family="Courier New" font-size="14.00" fill="Azure">r</text>
</g>
<!-- Roll&#45;9&#45;&gt;RollOutcome&#45;11 -->
<g id="edge9" class="edge">
<title>Roll&#45;9&#45;&gt;RollOutcome&#45;11</title>
<path fill="none" stroke="Lavender" stroke-dasharray="5,2" d="M403.81,-313.99C321.66,-310.74 80.17,-299.61 51.05,-280 -17.51,-233.83 -9.29,-166.58 32.05,-95 39.6,-81.93 41.9,-77.42 55.05,-70 88.35,-51.2 130.35,-42.42 164.5,-38.36"/>
<polygon fill="Lavender" stroke="Lavender" points="165.27,-41.79 174.83,-37.24 164.51,-34.83 165.27,-41.79"/>
<text text-anchor="middle" x="14.05" y="-181.8" font-family="Courier New" font-size="14.00" fill="Lavender">[0]</text>
</g>
<!-- Roll&#45;9&#45;&gt;RollOutcome&#45;12 -->
<g id="edge11" class="edge">
<title>Roll&#45;9&#45;&gt;RollOutcome&#45;12</title>
<path fill="none" stroke="LightGreen" stroke-dasharray="5,2" d="M403.95,-314.01C324.57,-310.87 96.44,-300.17 70.05,-280 37.19,-254.89 44.5,-233.68 37.05,-193 28.19,-144.67 51.51,-85.61 71.05,-70 106.78,-41.44 226.31,-58.42 287.03,-51.64"/>
<polygon fill="LightGreen" stroke="LightGreen" points="287.55,-55.1 296.95,-50.22 286.56,-48.18 287.55,-55.1"/>
<text text-anchor="middle" x="50.05" y="-181.8" font-family="Courier New" font-size="14.00" fill="LightGreen">[2]</text>
</g>
<!-- Roll&#45;9&#45;&gt;RollOutcome&#45;13 -->
<g id="edge13" class="edge">
<title>Roll&#45;9&#45;&gt;RollOutcome&#45;13</title>
<path fill="none" stroke="LightSalmon" stroke-dasharray="5,2" d="M404.01,-313.67C349.85,-310.58 230.29,-301.48 196.05,-280 120.88,-232.86 63.52,-162.55 121.05,-95 141.05,-71.51 576.61,-46.72 741.52,-38.14"/>
<polygon fill="LightSalmon" stroke="LightSalmon" points="742.18,-41.61 751.99,-37.59 741.82,-34.62 742.18,-41.61"/>
<text text-anchor="middle" x="120.05" y="-181.8" font-family="Courier New" font-size="14.00" fill="LightSalmon">[4]</text>
</g>
<!-- Roll&#45;14 -->
<g id="node14" class="node">
<title>Roll&#45;14</title>
<polygon fill="none" stroke="Lavender" stroke-dasharray="5,2" points="485.05,-247 431.05,-247 431.05,-211 485.05,-211 485.05,-247"/>
<text text-anchor="start" x="444.55" y="-226.3" font-family="Helvetica,sans-Serif" font-weight="bold" font-size="14.00" fill="Lavender">Roll</text>
</g>
<!-- Roll&#45;9&#45;&gt;Roll&#45;14 -->
<g id="edge28" class="edge">
<title>Roll&#45;9&#45;&gt;Roll&#45;14</title>
<path fill="none" stroke="Lavender" stroke-dasharray="5,2" d="M403.79,-304.65C384.26,-295.58 363.17,-281.32 374.05,-265 374.14,-264.86 398.63,-254.66 421.14,-245.31"/>
<polygon fill="Lavender" stroke="Lavender" points="422.7,-248.46 430.59,-241.39 420.01,-241.99 422.7,-248.46"/>
<text text-anchor="middle" x="416.55" y="-268.8" font-family="Courier New" font-size="14.00" fill="Lavender">sources[0]</text>
</g>
<!-- Roll&#45;16 -->
<g id="node16" class="node">
<title>Roll&#45;16</title>
<polygon fill="none" stroke="LightBlue" stroke-dasharray="5,2" points="557.05,-247 503.05,-247 503.05,-211 557.05,-211 557.05,-247"/>
<text text-anchor="start" x="516.55" y="-226.3" font-family="Helvetica,sans-Serif" font-weight="bold" font-size="14.00" fill="LightBlue">Roll</text>
</g>
<!-- Roll&#45;9&#45;&gt;Roll&#45;16 -->
<g id="edge29" class="edge">
<title>Roll&#45;9&#45;&gt;Roll&#45;16</title>
<path fill="none" stroke="LightBlue" stroke-dasharray="5,2" d="M447.46,-297.69C457.19,-287.76 469.94,-275.26 482.05,-265 486.68,-261.07 491.73,-257.1 496.75,-253.3"/>
<polygon fill="LightBlue" stroke="LightBlue" points="499.14,-255.89 505.1,-247.14 494.98,-250.26 499.14,-255.89"/>
<text text-anchor="middle" x="524.55" y="-268.8" font-family="Courier New" font-size="14.00" fill="LightBlue">sources[1]</text>
</g>
<!-- Roll&#45;18 -->
<g id="node18" class="node">
<title>Roll&#45;18</title>
<polygon fill="none" stroke="LightGreen" stroke-dasharray="5,2" points="913.05,-247 859.05,-247 859.05,-211 913.05,-211 913.05,-247"/>
<text text-anchor="start" x="872.55" y="-226.3" font-family="Helvetica,sans-Serif" font-weight="bold" font-size="14.00" fill="LightGreen">Roll</text>
</g>
<!-- Roll&#45;9&#45;&gt;Roll&#45;18 -->
<g id="edge30" class="edge">
<title>Roll&#45;9&#45;&gt;Roll&#45;18</title>
<path fill="none" stroke="LightGreen" stroke-dasharray="5,2" d="M458.19,-315.18C516.77,-314.93 658.97,-310.87 773.05,-280 788.6,-275.79 791.33,-271.56 806.05,-265 820.2,-258.69 835.8,-251.84 849.44,-245.89"/>
<polygon fill="LightGreen" stroke="LightGreen" points="851.2,-248.93 858.97,-241.73 848.41,-242.52 851.2,-248.93"/>
<text text-anchor="middle" x="848.55" y="-268.8" font-family="Courier New" font-size="14.00" fill="LightGreen">sources[2]</text>
</g>
<!-- Roll&#45;20 -->
<g id="node20" class="node">
<title>Roll&#45;20</title>
<polygon fill="none" stroke="LightGoldenRodYellow" stroke-dasharray="5,2" points="629.05,-247 575.05,-247 575.05,-211 629.05,-211 629.05,-247"/>
<text text-anchor="start" x="588.55" y="-226.3" font-family="Helvetica,sans-Serif" font-weight="bold" font-size="14.00" fill="LightGoldenRodYellow">Roll</text>
</g>
<!-- Roll&#45;9&#45;&gt;Roll&#45;20 -->
<g id="edge31" class="edge">
<title>Roll&#45;9&#45;&gt;Roll&#45;20</title>
<path fill="none" stroke="LightGoldenRodYellow" stroke-dasharray="5,2" d="M458.11,-313.54C487.33,-310.78 534.08,-302.84 567.05,-280 575.84,-273.91 583.14,-264.85 588.75,-256.11"/>
<polygon fill="LightGoldenRodYellow" stroke="LightGoldenRodYellow" points="591.91,-257.64 593.99,-247.25 585.89,-254.07 591.91,-257.64"/>
<text text-anchor="middle" x="624.55" y="-268.8" font-family="Courier New" font-size="14.00" fill="LightGoldenRodYellow">sources[3]</text>
</g>
<!-- Roll&#45;22 -->
<g id="node22" class="node">
<title>Roll&#45;22</title>
<polygon fill="none" stroke="LightSalmon" stroke-dasharray="5,2" points="985.05,-247 931.05,-247 931.05,-211 985.05,-211 985.05,-247"/>
<text text-anchor="start" x="944.55" y="-226.3" font-family="Helvetica,sans-Serif" font-weight="bold" font-size="14.00" fill="LightSalmon">Roll</text>
</g>
<!-- Roll&#45;9&#45;&gt;Roll&#45;22 -->
<g id="edge32" class="edge">
<title>Roll&#45;9&#45;&gt;Roll&#45;22</title>
<path fill="none" stroke="LightSalmon" stroke-dasharray="5,2" d="M458.25,-314.91C544.52,-314.3 810.98,-310 891.05,-280 895.44,-278.35 912.52,-265.59 928.33,-253.37"/>
<polygon fill="LightSalmon" stroke="LightSalmon" points="930.67,-255.99 936.41,-247.09 926.37,-250.46 930.67,-255.99"/>
<text text-anchor="middle" x="954.55" y="-268.8" font-family="Courier New" font-size="14.00" fill="LightSalmon">sources[4]</text>
</g>
<!-- Roll&#45;24 -->
<g id="node24" class="node">
<title>Roll&#45;24</title>
<polygon fill="none" stroke="LightPink" stroke-dasharray="5,2" points="724.05,-247 670.05,-247 670.05,-211 724.05,-211 724.05,-247"/>
<text text-anchor="start" x="683.55" y="-226.3" font-family="Helvetica,sans-Serif" font-weight="bold" font-size="14.00" fill="LightPink">Roll</text>
</g>
<!-- Roll&#45;9&#45;&gt;Roll&#45;24 -->
<g id="edge33" class="edge">
<title>Roll&#45;9&#45;&gt;Roll&#45;24</title>
<path fill="none" stroke="LightPink" stroke-dasharray="5,2" d="M458.45,-314.09C513.97,-311.76 637.33,-303.97 671.05,-280 679.13,-274.25 684.88,-265.22 688.89,-256.41"/>
<polygon fill="LightPink" stroke="LightPink" points="692.15,-257.68 692.58,-247.09 685.64,-255.1 692.15,-257.68"/>
<text text-anchor="middle" x="726.55" y="-268.8" font-family="Courier New" font-size="14.00" fill="LightPink">sources[5]</text>
</g>
<!-- ValueRoller&#45;15 -->
<g id="node15" class="node">
<title>ValueRoller&#45;15</title>
<polygon fill="none" stroke="Lavender" stroke-dasharray="5,2" points="1397.55,-139 1304.55,-139 1304.55,-103 1397.55,-103 1397.55,-139"/>
<text text-anchor="start" x="1312.55" y="-124.8" font-family="Helvetica,sans-Serif" font-weight="bold" font-size="14.00" fill="Lavender">ValueRoller</text>
<text text-anchor="start" x="1321.55" y="-110.8" font-family="Courier New" font-size="14.00" fill="Lavender">value=0</text>
</g>
<!-- PoolRoller&#45;10&#45;&gt;ValueRoller&#45;15 -->
<g id="edge35" class="edge">
<title>PoolRoller&#45;10&#45;&gt;ValueRoller&#45;15</title>
<path fill="none" stroke="Lavender" stroke-dasharray="5,2" d="M1342.63,-210.98C1335.97,-206.14 1329.91,-200.19 1326.05,-193 1318.38,-178.74 1323.98,-161.66 1331.81,-147.83"/>
<polygon fill="Lavender" stroke="Lavender" points="1334.83,-149.6 1337.16,-139.26 1328.89,-145.89 1334.83,-149.6"/>
<text text-anchor="middle" x="1368.55" y="-181.8" font-family="Courier New" font-size="14.00" fill="Lavender">sources[0]</text>
</g>
<!-- ValueRoller&#45;17 -->
<g id="node17" class="node">
<title>ValueRoller&#45;17</title>
<polygon fill="none" stroke="LightBlue" stroke-dasharray="5,2" points="1286.55,-139 1193.55,-139 1193.55,-103 1286.55,-103 1286.55,-139"/>
<text text-anchor="start" x="1201.55" y="-124.8" font-family="Helvetica,sans-Serif" font-weight="bold" font-size="14.00" fill="LightBlue">ValueRoller</text>
<text text-anchor="start" x="1210.55" y="-110.8" font-family="Courier New" font-size="14.00" fill="LightBlue">value=1</text>
</g>
<!-- PoolRoller&#45;10&#45;&gt;ValueRoller&#45;17 -->
<g id="edge36" class="edge">
<title>PoolRoller&#45;10&#45;&gt;ValueRoller&#45;17</title>
<path fill="none" stroke="LightBlue" stroke-dasharray="5,2" d="M1335.38,-223.46C1297.1,-218.47 1245.64,-208.96 1233.05,-193 1223.32,-180.67 1224.95,-163.15 1229.06,-148.59"/>
<polygon fill="LightBlue" stroke="LightBlue" points="1232.39,-149.69 1232.2,-139.09 1225.74,-147.49 1232.39,-149.69"/>
<text text-anchor="middle" x="1275.55" y="-181.8" font-family="Courier New" font-size="14.00" fill="LightBlue">sources[1]</text>
</g>
<!-- ValueRoller&#45;19 -->
<g id="node19" class="node">
<title>ValueRoller&#45;19</title>
<polygon fill="none" stroke="LightGreen" stroke-dasharray="5,2" points="1730.55,-139 1637.55,-139 1637.55,-103 1730.55,-103 1730.55,-139"/>
<text text-anchor="start" x="1645.55" y="-124.8" font-family="Helvetica,sans-Serif" font-weight="bold" font-size="14.00" fill="LightGreen">ValueRoller</text>
<text text-anchor="start" x="1654.55" y="-110.8" font-family="Courier New" font-size="14.00" fill="LightGreen">value=2</text>
</g>
<!-- PoolRoller&#45;10&#45;&gt;ValueRoller&#45;19 -->
<g id="edge37" class="edge">
<title>PoolRoller&#45;10&#45;&gt;ValueRoller&#45;19</title>
<path fill="none" stroke="LightGreen" stroke-dasharray="5,2" d="M1422.68,-225.01C1481.89,-220.38 1584.08,-210.17 1617.05,-193 1637.34,-182.43 1654.86,-163.26 1666.89,-147.51"/>
<polygon fill="LightGreen" stroke="LightGreen" points="1669.91,-149.32 1672.99,-139.18 1664.26,-145.18 1669.91,-149.32"/>
<text text-anchor="middle" x="1678.55" y="-181.8" font-family="Courier New" font-size="14.00" fill="LightGreen">sources[2]</text>
</g>
<!-- ValueRoller&#45;21 -->
<g id="node21" class="node">
<title>ValueRoller&#45;21</title>
<polygon fill="none" stroke="LightGoldenRodYellow" stroke-dasharray="5,2" points="1508.55,-139 1415.55,-139 1415.55,-103 1508.55,-103 1508.55,-139"/>
<text text-anchor="start" x="1423.55" y="-124.8" font-family="Helvetica,sans-Serif" font-weight="bold" font-size="14.00" fill="LightGoldenRodYellow">ValueRoller</text>
<text text-anchor="start" x="1432.55" y="-110.8" font-family="Courier New" font-size="14.00" fill="LightGoldenRodYellow">value=3</text>
</g>
<!-- PoolRoller&#45;10&#45;&gt;ValueRoller&#45;21 -->
<g id="edge38" class="edge">
<title>PoolRoller&#45;10&#45;&gt;ValueRoller&#45;21</title>
<path fill="none" stroke="LightGoldenRodYellow" stroke-dasharray="5,2" d="M1395.41,-210.91C1400.56,-205.32 1406.17,-199.01 1411.05,-193 1422.89,-178.4 1435.22,-161.31 1444.78,-147.55"/>
<polygon fill="LightGoldenRodYellow" stroke="LightGoldenRodYellow" points="1447.84,-149.28 1450.63,-139.05 1442.08,-145.3 1447.84,-149.28"/>
<text text-anchor="middle" x="1463.55" y="-181.8" font-family="Courier New" font-size="14.00" fill="LightGoldenRodYellow">sources[3]</text>
</g>
<!-- ValueRoller&#45;23 -->
<g id="node23" class="node">
<title>ValueRoller&#45;23</title>
<polygon fill="none" stroke="LightSalmon" stroke-dasharray="5,2" points="1841.55,-139 1748.55,-139 1748.55,-103 1841.55,-103 1841.55,-139"/>
<text text-anchor="start" x="1756.55" y="-124.8" font-family="Helvetica,sans-Serif" font-weight="bold" font-size="14.00" fill="LightSalmon">ValueRoller</text>
<text text-anchor="start" x="1765.55" y="-110.8" font-family="Courier New" font-size="14.00" fill="LightSalmon">value=4</text>
</g>
<!-- PoolRoller&#45;10&#45;&gt;ValueRoller&#45;23 -->
<g id="edge39" class="edge">
<title>PoolRoller&#45;10&#45;&gt;ValueRoller&#45;23</title>
<path fill="none" stroke="LightSalmon" stroke-dasharray="5,2" d="M1422.68,-227.24C1503.41,-225.24 1672.63,-218.1 1725.05,-193 1746.45,-182.75 1765,-163.11 1777.62,-147.09"/>
<polygon fill="LightSalmon" stroke="LightSalmon" points="1780.42,-149.19 1783.67,-139.1 1774.84,-144.96 1780.42,-149.19"/>
<text text-anchor="middle" x="1789.55" y="-181.8" font-family="Courier New" font-size="14.00" fill="LightSalmon">sources[4]</text>
</g>
<!-- ValueRoller&#45;25 -->
<g id="node25" class="node">
<title>ValueRoller&#45;25</title>
<polygon fill="none" stroke="LightPink" stroke-dasharray="5,2" points="1619.55,-139 1526.55,-139 1526.55,-103 1619.55,-103 1619.55,-139"/>
<text text-anchor="start" x="1534.55" y="-124.8" font-family="Helvetica,sans-Serif" font-weight="bold" font-size="14.00" fill="LightPink">ValueRoller</text>
<text text-anchor="start" x="1543.55" y="-110.8" font-family="Courier New" font-size="14.00" fill="LightPink">value=5</text>
</g>
<!-- PoolRoller&#45;10&#45;&gt;ValueRoller&#45;25 -->
<g id="edge40" class="edge">
<title>PoolRoller&#45;10&#45;&gt;ValueRoller&#45;25</title>
<path fill="none" stroke="LightPink" stroke-dasharray="5,2" d="M1422.56,-222.86C1449.34,-218.18 1483.5,-209.38 1510.05,-193 1528.57,-181.57 1544.75,-163.03 1556.07,-147.77"/>
<polygon fill="LightPink" stroke="LightPink" points="1559.2,-149.41 1562.16,-139.24 1553.5,-145.34 1559.2,-149.41"/>
<text text-anchor="middle" x="1570.55" y="-181.8" font-family="Courier New" font-size="14.00" fill="LightPink">sources[5]</text>
</g>
<!-- Roll&#45;14&#45;&gt;RollOutcome&#45;11 -->
<g id="edge16" class="edge">
<title>Roll&#45;14&#45;&gt;RollOutcome&#45;11</title>
<path fill="none" stroke="Lavender" stroke-dasharray="5,2" d="M439.49,-210.8C435.33,-207.75 430.74,-204.93 426.05,-203 366.85,-178.73 182.61,-217.76 140.05,-170 117.87,-145.12 124.55,-124.51 140.05,-95 148.39,-79.11 163.06,-66.61 178,-57.22"/>
<polygon fill="Lavender" stroke="Lavender" points="179.94,-60.14 186.78,-52.05 176.39,-54.1 179.94,-60.14"/>
<text text-anchor="middle" x="153.05" y="-117.3" font-family="Courier New" font-size="14.00" fill="Lavender">[0]</text>
</g>
<!-- Roll&#45;14&#45;&gt;ValueRoller&#45;15 -->
<g id="edge15" class="edge">
<title>Roll&#45;14&#45;&gt;ValueRoller&#45;15</title>
<path fill="none" stroke="Lavender" stroke-dasharray="5,2" d="M478.26,-210.96C483.14,-207.73 488.55,-204.79 494.05,-203 537.68,-188.75 861.29,-196.69 907.05,-193 955.79,-189.07 967.31,-182.04 1016.05,-178 1047.06,-175.43 1267.06,-181.34 1296.05,-170 1308.9,-164.97 1320.77,-155.53 1330.16,-146.35"/>
<polygon fill="Lavender" stroke="Lavender" points="1332.71,-148.75 1337.14,-139.13 1327.68,-143.89 1332.71,-148.75"/>
<text text-anchor="middle" x="1020.55" y="-181.8" font-family="Courier New" font-size="14.00" fill="Lavender">r</text>
</g>
<!-- Roll&#45;16&#45;&gt;RollOutcome&#45;4 -->
<g id="edge18" class="edge">
<title>Roll&#45;16&#45;&gt;RollOutcome&#45;4</title>
<path fill="none" stroke="LightBlue" stroke-dasharray="5,2" d="M506.92,-210.78C502.74,-208 498.34,-205.29 494.05,-203 458.67,-184.1 444.84,-189.95 410.05,-170 398.05,-163.13 385.88,-154.05 375.59,-145.65"/>
<polygon fill="LightBlue" stroke="LightBlue" points="377.7,-142.85 367.79,-139.11 373.2,-148.21 377.7,-142.85"/>
<text text-anchor="middle" x="484.05" y="-181.8" font-family="Courier New" font-size="14.00" fill="LightBlue">[0]</text>
</g>
<!-- Roll&#45;16&#45;&gt;ValueRoller&#45;17 -->
<g id="edge17" class="edge">
<title>Roll&#45;16&#45;&gt;ValueRoller&#45;17</title>
<path fill="none" stroke="LightBlue" stroke-dasharray="5,2" d="M550.71,-210.91C555.49,-207.76 560.74,-204.88 566.05,-203 571.97,-200.91 1010.83,-170.89 1017.05,-170 1074.26,-161.79 1138.73,-147.34 1183.58,-136.43"/>
<polygon fill="LightBlue" stroke="LightBlue" points="1184.52,-139.8 1193.4,-134.02 1182.86,-133 1184.52,-139.8"/>
<text text-anchor="middle" x="898.55" y="-181.8" font-family="Courier New" font-size="14.00" fill="LightBlue">r</text>
</g>
<!-- Roll&#45;18&#45;&gt;RollOutcome&#45;12 -->
<g id="edge20" class="edge">
<title>Roll&#45;18&#45;&gt;RollOutcome&#45;12</title>
<path fill="none" stroke="LightGreen" stroke-dasharray="5,2" d="M892.03,-210.98C904.37,-174.44 929.97,-90.14 911.05,-70 902.58,-60.99 556.23,-44.35 411.54,-37.78"/>
<polygon fill="LightGreen" stroke="LightGreen" points="411.63,-34.28 401.48,-37.32 411.31,-41.27 411.63,-34.28"/>
<text text-anchor="middle" x="930.05" y="-117.3" font-family="Courier New" font-size="14.00" fill="LightGreen">[0]</text>
</g>
<!-- Roll&#45;18&#45;&gt;ValueRoller&#45;19 -->
<g id="edge19" class="edge">
<title>Roll&#45;18&#45;&gt;ValueRoller&#45;19</title>
<path fill="none" stroke="LightGreen" stroke-dasharray="5,2" d="M906.69,-210.85C911.47,-207.71 916.73,-204.84 922.05,-203 992.31,-178.67 1018.44,-216.31 1089.05,-193 1100.63,-189.17 1100.37,-181.57 1112.05,-178 1166.99,-161.2 1575.41,-190.59 1629.05,-170 1641.93,-165.05 1653.8,-155.63 1663.2,-146.44"/>
<polygon fill="LightGreen" stroke="LightGreen" points="1665.75,-148.83 1670.17,-139.2 1660.71,-143.97 1665.75,-148.83"/>
<text text-anchor="middle" x="1116.55" y="-181.8" font-family="Courier New" font-size="14.00" fill="LightGreen">r</text>
</g>
<!-- Roll&#45;20&#45;&gt;RollOutcome&#45;6 -->
<g id="edge22" class="edge">
<title>Roll&#45;20&#45;&gt;RollOutcome&#45;6</title>
<path fill="none" stroke="LightGoldenRodYellow" stroke-dasharray="5,2" d="M581,-210.97C559.17,-193.3 524.86,-165.54 500.37,-145.73"/>
<polygon fill="LightGoldenRodYellow" stroke="LightGoldenRodYellow" points="502.45,-142.91 492.48,-139.34 498.05,-148.35 502.45,-142.91"/>
<text text-anchor="middle" x="568.05" y="-181.8" font-family="Courier New" font-size="14.00" fill="LightGoldenRodYellow">[0]</text>
</g>
<!-- Roll&#45;20&#45;&gt;ValueRoller&#45;21 -->
<g id="edge21" class="edge">
<title>Roll&#45;20&#45;&gt;ValueRoller&#45;21</title>
<path fill="none" stroke="LightGoldenRodYellow" stroke-dasharray="5,2" d="M629.26,-213.97C639.02,-209.61 650.28,-205.34 661.05,-203 740.12,-185.8 947.81,-217.12 1025.05,-193 1036.7,-189.36 1036.39,-181.61 1048.05,-178 1086.16,-166.21 1369.85,-184.42 1407.05,-170 1419.91,-165.01 1431.78,-155.58 1441.18,-146.39"/>
<polygon fill="LightGoldenRodYellow" stroke="LightGoldenRodYellow" points="1443.73,-148.79 1448.16,-139.16 1438.69,-143.93 1443.73,-148.79"/>
<text text-anchor="middle" x="1052.55" y="-181.8" font-family="Courier New" font-size="14.00" fill="LightGoldenRodYellow">r</text>
</g>
<!-- Roll&#45;22&#45;&gt;RollOutcome&#45;13 -->
<g id="edge24" class="edge">
<title>Roll&#45;22&#45;&gt;RollOutcome&#45;13</title>
<path fill="none" stroke="LightSalmon" stroke-dasharray="5,2" d="M960.56,-210.74C963.69,-184.92 967.24,-134.99 955.05,-95 951.2,-82.38 949.72,-77.75 939.05,-70 917.94,-54.69 890.71,-46.07 866.24,-41.22"/>
<polygon fill="LightSalmon" stroke="LightSalmon" points="866.77,-37.76 856.31,-39.42 865.52,-44.64 866.77,-37.76"/>
<text text-anchor="middle" x="976.05" y="-117.3" font-family="Courier New" font-size="14.00" fill="LightSalmon">[0]</text>
</g>
<!-- Roll&#45;22&#45;&gt;ValueRoller&#45;23 -->
<g id="edge23" class="edge">
<title>Roll&#45;22&#45;&gt;ValueRoller&#45;23</title>
<path fill="none" stroke="LightSalmon" stroke-dasharray="5,2" d="M985.39,-221.99C1041.67,-209.74 1168.85,-182.63 1213.05,-178 1242.17,-174.95 1712.71,-180.49 1740.05,-170 1752.93,-165.06 1764.8,-155.63 1774.2,-146.44"/>
<polygon fill="LightSalmon" stroke="LightSalmon" points="1776.75,-148.83 1781.17,-139.2 1771.71,-143.97 1776.75,-148.83"/>
<text text-anchor="middle" x="1217.55" y="-181.8" font-family="Courier New" font-size="14.00" fill="LightSalmon">r</text>
</g>
<!-- Roll&#45;24&#45;&gt;RollOutcome&#45;8 -->
<g id="edge26" class="edge">
<title>Roll&#45;24&#45;&gt;RollOutcome&#45;8</title>
<path fill="none" stroke="LightPink" stroke-dasharray="5,2" d="M680.34,-210.97C663.23,-193.53 636.47,-166.26 617.09,-146.51"/>
<polygon fill="LightPink" stroke="LightPink" points="619.56,-144.03 610.06,-139.34 614.56,-148.93 619.56,-144.03"/>
<text text-anchor="middle" x="673.05" y="-181.8" font-family="Courier New" font-size="14.00" fill="LightPink">[0]</text>
</g>
<!-- Roll&#45;24&#45;&gt;ValueRoller&#45;25 -->
<g id="edge25" class="edge">
<title>Roll&#45;24&#45;&gt;ValueRoller&#45;25</title>
<path fill="none" stroke="LightPink" stroke-dasharray="5,2" d="M724.28,-222.59C754.78,-216.75 805.75,-207.67 850.05,-203 895.85,-198.17 1013.23,-207.18 1057.05,-193 1068.66,-189.24 1068.38,-181.58 1080.05,-178 1126.57,-163.7 1472.63,-187.51 1518.05,-170 1530.92,-165.04 1542.8,-155.61 1552.19,-146.42"/>
<polygon fill="LightPink" stroke="LightPink" points="1554.74,-148.81 1559.16,-139.18 1549.7,-143.95 1554.74,-148.81"/>
<text text-anchor="middle" x="1084.55" y="-181.8" font-family="Courier New" font-size="14.00" fill="LightPink">r</text>
</g>
</g>
</svg>
