<?xml version="1.0" encoding="UTF-8" standalone="no"?>
<!DOCTYPE svg PUBLIC "-//W3C//DTD SVG 1.1//EN"
 "http://www.w3.org/Graphics/SVG/1.1/DTD/svg11.dtd">
<!-- Generated by graphviz version 2.49.3 (20211023.0002)
 -->
<!-- Pages: 1 -->
<svg width="746pt" height="294pt"
 viewBox="0.00 0.00 746.00 294.00" xmlns="http://www.w3.org/2000/svg" xmlns:xlink="http://www.w3.org/1999/xlink">
<g id="graph0" class="graph" transform="scale(1 1) rotate(0) translate(4 290)">
<g id="clust1" class="cluster">
<title>cluster_rolls</title>
<polygon fill="transparent" stroke="DarkSlateGray" stroke-dasharray="1,5" points="253,-95 253,-278 480,-278 480,-95 253,-95"/>
<text text-anchor="start" x="338" y="-263.8" font-family="Helvetica,sans-Serif" font-style="italic" font-size="14.00" fill="DarkSlateGray">Roll Tree</text>
</g>
<g id="clust2" class="cluster">
<title>cluster_rollers</title>
<polygon fill="transparent" stroke="DarkSlateGray" stroke-dasharray="1,5" points="8,-8 8,-170 245,-170 245,-8 8,-8"/>
<text text-anchor="start" x="92" y="-155.8" font-family="Helvetica,sans-Serif" font-style="italic" font-size="14.00" fill="DarkSlateGray">Roller Tree</text>
</g>
<g id="clust3" class="cluster">
<title>cluster_roll_outcomes</title>
<polygon fill="transparent" stroke="DarkSlateGray" stroke-dasharray="1,5" points="488,-8 488,-170 730,-170 730,-8 488,-8"/>
<text text-anchor="start" x="563" y="-155.8" font-family="Helvetica,sans-Serif" font-style="italic" font-size="14.00" fill="DarkSlateGray">Roll Outcomes</text>
</g>
<!-- Roll&#45;1 -->
<g id="node1" class="node">
<title>Roll&#45;1</title>
<polygon fill="none" stroke="DarkSlateGray" points="364,-247 310,-247 310,-211 364,-211 364,-247"/>
<text text-anchor="start" x="323.5" y="-226.3" font-family="Helvetica,sans-Serif" font-weight="bold" font-size="14.00" fill="DarkSlateGray">Roll</text>
</g>
<!-- BinarySumOpRoller&#45;2 -->
<g id="node2" class="node">
<title>BinarySumOpRoller&#45;2</title>
<polygon fill="none" stroke="DarkSlateGray" points="227,-139 77,-139 77,-103 227,-103 227,-139"/>
<text text-anchor="start" x="85" y="-124.8" font-family="Helvetica,sans-Serif" font-weight="bold" font-size="14.00" fill="DarkSlateGray">BinarySumOpRoller</text>
<text text-anchor="start" x="109.5" y="-110.8" font-family="Courier New" font-size="14.00" fill="DarkSlateGray">bin_op=add</text>
</g>
<!-- Roll&#45;1&#45;&gt;BinarySumOpRoller&#45;2 -->
<g id="edge1" class="edge">
<title>Roll&#45;1&#45;&gt;BinarySumOpRoller&#45;2</title>
<path fill="none" stroke="DarkSlateGray" d="M309.87,-216.17C295.69,-209.74 278.17,-201.39 263,-193 236.08,-178.11 206.82,-159.27 185.1,-144.74"/>
<polygon fill="DarkSlateGray" stroke="DarkSlateGray" points="186.82,-141.68 176.57,-139 182.92,-147.49 186.82,-141.68"/>
<text text-anchor="middle" x="267.5" y="-181.8" font-family="Courier New" font-size="14.00" fill="DarkSlateGray">r</text>
</g>
<!-- RollOutcome&#45;3 -->
<g id="node3" class="node">
<title>RollOutcome&#45;3</title>
<polygon fill="none" stroke="DarkSlateGray" points="600,-139 496,-139 496,-103 600,-103 600,-139"/>
<text text-anchor="start" x="504" y="-124.8" font-family="Helvetica,sans-Serif" font-weight="bold" font-size="14.00" fill="DarkSlateGray">RollOutcome</text>
<text text-anchor="start" x="514" y="-110.8" font-family="Courier New" font-size="14.00" fill="DarkSlateGray">value=11</text>
</g>
<!-- Roll&#45;1&#45;&gt;RollOutcome&#45;3 -->
<g id="edge2" class="edge">
<title>Roll&#45;1&#45;&gt;RollOutcome&#45;3</title>
<path fill="none" stroke="DarkSlateGray" d="M364.07,-223.54C389.8,-218.57 429.05,-209.04 460,-193 483.52,-180.82 506.69,-161.75 523.35,-146.45"/>
<polygon fill="DarkSlateGray" stroke="DarkSlateGray" points="526.08,-148.68 530.97,-139.28 521.29,-143.58 526.08,-148.68"/>
<text text-anchor="middle" x="496" y="-181.8" font-family="Courier New" font-size="14.00" fill="DarkSlateGray">[0]</text>
</g>
<!-- Roll&#45;4 -->
<g id="node4" class="node">
<title>Roll&#45;4</title>
<polygon fill="none" stroke="MediumBlue" stroke-dasharray="5,2" points="315,-139 261,-139 261,-103 315,-103 315,-139"/>
<text text-anchor="start" x="274.5" y="-118.3" font-family="Helvetica,sans-Serif" font-weight="bold" font-size="14.00" fill="MediumBlue">Roll</text>
</g>
<!-- Roll&#45;1&#45;&gt;Roll&#45;4 -->
<g id="edge7" class="edge">
<title>Roll&#45;1&#45;&gt;Roll&#45;4</title>
<path fill="none" stroke="MediumBlue" stroke-dasharray="5,2" d="M309.81,-218.3C298.47,-212.76 286.46,-204.55 280,-193 272.54,-179.67 274.11,-162.74 277.74,-148.76"/>
<polygon fill="MediumBlue" stroke="MediumBlue" points="281.09,-149.77 280.66,-139.19 274.4,-147.74 281.09,-149.77"/>
<text text-anchor="middle" x="322.5" y="-181.8" font-family="Courier New" font-size="14.00" fill="MediumBlue">sources[0]</text>
</g>
<!-- Roll&#45;7 -->
<g id="node7" class="node">
<title>Roll&#45;7</title>
<polygon fill="none" stroke="MediumVioletRed" stroke-dasharray="5,2" points="414,-139 360,-139 360,-103 414,-103 414,-139"/>
<text text-anchor="start" x="373.5" y="-118.3" font-family="Helvetica,sans-Serif" font-weight="bold" font-size="14.00" fill="MediumVioletRed">Roll</text>
</g>
<!-- Roll&#45;1&#45;&gt;Roll&#45;7 -->
<g id="edge8" class="edge">
<title>Roll&#45;1&#45;&gt;Roll&#45;7</title>
<path fill="none" stroke="MediumVioletRed" stroke-dasharray="5,2" d="M352.91,-210.74C357.28,-205.35 361.72,-199.19 365,-193 372.32,-179.19 377.64,-162.55 381.21,-148.86"/>
<polygon fill="MediumVioletRed" stroke="MediumVioletRed" points="384.64,-149.6 383.61,-139.05 377.83,-147.94 384.64,-149.6"/>
<text text-anchor="middle" x="413.5" y="-181.8" font-family="Courier New" font-size="14.00" fill="MediumVioletRed">sources[1]</text>
</g>
<!-- ValueRoller&#45;5 -->
<g id="node5" class="node">
<title>ValueRoller&#45;5</title>
<polygon fill="none" stroke="MediumBlue" stroke-dasharray="5,2" points="125.5,-52 16.5,-52 16.5,-16 125.5,-16 125.5,-52"/>
<text text-anchor="start" x="32.5" y="-37.8" font-family="Helvetica,sans-Serif" font-weight="bold" font-size="14.00" fill="MediumBlue">ValueRoller</text>
<text text-anchor="start" x="24.5" y="-23.8" font-family="Courier New" font-size="14.00" fill="MediumBlue">value=H(12)</text>
</g>
<!-- BinarySumOpRoller&#45;2&#45;&gt;ValueRoller&#45;5 -->
<g id="edge9" class="edge">
<title>BinarySumOpRoller&#45;2&#45;&gt;ValueRoller&#45;5</title>
<path fill="none" stroke="MediumBlue" stroke-dasharray="5,2" d="M94.13,-102.98C86.27,-98.34 79.15,-92.45 74,-85 69.46,-78.43 67.79,-70.15 67.52,-62.22"/>
<polygon fill="MediumBlue" stroke="MediumBlue" points="71.02,-62.29 67.84,-52.18 64.02,-62.06 71.02,-62.29"/>
<text text-anchor="middle" x="116.5" y="-73.8" font-family="Courier New" font-size="14.00" fill="MediumBlue">sources[0]</text>
</g>
<!-- ValueRoller&#45;8 -->
<g id="node8" class="node">
<title>ValueRoller&#45;8</title>
<polygon fill="none" stroke="MediumVioletRed" stroke-dasharray="5,2" points="236.5,-52 143.5,-52 143.5,-16 236.5,-16 236.5,-52"/>
<text text-anchor="start" x="151.5" y="-37.8" font-family="Helvetica,sans-Serif" font-weight="bold" font-size="14.00" fill="MediumVioletRed">ValueRoller</text>
<text text-anchor="start" x="160.5" y="-23.8" font-family="Courier New" font-size="14.00" fill="MediumVioletRed">value=4</text>
</g>
<!-- BinarySumOpRoller&#45;2&#45;&gt;ValueRoller&#45;8 -->
<g id="edge10" class="edge">
<title>BinarySumOpRoller&#45;2&#45;&gt;ValueRoller&#45;8</title>
<path fill="none" stroke="MediumVioletRed" stroke-dasharray="5,2" d="M156.31,-102.93C159.08,-93.08 163.08,-80.58 168,-70 169.39,-67.01 171,-63.96 172.69,-60.97"/>
<polygon fill="MediumVioletRed" stroke="MediumVioletRed" points="175.74,-62.69 177.91,-52.32 169.75,-59.07 175.74,-62.69"/>
<text text-anchor="middle" x="210.5" y="-73.8" font-family="Courier New" font-size="14.00" fill="MediumVioletRed">sources[1]</text>
</g>
<!-- RollOutcome&#45;6 -->
<g id="node6" class="node">
<title>RollOutcome&#45;6</title>
<polygon fill="none" stroke="MediumBlue" stroke-dasharray="5,2" points="600,-52 496,-52 496,-16 600,-16 600,-52"/>
<text text-anchor="start" x="504" y="-37.8" font-family="Helvetica,sans-Serif" font-weight="bold" font-size="14.00" fill="MediumBlue">RollOutcome</text>
<text text-anchor="start" x="518.5" y="-23.8" font-family="Courier New" font-size="14.00" fill="MediumBlue">value=7</text>
</g>
<!-- RollOutcome&#45;3&#45;&gt;RollOutcome&#45;6 -->
<g id="edge11" class="edge">
<title>RollOutcome&#45;3&#45;&gt;RollOutcome&#45;6</title>
<path fill="none" stroke="MediumBlue" stroke-dasharray="5,2" d="M536.43,-102.7C531.45,-93.2 527.31,-81.12 530,-70 530.69,-67.14 531.66,-64.24 532.8,-61.41"/>
<polygon fill="MediumBlue" stroke="MediumBlue" points="536.06,-62.71 537.12,-52.17 529.72,-59.74 536.06,-62.71"/>
<text text-anchor="middle" x="572.5" y="-73.8" font-family="Courier New" font-size="14.00" fill="MediumBlue">sources[0]</text>
</g>
<!-- RollOutcome&#45;9 -->
<g id="node9" class="node">
<title>RollOutcome&#45;9</title>
<polygon fill="none" stroke="MediumVioletRed" stroke-dasharray="5,2" points="722,-52 618,-52 618,-16 722,-16 722,-52"/>
<text text-anchor="start" x="626" y="-37.8" font-family="Helvetica,sans-Serif" font-weight="bold" font-size="14.00" fill="MediumVioletRed">RollOutcome</text>
<text text-anchor="start" x="640.5" y="-23.8" font-family="Courier New" font-size="14.00" fill="MediumVioletRed">value=4</text>
</g>
<!-- RollOutcome&#45;3&#45;&gt;RollOutcome&#45;9 -->
<g id="edge12" class="edge">
<title>RollOutcome&#45;3&#45;&gt;RollOutcome&#45;9</title>
<path fill="none" stroke="MediumVioletRed" stroke-dasharray="5,2" d="M584.81,-102.93C594.9,-97.67 605.64,-91.54 615,-85 625.75,-77.5 636.62,-68.08 645.83,-59.44"/>
<polygon fill="MediumVioletRed" stroke="MediumVioletRed" points="648.35,-61.88 653.14,-52.43 643.5,-56.83 648.35,-61.88"/>
<text text-anchor="middle" x="674.5" y="-73.8" font-family="Courier New" font-size="14.00" fill="MediumVioletRed">sources[1]</text>
</g>
<!-- Roll&#45;4&#45;&gt;ValueRoller&#45;5 -->
<g id="edge3" class="edge">
<title>Roll&#45;4&#45;&gt;ValueRoller&#45;5</title>
<path fill="none" stroke="MediumBlue" stroke-dasharray="5,2" d="M280.47,-102.84C274.63,-91.63 265.43,-77.71 253,-70 210.12,-43.41 188.83,-60.74 135.51,-52"/>
<polygon fill="MediumBlue" stroke="MediumBlue" points="136.02,-48.53 125.54,-50.12 134.73,-55.41 136.02,-48.53"/>
<text text-anchor="middle" x="273.5" y="-73.8" font-family="Courier New" font-size="14.00" fill="MediumBlue">r</text>
</g>
<!-- Roll&#45;4&#45;&gt;RollOutcome&#45;6 -->
<g id="edge4" class="edge">
<title>Roll&#45;4&#45;&gt;RollOutcome&#45;6</title>
<path fill="none" stroke="MediumBlue" stroke-dasharray="5,2" d="M307.78,-102.82C322.84,-90.08 342.54,-74.23 352,-70 394.25,-51.14 445.9,-42.43 485.57,-38.42"/>
<polygon fill="MediumBlue" stroke="MediumBlue" points="486.01,-41.89 495.64,-37.47 485.36,-34.92 486.01,-41.89"/>
<text text-anchor="middle" x="365" y="-73.8" font-family="Courier New" font-size="14.00" fill="MediumBlue">[0]</text>
</g>
<!-- Roll&#45;7&#45;&gt;ValueRoller&#45;8 -->
<g id="edge5" class="edge">
<title>Roll&#45;7&#45;&gt;ValueRoller&#45;8</title>
<path fill="none" stroke="MediumVioletRed" stroke-dasharray="5,2" d="M359.83,-106.23C331.17,-91.7 289.84,-70.79 288,-70 274.77,-64.32 260.29,-58.79 246.61,-53.86"/>
<polygon fill="MediumVioletRed" stroke="MediumVioletRed" points="247.42,-50.44 236.82,-50.39 245.07,-57.03 247.42,-50.44"/>
<text text-anchor="middle" x="320.5" y="-73.8" font-family="Courier New" font-size="14.00" fill="MediumVioletRed">r</text>
</g>
<!-- Roll&#45;7&#45;&gt;RollOutcome&#45;9 -->
<g id="edge6" class="edge">
<title>Roll&#45;7&#45;&gt;RollOutcome&#45;9</title>
<path fill="none" stroke="MediumVioletRed" stroke-dasharray="5,2" d="M414.31,-105.41C436.54,-94.14 469.01,-78.98 499,-70 543.58,-56.65 558.79,-61.91 607.91,-52.04"/>
<polygon fill="MediumVioletRed" stroke="MediumVioletRed" points="608.79,-55.43 617.85,-49.94 607.34,-48.59 608.79,-55.43"/>
<text text-anchor="middle" x="512" y="-73.8" font-family="Courier New" font-size="14.00" fill="MediumVioletRed">[0]</text>
</g>
</g>
</svg>
