<?xml version="1.0" encoding="UTF-8" standalone="no"?>
<!DOCTYPE svg PUBLIC "-//W3C//DTD SVG 1.1//EN"
 "http://www.w3.org/Graphics/SVG/1.1/DTD/svg11.dtd">
<!-- Generated by graphviz version 2.49.3 (20211023.0002)
 -->
<!-- Title: classes_dyce_r_dark Pages: 1 -->
<svg width="661pt" height="264pt"
 viewBox="0.00 0.00 660.50 264.00" xmlns="http://www.w3.org/2000/svg" xmlns:xlink="http://www.w3.org/1999/xlink">
<g id="graph0" class="graph" transform="scale(1 1) rotate(0) translate(4 260)">
<title>classes_dyce_r_dark</title>
<!-- dyce.r.BasicOpRoller -->
<g id="node1" class="node">
<title>dyce.r.BasicOpRoller</title>
<polygon fill="none" stroke="Azure" points="451.5,-146.5 451.5,-182.5 557.5,-182.5 557.5,-146.5 451.5,-146.5"/>
<text text-anchor="middle" x="504.5" y="-160.8" font-family="Helvetica,sans-Serif" font-size="14.00" fill="Azure">BasicOpRoller</text>
</g>
<!-- dyce.r.R -->
<g id="node2" class="node">
<title>dyce.r.R</title>
<polygon fill="none" stroke="Azure" points="244.5,-219.5 244.5,-255.5 298.5,-255.5 298.5,-219.5 244.5,-219.5"/>
<text text-anchor="middle" x="271.5" y="-233.8" font-family="Helvetica,sans-Serif" font-size="14.00" fill="Azure">R</text>
</g>
<!-- dyce.r.BasicOpRoller&#45;&gt;dyce.r.R -->
<g id="edge1" class="edge">
<title>dyce.r.BasicOpRoller&#45;&gt;dyce.r.R</title>
<path fill="none" stroke="Azure" d="M451.34,-181.7C407.69,-195 347,-213.49 308.49,-225.23"/>
<polygon fill="none" stroke="Azure" points="307.27,-221.94 298.72,-228.2 309.31,-228.64 307.27,-221.94"/>
</g>
<!-- dyce.r.BinarySumOpRoller -->
<g id="node3" class="node">
<title>dyce.r.BinarySumOpRoller</title>
<polygon fill="none" stroke="Azure" points="356.5,-0.5 356.5,-36.5 496.5,-36.5 496.5,-0.5 356.5,-0.5"/>
<text text-anchor="middle" x="426.5" y="-14.8" font-family="Helvetica,sans-Serif" font-size="14.00" fill="Azure">BinarySumOpRoller</text>
</g>
<!-- dyce.r.NarySumOpRoller -->
<g id="node4" class="node">
<title>dyce.r.NarySumOpRoller</title>
<polygon fill="none" stroke="Azure" points="439.5,-73.5 439.5,-109.5 569.5,-109.5 569.5,-73.5 439.5,-73.5"/>
<text text-anchor="middle" x="504.5" y="-87.8" font-family="Helvetica,sans-Serif" font-size="14.00" fill="Azure">NarySumOpRoller</text>
</g>
<!-- dyce.r.BinarySumOpRoller&#45;&gt;dyce.r.NarySumOpRoller -->
<g id="edge2" class="edge">
<title>dyce.r.BinarySumOpRoller&#45;&gt;dyce.r.NarySumOpRoller</title>
<path fill="none" stroke="Azure" d="M445.38,-36.69C455.25,-45.67 467.48,-56.81 478.26,-66.61"/>
<polygon fill="none" stroke="Azure" points="476.04,-69.33 485.79,-73.47 480.75,-64.15 476.04,-69.33"/>
</g>
<!-- dyce.r.NarySumOpRoller&#45;&gt;dyce.r.BasicOpRoller -->
<g id="edge3" class="edge">
<title>dyce.r.NarySumOpRoller&#45;&gt;dyce.r.BasicOpRoller</title>
<path fill="none" stroke="Azure" d="M504.5,-109.69C504.5,-117.71 504.5,-127.45 504.5,-136.43"/>
<polygon fill="none" stroke="Azure" points="501,-136.47 504.5,-146.47 508,-136.47 501,-136.47"/>
</g>
<!-- dyce.r.PoolRoller -->
<g id="node5" class="node">
<title>dyce.r.PoolRoller</title>
<polygon fill="none" stroke="Azure" points="0,-146.5 0,-182.5 81,-182.5 81,-146.5 0,-146.5"/>
<text text-anchor="middle" x="40.5" y="-160.8" font-family="Helvetica,sans-Serif" font-size="14.00" fill="Azure">PoolRoller</text>
</g>
<!-- dyce.r.PoolRoller&#45;&gt;dyce.r.R -->
<g id="edge4" class="edge">
<title>dyce.r.PoolRoller&#45;&gt;dyce.r.R</title>
<path fill="none" stroke="Azure" d="M81.1,-179.9C84.28,-180.97 87.44,-182.01 90.5,-183 140.1,-199 197.93,-215.77 234.62,-226.18"/>
<polygon fill="none" stroke="Azure" points="233.81,-229.58 244.39,-228.94 235.72,-222.85 233.81,-229.58"/>
</g>
<!-- dyce.r.RepeatRoller -->
<g id="node6" class="node">
<title>dyce.r.RepeatRoller</title>
<polygon fill="none" stroke="Azure" points="99.5,-146.5 99.5,-182.5 197.5,-182.5 197.5,-146.5 99.5,-146.5"/>
<text text-anchor="middle" x="148.5" y="-160.8" font-family="Helvetica,sans-Serif" font-size="14.00" fill="Azure">RepeatRoller</text>
</g>
<!-- dyce.r.RepeatRoller&#45;&gt;dyce.r.R -->
<g id="edge5" class="edge">
<title>dyce.r.RepeatRoller&#45;&gt;dyce.r.R</title>
<path fill="none" stroke="Azure" d="M177.96,-182.51C195.31,-192.52 217.37,-205.25 235.71,-215.84"/>
<polygon fill="none" stroke="Azure" points="233.97,-218.88 244.38,-220.85 237.47,-212.82 233.97,-218.88"/>
</g>
<!-- dyce.r.SelectionRoller -->
<g id="node7" class="node">
<title>dyce.r.SelectionRoller</title>
<polygon fill="none" stroke="Azure" points="216,-146.5 216,-182.5 327,-182.5 327,-146.5 216,-146.5"/>
<text text-anchor="middle" x="271.5" y="-160.8" font-family="Helvetica,sans-Serif" font-size="14.00" fill="Azure">SelectionRoller</text>
</g>
<!-- dyce.r.SelectionRoller&#45;&gt;dyce.r.R -->
<g id="edge6" class="edge">
<title>dyce.r.SelectionRoller&#45;&gt;dyce.r.R</title>
<path fill="none" stroke="Azure" d="M271.5,-182.69C271.5,-190.71 271.5,-200.45 271.5,-209.43"/>
<polygon fill="none" stroke="Azure" points="268,-209.47 271.5,-219.47 275,-209.47 268,-209.47"/>
</g>
<!-- dyce.r.UnarySumOpRoller -->
<g id="node8" class="node">
<title>dyce.r.UnarySumOpRoller</title>
<polygon fill="none" stroke="Azure" points="514.5,-0.5 514.5,-36.5 652.5,-36.5 652.5,-0.5 514.5,-0.5"/>
<text text-anchor="middle" x="583.5" y="-14.8" font-family="Helvetica,sans-Serif" font-size="14.00" fill="Azure">UnarySumOpRoller</text>
</g>
<!-- dyce.r.UnarySumOpRoller&#45;&gt;dyce.r.NarySumOpRoller -->
<g id="edge7" class="edge">
<title>dyce.r.UnarySumOpRoller&#45;&gt;dyce.r.NarySumOpRoller</title>
<path fill="none" stroke="Azure" d="M564.38,-36.69C554.38,-45.67 541.99,-56.81 531.08,-66.61"/>
<polygon fill="none" stroke="Azure" points="528.55,-64.18 523.45,-73.47 533.22,-69.39 528.55,-64.18"/>
</g>
<!-- dyce.r.ValueRoller -->
<g id="node9" class="node">
<title>dyce.r.ValueRoller</title>
<polygon fill="none" stroke="Azure" points="345.5,-146.5 345.5,-182.5 433.5,-182.5 433.5,-146.5 345.5,-146.5"/>
<text text-anchor="middle" x="389.5" y="-160.8" font-family="Helvetica,sans-Serif" font-size="14.00" fill="Azure">ValueRoller</text>
</g>
<!-- dyce.r.ValueRoller&#45;&gt;dyce.r.R -->
<g id="edge8" class="edge">
<title>dyce.r.ValueRoller&#45;&gt;dyce.r.R</title>
<path fill="none" stroke="Azure" d="M361.24,-182.51C345.1,-192.22 324.7,-204.49 307.43,-214.88"/>
<polygon fill="none" stroke="Azure" points="305.48,-211.97 298.72,-220.12 309.09,-217.96 305.48,-211.97"/>
</g>
</g>
</svg>
