<?xml version="1.0" encoding="UTF-8" standalone="no"?>
<!DOCTYPE svg PUBLIC "-//W3C//DTD SVG 1.1//EN"
 "http://www.w3.org/Graphics/SVG/1.1/DTD/svg11.dtd">
<!-- Generated by graphviz version 2.41.20171026.1811 (20171026.1811)
 -->
<!-- Title: %3 Pages: 1 -->
<svg width="1070pt" height="367pt"
 viewBox="0.00 0.00 1070.00 367.00" xmlns="http://www.w3.org/2000/svg" xmlns:xlink="http://www.w3.org/1999/xlink">
<g id="graph0" class="graph" transform="scale(1 1) rotate(0) translate(4 363)">
<title>%3</title>
<g id="clust1" class="cluster">
<title>cluster_rolls</title>
<polygon fill="transparent" stroke="Azure" stroke-dasharray="1,5" points="303,-95 303,-351 543,-351 543,-95 303,-95"/>
<text text-anchor="start" x="394.5" y="-336.8" font-family="Helvetica,sans-Serif" font-style="italic" font-size="14.00" fill="Azure">Roll Tree</text>
</g>
<g id="clust2" class="cluster">
<title>cluster_rollers</title>
<polygon fill="transparent" stroke="Azure" stroke-dasharray="1,5" points="8,-8 8,-243 295,-243 295,-8 8,-8"/>
<text text-anchor="start" x="116.5" y="-228.8" font-family="Helvetica,sans-Serif" font-style="italic" font-size="14.00" fill="Azure">Roller Tree</text>
</g>
<g id="clust3" class="cluster">
<title>cluster_roll_outcomes</title>
<polygon fill="transparent" stroke="Azure" stroke-dasharray="1,5" points="551,-8 551,-243 1037,-243 1037,-8 551,-8"/>
<text text-anchor="start" x="748" y="-228.8" font-family="Helvetica,sans-Serif" font-style="italic" font-size="14.00" fill="Azure">Roll Outcomes</text>
</g>
<!-- Roll&#45;1 -->
<g id="node1" class="node">
<title>Roll&#45;1</title>
<polygon fill="none" stroke="Azure" points="535,-320 481,-320 481,-284 535,-284 535,-320"/>
<text text-anchor="start" x="494.5" y="-299.3" font-family="Helvetica,sans-Serif" font-weight="bold" font-size="14.00" fill="Azure">Roll</text>
</g>
<!-- SelectionRoller&#45;2 -->
<g id="node2" class="node">
<title>SelectionRoller&#45;2</title>
<polygon fill="none" stroke="Azure" points="287,-212 27,-212 27,-176 287,-176 287,-212"/>
<text text-anchor="start" x="106" y="-197.8" font-family="Helvetica,sans-Serif" font-weight="bold" font-size="14.00" fill="Azure">SelectionRoller</text>
<text text-anchor="start" x="35" y="-183.8" font-family="Courier New" font-size="14.00" fill="Azure">which=(slice(1, None, None),)</text>
</g>
<!-- Roll&#45;1&#45;&gt;SelectionRoller&#45;2 -->
<g id="edge1" class="edge">
<title>Roll&#45;1&#45;&gt;SelectionRoller&#45;2</title>
<path fill="none" stroke="Azure" d="M480.97,-298.2C443.19,-293.81 372.73,-283.91 315,-266 273.87,-253.24 229.32,-232.54 198.05,-216.78"/>
<polygon fill="Azure" stroke="Azure" points="199.28,-213.48 188.78,-212.06 196.1,-219.72 199.28,-213.48"/>
<text text-anchor="middle" x="319.5" y="-254.8" font-family="Courier New" font-size="14.00" fill="Azure">r</text>
</g>
<!-- RollOutcome&#45;3 -->
<g id="node3" class="node">
<title>RollOutcome&#45;3</title>
<polygon fill="none" stroke="Azure" points="1029,-212 925,-212 925,-176 1029,-176 1029,-212"/>
<text text-anchor="start" x="933" y="-197.8" font-family="Helvetica,sans-Serif" font-weight="bold" font-size="14.00" fill="Azure">RollOutcome</text>
<text text-anchor="start" x="947.5" y="-183.8" font-family="Courier New" font-size="14.00" fill="Azure">value=2</text>
</g>
<!-- Roll&#45;1&#45;&gt;RollOutcome&#45;3 -->
<g id="edge2" class="edge">
<title>Roll&#45;1&#45;&gt;RollOutcome&#45;3</title>
<path fill="none" stroke="Azure" d="M535.04,-299.19C614.74,-293.53 847.48,-274.66 916,-243 929.06,-236.96 941.84,-227.61 952.3,-218.76"/>
<polygon fill="Azure" stroke="Azure" points="954.61,-221.39 959.81,-212.15 949.99,-216.13 954.61,-221.39"/>
<text text-anchor="middle" x="904" y="-254.8" font-family="Courier New" font-size="14.00" fill="Azure">[0]</text>
</g>
<!-- RollOutcome&#45;4 -->
<g id="node4" class="node">
<title>RollOutcome&#45;4</title>
<polygon fill="none" stroke="Azure" points="907,-212 803,-212 803,-176 907,-176 907,-212"/>
<text text-anchor="start" x="811" y="-197.8" font-family="Helvetica,sans-Serif" font-weight="bold" font-size="14.00" fill="Azure">RollOutcome</text>
<text text-anchor="start" x="825.5" y="-183.8" font-family="Courier New" font-size="14.00" fill="Azure">value=4</text>
</g>
<!-- Roll&#45;1&#45;&gt;RollOutcome&#45;4 -->
<g id="edge3" class="edge">
<title>Roll&#45;1&#45;&gt;RollOutcome&#45;4</title>
<path fill="none" stroke="Azure" d="M535.34,-299.72C587.85,-296.35 705.42,-284.41 794,-243 807.04,-236.91 819.81,-227.54 830.27,-218.7"/>
<polygon fill="Azure" stroke="Azure" points="832.58,-221.33 837.79,-212.1 827.96,-216.07 832.58,-221.33"/>
<text text-anchor="middle" x="785" y="-254.8" font-family="Courier New" font-size="14.00" fill="Azure">[1]</text>
</g>
<!-- RollOutcome&#45;5 -->
<g id="node5" class="node">
<title>RollOutcome&#45;5</title>
<polygon fill="none" stroke="Azure" points="785,-212 681,-212 681,-176 785,-176 785,-212"/>
<text text-anchor="start" x="689" y="-197.8" font-family="Helvetica,sans-Serif" font-weight="bold" font-size="14.00" fill="Azure">RollOutcome</text>
<text text-anchor="start" x="703.5" y="-183.8" font-family="Courier New" font-size="14.00" fill="Azure">value=4</text>
</g>
<!-- Roll&#45;1&#45;&gt;RollOutcome&#45;5 -->
<g id="edge4" class="edge">
<title>Roll&#45;1&#45;&gt;RollOutcome&#45;5</title>
<path fill="none" stroke="Azure" d="M535.27,-294.3C568.78,-285.42 626.76,-267.91 672,-243 684.2,-236.28 696.5,-227.16 706.82,-218.68"/>
<polygon fill="Azure" stroke="Azure" points="709.26,-221.2 714.63,-212.07 704.74,-215.85 709.26,-221.2"/>
<text text-anchor="middle" x="668" y="-254.8" font-family="Courier New" font-size="14.00" fill="Azure">[2]</text>
</g>
<!-- RollOutcome&#45;6 -->
<g id="node6" class="node">
<title>RollOutcome&#45;6</title>
<polygon fill="none" stroke="Azure" stroke-dasharray="1,5" points="663,-212 559,-212 559,-176 663,-176 663,-212"/>
<text text-anchor="start" x="567" y="-197.8" font-family="Helvetica,sans-Serif" font-weight="bold" font-size="14.00" fill="Azure">RollOutcome</text>
<text text-anchor="start" x="568.5" y="-183.8" font-family="Courier New" font-size="14.00" fill="Azure">value=None</text>
</g>
<!-- Roll&#45;1&#45;&gt;RollOutcome&#45;6 -->
<g id="edge5" class="edge">
<title>Roll&#45;1&#45;&gt;RollOutcome&#45;6</title>
<path fill="none" stroke="Azure" d="M524.55,-283.97C541.42,-266.61 567.76,-239.5 586.93,-219.77"/>
<polygon fill="Azure" stroke="Azure" points="589.69,-221.95 594.15,-212.34 584.67,-217.07 589.69,-221.95"/>
<text text-anchor="middle" x="569" y="-254.8" font-family="Courier New" font-size="14.00" fill="Azure">[3]</text>
</g>
<!-- Roll&#45;7 -->
<g id="node7" class="node">
<title>Roll&#45;7</title>
<polygon fill="none" stroke="LightBlue" stroke-dasharray="5,2" points="478,-139 424,-139 424,-103 478,-103 478,-139"/>
<text text-anchor="start" x="437.5" y="-118.3" font-family="Helvetica,sans-Serif" font-weight="bold" font-size="14.00" fill="LightBlue">Roll</text>
</g>
<!-- Roll&#45;1&#45;&gt;Roll&#45;7 -->
<g id="edge12" class="edge">
<title>Roll&#45;1&#45;&gt;Roll&#45;7</title>
<path fill="none" stroke="LightBlue" stroke-dasharray="5,2" d="M490.05,-283.95C479.97,-273.23 468.21,-258.51 462,-243 449.85,-212.63 448.38,-174.66 449.11,-149.44"/>
<polygon fill="LightBlue" stroke="LightBlue" points="452.62,-149.29 449.56,-139.15 445.63,-148.99 452.62,-149.29"/>
<text text-anchor="middle" x="504.5" y="-190.3" font-family="Courier New" font-size="14.00" fill="LightBlue">sources[0]</text>
</g>
<!-- Roll&#45;12 -->
<g id="node12" class="node">
<title>Roll&#45;12</title>
<polygon fill="none" stroke="LightPink" stroke-dasharray="5,2" points="365,-139 311,-139 311,-103 365,-103 365,-139"/>
<text text-anchor="start" x="324.5" y="-118.3" font-family="Helvetica,sans-Serif" font-weight="bold" font-size="14.00" fill="LightPink">Roll</text>
</g>
<!-- Roll&#45;1&#45;&gt;Roll&#45;12 -->
<g id="edge13" class="edge">
<title>Roll&#45;1&#45;&gt;Roll&#45;12</title>
<path fill="none" stroke="LightPink" stroke-dasharray="5,2" d="M480.98,-298.29C447.26,-293.39 390.34,-279.86 360,-243 338.42,-216.77 335.16,-176.42 335.79,-149.62"/>
<polygon fill="LightPink" stroke="LightPink" points="339.3,-149.53 336.24,-139.39 332.31,-149.23 339.3,-149.53"/>
<text text-anchor="middle" x="402.5" y="-190.3" font-family="Courier New" font-size="14.00" fill="LightPink">sources[1]</text>
</g>
<!-- ValueRoller&#45;8 -->
<g id="node8" class="node">
<title>ValueRoller&#45;8</title>
<polygon fill="none" stroke="LightBlue" stroke-dasharray="5,2" points="286.5,-52 135.5,-52 135.5,-16 286.5,-16 286.5,-52"/>
<text text-anchor="start" x="172" y="-37.8" font-family="Helvetica,sans-Serif" font-weight="bold" font-size="14.00" fill="LightBlue">ValueRoller</text>
<text text-anchor="start" x="143.5" y="-23.8" font-family="Courier New" font-size="14.00" fill="LightBlue">value=P(6, 6, 6)</text>
</g>
<!-- SelectionRoller&#45;2&#45;&gt;ValueRoller&#45;8 -->
<g id="edge14" class="edge">
<title>SelectionRoller&#45;2&#45;&gt;ValueRoller&#45;8</title>
<path fill="none" stroke="LightBlue" stroke-dasharray="5,2" d="M162.88,-175.79C172.25,-148.37 190.65,-94.53 201.79,-61.96"/>
<polygon fill="LightBlue" stroke="LightBlue" points="205.2,-62.78 205.13,-52.19 198.58,-60.52 205.2,-62.78"/>
<text text-anchor="middle" x="233.5" y="-117.3" font-family="Courier New" font-size="14.00" fill="LightBlue">sources[0]</text>
</g>
<!-- ValueRoller&#45;13 -->
<g id="node13" class="node">
<title>ValueRoller&#45;13</title>
<polygon fill="none" stroke="LightPink" stroke-dasharray="5,2" points="117.5,-52 16.5,-52 16.5,-16 117.5,-16 117.5,-52"/>
<text text-anchor="start" x="28" y="-37.8" font-family="Helvetica,sans-Serif" font-weight="bold" font-size="14.00" fill="LightPink">ValueRoller</text>
<text text-anchor="start" x="24.5" y="-23.8" font-family="Courier New" font-size="14.00" fill="LightPink">value=H(8)</text>
</g>
<!-- SelectionRoller&#45;2&#45;&gt;ValueRoller&#45;13 -->
<g id="edge15" class="edge">
<title>SelectionRoller&#45;2&#45;&gt;ValueRoller&#45;13</title>
<path fill="none" stroke="LightPink" stroke-dasharray="5,2" d="M125.47,-175.82C111.58,-166.67 96.33,-154.16 87,-139 72.67,-115.72 68.24,-84.41 67.04,-62.24"/>
<polygon fill="LightPink" stroke="LightPink" points="70.54,-62.04 66.68,-52.17 63.54,-62.28 70.54,-62.04"/>
<text text-anchor="middle" x="129.5" y="-117.3" font-family="Courier New" font-size="14.00" fill="LightPink">sources[1]</text>
</g>
<!-- RollOutcome&#45;9 -->
<g id="node9" class="node">
<title>RollOutcome&#45;9</title>
<polygon fill="none" stroke="LightBlue" stroke-dasharray="5,2" points="1029,-52 925,-52 925,-16 1029,-16 1029,-52"/>
<text text-anchor="start" x="933" y="-37.8" font-family="Helvetica,sans-Serif" font-weight="bold" font-size="14.00" fill="LightBlue">RollOutcome</text>
<text text-anchor="start" x="947.5" y="-23.8" font-family="Courier New" font-size="14.00" fill="LightBlue">value=2</text>
</g>
<!-- RollOutcome&#45;3&#45;&gt;RollOutcome&#45;9 -->
<g id="edge16" class="edge">
<title>RollOutcome&#45;3&#45;&gt;RollOutcome&#45;9</title>
<path fill="none" stroke="LightBlue" stroke-dasharray="5,2" d="M977,-175.79C977,-148.48 977,-94.99 977,-62.38"/>
<polygon fill="LightBlue" stroke="LightBlue" points="980.5,-62.19 977,-52.19 973.5,-62.19 980.5,-62.19"/>
<text text-anchor="middle" x="1019.5" y="-117.3" font-family="Courier New" font-size="14.00" fill="LightBlue">sources[0]</text>
</g>
<!-- RollOutcome&#45;10 -->
<g id="node10" class="node">
<title>RollOutcome&#45;10</title>
<polygon fill="none" stroke="LightBlue" stroke-dasharray="5,2" points="907,-52 803,-52 803,-16 907,-16 907,-52"/>
<text text-anchor="start" x="811" y="-37.8" font-family="Helvetica,sans-Serif" font-weight="bold" font-size="14.00" fill="LightBlue">RollOutcome</text>
<text text-anchor="start" x="825.5" y="-23.8" font-family="Courier New" font-size="14.00" fill="LightBlue">value=4</text>
</g>
<!-- RollOutcome&#45;4&#45;&gt;RollOutcome&#45;10 -->
<g id="edge17" class="edge">
<title>RollOutcome&#45;4&#45;&gt;RollOutcome&#45;10</title>
<path fill="none" stroke="LightBlue" stroke-dasharray="5,2" d="M855,-175.79C855,-148.48 855,-94.99 855,-62.38"/>
<polygon fill="LightBlue" stroke="LightBlue" points="858.5,-62.19 855,-52.19 851.5,-62.19 858.5,-62.19"/>
<text text-anchor="middle" x="897.5" y="-117.3" font-family="Courier New" font-size="14.00" fill="LightBlue">sources[0]</text>
</g>
<!-- RollOutcome&#45;11 -->
<g id="node11" class="node">
<title>RollOutcome&#45;11</title>
<polygon fill="none" stroke="LightBlue" stroke-dasharray="5,2" points="785,-52 681,-52 681,-16 785,-16 785,-52"/>
<text text-anchor="start" x="689" y="-37.8" font-family="Helvetica,sans-Serif" font-weight="bold" font-size="14.00" fill="LightBlue">RollOutcome</text>
<text text-anchor="start" x="703.5" y="-23.8" font-family="Courier New" font-size="14.00" fill="LightBlue">value=4</text>
</g>
<!-- RollOutcome&#45;5&#45;&gt;RollOutcome&#45;11 -->
<g id="edge18" class="edge">
<title>RollOutcome&#45;5&#45;&gt;RollOutcome&#45;11</title>
<path fill="none" stroke="LightBlue" stroke-dasharray="5,2" d="M733,-175.79C733,-148.48 733,-94.99 733,-62.38"/>
<polygon fill="LightBlue" stroke="LightBlue" points="736.5,-62.19 733,-52.19 729.5,-62.19 736.5,-62.19"/>
<text text-anchor="middle" x="775.5" y="-117.3" font-family="Courier New" font-size="14.00" fill="LightBlue">sources[0]</text>
</g>
<!-- RollOutcome&#45;14 -->
<g id="node14" class="node">
<title>RollOutcome&#45;14</title>
<polygon fill="none" stroke="LightPink" stroke-dasharray="5,2" points="663,-52 559,-52 559,-16 663,-16 663,-52"/>
<text text-anchor="start" x="567" y="-37.8" font-family="Helvetica,sans-Serif" font-weight="bold" font-size="14.00" fill="LightPink">RollOutcome</text>
<text text-anchor="start" x="581.5" y="-23.8" font-family="Courier New" font-size="14.00" fill="LightPink">value=1</text>
</g>
<!-- RollOutcome&#45;6&#45;&gt;RollOutcome&#45;14 -->
<g id="edge19" class="edge">
<title>RollOutcome&#45;6&#45;&gt;RollOutcome&#45;14</title>
<path fill="none" stroke="LightPink" stroke-dasharray="5,2" d="M611,-175.79C611,-148.48 611,-94.99 611,-62.38"/>
<polygon fill="LightPink" stroke="LightPink" points="614.5,-62.19 611,-52.19 607.5,-62.19 614.5,-62.19"/>
<text text-anchor="middle" x="653.5" y="-117.3" font-family="Courier New" font-size="14.00" fill="LightPink">sources[0]</text>
</g>
<!-- Roll&#45;7&#45;&gt;ValueRoller&#45;8 -->
<g id="edge6" class="edge">
<title>Roll&#45;7&#45;&gt;ValueRoller&#45;8</title>
<path fill="none" stroke="LightBlue" stroke-dasharray="5,2" d="M423.99,-110.97C409.26,-106.11 390.67,-100.09 374,-95 358.53,-90.28 354.33,-90.17 339,-85 313.07,-76.25 284.68,-65.31 261.24,-55.89"/>
<polygon fill="LightBlue" stroke="LightBlue" points="262.44,-52.6 251.86,-52.09 259.81,-59.09 262.44,-52.6"/>
<text text-anchor="middle" x="343.5" y="-73.8" font-family="Courier New" font-size="14.00" fill="LightBlue">r</text>
</g>
<!-- Roll&#45;7&#45;&gt;RollOutcome&#45;9 -->
<g id="edge7" class="edge">
<title>Roll&#45;7&#45;&gt;RollOutcome&#45;9</title>
<path fill="none" stroke="LightBlue" stroke-dasharray="5,2" d="M478.08,-111.87C497.19,-106.4 523.47,-99.41 547,-95 706.11,-65.16 752.19,-83.08 915.01,-52.02"/>
<polygon fill="LightBlue" stroke="LightBlue" points="915.73,-55.44 924.88,-50.1 914.4,-48.57 915.73,-55.44"/>
<text text-anchor="middle" x="801" y="-73.8" font-family="Courier New" font-size="14.00" fill="LightBlue">[0]</text>
</g>
<!-- Roll&#45;7&#45;&gt;RollOutcome&#45;10 -->
<g id="edge8" class="edge">
<title>Roll&#45;7&#45;&gt;RollOutcome&#45;10</title>
<path fill="none" stroke="LightBlue" stroke-dasharray="5,2" d="M462.84,-102.85C471.85,-91.35 485.33,-77.06 501,-70 557.92,-44.35 715.33,-61.22 792.96,-51.73"/>
<polygon fill="LightBlue" stroke="LightBlue" points="793.52,-55.19 802.92,-50.29 792.52,-48.26 793.52,-55.19"/>
<text text-anchor="middle" x="514" y="-73.8" font-family="Courier New" font-size="14.00" fill="LightBlue">[1]</text>
</g>
<!-- Roll&#45;7&#45;&gt;RollOutcome&#45;11 -->
<g id="edge9" class="edge">
<title>Roll&#45;7&#45;&gt;RollOutcome&#45;11</title>
<path fill="none" stroke="LightBlue" stroke-dasharray="5,2" d="M446.04,-102.53C444.13,-91.78 444.03,-78.48 452,-70 467.52,-53.49 621.52,-55.8 670.95,-51.45"/>
<polygon fill="LightBlue" stroke="LightBlue" points="671.41,-54.92 680.91,-50.22 670.55,-47.97 671.41,-54.92"/>
<text text-anchor="middle" x="465" y="-73.8" font-family="Courier New" font-size="14.00" fill="LightBlue">[2]</text>
</g>
<!-- Roll&#45;12&#45;&gt;ValueRoller&#45;13 -->
<g id="edge10" class="edge">
<title>Roll&#45;12&#45;&gt;ValueRoller&#45;13</title>
<path fill="none" stroke="LightPink" stroke-dasharray="5,2" d="M313.92,-102.86C309.13,-99.94 304.02,-97.16 299,-95 229.22,-64.94 204.55,-71.87 127.94,-52.42"/>
<polygon fill="LightPink" stroke="LightPink" points="128.38,-48.91 117.82,-49.77 126.61,-55.69 128.38,-48.91"/>
<text text-anchor="middle" x="276.5" y="-73.8" font-family="Courier New" font-size="14.00" fill="LightPink">r</text>
</g>
<!-- Roll&#45;12&#45;&gt;RollOutcome&#45;14 -->
<g id="edge11" class="edge">
<title>Roll&#45;12&#45;&gt;RollOutcome&#45;14</title>
<path fill="none" stroke="LightPink" stroke-dasharray="5,2" d="M355.22,-102.93C367.51,-91.77 384.99,-77.85 403,-70 449.2,-49.85 505.86,-41.25 548.36,-37.61"/>
<polygon fill="LightPink" stroke="LightPink" points="548.88,-41.08 558.58,-36.8 548.33,-34.1 548.88,-41.08"/>
<text text-anchor="middle" x="416" y="-73.8" font-family="Courier New" font-size="14.00" fill="LightPink">[0]</text>
</g>
</g>
</svg>
