<?xml version="1.0" encoding="UTF-8" standalone="no"?>
<!DOCTYPE svg PUBLIC "-//W3C//DTD SVG 1.1//EN"
 "http://www.w3.org/Graphics/SVG/1.1/DTD/svg11.dtd">
<!-- Generated by graphviz version 2.41.20171026.1811 (20171026.1811)
 -->
<!-- Title: classes_dyce_r Pages: 1 -->
<svg width="620pt" height="264pt"
 viewBox="0.00 0.00 619.50 264.00" xmlns="http://www.w3.org/2000/svg" xmlns:xlink="http://www.w3.org/1999/xlink">
<g id="graph0" class="graph" transform="scale(1 1) rotate(0) translate(4 260)">
<title>classes_dyce_r</title>
<!-- dyce.r.BinaryOperationRoller -->
<g id="node1" class="node">
<title>dyce.r.BinaryOperationRoller</title>
<polygon fill="none" stroke="Azure" points="0,-0.5 0,-36.5 154,-36.5 154,-0.5 0,-0.5"/>
<text text-anchor="middle" x="77" y="-14.8" font-family="Helvetica,sans-Serif" font-size="14.00" fill="Azure">BinaryOperationRoller</text>
</g>
<!-- dyce.r.SumRoller -->
<g id="node2" class="node">
<title>dyce.r.SumRoller</title>
<polygon fill="none" stroke="Azure" points="207,-73.5 207,-109.5 289,-109.5 289,-73.5 207,-73.5"/>
<text text-anchor="middle" x="248" y="-87.8" font-family="Helvetica,sans-Serif" font-size="14.00" fill="Azure">SumRoller</text>
</g>
<!-- dyce.r.BinaryOperationRoller&#45;&gt;dyce.r.SumRoller -->
<g id="edge1" class="edge">
<title>dyce.r.BinaryOperationRoller&#45;&gt;dyce.r.SumRoller</title>
<path fill="none" stroke="Azure" d="M117.96,-36.51C141.79,-46.4 172.03,-58.96 197.34,-69.47"/>
<polygon fill="none" stroke="Azure" points="196.21,-72.78 206.78,-73.39 198.89,-66.32 196.21,-72.78"/>
</g>
<!-- dyce.r.OperationRollerBase -->
<g id="node3" class="node">
<title>dyce.r.OperationRollerBase</title>
<polygon fill="none" stroke="Azure" points="242,-146.5 242,-182.5 388,-182.5 388,-146.5 242,-146.5"/>
<text text-anchor="middle" x="315" y="-160.8" font-family="Helvetica,sans-Serif" font-size="14.00" fill="Azure">OperationRollerBase</text>
</g>
<!-- dyce.r.SumRoller&#45;&gt;dyce.r.OperationRollerBase -->
<g id="edge2" class="edge">
<title>dyce.r.SumRoller&#45;&gt;dyce.r.OperationRollerBase</title>
<path fill="none" stroke="Azure" d="M264.22,-109.69C272.53,-118.5 282.8,-129.37 291.92,-139.04"/>
<polygon fill="none" stroke="Azure" points="289.52,-141.6 298.93,-146.47 294.61,-136.8 289.52,-141.6"/>
</g>
<!-- dyce.r.R -->
<g id="node5" class="node">
<title>dyce.r.R</title>
<polygon fill="none" stroke="Azure" points="428,-219.5 428,-255.5 482,-255.5 482,-219.5 428,-219.5"/>
<text text-anchor="middle" x="455" y="-233.8" font-family="Helvetica,sans-Serif" font-size="14.00" fill="Azure">R</text>
</g>
<!-- dyce.r.OperationRollerBase&#45;&gt;dyce.r.R -->
<g id="edge4" class="edge">
<title>dyce.r.OperationRollerBase&#45;&gt;dyce.r.R</title>
<path fill="none" stroke="Azure" d="M348.53,-182.51C369.67,-193.23 396.97,-207.07 418.63,-218.06"/>
<polygon fill="none" stroke="Azure" points="417.34,-221.32 427.84,-222.72 420.5,-215.08 417.34,-221.32"/>
</g>
<!-- dyce.r.ChainRoller -->
<g id="node4" class="node">
<title>dyce.r.ChainRoller</title>
<polygon fill="none" stroke="Azure" points="338,-73.5 338,-109.5 428,-109.5 428,-73.5 338,-73.5"/>
<text text-anchor="middle" x="383" y="-87.8" font-family="Helvetica,sans-Serif" font-size="14.00" fill="Azure">ChainRoller</text>
</g>
<!-- dyce.r.ChainRoller&#45;&gt;dyce.r.OperationRollerBase -->
<g id="edge3" class="edge">
<title>dyce.r.ChainRoller&#45;&gt;dyce.r.OperationRollerBase</title>
<path fill="none" stroke="Azure" d="M366.54,-109.69C358.1,-118.5 347.68,-129.37 338.42,-139.04"/>
<polygon fill="none" stroke="Azure" points="335.7,-136.83 331.31,-146.47 340.75,-141.67 335.7,-136.83"/>
</g>
<!-- dyce.r.PoolRoller -->
<g id="node6" class="node">
<title>dyce.r.PoolRoller</title>
<polygon fill="none" stroke="Azure" points="342.5,-0.5 342.5,-36.5 423.5,-36.5 423.5,-0.5 342.5,-0.5"/>
<text text-anchor="middle" x="383" y="-14.8" font-family="Helvetica,sans-Serif" font-size="14.00" fill="Azure">PoolRoller</text>
</g>
<!-- dyce.r.PoolRoller&#45;&gt;dyce.r.ChainRoller -->
<g id="edge5" class="edge">
<title>dyce.r.PoolRoller&#45;&gt;dyce.r.ChainRoller</title>
<path fill="none" stroke="Azure" d="M383,-36.69C383,-44.71 383,-54.45 383,-63.43"/>
<polygon fill="none" stroke="Azure" points="379.5,-63.47 383,-73.47 386.5,-63.47 379.5,-63.47"/>
</g>
<!-- dyce.r.RepeatRoller -->
<g id="node7" class="node">
<title>dyce.r.RepeatRoller</title>
<polygon fill="none" stroke="Azure" points="406,-146.5 406,-182.5 504,-182.5 504,-146.5 406,-146.5"/>
<text text-anchor="middle" x="455" y="-160.8" font-family="Helvetica,sans-Serif" font-size="14.00" fill="Azure">RepeatRoller</text>
</g>
<!-- dyce.r.RepeatRoller&#45;&gt;dyce.r.R -->
<g id="edge6" class="edge">
<title>dyce.r.RepeatRoller&#45;&gt;dyce.r.R</title>
<path fill="none" stroke="Azure" d="M455,-182.69C455,-190.71 455,-200.45 455,-209.43"/>
<polygon fill="none" stroke="Azure" points="451.5,-209.47 455,-219.47 458.5,-209.47 451.5,-209.47"/>
</g>
<!-- dyce.r.SelectionRoller -->
<g id="node8" class="node">
<title>dyce.r.SelectionRoller</title>
<polygon fill="none" stroke="Azure" points="441.5,-0.5 441.5,-36.5 552.5,-36.5 552.5,-0.5 441.5,-0.5"/>
<text text-anchor="middle" x="497" y="-14.8" font-family="Helvetica,sans-Serif" font-size="14.00" fill="Azure">SelectionRoller</text>
</g>
<!-- dyce.r.SelectionRoller&#45;&gt;dyce.r.ChainRoller -->
<g id="edge7" class="edge">
<title>dyce.r.SelectionRoller&#45;&gt;dyce.r.ChainRoller</title>
<path fill="none" stroke="Azure" d="M469.69,-36.51C454.58,-45.92 435.59,-57.74 419.25,-67.93"/>
<polygon fill="none" stroke="Azure" points="417.12,-65.13 410.48,-73.39 420.82,-71.07 417.12,-65.13"/>
</g>
<!-- dyce.r.UnaryOperationRoller -->
<g id="node9" class="node">
<title>dyce.r.UnaryOperationRoller</title>
<polygon fill="none" stroke="Azure" points="172,-0.5 172,-36.5 324,-36.5 324,-0.5 172,-0.5"/>
<text text-anchor="middle" x="248" y="-14.8" font-family="Helvetica,sans-Serif" font-size="14.00" fill="Azure">UnaryOperationRoller</text>
</g>
<!-- dyce.r.UnaryOperationRoller&#45;&gt;dyce.r.SumRoller -->
<g id="edge8" class="edge">
<title>dyce.r.UnaryOperationRoller&#45;&gt;dyce.r.SumRoller</title>
<path fill="none" stroke="Azure" d="M248,-36.69C248,-44.71 248,-54.45 248,-63.43"/>
<polygon fill="none" stroke="Azure" points="244.5,-63.47 248,-73.47 251.5,-63.47 244.5,-63.47"/>
</g>
<!-- dyce.r.ValueRoller -->
<g id="node10" class="node">
<title>dyce.r.ValueRoller</title>
<polygon fill="none" stroke="Azure" points="522.5,-146.5 522.5,-182.5 611.5,-182.5 611.5,-146.5 522.5,-146.5"/>
<text text-anchor="middle" x="567" y="-160.8" font-family="Helvetica,sans-Serif" font-size="14.00" fill="Azure">ValueRoller</text>
</g>
<!-- dyce.r.ValueRoller&#45;&gt;dyce.r.R -->
<g id="edge9" class="edge">
<title>dyce.r.ValueRoller&#45;&gt;dyce.r.R</title>
<path fill="none" stroke="Azure" d="M540.17,-182.51C525.32,-191.92 506.67,-203.74 490.61,-213.93"/>
<polygon fill="none" stroke="Azure" points="488.57,-211.08 482,-219.39 492.32,-216.99 488.57,-211.08"/>
</g>
</g>
</svg>
