<?xml version="1.0" encoding="UTF-8" standalone="no"?>
<!DOCTYPE svg PUBLIC "-//W3C//DTD SVG 1.1//EN"
 "http://www.w3.org/Graphics/SVG/1.1/DTD/svg11.dtd">
<!-- Generated by graphviz version 2.49.0 (20210828.1703)
 -->
<!-- Pages: 1 -->
<svg width="1057pt" height="294pt"
 viewBox="0.00 0.00 1057.00 294.00" xmlns="http://www.w3.org/2000/svg" xmlns:xlink="http://www.w3.org/1999/xlink">
<g id="graph0" class="graph" transform="scale(1 1) rotate(0) translate(4 290)">
<g id="clust1" class="cluster">
<title>cluster_rolls</title>
<polygon fill="transparent" stroke="Azure" stroke-dasharray="1,5" points="303,-95 303,-278 530,-278 530,-95 303,-95"/>
<text text-anchor="start" x="388" y="-263.8" font-family="Helvetica,sans-Serif" font-style="italic" font-size="14.00" fill="Azure">Roll Tree</text>
</g>
<g id="clust2" class="cluster">
<title>cluster_rollers</title>
<polygon fill="transparent" stroke="Azure" stroke-dasharray="1,5" points="8,-8 8,-170 295,-170 295,-8 8,-8"/>
<text text-anchor="start" x="117" y="-155.8" font-family="Helvetica,sans-Serif" font-style="italic" font-size="14.00" fill="Azure">Roller Tree</text>
</g>
<g id="clust3" class="cluster">
<title>cluster_roll_outcomes</title>
<polygon fill="transparent" stroke="Azure" stroke-dasharray="1,5" points="538,-8 538,-170 1024,-170 1024,-8 538,-8"/>
<text text-anchor="start" x="735" y="-155.8" font-family="Helvetica,sans-Serif" font-style="italic" font-size="14.00" fill="Azure">Roll Outcomes</text>
</g>
<!-- Roll&#45;1 -->
<g id="node1" class="node">
<title>Roll&#45;1</title>
<polygon fill="none" stroke="Azure" points="522,-247 468,-247 468,-211 522,-211 522,-247"/>
<text text-anchor="start" x="481.5" y="-226.3" font-family="Helvetica,sans-Serif" font-weight="bold" font-size="14.00" fill="Azure">Roll</text>
</g>
<!-- SelectionRoller&#45;2 -->
<g id="node2" class="node">
<title>SelectionRoller&#45;2</title>
<polygon fill="none" stroke="Azure" points="287,-139 27,-139 27,-103 287,-103 287,-139"/>
<text text-anchor="start" x="106" y="-124.8" font-family="Helvetica,sans-Serif" font-weight="bold" font-size="14.00" fill="Azure">SelectionRoller</text>
<text text-anchor="start" x="35" y="-110.8" font-family="Courier New" font-size="14.00" fill="Azure">which=(slice(1, None, None),)</text>
</g>
<!-- Roll&#45;1&#45;&gt;SelectionRoller&#45;2 -->
<g id="edge1" class="edge">
<title>Roll&#45;1&#45;&gt;SelectionRoller&#45;2</title>
<path fill="none" stroke="Azure" d="M467.79,-222.92C437.15,-216.92 386,-206.09 343,-193 295.95,-178.68 243.74,-158.34 206.65,-143.1"/>
<polygon fill="Azure" stroke="Azure" points="207.66,-139.73 197.08,-139.15 204.98,-146.2 207.66,-139.73"/>
<text text-anchor="middle" x="347.5" y="-181.8" font-family="Courier New" font-size="14.00" fill="Azure">r</text>
</g>
<!-- RollOutcome&#45;3 -->
<g id="node3" class="node">
<title>RollOutcome&#45;3</title>
<polygon fill="none" stroke="Azure" points="1016,-139 912,-139 912,-103 1016,-103 1016,-139"/>
<text text-anchor="start" x="920" y="-124.8" font-family="Helvetica,sans-Serif" font-weight="bold" font-size="14.00" fill="Azure">RollOutcome</text>
<text text-anchor="start" x="934.5" y="-110.8" font-family="Courier New" font-size="14.00" fill="Azure">value=2</text>
</g>
<!-- Roll&#45;1&#45;&gt;RollOutcome&#45;3 -->
<g id="edge2" class="edge">
<title>Roll&#45;1&#45;&gt;RollOutcome&#45;3</title>
<path fill="none" stroke="Azure" d="M522.04,-226.19C601.74,-220.53 834.48,-201.66 903,-170 916.06,-163.96 928.84,-154.61 939.3,-145.76"/>
<polygon fill="Azure" stroke="Azure" points="941.61,-148.39 946.81,-139.15 936.99,-143.13 941.61,-148.39"/>
<text text-anchor="middle" x="891" y="-181.8" font-family="Courier New" font-size="14.00" fill="Azure">[0]</text>
</g>
<!-- RollOutcome&#45;4 -->
<g id="node4" class="node">
<title>RollOutcome&#45;4</title>
<polygon fill="none" stroke="Azure" points="894,-139 790,-139 790,-103 894,-103 894,-139"/>
<text text-anchor="start" x="798" y="-124.8" font-family="Helvetica,sans-Serif" font-weight="bold" font-size="14.00" fill="Azure">RollOutcome</text>
<text text-anchor="start" x="812.5" y="-110.8" font-family="Courier New" font-size="14.00" fill="Azure">value=4</text>
</g>
<!-- Roll&#45;1&#45;&gt;RollOutcome&#45;4 -->
<g id="edge3" class="edge">
<title>Roll&#45;1&#45;&gt;RollOutcome&#45;4</title>
<path fill="none" stroke="Azure" d="M522.34,-226.72C574.85,-223.35 692.42,-211.41 781,-170 794.04,-163.91 806.81,-154.54 817.27,-145.7"/>
<polygon fill="Azure" stroke="Azure" points="819.58,-148.33 824.79,-139.1 814.96,-143.07 819.58,-148.33"/>
<text text-anchor="middle" x="772" y="-181.8" font-family="Courier New" font-size="14.00" fill="Azure">[1]</text>
</g>
<!-- RollOutcome&#45;5 -->
<g id="node5" class="node">
<title>RollOutcome&#45;5</title>
<polygon fill="none" stroke="Azure" points="772,-139 668,-139 668,-103 772,-103 772,-139"/>
<text text-anchor="start" x="676" y="-124.8" font-family="Helvetica,sans-Serif" font-weight="bold" font-size="14.00" fill="Azure">RollOutcome</text>
<text text-anchor="start" x="690.5" y="-110.8" font-family="Courier New" font-size="14.00" fill="Azure">value=4</text>
</g>
<!-- Roll&#45;1&#45;&gt;RollOutcome&#45;5 -->
<g id="edge4" class="edge">
<title>Roll&#45;1&#45;&gt;RollOutcome&#45;5</title>
<path fill="none" stroke="Azure" d="M522.27,-221.3C555.78,-212.42 613.76,-194.91 659,-170 671.2,-163.28 683.5,-154.16 693.82,-145.68"/>
<polygon fill="Azure" stroke="Azure" points="696.26,-148.2 701.63,-139.07 691.74,-142.85 696.26,-148.2"/>
<text text-anchor="middle" x="655" y="-181.8" font-family="Courier New" font-size="14.00" fill="Azure">[2]</text>
</g>
<!-- RollOutcome&#45;6 -->
<g id="node6" class="node">
<title>RollOutcome&#45;6</title>
<polygon fill="none" stroke="Azure" stroke-dasharray="1,5" points="650,-139 546,-139 546,-103 650,-103 650,-139"/>
<text text-anchor="start" x="554" y="-124.8" font-family="Helvetica,sans-Serif" font-weight="bold" font-size="14.00" fill="Azure">RollOutcome</text>
<text text-anchor="start" x="555.5" y="-110.8" font-family="Courier New" font-size="14.00" fill="Azure">value=None</text>
</g>
<!-- Roll&#45;1&#45;&gt;RollOutcome&#45;6 -->
<g id="edge5" class="edge">
<title>Roll&#45;1&#45;&gt;RollOutcome&#45;6</title>
<path fill="none" stroke="Azure" d="M522.07,-213.35C531.19,-207.69 541.07,-200.71 549,-193 562.57,-179.82 574.68,-162.36 583.47,-148.05"/>
<polygon fill="Azure" stroke="Azure" points="586.64,-149.56 588.74,-139.18 580.62,-145.98 586.64,-149.56"/>
<text text-anchor="middle" x="574" y="-181.8" font-family="Courier New" font-size="14.00" fill="Azure">[3]</text>
</g>
<!-- Roll&#45;7 -->
<g id="node7" class="node">
<title>Roll&#45;7</title>
<polygon fill="none" stroke="LightBlue" stroke-dasharray="5,2" points="478,-139 424,-139 424,-103 478,-103 478,-139"/>
<text text-anchor="start" x="437.5" y="-118.3" font-family="Helvetica,sans-Serif" font-weight="bold" font-size="14.00" fill="LightBlue">Roll</text>
</g>
<!-- Roll&#45;1&#45;&gt;Roll&#45;7 -->
<g id="edge12" class="edge">
<title>Roll&#45;1&#45;&gt;Roll&#45;7</title>
<path fill="none" stroke="LightBlue" stroke-dasharray="5,2" d="M476.51,-210.86C471.77,-205.57 467.13,-199.42 464,-193 457.42,-179.49 454.15,-163.05 452.54,-149.4"/>
<polygon fill="LightBlue" stroke="LightBlue" points="456,-148.78 451.57,-139.15 449.03,-149.44 456,-148.78"/>
<text text-anchor="middle" x="506.5" y="-181.8" font-family="Courier New" font-size="14.00" fill="LightBlue">sources[0]</text>
</g>
<!-- Roll&#45;12 -->
<g id="node12" class="node">
<title>Roll&#45;12</title>
<polygon fill="none" stroke="LightPink" stroke-dasharray="5,2" points="365,-139 311,-139 311,-103 365,-103 365,-139"/>
<text text-anchor="start" x="324.5" y="-118.3" font-family="Helvetica,sans-Serif" font-weight="bold" font-size="14.00" fill="LightPink">Roll</text>
</g>
<!-- Roll&#45;1&#45;&gt;Roll&#45;12 -->
<g id="edge13" class="edge">
<title>Roll&#45;1&#45;&gt;Roll&#45;12</title>
<path fill="none" stroke="LightPink" stroke-dasharray="5,2" d="M467.74,-227.06C439.85,-224.72 396.77,-217.11 369,-193 355.96,-181.68 348.21,-163.86 343.71,-148.9"/>
<polygon fill="LightPink" stroke="LightPink" points="347.06,-147.88 341.1,-139.12 340.3,-149.69 347.06,-147.88"/>
<text text-anchor="middle" x="411.5" y="-181.8" font-family="Courier New" font-size="14.00" fill="LightPink">sources[1]</text>
</g>
<!-- ValueRoller&#45;8 -->
<g id="node8" class="node">
<title>ValueRoller&#45;8</title>
<polygon fill="none" stroke="LightBlue" stroke-dasharray="5,2" points="286.5,-52 135.5,-52 135.5,-16 286.5,-16 286.5,-52"/>
<text text-anchor="start" x="172.5" y="-37.8" font-family="Helvetica,sans-Serif" font-weight="bold" font-size="14.00" fill="LightBlue">ValueRoller</text>
<text text-anchor="start" x="143.5" y="-23.8" font-family="Courier New" font-size="14.00" fill="LightBlue">value=P(6, 6, 6)</text>
</g>
<!-- SelectionRoller&#45;2&#45;&gt;ValueRoller&#45;8 -->
<g id="edge14" class="edge">
<title>SelectionRoller&#45;2&#45;&gt;ValueRoller&#45;8</title>
<path fill="none" stroke="LightBlue" stroke-dasharray="5,2" d="M167.93,-102.8C175.61,-90.7 186.03,-74.3 194.69,-60.67"/>
<polygon fill="LightBlue" stroke="LightBlue" points="197.68,-62.49 200.09,-52.18 191.77,-58.74 197.68,-62.49"/>
<text text-anchor="middle" x="230.5" y="-73.8" font-family="Courier New" font-size="14.00" fill="LightBlue">sources[0]</text>
</g>
<!-- ValueRoller&#45;13 -->
<g id="node13" class="node">
<title>ValueRoller&#45;13</title>
<polygon fill="none" stroke="LightPink" stroke-dasharray="5,2" points="117.5,-52 16.5,-52 16.5,-16 117.5,-16 117.5,-52"/>
<text text-anchor="start" x="28.5" y="-37.8" font-family="Helvetica,sans-Serif" font-weight="bold" font-size="14.00" fill="LightPink">ValueRoller</text>
<text text-anchor="start" x="24.5" y="-23.8" font-family="Courier New" font-size="14.00" fill="LightPink">value=H(8)</text>
</g>
<!-- SelectionRoller&#45;2&#45;&gt;ValueRoller&#45;13 -->
<g id="edge15" class="edge">
<title>SelectionRoller&#45;2&#45;&gt;ValueRoller&#45;13</title>
<path fill="none" stroke="LightPink" stroke-dasharray="5,2" d="M116.18,-102.98C107.49,-98.07 98.87,-92.08 92,-85 85.59,-78.39 80.5,-69.81 76.62,-61.63"/>
<polygon fill="LightPink" stroke="LightPink" points="79.8,-60.16 72.64,-52.36 73.37,-62.93 79.8,-60.16"/>
<text text-anchor="middle" x="134.5" y="-73.8" font-family="Courier New" font-size="14.00" fill="LightPink">sources[1]</text>
</g>
<!-- RollOutcome&#45;9 -->
<g id="node9" class="node">
<title>RollOutcome&#45;9</title>
<polygon fill="none" stroke="LightBlue" stroke-dasharray="5,2" points="1016,-52 912,-52 912,-16 1016,-16 1016,-52"/>
<text text-anchor="start" x="920" y="-37.8" font-family="Helvetica,sans-Serif" font-weight="bold" font-size="14.00" fill="LightBlue">RollOutcome</text>
<text text-anchor="start" x="934.5" y="-23.8" font-family="Courier New" font-size="14.00" fill="LightBlue">value=2</text>
</g>
<!-- RollOutcome&#45;3&#45;&gt;RollOutcome&#45;9 -->
<g id="edge16" class="edge">
<title>RollOutcome&#45;3&#45;&gt;RollOutcome&#45;9</title>
<path fill="none" stroke="LightBlue" stroke-dasharray="5,2" d="M964,-102.8C964,-91.16 964,-75.55 964,-62.24"/>
<polygon fill="LightBlue" stroke="LightBlue" points="967.5,-62.18 964,-52.18 960.5,-62.18 967.5,-62.18"/>
<text text-anchor="middle" x="1006.5" y="-73.8" font-family="Courier New" font-size="14.00" fill="LightBlue">sources[0]</text>
</g>
<!-- RollOutcome&#45;10 -->
<g id="node10" class="node">
<title>RollOutcome&#45;10</title>
<polygon fill="none" stroke="LightBlue" stroke-dasharray="5,2" points="894,-52 790,-52 790,-16 894,-16 894,-52"/>
<text text-anchor="start" x="798" y="-37.8" font-family="Helvetica,sans-Serif" font-weight="bold" font-size="14.00" fill="LightBlue">RollOutcome</text>
<text text-anchor="start" x="812.5" y="-23.8" font-family="Courier New" font-size="14.00" fill="LightBlue">value=4</text>
</g>
<!-- RollOutcome&#45;4&#45;&gt;RollOutcome&#45;10 -->
<g id="edge17" class="edge">
<title>RollOutcome&#45;4&#45;&gt;RollOutcome&#45;10</title>
<path fill="none" stroke="LightBlue" stroke-dasharray="5,2" d="M842,-102.8C842,-91.16 842,-75.55 842,-62.24"/>
<polygon fill="LightBlue" stroke="LightBlue" points="845.5,-62.18 842,-52.18 838.5,-62.18 845.5,-62.18"/>
<text text-anchor="middle" x="884.5" y="-73.8" font-family="Courier New" font-size="14.00" fill="LightBlue">sources[0]</text>
</g>
<!-- RollOutcome&#45;11 -->
<g id="node11" class="node">
<title>RollOutcome&#45;11</title>
<polygon fill="none" stroke="LightBlue" stroke-dasharray="5,2" points="772,-52 668,-52 668,-16 772,-16 772,-52"/>
<text text-anchor="start" x="676" y="-37.8" font-family="Helvetica,sans-Serif" font-weight="bold" font-size="14.00" fill="LightBlue">RollOutcome</text>
<text text-anchor="start" x="690.5" y="-23.8" font-family="Courier New" font-size="14.00" fill="LightBlue">value=4</text>
</g>
<!-- RollOutcome&#45;5&#45;&gt;RollOutcome&#45;11 -->
<g id="edge18" class="edge">
<title>RollOutcome&#45;5&#45;&gt;RollOutcome&#45;11</title>
<path fill="none" stroke="LightBlue" stroke-dasharray="5,2" d="M720,-102.8C720,-91.16 720,-75.55 720,-62.24"/>
<polygon fill="LightBlue" stroke="LightBlue" points="723.5,-62.18 720,-52.18 716.5,-62.18 723.5,-62.18"/>
<text text-anchor="middle" x="762.5" y="-73.8" font-family="Courier New" font-size="14.00" fill="LightBlue">sources[0]</text>
</g>
<!-- RollOutcome&#45;14 -->
<g id="node14" class="node">
<title>RollOutcome&#45;14</title>
<polygon fill="none" stroke="LightPink" stroke-dasharray="5,2" points="650,-52 546,-52 546,-16 650,-16 650,-52"/>
<text text-anchor="start" x="554" y="-37.8" font-family="Helvetica,sans-Serif" font-weight="bold" font-size="14.00" fill="LightPink">RollOutcome</text>
<text text-anchor="start" x="568.5" y="-23.8" font-family="Courier New" font-size="14.00" fill="LightPink">value=1</text>
</g>
<!-- RollOutcome&#45;6&#45;&gt;RollOutcome&#45;14 -->
<g id="edge19" class="edge">
<title>RollOutcome&#45;6&#45;&gt;RollOutcome&#45;14</title>
<path fill="none" stroke="LightPink" stroke-dasharray="5,2" d="M598,-102.8C598,-91.16 598,-75.55 598,-62.24"/>
<polygon fill="LightPink" stroke="LightPink" points="601.5,-62.18 598,-52.18 594.5,-62.18 601.5,-62.18"/>
<text text-anchor="middle" x="640.5" y="-73.8" font-family="Courier New" font-size="14.00" fill="LightPink">sources[0]</text>
</g>
<!-- Roll&#45;7&#45;&gt;ValueRoller&#45;8 -->
<g id="edge6" class="edge">
<title>Roll&#45;7&#45;&gt;ValueRoller&#45;8</title>
<path fill="none" stroke="LightBlue" stroke-dasharray="5,2" d="M429.94,-102.78C415.56,-91.85 395.62,-78.26 376,-70 351.11,-59.52 322.74,-52.05 296.63,-46.78"/>
<polygon fill="LightBlue" stroke="LightBlue" points="297.23,-43.33 286.75,-44.87 295.9,-50.2 297.23,-43.33"/>
<text text-anchor="middle" x="406.5" y="-73.8" font-family="Courier New" font-size="14.00" fill="LightBlue">r</text>
</g>
<!-- Roll&#45;7&#45;&gt;RollOutcome&#45;9 -->
<g id="edge7" class="edge">
<title>Roll&#45;7&#45;&gt;RollOutcome&#45;9</title>
<path fill="none" stroke="LightBlue" stroke-dasharray="5,2" d="M478.11,-107.1C506.78,-93.71 550.25,-74.13 568,-70 710.1,-36.91 753.99,-74.47 902.02,-51.89"/>
<polygon fill="LightBlue" stroke="LightBlue" points="902.6,-55.35 911.92,-50.32 901.5,-48.43 902.6,-55.35"/>
<text text-anchor="middle" x="581" y="-73.8" font-family="Courier New" font-size="14.00" fill="LightBlue">[0]</text>
</g>
<!-- Roll&#45;7&#45;&gt;RollOutcome&#45;10 -->
<g id="edge8" class="edge">
<title>Roll&#45;7&#45;&gt;RollOutcome&#45;10</title>
<path fill="none" stroke="LightBlue" stroke-dasharray="5,2" d="M462.85,-102.87C471.86,-91.37 485.34,-77.08 501,-70 555.26,-45.46 705.21,-60.89 779.9,-51.74"/>
<polygon fill="LightBlue" stroke="LightBlue" points="780.53,-55.19 789.92,-50.28 779.52,-48.26 780.53,-55.19"/>
<text text-anchor="middle" x="514" y="-73.8" font-family="Courier New" font-size="14.00" fill="LightBlue">[1]</text>
</g>
<!-- Roll&#45;7&#45;&gt;RollOutcome&#45;11 -->
<g id="edge9" class="edge">
<title>Roll&#45;7&#45;&gt;RollOutcome&#45;11</title>
<path fill="none" stroke="LightBlue" stroke-dasharray="5,2" d="M446.05,-102.55C444.15,-91.8 444.05,-78.5 452,-70 466.51,-54.49 610.27,-55.77 657.82,-51.47"/>
<polygon fill="LightBlue" stroke="LightBlue" points="658.42,-54.92 667.9,-50.2 657.55,-47.97 658.42,-54.92"/>
<text text-anchor="middle" x="465" y="-73.8" font-family="Courier New" font-size="14.00" fill="LightBlue">[2]</text>
</g>
<!-- Roll&#45;12&#45;&gt;ValueRoller&#45;13 -->
<g id="edge10" class="edge">
<title>Roll&#45;12&#45;&gt;ValueRoller&#45;13</title>
<path fill="none" stroke="LightPink" stroke-dasharray="5,2" d="M322.15,-102.64C310.75,-91.36 294.39,-77.4 277,-70 217.73,-44.76 194.45,-63.45 127.87,-52.08"/>
<polygon fill="LightPink" stroke="LightPink" points="128.19,-48.58 117.72,-50.18 126.9,-55.46 128.19,-48.58"/>
<text text-anchor="middle" x="306.5" y="-73.8" font-family="Courier New" font-size="14.00" fill="LightPink">r</text>
</g>
<!-- Roll&#45;12&#45;&gt;RollOutcome&#45;14 -->
<g id="edge11" class="edge">
<title>Roll&#45;12&#45;&gt;RollOutcome&#45;14</title>
<path fill="none" stroke="LightPink" stroke-dasharray="5,2" d="M336,-102.86C335.74,-91.95 337.46,-78.37 346,-70 372.1,-44.44 469.67,-37.3 535.46,-35.44"/>
<polygon fill="LightPink" stroke="LightPink" points="535.82,-38.94 545.73,-35.19 535.65,-31.94 535.82,-38.94"/>
<text text-anchor="middle" x="359" y="-73.8" font-family="Courier New" font-size="14.00" fill="LightPink">[0]</text>
</g>
</g>
</svg>
