<?xml version="1.0" encoding="UTF-8" standalone="no"?>
<!DOCTYPE svg PUBLIC "-//W3C//DTD SVG 1.1//EN"
 "http://www.w3.org/Graphics/SVG/1.1/DTD/svg11.dtd">
<!-- Generated by graphviz version 2.41.20171026.1811 (20171026.1811)
 -->
<!-- Title: %3 Pages: 1 -->
<svg width="262pt" height="207pt"
 viewBox="0.00 0.00 262.00 207.00" xmlns="http://www.w3.org/2000/svg" xmlns:xlink="http://www.w3.org/1999/xlink">
<g id="graph0" class="graph" transform="scale(1 1) rotate(0) translate(4 203)">
<title>%3</title>
<g id="clust2" class="cluster">
<title>cluster_rollers</title>
<polygon fill="transparent" stroke="DarkSlateGray" stroke-dasharray="1,5" points="8,-8 8,-83 118,-83 118,-8 8,-8"/>
<text text-anchor="start" x="28" y="-68.8" font-family="Helvetica,sans-Serif" font-style="italic" font-size="14.00" fill="DarkSlateGray">Roller Tree</text>
</g>
<g id="clust3" class="cluster">
<title>cluster_roll_outcomes</title>
<polygon fill="transparent" stroke="DarkSlateGray" stroke-dasharray="1,5" points="126,-8 126,-83 246,-83 246,-8 126,-8"/>
<text text-anchor="start" x="140" y="-68.8" font-family="Helvetica,sans-Serif" font-style="italic" font-size="14.00" fill="DarkSlateGray">Roll Outcomes</text>
</g>
<g id="clust1" class="cluster">
<title>cluster_rolls</title>
<polygon fill="transparent" stroke="DarkSlateGray" stroke-dasharray="1,5" points="99,-116 99,-191 172,-191 172,-116 99,-116"/>
<text text-anchor="start" x="107" y="-176.8" font-family="Helvetica,sans-Serif" font-style="italic" font-size="14.00" fill="DarkSlateGray">Roll Tree</text>
</g>
<!-- Roll&#45;1 -->
<g id="node1" class="node">
<title>Roll&#45;1</title>
<polygon fill="none" stroke="DarkSlateGray" points="162,-160 108,-160 108,-124 162,-124 162,-160"/>
<text text-anchor="start" x="121.5" y="-139.3" font-family="Helvetica,sans-Serif" font-weight="bold" font-size="14.00" fill="DarkSlateGray">Roll</text>
</g>
<!-- ValueRoller&#45;2 -->
<g id="node2" class="node">
<title>ValueRoller&#45;2</title>
<polygon fill="none" stroke="DarkSlateGray" points="110,-52 16,-52 16,-16 110,-16 110,-52"/>
<text text-anchor="start" x="24" y="-37.8" font-family="Helvetica,sans-Serif" font-weight="bold" font-size="14.00" fill="DarkSlateGray">ValueRoller</text>
<text text-anchor="start" x="33.5" y="-23.8" font-family="Courier New" font-size="14.00" fill="DarkSlateGray">value=1</text>
</g>
<!-- Roll&#45;1&#45;&gt;ValueRoller&#45;2 -->
<g id="edge1" class="edge">
<title>Roll&#45;1&#45;&gt;ValueRoller&#45;2</title>
<path fill="none" stroke="DarkSlateGray" d="M123.43,-123.97C111.85,-106.92 93.88,-80.46 80.54,-60.82"/>
<polygon fill="DarkSlateGray" stroke="DarkSlateGray" points="83.29,-58.65 74.78,-52.34 77.5,-62.58 83.29,-58.65"/>
<text text-anchor="middle" x="113.5" y="-94.8" font-family="Courier New" font-size="14.00" fill="DarkSlateGray">r</text>
</g>
<!-- RollOutcome&#45;3 -->
<g id="node3" class="node">
<title>RollOutcome&#45;3</title>
<polygon fill="none" stroke="DarkSlateGray" points="238,-52 134,-52 134,-16 238,-16 238,-52"/>
<text text-anchor="start" x="142" y="-37.8" font-family="Helvetica,sans-Serif" font-weight="bold" font-size="14.00" fill="DarkSlateGray">RollOutcome</text>
<text text-anchor="start" x="156.5" y="-23.8" font-family="Courier New" font-size="14.00" fill="DarkSlateGray">value=1</text>
</g>
<!-- Roll&#45;1&#45;&gt;RollOutcome&#45;3 -->
<g id="edge2" class="edge">
<title>Roll&#45;1&#45;&gt;RollOutcome&#45;3</title>
<path fill="none" stroke="DarkSlateGray" d="M143.19,-123.97C151.32,-107.07 163.9,-80.94 173.32,-61.36"/>
<polygon fill="DarkSlateGray" stroke="DarkSlateGray" points="176.48,-62.87 177.66,-52.34 170.17,-59.83 176.48,-62.87"/>
<text text-anchor="middle" x="171" y="-94.8" font-family="Courier New" font-size="14.00" fill="DarkSlateGray">[0]</text>
</g>
</g>
</svg>
