<?xml version="1.0" encoding="UTF-8" standalone="no"?>
<!DOCTYPE svg PUBLIC "-//W3C//DTD SVG 1.1//EN"
 "http://www.w3.org/Graphics/SVG/1.1/DTD/svg11.dtd">
<!-- Generated by graphviz version 2.49.0 (20210828.1703)
 -->
<!-- Pages: 1 -->
<svg width="1271pt" height="381pt"
 viewBox="0.00 0.00 1271.00 381.00" xmlns="http://www.w3.org/2000/svg" xmlns:xlink="http://www.w3.org/1999/xlink">
<g id="graph0" class="graph" transform="scale(1 1) rotate(0) translate(4 377)">
<g id="clust1" class="cluster">
<title>cluster_rolls</title>
<polygon fill="transparent" stroke="Azure" stroke-dasharray="1,5" points="636,-95 636,-365 971,-365 971,-95 636,-95"/>
<text text-anchor="start" x="775" y="-350.8" font-family="Helvetica,sans-Serif" font-style="italic" font-size="14.00" fill="Azure">Roll Tree</text>
</g>
<g id="clust2" class="cluster">
<title>cluster_rollers</title>
<polygon fill="transparent" stroke="Azure" stroke-dasharray="1,5" points="979,-8 979,-257 1255,-257 1255,-8 979,-8"/>
<text text-anchor="start" x="1082.5" y="-242.8" font-family="Helvetica,sans-Serif" font-style="italic" font-size="14.00" fill="Azure">Roller Tree</text>
</g>
<g id="clust3" class="cluster">
<title>cluster_roll_outcomes</title>
<polygon fill="transparent" stroke="Azure" stroke-dasharray="1,5" points="8,-8 8,-257 494,-257 494,-8 8,-8"/>
<text text-anchor="start" x="205" y="-242.8" font-family="Helvetica,sans-Serif" font-style="italic" font-size="14.00" fill="Azure">Roll Outcomes</text>
</g>
<!-- Roll&#45;1 -->
<g id="node1" class="node">
<title>Roll&#45;1</title>
<polygon fill="none" stroke="Azure" points="698,-334 644,-334 644,-298 698,-298 698,-334"/>
<text text-anchor="start" x="657.5" y="-313.3" font-family="Helvetica,sans-Serif" font-weight="bold" font-size="14.00" fill="Azure">Roll</text>
</g>
<!-- SelectionRoller&#45;2 -->
<g id="node2" class="node">
<title>SelectionRoller&#45;2</title>
<polygon fill="none" stroke="Azure" points="1247,-226 987,-226 987,-190 1247,-190 1247,-226"/>
<text text-anchor="start" x="1066" y="-211.8" font-family="Helvetica,sans-Serif" font-weight="bold" font-size="14.00" fill="Azure">SelectionRoller</text>
<text text-anchor="start" x="995" y="-197.8" font-family="Courier New" font-size="14.00" fill="Azure">which=(slice(1, None, None),)</text>
</g>
<!-- Roll&#45;1&#45;&gt;SelectionRoller&#45;2 -->
<g id="edge1" class="edge">
<title>Roll&#45;1&#45;&gt;SelectionRoller&#45;2</title>
<path fill="none" stroke="Azure" d="M698.12,-311.12C751.6,-303.17 874.21,-283.56 975,-257 1004.12,-249.33 1035.93,-238.78 1062.04,-229.53"/>
<polygon fill="Azure" stroke="Azure" points="1063.52,-232.72 1071.76,-226.06 1061.16,-226.13 1063.52,-232.72"/>
<text text-anchor="middle" x="946.5" y="-268.8" font-family="Courier New" font-size="14.00" fill="Azure">r</text>
</g>
<!-- RollOutcome&#45;3 -->
<g id="node3" class="node">
<title>RollOutcome&#45;3</title>
<polygon fill="none" stroke="Azure" points="242,-226 138,-226 138,-190 242,-190 242,-226"/>
<text text-anchor="start" x="146" y="-211.8" font-family="Helvetica,sans-Serif" font-weight="bold" font-size="14.00" fill="Azure">RollOutcome</text>
<text text-anchor="start" x="160.5" y="-197.8" font-family="Courier New" font-size="14.00" fill="Azure">value=1</text>
</g>
<!-- Roll&#45;1&#45;&gt;RollOutcome&#45;3 -->
<g id="edge2" class="edge">
<title>Roll&#45;1&#45;&gt;RollOutcome&#45;3</title>
<path fill="none" stroke="Azure" d="M643.74,-313.31C562.24,-307.94 321.66,-289.65 251,-257 237.94,-250.96 225.16,-241.61 214.7,-232.76"/>
<polygon fill="Azure" stroke="Azure" points="217.01,-230.13 207.19,-226.15 212.39,-235.39 217.01,-230.13"/>
<text text-anchor="middle" x="340" y="-268.8" font-family="Courier New" font-size="14.00" fill="Azure">[0]</text>
</g>
<!-- RollOutcome&#45;4 -->
<g id="node4" class="node">
<title>RollOutcome&#45;4</title>
<polygon fill="none" stroke="Azure" points="364,-226 260,-226 260,-190 364,-190 364,-226"/>
<text text-anchor="start" x="268" y="-211.8" font-family="Helvetica,sans-Serif" font-weight="bold" font-size="14.00" fill="Azure">RollOutcome</text>
<text text-anchor="start" x="282.5" y="-197.8" font-family="Courier New" font-size="14.00" fill="Azure">value=5</text>
</g>
<!-- Roll&#45;1&#45;&gt;RollOutcome&#45;4 -->
<g id="edge3" class="edge">
<title>Roll&#45;1&#45;&gt;RollOutcome&#45;4</title>
<path fill="none" stroke="Azure" d="M643.81,-313.96C589.8,-310.99 466.21,-299.69 373,-257 359.92,-251.01 347.14,-241.66 336.68,-232.81"/>
<polygon fill="Azure" stroke="Azure" points="338.99,-230.18 329.17,-226.19 334.36,-235.43 338.99,-230.18"/>
<text text-anchor="middle" x="439" y="-268.8" font-family="Courier New" font-size="14.00" fill="Azure">[1]</text>
</g>
<!-- RollOutcome&#45;5 -->
<g id="node5" class="node">
<title>RollOutcome&#45;5</title>
<polygon fill="none" stroke="Azure" points="120,-226 16,-226 16,-190 120,-190 120,-226"/>
<text text-anchor="start" x="24" y="-211.8" font-family="Helvetica,sans-Serif" font-weight="bold" font-size="14.00" fill="Azure">RollOutcome</text>
<text text-anchor="start" x="38.5" y="-197.8" font-family="Courier New" font-size="14.00" fill="Azure">value=6</text>
</g>
<!-- Roll&#45;1&#45;&gt;RollOutcome&#45;5 -->
<g id="edge4" class="edge">
<title>Roll&#45;1&#45;&gt;RollOutcome&#45;5</title>
<path fill="none" stroke="Azure" d="M643.79,-313.82C576.21,-310.65 395.41,-300.77 246,-280 193.51,-272.7 177.16,-279.11 129,-257 115.92,-251 103.14,-241.65 92.69,-232.79"/>
<polygon fill="Azure" stroke="Azure" points="94.99,-230.16 85.18,-226.18 90.37,-235.42 94.99,-230.16"/>
<text text-anchor="middle" x="259" y="-268.8" font-family="Courier New" font-size="14.00" fill="Azure">[2]</text>
</g>
<!-- RollOutcome&#45;6 -->
<g id="node6" class="node">
<title>RollOutcome&#45;6</title>
<polygon fill="none" stroke="Azure" stroke-dasharray="1,5" points="486,-226 382,-226 382,-190 486,-190 486,-226"/>
<text text-anchor="start" x="390" y="-211.8" font-family="Helvetica,sans-Serif" font-weight="bold" font-size="14.00" fill="Azure">RollOutcome</text>
<text text-anchor="start" x="391.5" y="-197.8" font-family="Courier New" font-size="14.00" fill="Azure">value=None</text>
</g>
<!-- Roll&#45;1&#45;&gt;RollOutcome&#45;6 -->
<g id="edge5" class="edge">
<title>Roll&#45;1&#45;&gt;RollOutcome&#45;6</title>
<path fill="none" stroke="Azure" d="M643.81,-302.84C604.26,-285.15 530.27,-252.06 481.57,-230.27"/>
<polygon fill="Azure" stroke="Azure" points="482.74,-226.96 472.18,-226.08 479.88,-233.35 482.74,-226.96"/>
<text text-anchor="middle" x="600" y="-268.8" font-family="Courier New" font-size="14.00" fill="Azure">[3]</text>
</g>
<!-- Roll&#45;7 -->
<g id="node7" class="node">
<title>Roll&#45;7</title>
<polygon fill="none" stroke="LightBlue" stroke-dasharray="5,2" points="698,-226 644,-226 644,-190 698,-190 698,-226"/>
<text text-anchor="start" x="657.5" y="-205.3" font-family="Helvetica,sans-Serif" font-weight="bold" font-size="14.00" fill="LightBlue">Roll</text>
</g>
<!-- Roll&#45;1&#45;&gt;Roll&#45;7 -->
<g id="edge18" class="edge">
<title>Roll&#45;1&#45;&gt;Roll&#45;7</title>
<path fill="none" stroke="LightBlue" stroke-dasharray="5,2" d="M671,-297.97C671,-281.38 671,-255.88 671,-236.43"/>
<polygon fill="LightBlue" stroke="LightBlue" points="674.5,-236.34 671,-226.34 667.5,-236.34 674.5,-236.34"/>
<text text-anchor="middle" x="713.5" y="-268.8" font-family="Courier New" font-size="14.00" fill="LightBlue">sources[0]</text>
</g>
<!-- Roll&#45;12 -->
<g id="node12" class="node">
<title>Roll&#45;12</title>
<polygon fill="none" stroke="LightPink" stroke-dasharray="5,2" points="806,-226 752,-226 752,-190 806,-190 806,-226"/>
<text text-anchor="start" x="765.5" y="-205.3" font-family="Helvetica,sans-Serif" font-weight="bold" font-size="14.00" fill="LightPink">Roll</text>
</g>
<!-- Roll&#45;1&#45;&gt;Roll&#45;12 -->
<g id="edge19" class="edge">
<title>Roll&#45;1&#45;&gt;Roll&#45;12</title>
<path fill="none" stroke="LightPink" stroke-dasharray="5,2" d="M698.17,-310.3C717.11,-305.66 741.63,-296.75 757,-280 767.95,-268.06 773.45,-250.76 776.22,-236.23"/>
<polygon fill="LightPink" stroke="LightPink" points="779.69,-236.67 777.78,-226.25 772.77,-235.58 779.69,-236.67"/>
<text text-anchor="middle" x="808.5" y="-268.8" font-family="Courier New" font-size="14.00" fill="LightPink">sources[1]</text>
</g>
<!-- RepeatRoller&#45;8 -->
<g id="node8" class="node">
<title>RepeatRoller&#45;8</title>
<polygon fill="none" stroke="LightBlue" stroke-dasharray="5,2" points="1090.5,-139 987.5,-139 987.5,-103 1090.5,-103 1090.5,-139"/>
<text text-anchor="start" x="995.5" y="-124.8" font-family="Helvetica,sans-Serif" font-weight="bold" font-size="14.00" fill="LightBlue">RepeatRoller</text>
<text text-anchor="start" x="1026" y="-110.8" font-family="Courier New" font-size="14.00" fill="LightBlue">n=3</text>
</g>
<!-- SelectionRoller&#45;2&#45;&gt;RepeatRoller&#45;8 -->
<g id="edge23" class="edge">
<title>SelectionRoller&#45;2&#45;&gt;RepeatRoller&#45;8</title>
<path fill="none" stroke="LightBlue" stroke-dasharray="5,2" d="M1067.68,-189.94C1059.75,-185.24 1052.38,-179.34 1047,-172 1042.23,-165.49 1039.85,-157.23 1038.76,-149.3"/>
<polygon fill="LightBlue" stroke="LightBlue" points="1042.24,-148.94 1037.98,-139.24 1035.27,-149.48 1042.24,-148.94"/>
<text text-anchor="middle" x="1089.5" y="-160.8" font-family="Courier New" font-size="14.00" fill="LightBlue">sources[0]</text>
</g>
<!-- ValueRoller&#45;13 -->
<g id="node13" class="node">
<title>ValueRoller&#45;13</title>
<polygon fill="none" stroke="LightPink" stroke-dasharray="5,2" points="1209.5,-139 1108.5,-139 1108.5,-103 1209.5,-103 1209.5,-139"/>
<text text-anchor="start" x="1120.5" y="-124.8" font-family="Helvetica,sans-Serif" font-weight="bold" font-size="14.00" fill="LightPink">ValueRoller</text>
<text text-anchor="start" x="1116.5" y="-110.8" font-family="Courier New" font-size="14.00" fill="LightPink">value=H(8)</text>
</g>
<!-- SelectionRoller&#45;2&#45;&gt;ValueRoller&#45;13 -->
<g id="edge24" class="edge">
<title>SelectionRoller&#45;2&#45;&gt;ValueRoller&#45;13</title>
<path fill="none" stroke="LightPink" stroke-dasharray="5,2" d="M1126.7,-189.67C1129.76,-184.07 1133.09,-177.81 1136,-172 1139.79,-164.43 1143.71,-156.11 1147.22,-148.47"/>
<polygon fill="LightPink" stroke="LightPink" points="1150.45,-149.81 1151.4,-139.26 1144.08,-146.92 1150.45,-149.81"/>
<text text-anchor="middle" x="1185.5" y="-160.8" font-family="Courier New" font-size="14.00" fill="LightPink">sources[1]</text>
</g>
<!-- RollOutcome&#45;11 -->
<g id="node11" class="node">
<title>RollOutcome&#45;11</title>
<polygon fill="none" stroke="LightBlue" stroke-dasharray="5,2" points="242,-139 138,-139 138,-103 242,-103 242,-139"/>
<text text-anchor="start" x="146" y="-124.8" font-family="Helvetica,sans-Serif" font-weight="bold" font-size="14.00" fill="LightBlue">RollOutcome</text>
<text text-anchor="start" x="160.5" y="-110.8" font-family="Courier New" font-size="14.00" fill="LightBlue">value=1</text>
</g>
<!-- RollOutcome&#45;3&#45;&gt;RollOutcome&#45;11 -->
<g id="edge26" class="edge">
<title>RollOutcome&#45;3&#45;&gt;RollOutcome&#45;11</title>
<path fill="none" stroke="LightBlue" stroke-dasharray="5,2" d="M158.11,-189.67C152.02,-184.8 146.47,-178.91 143,-172 138.21,-162.46 142.53,-153.48 150.17,-145.83"/>
<polygon fill="LightBlue" stroke="LightBlue" points="152.6,-148.35 157.95,-139.2 148.06,-143.02 152.6,-148.35"/>
<text text-anchor="middle" x="185.5" y="-160.8" font-family="Courier New" font-size="14.00" fill="LightBlue">sources[0]</text>
</g>
<!-- RollOutcome&#45;14 -->
<g id="node14" class="node">
<title>RollOutcome&#45;14</title>
<polygon fill="none" stroke="LightPink" stroke-dasharray="5,2" points="486,-139 382,-139 382,-103 486,-103 486,-139"/>
<text text-anchor="start" x="390" y="-124.8" font-family="Helvetica,sans-Serif" font-weight="bold" font-size="14.00" fill="LightPink">RollOutcome</text>
<text text-anchor="start" x="404.5" y="-110.8" font-family="Courier New" font-size="14.00" fill="LightPink">value=5</text>
</g>
<!-- RollOutcome&#45;4&#45;&gt;RollOutcome&#45;14 -->
<g id="edge27" class="edge">
<title>RollOutcome&#45;4&#45;&gt;RollOutcome&#45;14</title>
<path fill="none" stroke="LightPink" stroke-dasharray="5,2" d="M269.14,-189.97C252.78,-181.01 240.35,-169.33 251,-157 267.37,-138.04 333.35,-143.46 371.81,-138.65"/>
<polygon fill="LightPink" stroke="LightPink" points="372.56,-142.07 381.86,-136.99 371.43,-135.16 372.56,-142.07"/>
<text text-anchor="middle" x="293.5" y="-160.8" font-family="Courier New" font-size="14.00" fill="LightPink">sources[0]</text>
</g>
<!-- RollOutcome&#45;9 -->
<g id="node9" class="node">
<title>RollOutcome&#45;9</title>
<polygon fill="none" stroke="LightBlue" stroke-dasharray="5,2" points="120,-139 16,-139 16,-103 120,-103 120,-139"/>
<text text-anchor="start" x="24" y="-124.8" font-family="Helvetica,sans-Serif" font-weight="bold" font-size="14.00" fill="LightBlue">RollOutcome</text>
<text text-anchor="start" x="38.5" y="-110.8" font-family="Courier New" font-size="14.00" fill="LightBlue">value=6</text>
</g>
<!-- RollOutcome&#45;5&#45;&gt;RollOutcome&#45;9 -->
<g id="edge28" class="edge">
<title>RollOutcome&#45;5&#45;&gt;RollOutcome&#45;9</title>
<path fill="none" stroke="LightBlue" stroke-dasharray="5,2" d="M57.71,-189.64C53.27,-180.12 49.6,-168.04 52,-157 52.59,-154.28 53.42,-151.52 54.38,-148.8"/>
<polygon fill="LightBlue" stroke="LightBlue" points="57.72,-149.87 58.32,-139.29 51.26,-147.19 57.72,-149.87"/>
<text text-anchor="middle" x="94.5" y="-160.8" font-family="Courier New" font-size="14.00" fill="LightBlue">sources[0]</text>
</g>
<!-- RollOutcome&#45;10 -->
<g id="node10" class="node">
<title>RollOutcome&#45;10</title>
<polygon fill="none" stroke="LightBlue" stroke-dasharray="5,2" points="364,-139 260,-139 260,-103 364,-103 364,-139"/>
<text text-anchor="start" x="268" y="-124.8" font-family="Helvetica,sans-Serif" font-weight="bold" font-size="14.00" fill="LightBlue">RollOutcome</text>
<text text-anchor="start" x="282.5" y="-110.8" font-family="Courier New" font-size="14.00" fill="LightBlue">value=1</text>
</g>
<!-- RollOutcome&#45;6&#45;&gt;RollOutcome&#45;10 -->
<g id="edge29" class="edge">
<title>RollOutcome&#45;6&#45;&gt;RollOutcome&#45;10</title>
<path fill="none" stroke="LightBlue" stroke-dasharray="5,2" d="M389.99,-189.86C379.4,-184.83 368.43,-178.82 359,-172 349.25,-164.94 339.87,-155.66 332.09,-147.02"/>
<polygon fill="LightBlue" stroke="LightBlue" points="334.63,-144.6 325.43,-139.34 329.34,-149.19 334.63,-144.6"/>
<text text-anchor="middle" x="401.5" y="-160.8" font-family="Courier New" font-size="14.00" fill="LightBlue">sources[0]</text>
</g>
<!-- Roll&#45;7&#45;&gt;RepeatRoller&#45;8 -->
<g id="edge6" class="edge">
<title>Roll&#45;7&#45;&gt;RepeatRoller&#45;8</title>
<path fill="none" stroke="LightBlue" stroke-dasharray="5,2" d="M698.17,-199.6C711.57,-196.2 728.04,-192.4 743,-190 834.18,-175.35 861.76,-199.23 950,-172 969.86,-165.87 990.2,-154.86 1006.42,-144.73"/>
<polygon fill="LightBlue" stroke="LightBlue" points="1008.45,-147.59 1014.97,-139.23 1004.67,-141.7 1008.45,-147.59"/>
<text text-anchor="middle" x="987.5" y="-160.8" font-family="Courier New" font-size="14.00" fill="LightBlue">r</text>
</g>
<!-- Roll&#45;7&#45;&gt;RollOutcome&#45;9 -->
<g id="edge7" class="edge">
<title>Roll&#45;7&#45;&gt;RollOutcome&#45;9</title>
<path fill="none" stroke="LightBlue" stroke-dasharray="5,2" d="M643.84,-206.68C602.91,-205.28 523.75,-198.95 463,-172 453.17,-167.64 454.06,-160.82 444,-157 381.14,-133.14 212.76,-149.04 130.19,-138.77"/>
<polygon fill="LightBlue" stroke="LightBlue" points="130.48,-135.28 120.08,-137.31 129.47,-142.21 130.48,-135.28"/>
<text text-anchor="middle" x="476" y="-160.8" font-family="Courier New" font-size="14.00" fill="LightBlue">[0]</text>
</g>
<!-- Roll&#45;7&#45;&gt;RollOutcome&#45;10 -->
<g id="edge8" class="edge">
<title>Roll&#45;7&#45;&gt;RollOutcome&#45;10</title>
<path fill="none" stroke="LightBlue" stroke-dasharray="5,2" d="M643.7,-201.22C620.75,-195.69 587.55,-186.1 561,-172 551.5,-166.95 551.96,-161.06 542,-157 474.92,-129.65 449.31,-151.25 374.05,-138.91"/>
<polygon fill="LightBlue" stroke="LightBlue" points="374.57,-135.45 364.11,-137.13 373.34,-142.34 374.57,-135.45"/>
<text text-anchor="middle" x="574" y="-160.8" font-family="Courier New" font-size="14.00" fill="LightBlue">[1]</text>
</g>
<!-- Roll&#45;7&#45;&gt;RollOutcome&#45;11 -->
<g id="edge9" class="edge">
<title>Roll&#45;7&#45;&gt;RollOutcome&#45;11</title>
<path fill="none" stroke="LightBlue" stroke-dasharray="5,2" d="M643.93,-204.77C611.29,-201.26 555.42,-192.57 512,-172 502.28,-167.39 503.03,-160.9 493,-157 445.3,-138.43 317.97,-147.26 252.11,-138.76"/>
<polygon fill="LightBlue" stroke="LightBlue" points="252.5,-135.28 242.09,-137.25 251.45,-142.21 252.5,-135.28"/>
<text text-anchor="middle" x="525" y="-160.8" font-family="Courier New" font-size="14.00" fill="LightBlue">[2]</text>
</g>
<!-- Roll&#45;15 -->
<g id="node15" class="node">
<title>Roll&#45;15</title>
<polygon fill="none" stroke="LightBlue" stroke-dasharray="5,2" points="698,-139 644,-139 644,-103 698,-103 698,-139"/>
<text text-anchor="start" x="657.5" y="-118.3" font-family="Helvetica,sans-Serif" font-weight="bold" font-size="14.00" fill="LightBlue">Roll</text>
</g>
<!-- Roll&#45;7&#45;&gt;Roll&#45;15 -->
<g id="edge20" class="edge">
<title>Roll&#45;7&#45;&gt;Roll&#45;15</title>
<path fill="none" stroke="LightBlue" stroke-dasharray="5,2" d="M666.23,-189.69C664.91,-184.09 663.66,-177.82 663,-172 662.16,-164.52 662.77,-156.45 663.97,-149.02"/>
<polygon fill="LightBlue" stroke="LightBlue" points="667.43,-149.56 665.95,-139.07 660.56,-148.2 667.43,-149.56"/>
<text text-anchor="middle" x="705.5" y="-160.8" font-family="Courier New" font-size="14.00" fill="LightBlue">sources[0]</text>
</g>
<!-- Roll&#45;18 -->
<g id="node18" class="node">
<title>Roll&#45;18</title>
<polygon fill="none" stroke="LightBlue" stroke-dasharray="5,2" points="905,-139 851,-139 851,-103 905,-103 905,-139"/>
<text text-anchor="start" x="864.5" y="-118.3" font-family="Helvetica,sans-Serif" font-weight="bold" font-size="14.00" fill="LightBlue">Roll</text>
</g>
<!-- Roll&#45;7&#45;&gt;Roll&#45;18 -->
<g id="edge21" class="edge">
<title>Roll&#45;7&#45;&gt;Roll&#45;18</title>
<path fill="none" stroke="LightBlue" stroke-dasharray="5,2" d="M698.27,-200.15C711.69,-196.88 728.15,-193.04 743,-190 788.96,-180.61 808.11,-198.24 847,-172 855.67,-166.15 862.37,-156.98 867.28,-148.08"/>
<polygon fill="LightBlue" stroke="LightBlue" points="870.45,-149.56 871.76,-139.05 864.18,-146.45 870.45,-149.56"/>
<text text-anchor="middle" x="903.5" y="-160.8" font-family="Courier New" font-size="14.00" fill="LightBlue">sources[1]</text>
</g>
<!-- Roll&#45;20 -->
<g id="node20" class="node">
<title>Roll&#45;20</title>
<polygon fill="none" stroke="LightBlue" stroke-dasharray="5,2" points="797,-139 743,-139 743,-103 797,-103 797,-139"/>
<text text-anchor="start" x="756.5" y="-118.3" font-family="Helvetica,sans-Serif" font-weight="bold" font-size="14.00" fill="LightBlue">Roll</text>
</g>
<!-- Roll&#45;7&#45;&gt;Roll&#45;20 -->
<g id="edge22" class="edge">
<title>Roll&#45;7&#45;&gt;Roll&#45;20</title>
<path fill="none" stroke="LightBlue" stroke-dasharray="5,2" d="M698.11,-200.03C714.33,-194.66 734.38,-185.79 748,-172 754.42,-165.5 759.12,-156.82 762.49,-148.51"/>
<polygon fill="LightBlue" stroke="LightBlue" points="765.79,-149.68 765.86,-139.08 759.2,-147.32 765.79,-149.68"/>
<text text-anchor="middle" x="800.5" y="-160.8" font-family="Courier New" font-size="14.00" fill="LightBlue">sources[2]</text>
</g>
<!-- ValueRoller&#45;16 -->
<g id="node16" class="node">
<title>ValueRoller&#45;16</title>
<polygon fill="none" stroke="LightBlue" stroke-dasharray="5,2" points="1088.5,-52 987.5,-52 987.5,-16 1088.5,-16 1088.5,-52"/>
<text text-anchor="start" x="999.5" y="-37.8" font-family="Helvetica,sans-Serif" font-weight="bold" font-size="14.00" fill="LightBlue">ValueRoller</text>
<text text-anchor="start" x="995.5" y="-23.8" font-family="Courier New" font-size="14.00" fill="LightBlue">value=H(6)</text>
</g>
<!-- RepeatRoller&#45;8&#45;&gt;ValueRoller&#45;16 -->
<g id="edge25" class="edge">
<title>RepeatRoller&#45;8&#45;&gt;ValueRoller&#45;16</title>
<path fill="none" stroke="LightBlue" stroke-dasharray="5,2" d="M1038.8,-102.8C1038.66,-91.16 1038.48,-75.55 1038.32,-62.24"/>
<polygon fill="LightBlue" stroke="LightBlue" points="1041.82,-62.13 1038.2,-52.18 1034.82,-62.22 1041.82,-62.13"/>
<text text-anchor="middle" x="1080.5" y="-73.8" font-family="Courier New" font-size="14.00" fill="LightBlue">sources[0]</text>
</g>
<!-- RollOutcome&#45;17 -->
<g id="node17" class="node">
<title>RollOutcome&#45;17</title>
<polygon fill="none" stroke="LightBlue" stroke-dasharray="5,2" points="155,-52 51,-52 51,-16 155,-16 155,-52"/>
<text text-anchor="start" x="59" y="-37.8" font-family="Helvetica,sans-Serif" font-weight="bold" font-size="14.00" fill="LightBlue">RollOutcome</text>
<text text-anchor="start" x="73.5" y="-23.8" font-family="Courier New" font-size="14.00" fill="LightBlue">value=6</text>
</g>
<!-- RollOutcome&#45;9&#45;&gt;RollOutcome&#45;17 -->
<g id="edge31" class="edge">
<title>RollOutcome&#45;9&#45;&gt;RollOutcome&#45;17</title>
<path fill="none" stroke="LightBlue" stroke-dasharray="5,2" d="M75.08,-102.8C79.97,-90.93 86.56,-74.93 92.11,-61.45"/>
<polygon fill="LightBlue" stroke="LightBlue" points="95.36,-62.75 95.93,-52.18 88.88,-60.09 95.36,-62.75"/>
<text text-anchor="middle" x="130.5" y="-73.8" font-family="Courier New" font-size="14.00" fill="LightBlue">sources[0]</text>
</g>
<!-- RollOutcome&#45;19 -->
<g id="node19" class="node">
<title>RollOutcome&#45;19</title>
<polygon fill="none" stroke="LightBlue" stroke-dasharray="5,2" points="444,-52 340,-52 340,-16 444,-16 444,-52"/>
<text text-anchor="start" x="348" y="-37.8" font-family="Helvetica,sans-Serif" font-weight="bold" font-size="14.00" fill="LightBlue">RollOutcome</text>
<text text-anchor="start" x="362.5" y="-23.8" font-family="Courier New" font-size="14.00" fill="LightBlue">value=1</text>
</g>
<!-- RollOutcome&#45;10&#45;&gt;RollOutcome&#45;19 -->
<g id="edge32" class="edge">
<title>RollOutcome&#45;10&#45;&gt;RollOutcome&#45;19</title>
<path fill="none" stroke="LightBlue" stroke-dasharray="5,2" d="M328.19,-102.8C339.9,-90.36 355.89,-73.36 368.94,-59.5"/>
<polygon fill="LightBlue" stroke="LightBlue" points="371.53,-61.86 375.83,-52.18 366.43,-57.06 371.53,-61.86"/>
<text text-anchor="middle" x="398.5" y="-73.8" font-family="Courier New" font-size="14.00" fill="LightBlue">sources[0]</text>
</g>
<!-- RollOutcome&#45;21 -->
<g id="node21" class="node">
<title>RollOutcome&#45;21</title>
<polygon fill="none" stroke="LightBlue" stroke-dasharray="5,2" points="307,-52 203,-52 203,-16 307,-16 307,-52"/>
<text text-anchor="start" x="211" y="-37.8" font-family="Helvetica,sans-Serif" font-weight="bold" font-size="14.00" fill="LightBlue">RollOutcome</text>
<text text-anchor="start" x="225.5" y="-23.8" font-family="Courier New" font-size="14.00" fill="LightBlue">value=1</text>
</g>
<!-- RollOutcome&#45;11&#45;&gt;RollOutcome&#45;21 -->
<g id="edge30" class="edge">
<title>RollOutcome&#45;11&#45;&gt;RollOutcome&#45;21</title>
<path fill="none" stroke="LightBlue" stroke-dasharray="5,2" d="M200.81,-102.95C207.25,-93.11 215.75,-80.61 224,-70 226.63,-66.61 229.5,-63.13 232.4,-59.74"/>
<polygon fill="LightBlue" stroke="LightBlue" points="235.15,-61.91 239.1,-52.07 229.88,-57.3 235.15,-61.91"/>
<text text-anchor="middle" x="266.5" y="-73.8" font-family="Courier New" font-size="14.00" fill="LightBlue">sources[0]</text>
</g>
<!-- Roll&#45;12&#45;&gt;ValueRoller&#45;13 -->
<g id="edge10" class="edge">
<title>Roll&#45;12&#45;&gt;ValueRoller&#45;13</title>
<path fill="none" stroke="LightPink" stroke-dasharray="5,2" d="M806.31,-205.15C848.03,-201.76 929.76,-192.88 996,-172 1010.6,-167.4 1012.6,-162.19 1027,-157 1055.73,-146.64 1065.96,-147.39 1098.41,-139.31"/>
<polygon fill="LightPink" stroke="LightPink" points="1099.38,-142.67 1108.19,-136.78 1097.63,-135.89 1099.38,-142.67"/>
<text text-anchor="middle" x="1031.5" y="-160.8" font-family="Courier New" font-size="14.00" fill="LightPink">r</text>
</g>
<!-- Roll&#45;12&#45;&gt;RollOutcome&#45;14 -->
<g id="edge11" class="edge">
<title>Roll&#45;12&#45;&gt;RollOutcome&#45;14</title>
<path fill="none" stroke="LightPink" stroke-dasharray="5,2" d="M751.68,-200.54C709.97,-190.67 634.9,-172.87 632,-172 613.42,-166.41 609.62,-162.46 591,-157 560.08,-147.94 525.13,-139.93 496.07,-133.88"/>
<polygon fill="LightPink" stroke="LightPink" points="496.56,-130.4 486.06,-131.82 495.15,-137.26 496.56,-130.4"/>
<text text-anchor="middle" x="645" y="-160.8" font-family="Courier New" font-size="14.00" fill="LightPink">[0]</text>
</g>
<!-- Roll&#45;15&#45;&gt;ValueRoller&#45;16 -->
<g id="edge12" class="edge">
<title>Roll&#45;15&#45;&gt;ValueRoller&#45;16</title>
<path fill="none" stroke="LightBlue" stroke-dasharray="5,2" d="M698.25,-105.2C720.44,-93.81 752.9,-78.59 783,-70 847.86,-51.48 924.88,-42.63 977.18,-38.49"/>
<polygon fill="LightBlue" stroke="LightBlue" points="977.59,-41.97 987.29,-37.72 977.06,-34.99 977.59,-41.97"/>
<text text-anchor="middle" x="787.5" y="-73.8" font-family="Courier New" font-size="14.00" fill="LightBlue">r</text>
</g>
<!-- Roll&#45;15&#45;&gt;RollOutcome&#45;17 -->
<g id="edge13" class="edge">
<title>Roll&#45;15&#45;&gt;RollOutcome&#45;17</title>
<path fill="none" stroke="LightBlue" stroke-dasharray="5,2" d="M643.76,-112.62C601.53,-101.48 517.57,-80.57 445,-70 334.33,-53.88 304.93,-66.29 194,-52 184.65,-50.8 174.82,-49.25 165.2,-47.59"/>
<polygon fill="LightBlue" stroke="LightBlue" points="165.75,-44.13 155.29,-45.82 164.52,-51.02 165.75,-44.13"/>
<text text-anchor="middle" x="539" y="-73.8" font-family="Courier New" font-size="14.00" fill="LightBlue">[0]</text>
</g>
<!-- Roll&#45;18&#45;&gt;ValueRoller&#45;16 -->
<g id="edge14" class="edge">
<title>Roll&#45;18&#45;&gt;ValueRoller&#45;16</title>
<path fill="none" stroke="LightBlue" stroke-dasharray="5,2" d="M905.14,-105.58C930.24,-92.25 967.91,-72.24 996.73,-56.92"/>
<polygon fill="LightBlue" stroke="LightBlue" points="998.56,-59.91 1005.75,-52.13 995.28,-53.73 998.56,-59.91"/>
<text text-anchor="middle" x="971.5" y="-73.8" font-family="Courier New" font-size="14.00" fill="LightBlue">r</text>
</g>
<!-- Roll&#45;18&#45;&gt;RollOutcome&#45;19 -->
<g id="edge15" class="edge">
<title>Roll&#45;18&#45;&gt;RollOutcome&#45;19</title>
<path fill="none" stroke="LightBlue" stroke-dasharray="5,2" d="M865.18,-102.94C855.52,-91.48 841.18,-77.2 825,-70 760.38,-41.26 558.02,-35.85 454.44,-35"/>
<polygon fill="LightBlue" stroke="LightBlue" points="454.15,-31.5 444.13,-34.93 454.1,-38.5 454.15,-31.5"/>
<text text-anchor="middle" x="859" y="-73.8" font-family="Courier New" font-size="14.00" fill="LightBlue">[0]</text>
</g>
<!-- Roll&#45;20&#45;&gt;ValueRoller&#45;16 -->
<g id="edge16" class="edge">
<title>Roll&#45;20&#45;&gt;ValueRoller&#45;16</title>
<path fill="none" stroke="LightBlue" stroke-dasharray="5,2" d="M781.16,-102.82C789.4,-91.61 801.65,-77.69 816,-70 843.16,-55.45 921.29,-45.54 977.17,-40.07"/>
<polygon fill="LightBlue" stroke="LightBlue" points="977.71,-43.54 987.33,-39.1 977.04,-36.57 977.71,-43.54"/>
<text text-anchor="middle" x="820.5" y="-73.8" font-family="Courier New" font-size="14.00" fill="LightBlue">r</text>
</g>
<!-- Roll&#45;20&#45;&gt;RollOutcome&#45;21 -->
<g id="edge17" class="edge">
<title>Roll&#45;20&#45;&gt;RollOutcome&#45;21</title>
<path fill="none" stroke="LightBlue" stroke-dasharray="5,2" d="M742.86,-107.68C731.91,-103.12 719.04,-98.27 707,-95 544.69,-50.88 497.26,-77.47 331,-52 326.52,-51.31 321.91,-50.52 317.28,-49.65"/>
<polygon fill="LightBlue" stroke="LightBlue" points="317.64,-46.15 307.15,-47.65 316.29,-53.02 317.64,-46.15"/>
<text text-anchor="middle" x="674" y="-73.8" font-family="Courier New" font-size="14.00" fill="LightBlue">[0]</text>
</g>
</g>
</svg>
