<?xml version="1.0" encoding="UTF-8" standalone="no"?>
<!DOCTYPE svg PUBLIC "-//W3C//DTD SVG 1.1//EN"
 "http://www.w3.org/Graphics/SVG/1.1/DTD/svg11.dtd">
<!-- Generated by graphviz version 2.41.20171026.1811 (20171026.1811)
 -->
<!-- Title: %3 Pages: 1 -->
<svg width="672pt" height="457pt"
 viewBox="0.00 0.00 672.00 457.00" xmlns="http://www.w3.org/2000/svg" xmlns:xlink="http://www.w3.org/1999/xlink">
<g id="graph0" class="graph" transform="scale(1 1) rotate(0) translate(4 453)">
<title>%3</title>
<g id="clust1" class="cluster">
<title>cluster_rolls</title>
<polygon fill="transparent" stroke="Azure" stroke-dasharray="1,5" points="376,-366 376,-441 449,-441 449,-366 376,-366"/>
<text text-anchor="start" x="384" y="-426.8" font-family="Helvetica,sans-Serif" font-style="italic" font-size="14.00" fill="Azure">Roll Tree</text>
</g>
<g id="clust2" class="cluster">
<title>cluster_rollers</title>
<polygon fill="transparent" stroke="Azure" stroke-dasharray="1,5" points="8,-8 8,-333 284,-333 284,-8 8,-8"/>
<text text-anchor="start" x="111" y="-318.8" font-family="Helvetica,sans-Serif" font-style="italic" font-size="14.00" fill="Azure">Roller Tree</text>
</g>
<g id="clust3" class="cluster">
<title>cluster_roll_outcomes</title>
<polygon fill="transparent" stroke="Azure" stroke-dasharray="1,5" points="292,-258 292,-333 656,-333 656,-258 292,-258"/>
<text text-anchor="start" x="428" y="-318.8" font-family="Helvetica,sans-Serif" font-style="italic" font-size="14.00" fill="Azure">Roll Outcomes</text>
</g>
<!-- Roll&#45;1 -->
<g id="node1" class="node">
<title>Roll&#45;1</title>
<polygon fill="none" stroke="Azure" points="439,-410 385,-410 385,-374 439,-374 439,-410"/>
<text text-anchor="start" x="398.5" y="-389.3" font-family="Helvetica,sans-Serif" font-weight="bold" font-size="14.00" fill="Azure">Roll</text>
</g>
<!-- SelectionRoller&#45;2 -->
<g id="node2" class="node">
<title>SelectionRoller&#45;2</title>
<polygon fill="none" stroke="Azure" points="276,-302 16,-302 16,-266 276,-266 276,-302"/>
<text text-anchor="start" x="95" y="-287.8" font-family="Helvetica,sans-Serif" font-weight="bold" font-size="14.00" fill="Azure">SelectionRoller</text>
<text text-anchor="start" x="24" y="-273.8" font-family="Courier New" font-size="14.00" fill="Azure">which=(slice(1, None, None),)</text>
</g>
<!-- Roll&#45;1&#45;&gt;SelectionRoller&#45;2 -->
<g id="edge1" class="edge">
<title>Roll&#45;1&#45;&gt;SelectionRoller&#45;2</title>
<path fill="none" stroke="Azure" d="M384.54,-380.06C340.74,-362.6 254.35,-328.18 198.43,-305.89"/>
<polygon fill="Azure" stroke="Azure" points="199.63,-302.61 189.05,-302.15 197.04,-309.11 199.63,-302.61"/>
<text text-anchor="middle" x="322.5" y="-344.8" font-family="Courier New" font-size="14.00" fill="Azure">r</text>
</g>
<!-- RollOutcome&#45;3 -->
<g id="node3" class="node">
<title>RollOutcome&#45;3</title>
<polygon fill="none" stroke="Azure" points="404,-302 300,-302 300,-266 404,-266 404,-302"/>
<text text-anchor="start" x="308" y="-287.8" font-family="Helvetica,sans-Serif" font-weight="bold" font-size="14.00" fill="Azure">RollOutcome</text>
<text text-anchor="start" x="322.5" y="-273.8" font-family="Courier New" font-size="14.00" fill="Azure">value=2</text>
</g>
<!-- Roll&#45;1&#45;&gt;RollOutcome&#45;3 -->
<g id="edge2" class="edge">
<title>Roll&#45;1&#45;&gt;RollOutcome&#45;3</title>
<path fill="none" stroke="Azure" d="M402.36,-373.97C392.75,-356.99 377.87,-330.7 366.77,-311.09"/>
<polygon fill="Azure" stroke="Azure" points="369.79,-309.32 361.82,-302.34 363.7,-312.77 369.79,-309.32"/>
<text text-anchor="middle" x="403" y="-344.8" font-family="Courier New" font-size="14.00" fill="Azure">[0]</text>
</g>
<!-- RollOutcome&#45;4 -->
<g id="node4" class="node">
<title>RollOutcome&#45;4</title>
<polygon fill="none" stroke="Azure" points="526,-302 422,-302 422,-266 526,-266 526,-302"/>
<text text-anchor="start" x="430" y="-287.8" font-family="Helvetica,sans-Serif" font-weight="bold" font-size="14.00" fill="Azure">RollOutcome</text>
<text text-anchor="start" x="444.5" y="-273.8" font-family="Courier New" font-size="14.00" fill="Azure">value=3</text>
</g>
<!-- Roll&#45;1&#45;&gt;RollOutcome&#45;4 -->
<g id="edge3" class="edge">
<title>Roll&#45;1&#45;&gt;RollOutcome&#45;4</title>
<path fill="none" stroke="Azure" d="M421.96,-373.97C431.89,-356.99 447.27,-330.7 458.74,-311.09"/>
<polygon fill="Azure" stroke="Azure" points="461.83,-312.74 463.86,-302.34 455.79,-309.21 461.83,-312.74"/>
<text text-anchor="middle" x="454" y="-344.8" font-family="Courier New" font-size="14.00" fill="Azure">[1]</text>
</g>
<!-- RollOutcome&#45;5 -->
<g id="node5" class="node">
<title>RollOutcome&#45;5</title>
<polygon fill="none" stroke="Azure" points="648,-302 544,-302 544,-266 648,-266 648,-302"/>
<text text-anchor="start" x="552" y="-287.8" font-family="Helvetica,sans-Serif" font-weight="bold" font-size="14.00" fill="Azure">RollOutcome</text>
<text text-anchor="start" x="566.5" y="-273.8" font-family="Courier New" font-size="14.00" fill="Azure">value=5</text>
</g>
<!-- Roll&#45;1&#45;&gt;RollOutcome&#45;5 -->
<g id="edge4" class="edge">
<title>Roll&#45;1&#45;&gt;RollOutcome&#45;5</title>
<path fill="none" stroke="Azure" d="M439.3,-380.23C464.85,-369.67 503.67,-352.37 535,-333 546.58,-325.84 558.51,-316.86 568.73,-308.61"/>
<polygon fill="Azure" stroke="Azure" points="571.01,-311.26 576.5,-302.2 566.56,-305.86 571.01,-311.26"/>
<text text-anchor="middle" x="532" y="-344.8" font-family="Courier New" font-size="14.00" fill="Azure">[2]</text>
</g>
<!-- RepeatRoller&#45;6 -->
<g id="node6" class="node">
<title>RepeatRoller&#45;6</title>
<polygon fill="none" stroke="Azure" points="120.5,-177 17.5,-177 17.5,-141 120.5,-141 120.5,-177"/>
<text text-anchor="start" x="25.5" y="-162.8" font-family="Helvetica,sans-Serif" font-weight="bold" font-size="14.00" fill="Azure">RepeatRoller</text>
<text text-anchor="start" x="56" y="-148.8" font-family="Courier New" font-size="14.00" fill="Azure">n=3</text>
</g>
<!-- SelectionRoller&#45;2&#45;&gt;RepeatRoller&#45;6 -->
<g id="edge5" class="edge">
<title>SelectionRoller&#45;2&#45;&gt;RepeatRoller&#45;6</title>
<path fill="none" stroke="Azure" d="M114.05,-265.79C100.35,-256.7 85.56,-244.26 77,-229 69.97,-216.47 67.75,-200.65 67.39,-187.33"/>
<polygon fill="Azure" stroke="Azure" points="70.89,-187.3 67.44,-177.29 63.89,-187.27 70.89,-187.3"/>
<text text-anchor="middle" x="119.5" y="-217.8" font-family="Courier New" font-size="14.00" fill="Azure">sources[0]</text>
</g>
<!-- ValueRoller&#45;7 -->
<g id="node7" class="node">
<title>ValueRoller&#45;7</title>
<polygon fill="none" stroke="Azure" points="240.5,-177 139.5,-177 139.5,-141 240.5,-141 240.5,-177"/>
<text text-anchor="start" x="151" y="-162.8" font-family="Helvetica,sans-Serif" font-weight="bold" font-size="14.00" fill="Azure">ValueRoller</text>
<text text-anchor="start" x="147.5" y="-148.8" font-family="Courier New" font-size="14.00" fill="Azure">value=H(8)</text>
</g>
<!-- SelectionRoller&#45;2&#45;&gt;ValueRoller&#45;7 -->
<g id="edge6" class="edge">
<title>SelectionRoller&#45;2&#45;&gt;ValueRoller&#45;7</title>
<path fill="none" stroke="Azure" d="M152.12,-265.9C159.43,-245.45 171.76,-210.99 180.36,-186.95"/>
<polygon fill="Azure" stroke="Azure" points="183.72,-187.95 183.79,-177.35 177.13,-185.59 183.72,-187.95"/>
<text text-anchor="middle" x="213.5" y="-217.8" font-family="Courier New" font-size="14.00" fill="Azure">sources[1]</text>
</g>
<!-- ValueRoller&#45;8 -->
<g id="node8" class="node">
<title>ValueRoller&#45;8</title>
<polygon fill="none" stroke="Azure" points="119.5,-52 18.5,-52 18.5,-16 119.5,-16 119.5,-52"/>
<text text-anchor="start" x="30" y="-37.8" font-family="Helvetica,sans-Serif" font-weight="bold" font-size="14.00" fill="Azure">ValueRoller</text>
<text text-anchor="start" x="26.5" y="-23.8" font-family="Courier New" font-size="14.00" fill="Azure">value=H(6)</text>
</g>
<!-- RepeatRoller&#45;6&#45;&gt;ValueRoller&#45;8 -->
<g id="edge7" class="edge">
<title>RepeatRoller&#45;6&#45;&gt;ValueRoller&#45;8</title>
<path fill="none" stroke="Azure" d="M69,-140.9C69,-120.63 69,-86.6 69,-62.59"/>
<polygon fill="Azure" stroke="Azure" points="72.5,-62.35 69,-52.35 65.5,-62.35 72.5,-62.35"/>
<text text-anchor="middle" x="111.5" y="-92.8" font-family="Courier New" font-size="14.00" fill="Azure">sources[0]</text>
</g>
</g>
</svg>
