<?xml version="1.0" encoding="UTF-8" standalone="no"?>
<!DOCTYPE svg PUBLIC "-//W3C//DTD SVG 1.1//EN"
 "http://www.w3.org/Graphics/SVG/1.1/DTD/svg11.dtd">
<!-- Generated by graphviz version 2.41.20171026.1811 (20171026.1811)
 -->
<!-- Title: %3 Pages: 1 -->
<svg width="1112pt" height="367pt"
 viewBox="0.00 0.00 1112.00 367.00" xmlns="http://www.w3.org/2000/svg" xmlns:xlink="http://www.w3.org/1999/xlink">
<g id="graph0" class="graph" transform="scale(1 1) rotate(0) translate(4 363)">
<title>%3</title>
<g id="clust1" class="cluster">
<title>cluster_rolls</title>
<polygon fill="transparent" stroke="Azure" stroke-dasharray="1,5" points="589,-95 589,-351 829,-351 829,-95 589,-95"/>
<text text-anchor="start" x="680.5" y="-336.8" font-family="Helvetica,sans-Serif" font-style="italic" font-size="14.00" fill="Azure">Roll Tree</text>
</g>
<g id="clust2" class="cluster">
<title>cluster_rollers</title>
<polygon fill="transparent" stroke="Azure" stroke-dasharray="1,5" points="8,-8 8,-243 581,-243 581,-8 8,-8"/>
<text text-anchor="start" x="259.5" y="-228.8" font-family="Helvetica,sans-Serif" font-style="italic" font-size="14.00" fill="Azure">Roller Tree</text>
</g>
<g id="clust3" class="cluster">
<title>cluster_roll_outcomes</title>
<polygon fill="transparent" stroke="Azure" stroke-dasharray="1,5" points="837,-8 837,-243 1079,-243 1079,-8 837,-8"/>
<text text-anchor="start" x="912" y="-228.8" font-family="Helvetica,sans-Serif" font-style="italic" font-size="14.00" fill="Azure">Roll Outcomes</text>
</g>
<!-- Roll&#45;1 -->
<g id="node1" class="node">
<title>Roll&#45;1</title>
<polygon fill="none" stroke="Azure" points="763,-320 709,-320 709,-284 763,-284 763,-320"/>
<text text-anchor="start" x="722.5" y="-299.3" font-family="Helvetica,sans-Serif" font-weight="bold" font-size="14.00" fill="Azure">Roll</text>
</g>
<!-- PoolRoller&#45;2 -->
<g id="node2" class="node">
<title>PoolRoller&#45;2</title>
<polygon fill="none" stroke="Azure" points="481.5,-212 394.5,-212 394.5,-176 481.5,-176 481.5,-212"/>
<text text-anchor="start" x="402.5" y="-191.3" font-family="Helvetica,sans-Serif" font-weight="bold" font-size="14.00" fill="Azure">PoolRoller</text>
</g>
<!-- Roll&#45;1&#45;&gt;PoolRoller&#45;2 -->
<g id="edge1" class="edge">
<title>Roll&#45;1&#45;&gt;PoolRoller&#45;2</title>
<path fill="none" stroke="Azure" d="M708.99,-295.31C681.47,-289.21 637.74,-278.67 601,-266 559.84,-251.8 514.54,-231.69 482.17,-216.49"/>
<polygon fill="Azure" stroke="Azure" points="483.51,-213.26 472.98,-212.15 480.52,-219.59 483.51,-213.26"/>
<text text-anchor="middle" x="605.5" y="-254.8" font-family="Courier New" font-size="14.00" fill="Azure">r</text>
</g>
<!-- RollOutcome&#45;3 -->
<g id="node3" class="node">
<title>RollOutcome&#45;3</title>
<polygon fill="none" stroke="Azure" points="949,-212 845,-212 845,-176 949,-176 949,-212"/>
<text text-anchor="start" x="853" y="-197.8" font-family="Helvetica,sans-Serif" font-weight="bold" font-size="14.00" fill="Azure">RollOutcome</text>
<text text-anchor="start" x="863" y="-183.8" font-family="Courier New" font-size="14.00" fill="Azure">value=60</text>
</g>
<!-- Roll&#45;1&#45;&gt;RollOutcome&#45;3 -->
<g id="edge2" class="edge">
<title>Roll&#45;1&#45;&gt;RollOutcome&#45;3</title>
<path fill="none" stroke="Azure" d="M763.23,-285.74C782.94,-274.45 810.03,-258.42 833,-243 844.46,-235.3 856.68,-226.35 867.33,-218.27"/>
<polygon fill="Azure" stroke="Azure" points="869.68,-220.88 875.49,-212.02 865.42,-215.32 869.68,-220.88"/>
<text text-anchor="middle" x="833" y="-254.8" font-family="Courier New" font-size="14.00" fill="Azure">[0]</text>
</g>
<!-- RollOutcome&#45;4 -->
<g id="node4" class="node">
<title>RollOutcome&#45;4</title>
<polygon fill="none" stroke="Azure" points="1071,-212 967,-212 967,-176 1071,-176 1071,-212"/>
<text text-anchor="start" x="975" y="-197.8" font-family="Helvetica,sans-Serif" font-weight="bold" font-size="14.00" fill="Azure">RollOutcome</text>
<text text-anchor="start" x="985" y="-183.8" font-family="Courier New" font-size="14.00" fill="Azure">value=&#45;1</text>
</g>
<!-- Roll&#45;1&#45;&gt;RollOutcome&#45;4 -->
<g id="edge3" class="edge">
<title>Roll&#45;1&#45;&gt;RollOutcome&#45;4</title>
<path fill="none" stroke="Azure" d="M763.23,-297.56C806.39,-291.31 892.36,-275.61 958,-243 970.67,-236.71 983.2,-227.51 993.58,-218.84"/>
<polygon fill="Azure" stroke="Azure" points="996.13,-221.26 1001.4,-212.07 991.55,-215.97 996.13,-221.26"/>
<text text-anchor="middle" x="948" y="-254.8" font-family="Courier New" font-size="14.00" fill="Azure">[1]</text>
</g>
<!-- Roll&#45;5 -->
<g id="node5" class="node">
<title>Roll&#45;5</title>
<polygon fill="none" stroke="LightBlue" stroke-dasharray="5,2" points="651,-139 597,-139 597,-103 651,-103 651,-139"/>
<text text-anchor="start" x="610.5" y="-118.3" font-family="Helvetica,sans-Serif" font-weight="bold" font-size="14.00" fill="LightBlue">Roll</text>
</g>
<!-- Roll&#45;1&#45;&gt;Roll&#45;5 -->
<g id="edge8" class="edge">
<title>Roll&#45;1&#45;&gt;Roll&#45;5</title>
<path fill="none" stroke="LightBlue" stroke-dasharray="5,2" d="M708.71,-290.27C688.47,-280.87 661.89,-265.21 647,-243 628.25,-215.03 623.86,-175.67 623.27,-149.53"/>
<polygon fill="LightBlue" stroke="LightBlue" points="626.76,-149.19 623.21,-139.21 619.76,-149.23 626.76,-149.19"/>
<text text-anchor="middle" x="689.5" y="-190.3" font-family="Courier New" font-size="14.00" fill="LightBlue">sources[0]</text>
</g>
<!-- Roll&#45;8 -->
<g id="node8" class="node">
<title>Roll&#45;8</title>
<polygon fill="none" stroke="LightPink" stroke-dasharray="5,2" points="763,-139 709,-139 709,-103 763,-103 763,-139"/>
<text text-anchor="start" x="722.5" y="-118.3" font-family="Helvetica,sans-Serif" font-weight="bold" font-size="14.00" fill="LightPink">Roll</text>
</g>
<!-- Roll&#45;1&#45;&gt;Roll&#45;8 -->
<g id="edge9" class="edge">
<title>Roll&#45;1&#45;&gt;Roll&#45;8</title>
<path fill="none" stroke="LightPink" stroke-dasharray="5,2" d="M736,-283.84C736,-252.7 736,-186.66 736,-149.28"/>
<polygon fill="LightPink" stroke="LightPink" points="739.5,-149.11 736,-139.11 732.5,-149.11 739.5,-149.11"/>
<text text-anchor="middle" x="778.5" y="-190.3" font-family="Courier New" font-size="14.00" fill="LightPink">sources[1]</text>
</g>
<!-- ValueRoller&#45;6 -->
<g id="node6" class="node">
<title>ValueRoller&#45;6</title>
<polygon fill="none" stroke="LightBlue" stroke-dasharray="5,2" points="285.5,-52 16.5,-52 16.5,-16 285.5,-16 285.5,-52"/>
<text text-anchor="start" x="112" y="-37.8" font-family="Helvetica,sans-Serif" font-weight="bold" font-size="14.00" fill="LightBlue">ValueRoller</text>
<text text-anchor="start" x="24.5" y="-23.8" font-family="Courier New" font-size="14.00" fill="LightBlue">value=H({0: 1, 10: 1, 20: 1...</text>
</g>
<!-- PoolRoller&#45;2&#45;&gt;ValueRoller&#45;6 -->
<g id="edge10" class="edge">
<title>PoolRoller&#45;2&#45;&gt;ValueRoller&#45;6</title>
<path fill="none" stroke="LightBlue" stroke-dasharray="5,2" d="M407.01,-175.94C354.73,-147.16 249.05,-88.98 191.16,-57.11"/>
<polygon fill="LightBlue" stroke="LightBlue" points="192.74,-53.98 182.29,-52.23 189.36,-60.12 192.74,-53.98"/>
<text text-anchor="middle" x="382.5" y="-117.3" font-family="Courier New" font-size="14.00" fill="LightBlue">sources[0]</text>
</g>
<!-- ValueRoller&#45;9 -->
<g id="node9" class="node">
<title>ValueRoller&#45;9</title>
<polygon fill="none" stroke="LightPink" stroke-dasharray="5,2" points="572.5,-52 303.5,-52 303.5,-16 572.5,-16 572.5,-52"/>
<text text-anchor="start" x="399" y="-37.8" font-family="Helvetica,sans-Serif" font-weight="bold" font-size="14.00" fill="LightPink">ValueRoller</text>
<text text-anchor="start" x="311.5" y="-23.8" font-family="Courier New" font-size="14.00" fill="LightPink">value=H({0: 1, 1: 1, 2: 1, ...</text>
</g>
<!-- PoolRoller&#45;2&#45;&gt;ValueRoller&#45;9 -->
<g id="edge11" class="edge">
<title>PoolRoller&#45;2&#45;&gt;ValueRoller&#45;9</title>
<path fill="none" stroke="LightPink" stroke-dasharray="5,2" d="M438,-175.79C438,-148.48 438,-94.99 438,-62.38"/>
<polygon fill="LightPink" stroke="LightPink" points="441.5,-62.19 438,-52.19 434.5,-62.19 441.5,-62.19"/>
<text text-anchor="middle" x="480.5" y="-117.3" font-family="Courier New" font-size="14.00" fill="LightPink">sources[1]</text>
</g>
<!-- RollOutcome&#45;7 -->
<g id="node7" class="node">
<title>RollOutcome&#45;7</title>
<polygon fill="none" stroke="LightBlue" stroke-dasharray="5,2" points="949,-52 845,-52 845,-16 949,-16 949,-52"/>
<text text-anchor="start" x="853" y="-37.8" font-family="Helvetica,sans-Serif" font-weight="bold" font-size="14.00" fill="LightBlue">RollOutcome</text>
<text text-anchor="start" x="863" y="-23.8" font-family="Courier New" font-size="14.00" fill="LightBlue">value=60</text>
</g>
<!-- RollOutcome&#45;3&#45;&gt;RollOutcome&#45;7 -->
<g id="edge12" class="edge">
<title>RollOutcome&#45;3&#45;&gt;RollOutcome&#45;7</title>
<path fill="none" stroke="LightBlue" stroke-dasharray="5,2" d="M889.71,-175.85C885.67,-165.41 881.06,-151.68 879,-139 875.87,-119.7 876.16,-114.35 879,-95 880.63,-83.86 883.89,-71.92 887.19,-61.65"/>
<polygon fill="LightBlue" stroke="LightBlue" points="890.55,-62.62 890.44,-52.03 883.92,-60.38 890.55,-62.62"/>
<text text-anchor="middle" x="921.5" y="-117.3" font-family="Courier New" font-size="14.00" fill="LightBlue">sources[0]</text>
</g>
<!-- RollOutcome&#45;10 -->
<g id="node10" class="node">
<title>RollOutcome&#45;10</title>
<polygon fill="none" stroke="LightPink" stroke-dasharray="5,2" points="1071,-52 967,-52 967,-16 1071,-16 1071,-52"/>
<text text-anchor="start" x="975" y="-37.8" font-family="Helvetica,sans-Serif" font-weight="bold" font-size="14.00" fill="LightPink">RollOutcome</text>
<text text-anchor="start" x="985" y="-23.8" font-family="Courier New" font-size="14.00" fill="LightPink">value=&#45;1</text>
</g>
<!-- RollOutcome&#45;4&#45;&gt;RollOutcome&#45;10 -->
<g id="edge13" class="edge">
<title>RollOutcome&#45;4&#45;&gt;RollOutcome&#45;10</title>
<path fill="none" stroke="LightPink" stroke-dasharray="5,2" d="M1019,-175.79C1019,-148.48 1019,-94.99 1019,-62.38"/>
<polygon fill="LightPink" stroke="LightPink" points="1022.5,-62.19 1019,-52.19 1015.5,-62.19 1022.5,-62.19"/>
<text text-anchor="middle" x="1061.5" y="-117.3" font-family="Courier New" font-size="14.00" fill="LightPink">sources[0]</text>
</g>
<!-- Roll&#45;5&#45;&gt;ValueRoller&#45;6 -->
<g id="edge4" class="edge">
<title>Roll&#45;5&#45;&gt;ValueRoller&#45;6</title>
<path fill="none" stroke="LightBlue" stroke-dasharray="5,2" d="M600.94,-102.93C595.89,-99.86 590.43,-97.01 585,-95 571.2,-89.9 415.45,-69.04 294.43,-53.33"/>
<polygon fill="LightBlue" stroke="LightBlue" points="294.68,-49.84 284.31,-52.02 293.78,-56.78 294.68,-49.84"/>
<text text-anchor="middle" x="527.5" y="-73.8" font-family="Courier New" font-size="14.00" fill="LightBlue">r</text>
</g>
<!-- Roll&#45;5&#45;&gt;RollOutcome&#45;7 -->
<g id="edge5" class="edge">
<title>Roll&#45;5&#45;&gt;RollOutcome&#45;7</title>
<path fill="none" stroke="LightBlue" stroke-dasharray="5,2" d="M633.19,-102.8C640.12,-91.59 650.71,-77.66 664,-70 692.26,-53.73 775.68,-44.15 834.61,-39.24"/>
<polygon fill="LightBlue" stroke="LightBlue" points="835.25,-42.7 844.94,-38.4 834.69,-35.72 835.25,-42.7"/>
<text text-anchor="middle" x="677" y="-73.8" font-family="Courier New" font-size="14.00" fill="LightBlue">[0]</text>
</g>
<!-- Roll&#45;8&#45;&gt;ValueRoller&#45;9 -->
<g id="edge6" class="edge">
<title>Roll&#45;8&#45;&gt;ValueRoller&#45;9</title>
<path fill="none" stroke="LightPink" stroke-dasharray="5,2" d="M724.88,-102.74C716.66,-91.49 704.42,-77.55 690,-70 670.45,-59.76 627.75,-52.18 582.97,-46.74"/>
<polygon fill="LightPink" stroke="LightPink" points="583.12,-43.24 572.78,-45.55 582.3,-50.19 583.12,-43.24"/>
<text text-anchor="middle" x="713.5" y="-73.8" font-family="Courier New" font-size="14.00" fill="LightPink">r</text>
</g>
<!-- Roll&#45;8&#45;&gt;RollOutcome&#45;10 -->
<g id="edge7" class="edge">
<title>Roll&#45;8&#45;&gt;RollOutcome&#45;10</title>
<path fill="none" stroke="LightPink" stroke-dasharray="5,2" d="M763.14,-111.85C807.5,-98.53 896.65,-71.75 957.09,-53.6"/>
<polygon fill="LightPink" stroke="LightPink" points="958.33,-56.88 966.9,-50.65 956.32,-50.17 958.33,-56.88"/>
<text text-anchor="middle" x="907" y="-73.8" font-family="Courier New" font-size="14.00" fill="LightPink">[0]</text>
</g>
</g>
</svg>
