<?xml version="1.0" encoding="UTF-8" standalone="no"?>
<!DOCTYPE svg PUBLIC "-//W3C//DTD SVG 1.1//EN"
 "http://www.w3.org/Graphics/SVG/1.1/DTD/svg11.dtd">
<!-- Generated by graphviz version 2.41.20171026.1811 (20171026.1811)
 -->
<!-- Title: %3 Pages: 1 -->
<svg width="1180pt" height="527pt"
 viewBox="0.00 0.00 1180.00 527.00" xmlns="http://www.w3.org/2000/svg" xmlns:xlink="http://www.w3.org/1999/xlink">
<g id="graph0" class="graph" transform="scale(1 1) rotate(0) translate(4 523)">
<title>%3</title>
<g id="clust1" class="cluster">
<title>cluster_rolls</title>
<polygon fill="transparent" stroke="DarkSlateGray" stroke-dasharray="1,5" points="292,-95 292,-511 653,-511 653,-95 292,-95"/>
<text text-anchor="start" x="444" y="-496.8" font-family="Helvetica,sans-Serif" font-style="italic" font-size="14.00" fill="DarkSlateGray">Roll Tree</text>
</g>
<g id="clust2" class="cluster">
<title>cluster_rollers</title>
<polygon fill="transparent" stroke="DarkSlateGray" stroke-dasharray="1,5" points="8,-8 8,-403 284,-403 284,-8 8,-8"/>
<text text-anchor="start" x="111" y="-388.8" font-family="Helvetica,sans-Serif" font-style="italic" font-size="14.00" fill="DarkSlateGray">Roller Tree</text>
</g>
<g id="clust3" class="cluster">
<title>cluster_roll_outcomes</title>
<polygon fill="transparent" stroke="DarkSlateGray" stroke-dasharray="1,5" points="661,-8 661,-403 1147,-403 1147,-8 661,-8"/>
<text text-anchor="start" x="858" y="-388.8" font-family="Helvetica,sans-Serif" font-style="italic" font-size="14.00" fill="DarkSlateGray">Roll Outcomes</text>
</g>
<!-- Roll&#45;1 -->
<g id="node1" class="node">
<title>Roll&#45;1</title>
<polygon fill="none" stroke="DarkSlateGray" points="645,-480 591,-480 591,-444 645,-444 645,-480"/>
<text text-anchor="start" x="604.5" y="-459.3" font-family="Helvetica,sans-Serif" font-weight="bold" font-size="14.00" fill="DarkSlateGray">Roll</text>
</g>
<!-- SelectionRoller&#45;2 -->
<g id="node2" class="node">
<title>SelectionRoller&#45;2</title>
<polygon fill="none" stroke="DarkSlateGray" points="276,-372 16,-372 16,-336 276,-336 276,-372"/>
<text text-anchor="start" x="95" y="-357.8" font-family="Helvetica,sans-Serif" font-weight="bold" font-size="14.00" fill="DarkSlateGray">SelectionRoller</text>
<text text-anchor="start" x="24" y="-343.8" font-family="Courier New" font-size="14.00" fill="DarkSlateGray">which=(slice(1, None, None),)</text>
</g>
<!-- Roll&#45;1&#45;&gt;SelectionRoller&#45;2 -->
<g id="edge1" class="edge">
<title>Roll&#45;1&#45;&gt;SelectionRoller&#45;2</title>
<path fill="none" stroke="DarkSlateGray" d="M590.76,-457.64C533.91,-450.32 398.75,-431.28 288,-403 258.6,-395.49 226.52,-384.87 200.31,-375.52"/>
<polygon fill="DarkSlateGray" stroke="DarkSlateGray" points="201.16,-372.11 190.56,-372.01 198.78,-378.69 201.16,-372.11"/>
<text text-anchor="middle" x="390.5" y="-414.8" font-family="Courier New" font-size="14.00" fill="DarkSlateGray">r</text>
</g>
<!-- RollOutcome&#45;3 -->
<g id="node3" class="node">
<title>RollOutcome&#45;3</title>
<polygon fill="none" stroke="DarkSlateGray" points="1017,-372 913,-372 913,-336 1017,-336 1017,-372"/>
<text text-anchor="start" x="921" y="-357.8" font-family="Helvetica,sans-Serif" font-weight="bold" font-size="14.00" fill="DarkSlateGray">RollOutcome</text>
<text text-anchor="start" x="935.5" y="-343.8" font-family="Courier New" font-size="14.00" fill="DarkSlateGray">value=1</text>
</g>
<!-- Roll&#45;1&#45;&gt;RollOutcome&#45;3 -->
<g id="edge2" class="edge">
<title>Roll&#45;1&#45;&gt;RollOutcome&#45;3</title>
<path fill="none" stroke="DarkSlateGray" d="M645.34,-459.72C697.85,-456.35 815.42,-444.41 904,-403 917.04,-396.91 929.81,-387.54 940.27,-378.7"/>
<polygon fill="DarkSlateGray" stroke="DarkSlateGray" points="942.58,-381.33 947.79,-372.1 937.96,-376.07 942.58,-381.33"/>
<text text-anchor="middle" x="895" y="-414.8" font-family="Courier New" font-size="14.00" fill="DarkSlateGray">[0]</text>
</g>
<!-- RollOutcome&#45;4 -->
<g id="node4" class="node">
<title>RollOutcome&#45;4</title>
<polygon fill="none" stroke="DarkSlateGray" points="773,-372 669,-372 669,-336 773,-336 773,-372"/>
<text text-anchor="start" x="677" y="-357.8" font-family="Helvetica,sans-Serif" font-weight="bold" font-size="14.00" fill="DarkSlateGray">RollOutcome</text>
<text text-anchor="start" x="691.5" y="-343.8" font-family="Courier New" font-size="14.00" fill="DarkSlateGray">value=5</text>
</g>
<!-- Roll&#45;1&#45;&gt;RollOutcome&#45;4 -->
<g id="edge3" class="edge">
<title>Roll&#45;1&#45;&gt;RollOutcome&#45;4</title>
<path fill="none" stroke="DarkSlateGray" d="M634.55,-443.97C651.42,-426.61 677.76,-399.5 696.93,-379.77"/>
<polygon fill="DarkSlateGray" stroke="DarkSlateGray" points="699.69,-381.95 704.15,-372.34 694.67,-377.07 699.69,-381.95"/>
<text text-anchor="middle" x="679" y="-414.8" font-family="Courier New" font-size="14.00" fill="DarkSlateGray">[1]</text>
</g>
<!-- RollOutcome&#45;5 -->
<g id="node5" class="node">
<title>RollOutcome&#45;5</title>
<polygon fill="none" stroke="DarkSlateGray" points="1139,-372 1035,-372 1035,-336 1139,-336 1139,-372"/>
<text text-anchor="start" x="1043" y="-357.8" font-family="Helvetica,sans-Serif" font-weight="bold" font-size="14.00" fill="DarkSlateGray">RollOutcome</text>
<text text-anchor="start" x="1057.5" y="-343.8" font-family="Courier New" font-size="14.00" fill="DarkSlateGray">value=6</text>
</g>
<!-- Roll&#45;1&#45;&gt;RollOutcome&#45;5 -->
<g id="edge4" class="edge">
<title>Roll&#45;1&#45;&gt;RollOutcome&#45;5</title>
<path fill="none" stroke="DarkSlateGray" d="M645.04,-459.19C724.74,-453.53 957.48,-434.66 1026,-403 1039.06,-396.96 1051.84,-387.61 1062.3,-378.76"/>
<polygon fill="DarkSlateGray" stroke="DarkSlateGray" points="1064.61,-381.39 1069.81,-372.15 1059.99,-376.13 1064.61,-381.39"/>
<text text-anchor="middle" x="1014" y="-414.8" font-family="Courier New" font-size="14.00" fill="DarkSlateGray">[2]</text>
</g>
<!-- RollOutcome&#45;6 -->
<g id="node6" class="node">
<title>RollOutcome&#45;6</title>
<polygon fill="none" stroke="DarkSlateGray" stroke-dasharray="1,5" points="895,-372 791,-372 791,-336 895,-336 895,-372"/>
<text text-anchor="start" x="799" y="-357.8" font-family="Helvetica,sans-Serif" font-weight="bold" font-size="14.00" fill="DarkSlateGray">RollOutcome</text>
<text text-anchor="start" x="800.5" y="-343.8" font-family="Courier New" font-size="14.00" fill="DarkSlateGray">value=None</text>
</g>
<!-- Roll&#45;1&#45;&gt;RollOutcome&#45;6 -->
<g id="edge5" class="edge">
<title>Roll&#45;1&#45;&gt;RollOutcome&#45;6</title>
<path fill="none" stroke="DarkSlateGray" d="M645.27,-454.3C678.78,-445.42 736.76,-427.91 782,-403 794.2,-396.28 806.5,-387.16 816.82,-378.68"/>
<polygon fill="DarkSlateGray" stroke="DarkSlateGray" points="819.26,-381.2 824.63,-372.07 814.74,-375.85 819.26,-381.2"/>
<text text-anchor="middle" x="778" y="-414.8" font-family="Courier New" font-size="14.00" fill="DarkSlateGray">[3]</text>
</g>
<!-- Roll&#45;7 -->
<g id="node7" class="node">
<title>Roll&#45;7</title>
<polygon fill="none" stroke="MediumBlue" stroke-dasharray="5,2" points="577,-299 523,-299 523,-263 577,-263 577,-299"/>
<text text-anchor="start" x="536.5" y="-278.3" font-family="Helvetica,sans-Serif" font-weight="bold" font-size="14.00" fill="MediumBlue">Roll</text>
</g>
<!-- Roll&#45;1&#45;&gt;Roll&#45;7 -->
<g id="edge18" class="edge">
<title>Roll&#45;1&#45;&gt;Roll&#45;7</title>
<path fill="none" stroke="MediumBlue" stroke-dasharray="5,2" d="M600.55,-443.74C590.65,-432.94 578.89,-418.22 572,-403 558.28,-372.71 553.11,-334.49 551.17,-309.2"/>
<polygon fill="MediumBlue" stroke="MediumBlue" points="554.66,-308.96 550.52,-299.21 547.68,-309.42 554.66,-308.96"/>
<text text-anchor="middle" x="614.5" y="-350.3" font-family="Courier New" font-size="14.00" fill="MediumBlue">sources[0]</text>
</g>
<!-- Roll&#45;12 -->
<g id="node12" class="node">
<title>Roll&#45;12</title>
<polygon fill="none" stroke="MediumVioletRed" stroke-dasharray="5,2" points="466,-299 412,-299 412,-263 466,-263 466,-299"/>
<text text-anchor="start" x="425.5" y="-278.3" font-family="Helvetica,sans-Serif" font-weight="bold" font-size="14.00" fill="MediumVioletRed">Roll</text>
</g>
<!-- Roll&#45;1&#45;&gt;Roll&#45;12 -->
<g id="edge19" class="edge">
<title>Roll&#45;1&#45;&gt;Roll&#45;12</title>
<path fill="none" stroke="MediumVioletRed" stroke-dasharray="5,2" d="M590.88,-458.5C556.32,-453.81 497.22,-440.48 465,-403 442.6,-376.94 438.04,-336.2 437.77,-309.31"/>
<polygon fill="MediumVioletRed" stroke="MediumVioletRed" points="441.27,-309.09 437.87,-299.05 434.27,-309.02 441.27,-309.09"/>
<text text-anchor="middle" x="507.5" y="-350.3" font-family="Courier New" font-size="14.00" fill="MediumVioletRed">sources[1]</text>
</g>
<!-- RepeatRoller&#45;8 -->
<g id="node8" class="node">
<title>RepeatRoller&#45;8</title>
<polygon fill="none" stroke="MediumBlue" stroke-dasharray="5,2" points="242.5,-212 139.5,-212 139.5,-176 242.5,-176 242.5,-212"/>
<text text-anchor="start" x="147.5" y="-197.8" font-family="Helvetica,sans-Serif" font-weight="bold" font-size="14.00" fill="MediumBlue">RepeatRoller</text>
<text text-anchor="start" x="178" y="-183.8" font-family="Courier New" font-size="14.00" fill="MediumBlue">n=3</text>
</g>
<!-- SelectionRoller&#45;2&#45;&gt;RepeatRoller&#45;8 -->
<g id="edge23" class="edge">
<title>SelectionRoller&#45;2&#45;&gt;RepeatRoller&#45;8</title>
<path fill="none" stroke="MediumBlue" stroke-dasharray="5,2" d="M150.9,-335.79C158.71,-308.37 174.05,-254.53 183.32,-221.96"/>
<polygon fill="MediumBlue" stroke="MediumBlue" points="186.73,-222.76 186.1,-212.19 180,-220.85 186.73,-222.76"/>
<text text-anchor="middle" x="214.5" y="-277.3" font-family="Courier New" font-size="14.00" fill="MediumBlue">sources[0]</text>
</g>
<!-- ValueRoller&#45;13 -->
<g id="node13" class="node">
<title>ValueRoller&#45;13</title>
<polygon fill="none" stroke="MediumVioletRed" stroke-dasharray="5,2" points="121.5,-212 20.5,-212 20.5,-176 121.5,-176 121.5,-212"/>
<text text-anchor="start" x="32" y="-197.8" font-family="Helvetica,sans-Serif" font-weight="bold" font-size="14.00" fill="MediumVioletRed">ValueRoller</text>
<text text-anchor="start" x="28.5" y="-183.8" font-family="Courier New" font-size="14.00" fill="MediumVioletRed">value=H(8)</text>
</g>
<!-- SelectionRoller&#45;2&#45;&gt;ValueRoller&#45;13 -->
<g id="edge24" class="edge">
<title>SelectionRoller&#45;2&#45;&gt;ValueRoller&#45;13</title>
<path fill="none" stroke="MediumVioletRed" stroke-dasharray="5,2" d="M110.38,-335.86C96.08,-326.99 81.1,-314.69 73,-299 60.75,-275.28 61.98,-244.28 65.21,-222.31"/>
<polygon fill="MediumVioletRed" stroke="MediumVioletRed" points="68.68,-222.77 66.9,-212.33 61.78,-221.6 68.68,-222.77"/>
<text text-anchor="middle" x="115.5" y="-277.3" font-family="Courier New" font-size="14.00" fill="MediumVioletRed">sources[1]</text>
</g>
<!-- RollOutcome&#45;11 -->
<g id="node11" class="node">
<title>RollOutcome&#45;11</title>
<polygon fill="none" stroke="MediumBlue" stroke-dasharray="5,2" points="1017,-212 913,-212 913,-176 1017,-176 1017,-212"/>
<text text-anchor="start" x="921" y="-197.8" font-family="Helvetica,sans-Serif" font-weight="bold" font-size="14.00" fill="MediumBlue">RollOutcome</text>
<text text-anchor="start" x="935.5" y="-183.8" font-family="Courier New" font-size="14.00" fill="MediumBlue">value=1</text>
</g>
<!-- RollOutcome&#45;3&#45;&gt;RollOutcome&#45;11 -->
<g id="edge26" class="edge">
<title>RollOutcome&#45;3&#45;&gt;RollOutcome&#45;11</title>
<path fill="none" stroke="MediumBlue" stroke-dasharray="5,2" d="M957.71,-335.85C953.67,-325.41 949.06,-311.68 947,-299 942.74,-272.73 949.1,-242.8 955.41,-221.81"/>
<polygon fill="MediumBlue" stroke="MediumBlue" points="958.75,-222.87 958.46,-212.28 952.08,-220.74 958.75,-222.87"/>
<text text-anchor="middle" x="989.5" y="-277.3" font-family="Courier New" font-size="14.00" fill="MediumBlue">sources[0]</text>
</g>
<!-- RollOutcome&#45;14 -->
<g id="node14" class="node">
<title>RollOutcome&#45;14</title>
<polygon fill="none" stroke="MediumVioletRed" stroke-dasharray="5,2" points="773,-212 669,-212 669,-176 773,-176 773,-212"/>
<text text-anchor="start" x="677" y="-197.8" font-family="Helvetica,sans-Serif" font-weight="bold" font-size="14.00" fill="MediumVioletRed">RollOutcome</text>
<text text-anchor="start" x="691.5" y="-183.8" font-family="Courier New" font-size="14.00" fill="MediumVioletRed">value=5</text>
</g>
<!-- RollOutcome&#45;4&#45;&gt;RollOutcome&#45;14 -->
<g id="edge27" class="edge">
<title>RollOutcome&#45;4&#45;&gt;RollOutcome&#45;14</title>
<path fill="none" stroke="MediumVioletRed" stroke-dasharray="5,2" d="M714.51,-335.77C710.92,-325.31 706.82,-311.58 705,-299 702.7,-283.17 696.92,-276.81 705,-263 713.24,-248.91 728.76,-259.09 737,-245 741.19,-237.84 740.38,-229.45 737.59,-221.62"/>
<polygon fill="MediumVioletRed" stroke="MediumVioletRed" points="740.75,-220.1 733.42,-212.45 734.37,-223 740.75,-220.1"/>
<text text-anchor="middle" x="747.5" y="-277.3" font-family="Courier New" font-size="14.00" fill="MediumVioletRed">sources[0]</text>
</g>
<!-- RollOutcome&#45;9 -->
<g id="node9" class="node">
<title>RollOutcome&#45;9</title>
<polygon fill="none" stroke="MediumBlue" stroke-dasharray="5,2" points="1139,-212 1035,-212 1035,-176 1139,-176 1139,-212"/>
<text text-anchor="start" x="1043" y="-197.8" font-family="Helvetica,sans-Serif" font-weight="bold" font-size="14.00" fill="MediumBlue">RollOutcome</text>
<text text-anchor="start" x="1057.5" y="-183.8" font-family="Courier New" font-size="14.00" fill="MediumBlue">value=6</text>
</g>
<!-- RollOutcome&#45;5&#45;&gt;RollOutcome&#45;9 -->
<g id="edge28" class="edge">
<title>RollOutcome&#45;5&#45;&gt;RollOutcome&#45;9</title>
<path fill="none" stroke="MediumBlue" stroke-dasharray="5,2" d="M1087,-335.79C1087,-308.48 1087,-254.99 1087,-222.38"/>
<polygon fill="MediumBlue" stroke="MediumBlue" points="1090.5,-222.19 1087,-212.19 1083.5,-222.19 1090.5,-222.19"/>
<text text-anchor="middle" x="1129.5" y="-277.3" font-family="Courier New" font-size="14.00" fill="MediumBlue">sources[0]</text>
</g>
<!-- RollOutcome&#45;10 -->
<g id="node10" class="node">
<title>RollOutcome&#45;10</title>
<polygon fill="none" stroke="MediumBlue" stroke-dasharray="5,2" points="895,-212 791,-212 791,-176 895,-176 895,-212"/>
<text text-anchor="start" x="799" y="-197.8" font-family="Helvetica,sans-Serif" font-weight="bold" font-size="14.00" fill="MediumBlue">RollOutcome</text>
<text text-anchor="start" x="813.5" y="-183.8" font-family="Courier New" font-size="14.00" fill="MediumBlue">value=1</text>
</g>
<!-- RollOutcome&#45;6&#45;&gt;RollOutcome&#45;10 -->
<g id="edge29" class="edge">
<title>RollOutcome&#45;6&#45;&gt;RollOutcome&#45;10</title>
<path fill="none" stroke="MediumBlue" stroke-dasharray="5,2" d="M843,-335.79C843,-308.48 843,-254.99 843,-222.38"/>
<polygon fill="MediumBlue" stroke="MediumBlue" points="846.5,-222.19 843,-212.19 839.5,-222.19 846.5,-222.19"/>
<text text-anchor="middle" x="885.5" y="-277.3" font-family="Courier New" font-size="14.00" fill="MediumBlue">sources[0]</text>
</g>
<!-- Roll&#45;7&#45;&gt;RepeatRoller&#45;8 -->
<g id="edge6" class="edge">
<title>Roll&#45;7&#45;&gt;RepeatRoller&#45;8</title>
<path fill="none" stroke="MediumBlue" stroke-dasharray="5,2" d="M522.72,-273C508.57,-269.58 490.94,-265.64 475,-263 399.6,-250.53 377.84,-264.7 304,-245 279.08,-238.35 252.65,-226.92 231.62,-216.67"/>
<polygon fill="MediumBlue" stroke="MediumBlue" points="233.17,-213.53 222.66,-212.21 230.06,-219.8 233.17,-213.53"/>
<text text-anchor="middle" x="308.5" y="-233.8" font-family="Courier New" font-size="14.00" fill="MediumBlue">r</text>
</g>
<!-- Roll&#45;7&#45;&gt;RollOutcome&#45;9 -->
<g id="edge7" class="edge">
<title>Roll&#45;7&#45;&gt;RollOutcome&#45;9</title>
<path fill="none" stroke="MediumBlue" stroke-dasharray="5,2" d="M577.24,-275.52C598.85,-272 629.84,-267.03 657,-263 817.56,-239.15 862.16,-245.37 1025,-212.06"/>
<polygon fill="MediumBlue" stroke="MediumBlue" points="1025.78,-215.47 1034.87,-210.03 1024.37,-208.62 1025.78,-215.47"/>
<text text-anchor="middle" x="939" y="-233.8" font-family="Courier New" font-size="14.00" fill="MediumBlue">[0]</text>
</g>
<!-- Roll&#45;7&#45;&gt;RollOutcome&#45;10 -->
<g id="edge8" class="edge">
<title>Roll&#45;7&#45;&gt;RollOutcome&#45;10</title>
<path fill="none" stroke="MediumBlue" stroke-dasharray="5,2" d="M569.07,-262.9C583.87,-250.01 603.44,-233.91 613,-230 680.04,-202.56 705.69,-224.24 780.95,-211.91"/>
<polygon fill="MediumBlue" stroke="MediumBlue" points="781.66,-215.34 790.89,-210.13 780.43,-208.45 781.66,-215.34"/>
<text text-anchor="middle" x="626" y="-233.8" font-family="Courier New" font-size="14.00" fill="MediumBlue">[1]</text>
</g>
<!-- Roll&#45;7&#45;&gt;RollOutcome&#45;11 -->
<g id="edge9" class="edge">
<title>Roll&#45;7&#45;&gt;RollOutcome&#45;11</title>
<path fill="none" stroke="MediumBlue" stroke-dasharray="5,2" d="M577.11,-270.96C595.07,-264.58 618.93,-255.35 639,-245 649.85,-239.4 650.44,-233.91 662,-230 761.18,-196.46 795.73,-228.57 903,-211.89"/>
<polygon fill="MediumBlue" stroke="MediumBlue" points="903.62,-215.34 912.91,-210.25 902.47,-208.43 903.62,-215.34"/>
<text text-anchor="middle" x="675" y="-233.8" font-family="Courier New" font-size="14.00" fill="MediumBlue">[2]</text>
</g>
<!-- Roll&#45;15 -->
<g id="node15" class="node">
<title>Roll&#45;15</title>
<polygon fill="none" stroke="MediumBlue" stroke-dasharray="5,2" points="587,-139 533,-139 533,-103 587,-103 587,-139"/>
<text text-anchor="start" x="546.5" y="-118.3" font-family="Helvetica,sans-Serif" font-weight="bold" font-size="14.00" fill="MediumBlue">Roll</text>
</g>
<!-- Roll&#45;7&#45;&gt;Roll&#45;15 -->
<g id="edge20" class="edge">
<title>Roll&#45;7&#45;&gt;Roll&#45;15</title>
<path fill="none" stroke="MediumBlue" stroke-dasharray="5,2" d="M546.49,-262.98C545.47,-257.29 544.5,-250.9 544,-245 541.17,-211.77 547.62,-173.73 553.16,-148.86"/>
<polygon fill="MediumBlue" stroke="MediumBlue" points="556.58,-149.59 555.45,-139.06 549.76,-148 556.58,-149.59"/>
<text text-anchor="middle" x="589.5" y="-190.3" font-family="Courier New" font-size="14.00" fill="MediumBlue">sources[0]</text>
</g>
<!-- Roll&#45;18 -->
<g id="node18" class="node">
<title>Roll&#45;18</title>
<polygon fill="none" stroke="MediumBlue" stroke-dasharray="5,2" points="354,-139 300,-139 300,-103 354,-103 354,-139"/>
<text text-anchor="start" x="313.5" y="-118.3" font-family="Helvetica,sans-Serif" font-weight="bold" font-size="14.00" fill="MediumBlue">Roll</text>
</g>
<!-- Roll&#45;7&#45;&gt;Roll&#45;18 -->
<g id="edge21" class="edge">
<title>Roll&#45;7&#45;&gt;Roll&#45;18</title>
<path fill="none" stroke="MediumBlue" stroke-dasharray="5,2" d="M522.79,-273.96C474.3,-262.68 375.8,-237.27 352,-212 336.15,-195.17 330.2,-169.16 328.04,-149.43"/>
<polygon fill="MediumBlue" stroke="MediumBlue" points="331.5,-148.88 327.19,-139.21 324.53,-149.46 331.5,-148.88"/>
<text text-anchor="middle" x="394.5" y="-190.3" font-family="Courier New" font-size="14.00" fill="MediumBlue">sources[1]</text>
</g>
<!-- Roll&#45;20 -->
<g id="node20" class="node">
<title>Roll&#45;20</title>
<polygon fill="none" stroke="MediumBlue" stroke-dasharray="5,2" points="466,-139 412,-139 412,-103 466,-103 466,-139"/>
<text text-anchor="start" x="425.5" y="-118.3" font-family="Helvetica,sans-Serif" font-weight="bold" font-size="14.00" fill="MediumBlue">Roll</text>
</g>
<!-- Roll&#45;7&#45;&gt;Roll&#45;20 -->
<g id="edge22" class="edge">
<title>Roll&#45;7&#45;&gt;Roll&#45;20</title>
<path fill="none" stroke="MediumBlue" stroke-dasharray="5,2" d="M522.62,-268.03C500.43,-256.84 470.27,-237.96 454,-212 442.27,-193.29 438.87,-168.26 438.2,-149.35"/>
<polygon fill="MediumBlue" stroke="MediumBlue" points="441.7,-149.24 438.08,-139.29 434.7,-149.33 441.7,-149.24"/>
<text text-anchor="middle" x="496.5" y="-190.3" font-family="Courier New" font-size="14.00" fill="MediumBlue">sources[2]</text>
</g>
<!-- ValueRoller&#45;16 -->
<g id="node16" class="node">
<title>ValueRoller&#45;16</title>
<polygon fill="none" stroke="MediumBlue" stroke-dasharray="5,2" points="275.5,-52 174.5,-52 174.5,-16 275.5,-16 275.5,-52"/>
<text text-anchor="start" x="186" y="-37.8" font-family="Helvetica,sans-Serif" font-weight="bold" font-size="14.00" fill="MediumBlue">ValueRoller</text>
<text text-anchor="start" x="182.5" y="-23.8" font-family="Courier New" font-size="14.00" fill="MediumBlue">value=H(6)</text>
</g>
<!-- RepeatRoller&#45;8&#45;&gt;ValueRoller&#45;16 -->
<g id="edge25" class="edge">
<title>RepeatRoller&#45;8&#45;&gt;ValueRoller&#45;16</title>
<path fill="none" stroke="MediumBlue" stroke-dasharray="5,2" d="M191.91,-175.79C193.23,-156.05 196.29,-122.83 203,-95 205.72,-83.72 209.89,-71.64 213.87,-61.3"/>
<polygon fill="MediumBlue" stroke="MediumBlue" points="217.12,-62.59 217.57,-52 210.62,-60 217.12,-62.59"/>
<text text-anchor="middle" x="245.5" y="-117.3" font-family="Courier New" font-size="14.00" fill="MediumBlue">sources[0]</text>
</g>
<!-- RollOutcome&#45;17 -->
<g id="node17" class="node">
<title>RollOutcome&#45;17</title>
<polygon fill="none" stroke="MediumBlue" stroke-dasharray="5,2" points="1094,-52 990,-52 990,-16 1094,-16 1094,-52"/>
<text text-anchor="start" x="998" y="-37.8" font-family="Helvetica,sans-Serif" font-weight="bold" font-size="14.00" fill="MediumBlue">RollOutcome</text>
<text text-anchor="start" x="1012.5" y="-23.8" font-family="Courier New" font-size="14.00" fill="MediumBlue">value=6</text>
</g>
<!-- RollOutcome&#45;9&#45;&gt;RollOutcome&#45;17 -->
<g id="edge31" class="edge">
<title>RollOutcome&#45;9&#45;&gt;RollOutcome&#45;17</title>
<path fill="none" stroke="MediumBlue" stroke-dasharray="5,2" d="M1082.1,-175.79C1074.29,-148.37 1058.95,-94.53 1049.68,-61.96"/>
<polygon fill="MediumBlue" stroke="MediumBlue" points="1053,-60.85 1046.9,-52.19 1046.27,-62.76 1053,-60.85"/>
<text text-anchor="middle" x="1113.5" y="-117.3" font-family="Courier New" font-size="14.00" fill="MediumBlue">sources[0]</text>
</g>
<!-- RollOutcome&#45;19 -->
<g id="node19" class="node">
<title>RollOutcome&#45;19</title>
<polygon fill="none" stroke="MediumBlue" stroke-dasharray="5,2" points="817,-52 713,-52 713,-16 817,-16 817,-52"/>
<text text-anchor="start" x="721" y="-37.8" font-family="Helvetica,sans-Serif" font-weight="bold" font-size="14.00" fill="MediumBlue">RollOutcome</text>
<text text-anchor="start" x="735.5" y="-23.8" font-family="Courier New" font-size="14.00" fill="MediumBlue">value=1</text>
</g>
<!-- RollOutcome&#45;10&#45;&gt;RollOutcome&#45;19 -->
<g id="edge32" class="edge">
<title>RollOutcome&#45;10&#45;&gt;RollOutcome&#45;19</title>
<path fill="none" stroke="MediumBlue" stroke-dasharray="5,2" d="M834.5,-175.79C820.91,-148.25 794.16,-94.06 778.1,-61.53"/>
<polygon fill="MediumBlue" stroke="MediumBlue" points="781.05,-59.61 773.49,-52.19 774.77,-62.7 781.05,-59.61"/>
<text text-anchor="middle" x="858.5" y="-117.3" font-family="Courier New" font-size="14.00" fill="MediumBlue">sources[0]</text>
</g>
<!-- RollOutcome&#45;21 -->
<g id="node21" class="node">
<title>RollOutcome&#45;21</title>
<polygon fill="none" stroke="MediumBlue" stroke-dasharray="5,2" points="961,-52 857,-52 857,-16 961,-16 961,-52"/>
<text text-anchor="start" x="865" y="-37.8" font-family="Helvetica,sans-Serif" font-weight="bold" font-size="14.00" fill="MediumBlue">RollOutcome</text>
<text text-anchor="start" x="879.5" y="-23.8" font-family="Courier New" font-size="14.00" fill="MediumBlue">value=1</text>
</g>
<!-- RollOutcome&#45;11&#45;&gt;RollOutcome&#45;21 -->
<g id="edge30" class="edge">
<title>RollOutcome&#45;11&#45;&gt;RollOutcome&#45;21</title>
<path fill="none" stroke="MediumBlue" stroke-dasharray="5,2" d="M958.9,-175.79C949.18,-148.37 930.1,-94.53 918.55,-61.96"/>
<polygon fill="MediumBlue" stroke="MediumBlue" points="921.73,-60.44 915.09,-52.19 915.13,-62.78 921.73,-60.44"/>
<text text-anchor="middle" x="987.5" y="-117.3" font-family="Courier New" font-size="14.00" fill="MediumBlue">sources[0]</text>
</g>
<!-- Roll&#45;12&#45;&gt;ValueRoller&#45;13 -->
<g id="edge10" class="edge">
<title>Roll&#45;12&#45;&gt;ValueRoller&#45;13</title>
<path fill="none" stroke="MediumVioletRed" stroke-dasharray="5,2" d="M411.93,-275.73C375.11,-269.76 307.24,-258.15 250,-245 199.04,-233.3 184.77,-227.63 131.22,-212.35"/>
<polygon fill="MediumVioletRed" stroke="MediumVioletRed" points="132.09,-208.96 121.52,-209.6 130.19,-215.69 132.09,-208.96"/>
<text text-anchor="middle" x="254.5" y="-233.8" font-family="Courier New" font-size="14.00" fill="MediumVioletRed">r</text>
</g>
<!-- Roll&#45;12&#45;&gt;RollOutcome&#45;14 -->
<g id="edge11" class="edge">
<title>Roll&#45;12&#45;&gt;RollOutcome&#45;14</title>
<path fill="none" stroke="MediumVioletRed" stroke-dasharray="5,2" d="M466.27,-267.35C491.25,-256.18 529.47,-240.15 564,-230 604.39,-218.13 615.96,-221.41 657,-212 657.6,-211.86 658.19,-211.73 658.79,-211.59"/>
<polygon fill="MediumVioletRed" stroke="MediumVioletRed" points="659.78,-214.95 668.68,-209.21 658.14,-208.14 659.78,-214.95"/>
<text text-anchor="middle" x="577" y="-233.8" font-family="Courier New" font-size="14.00" fill="MediumVioletRed">[0]</text>
</g>
<!-- Roll&#45;15&#45;&gt;ValueRoller&#45;16 -->
<g id="edge12" class="edge">
<title>Roll&#45;15&#45;&gt;ValueRoller&#45;16</title>
<path fill="none" stroke="MediumBlue" stroke-dasharray="5,2" d="M537.92,-102.84C522.32,-91.64 500.46,-77.71 479,-70 415.57,-47.21 338.33,-39.13 285.79,-36.34"/>
<polygon fill="MediumBlue" stroke="MediumBlue" points="285.78,-32.83 275.62,-35.85 285.44,-39.83 285.78,-32.83"/>
<text text-anchor="middle" x="513.5" y="-73.8" font-family="Courier New" font-size="14.00" fill="MediumBlue">r</text>
</g>
<!-- Roll&#45;15&#45;&gt;RollOutcome&#45;17 -->
<g id="edge13" class="edge">
<title>Roll&#45;15&#45;&gt;RollOutcome&#45;17</title>
<path fill="none" stroke="MediumBlue" stroke-dasharray="5,2" d="M587.4,-112.03C606.72,-106.64 633.28,-99.67 657,-95 794.77,-67.88 831.96,-77.72 970,-52 973.22,-51.4 976.51,-50.75 979.83,-50.07"/>
<polygon fill="MediumBlue" stroke="MediumBlue" points="980.77,-53.45 989.82,-47.94 979.31,-46.6 980.77,-53.45"/>
<text text-anchor="middle" x="852" y="-73.8" font-family="Courier New" font-size="14.00" fill="MediumBlue">[0]</text>
</g>
<!-- Roll&#45;18&#45;&gt;ValueRoller&#45;16 -->
<g id="edge14" class="edge">
<title>Roll&#45;18&#45;&gt;ValueRoller&#45;16</title>
<path fill="none" stroke="MediumBlue" stroke-dasharray="5,2" d="M302.42,-102.77C297.76,-99.93 292.83,-97.2 288,-95 273.67,-88.46 266.39,-94.73 254,-85 246.12,-78.81 239.97,-69.84 235.41,-61.2"/>
<polygon fill="MediumBlue" stroke="MediumBlue" points="238.53,-59.62 231.07,-52.1 232.21,-62.64 238.53,-59.62"/>
<text text-anchor="middle" x="258.5" y="-73.8" font-family="Courier New" font-size="14.00" fill="MediumBlue">r</text>
</g>
<!-- Roll&#45;18&#45;&gt;RollOutcome&#45;19 -->
<g id="edge15" class="edge">
<title>Roll&#45;18&#45;&gt;RollOutcome&#45;19</title>
<path fill="none" stroke="MediumBlue" stroke-dasharray="5,2" d="M346.53,-102.78C360.64,-91.4 380.72,-77.29 401,-70 454.88,-50.64 613.51,-41.18 702.55,-37.29"/>
<polygon fill="MediumBlue" stroke="MediumBlue" points="702.95,-40.78 712.79,-36.85 702.65,-33.78 702.95,-40.78"/>
<text text-anchor="middle" x="414" y="-73.8" font-family="Courier New" font-size="14.00" fill="MediumBlue">[0]</text>
</g>
<!-- Roll&#45;20&#45;&gt;ValueRoller&#45;16 -->
<g id="edge16" class="edge">
<title>Roll&#45;20&#45;&gt;ValueRoller&#45;16</title>
<path fill="none" stroke="MediumBlue" stroke-dasharray="5,2" d="M411.93,-111.05C397.42,-106.27 379.24,-100.29 363,-95 349.24,-90.52 345.47,-90.3 332,-85 310.52,-76.55 287.24,-65.87 267.89,-56.54"/>
<polygon fill="MediumBlue" stroke="MediumBlue" points="269.26,-53.32 258.74,-52.09 266.2,-59.61 269.26,-53.32"/>
<text text-anchor="middle" x="336.5" y="-73.8" font-family="Courier New" font-size="14.00" fill="MediumBlue">r</text>
</g>
<!-- Roll&#45;20&#45;&gt;RollOutcome&#45;21 -->
<g id="edge17" class="edge">
<title>Roll&#45;20&#45;&gt;RollOutcome&#45;21</title>
<path fill="none" stroke="MediumBlue" stroke-dasharray="5,2" d="M437.52,-102.52C437.62,-91.47 439.87,-77.85 449,-70 480.79,-42.65 784.39,-57.22 826,-52 832.77,-51.15 839.8,-50.05 846.79,-48.82"/>
<polygon fill="MediumBlue" stroke="MediumBlue" points="847.76,-52.2 856.96,-46.94 846.49,-45.32 847.76,-52.2"/>
<text text-anchor="middle" x="462" y="-73.8" font-family="Courier New" font-size="14.00" fill="MediumBlue">[0]</text>
</g>
</g>
</svg>
