<?xml version="1.0" encoding="UTF-8" standalone="no"?>
<!DOCTYPE svg PUBLIC "-//W3C//DTD SVG 1.1//EN"
 "http://www.w3.org/Graphics/SVG/1.1/DTD/svg11.dtd">
<!-- Generated by graphviz version 2.41.20171026.1811 (20171026.1811)
 -->
<!-- Title: %3 Pages: 1 -->
<svg width="762pt" height="367pt"
 viewBox="0.00 0.00 762.00 367.00" xmlns="http://www.w3.org/2000/svg" xmlns:xlink="http://www.w3.org/1999/xlink">
<g id="graph0" class="graph" transform="scale(1 1) rotate(0) translate(4 363)">
<title>%3</title>
<g id="clust1" class="cluster">
<title>cluster_rolls</title>
<polygon fill="transparent" stroke="DarkSlateGray" stroke-dasharray="1,5" points="256,-95 256,-351 496,-351 496,-95 256,-95"/>
<text text-anchor="start" x="347.5" y="-336.8" font-family="Helvetica,sans-Serif" font-style="italic" font-size="14.00" fill="DarkSlateGray">Roll Tree</text>
</g>
<g id="clust2" class="cluster">
<title>cluster_rollers</title>
<polygon fill="transparent" stroke="DarkSlateGray" stroke-dasharray="1,5" points="8,-8 8,-243 248,-243 248,-8 8,-8"/>
<text text-anchor="start" x="93" y="-228.8" font-family="Helvetica,sans-Serif" font-style="italic" font-size="14.00" fill="DarkSlateGray">Roller Tree</text>
</g>
<g id="clust3" class="cluster">
<title>cluster_roll_outcomes</title>
<polygon fill="transparent" stroke="DarkSlateGray" stroke-dasharray="1,5" points="504,-8 504,-243 746,-243 746,-8 504,-8"/>
<text text-anchor="start" x="579" y="-228.8" font-family="Helvetica,sans-Serif" font-style="italic" font-size="14.00" fill="DarkSlateGray">Roll Outcomes</text>
</g>
<!-- Roll&#45;1 -->
<g id="node1" class="node">
<title>Roll&#45;1</title>
<polygon fill="none" stroke="DarkSlateGray" points="374,-320 320,-320 320,-284 374,-284 374,-320"/>
<text text-anchor="start" x="333.5" y="-299.3" font-family="Helvetica,sans-Serif" font-weight="bold" font-size="14.00" fill="DarkSlateGray">Roll</text>
</g>
<!-- BinaryOperationRoller&#45;2 -->
<g id="node2" class="node">
<title>BinaryOperationRoller&#45;2</title>
<polygon fill="none" stroke="DarkSlateGray" points="238,-212 72,-212 72,-176 238,-176 238,-212"/>
<text text-anchor="start" x="80" y="-197.8" font-family="Helvetica,sans-Serif" font-weight="bold" font-size="14.00" fill="DarkSlateGray">BinaryOperationRoller</text>
<text text-anchor="start" x="129.5" y="-183.8" font-family="Courier New" font-size="14.00" fill="DarkSlateGray">op=add</text>
</g>
<!-- Roll&#45;1&#45;&gt;BinaryOperationRoller&#45;2 -->
<g id="edge1" class="edge">
<title>Roll&#45;1&#45;&gt;BinaryOperationRoller&#45;2</title>
<path fill="none" stroke="DarkSlateGray" d="M319.85,-290.11C304.39,-283.63 284.82,-274.95 268,-266 240.37,-251.3 210.44,-232.35 188.33,-217.72"/>
<polygon fill="DarkSlateGray" stroke="DarkSlateGray" points="190.22,-214.78 179.96,-212.14 186.34,-220.6 190.22,-214.78"/>
<text text-anchor="middle" x="272.5" y="-254.8" font-family="Courier New" font-size="14.00" fill="DarkSlateGray">r</text>
</g>
<!-- RollOutcome&#45;3 -->
<g id="node3" class="node">
<title>RollOutcome&#45;3</title>
<polygon fill="none" stroke="DarkSlateGray" points="616,-212 512,-212 512,-176 616,-176 616,-212"/>
<text text-anchor="start" x="520" y="-197.8" font-family="Helvetica,sans-Serif" font-weight="bold" font-size="14.00" fill="DarkSlateGray">RollOutcome</text>
<text text-anchor="start" x="530" y="-183.8" font-family="Courier New" font-size="14.00" fill="DarkSlateGray">value=11</text>
</g>
<!-- Roll&#45;1&#45;&gt;RollOutcome&#45;3 -->
<g id="edge2" class="edge">
<title>Roll&#45;1&#45;&gt;RollOutcome&#45;3</title>
<path fill="none" stroke="DarkSlateGray" d="M374.27,-293.22C405.68,-283.69 458.31,-265.93 500,-243 512.61,-236.07 525.49,-226.88 536.36,-218.41"/>
<polygon fill="DarkSlateGray" stroke="DarkSlateGray" points="538.62,-221.09 544.25,-212.11 534.25,-215.62 538.62,-221.09"/>
<text text-anchor="middle" x="497" y="-254.8" font-family="Courier New" font-size="14.00" fill="DarkSlateGray">[0]</text>
</g>
<!-- Roll&#45;4 -->
<g id="node4" class="node">
<title>Roll&#45;4</title>
<polygon fill="none" stroke="MediumBlue" stroke-dasharray="5,2" points="318,-139 264,-139 264,-103 318,-103 318,-139"/>
<text text-anchor="start" x="277.5" y="-118.3" font-family="Helvetica,sans-Serif" font-weight="bold" font-size="14.00" fill="MediumBlue">Roll</text>
</g>
<!-- Roll&#45;1&#45;&gt;Roll&#45;4 -->
<g id="edge7" class="edge">
<title>Roll&#45;1&#45;&gt;Roll&#45;4</title>
<path fill="none" stroke="MediumBlue" stroke-dasharray="5,2" d="M326.29,-283.95C315.14,-273.43 302.39,-258.93 296,-243 283.81,-212.61 284.61,-174.41 287.09,-149.15"/>
<polygon fill="MediumBlue" stroke="MediumBlue" points="290.58,-149.51 288.23,-139.18 283.62,-148.72 290.58,-149.51"/>
<text text-anchor="middle" x="338.5" y="-190.3" font-family="Courier New" font-size="14.00" fill="MediumBlue">sources[0]</text>
</g>
<!-- Roll&#45;7 -->
<g id="node7" class="node">
<title>Roll&#45;7</title>
<polygon fill="none" stroke="MediumVioletRed" stroke-dasharray="5,2" points="430,-139 376,-139 376,-103 430,-103 430,-139"/>
<text text-anchor="start" x="389.5" y="-118.3" font-family="Helvetica,sans-Serif" font-weight="bold" font-size="14.00" fill="MediumVioletRed">Roll</text>
</g>
<!-- Roll&#45;1&#45;&gt;Roll&#45;7 -->
<g id="edge8" class="edge">
<title>Roll&#45;1&#45;&gt;Roll&#45;7</title>
<path fill="none" stroke="MediumVioletRed" stroke-dasharray="5,2" d="M359.27,-283.78C366.64,-272.64 375.6,-257.56 381,-243 392.44,-212.13 398.08,-174.56 400.76,-149.55"/>
<polygon fill="MediumVioletRed" stroke="MediumVioletRed" points="404.27,-149.63 401.76,-139.33 397.3,-148.94 404.27,-149.63"/>
<text text-anchor="middle" x="439.5" y="-190.3" font-family="Courier New" font-size="14.00" fill="MediumVioletRed">sources[1]</text>
</g>
<!-- ValueRoller&#45;5 -->
<g id="node5" class="node">
<title>ValueRoller&#45;5</title>
<polygon fill="none" stroke="MediumBlue" stroke-dasharray="5,2" points="126.5,-52 17.5,-52 17.5,-16 126.5,-16 126.5,-52"/>
<text text-anchor="start" x="33" y="-37.8" font-family="Helvetica,sans-Serif" font-weight="bold" font-size="14.00" fill="MediumBlue">ValueRoller</text>
<text text-anchor="start" x="25.5" y="-23.8" font-family="Courier New" font-size="14.00" fill="MediumBlue">value=H(12)</text>
</g>
<!-- BinaryOperationRoller&#45;2&#45;&gt;ValueRoller&#45;5 -->
<g id="edge9" class="edge">
<title>BinaryOperationRoller&#45;2&#45;&gt;ValueRoller&#45;5</title>
<path fill="none" stroke="MediumBlue" stroke-dasharray="5,2" d="M111.79,-175.96C96.02,-167.39 79.89,-155.28 71,-139 58.14,-115.44 60.55,-84.17 64.84,-62.09"/>
<polygon fill="MediumBlue" stroke="MediumBlue" points="68.31,-62.58 67.03,-52.06 61.47,-61.08 68.31,-62.58"/>
<text text-anchor="middle" x="113.5" y="-117.3" font-family="Courier New" font-size="14.00" fill="MediumBlue">sources[0]</text>
</g>
<!-- ValueRoller&#45;8 -->
<g id="node8" class="node">
<title>ValueRoller&#45;8</title>
<polygon fill="none" stroke="MediumVioletRed" stroke-dasharray="5,2" points="239,-52 145,-52 145,-16 239,-16 239,-52"/>
<text text-anchor="start" x="153" y="-37.8" font-family="Helvetica,sans-Serif" font-weight="bold" font-size="14.00" fill="MediumVioletRed">ValueRoller</text>
<text text-anchor="start" x="162.5" y="-23.8" font-family="Courier New" font-size="14.00" fill="MediumVioletRed">value=4</text>
</g>
<!-- BinaryOperationRoller&#45;2&#45;&gt;ValueRoller&#45;8 -->
<g id="edge10" class="edge">
<title>BinaryOperationRoller&#45;2&#45;&gt;ValueRoller&#45;8</title>
<path fill="none" stroke="MediumVioletRed" stroke-dasharray="5,2" d="M155.69,-175.74C156.81,-155.95 159.69,-122.68 167,-95 169.99,-83.67 174.67,-71.66 179.17,-61.39"/>
<polygon fill="MediumVioletRed" stroke="MediumVioletRed" points="182.42,-62.7 183.38,-52.15 176.05,-59.8 182.42,-62.7"/>
<text text-anchor="middle" x="209.5" y="-117.3" font-family="Courier New" font-size="14.00" fill="MediumVioletRed">sources[1]</text>
</g>
<!-- RollOutcome&#45;6 -->
<g id="node6" class="node">
<title>RollOutcome&#45;6</title>
<polygon fill="none" stroke="MediumBlue" stroke-dasharray="5,2" points="616,-52 512,-52 512,-16 616,-16 616,-52"/>
<text text-anchor="start" x="520" y="-37.8" font-family="Helvetica,sans-Serif" font-weight="bold" font-size="14.00" fill="MediumBlue">RollOutcome</text>
<text text-anchor="start" x="534.5" y="-23.8" font-family="Courier New" font-size="14.00" fill="MediumBlue">value=7</text>
</g>
<!-- RollOutcome&#45;3&#45;&gt;RollOutcome&#45;6 -->
<g id="edge11" class="edge">
<title>RollOutcome&#45;3&#45;&gt;RollOutcome&#45;6</title>
<path fill="none" stroke="MediumBlue" stroke-dasharray="5,2" d="M556.71,-175.85C552.67,-165.41 548.06,-151.68 546,-139 542.87,-119.7 543.16,-114.35 546,-95 547.63,-83.86 550.89,-71.92 554.19,-61.65"/>
<polygon fill="MediumBlue" stroke="MediumBlue" points="557.55,-62.62 557.44,-52.03 550.92,-60.38 557.55,-62.62"/>
<text text-anchor="middle" x="588.5" y="-117.3" font-family="Courier New" font-size="14.00" fill="MediumBlue">sources[0]</text>
</g>
<!-- RollOutcome&#45;9 -->
<g id="node9" class="node">
<title>RollOutcome&#45;9</title>
<polygon fill="none" stroke="MediumVioletRed" stroke-dasharray="5,2" points="738,-52 634,-52 634,-16 738,-16 738,-52"/>
<text text-anchor="start" x="642" y="-37.8" font-family="Helvetica,sans-Serif" font-weight="bold" font-size="14.00" fill="MediumVioletRed">RollOutcome</text>
<text text-anchor="start" x="656.5" y="-23.8" font-family="Courier New" font-size="14.00" fill="MediumVioletRed">value=4</text>
</g>
<!-- RollOutcome&#45;3&#45;&gt;RollOutcome&#45;9 -->
<g id="edge12" class="edge">
<title>RollOutcome&#45;3&#45;&gt;RollOutcome&#45;9</title>
<path fill="none" stroke="MediumVioletRed" stroke-dasharray="5,2" d="M590,-175.9C603.39,-166.2 619.31,-153.18 631,-139 650.49,-115.36 666.03,-83.71 675.55,-61.56"/>
<polygon fill="MediumVioletRed" stroke="MediumVioletRed" points="678.87,-62.69 679.49,-52.11 672.41,-59.99 678.87,-62.69"/>
<text text-anchor="middle" x="701.5" y="-117.3" font-family="Courier New" font-size="14.00" fill="MediumVioletRed">sources[1]</text>
</g>
<!-- Roll&#45;4&#45;&gt;ValueRoller&#45;5 -->
<g id="edge3" class="edge">
<title>Roll&#45;4&#45;&gt;ValueRoller&#45;5</title>
<path fill="none" stroke="MediumBlue" stroke-dasharray="5,2" d="M266.35,-102.91C261.7,-100.06 256.79,-97.29 252,-95 214.92,-77.28 171.23,-62.58 136.17,-52.16"/>
<polygon fill="MediumBlue" stroke="MediumBlue" points="137.11,-48.79 126.53,-49.34 135.14,-55.51 137.11,-48.79"/>
<text text-anchor="middle" x="233.5" y="-73.8" font-family="Courier New" font-size="14.00" fill="MediumBlue">r</text>
</g>
<!-- Roll&#45;4&#45;&gt;RollOutcome&#45;6 -->
<g id="edge4" class="edge">
<title>Roll&#45;4&#45;&gt;RollOutcome&#45;6</title>
<path fill="none" stroke="MediumBlue" stroke-dasharray="5,2" d="M293.1,-102.53C295.37,-91.48 300.12,-77.87 310,-70 338.76,-47.11 436.14,-39.18 501.62,-36.45"/>
<polygon fill="MediumBlue" stroke="MediumBlue" points="501.98,-39.93 511.84,-36.05 501.71,-32.94 501.98,-39.93"/>
<text text-anchor="middle" x="323" y="-73.8" font-family="Courier New" font-size="14.00" fill="MediumBlue">[0]</text>
</g>
<!-- Roll&#45;7&#45;&gt;ValueRoller&#45;8 -->
<g id="edge5" class="edge">
<title>Roll&#45;7&#45;&gt;ValueRoller&#45;8</title>
<path fill="none" stroke="MediumVioletRed" stroke-dasharray="5,2" d="M385.71,-102.8C373.8,-91.88 357.09,-78.29 340,-70 311.65,-56.25 277.57,-47.71 249.26,-42.52"/>
<polygon fill="MediumVioletRed" stroke="MediumVioletRed" points="249.56,-39.02 239.11,-40.75 248.36,-45.92 249.56,-39.02"/>
<text text-anchor="middle" x="366.5" y="-73.8" font-family="Courier New" font-size="14.00" fill="MediumVioletRed">r</text>
</g>
<!-- Roll&#45;7&#45;&gt;RollOutcome&#45;9 -->
<g id="edge6" class="edge">
<title>Roll&#45;7&#45;&gt;RollOutcome&#45;9</title>
<path fill="none" stroke="MediumVioletRed" stroke-dasharray="5,2" d="M430.14,-111.85C474.5,-98.53 563.65,-71.75 624.09,-53.6"/>
<polygon fill="MediumVioletRed" stroke="MediumVioletRed" points="625.33,-56.88 633.9,-50.65 623.32,-50.17 625.33,-56.88"/>
<text text-anchor="middle" x="574" y="-73.8" font-family="Courier New" font-size="14.00" fill="MediumVioletRed">[0]</text>
</g>
</g>
</svg>
