<?xml version="1.0" encoding="UTF-8" standalone="no"?>
<!DOCTYPE svg PUBLIC "-//W3C//DTD SVG 1.1//EN"
 "http://www.w3.org/Graphics/SVG/1.1/DTD/svg11.dtd">
<!-- Generated by graphviz version 2.49.0 (20210828.1703)
 -->
<!-- Pages: 1 -->
<svg width="672pt" height="381pt"
 viewBox="0.00 0.00 672.00 381.00" xmlns="http://www.w3.org/2000/svg" xmlns:xlink="http://www.w3.org/1999/xlink">
<g id="graph0" class="graph" transform="scale(1 1) rotate(0) translate(4 377)">
<g id="clust1" class="cluster">
<title>cluster_rolls</title>
<polygon fill="transparent" stroke="DarkSlateGray" stroke-dasharray="1,5" points="376,-290 376,-365 449,-365 449,-290 376,-290"/>
<text text-anchor="start" x="384" y="-350.8" font-family="Helvetica,sans-Serif" font-style="italic" font-size="14.00" fill="DarkSlateGray">Roll Tree</text>
</g>
<g id="clust2" class="cluster">
<title>cluster_rollers</title>
<polygon fill="transparent" stroke="DarkSlateGray" stroke-dasharray="1,5" points="8,-8 8,-257 284,-257 284,-8 8,-8"/>
<text text-anchor="start" x="111.5" y="-242.8" font-family="Helvetica,sans-Serif" font-style="italic" font-size="14.00" fill="DarkSlateGray">Roller Tree</text>
</g>
<g id="clust3" class="cluster">
<title>cluster_roll_outcomes</title>
<polygon fill="transparent" stroke="DarkSlateGray" stroke-dasharray="1,5" points="292,-182 292,-257 656,-257 656,-182 292,-182"/>
<text text-anchor="start" x="428" y="-242.8" font-family="Helvetica,sans-Serif" font-style="italic" font-size="14.00" fill="DarkSlateGray">Roll Outcomes</text>
</g>
<!-- Roll&#45;1 -->
<g id="node1" class="node">
<title>Roll&#45;1</title>
<polygon fill="none" stroke="DarkSlateGray" points="439,-334 385,-334 385,-298 439,-298 439,-334"/>
<text text-anchor="start" x="398.5" y="-313.3" font-family="Helvetica,sans-Serif" font-weight="bold" font-size="14.00" fill="DarkSlateGray">Roll</text>
</g>
<!-- SelectionRoller&#45;2 -->
<g id="node2" class="node">
<title>SelectionRoller&#45;2</title>
<polygon fill="none" stroke="DarkSlateGray" points="276,-226 16,-226 16,-190 276,-190 276,-226"/>
<text text-anchor="start" x="95" y="-211.8" font-family="Helvetica,sans-Serif" font-weight="bold" font-size="14.00" fill="DarkSlateGray">SelectionRoller</text>
<text text-anchor="start" x="24" y="-197.8" font-family="Courier New" font-size="14.00" fill="DarkSlateGray">which=(slice(1, None, None),)</text>
</g>
<!-- Roll&#45;1&#45;&gt;SelectionRoller&#45;2 -->
<g id="edge1" class="edge">
<title>Roll&#45;1&#45;&gt;SelectionRoller&#45;2</title>
<path fill="none" stroke="DarkSlateGray" d="M384.54,-304.06C340.74,-286.6 254.35,-252.18 198.43,-229.89"/>
<polygon fill="DarkSlateGray" stroke="DarkSlateGray" points="199.63,-226.61 189.05,-226.15 197.04,-233.11 199.63,-226.61"/>
<text text-anchor="middle" x="322.5" y="-268.8" font-family="Courier New" font-size="14.00" fill="DarkSlateGray">r</text>
</g>
<!-- RollOutcome&#45;3 -->
<g id="node3" class="node">
<title>RollOutcome&#45;3</title>
<polygon fill="none" stroke="DarkSlateGray" points="404,-226 300,-226 300,-190 404,-190 404,-226"/>
<text text-anchor="start" x="308" y="-211.8" font-family="Helvetica,sans-Serif" font-weight="bold" font-size="14.00" fill="DarkSlateGray">RollOutcome</text>
<text text-anchor="start" x="322.5" y="-197.8" font-family="Courier New" font-size="14.00" fill="DarkSlateGray">value=2</text>
</g>
<!-- Roll&#45;1&#45;&gt;RollOutcome&#45;3 -->
<g id="edge2" class="edge">
<title>Roll&#45;1&#45;&gt;RollOutcome&#45;3</title>
<path fill="none" stroke="DarkSlateGray" d="M402.36,-297.97C392.75,-280.99 377.87,-254.7 366.77,-235.09"/>
<polygon fill="DarkSlateGray" stroke="DarkSlateGray" points="369.79,-233.32 361.82,-226.34 363.7,-236.77 369.79,-233.32"/>
<text text-anchor="middle" x="403" y="-268.8" font-family="Courier New" font-size="14.00" fill="DarkSlateGray">[0]</text>
</g>
<!-- RollOutcome&#45;4 -->
<g id="node4" class="node">
<title>RollOutcome&#45;4</title>
<polygon fill="none" stroke="DarkSlateGray" points="526,-226 422,-226 422,-190 526,-190 526,-226"/>
<text text-anchor="start" x="430" y="-211.8" font-family="Helvetica,sans-Serif" font-weight="bold" font-size="14.00" fill="DarkSlateGray">RollOutcome</text>
<text text-anchor="start" x="444.5" y="-197.8" font-family="Courier New" font-size="14.00" fill="DarkSlateGray">value=3</text>
</g>
<!-- Roll&#45;1&#45;&gt;RollOutcome&#45;4 -->
<g id="edge3" class="edge">
<title>Roll&#45;1&#45;&gt;RollOutcome&#45;4</title>
<path fill="none" stroke="DarkSlateGray" d="M421.96,-297.97C431.89,-280.99 447.27,-254.7 458.74,-235.09"/>
<polygon fill="DarkSlateGray" stroke="DarkSlateGray" points="461.83,-236.74 463.86,-226.34 455.79,-233.21 461.83,-236.74"/>
<text text-anchor="middle" x="454" y="-268.8" font-family="Courier New" font-size="14.00" fill="DarkSlateGray">[1]</text>
</g>
<!-- RollOutcome&#45;5 -->
<g id="node5" class="node">
<title>RollOutcome&#45;5</title>
<polygon fill="none" stroke="DarkSlateGray" points="648,-226 544,-226 544,-190 648,-190 648,-226"/>
<text text-anchor="start" x="552" y="-211.8" font-family="Helvetica,sans-Serif" font-weight="bold" font-size="14.00" fill="DarkSlateGray">RollOutcome</text>
<text text-anchor="start" x="566.5" y="-197.8" font-family="Courier New" font-size="14.00" fill="DarkSlateGray">value=5</text>
</g>
<!-- Roll&#45;1&#45;&gt;RollOutcome&#45;5 -->
<g id="edge4" class="edge">
<title>Roll&#45;1&#45;&gt;RollOutcome&#45;5</title>
<path fill="none" stroke="DarkSlateGray" d="M439.3,-304.23C464.85,-293.67 503.67,-276.37 535,-257 546.58,-249.84 558.51,-240.86 568.73,-232.61"/>
<polygon fill="DarkSlateGray" stroke="DarkSlateGray" points="571.01,-235.26 576.5,-226.2 566.56,-229.86 571.01,-235.26"/>
<text text-anchor="middle" x="532" y="-268.8" font-family="Courier New" font-size="14.00" fill="DarkSlateGray">[2]</text>
</g>
<!-- RepeatRoller&#45;6 -->
<g id="node6" class="node">
<title>RepeatRoller&#45;6</title>
<polygon fill="none" stroke="DarkSlateGray" points="123.5,-139 20.5,-139 20.5,-103 123.5,-103 123.5,-139"/>
<text text-anchor="start" x="28.5" y="-124.8" font-family="Helvetica,sans-Serif" font-weight="bold" font-size="14.00" fill="DarkSlateGray">RepeatRoller</text>
<text text-anchor="start" x="59" y="-110.8" font-family="Courier New" font-size="14.00" fill="DarkSlateGray">n=3</text>
</g>
<!-- SelectionRoller&#45;2&#45;&gt;RepeatRoller&#45;6 -->
<g id="edge5" class="edge">
<title>SelectionRoller&#45;2&#45;&gt;RepeatRoller&#45;6</title>
<path fill="none" stroke="DarkSlateGray" d="M97.84,-189.88C90.16,-185.18 83.08,-179.3 78,-172 73.42,-165.41 71.35,-157.12 70.59,-149.19"/>
<polygon fill="DarkSlateGray" stroke="DarkSlateGray" points="74.08,-149.03 70.22,-139.16 67.09,-149.28 74.08,-149.03"/>
<text text-anchor="middle" x="120.5" y="-160.8" font-family="Courier New" font-size="14.00" fill="DarkSlateGray">sources[0]</text>
</g>
<!-- ValueRoller&#45;7 -->
<g id="node7" class="node">
<title>ValueRoller&#45;7</title>
<polygon fill="none" stroke="DarkSlateGray" points="242.5,-139 141.5,-139 141.5,-103 242.5,-103 242.5,-139"/>
<text text-anchor="start" x="153.5" y="-124.8" font-family="Helvetica,sans-Serif" font-weight="bold" font-size="14.00" fill="DarkSlateGray">ValueRoller</text>
<text text-anchor="start" x="149.5" y="-110.8" font-family="Courier New" font-size="14.00" fill="DarkSlateGray">value=H(8)</text>
</g>
<!-- SelectionRoller&#45;2&#45;&gt;ValueRoller&#45;7 -->
<g id="edge6" class="edge">
<title>SelectionRoller&#45;2&#45;&gt;ValueRoller&#45;7</title>
<path fill="none" stroke="DarkSlateGray" d="M155.31,-189.8C161.79,-177.82 170.56,-161.62 177.9,-148.06"/>
<polygon fill="DarkSlateGray" stroke="DarkSlateGray" points="181.02,-149.64 182.71,-139.18 174.87,-146.3 181.02,-149.64"/>
<text text-anchor="middle" x="214.5" y="-160.8" font-family="Courier New" font-size="14.00" fill="DarkSlateGray">sources[1]</text>
</g>
<!-- ValueRoller&#45;8 -->
<g id="node8" class="node">
<title>ValueRoller&#45;8</title>
<polygon fill="none" stroke="DarkSlateGray" points="122.5,-52 21.5,-52 21.5,-16 122.5,-16 122.5,-52"/>
<text text-anchor="start" x="33.5" y="-37.8" font-family="Helvetica,sans-Serif" font-weight="bold" font-size="14.00" fill="DarkSlateGray">ValueRoller</text>
<text text-anchor="start" x="29.5" y="-23.8" font-family="Courier New" font-size="14.00" fill="DarkSlateGray">value=H(6)</text>
</g>
<!-- RepeatRoller&#45;6&#45;&gt;ValueRoller&#45;8 -->
<g id="edge7" class="edge">
<title>RepeatRoller&#45;6&#45;&gt;ValueRoller&#45;8</title>
<path fill="none" stroke="DarkSlateGray" d="M72,-102.8C72,-91.16 72,-75.55 72,-62.24"/>
<polygon fill="DarkSlateGray" stroke="DarkSlateGray" points="75.5,-62.18 72,-52.18 68.5,-62.18 75.5,-62.18"/>
<text text-anchor="middle" x="114.5" y="-73.8" font-family="Courier New" font-size="14.00" fill="DarkSlateGray">sources[0]</text>
</g>
</g>
</svg>
