<?xml version="1.0" encoding="UTF-8" standalone="no"?>
<!DOCTYPE svg PUBLIC "-//W3C//DTD SVG 1.1//EN"
 "http://www.w3.org/Graphics/SVG/1.1/DTD/svg11.dtd">
<!-- Generated by graphviz version 2.49.0 (20210828.1703)
 -->
<!-- Title: classes_dyce_r_light Pages: 1 -->
<svg width="609pt" height="281pt"
 viewBox="0.00 0.00 608.50 281.00" xmlns="http://www.w3.org/2000/svg" xmlns:xlink="http://www.w3.org/1999/xlink">
<g id="graph0" class="graph" transform="scale(1 1) rotate(0) translate(4 277)">
<title>classes_dyce_r_light</title>
<!-- dyce.r.BinaryOperationRoller -->
<g id="node1" class="node">
<title>dyce.r.BinaryOperationRoller</title>
<polygon fill="none" stroke="DarkSlateGray" points="228.5,-0.5 228.5,-36.5 382.5,-36.5 382.5,-0.5 228.5,-0.5"/>
<text text-anchor="middle" x="305.5" y="-14.8" font-family="Helvetica,sans-Serif" font-size="14.00" fill="DarkSlateGray">BinaryOperationRoller</text>
</g>
<!-- dyce.r.SumRoller -->
<g id="node2" class="node">
<title>dyce.r.SumRoller</title>
<polygon fill="none" stroke="DarkSlateGray" points="264.5,-74.5 264.5,-110.5 346.5,-110.5 346.5,-74.5 264.5,-74.5"/>
<text text-anchor="middle" x="305.5" y="-88.8" font-family="Helvetica,sans-Serif" font-size="14.00" fill="DarkSlateGray">SumRoller</text>
</g>
<!-- dyce.r.BinaryOperationRoller&#45;&gt;dyce.r.SumRoller -->
<g id="edge1" class="edge">
<title>dyce.r.BinaryOperationRoller&#45;&gt;dyce.r.SumRoller</title>
<path fill="none" stroke="DarkSlateGray" d="M305.5,-36.56C305.5,-44.69 305.5,-54.62 305.5,-63.8"/>
<polygon fill="none" stroke="DarkSlateGray" points="302,-64.06 305.5,-74.06 309,-64.06 302,-64.06"/>
</g>
<!-- dyce.r.OperationRollerBase -->
<g id="node3" class="node">
<title>dyce.r.OperationRollerBase</title>
<polygon fill="none" stroke="DarkSlateGray" points="232.5,-162.5 232.5,-198.5 378.5,-198.5 378.5,-162.5 232.5,-162.5"/>
<text text-anchor="middle" x="305.5" y="-176.8" font-family="Helvetica,sans-Serif" font-size="14.00" fill="DarkSlateGray">OperationRollerBase</text>
</g>
<!-- dyce.r.SumRoller&#45;&gt;dyce.r.OperationRollerBase -->
<g id="edge2" class="edge">
<title>dyce.r.SumRoller&#45;&gt;dyce.r.OperationRollerBase</title>
<path fill="none" stroke="DarkSlateGray" d="M305.5,-110.9C305.5,-122.75 305.5,-138.68 305.5,-152.21"/>
<polygon fill="none" stroke="DarkSlateGray" points="302,-152.42 305.5,-162.42 309,-152.42 302,-152.42"/>
</g>
<!-- dyce.r.R -->
<g id="node5" class="node">
<title>dyce.r.R</title>
<polygon fill="none" stroke="DarkSlateGray" points="418.5,-236.5 418.5,-272.5 472.5,-272.5 472.5,-236.5 418.5,-236.5"/>
<text text-anchor="middle" x="445.5" y="-250.8" font-family="Helvetica,sans-Serif" font-size="14.00" fill="DarkSlateGray">R</text>
</g>
<!-- dyce.r.OperationRollerBase&#45;&gt;dyce.r.R -->
<g id="edge4" class="edge">
<title>dyce.r.OperationRollerBase&#45;&gt;dyce.r.R</title>
<path fill="none" stroke="DarkSlateGray" d="M338.68,-198.56C359.9,-209.48 387.44,-223.64 409.24,-234.85"/>
<polygon fill="none" stroke="DarkSlateGray" points="407.71,-238 418.2,-239.46 410.91,-231.77 407.71,-238"/>
</g>
<!-- dyce.r.ChainRoller -->
<g id="node4" class="node">
<title>dyce.r.ChainRoller</title>
<polygon fill="none" stroke="DarkSlateGray" points="124.5,-74.5 124.5,-110.5 214.5,-110.5 214.5,-74.5 124.5,-74.5"/>
<text text-anchor="middle" x="169.5" y="-88.8" font-family="Helvetica,sans-Serif" font-size="14.00" fill="DarkSlateGray">ChainRoller</text>
</g>
<!-- dyce.r.ChainRoller&#45;&gt;dyce.r.OperationRollerBase -->
<g id="edge3" class="edge">
<title>dyce.r.ChainRoller&#45;&gt;dyce.r.OperationRollerBase</title>
<path fill="none" stroke="DarkSlateGray" d="M196.69,-110.7C217.64,-123.94 246.77,-142.36 269.62,-156.81"/>
<polygon fill="none" stroke="DarkSlateGray" points="268.03,-159.95 278.35,-162.33 271.77,-154.03 268.03,-159.95"/>
</g>
<!-- dyce.r.PoolRoller -->
<g id="node6" class="node">
<title>dyce.r.PoolRoller</title>
<polygon fill="none" stroke="DarkSlateGray" points="129,-0.5 129,-36.5 210,-36.5 210,-0.5 129,-0.5"/>
<text text-anchor="middle" x="169.5" y="-14.8" font-family="Helvetica,sans-Serif" font-size="14.00" fill="DarkSlateGray">PoolRoller</text>
</g>
<!-- dyce.r.PoolRoller&#45;&gt;dyce.r.ChainRoller -->
<g id="edge5" class="edge">
<title>dyce.r.PoolRoller&#45;&gt;dyce.r.ChainRoller</title>
<path fill="none" stroke="DarkSlateGray" d="M169.5,-36.56C169.5,-44.69 169.5,-54.62 169.5,-63.8"/>
<polygon fill="none" stroke="DarkSlateGray" points="166,-64.06 169.5,-74.06 173,-64.06 166,-64.06"/>
</g>
<!-- dyce.r.RepeatRoller -->
<g id="node7" class="node">
<title>dyce.r.RepeatRoller</title>
<polygon fill="none" stroke="DarkSlateGray" points="396.5,-162.5 396.5,-198.5 494.5,-198.5 494.5,-162.5 396.5,-162.5"/>
<text text-anchor="middle" x="445.5" y="-176.8" font-family="Helvetica,sans-Serif" font-size="14.00" fill="DarkSlateGray">RepeatRoller</text>
</g>
<!-- dyce.r.RepeatRoller&#45;&gt;dyce.r.R -->
<g id="edge6" class="edge">
<title>dyce.r.RepeatRoller&#45;&gt;dyce.r.R</title>
<path fill="none" stroke="DarkSlateGray" d="M445.5,-198.56C445.5,-206.69 445.5,-216.62 445.5,-225.8"/>
<polygon fill="none" stroke="DarkSlateGray" points="442,-226.06 445.5,-236.06 449,-226.06 442,-226.06"/>
</g>
<!-- dyce.r.RollOutcomeOperatorT -->
<g id="node8" class="node">
<title>dyce.r.RollOutcomeOperatorT</title>
<polygon fill="none" stroke="DarkSlateGray" points="365,-74.5 365,-110.5 526,-110.5 526,-74.5 365,-74.5"/>
<text text-anchor="middle" x="445.5" y="-88.8" font-family="Helvetica,sans-Serif" font-size="14.00" fill="DarkSlateGray">RollOutcomeOperatorT</text>
</g>
<!-- dyce.r.RollOutcomeOperatorT&#45;&gt;dyce.r.OperationRollerBase -->
<g id="edge7" class="edge">
<title>dyce.r.RollOutcomeOperatorT&#45;&gt;dyce.r.OperationRollerBase</title>
<path fill="none" stroke="DarkSlateGray" d="M417.51,-110.7C396.33,-123.7 367.02,-141.71 343.69,-156.04"/>
<polygon fill="DarkSlateGray" stroke="DarkSlateGray" points="343.67,-156.05 340.65,-162.6 333.45,-162.33 336.46,-155.78 343.67,-156.05"/>
<text text-anchor="middle" x="397.5" y="-132.8" font-family="Courier New" font-size="14.00" fill="DarkSlateGray">_op</text>
</g>
<!-- dyce.r.SelectionRoller -->
<g id="node9" class="node">
<title>dyce.r.SelectionRoller</title>
<polygon fill="none" stroke="DarkSlateGray" points="0,-0.5 0,-36.5 111,-36.5 111,-0.5 0,-0.5"/>
<text text-anchor="middle" x="55.5" y="-14.8" font-family="Helvetica,sans-Serif" font-size="14.00" fill="DarkSlateGray">SelectionRoller</text>
</g>
<!-- dyce.r.SelectionRoller&#45;&gt;dyce.r.ChainRoller -->
<g id="edge8" class="edge">
<title>dyce.r.SelectionRoller&#45;&gt;dyce.r.ChainRoller</title>
<path fill="none" stroke="DarkSlateGray" d="M82.52,-36.56C97.74,-46.18 116.95,-58.31 133.44,-68.73"/>
<polygon fill="none" stroke="DarkSlateGray" points="131.96,-71.93 142.28,-74.31 135.7,-66.01 131.96,-71.93"/>
</g>
<!-- dyce.r.UnaryOperationRoller -->
<g id="node10" class="node">
<title>dyce.r.UnaryOperationRoller</title>
<polygon fill="none" stroke="DarkSlateGray" points="400.5,-0.5 400.5,-36.5 552.5,-36.5 552.5,-0.5 400.5,-0.5"/>
<text text-anchor="middle" x="476.5" y="-14.8" font-family="Helvetica,sans-Serif" font-size="14.00" fill="DarkSlateGray">UnaryOperationRoller</text>
</g>
<!-- dyce.r.UnaryOperationRoller&#45;&gt;dyce.r.SumRoller -->
<g id="edge9" class="edge">
<title>dyce.r.UnaryOperationRoller&#45;&gt;dyce.r.SumRoller</title>
<path fill="none" stroke="DarkSlateGray" d="M435.98,-36.56C411.89,-46.7 381.15,-59.65 355.56,-70.42"/>
<polygon fill="none" stroke="DarkSlateGray" points="353.89,-67.33 346.03,-74.43 356.6,-73.78 353.89,-67.33"/>
</g>
<!-- dyce.r.ValueRoller -->
<g id="node11" class="node">
<title>dyce.r.ValueRoller</title>
<polygon fill="none" stroke="DarkSlateGray" points="512.5,-162.5 512.5,-198.5 600.5,-198.5 600.5,-162.5 512.5,-162.5"/>
<text text-anchor="middle" x="556.5" y="-176.8" font-family="Helvetica,sans-Serif" font-size="14.00" fill="DarkSlateGray">ValueRoller</text>
</g>
<!-- dyce.r.ValueRoller&#45;&gt;dyce.r.R -->
<g id="edge10" class="edge">
<title>dyce.r.ValueRoller&#45;&gt;dyce.r.R</title>
<path fill="none" stroke="DarkSlateGray" d="M530.19,-198.56C515.37,-208.18 496.67,-220.31 480.61,-230.73"/>
<polygon fill="none" stroke="DarkSlateGray" points="478.49,-227.93 472,-236.31 482.3,-233.8 478.49,-227.93"/>
</g>
</g>
</svg>
