<?xml version="1.0" encoding="UTF-8" standalone="no"?>
<!DOCTYPE svg PUBLIC "-//W3C//DTD SVG 1.1//EN"
 "http://www.w3.org/Graphics/SVG/1.1/DTD/svg11.dtd">
<!-- Generated by graphviz version 2.49.0 (20210828.1703)
 -->
<!-- Pages: 1 -->
<svg width="1099pt" height="294pt"
 viewBox="0.00 0.00 1099.00 294.00" xmlns="http://www.w3.org/2000/svg" xmlns:xlink="http://www.w3.org/1999/xlink">
<g id="graph0" class="graph" transform="scale(1 1) rotate(0) translate(4 290)">
<g id="clust2" class="cluster">
<title>cluster_rollers</title>
<polygon fill="transparent" stroke="DarkSlateGray" stroke-dasharray="1,5" points="8,-8 8,-170 581,-170 581,-8 8,-8"/>
<text text-anchor="start" x="260" y="-155.8" font-family="Helvetica,sans-Serif" font-style="italic" font-size="14.00" fill="DarkSlateGray">Roller Tree</text>
</g>
<g id="clust3" class="cluster">
<title>cluster_roll_outcomes</title>
<polygon fill="transparent" stroke="DarkSlateGray" stroke-dasharray="1,5" points="824,-8 824,-170 1066,-170 1066,-8 824,-8"/>
<text text-anchor="start" x="899" y="-155.8" font-family="Helvetica,sans-Serif" font-style="italic" font-size="14.00" fill="DarkSlateGray">Roll Outcomes</text>
</g>
<g id="clust1" class="cluster">
<title>cluster_rolls</title>
<polygon fill="transparent" stroke="DarkSlateGray" stroke-dasharray="1,5" points="589,-95 589,-278 816,-278 816,-95 589,-95"/>
<text text-anchor="start" x="674" y="-263.8" font-family="Helvetica,sans-Serif" font-style="italic" font-size="14.00" fill="DarkSlateGray">Roll Tree</text>
</g>
<!-- Roll&#45;1 -->
<g id="node1" class="node">
<title>Roll&#45;1</title>
<polygon fill="none" stroke="DarkSlateGray" points="750,-247 696,-247 696,-211 750,-211 750,-247"/>
<text text-anchor="start" x="709.5" y="-226.3" font-family="Helvetica,sans-Serif" font-weight="bold" font-size="14.00" fill="DarkSlateGray">Roll</text>
</g>
<!-- PoolRoller&#45;2 -->
<g id="node2" class="node">
<title>PoolRoller&#45;2</title>
<polygon fill="none" stroke="DarkSlateGray" points="481.5,-139 394.5,-139 394.5,-103 481.5,-103 481.5,-139"/>
<text text-anchor="start" x="402.5" y="-118.3" font-family="Helvetica,sans-Serif" font-weight="bold" font-size="14.00" fill="DarkSlateGray">PoolRoller</text>
</g>
<!-- Roll&#45;1&#45;&gt;PoolRoller&#45;2 -->
<g id="edge1" class="edge">
<title>Roll&#45;1&#45;&gt;PoolRoller&#45;2</title>
<path fill="none" stroke="DarkSlateGray" d="M695.68,-219.95C673.3,-213.2 640.89,-203.08 613,-193 570.02,-177.47 521.96,-157.8 487.09,-143.11"/>
<polygon fill="DarkSlateGray" stroke="DarkSlateGray" points="488.2,-139.77 477.63,-139.1 485.47,-146.22 488.2,-139.77"/>
<text text-anchor="middle" x="617.5" y="-181.8" font-family="Courier New" font-size="14.00" fill="DarkSlateGray">r</text>
</g>
<!-- RollOutcome&#45;3 -->
<g id="node3" class="node">
<title>RollOutcome&#45;3</title>
<polygon fill="none" stroke="DarkSlateGray" points="1058,-139 954,-139 954,-103 1058,-103 1058,-139"/>
<text text-anchor="start" x="962" y="-124.8" font-family="Helvetica,sans-Serif" font-weight="bold" font-size="14.00" fill="DarkSlateGray">RollOutcome</text>
<text text-anchor="start" x="972" y="-110.8" font-family="Courier New" font-size="14.00" fill="DarkSlateGray">value=60</text>
</g>
<!-- Roll&#45;1&#45;&gt;RollOutcome&#45;3 -->
<g id="edge2" class="edge">
<title>Roll&#45;1&#45;&gt;RollOutcome&#45;3</title>
<path fill="none" stroke="DarkSlateGray" d="M750.27,-224.65C793.5,-218.52 879.55,-203 945,-170 957.63,-163.63 970.15,-154.42 980.54,-145.76"/>
<polygon fill="DarkSlateGray" stroke="DarkSlateGray" points="983.09,-148.19 988.37,-139.01 978.51,-142.89 983.09,-148.19"/>
<text text-anchor="middle" x="935" y="-181.8" font-family="Courier New" font-size="14.00" fill="DarkSlateGray">[0]</text>
</g>
<!-- RollOutcome&#45;4 -->
<g id="node4" class="node">
<title>RollOutcome&#45;4</title>
<polygon fill="none" stroke="DarkSlateGray" points="936,-139 832,-139 832,-103 936,-103 936,-139"/>
<text text-anchor="start" x="840" y="-124.8" font-family="Helvetica,sans-Serif" font-weight="bold" font-size="14.00" fill="DarkSlateGray">RollOutcome</text>
<text text-anchor="start" x="850" y="-110.8" font-family="Courier New" font-size="14.00" fill="DarkSlateGray">value=&#45;1</text>
</g>
<!-- Roll&#45;1&#45;&gt;RollOutcome&#45;4 -->
<g id="edge3" class="edge">
<title>Roll&#45;1&#45;&gt;RollOutcome&#45;4</title>
<path fill="none" stroke="DarkSlateGray" d="M750.05,-220.51C768.43,-214.69 792.79,-205.49 812,-193 831.37,-180.4 849.86,-161.99 863.25,-147.07"/>
<polygon fill="DarkSlateGray" stroke="DarkSlateGray" points="866.18,-149.03 870.13,-139.2 860.91,-144.42 866.18,-149.03"/>
<text text-anchor="middle" x="844" y="-181.8" font-family="Courier New" font-size="14.00" fill="DarkSlateGray">[1]</text>
</g>
<!-- Roll&#45;5 -->
<g id="node5" class="node">
<title>Roll&#45;5</title>
<polygon fill="none" stroke="MediumBlue" stroke-dasharray="5,2" points="750,-139 696,-139 696,-103 750,-103 750,-139"/>
<text text-anchor="start" x="709.5" y="-118.3" font-family="Helvetica,sans-Serif" font-weight="bold" font-size="14.00" fill="MediumBlue">Roll</text>
</g>
<!-- Roll&#45;1&#45;&gt;Roll&#45;5 -->
<g id="edge8" class="edge">
<title>Roll&#45;1&#45;&gt;Roll&#45;5</title>
<path fill="none" stroke="MediumBlue" stroke-dasharray="5,2" d="M723,-210.97C723,-194.38 723,-168.88 723,-149.43"/>
<polygon fill="MediumBlue" stroke="MediumBlue" points="726.5,-149.34 723,-139.34 719.5,-149.34 726.5,-149.34"/>
<text text-anchor="middle" x="765.5" y="-181.8" font-family="Courier New" font-size="14.00" fill="MediumBlue">sources[0]</text>
</g>
<!-- Roll&#45;8 -->
<g id="node8" class="node">
<title>Roll&#45;8</title>
<polygon fill="none" stroke="MediumVioletRed" stroke-dasharray="5,2" points="651,-139 597,-139 597,-103 651,-103 651,-139"/>
<text text-anchor="start" x="610.5" y="-118.3" font-family="Helvetica,sans-Serif" font-weight="bold" font-size="14.00" fill="MediumVioletRed">Roll</text>
</g>
<!-- Roll&#45;1&#45;&gt;Roll&#45;8 -->
<g id="edge9" class="edge">
<title>Roll&#45;1&#45;&gt;Roll&#45;8</title>
<path fill="none" stroke="MediumVioletRed" stroke-dasharray="5,2" d="M695.72,-224.63C675.48,-220.62 648.91,-211.9 634,-193 624.41,-180.85 621.78,-163.76 621.61,-149.39"/>
<polygon fill="MediumVioletRed" stroke="MediumVioletRed" points="625.11,-149.15 621.88,-139.06 618.12,-148.96 625.11,-149.15"/>
<text text-anchor="middle" x="676.5" y="-181.8" font-family="Courier New" font-size="14.00" fill="MediumVioletRed">sources[1]</text>
</g>
<!-- ValueRoller&#45;6 -->
<g id="node6" class="node">
<title>ValueRoller&#45;6</title>
<polygon fill="none" stroke="MediumBlue" stroke-dasharray="5,2" points="572.5,-52 303.5,-52 303.5,-16 572.5,-16 572.5,-52"/>
<text text-anchor="start" x="399.5" y="-37.8" font-family="Helvetica,sans-Serif" font-weight="bold" font-size="14.00" fill="MediumBlue">ValueRoller</text>
<text text-anchor="start" x="311.5" y="-23.8" font-family="Courier New" font-size="14.00" fill="MediumBlue">value=H({0: 1, 10: 1, 20: 1...</text>
</g>
<!-- PoolRoller&#45;2&#45;&gt;ValueRoller&#45;6 -->
<g id="edge10" class="edge">
<title>PoolRoller&#45;2&#45;&gt;ValueRoller&#45;6</title>
<path fill="none" stroke="MediumBlue" stroke-dasharray="5,2" d="M438,-102.8C438,-91.16 438,-75.55 438,-62.24"/>
<polygon fill="MediumBlue" stroke="MediumBlue" points="441.5,-62.18 438,-52.18 434.5,-62.18 441.5,-62.18"/>
<text text-anchor="middle" x="480.5" y="-73.8" font-family="Courier New" font-size="14.00" fill="MediumBlue">sources[0]</text>
</g>
<!-- ValueRoller&#45;9 -->
<g id="node9" class="node">
<title>ValueRoller&#45;9</title>
<polygon fill="none" stroke="MediumVioletRed" stroke-dasharray="5,2" points="285.5,-52 16.5,-52 16.5,-16 285.5,-16 285.5,-52"/>
<text text-anchor="start" x="112.5" y="-37.8" font-family="Helvetica,sans-Serif" font-weight="bold" font-size="14.00" fill="MediumVioletRed">ValueRoller</text>
<text text-anchor="start" x="24.5" y="-23.8" font-family="Courier New" font-size="14.00" fill="MediumVioletRed">value=H({0: 1, 1: 1, 2: 1, ...</text>
</g>
<!-- PoolRoller&#45;2&#45;&gt;ValueRoller&#45;9 -->
<g id="edge11" class="edge">
<title>PoolRoller&#45;2&#45;&gt;ValueRoller&#45;9</title>
<path fill="none" stroke="MediumVioletRed" stroke-dasharray="5,2" d="M394.41,-107.09C347.69,-93.25 272.91,-71.11 218.56,-55.01"/>
<polygon fill="MediumVioletRed" stroke="MediumVioletRed" points="219.24,-51.56 208.66,-52.08 217.25,-58.27 219.24,-51.56"/>
<text text-anchor="middle" x="354.5" y="-73.8" font-family="Courier New" font-size="14.00" fill="MediumVioletRed">sources[1]</text>
</g>
<!-- RollOutcome&#45;7 -->
<g id="node7" class="node">
<title>RollOutcome&#45;7</title>
<polygon fill="none" stroke="MediumBlue" stroke-dasharray="5,2" points="1058,-52 954,-52 954,-16 1058,-16 1058,-52"/>
<text text-anchor="start" x="962" y="-37.8" font-family="Helvetica,sans-Serif" font-weight="bold" font-size="14.00" fill="MediumBlue">RollOutcome</text>
<text text-anchor="start" x="972" y="-23.8" font-family="Courier New" font-size="14.00" fill="MediumBlue">value=60</text>
</g>
<!-- RollOutcome&#45;3&#45;&gt;RollOutcome&#45;7 -->
<g id="edge12" class="edge">
<title>RollOutcome&#45;3&#45;&gt;RollOutcome&#45;7</title>
<path fill="none" stroke="MediumBlue" stroke-dasharray="5,2" d="M1006,-102.8C1006,-91.16 1006,-75.55 1006,-62.24"/>
<polygon fill="MediumBlue" stroke="MediumBlue" points="1009.5,-62.18 1006,-52.18 1002.5,-62.18 1009.5,-62.18"/>
<text text-anchor="middle" x="1048.5" y="-73.8" font-family="Courier New" font-size="14.00" fill="MediumBlue">sources[0]</text>
</g>
<!-- RollOutcome&#45;10 -->
<g id="node10" class="node">
<title>RollOutcome&#45;10</title>
<polygon fill="none" stroke="MediumVioletRed" stroke-dasharray="5,2" points="936,-52 832,-52 832,-16 936,-16 936,-52"/>
<text text-anchor="start" x="840" y="-37.8" font-family="Helvetica,sans-Serif" font-weight="bold" font-size="14.00" fill="MediumVioletRed">RollOutcome</text>
<text text-anchor="start" x="850" y="-23.8" font-family="Courier New" font-size="14.00" fill="MediumVioletRed">value=&#45;1</text>
</g>
<!-- RollOutcome&#45;4&#45;&gt;RollOutcome&#45;10 -->
<g id="edge13" class="edge">
<title>RollOutcome&#45;4&#45;&gt;RollOutcome&#45;10</title>
<path fill="none" stroke="MediumVioletRed" stroke-dasharray="5,2" d="M884,-102.8C884,-91.16 884,-75.55 884,-62.24"/>
<polygon fill="MediumVioletRed" stroke="MediumVioletRed" points="887.5,-62.18 884,-52.18 880.5,-62.18 887.5,-62.18"/>
<text text-anchor="middle" x="926.5" y="-73.8" font-family="Courier New" font-size="14.00" fill="MediumVioletRed">sources[0]</text>
</g>
<!-- Roll&#45;5&#45;&gt;ValueRoller&#45;6 -->
<g id="edge4" class="edge">
<title>Roll&#45;5&#45;&gt;ValueRoller&#45;6</title>
<path fill="none" stroke="MediumBlue" stroke-dasharray="5,2" d="M712.84,-102.77C705.26,-91.54 693.85,-77.6 680,-70 662.21,-60.23 623.95,-52.88 582.99,-47.5"/>
<polygon fill="MediumBlue" stroke="MediumBlue" points="583.18,-43.99 572.82,-46.21 582.3,-50.94 583.18,-43.99"/>
<text text-anchor="middle" x="702.5" y="-73.8" font-family="Courier New" font-size="14.00" fill="MediumBlue">r</text>
</g>
<!-- Roll&#45;5&#45;&gt;RollOutcome&#45;7 -->
<g id="edge5" class="edge">
<title>Roll&#45;5&#45;&gt;RollOutcome&#45;7</title>
<path fill="none" stroke="MediumBlue" stroke-dasharray="5,2" d="M750.14,-108.09C776.32,-96.97 817.27,-80.56 854,-70 890.84,-59.41 903.17,-61.2 944.04,-52.09"/>
<polygon fill="MediumBlue" stroke="MediumBlue" points="944.87,-55.49 953.82,-49.82 943.29,-48.67 944.87,-55.49"/>
<text text-anchor="middle" x="867" y="-73.8" font-family="Courier New" font-size="14.00" fill="MediumBlue">[0]</text>
</g>
<!-- Roll&#45;8&#45;&gt;ValueRoller&#45;9 -->
<g id="edge6" class="edge">
<title>Roll&#45;8&#45;&gt;ValueRoller&#45;9</title>
<path fill="none" stroke="MediumVioletRed" stroke-dasharray="5,2" d="M598.96,-102.92C580.11,-91.13 553.12,-76.45 527,-70 429.31,-45.88 399.24,-61.11 295.94,-52.12"/>
<polygon fill="MediumVioletRed" stroke="MediumVioletRed" points="295.99,-48.61 285.71,-51.17 295.34,-55.58 295.99,-48.61"/>
<text text-anchor="middle" x="571.5" y="-73.8" font-family="Courier New" font-size="14.00" fill="MediumVioletRed">r</text>
</g>
<!-- Roll&#45;8&#45;&gt;RollOutcome&#45;10 -->
<g id="edge7" class="edge">
<title>Roll&#45;8&#45;&gt;RollOutcome&#45;10</title>
<path fill="none" stroke="MediumVioletRed" stroke-dasharray="5,2" d="M629.85,-102.88C634.59,-91.7 642.4,-77.78 654,-70 680.7,-52.09 763.13,-42.92 821.66,-38.55"/>
<polygon fill="MediumVioletRed" stroke="MediumVioletRed" points="822.2,-42.02 831.93,-37.81 821.7,-35.04 822.2,-42.02"/>
<text text-anchor="middle" x="667" y="-73.8" font-family="Courier New" font-size="14.00" fill="MediumVioletRed">[0]</text>
</g>
</g>
</svg>
