<?xml version="1.0" encoding="UTF-8" standalone="no"?>
<!DOCTYPE svg PUBLIC "-//W3C//DTD SVG 1.1//EN"
 "http://www.w3.org/Graphics/SVG/1.1/DTD/svg11.dtd">
<!-- Generated by graphviz version 2.49.3 (20211023.0002)
 -->
<!-- Pages: 1 -->
<svg width="926pt" height="315pt"
 viewBox="0.00 0.00 926.00 315.00" xmlns="http://www.w3.org/2000/svg" xmlns:xlink="http://www.w3.org/1999/xlink">
<g id="graph0" class="graph" transform="scale(1 1) rotate(0) translate(4 311)">
<g id="clust1" class="cluster">
<title>cluster_rolls</title>
<polygon fill="transparent" stroke="DarkSlateGray" stroke-dasharray="1,5" points="102,-116 102,-299 329,-299 329,-116 102,-116"/>
<text text-anchor="start" x="187" y="-284.8" font-family="Helvetica,sans-Serif" font-style="italic" font-size="14.00" fill="DarkSlateGray">Roll Tree</text>
</g>
<g id="clust2" class="cluster">
<title>cluster_rollers</title>
<polygon fill="transparent" stroke="DarkSlateGray" stroke-dasharray="1,5" points="337,-8 337,-191 910,-191 910,-8 337,-8"/>
<text text-anchor="start" x="589" y="-176.8" font-family="Helvetica,sans-Serif" font-style="italic" font-size="14.00" fill="DarkSlateGray">Roller Tree</text>
</g>
<g id="clust3" class="cluster">
<title>cluster_roll_outcomes</title>
<polygon fill="transparent" stroke="DarkSlateGray" stroke-dasharray="1,5" points="8,-8 8,-83 250,-83 250,-8 8,-8"/>
<text text-anchor="start" x="83" y="-68.8" font-family="Helvetica,sans-Serif" font-style="italic" font-size="14.00" fill="DarkSlateGray">Roll Outcomes</text>
</g>
<!-- Roll&#45;1 -->
<g id="node1" class="node">
<title>Roll&#45;1</title>
<polygon fill="none" stroke="DarkSlateGray" points="164,-268 110,-268 110,-232 164,-232 164,-268"/>
<text text-anchor="start" x="123.5" y="-247.3" font-family="Helvetica,sans-Serif" font-weight="bold" font-size="14.00" fill="DarkSlateGray">Roll</text>
</g>
<!-- PoolRoller&#45;2 -->
<g id="node2" class="node">
<title>PoolRoller&#45;2</title>
<polygon fill="none" stroke="DarkSlateGray" points="523.5,-160 436.5,-160 436.5,-124 523.5,-124 523.5,-160"/>
<text text-anchor="start" x="444.5" y="-139.3" font-family="Helvetica,sans-Serif" font-weight="bold" font-size="14.00" fill="DarkSlateGray">PoolRoller</text>
</g>
<!-- Roll&#45;1&#45;&gt;PoolRoller&#45;2 -->
<g id="edge1" class="edge">
<title>Roll&#45;1&#45;&gt;PoolRoller&#45;2</title>
<path fill="none" stroke="DarkSlateGray" d="M164.1,-245.32C198.86,-240.21 260.77,-229.77 312,-214 355.24,-200.69 402.56,-180.12 435.92,-164.54"/>
<polygon fill="DarkSlateGray" stroke="DarkSlateGray" points="437.82,-167.51 445.38,-160.08 434.84,-161.18 437.82,-167.51"/>
<text text-anchor="middle" x="358.5" y="-202.8" font-family="Courier New" font-size="14.00" fill="DarkSlateGray">r</text>
</g>
<!-- RollOutcome&#45;3 -->
<g id="node3" class="node">
<title>RollOutcome&#45;3</title>
<polygon fill="none" stroke="MediumBlue" stroke-dasharray="5,2" points="120,-52 16,-52 16,-16 120,-16 120,-52"/>
<text text-anchor="start" x="24" y="-37.8" font-family="Helvetica,sans-Serif" font-weight="bold" font-size="14.00" fill="MediumBlue">RollOutcome</text>
<text text-anchor="start" x="34" y="-23.8" font-family="Courier New" font-size="14.00" fill="MediumBlue">value=60</text>
</g>
<!-- Roll&#45;1&#45;&gt;RollOutcome&#45;3 -->
<g id="edge2" class="edge">
<title>Roll&#45;1&#45;&gt;RollOutcome&#45;3</title>
<path fill="none" stroke="MediumBlue" stroke-dasharray="5,2" d="M109.9,-234.31C94.52,-224.34 76.66,-209.58 68,-191 48.69,-149.53 54.86,-94.87 61.29,-62.48"/>
<polygon fill="MediumBlue" stroke="MediumBlue" points="64.78,-62.91 63.45,-52.4 57.94,-61.45 64.78,-62.91"/>
<text text-anchor="middle" x="81" y="-138.3" font-family="Courier New" font-size="14.00" fill="MediumBlue">[0]</text>
</g>
<!-- RollOutcome&#45;4 -->
<g id="node4" class="node">
<title>RollOutcome&#45;4</title>
<polygon fill="none" stroke="MediumVioletRed" stroke-dasharray="5,2" points="242,-52 138,-52 138,-16 242,-16 242,-52"/>
<text text-anchor="start" x="146" y="-37.8" font-family="Helvetica,sans-Serif" font-weight="bold" font-size="14.00" fill="MediumVioletRed">RollOutcome</text>
<text text-anchor="start" x="160.5" y="-23.8" font-family="Courier New" font-size="14.00" fill="MediumVioletRed">value=9</text>
</g>
<!-- Roll&#45;1&#45;&gt;RollOutcome&#45;4 -->
<g id="edge3" class="edge">
<title>Roll&#45;1&#45;&gt;RollOutcome&#45;4</title>
<path fill="none" stroke="MediumVioletRed" stroke-dasharray="5,2" d="M124.03,-231.76C116.56,-220.74 107.91,-205.78 104,-191 95.47,-158.78 97.14,-148.62 104,-116 106.5,-104.12 106.88,-100.02 115,-91 119.8,-85.67 123.06,-87 129,-83 140,-75.59 151.56,-66.78 161.62,-58.74"/>
<polygon fill="MediumVioletRed" stroke="MediumVioletRed" points="164.11,-61.23 169.68,-52.22 159.7,-55.79 164.11,-61.23"/>
<text text-anchor="middle" x="117" y="-138.3" font-family="Courier New" font-size="14.00" fill="MediumVioletRed">[1]</text>
</g>
<!-- Roll&#45;5 -->
<g id="node5" class="node">
<title>Roll&#45;5</title>
<polygon fill="none" stroke="MediumBlue" stroke-dasharray="5,2" points="193,-160 139,-160 139,-124 193,-124 193,-160"/>
<text text-anchor="start" x="152.5" y="-139.3" font-family="Helvetica,sans-Serif" font-weight="bold" font-size="14.00" fill="MediumBlue">Roll</text>
</g>
<!-- Roll&#45;1&#45;&gt;Roll&#45;5 -->
<g id="edge8" class="edge">
<title>Roll&#45;1&#45;&gt;Roll&#45;5</title>
<path fill="none" stroke="MediumBlue" stroke-dasharray="5,2" d="M130.44,-231.62C127.7,-221.89 125.81,-209.61 129,-199 132.25,-188.18 138.35,-177.51 144.68,-168.45"/>
<polygon fill="MediumBlue" stroke="MediumBlue" points="147.58,-170.41 150.72,-160.29 141.95,-166.24 147.58,-170.41"/>
<text text-anchor="middle" x="171.5" y="-202.8" font-family="Courier New" font-size="14.00" fill="MediumBlue">sources[0]</text>
</g>
<!-- Roll&#45;7 -->
<g id="node7" class="node">
<title>Roll&#45;7</title>
<polygon fill="none" stroke="MediumVioletRed" stroke-dasharray="5,2" points="265,-160 211,-160 211,-124 265,-124 265,-160"/>
<text text-anchor="start" x="224.5" y="-139.3" font-family="Helvetica,sans-Serif" font-weight="bold" font-size="14.00" fill="MediumVioletRed">Roll</text>
</g>
<!-- Roll&#45;1&#45;&gt;Roll&#45;7 -->
<g id="edge9" class="edge">
<title>Roll&#45;1&#45;&gt;Roll&#45;7</title>
<path fill="none" stroke="MediumVioletRed" stroke-dasharray="5,2" d="M164.17,-242.56C180.63,-237.37 200.9,-228.49 214,-214 224.95,-201.88 230.94,-184.58 234.19,-170.09"/>
<polygon fill="MediumVioletRed" stroke="MediumVioletRed" points="237.65,-170.63 236.11,-160.14 230.78,-169.3 237.65,-170.63"/>
<text text-anchor="middle" x="265.5" y="-202.8" font-family="Courier New" font-size="14.00" fill="MediumVioletRed">sources[1]</text>
</g>
<!-- ValueRoller&#45;6 -->
<g id="node6" class="node">
<title>ValueRoller&#45;6</title>
<polygon fill="none" stroke="MediumBlue" stroke-dasharray="5,2" points="614.5,-52 345.5,-52 345.5,-16 614.5,-16 614.5,-52"/>
<text text-anchor="start" x="441.5" y="-37.8" font-family="Helvetica,sans-Serif" font-weight="bold" font-size="14.00" fill="MediumBlue">ValueRoller</text>
<text text-anchor="start" x="353.5" y="-23.8" font-family="Courier New" font-size="14.00" fill="MediumBlue">value=H({0: 1, 10: 1, 20: 1...</text>
</g>
<!-- PoolRoller&#45;2&#45;&gt;ValueRoller&#45;6 -->
<g id="edge10" class="edge">
<title>PoolRoller&#45;2&#45;&gt;ValueRoller&#45;6</title>
<path fill="none" stroke="MediumBlue" stroke-dasharray="5,2" d="M480,-123.97C480,-107.38 480,-81.88 480,-62.43"/>
<polygon fill="MediumBlue" stroke="MediumBlue" points="483.5,-62.34 480,-52.34 476.5,-62.34 483.5,-62.34"/>
<text text-anchor="middle" x="522.5" y="-94.8" font-family="Courier New" font-size="14.00" fill="MediumBlue">sources[0]</text>
</g>
<!-- ValueRoller&#45;8 -->
<g id="node8" class="node">
<title>ValueRoller&#45;8</title>
<polygon fill="none" stroke="MediumVioletRed" stroke-dasharray="5,2" points="901.5,-52 632.5,-52 632.5,-16 901.5,-16 901.5,-52"/>
<text text-anchor="start" x="728.5" y="-37.8" font-family="Helvetica,sans-Serif" font-weight="bold" font-size="14.00" fill="MediumVioletRed">ValueRoller</text>
<text text-anchor="start" x="640.5" y="-23.8" font-family="Courier New" font-size="14.00" fill="MediumVioletRed">value=H({0: 1, 1: 1, 2: 1, ...</text>
</g>
<!-- PoolRoller&#45;2&#45;&gt;ValueRoller&#45;8 -->
<g id="edge11" class="edge">
<title>PoolRoller&#45;2&#45;&gt;ValueRoller&#45;8</title>
<path fill="none" stroke="MediumVioletRed" stroke-dasharray="5,2" d="M523.59,-124.9C573.74,-106.38 656.2,-75.92 711.05,-55.66"/>
<polygon fill="MediumVioletRed" stroke="MediumVioletRed" points="712.45,-58.88 720.62,-52.13 710.02,-52.31 712.45,-58.88"/>
<text text-anchor="middle" x="656.5" y="-94.8" font-family="Courier New" font-size="14.00" fill="MediumVioletRed">sources[1]</text>
</g>
<!-- Roll&#45;5&#45;&gt;RollOutcome&#45;3 -->
<g id="edge5" class="edge">
<title>Roll&#45;5&#45;&gt;RollOutcome&#45;3</title>
<path fill="none" stroke="MediumBlue" stroke-dasharray="5,2" d="M150.25,-123.97C134.21,-106.61 109.14,-79.5 90.9,-59.77"/>
<polygon fill="MediumBlue" stroke="MediumBlue" points="93.39,-57.31 84.03,-52.34 88.25,-62.06 93.39,-57.31"/>
<text text-anchor="middle" x="144" y="-94.8" font-family="Courier New" font-size="14.00" fill="MediumBlue">[0]</text>
</g>
<!-- Roll&#45;5&#45;&gt;ValueRoller&#45;6 -->
<g id="edge4" class="edge">
<title>Roll&#45;5&#45;&gt;ValueRoller&#45;6</title>
<path fill="none" stroke="MediumBlue" stroke-dasharray="5,2" d="M173.87,-123.84C179.94,-112.64 189.41,-98.71 202,-91 221.94,-78.78 231,-87.21 254,-83 300.85,-74.43 352.85,-63.48 395.16,-54.21"/>
<polygon fill="MediumBlue" stroke="MediumBlue" points="396.12,-57.58 405.13,-52.01 394.62,-50.74 396.12,-57.58"/>
<text text-anchor="middle" x="206.5" y="-94.8" font-family="Courier New" font-size="14.00" fill="MediumBlue">r</text>
</g>
<!-- Roll&#45;7&#45;&gt;RollOutcome&#45;4 -->
<g id="edge7" class="edge">
<title>Roll&#45;7&#45;&gt;RollOutcome&#45;4</title>
<path fill="none" stroke="MediumVioletRed" stroke-dasharray="5,2" d="M230.29,-123.97C222.67,-107.15 210.91,-81.17 202.06,-61.62"/>
<polygon fill="MediumVioletRed" stroke="MediumVioletRed" points="205.17,-60.01 197.85,-52.34 198.79,-62.89 205.17,-60.01"/>
<text text-anchor="middle" x="234" y="-94.8" font-family="Courier New" font-size="14.00" fill="MediumVioletRed">[0]</text>
</g>
<!-- Roll&#45;7&#45;&gt;ValueRoller&#45;8 -->
<g id="edge6" class="edge">
<title>Roll&#45;7&#45;&gt;ValueRoller&#45;8</title>
<path fill="none" stroke="MediumVioletRed" stroke-dasharray="5,2" d="M265.31,-133.25C284.22,-128.02 310.04,-121.16 333,-116 392.11,-102.73 406.84,-98.11 467,-91 536.39,-82.8 555.35,-96.02 624,-83 655.51,-77.03 689.59,-65.78 716.58,-55.68"/>
<polygon fill="MediumVioletRed" stroke="MediumVioletRed" points="718.09,-58.85 726.19,-52.02 715.6,-52.31 718.09,-58.85"/>
<text text-anchor="middle" x="471.5" y="-94.8" font-family="Courier New" font-size="14.00" fill="MediumVioletRed">r</text>
</g>
</g>
</svg>
