<?xml version="1.0" encoding="UTF-8" standalone="no"?>
<!DOCTYPE svg PUBLIC "-//W3C//DTD SVG 1.1//EN"
 "http://www.w3.org/Graphics/SVG/1.1/DTD/svg11.dtd">
<!-- Generated by graphviz version 2.40.1 (20161225.0304)
 -->
<!-- Title: %3 Pages: 1 -->
<svg width="1019pt" height="367pt"
 viewBox="0.00 0.00 1019.00 367.00" xmlns="http://www.w3.org/2000/svg" xmlns:xlink="http://www.w3.org/1999/xlink">
<g id="graph0" class="graph" transform="scale(1 1) rotate(0) translate(4 363)">
<title>%3</title>
<polygon fill="transparent" stroke="transparent" points="-4,4 -4,-363 1015,-363 1015,4 -4,4"/>
<g id="clust1" class="cluster">
<title>cluster_0</title>
<polygon fill="none" stroke="DarkSlateGray" stroke-dasharray="1,5" points="8,-8 8,-243 488,-243 488,-8 8,-8"/>
<text text-anchor="start" x="213" y="-228.8" font-family="Helvetica,sans-Serif" font-style="italic" font-size="14.00" fill="DarkSlateGray">Roller Tree</text>
</g>
<g id="clust2" class="cluster">
<title>cluster_1</title>
<polygon fill="none" stroke="Indigo" stroke-dasharray="1,5" points="496,-95 496,-351 736,-351 736,-95 496,-95"/>
<text text-anchor="start" x="587.5" y="-336.8" font-family="Helvetica,sans-Serif" font-style="italic" font-size="14.00" fill="Indigo">Roll Tree</text>
</g>
<g id="clust3" class="cluster">
<title>cluster_2</title>
<polygon fill="none" stroke="Indigo" stroke-dasharray="1,5" points="744,-8 744,-243 986,-243 986,-8 744,-8"/>
<text text-anchor="start" x="819" y="-228.8" font-family="Helvetica,sans-Serif" font-style="italic" font-size="14.00" fill="Indigo">Roll Outcomes</text>
</g>
<!-- PoolRoller -->
<g id="node1" class="node">
<title>PoolRoller</title>
<polygon fill="none" stroke="DarkSlateGray" points="414.5,-212 327.5,-212 327.5,-176 414.5,-176 414.5,-212"/>
<text text-anchor="start" x="335.5" y="-191.3" font-family="Helvetica,sans-Serif" font-weight="bold" font-size="14.00" fill="DarkSlateGray">PoolRoller</text>
</g>
<!-- ValueRoller[0] -->
<g id="node2" class="node">
<title>ValueRoller[0]</title>
<polygon fill="none" stroke="MediumBlue" stroke-dasharray="5,2" points="243.5,-52 16.5,-52 16.5,-16 243.5,-16 243.5,-52"/>
<text text-anchor="start" x="91" y="-37.8" font-family="Helvetica,sans-Serif" font-weight="bold" font-size="14.00" fill="MediumBlue">ValueRoller</text>
<text text-anchor="start" x="24.5" y="-23.8" font-family="Courier New" font-size="14.00" fill="MediumBlue">value=H({0: 1, …, 90: 1})</text>
</g>
<!-- PoolRoller&#45;&gt;ValueRoller[0] -->
<g id="edge1" class="edge">
<title>PoolRoller&#45;&gt;ValueRoller[0]</title>
<path fill="none" stroke="MediumBlue" stroke-dasharray="5,2" d="M340.6865,-175.7935C323.3623,-165.2576 301.3078,-151.623 282,-139 240.6535,-111.9686 194.039,-79.4567 163.4615,-57.8434"/>
<polygon fill="MediumBlue" stroke="MediumBlue" points="165.4638,-54.9727 155.2801,-52.05 161.4185,-60.6854 165.4638,-54.9727"/>
<text text-anchor="start" x="282" y="-117.3" font-family="Courier New" font-size="14.00" fill="MediumBlue">sources[0]</text>
</g>
<!-- ValueRoller[1] -->
<g id="node3" class="node">
<title>ValueRoller[1]</title>
<polygon fill="none" stroke="MediumVioletRed" stroke-dasharray="5,2" points="480,-52 262,-52 262,-16 480,-16 480,-52"/>
<text text-anchor="start" x="332" y="-37.8" font-family="Helvetica,sans-Serif" font-weight="bold" font-size="14.00" fill="MediumVioletRed">ValueRoller</text>
<text text-anchor="start" x="270" y="-23.8" font-family="Courier New" font-size="14.00" fill="MediumVioletRed">value=H({0: 1, …, 9: 1})</text>
</g>
<!-- PoolRoller&#45;&gt;ValueRoller[1] -->
<g id="edge2" class="edge">
<title>PoolRoller&#45;&gt;ValueRoller[1]</title>
<path fill="none" stroke="MediumVioletRed" stroke-dasharray="5,2" d="M371,-175.957C371,-148.3487 371,-95.3746 371,-62.5255"/>
<polygon fill="MediumVioletRed" stroke="MediumVioletRed" points="374.5001,-62.2225 371,-52.2226 367.5001,-62.2226 374.5001,-62.2225"/>
<text text-anchor="start" x="371" y="-117.3" font-family="Courier New" font-size="14.00" fill="MediumVioletRed">sources[1]</text>
</g>
<!-- Roll_PoolRoller -->
<g id="node4" class="node">
<title>Roll_PoolRoller</title>
<polygon fill="none" stroke="Indigo" points="670,-320 616,-320 616,-284 670,-284 670,-320"/>
<text text-anchor="start" x="629.5" y="-299.3" font-family="Helvetica,sans-Serif" font-weight="bold" font-size="14.00" fill="Indigo">Roll</text>
</g>
<!-- Roll_PoolRoller&#45;&gt;PoolRoller -->
<g id="edge7" class="edge">
<title>Roll_PoolRoller&#45;&gt;PoolRoller</title>
<path fill="none" stroke="DarkSlateGray" d="M615.7961,-296.6196C588.1219,-290.7149 544.2655,-280.1596 508,-266 473.3697,-252.4789 436.1542,-232.5417 409.2636,-217.0734"/>
<polygon fill="DarkSlateGray" stroke="DarkSlateGray" points="410.9633,-214.0131 400.5586,-212.0146 407.4461,-220.0653 410.9633,-214.0131"/>
<text text-anchor="start" x="508" y="-254.8" font-family="Courier New" font-size="14.00" fill="DarkSlateGray">r</text>
</g>
<!-- Roll_ValueRoller[0] -->
<g id="node5" class="node">
<title>Roll_ValueRoller[0]</title>
<polygon fill="none" stroke="MediumBlue" stroke-dasharray="5,2" points="558,-139 504,-139 504,-103 558,-103 558,-139"/>
<text text-anchor="start" x="517.5" y="-118.3" font-family="Helvetica,sans-Serif" font-weight="bold" font-size="14.00" fill="MediumBlue">Roll</text>
</g>
<!-- Roll_PoolRoller&#45;&gt;Roll_ValueRoller[0] -->
<g id="edge3" class="edge">
<title>Roll_PoolRoller&#45;&gt;Roll_ValueRoller[0]</title>
<path fill="none" stroke="MediumBlue" stroke-dasharray="5,2" d="M615.6958,-290.9749C595.4414,-281.3511 568.8627,-265.3977 554,-243 535.3557,-214.9036 530.9094,-175.5852 530.2708,-149.2536"/>
<polygon fill="MediumBlue" stroke="MediumBlue" points="533.7702,-149.1466 530.1965,-139.1727 526.7704,-149.1983 533.7702,-149.1466"/>
<text text-anchor="start" x="554" y="-190.3" font-family="Courier New" font-size="14.00" fill="MediumBlue">sources[0]</text>
</g>
<!-- Roll_ValueRoller[1] -->
<g id="node6" class="node">
<title>Roll_ValueRoller[1]</title>
<polygon fill="none" stroke="MediumVioletRed" stroke-dasharray="5,2" points="670,-139 616,-139 616,-103 670,-103 670,-139"/>
<text text-anchor="start" x="629.5" y="-118.3" font-family="Helvetica,sans-Serif" font-weight="bold" font-size="14.00" fill="MediumVioletRed">Roll</text>
</g>
<!-- Roll_PoolRoller&#45;&gt;Roll_ValueRoller[1] -->
<g id="edge4" class="edge">
<title>Roll_PoolRoller&#45;&gt;Roll_ValueRoller[1]</title>
<path fill="none" stroke="MediumVioletRed" stroke-dasharray="5,2" d="M643,-283.9833C643,-252.4877 643,-187.1909 643,-149.5061"/>
<polygon fill="MediumVioletRed" stroke="MediumVioletRed" points="646.5001,-149.2124 643,-139.2125 639.5001,-149.2125 646.5001,-149.2124"/>
<text text-anchor="start" x="643" y="-190.3" font-family="Courier New" font-size="14.00" fill="MediumVioletRed">sources[1]</text>
</g>
<!-- RollOutcome_60_PoolRoller -->
<g id="node7" class="node">
<title>RollOutcome_60_PoolRoller</title>
<polygon fill="none" stroke="Indigo" points="856,-212 752,-212 752,-176 856,-176 856,-212"/>
<text text-anchor="start" x="760" y="-197.8" font-family="Helvetica,sans-Serif" font-weight="bold" font-size="14.00" fill="Indigo">RollOutcome</text>
<text text-anchor="start" x="770" y="-183.8" font-family="Courier New" font-size="14.00" fill="Indigo">value=60</text>
</g>
<!-- Roll_PoolRoller&#45;&gt;RollOutcome_60_PoolRoller -->
<g id="edge8" class="edge">
<title>Roll_PoolRoller&#45;&gt;RollOutcome_60_PoolRoller</title>
<path fill="none" stroke="Indigo" d="M670.2498,-286.4781C689.965,-274.996 717.0612,-258.6914 740,-243 751.2098,-235.3319 763.1187,-226.4352 773.5855,-218.3436"/>
<polygon fill="Indigo" stroke="Indigo" points="775.8995,-220.9774 781.6295,-212.0658 771.5927,-215.4591 775.8995,-220.9774"/>
<text text-anchor="start" x="727" y="-254.8" font-family="Courier New" font-size="14.00" fill="Indigo">[0]</text>
</g>
<!-- RollOutcome_9_PoolRoller -->
<g id="node8" class="node">
<title>RollOutcome_9_PoolRoller</title>
<polygon fill="none" stroke="Indigo" points="978,-212 874,-212 874,-176 978,-176 978,-212"/>
<text text-anchor="start" x="882" y="-197.8" font-family="Helvetica,sans-Serif" font-weight="bold" font-size="14.00" fill="Indigo">RollOutcome</text>
<text text-anchor="start" x="896.5" y="-183.8" font-family="Courier New" font-size="14.00" fill="Indigo">value=9</text>
</g>
<!-- Roll_PoolRoller&#45;&gt;RollOutcome_9_PoolRoller -->
<g id="edge9" class="edge">
<title>Roll_PoolRoller&#45;&gt;RollOutcome_9_PoolRoller</title>
<path fill="none" stroke="Indigo" d="M670.2651,-298.4831C713.482,-292.1081 799.52,-276.1175 865,-243 877.4342,-236.7112 889.6978,-227.5949 899.931,-218.9267"/>
<polygon fill="Indigo" stroke="Indigo" points="902.4622,-221.3619 907.667,-212.1337 897.8434,-216.102 902.4622,-221.3619"/>
<text text-anchor="start" x="842" y="-254.8" font-family="Courier New" font-size="14.00" fill="Indigo">[1]</text>
</g>
<!-- Roll_ValueRoller[0]&#45;&gt;ValueRoller[0] -->
<g id="edge10" class="edge">
<title>Roll_ValueRoller[0]&#45;&gt;ValueRoller[0]</title>
<path fill="none" stroke="MediumBlue" stroke-dasharray="5,2" d="M507.1158,-102.8286C502.3069,-99.83 497.144,-97.0395 492,-95 469.8267,-86.2087 349.7964,-66.8396 253.9399,-52.2703"/>
<polygon fill="MediumBlue" stroke="MediumBlue" points="254.2709,-48.7806 243.8593,-50.7422 253.2218,-55.7015 254.2709,-48.7806"/>
<text text-anchor="start" x="447" y="-73.8" font-family="Courier New" font-size="14.00" fill="MediumBlue">r</text>
</g>
<!-- RollOutcome_60_ValueRoller[0] -->
<g id="node9" class="node">
<title>RollOutcome_60_ValueRoller[0]</title>
<polygon fill="none" stroke="MediumBlue" stroke-dasharray="5,2" points="856,-52 752,-52 752,-16 856,-16 856,-52"/>
<text text-anchor="start" x="760" y="-37.8" font-family="Helvetica,sans-Serif" font-weight="bold" font-size="14.00" fill="MediumBlue">RollOutcome</text>
<text text-anchor="start" x="770" y="-23.8" font-family="Courier New" font-size="14.00" fill="MediumBlue">value=60</text>
</g>
<!-- Roll_ValueRoller[0]&#45;&gt;RollOutcome_60_ValueRoller[0] -->
<g id="edge11" class="edge">
<title>Roll_ValueRoller[0]&#45;&gt;RollOutcome_60_ValueRoller[0]</title>
<path fill="none" stroke="MediumBlue" stroke-dasharray="5,2" d="M533.0605,-102.9485C535.3212,-91.7411 540.0614,-77.9957 550,-70 578.6574,-46.9448 676.0637,-38.6538 741.5805,-35.6728"/>
<polygon fill="MediumBlue" stroke="MediumBlue" points="741.9639,-39.1598 751.8063,-35.2385 741.6668,-32.1661 741.9639,-39.1598"/>
<text text-anchor="start" x="550" y="-73.8" font-family="Courier New" font-size="14.00" fill="MediumBlue">[0]</text>
</g>
<!-- Roll_ValueRoller[1]&#45;&gt;ValueRoller[1] -->
<g id="edge12" class="edge">
<title>Roll_ValueRoller[1]&#45;&gt;ValueRoller[1]</title>
<path fill="none" stroke="MediumVioletRed" stroke-dasharray="5,2" d="M625.6781,-102.8459C613.8766,-91.5963 597.3031,-77.8425 580,-70 563.1841,-62.3783 527.4685,-55.2033 490.242,-49.2948"/>
<polygon fill="MediumVioletRed" stroke="MediumVioletRed" points="490.6569,-45.8174 480.2383,-47.7417 489.583,-52.7345 490.6569,-45.8174"/>
<text text-anchor="start" x="604" y="-73.8" font-family="Courier New" font-size="14.00" fill="MediumVioletRed">r</text>
</g>
<!-- RollOutcome_9_ValueRoller[1] -->
<g id="node10" class="node">
<title>RollOutcome_9_ValueRoller[1]</title>
<polygon fill="none" stroke="MediumVioletRed" stroke-dasharray="5,2" points="978,-52 874,-52 874,-16 978,-16 978,-52"/>
<text text-anchor="start" x="882" y="-37.8" font-family="Helvetica,sans-Serif" font-weight="bold" font-size="14.00" fill="MediumVioletRed">RollOutcome</text>
<text text-anchor="start" x="896.5" y="-23.8" font-family="Courier New" font-size="14.00" fill="MediumVioletRed">value=9</text>
</g>
<!-- Roll_ValueRoller[1]&#45;&gt;RollOutcome_9_ValueRoller[1] -->
<g id="edge13" class="edge">
<title>Roll_ValueRoller[1]&#45;&gt;RollOutcome_9_ValueRoller[1]</title>
<path fill="none" stroke="MediumVioletRed" stroke-dasharray="5,2" d="M670.1352,-112.6581C714.4955,-99.0208 803.6461,-71.6141 864.0869,-53.0333"/>
<polygon fill="MediumVioletRed" stroke="MediumVioletRed" points="865.3715,-56.3002 873.9016,-50.0161 863.3146,-49.6092 865.3715,-56.3002"/>
<text text-anchor="start" x="801" y="-73.8" font-family="Courier New" font-size="14.00" fill="MediumVioletRed">[0]</text>
</g>
<!-- RollOutcome_60_PoolRoller&#45;&gt;RollOutcome_60_ValueRoller[0] -->
<g id="edge5" class="edge">
<title>RollOutcome_60_PoolRoller&#45;&gt;RollOutcome_60_ValueRoller[0]</title>
<path fill="none" stroke="MediumBlue" stroke-dasharray="5,2" d="M796.4253,-175.7763C792.4551,-165.2349 788.0095,-151.6004 786,-139 782.9203,-119.6885 783.204,-114.3546 786,-95 787.5985,-83.9351 790.7482,-72.0807 793.9721,-61.7922"/>
<polygon fill="MediumBlue" stroke="MediumBlue" points="797.3561,-62.7059 797.1659,-52.1128 790.7086,-60.5124 797.3561,-62.7059"/>
<text text-anchor="start" x="786" y="-117.3" font-family="Courier New" font-size="14.00" fill="MediumBlue">sources[0]</text>
</g>
<!-- RollOutcome_9_PoolRoller&#45;&gt;RollOutcome_9_ValueRoller[1] -->
<g id="edge6" class="edge">
<title>RollOutcome_9_PoolRoller&#45;&gt;RollOutcome_9_ValueRoller[1]</title>
<path fill="none" stroke="MediumVioletRed" stroke-dasharray="5,2" d="M926,-175.957C926,-148.3487 926,-95.3746 926,-62.5255"/>
<polygon fill="MediumVioletRed" stroke="MediumVioletRed" points="929.5001,-62.2225 926,-52.2226 922.5001,-62.2226 929.5001,-62.2225"/>
<text text-anchor="start" x="926" y="-117.3" font-family="Courier New" font-size="14.00" fill="MediumVioletRed">sources[0]</text>
</g>
</g>
</svg>
