<?xml version="1.0" encoding="UTF-8" standalone="no"?>
<!DOCTYPE svg PUBLIC "-//W3C//DTD SVG 1.1//EN"
 "http://www.w3.org/Graphics/SVG/1.1/DTD/svg11.dtd">
<!-- Generated by graphviz version 2.40.1 (20161225.0304)
 -->
<!-- Title: %3 Pages: 1 -->
<svg width="1144pt" height="687pt"
 viewBox="0.00 0.00 1144.00 687.00" xmlns="http://www.w3.org/2000/svg" xmlns:xlink="http://www.w3.org/1999/xlink">
<g id="graph0" class="graph" transform="scale(1 1) rotate(0) translate(4 683)">
<title>%3</title>
<polygon fill="transparent" stroke="transparent" points="-4,4 -4,-683 1140,-683 1140,4 -4,4"/>
<g id="clust1" class="cluster">
<title>cluster_0</title>
<polygon fill="none" stroke="DarkSlateGray" stroke-dasharray="1,5" points="8,-8 8,-563 248,-563 248,-8 8,-8"/>
<text text-anchor="start" x="93" y="-548.8" font-family="Helvetica,sans-Serif" font-style="italic" font-size="14.00" fill="DarkSlateGray">Roller Tree</text>
</g>
<g id="clust2" class="cluster">
<title>cluster_1</title>
<polygon fill="none" stroke="Indigo" stroke-dasharray="1,5" points="256,-95 256,-671 617,-671 617,-95 256,-95"/>
<text text-anchor="start" x="408" y="-656.8" font-family="Helvetica,sans-Serif" font-style="italic" font-size="14.00" fill="Indigo">Roll Tree</text>
</g>
<g id="clust3" class="cluster">
<title>cluster_2</title>
<polygon fill="none" stroke="Indigo" stroke-dasharray="1,5" points="625,-8 625,-563 1111,-563 1111,-8 625,-8"/>
<text text-anchor="start" x="822" y="-548.8" font-family="Helvetica,sans-Serif" font-style="italic" font-size="14.00" fill="Indigo">Roll Outcomes</text>
</g>
<!-- SelectionRoller -->
<g id="node1" class="node">
<title>SelectionRoller</title>
<polygon fill="none" stroke="DarkSlateGray" points="227,-532 109,-532 109,-496 227,-496 227,-532"/>
<text text-anchor="start" x="117" y="-511.3" font-family="Helvetica,sans-Serif" font-weight="bold" font-size="14.00" fill="DarkSlateGray">SelectionRoller</text>
</g>
<!-- PoolRoller -->
<g id="node2" class="node">
<title>PoolRoller</title>
<polygon fill="none" stroke="DarkSlateGray" points="198.5,-372 111.5,-372 111.5,-336 198.5,-336 198.5,-372"/>
<text text-anchor="start" x="119.5" y="-351.3" font-family="Helvetica,sans-Serif" font-weight="bold" font-size="14.00" fill="DarkSlateGray">PoolRoller</text>
</g>
<!-- SelectionRoller&#45;&gt;PoolRoller -->
<g id="edge1" class="edge">
<title>SelectionRoller&#45;&gt;PoolRoller</title>
<path fill="none" stroke="DarkSlateGray" d="M166.534,-495.957C164.2908,-468.3487 159.9867,-415.3746 157.3177,-382.5255"/>
<polygon fill="DarkSlateGray" stroke="DarkSlateGray" points="160.779,-381.9062 156.4806,-372.2226 153.802,-382.4732 160.779,-381.9062"/>
<text text-anchor="start" x="163" y="-437.3" font-family="Courier New" font-size="14.00" fill="DarkSlateGray">sources[0]</text>
</g>
<!-- RepeatRoller -->
<g id="node3" class="node">
<title>RepeatRoller</title>
<polygon fill="none" stroke="MediumBlue" stroke-dasharray="5,2" points="120.5,-212 17.5,-212 17.5,-176 120.5,-176 120.5,-212"/>
<text text-anchor="start" x="25.5" y="-197.8" font-family="Helvetica,sans-Serif" font-weight="bold" font-size="14.00" fill="MediumBlue">RepeatRoller</text>
<text text-anchor="start" x="56" y="-183.8" font-family="Courier New" font-size="14.00" fill="MediumBlue">n=3</text>
</g>
<!-- PoolRoller&#45;&gt;RepeatRoller -->
<g id="edge2" class="edge">
<title>PoolRoller&#45;&gt;RepeatRoller</title>
<path fill="none" stroke="MediumBlue" stroke-dasharray="5,2" d="M111.4868,-336.1347C95.8787,-327.379 79.9404,-315.1702 71,-299 58.0358,-275.5521 59.2964,-244.4248 62.7226,-222.1611"/>
<polygon fill="MediumBlue" stroke="MediumBlue" points="66.2217,-222.4743 64.5257,-212.0161 59.3297,-221.2493 66.2217,-222.4743"/>
<text text-anchor="start" x="71" y="-277.3" font-family="Courier New" font-size="14.00" fill="MediumBlue">sources[0]</text>
</g>
<!-- ValueRoller_d8 -->
<g id="node5" class="node">
<title>ValueRoller_d8</title>
<polygon fill="none" stroke="MediumVioletRed" stroke-dasharray="5,2" points="239.5,-212 138.5,-212 138.5,-176 239.5,-176 239.5,-212"/>
<text text-anchor="start" x="150" y="-197.8" font-family="Helvetica,sans-Serif" font-weight="bold" font-size="14.00" fill="MediumVioletRed">ValueRoller</text>
<text text-anchor="start" x="146.5" y="-183.8" font-family="Courier New" font-size="14.00" fill="MediumVioletRed">value=H(8)</text>
</g>
<!-- PoolRoller&#45;&gt;ValueRoller_d8 -->
<g id="edge4" class="edge">
<title>PoolRoller&#45;&gt;ValueRoller_d8</title>
<path fill="none" stroke="MediumVioletRed" stroke-dasharray="5,2" d="M156.4508,-335.7044C158.1416,-317.2089 161.4388,-287.8827 167,-263 170.0638,-249.2914 174.6433,-234.407 178.8321,-221.9837"/>
<polygon fill="MediumVioletRed" stroke="MediumVioletRed" points="182.2527,-222.8016 182.217,-212.2068 175.638,-220.5114 182.2527,-222.8016"/>
<text text-anchor="start" x="167" y="-277.3" font-family="Courier New" font-size="14.00" fill="MediumVioletRed">sources[1]</text>
</g>
<!-- ValueRoller_d6 -->
<g id="node4" class="node">
<title>ValueRoller_d6</title>
<polygon fill="none" stroke="MediumBlue" stroke-dasharray="5,2" points="239.5,-52 138.5,-52 138.5,-16 239.5,-16 239.5,-52"/>
<text text-anchor="start" x="150" y="-37.8" font-family="Helvetica,sans-Serif" font-weight="bold" font-size="14.00" fill="MediumBlue">ValueRoller</text>
<text text-anchor="start" x="146.5" y="-23.8" font-family="Courier New" font-size="14.00" fill="MediumBlue">value=H(6)</text>
</g>
<!-- RepeatRoller&#45;&gt;ValueRoller_d6 -->
<g id="edge3" class="edge">
<title>RepeatRoller&#45;&gt;ValueRoller_d6</title>
<path fill="none" stroke="MediumBlue" stroke-dasharray="5,2" d="M82.5323,-175.957C103.6886,-147.7485 144.7054,-93.0594 169.1909,-60.4121"/>
<polygon fill="MediumBlue" stroke="MediumBlue" points="172.133,-62.3226 175.3331,-52.2226 166.533,-58.1226 172.133,-62.3226"/>
<text text-anchor="start" x="142" y="-117.3" font-family="Courier New" font-size="14.00" fill="MediumBlue">sources[0]</text>
</g>
<!-- Roll_SelectionRoller -->
<g id="node6" class="node">
<title>Roll_SelectionRoller</title>
<polygon fill="none" stroke="Indigo" points="609,-640 555,-640 555,-604 609,-604 609,-640"/>
<text text-anchor="start" x="568.5" y="-619.3" font-family="Helvetica,sans-Serif" font-weight="bold" font-size="14.00" fill="Indigo">Roll</text>
</g>
<!-- Roll_SelectionRoller&#45;&gt;SelectionRoller -->
<g id="edge22" class="edge">
<title>Roll_SelectionRoller&#45;&gt;SelectionRoller</title>
<path fill="none" stroke="DarkSlateGray" d="M554.6413,-620.3505C497.0178,-616.184 359.6046,-602.5835 252,-563 234.8105,-556.6767 217.1051,-546.9132 202.4079,-537.7608"/>
<polygon fill="DarkSlateGray" stroke="DarkSlateGray" points="203.9874,-534.6164 193.6771,-532.1773 200.216,-540.5136 203.9874,-534.6164"/>
<text text-anchor="start" x="321" y="-574.8" font-family="Courier New" font-size="14.00" fill="DarkSlateGray">r</text>
</g>
<!-- Roll_PoolRoller -->
<g id="node7" class="node">
<title>Roll_PoolRoller</title>
<polygon fill="none" stroke="Indigo" points="546,-459 492,-459 492,-423 546,-423 546,-459"/>
<text text-anchor="start" x="505.5" y="-438.3" font-family="Helvetica,sans-Serif" font-weight="bold" font-size="14.00" fill="Indigo">Roll</text>
</g>
<!-- Roll_SelectionRoller&#45;&gt;Roll_PoolRoller -->
<g id="edge5" class="edge">
<title>Roll_SelectionRoller&#45;&gt;Roll_PoolRoller</title>
<path fill="none" stroke="Indigo" d="M563.8594,-603.9829C553.9792,-593.0606 542.4792,-578.3106 536,-563 523.1651,-532.6708 519.6203,-494.6824 518.833,-469.2252"/>
<polygon fill="Indigo" stroke="Indigo" points="522.3309,-469.0742 518.6455,-459.141 515.3322,-469.2044 522.3309,-469.0742"/>
<text text-anchor="start" x="536" y="-510.3" font-family="Courier New" font-size="14.00" fill="Indigo">sources[0]</text>
</g>
<!-- RollOutcome_1_SelectionRoller -->
<g id="node13" class="node">
<title>RollOutcome_1_SelectionRoller</title>
<polygon fill="none" stroke="Indigo" points="859,-532 755,-532 755,-496 859,-496 859,-532"/>
<text text-anchor="start" x="763" y="-517.8" font-family="Helvetica,sans-Serif" font-weight="bold" font-size="14.00" fill="Indigo">RollOutcome</text>
<text text-anchor="start" x="777.5" y="-503.8" font-family="Courier New" font-size="14.00" fill="Indigo">value=1</text>
</g>
<!-- Roll_SelectionRoller&#45;&gt;RollOutcome_1_SelectionRoller -->
<g id="edge24" class="edge">
<title>Roll_SelectionRoller&#45;&gt;RollOutcome_1_SelectionRoller</title>
<path fill="none" stroke="Indigo" d="M609.0139,-615.2548C642.5165,-606.2339 700.7364,-588.3803 746,-563 757.9669,-556.2899 769.9861,-547.2474 780.1536,-538.7574"/>
<polygon fill="Indigo" stroke="Indigo" points="782.5716,-541.2944 787.8744,-532.1221 778.0091,-535.9855 782.5716,-541.2944"/>
<text text-anchor="start" x="729" y="-574.8" font-family="Courier New" font-size="14.00" fill="Indigo">[0]</text>
</g>
<!-- RollOutcome_5_SelectionRoller -->
<g id="node14" class="node">
<title>RollOutcome_5_SelectionRoller</title>
<polygon fill="none" stroke="Indigo" points="1103,-532 999,-532 999,-496 1103,-496 1103,-532"/>
<text text-anchor="start" x="1007" y="-517.8" font-family="Helvetica,sans-Serif" font-weight="bold" font-size="14.00" fill="Indigo">RollOutcome</text>
<text text-anchor="start" x="1021.5" y="-503.8" font-family="Courier New" font-size="14.00" fill="Indigo">value=5</text>
</g>
<!-- Roll_SelectionRoller&#45;&gt;RollOutcome_5_SelectionRoller -->
<g id="edge25" class="edge">
<title>Roll_SelectionRoller&#45;&gt;RollOutcome_5_SelectionRoller</title>
<path fill="none" stroke="Indigo" d="M609.0496,-620.1398C688.7903,-614.3373 921.6183,-595.0183 990,-563 1002.9403,-556.941 1015.5451,-547.5885 1025.9055,-538.6719"/>
<polygon fill="Indigo" stroke="Indigo" points="1028.2423,-541.2776 1033.359,-532.0002 1023.5736,-536.0619 1028.2423,-541.2776"/>
<text text-anchor="start" x="965" y="-574.8" font-family="Courier New" font-size="14.00" fill="Indigo">[1]</text>
</g>
<!-- RollOutcome_6_SelectionRoller -->
<g id="node15" class="node">
<title>RollOutcome_6_SelectionRoller</title>
<polygon fill="none" stroke="Indigo" points="737,-532 633,-532 633,-496 737,-496 737,-532"/>
<text text-anchor="start" x="641" y="-517.8" font-family="Helvetica,sans-Serif" font-weight="bold" font-size="14.00" fill="Indigo">RollOutcome</text>
<text text-anchor="start" x="655.5" y="-503.8" font-family="Courier New" font-size="14.00" fill="Indigo">value=6</text>
</g>
<!-- Roll_SelectionRoller&#45;&gt;RollOutcome_6_SelectionRoller -->
<g id="edge26" class="edge">
<title>Roll_SelectionRoller&#45;&gt;RollOutcome_6_SelectionRoller</title>
<path fill="none" stroke="Indigo" d="M599.4725,-603.6793C616.2947,-586.0405 641.8844,-559.2086 660.691,-539.489"/>
<polygon fill="Indigo" stroke="Indigo" points="663.4167,-541.7023 667.7855,-532.0502 658.3511,-536.8712 663.4167,-541.7023"/>
<text text-anchor="start" x="630" y="-574.8" font-family="Courier New" font-size="14.00" fill="Indigo">[2]</text>
</g>
<!-- RollOutcome_None_SelectionRoller -->
<g id="node16" class="node">
<title>RollOutcome_None_SelectionRoller</title>
<polygon fill="none" stroke="Indigo" points="981,-532 877,-532 877,-496 981,-496 981,-532"/>
<text text-anchor="start" x="885" y="-517.8" font-family="Helvetica,sans-Serif" font-weight="bold" font-size="14.00" fill="Indigo">RollOutcome</text>
<text text-anchor="start" x="886.5" y="-503.8" font-family="Courier New" font-size="14.00" fill="Indigo">value=None</text>
</g>
<!-- Roll_SelectionRoller&#45;&gt;RollOutcome_None_SelectionRoller -->
<g id="edge27" class="edge">
<title>Roll_SelectionRoller&#45;&gt;RollOutcome_None_SelectionRoller</title>
<path fill="none" stroke="Indigo" d="M609.3708,-620.6491C661.9208,-617.1493 779.5702,-604.8849 868,-563 880.6898,-556.9895 893.0771,-547.844 903.3373,-539.0751"/>
<polygon fill="Indigo" stroke="Indigo" points="905.9306,-541.4526 911.0749,-532.1905 901.2775,-536.223 905.9306,-541.4526"/>
<text text-anchor="start" x="846" y="-574.8" font-family="Courier New" font-size="14.00" fill="Indigo">[3]</text>
</g>
<!-- Roll_PoolRoller&#45;&gt;PoolRoller -->
<g id="edge23" class="edge">
<title>Roll_PoolRoller&#45;&gt;PoolRoller</title>
<path fill="none" stroke="DarkSlateGray" d="M491.8304,-435.2697C459.4266,-428.3731 403.6545,-416.3053 356,-405 305.9463,-393.1255 249.1477,-378.6179 208.7279,-368.1161"/>
<polygon fill="DarkSlateGray" stroke="DarkSlateGray" points="209.3779,-364.6687 198.8187,-365.5364 207.6144,-371.4429 209.3779,-364.6687"/>
<text text-anchor="start" x="356" y="-393.8" font-family="Courier New" font-size="14.00" fill="DarkSlateGray">r</text>
</g>
<!-- Roll_RepeatRoller -->
<g id="node8" class="node">
<title>Roll_RepeatRoller</title>
<polygon fill="none" stroke="MediumBlue" stroke-dasharray="5,2" points="433,-299 379,-299 379,-263 433,-263 433,-299"/>
<text text-anchor="start" x="392.5" y="-278.3" font-family="Helvetica,sans-Serif" font-weight="bold" font-size="14.00" fill="MediumBlue">Roll</text>
</g>
<!-- Roll_PoolRoller&#45;&gt;Roll_RepeatRoller -->
<g id="edge6" class="edge">
<title>Roll_PoolRoller&#45;&gt;Roll_RepeatRoller</title>
<path fill="none" stroke="MediumBlue" stroke-dasharray="5,2" d="M491.874,-433.2166C464.4176,-423.7247 423.4592,-404.7498 405,-372 394.265,-352.9544 395.4273,-327.9107 398.7617,-308.9177"/>
<polygon fill="MediumBlue" stroke="MediumBlue" points="402.202,-309.5634 400.7759,-299.065 395.3439,-308.1614 402.202,-309.5634"/>
<text text-anchor="start" x="405" y="-350.3" font-family="Courier New" font-size="14.00" fill="MediumBlue">sources[0]</text>
</g>
<!-- Roll_ValueRoller_d8 -->
<g id="node12" class="node">
<title>Roll_ValueRoller_d8</title>
<polygon fill="none" stroke="MediumVioletRed" stroke-dasharray="5,2" points="518,-299 464,-299 464,-263 518,-263 518,-299"/>
<text text-anchor="start" x="477.5" y="-278.3" font-family="Helvetica,sans-Serif" font-weight="bold" font-size="14.00" fill="MediumVioletRed">Roll</text>
</g>
<!-- Roll_PoolRoller&#45;&gt;Roll_ValueRoller_d8 -->
<g id="edge10" class="edge">
<title>Roll_PoolRoller&#45;&gt;Roll_ValueRoller_d8</title>
<path fill="none" stroke="MediumVioletRed" stroke-dasharray="5,2" d="M511.5714,-422.9291C509.491,-417.2697 507.4143,-410.9476 506,-405 498.3182,-372.6961 494.4594,-334.6726 492.5986,-309.3295"/>
<polygon fill="MediumVioletRed" stroke="MediumVioletRed" points="496.087,-309.0383 491.9181,-299.2981 489.103,-309.5121 496.087,-309.0383"/>
<text text-anchor="start" x="499" y="-350.3" font-family="Courier New" font-size="14.00" fill="MediumVioletRed">sources[1]</text>
</g>
<!-- RollOutcome_6_PoolRoller -->
<g id="node17" class="node">
<title>RollOutcome_6_PoolRoller</title>
<polygon fill="none" stroke="Indigo" points="737,-372 633,-372 633,-336 737,-336 737,-372"/>
<text text-anchor="start" x="641" y="-357.8" font-family="Helvetica,sans-Serif" font-weight="bold" font-size="14.00" fill="Indigo">RollOutcome</text>
<text text-anchor="start" x="655.5" y="-343.8" font-family="Courier New" font-size="14.00" fill="Indigo">value=6</text>
</g>
<!-- Roll_PoolRoller&#45;&gt;RollOutcome_6_PoolRoller -->
<g id="edge28" class="edge">
<title>Roll_PoolRoller&#45;&gt;RollOutcome_6_PoolRoller</title>
<path fill="none" stroke="Indigo" d="M512.2584,-422.9949C509.4866,-412.2303 508.4531,-398.9507 516,-390 531.2602,-371.9011 597.9071,-377.2119 621,-372 621.5981,-371.865 622.199,-371.7279 622.8022,-371.5887"/>
<polygon fill="Indigo" stroke="Indigo" points="623.8298,-374.9411 632.7231,-369.1827 622.1799,-368.1383 623.8298,-374.9411"/>
<text text-anchor="start" x="516" y="-393.8" font-family="Courier New" font-size="14.00" fill="Indigo">[0]</text>
</g>
<!-- RollOutcome_1_PoolRoller -->
<g id="node18" class="node">
<title>RollOutcome_1_PoolRoller</title>
<polygon fill="none" stroke="Indigo" points="859,-372 755,-372 755,-336 859,-336 859,-372"/>
<text text-anchor="start" x="763" y="-357.8" font-family="Helvetica,sans-Serif" font-weight="bold" font-size="14.00" fill="Indigo">RollOutcome</text>
<text text-anchor="start" x="777.5" y="-343.8" font-family="Courier New" font-size="14.00" fill="Indigo">value=1</text>
</g>
<!-- Roll_PoolRoller&#45;&gt;RollOutcome_1_PoolRoller -->
<g id="edge29" class="edge">
<title>Roll_PoolRoller&#45;&gt;RollOutcome_1_PoolRoller</title>
<path fill="none" stroke="Indigo" d="M530.1276,-422.962C538.2722,-411.457 550.4211,-397.3691 565,-390 634.3299,-354.9561 664.2895,-384.9612 744.8366,-371.8842"/>
<polygon fill="Indigo" stroke="Indigo" points="745.6951,-375.286 754.9163,-370.0687 744.4542,-368.3969 745.6951,-375.286"/>
<text text-anchor="start" x="565" y="-393.8" font-family="Courier New" font-size="14.00" fill="Indigo">[1]</text>
</g>
<!-- RollOutcome_None_PoolRoller -->
<g id="node19" class="node">
<title>RollOutcome_None_PoolRoller</title>
<polygon fill="none" stroke="Indigo" points="981,-372 877,-372 877,-336 981,-336 981,-372"/>
<text text-anchor="start" x="885" y="-357.8" font-family="Helvetica,sans-Serif" font-weight="bold" font-size="14.00" fill="Indigo">RollOutcome</text>
<text text-anchor="start" x="899.5" y="-343.8" font-family="Courier New" font-size="14.00" fill="Indigo">value=1</text>
</g>
<!-- Roll_PoolRoller&#45;&gt;RollOutcome_None_PoolRoller -->
<g id="edge30" class="edge">
<title>Roll_PoolRoller&#45;&gt;RollOutcome_None_PoolRoller</title>
<path fill="none" stroke="Indigo" d="M546.0537,-428.3796C559.7232,-421.7759 576.4527,-413.3442 591,-405 601.5862,-398.9279 602.4322,-393.889 614,-390 718.2339,-354.957 754.5725,-390.0284 866.9149,-371.8928"/>
<polygon fill="Indigo" stroke="Indigo" points="867.6735,-375.3138 876.9351,-370.1684 866.4863,-368.4152 867.6735,-375.3138"/>
<text text-anchor="start" x="614" y="-393.8" font-family="Courier New" font-size="14.00" fill="Indigo">[2]</text>
</g>
<!-- RollOutcome_5_PoolRoller -->
<g id="node20" class="node">
<title>RollOutcome_5_PoolRoller</title>
<polygon fill="none" stroke="Indigo" points="1103,-372 999,-372 999,-336 1103,-336 1103,-372"/>
<text text-anchor="start" x="1007" y="-357.8" font-family="Helvetica,sans-Serif" font-weight="bold" font-size="14.00" fill="Indigo">RollOutcome</text>
<text text-anchor="start" x="1021.5" y="-343.8" font-family="Courier New" font-size="14.00" fill="Indigo">value=5</text>
</g>
<!-- Roll_PoolRoller&#45;&gt;RollOutcome_5_PoolRoller -->
<g id="edge31" class="edge">
<title>Roll_PoolRoller&#45;&gt;RollOutcome_5_PoolRoller</title>
<path fill="none" stroke="Indigo" d="M546.2283,-435.9101C566.7481,-432.1436 595.5981,-426.9953 621,-423 781.3541,-397.7787 826.4034,-406.498 989.0283,-372.0456"/>
<polygon fill="Indigo" stroke="Indigo" points="989.843,-375.4506 998.8888,-369.9347 988.3776,-368.6057 989.843,-375.4506"/>
<text text-anchor="start" x="890" y="-393.8" font-family="Courier New" font-size="14.00" fill="Indigo">[3]</text>
</g>
<!-- Roll_RepeatRoller&#45;&gt;RepeatRoller -->
<g id="edge32" class="edge">
<title>Roll_RepeatRoller&#45;&gt;RepeatRoller</title>
<path fill="none" stroke="MediumBlue" stroke-dasharray="5,2" d="M378.8705,-274.6172C330.8866,-263.2421 227.7148,-238.3997 130.2562,-212.0147"/>
<polygon fill="MediumBlue" stroke="MediumBlue" points="131.1093,-208.6196 120.5414,-209.3741 129.2733,-215.3746 131.1093,-208.6196"/>
<text text-anchor="start" x="250" y="-233.8" font-family="Courier New" font-size="14.00" fill="MediumBlue">r</text>
</g>
<!-- Roll_6_ValueRoller_d6 -->
<g id="node9" class="node">
<title>Roll_6_ValueRoller_d6</title>
<polygon fill="none" stroke="MediumBlue" stroke-dasharray="5,2" points="318,-139 264,-139 264,-103 318,-103 318,-139"/>
<text text-anchor="start" x="277.5" y="-118.3" font-family="Helvetica,sans-Serif" font-weight="bold" font-size="14.00" fill="MediumBlue">Roll</text>
</g>
<!-- Roll_RepeatRoller&#45;&gt;Roll_6_ValueRoller_d6 -->
<g id="edge7" class="edge">
<title>Roll_RepeatRoller&#45;&gt;Roll_6_ValueRoller_d6</title>
<path fill="none" stroke="MediumBlue" stroke-dasharray="5,2" d="M378.9542,-267.0527C358.4375,-255.114 331.1038,-236.0539 315,-212 302.4804,-193.2998 296.4852,-168.3801 293.6179,-149.3465"/>
<polygon fill="MediumBlue" stroke="MediumBlue" points="297.0567,-148.6483 292.2952,-139.1837 290.1152,-149.5518 297.0567,-148.6483"/>
<text text-anchor="start" x="315" y="-190.3" font-family="Courier New" font-size="14.00" fill="MediumBlue">sources[0]</text>
</g>
<!-- Roll_1_ValueRoller_d6 -->
<g id="node10" class="node">
<title>Roll_1_ValueRoller_d6</title>
<polygon fill="none" stroke="MediumBlue" stroke-dasharray="5,2" points="430,-139 376,-139 376,-103 430,-103 430,-139"/>
<text text-anchor="start" x="389.5" y="-118.3" font-family="Helvetica,sans-Serif" font-weight="bold" font-size="14.00" fill="MediumBlue">Roll</text>
</g>
<!-- Roll_RepeatRoller&#45;&gt;Roll_1_ValueRoller_d6 -->
<g id="edge8" class="edge">
<title>Roll_RepeatRoller&#45;&gt;Roll_1_ValueRoller_d6</title>
<path fill="none" stroke="MediumBlue" stroke-dasharray="5,2" d="M405.6617,-262.957C405.144,-235.3487 404.1508,-182.3746 403.5349,-149.5255"/>
<polygon fill="MediumBlue" stroke="MediumBlue" points="407.0286,-149.1552 403.3417,-139.2226 400.0299,-149.2865 407.0286,-149.1552"/>
<text text-anchor="start" x="404" y="-190.3" font-family="Courier New" font-size="14.00" fill="MediumBlue">sources[1]</text>
</g>
<!-- Roll_None_ValueRoller_d6 -->
<g id="node11" class="node">
<title>Roll_None_ValueRoller_d6</title>
<polygon fill="none" stroke="MediumBlue" stroke-dasharray="5,2" points="551,-139 497,-139 497,-103 551,-103 551,-139"/>
<text text-anchor="start" x="510.5" y="-118.3" font-family="Helvetica,sans-Serif" font-weight="bold" font-size="14.00" fill="MediumBlue">Roll</text>
</g>
<!-- Roll_RepeatRoller&#45;&gt;Roll_None_ValueRoller_d6 -->
<g id="edge9" class="edge">
<title>Roll_RepeatRoller&#45;&gt;Roll_None_ValueRoller_d6</title>
<path fill="none" stroke="MediumBlue" stroke-dasharray="5,2" d="M429.3933,-262.9721C454.3641,-243.6497 490.6805,-215.2885 493,-212 506.3117,-193.1273 514.29,-168.0696 518.8113,-149.0272"/>
<polygon fill="MediumBlue" stroke="MediumBlue" points="522.2552,-149.6622 520.9794,-139.1445 515.4178,-148.1621 522.2552,-149.6622"/>
<text text-anchor="start" x="510" y="-190.3" font-family="Courier New" font-size="14.00" fill="MediumBlue">sources[2]</text>
</g>
<!-- RollOutcome_6_RepeatRoller -->
<g id="node21" class="node">
<title>RollOutcome_6_RepeatRoller</title>
<polygon fill="none" stroke="MediumBlue" stroke-dasharray="5,2" points="737,-212 633,-212 633,-176 737,-176 737,-212"/>
<text text-anchor="start" x="641" y="-197.8" font-family="Helvetica,sans-Serif" font-weight="bold" font-size="14.00" fill="MediumBlue">RollOutcome</text>
<text text-anchor="start" x="655.5" y="-183.8" font-family="Courier New" font-size="14.00" fill="MediumBlue">value=6</text>
</g>
<!-- Roll_RepeatRoller&#45;&gt;RollOutcome_6_RepeatRoller -->
<g id="edge33" class="edge">
<title>Roll_RepeatRoller&#45;&gt;RollOutcome_6_RepeatRoller</title>
<path fill="none" stroke="MediumBlue" stroke-dasharray="5,2" d="M433.1824,-265.9287C444.3643,-259.6097 457.3909,-252.0941 469,-245 479.4136,-238.6365 480.5709,-234.2794 492,-230 546.2131,-209.701 564.3399,-223.8638 621,-212 621.6002,-211.8743 622.203,-211.7461 622.8081,-211.6156"/>
<polygon fill="MediumBlue" stroke="MediumBlue" points="623.7973,-214.9793 632.7524,-209.3174 622.2211,-208.159 623.7973,-214.9793"/>
<text text-anchor="start" x="492" y="-233.8" font-family="Courier New" font-size="14.00" fill="MediumBlue">[0]</text>
</g>
<!-- RollOutcome_1_RepeatRoller -->
<g id="node23" class="node">
<title>RollOutcome_1_RepeatRoller</title>
<polygon fill="none" stroke="MediumBlue" stroke-dasharray="5,2" points="859,-212 755,-212 755,-176 859,-176 859,-212"/>
<text text-anchor="start" x="763" y="-197.8" font-family="Helvetica,sans-Serif" font-weight="bold" font-size="14.00" fill="MediumBlue">RollOutcome</text>
<text text-anchor="start" x="777.5" y="-183.8" font-family="Courier New" font-size="14.00" fill="MediumBlue">value=1</text>
</g>
<!-- Roll_RepeatRoller&#45;&gt;RollOutcome_1_RepeatRoller -->
<g id="edge34" class="edge">
<title>Roll_RepeatRoller&#45;&gt;RollOutcome_1_RepeatRoller</title>
<path fill="none" stroke="MediumBlue" stroke-dasharray="5,2" d="M433.0897,-270.644C440.1834,-268.0436 447.8484,-265.3317 455,-263 482.6861,-253.9732 491.5075,-257.0892 518,-245 529.1027,-239.9336 529.4654,-233.9863 541,-230 624.4904,-201.1465 654.1084,-227.1201 745.0351,-211.8857"/>
<polygon fill="MediumBlue" stroke="MediumBlue" points="745.7005,-215.3223 754.9241,-210.1092 744.4628,-208.4326 745.7005,-215.3223"/>
<text text-anchor="start" x="541" y="-233.8" font-family="Courier New" font-size="14.00" fill="MediumBlue">[1]</text>
</g>
<!-- RollOutcome_None_RepeatRoller -->
<g id="node25" class="node">
<title>RollOutcome_None_RepeatRoller</title>
<polygon fill="none" stroke="MediumBlue" stroke-dasharray="5,2" points="981,-212 877,-212 877,-176 981,-176 981,-212"/>
<text text-anchor="start" x="885" y="-197.8" font-family="Helvetica,sans-Serif" font-weight="bold" font-size="14.00" fill="MediumBlue">RollOutcome</text>
<text text-anchor="start" x="899.5" y="-183.8" font-family="Courier New" font-size="14.00" fill="MediumBlue">value=1</text>
</g>
<!-- Roll_RepeatRoller&#45;&gt;RollOutcome_None_RepeatRoller -->
<g id="edge35" class="edge">
<title>Roll_RepeatRoller&#45;&gt;RollOutcome_None_RepeatRoller</title>
<path fill="none" stroke="MediumBlue" stroke-dasharray="5,2" d="M433.1739,-269.9622C440.1989,-267.4018 447.8102,-264.8796 455,-263 503.7773,-250.2486 519.9703,-263.1668 567,-245 578.3842,-240.6025 578.4204,-233.8538 590,-230 704.3814,-191.9327 744.0029,-231.4568 866.7781,-211.9106"/>
<polygon fill="MediumBlue" stroke="MediumBlue" points="867.6637,-215.3105 876.9389,-210.1899 866.4949,-208.4088 867.6637,-215.3105"/>
<text text-anchor="start" x="590" y="-233.8" font-family="Courier New" font-size="14.00" fill="MediumBlue">[2]</text>
</g>
<!-- Roll_6_ValueRoller_d6&#45;&gt;ValueRoller_d6 -->
<g id="edge36" class="edge">
<title>Roll_6_ValueRoller_d6&#45;&gt;ValueRoller_d6</title>
<path fill="none" stroke="MediumBlue" stroke-dasharray="5,2" d="M269.8655,-102.9735C254.8216,-90.1419 234.4244,-72.7443 217.8796,-58.6326"/>
<polygon fill="MediumBlue" stroke="MediumBlue" points="219.9871,-55.8299 210.1074,-52.0034 215.4444,-61.1558 219.9871,-55.8299"/>
<text text-anchor="start" x="246" y="-73.8" font-family="Courier New" font-size="14.00" fill="MediumBlue">r</text>
</g>
<!-- RollOutcome_6_ValueRoller_d6 -->
<g id="node22" class="node">
<title>RollOutcome_6_ValueRoller_d6</title>
<polygon fill="none" stroke="MediumBlue" stroke-dasharray="5,2" points="737,-52 633,-52 633,-16 737,-16 737,-52"/>
<text text-anchor="start" x="641" y="-37.8" font-family="Helvetica,sans-Serif" font-weight="bold" font-size="14.00" fill="MediumBlue">RollOutcome</text>
<text text-anchor="start" x="655.5" y="-23.8" font-family="Courier New" font-size="14.00" fill="MediumBlue">value=6</text>
</g>
<!-- Roll_6_ValueRoller_d6&#45;&gt;RollOutcome_6_ValueRoller_d6 -->
<g id="edge37" class="edge">
<title>Roll_6_ValueRoller_d6&#45;&gt;RollOutcome_6_ValueRoller_d6</title>
<path fill="none" stroke="MediumBlue" stroke-dasharray="5,2" d="M312.0699,-102.7973C326.5325,-91.3763 346.7138,-77.4483 367,-70 412.4855,-53.2995 543.6066,-42.6446 622.5577,-37.5497"/>
<polygon fill="MediumBlue" stroke="MediumBlue" points="623.1052,-41.0222 632.8639,-36.897 622.6627,-34.0361 623.1052,-41.0222"/>
<text text-anchor="start" x="367" y="-73.8" font-family="Courier New" font-size="14.00" fill="MediumBlue">[0]</text>
</g>
<!-- Roll_1_ValueRoller_d6&#45;&gt;ValueRoller_d6 -->
<g id="edge38" class="edge">
<title>Roll_1_ValueRoller_d6&#45;&gt;ValueRoller_d6</title>
<path fill="none" stroke="MediumBlue" stroke-dasharray="5,2" d="M375.8968,-109.9814C342.5416,-96.4211 285.1205,-73.077 242.7045,-55.8332"/>
<polygon fill="MediumBlue" stroke="MediumBlue" points="243.937,-52.5561 233.3551,-52.0322 241.3007,-59.0407 243.937,-52.5561"/>
<text text-anchor="start" x="308" y="-73.8" font-family="Courier New" font-size="14.00" fill="MediumBlue">r</text>
</g>
<!-- RollOutcome_1_ValueRoller_d6 -->
<g id="node24" class="node">
<title>RollOutcome_1_ValueRoller_d6</title>
<polygon fill="none" stroke="MediumBlue" stroke-dasharray="5,2" points="859,-52 755,-52 755,-16 859,-16 859,-52"/>
<text text-anchor="start" x="763" y="-37.8" font-family="Helvetica,sans-Serif" font-weight="bold" font-size="14.00" fill="MediumBlue">RollOutcome</text>
<text text-anchor="start" x="777.5" y="-23.8" font-family="Courier New" font-size="14.00" fill="MediumBlue">value=1</text>
</g>
<!-- Roll_1_ValueRoller_d6&#45;&gt;RollOutcome_1_ValueRoller_d6 -->
<g id="edge39" class="edge">
<title>Roll_1_ValueRoller_d6&#45;&gt;RollOutcome_1_ValueRoller_d6</title>
<path fill="none" stroke="MediumBlue" stroke-dasharray="5,2" d="M430.1469,-108.4054C457.32,-96.3997 500.6351,-78.8757 540,-70 626.5894,-50.4766 653.8439,-67.817 745.0009,-51.9258"/>
<polygon fill="MediumBlue" stroke="MediumBlue" points="745.7173,-55.3529 754.9244,-50.1107 744.4578,-48.4671 745.7173,-55.3529"/>
<text text-anchor="start" x="540" y="-73.8" font-family="Courier New" font-size="14.00" fill="MediumBlue">[0]</text>
</g>
<!-- Roll_None_ValueRoller_d6&#45;&gt;ValueRoller_d6 -->
<g id="edge40" class="edge">
<title>Roll_None_ValueRoller_d6&#45;&gt;ValueRoller_d6</title>
<path fill="none" stroke="MediumBlue" stroke-dasharray="5,2" d="M496.9346,-109.3504C465.766,-96.0743 416.3711,-75.4994 397,-70 348.3088,-56.1766 291.6148,-46.7905 249.725,-41.0772"/>
<polygon fill="MediumBlue" stroke="MediumBlue" points="250.0527,-37.59 239.678,-39.7385 249.1281,-44.5287 250.0527,-37.59"/>
<text text-anchor="start" x="437" y="-73.8" font-family="Courier New" font-size="14.00" fill="MediumBlue">r</text>
</g>
<!-- RollOutcome_None_ValueRoller_d6 -->
<g id="node26" class="node">
<title>RollOutcome_None_ValueRoller_d6</title>
<polygon fill="none" stroke="MediumBlue" stroke-dasharray="5,2" points="981,-52 877,-52 877,-16 981,-16 981,-52"/>
<text text-anchor="start" x="885" y="-37.8" font-family="Helvetica,sans-Serif" font-weight="bold" font-size="14.00" fill="MediumBlue">RollOutcome</text>
<text text-anchor="start" x="899.5" y="-23.8" font-family="Courier New" font-size="14.00" fill="MediumBlue">value=1</text>
</g>
<!-- Roll_None_ValueRoller_d6&#45;&gt;RollOutcome_None_ValueRoller_d6 -->
<g id="edge41" class="edge">
<title>Roll_None_ValueRoller_d6&#45;&gt;RollOutcome_None_ValueRoller_d6</title>
<path fill="none" stroke="MediumBlue" stroke-dasharray="5,2" d="M551.0178,-113.0616C570.389,-107.5411 597.1645,-100.2581 621,-95 726.731,-71.6756 757.7518,-77.0289 867.0971,-52.0732"/>
<polygon fill="MediumBlue" stroke="MediumBlue" points="867.9085,-55.478 876.8613,-49.8124 866.3295,-48.6584 867.9085,-55.478"/>
<text text-anchor="start" x="769" y="-73.8" font-family="Courier New" font-size="14.00" fill="MediumBlue">[0]</text>
</g>
<!-- Roll_ValueRoller_d8&#45;&gt;ValueRoller_d8 -->
<g id="edge42" class="edge">
<title>Roll_ValueRoller_d8&#45;&gt;ValueRoller_d8</title>
<path fill="none" stroke="MediumVioletRed" stroke-dasharray="5,2" d="M463.9357,-270.5652C456.8416,-267.9658 449.1701,-265.2742 442,-263 358.6581,-236.5657 336.2597,-235.344 252,-212 251.1127,-211.7542 250.2186,-211.5059 249.3189,-211.2556"/>
<polygon fill="MediumVioletRed" stroke="MediumVioletRed" points="250.1008,-207.84 239.5274,-208.5136 248.2131,-214.5807 250.1008,-207.84"/>
<text text-anchor="start" x="380" y="-233.8" font-family="Courier New" font-size="14.00" fill="MediumVioletRed">r</text>
</g>
<!-- RollOutcome_5_ValueRoller_d8 -->
<g id="node27" class="node">
<title>RollOutcome_5_ValueRoller_d8</title>
<polygon fill="none" stroke="MediumVioletRed" stroke-dasharray="5,2" points="1103,-212 999,-212 999,-176 1103,-176 1103,-212"/>
<text text-anchor="start" x="1007" y="-197.8" font-family="Helvetica,sans-Serif" font-weight="bold" font-size="14.00" fill="MediumVioletRed">RollOutcome</text>
<text text-anchor="start" x="1021.5" y="-183.8" font-family="Courier New" font-size="14.00" fill="MediumVioletRed">value=5</text>
</g>
<!-- Roll_ValueRoller_d8&#45;&gt;RollOutcome_5_ValueRoller_d8 -->
<g id="edge43" class="edge">
<title>Roll_ValueRoller_d8&#45;&gt;RollOutcome_5_ValueRoller_d8</title>
<path fill="none" stroke="MediumVioletRed" stroke-dasharray="5,2" d="M518.1393,-277.2403C544.4384,-273.5974 585.4525,-267.9175 621,-263 781.7941,-240.7563 826.4206,-246.6143 989.0288,-212.049"/>
<polygon fill="MediumVioletRed" stroke="MediumVioletRed" points="989.8449,-215.4537 998.8888,-209.9347 988.3772,-208.6093 989.8449,-215.4537"/>
<text text-anchor="start" x="890" y="-233.8" font-family="Courier New" font-size="14.00" fill="MediumVioletRed">[0]</text>
</g>
<!-- RollOutcome_1_SelectionRoller&#45;&gt;RollOutcome_1_PoolRoller -->
<g id="edge12" class="edge">
<title>RollOutcome_1_SelectionRoller&#45;&gt;RollOutcome_1_PoolRoller</title>
<path fill="none" stroke="Indigo" d="M799.9327,-495.987C796.1603,-485.3993 791.9103,-471.6493 790,-459 786.0425,-432.7948 791.865,-402.9717 797.7457,-381.823"/>
<polygon fill="Indigo" stroke="Indigo" points="801.1144,-382.7737 800.5948,-372.1916 794.4019,-380.7881 801.1144,-382.7737"/>
<text text-anchor="start" x="790" y="-437.3" font-family="Courier New" font-size="14.00" fill="Indigo">sources[0]</text>
</g>
<!-- RollOutcome_5_SelectionRoller&#45;&gt;RollOutcome_5_PoolRoller -->
<g id="edge14" class="edge">
<title>RollOutcome_5_SelectionRoller&#45;&gt;RollOutcome_5_PoolRoller</title>
<path fill="none" stroke="Indigo" d="M1051,-495.957C1051,-468.3487 1051,-415.3746 1051,-382.5255"/>
<polygon fill="Indigo" stroke="Indigo" points="1054.5001,-382.2225 1051,-372.2226 1047.5001,-382.2226 1054.5001,-382.2225"/>
<text text-anchor="start" x="1051" y="-437.3" font-family="Courier New" font-size="14.00" fill="Indigo">sources[0]</text>
</g>
<!-- RollOutcome_6_SelectionRoller&#45;&gt;RollOutcome_6_PoolRoller -->
<g id="edge11" class="edge">
<title>RollOutcome_6_SelectionRoller&#45;&gt;RollOutcome_6_PoolRoller</title>
<path fill="none" stroke="Indigo" d="M678.3468,-495.9512C674.7957,-485.3516 670.7957,-471.6016 669,-459 666.7428,-443.16 662.4906,-437.616 669,-423 673.8653,-412.0757 684.1347,-415.9243 689,-405 691.7123,-398.91 689.3687,-396.6565 689,-390 688.865,-387.563 688.679,-385.0375 688.4606,-382.5063"/>
<polygon fill="Indigo" stroke="Indigo" points="691.9151,-381.879 687.4276,-372.2815 684.9506,-382.5826 691.9151,-381.879"/>
<text text-anchor="start" x="669" y="-437.3" font-family="Courier New" font-size="14.00" fill="Indigo">sources[0]</text>
</g>
<!-- RollOutcome_None_SelectionRoller&#45;&gt;RollOutcome_None_PoolRoller -->
<g id="edge13" class="edge">
<title>RollOutcome_None_SelectionRoller&#45;&gt;RollOutcome_None_PoolRoller</title>
<path fill="none" stroke="Indigo" d="M921.4253,-495.7763C917.4551,-485.2349 913.0095,-471.6004 911,-459 906.8198,-432.7879 912.9836,-402.9657 919.2073,-381.8191"/>
<polygon fill="Indigo" stroke="Indigo" points="922.5746,-382.7777 922.2223,-372.1887 915.8943,-380.6862 922.5746,-382.7777"/>
<text text-anchor="start" x="911" y="-437.3" font-family="Courier New" font-size="14.00" fill="Indigo">sources[0]</text>
</g>
<!-- RollOutcome_6_PoolRoller&#45;&gt;RollOutcome_6_RepeatRoller -->
<g id="edge15" class="edge">
<title>RollOutcome_6_PoolRoller&#45;&gt;RollOutcome_6_RepeatRoller</title>
<path fill="none" stroke="MediumBlue" stroke-dasharray="5,2" d="M678.3468,-335.9512C674.7957,-325.3516 670.7957,-311.6016 669,-299 665.2836,-272.9201 670.698,-243.2482 676.2096,-222.1156"/>
<polygon fill="MediumBlue" stroke="MediumBlue" points="679.6614,-222.7664 678.9679,-212.1942 672.9171,-220.8913 679.6614,-222.7664"/>
<text text-anchor="start" x="669" y="-277.3" font-family="Courier New" font-size="14.00" fill="MediumBlue">sources[0]</text>
</g>
<!-- RollOutcome_1_PoolRoller&#45;&gt;RollOutcome_1_RepeatRoller -->
<g id="edge17" class="edge">
<title>RollOutcome_1_PoolRoller&#45;&gt;RollOutcome_1_RepeatRoller</title>
<path fill="none" stroke="MediumBlue" stroke-dasharray="5,2" d="M799.9327,-335.987C796.1603,-325.3993 791.9103,-311.6493 790,-299 786.0425,-272.7948 791.865,-242.9717 797.7457,-221.823"/>
<polygon fill="MediumBlue" stroke="MediumBlue" points="801.1144,-222.7737 800.5948,-212.1916 794.4019,-220.7881 801.1144,-222.7737"/>
<text text-anchor="start" x="790" y="-277.3" font-family="Courier New" font-size="14.00" fill="MediumBlue">sources[0]</text>
</g>
<!-- RollOutcome_None_PoolRoller&#45;&gt;RollOutcome_None_RepeatRoller -->
<g id="edge19" class="edge">
<title>RollOutcome_None_PoolRoller&#45;&gt;RollOutcome_None_RepeatRoller</title>
<path fill="none" stroke="MediumBlue" stroke-dasharray="5,2" d="M921.4253,-335.7763C917.4551,-325.2349 913.0095,-311.6004 911,-299 906.8198,-272.7879 912.9836,-242.9657 919.2073,-221.8191"/>
<polygon fill="MediumBlue" stroke="MediumBlue" points="922.5746,-222.7777 922.2223,-212.1887 915.8943,-220.6862 922.5746,-222.7777"/>
<text text-anchor="start" x="911" y="-277.3" font-family="Courier New" font-size="14.00" fill="MediumBlue">sources[0]</text>
</g>
<!-- RollOutcome_5_PoolRoller&#45;&gt;RollOutcome_5_ValueRoller_d8 -->
<g id="edge21" class="edge">
<title>RollOutcome_5_PoolRoller&#45;&gt;RollOutcome_5_ValueRoller_d8</title>
<path fill="none" stroke="MediumVioletRed" stroke-dasharray="5,2" d="M1051,-335.957C1051,-308.3487 1051,-255.3746 1051,-222.5255"/>
<polygon fill="MediumVioletRed" stroke="MediumVioletRed" points="1054.5001,-222.2225 1051,-212.2226 1047.5001,-222.2226 1054.5001,-222.2225"/>
<text text-anchor="start" x="1051" y="-277.3" font-family="Courier New" font-size="14.00" fill="MediumVioletRed">sources[0]</text>
</g>
<!-- RollOutcome_6_RepeatRoller&#45;&gt;RollOutcome_6_ValueRoller_d6 -->
<g id="edge16" class="edge">
<title>RollOutcome_6_RepeatRoller&#45;&gt;RollOutcome_6_ValueRoller_d6</title>
<path fill="none" stroke="MediumBlue" stroke-dasharray="5,2" d="M685,-175.957C685,-148.3487 685,-95.3746 685,-62.5255"/>
<polygon fill="MediumBlue" stroke="MediumBlue" points="688.5001,-62.2225 685,-52.2226 681.5001,-62.2226 688.5001,-62.2225"/>
<text text-anchor="start" x="685" y="-117.3" font-family="Courier New" font-size="14.00" fill="MediumBlue">sources[0]</text>
</g>
<!-- RollOutcome_1_RepeatRoller&#45;&gt;RollOutcome_1_ValueRoller_d6 -->
<g id="edge18" class="edge">
<title>RollOutcome_1_RepeatRoller&#45;&gt;RollOutcome_1_ValueRoller_d6</title>
<path fill="none" stroke="MediumBlue" stroke-dasharray="5,2" d="M807,-175.957C807,-148.3487 807,-95.3746 807,-62.5255"/>
<polygon fill="MediumBlue" stroke="MediumBlue" points="810.5001,-62.2225 807,-52.2226 803.5001,-62.2226 810.5001,-62.2225"/>
<text text-anchor="start" x="807" y="-117.3" font-family="Courier New" font-size="14.00" fill="MediumBlue">sources[0]</text>
</g>
<!-- RollOutcome_None_RepeatRoller&#45;&gt;RollOutcome_None_ValueRoller_d6 -->
<g id="edge20" class="edge">
<title>RollOutcome_None_RepeatRoller&#45;&gt;RollOutcome_None_ValueRoller_d6</title>
<path fill="none" stroke="MediumBlue" stroke-dasharray="5,2" d="M929,-175.957C929,-148.3487 929,-95.3746 929,-62.5255"/>
<polygon fill="MediumBlue" stroke="MediumBlue" points="932.5001,-62.2225 929,-52.2226 925.5001,-62.2226 932.5001,-62.2225"/>
<text text-anchor="start" x="929" y="-117.3" font-family="Courier New" font-size="14.00" fill="MediumBlue">sources[0]</text>
</g>
</g>
</svg>
