<?xml version="1.0" encoding="UTF-8" standalone="no"?>
<!DOCTYPE svg PUBLIC "-//W3C//DTD SVG 1.1//EN"
 "http://www.w3.org/Graphics/SVG/1.1/DTD/svg11.dtd">
<!-- Generated by graphviz version 2.49.3 (20211023.0002)
 -->
<!-- Title: classes_dyce_r_light Pages: 1 -->
<svg width="941pt" height="264pt"
 viewBox="0.00 0.00 940.50 264.00" xmlns="http://www.w3.org/2000/svg" xmlns:xlink="http://www.w3.org/1999/xlink">
<g id="graph0" class="graph" transform="scale(1 1) rotate(0) translate(4 260)">
<title>classes_dyce_r_light</title>
<!-- dyce.r.BasicOpRoller -->
<g id="node1" class="node">
<title>dyce.r.BasicOpRoller</title>
<polygon fill="none" stroke="DarkSlateGray" points="731.5,-146.5 731.5,-182.5 837.5,-182.5 837.5,-146.5 731.5,-146.5"/>
<text text-anchor="middle" x="784.5" y="-160.8" font-family="Helvetica,sans-Serif" font-size="14.00" fill="DarkSlateGray">BasicOpRoller</text>
</g>
<!-- dyce.r.R -->
<g id="node2" class="node">
<title>dyce.r.R</title>
<polygon fill="none" stroke="DarkSlateGray" points="401.5,-219.5 401.5,-255.5 455.5,-255.5 455.5,-219.5 401.5,-219.5"/>
<text text-anchor="middle" x="428.5" y="-233.8" font-family="Helvetica,sans-Serif" font-size="14.00" fill="DarkSlateGray">R</text>
</g>
<!-- dyce.r.BasicOpRoller&#45;&gt;dyce.r.R -->
<g id="edge1" class="edge">
<title>dyce.r.BasicOpRoller&#45;&gt;dyce.r.R</title>
<path fill="none" stroke="DarkSlateGray" d="M731.49,-180.82C728.45,-181.59 725.44,-182.32 722.5,-183 631.1,-204.17 522.12,-222.13 466.01,-230.85"/>
<polygon fill="none" stroke="DarkSlateGray" points="465.18,-227.43 455.83,-232.42 466.25,-234.35 465.18,-227.43"/>
</g>
<!-- dyce.r.BinarySumOpRoller -->
<g id="node3" class="node">
<title>dyce.r.BinarySumOpRoller</title>
<polygon fill="none" stroke="DarkSlateGray" points="636.5,-0.5 636.5,-36.5 776.5,-36.5 776.5,-0.5 636.5,-0.5"/>
<text text-anchor="middle" x="706.5" y="-14.8" font-family="Helvetica,sans-Serif" font-size="14.00" fill="DarkSlateGray">BinarySumOpRoller</text>
</g>
<!-- dyce.r.NarySumOpRoller -->
<g id="node4" class="node">
<title>dyce.r.NarySumOpRoller</title>
<polygon fill="none" stroke="DarkSlateGray" points="719.5,-73.5 719.5,-109.5 849.5,-109.5 849.5,-73.5 719.5,-73.5"/>
<text text-anchor="middle" x="784.5" y="-87.8" font-family="Helvetica,sans-Serif" font-size="14.00" fill="DarkSlateGray">NarySumOpRoller</text>
</g>
<!-- dyce.r.BinarySumOpRoller&#45;&gt;dyce.r.NarySumOpRoller -->
<g id="edge2" class="edge">
<title>dyce.r.BinarySumOpRoller&#45;&gt;dyce.r.NarySumOpRoller</title>
<path fill="none" stroke="DarkSlateGray" d="M725.38,-36.69C735.25,-45.67 747.48,-56.81 758.26,-66.61"/>
<polygon fill="none" stroke="DarkSlateGray" points="756.04,-69.33 765.79,-73.47 760.75,-64.15 756.04,-69.33"/>
</g>
<!-- dyce.r.NarySumOpRoller&#45;&gt;dyce.r.BasicOpRoller -->
<g id="edge3" class="edge">
<title>dyce.r.NarySumOpRoller&#45;&gt;dyce.r.BasicOpRoller</title>
<path fill="none" stroke="DarkSlateGray" d="M784.5,-109.69C784.5,-117.71 784.5,-127.45 784.5,-136.43"/>
<polygon fill="none" stroke="DarkSlateGray" points="781,-136.47 784.5,-146.47 788,-136.47 781,-136.47"/>
</g>
<!-- dyce.r.BranchOperationRoller -->
<g id="node5" class="node">
<title>dyce.r.BranchOperationRoller</title>
<polygon fill="none" stroke="DarkSlateGray" points="0,-146.5 0,-182.5 159,-182.5 159,-146.5 0,-146.5"/>
<text text-anchor="middle" x="79.5" y="-160.8" font-family="Helvetica,sans-Serif" font-size="14.00" fill="DarkSlateGray">BranchOperationRoller</text>
</g>
<!-- dyce.r.BranchOperationRoller&#45;&gt;dyce.r.R -->
<g id="edge4" class="edge">
<title>dyce.r.BranchOperationRoller&#45;&gt;dyce.r.R</title>
<path fill="none" stroke="DarkSlateGray" d="M159.13,-181.7C231.89,-196.5 336.28,-217.74 391.3,-228.93"/>
<polygon fill="none" stroke="DarkSlateGray" points="390.8,-232.4 401.3,-230.97 392.2,-225.54 390.8,-232.4"/>
</g>
<!-- dyce.r.FilterRoller -->
<g id="node6" class="node">
<title>dyce.r.FilterRoller</title>
<polygon fill="none" stroke="DarkSlateGray" points="177.5,-146.5 177.5,-182.5 261.5,-182.5 261.5,-146.5 177.5,-146.5"/>
<text text-anchor="middle" x="219.5" y="-160.8" font-family="Helvetica,sans-Serif" font-size="14.00" fill="DarkSlateGray">FilterRoller</text>
</g>
<!-- dyce.r.FilterRoller&#45;&gt;dyce.r.R -->
<g id="edge5" class="edge">
<title>dyce.r.FilterRoller&#45;&gt;dyce.r.R</title>
<path fill="none" stroke="DarkSlateGray" d="M261.54,-179.78C299.68,-192.74 355.34,-211.65 391.74,-224.01"/>
<polygon fill="none" stroke="DarkSlateGray" points="390.87,-227.41 401.46,-227.32 393.12,-220.78 390.87,-227.41"/>
</g>
<!-- dyce.r.PoolRoller -->
<g id="node7" class="node">
<title>dyce.r.PoolRoller</title>
<polygon fill="none" stroke="DarkSlateGray" points="280,-146.5 280,-182.5 361,-182.5 361,-146.5 280,-146.5"/>
<text text-anchor="middle" x="320.5" y="-160.8" font-family="Helvetica,sans-Serif" font-size="14.00" fill="DarkSlateGray">PoolRoller</text>
</g>
<!-- dyce.r.PoolRoller&#45;&gt;dyce.r.R -->
<g id="edge6" class="edge">
<title>dyce.r.PoolRoller&#45;&gt;dyce.r.R</title>
<path fill="none" stroke="DarkSlateGray" d="M346.37,-182.51C360.56,-191.83 378.34,-203.53 393.73,-213.64"/>
<polygon fill="none" stroke="DarkSlateGray" points="392.19,-216.82 402.47,-219.39 396.03,-210.97 392.19,-216.82"/>
</g>
<!-- dyce.r.RepeatRoller -->
<g id="node8" class="node">
<title>dyce.r.RepeatRoller</title>
<polygon fill="none" stroke="DarkSlateGray" points="379.5,-146.5 379.5,-182.5 477.5,-182.5 477.5,-146.5 379.5,-146.5"/>
<text text-anchor="middle" x="428.5" y="-160.8" font-family="Helvetica,sans-Serif" font-size="14.00" fill="DarkSlateGray">RepeatRoller</text>
</g>
<!-- dyce.r.RepeatRoller&#45;&gt;dyce.r.R -->
<g id="edge7" class="edge">
<title>dyce.r.RepeatRoller&#45;&gt;dyce.r.R</title>
<path fill="none" stroke="DarkSlateGray" d="M428.5,-182.69C428.5,-190.71 428.5,-200.45 428.5,-209.43"/>
<polygon fill="none" stroke="DarkSlateGray" points="425,-209.47 428.5,-219.47 432,-209.47 425,-209.47"/>
</g>
<!-- dyce.r.SelectionRoller -->
<g id="node9" class="node">
<title>dyce.r.SelectionRoller</title>
<polygon fill="none" stroke="DarkSlateGray" points="496,-146.5 496,-182.5 607,-182.5 607,-146.5 496,-146.5"/>
<text text-anchor="middle" x="551.5" y="-160.8" font-family="Helvetica,sans-Serif" font-size="14.00" fill="DarkSlateGray">SelectionRoller</text>
</g>
<!-- dyce.r.SelectionRoller&#45;&gt;dyce.r.R -->
<g id="edge8" class="edge">
<title>dyce.r.SelectionRoller&#45;&gt;dyce.r.R</title>
<path fill="none" stroke="DarkSlateGray" d="M522.04,-182.51C504.69,-192.52 482.63,-205.25 464.29,-215.84"/>
<polygon fill="none" stroke="DarkSlateGray" points="462.53,-212.82 455.62,-220.85 466.03,-218.88 462.53,-212.82"/>
</g>
<!-- dyce.r.UnarySumOpRoller -->
<g id="node10" class="node">
<title>dyce.r.UnarySumOpRoller</title>
<polygon fill="none" stroke="DarkSlateGray" points="794.5,-0.5 794.5,-36.5 932.5,-36.5 932.5,-0.5 794.5,-0.5"/>
<text text-anchor="middle" x="863.5" y="-14.8" font-family="Helvetica,sans-Serif" font-size="14.00" fill="DarkSlateGray">UnarySumOpRoller</text>
</g>
<!-- dyce.r.UnarySumOpRoller&#45;&gt;dyce.r.NarySumOpRoller -->
<g id="edge9" class="edge">
<title>dyce.r.UnarySumOpRoller&#45;&gt;dyce.r.NarySumOpRoller</title>
<path fill="none" stroke="DarkSlateGray" d="M844.38,-36.69C834.38,-45.67 821.99,-56.81 811.08,-66.61"/>
<polygon fill="none" stroke="DarkSlateGray" points="808.55,-64.18 803.45,-73.47 813.22,-69.39 808.55,-64.18"/>
</g>
<!-- dyce.r.ValueRoller -->
<g id="node11" class="node">
<title>dyce.r.ValueRoller</title>
<polygon fill="none" stroke="DarkSlateGray" points="625.5,-146.5 625.5,-182.5 713.5,-182.5 713.5,-146.5 625.5,-146.5"/>
<text text-anchor="middle" x="669.5" y="-160.8" font-family="Helvetica,sans-Serif" font-size="14.00" fill="DarkSlateGray">ValueRoller</text>
</g>
<!-- dyce.r.ValueRoller&#45;&gt;dyce.r.R -->
<g id="edge10" class="edge">
<title>dyce.r.ValueRoller&#45;&gt;dyce.r.R</title>
<path fill="none" stroke="DarkSlateGray" d="M625.3,-180.25C622.32,-181.19 619.37,-182.12 616.5,-183 564.46,-198.99 503.82,-215.95 465.79,-226.38"/>
<polygon fill="none" stroke="DarkSlateGray" points="464.41,-223.13 455.69,-229.15 466.26,-229.88 464.41,-223.13"/>
</g>
</g>
</svg>
