<?xml version="1.0" encoding="UTF-8" standalone="no"?>
<!DOCTYPE svg PUBLIC "-//W3C//DTD SVG 1.1//EN"
 "http://www.w3.org/Graphics/SVG/1.1/DTD/svg11.dtd">
<!-- Generated by graphviz version 2.43.0 (0)
 -->
<!-- Title: %3 Pages: 1 -->
<svg width="891pt" height="294pt"
 viewBox="0.00 0.00 891.00 294.00" xmlns="http://www.w3.org/2000/svg" xmlns:xlink="http://www.w3.org/1999/xlink">
<g id="graph0" class="graph" transform="scale(1 1) rotate(0) translate(4 290)">
<title>%3</title>
<g id="clust1" class="cluster">
<title>cluster_rolls</title>
<polygon fill="transparent" stroke="Azure" stroke-dasharray="1,5" points="406,-95 406,-278 629,-278 629,-95 406,-95"/>
<text text-anchor="start" x="490" y="-263.8" font-family="Helvetica,sans-Serif" font-style="italic" font-size="14.00" fill="Azure">Roll Tree</text>
</g>
<g id="clust2" class="cluster">
<title>cluster_rollers</title>
<polygon fill="transparent" stroke="Azure" stroke-dasharray="1,5" points="8,-8 8,-170 398,-170 398,-8 8,-8"/>
<text text-anchor="start" x="169.5" y="-155.8" font-family="Helvetica,sans-Serif" font-style="italic" font-size="14.00" fill="Azure">Roller Tree</text>
</g>
<g id="clust3" class="cluster">
<title>cluster_roll_outcomes</title>
<polygon fill="transparent" stroke="Azure" stroke-dasharray="1,5" points="637,-8 637,-170 875,-170 875,-8 637,-8"/>
<text text-anchor="start" x="710.5" y="-155.8" font-family="Helvetica,sans-Serif" font-style="italic" font-size="14.00" fill="Azure">Roll Outcomes</text>
</g>
<!-- Roll&#45;1 -->
<g id="node1" class="node">
<title>Roll&#45;1</title>
<polygon fill="none" stroke="Azure" points="516,-247 462,-247 462,-211 516,-211 516,-247"/>
<text text-anchor="start" x="476" y="-226.3" font-family="Helvetica,sans-Serif" font-weight="bold" font-size="14.00" fill="Azure">Roll</text>
</g>
<!-- BinarySumOpRoller&#45;2 -->
<g id="node2" class="node">
<title>BinarySumOpRoller&#45;2</title>
<polygon fill="none" stroke="Azure" points="380,-139 234,-139 234,-103 380,-103 380,-139"/>
<text text-anchor="start" x="242" y="-124.8" font-family="Helvetica,sans-Serif" font-weight="bold" font-size="14.00" fill="Azure">BinarySumOpRoller</text>
<text text-anchor="start" x="265.5" y="-110.8" font-family="Courier New" font-size="14.00" fill="Azure">bin_op=add</text>
</g>
<!-- Roll&#45;1&#45;&gt;BinarySumOpRoller&#45;2 -->
<g id="edge1" class="edge">
<title>Roll&#45;1&#45;&gt;BinarySumOpRoller&#45;2</title>
<path fill="none" stroke="Azure" d="M461.88,-216.02C447.94,-209.61 430.82,-201.33 416,-193 389.53,-178.12 360.79,-159.28 339.47,-144.75"/>
<polygon fill="Azure" stroke="Azure" points="341.33,-141.78 331.11,-139.01 337.37,-147.55 341.33,-141.78"/>
<text text-anchor="middle" x="420.5" y="-181.8" font-family="Courier New" font-size="14.00" fill="Azure">r</text>
</g>
<!-- RollOutcome&#45;3 -->
<g id="node3" class="node">
<title>RollOutcome&#45;3</title>
<polygon fill="none" stroke="Azure" points="747,-139 645,-139 645,-103 747,-103 747,-139"/>
<text text-anchor="start" x="653" y="-124.8" font-family="Helvetica,sans-Serif" font-weight="bold" font-size="14.00" fill="Azure">RollOutcome</text>
<text text-anchor="start" x="662.5" y="-110.8" font-family="Courier New" font-size="14.00" fill="Azure">value=11</text>
</g>
<!-- Roll&#45;1&#45;&gt;RollOutcome&#45;3 -->
<g id="edge2" class="edge">
<title>Roll&#45;1&#45;&gt;RollOutcome&#45;3</title>
<path fill="none" stroke="Azure" d="M516.39,-223.27C541.52,-218.18 579.23,-208.66 609,-193 632.28,-180.76 655.19,-161.7 671.65,-146.41"/>
<polygon fill="Azure" stroke="Azure" points="674.34,-148.67 679.18,-139.25 669.52,-143.6 674.34,-148.67"/>
<text text-anchor="middle" x="644.5" y="-181.8" font-family="Courier New" font-size="14.00" fill="Azure">[0]</text>
</g>
<!-- Roll&#45;4 -->
<g id="node4" class="node">
<title>Roll&#45;4</title>
<polygon fill="none" stroke="LightBlue" stroke-dasharray="5,2" points="468,-139 414,-139 414,-103 468,-103 468,-139"/>
<text text-anchor="start" x="428" y="-118.3" font-family="Helvetica,sans-Serif" font-weight="bold" font-size="14.00" fill="LightBlue">Roll</text>
</g>
<!-- Roll&#45;1&#45;&gt;Roll&#45;4 -->
<g id="edge7" class="edge">
<title>Roll&#45;1&#45;&gt;Roll&#45;4</title>
<path fill="none" stroke="LightBlue" stroke-dasharray="5,2" d="M461.98,-218.04C450.93,-212.48 439.28,-204.33 433,-193 425.67,-179.77 427.13,-163.04 430.68,-149.14"/>
<polygon fill="LightBlue" stroke="LightBlue" points="434.15,-149.76 433.69,-139.17 427.45,-147.73 434.15,-149.76"/>
<text text-anchor="middle" x="474.5" y="-181.8" font-family="Courier New" font-size="14.00" fill="LightBlue">sources[0]</text>
</g>
<!-- Roll&#45;7 -->
<g id="node7" class="node">
<title>Roll&#45;7</title>
<polygon fill="none" stroke="LightPink" stroke-dasharray="5,2" points="565,-139 511,-139 511,-103 565,-103 565,-139"/>
<text text-anchor="start" x="525" y="-118.3" font-family="Helvetica,sans-Serif" font-weight="bold" font-size="14.00" fill="LightPink">Roll</text>
</g>
<!-- Roll&#45;1&#45;&gt;Roll&#45;7 -->
<g id="edge8" class="edge">
<title>Roll&#45;1&#45;&gt;Roll&#45;7</title>
<path fill="none" stroke="LightPink" stroke-dasharray="5,2" d="M504.32,-210.67C508.54,-205.28 512.82,-199.13 516,-193 523.2,-179.13 528.51,-162.49 532.11,-148.8"/>
<polygon fill="LightPink" stroke="LightPink" points="535.53,-149.56 534.53,-139.01 528.73,-147.88 535.53,-149.56"/>
<text text-anchor="middle" x="563.5" y="-181.8" font-family="Courier New" font-size="14.00" fill="LightPink">sources[1]</text>
</g>
<!-- ValueRoller&#45;5 -->
<g id="node5" class="node">
<title>ValueRoller&#45;5</title>
<polygon fill="none" stroke="LightBlue" stroke-dasharray="5,2" points="280,-52 16,-52 16,-16 280,-16 280,-52"/>
<text text-anchor="start" x="110.5" y="-37.8" font-family="Helvetica,sans-Serif" font-weight="bold" font-size="14.00" fill="LightBlue">ValueRoller</text>
<text text-anchor="start" x="24" y="-23.8" font-family="Courier New" font-size="14.00" fill="LightBlue">value=H({1: 1, 2: 1, 3: 1, ...</text>
</g>
<!-- BinarySumOpRoller&#45;2&#45;&gt;ValueRoller&#45;5 -->
<g id="edge9" class="edge">
<title>BinarySumOpRoller&#45;2&#45;&gt;ValueRoller&#45;5</title>
<path fill="none" stroke="LightBlue" stroke-dasharray="5,2" d="M259.16,-102.99C246.18,-97.78 232.32,-91.65 220,-85 205.64,-77.25 190.67,-67.22 178.13,-58.18"/>
<polygon fill="LightBlue" stroke="LightBlue" points="180,-55.21 169.87,-52.12 175.86,-60.85 180,-55.21"/>
<text text-anchor="middle" x="261.5" y="-73.8" font-family="Courier New" font-size="14.00" fill="LightBlue">sources[0]</text>
</g>
<!-- ValueRoller&#45;8 -->
<g id="node8" class="node">
<title>ValueRoller&#45;8</title>
<polygon fill="none" stroke="LightPink" stroke-dasharray="5,2" points="389.5,-52 298.5,-52 298.5,-16 389.5,-16 389.5,-52"/>
<text text-anchor="start" x="306.5" y="-37.8" font-family="Helvetica,sans-Serif" font-weight="bold" font-size="14.00" fill="LightPink">ValueRoller</text>
<text text-anchor="start" x="315" y="-23.8" font-family="Courier New" font-size="14.00" fill="LightPink">value=4</text>
</g>
<!-- BinarySumOpRoller&#45;2&#45;&gt;ValueRoller&#45;8 -->
<g id="edge10" class="edge">
<title>BinarySumOpRoller&#45;2&#45;&gt;ValueRoller&#45;8</title>
<path fill="none" stroke="LightPink" stroke-dasharray="5,2" d="M305.61,-102.64C305.48,-92.69 306.48,-80.19 311,-70 312.55,-66.51 314.6,-63.16 316.91,-59.99"/>
<polygon fill="LightPink" stroke="LightPink" points="319.77,-62.03 323.53,-52.12 314.41,-57.53 319.77,-62.03"/>
<text text-anchor="middle" x="352.5" y="-73.8" font-family="Courier New" font-size="14.00" fill="LightPink">sources[1]</text>
</g>
<!-- RollOutcome&#45;6 -->
<g id="node6" class="node">
<title>RollOutcome&#45;6</title>
<polygon fill="none" stroke="LightBlue" stroke-dasharray="5,2" points="747,-52 645,-52 645,-16 747,-16 747,-52"/>
<text text-anchor="start" x="653" y="-37.8" font-family="Helvetica,sans-Serif" font-weight="bold" font-size="14.00" fill="LightBlue">RollOutcome</text>
<text text-anchor="start" x="667" y="-23.8" font-family="Courier New" font-size="14.00" fill="LightBlue">value=7</text>
</g>
<!-- RollOutcome&#45;3&#45;&gt;RollOutcome&#45;6 -->
<g id="edge11" class="edge">
<title>RollOutcome&#45;3&#45;&gt;RollOutcome&#45;6</title>
<path fill="none" stroke="LightBlue" stroke-dasharray="5,2" d="M685.07,-102.67C680.36,-93.16 676.45,-81.08 679,-70 679.65,-67.16 680.57,-64.29 681.64,-61.47"/>
<polygon fill="LightBlue" stroke="LightBlue" points="684.88,-62.79 685.72,-52.23 678.48,-59.96 684.88,-62.79"/>
<text text-anchor="middle" x="720.5" y="-73.8" font-family="Courier New" font-size="14.00" fill="LightBlue">sources[0]</text>
</g>
<!-- RollOutcome&#45;9 -->
<g id="node9" class="node">
<title>RollOutcome&#45;9</title>
<polygon fill="none" stroke="LightPink" stroke-dasharray="5,2" points="867,-52 765,-52 765,-16 867,-16 867,-52"/>
<text text-anchor="start" x="773" y="-37.8" font-family="Helvetica,sans-Serif" font-weight="bold" font-size="14.00" fill="LightPink">RollOutcome</text>
<text text-anchor="start" x="787" y="-23.8" font-family="Courier New" font-size="14.00" fill="LightPink">value=4</text>
</g>
<!-- RollOutcome&#45;3&#45;&gt;RollOutcome&#45;9 -->
<g id="edge12" class="edge">
<title>RollOutcome&#45;3&#45;&gt;RollOutcome&#45;9</title>
<path fill="none" stroke="LightPink" stroke-dasharray="5,2" d="M732.28,-102.92C742.23,-97.67 752.8,-91.53 762,-85 772.58,-77.49 783.27,-68.07 792.31,-59.43"/>
<polygon fill="LightPink" stroke="LightPink" points="794.77,-61.92 799.48,-52.43 789.88,-56.91 794.77,-61.92"/>
<text text-anchor="middle" x="820.5" y="-73.8" font-family="Courier New" font-size="14.00" fill="LightPink">sources[1]</text>
</g>
<!-- Roll&#45;4&#45;&gt;ValueRoller&#45;5 -->
<g id="edge3" class="edge">
<title>Roll&#45;4&#45;&gt;ValueRoller&#45;5</title>
<path fill="none" stroke="LightBlue" stroke-dasharray="5,2" d="M429.55,-102.75C421.11,-91.51 408.59,-77.57 394,-70 388.68,-67.24 341.66,-60.28 290.12,-53.29"/>
<polygon fill="LightBlue" stroke="LightBlue" points="290.49,-49.81 280.11,-51.94 289.55,-56.75 290.49,-49.81"/>
<text text-anchor="middle" x="418.5" y="-73.8" font-family="Courier New" font-size="14.00" fill="LightBlue">r</text>
</g>
<!-- Roll&#45;4&#45;&gt;RollOutcome&#45;6 -->
<g id="edge4" class="edge">
<title>Roll&#45;4&#45;&gt;RollOutcome&#45;6</title>
<path fill="none" stroke="LightBlue" stroke-dasharray="5,2" d="M468.26,-103.33C487.01,-92.49 512.8,-78.79 537,-70 568.51,-58.56 604.94,-50.2 634.98,-44.53"/>
<polygon fill="LightBlue" stroke="LightBlue" points="635.7,-47.96 644.91,-42.71 634.44,-41.08 635.7,-47.96"/>
<text text-anchor="middle" x="549.5" y="-73.8" font-family="Courier New" font-size="14.00" fill="LightBlue">[0]</text>
</g>
<!-- Roll&#45;7&#45;&gt;ValueRoller&#45;8 -->
<g id="edge5" class="edge">
<title>Roll&#45;7&#45;&gt;ValueRoller&#45;8</title>
<path fill="none" stroke="LightPink" stroke-dasharray="5,2" d="M510.79,-108.8C494.97,-102.15 474.72,-93.4 457,-85 443.89,-78.79 441.15,-76.13 428,-70 417.91,-65.3 407.02,-60.54 396.52,-56.1"/>
<polygon fill="LightPink" stroke="LightPink" points="397.61,-52.76 387.03,-52.13 394.91,-59.22 397.61,-52.76"/>
<text text-anchor="middle" x="461.5" y="-73.8" font-family="Courier New" font-size="14.00" fill="LightPink">r</text>
</g>
<!-- Roll&#45;7&#45;&gt;RollOutcome&#45;9 -->
<g id="edge6" class="edge">
<title>Roll&#45;7&#45;&gt;RollOutcome&#45;9</title>
<path fill="none" stroke="LightPink" stroke-dasharray="5,2" d="M565.07,-105.44C587.09,-94.18 619.27,-79.03 649,-70 692.26,-56.86 707.1,-61.84 754.73,-52.09"/>
<polygon fill="LightPink" stroke="LightPink" points="755.67,-55.47 764.71,-49.93 754.19,-48.62 755.67,-55.47"/>
<text text-anchor="middle" x="661.5" y="-73.8" font-family="Courier New" font-size="14.00" fill="LightPink">[0]</text>
</g>
</g>
</svg>
