<?xml version="1.0" encoding="UTF-8" standalone="no"?>
<!DOCTYPE svg PUBLIC "-//W3C//DTD SVG 1.1//EN"
 "http://www.w3.org/Graphics/SVG/1.1/DTD/svg11.dtd">
<!-- Generated by graphviz version 2.50.0 (20211204.2007)
 -->
<!-- Pages: 1 -->
<svg width="1032pt" height="489pt"
 viewBox="0.00 0.00 1032.00 489.00" xmlns="http://www.w3.org/2000/svg" xmlns:xlink="http://www.w3.org/1999/xlink">
<g id="graph0" class="graph" transform="scale(1 1) rotate(0) translate(4 485)">
<g id="clust1" class="cluster">
<title>cluster_rolls</title>
<polygon fill="transparent" stroke="Azure" stroke-dasharray="1,5" points="8,-203 8,-473 337,-473 337,-203 8,-203"/>
<text text-anchor="start" x="145" y="-458.8" font-family="Helvetica,sans-Serif" font-style="italic" font-size="14.00" fill="Azure">Roll Tree</text>
</g>
<g id="clust2" class="cluster">
<title>cluster_rollers</title>
<polygon fill="transparent" stroke="Azure" stroke-dasharray="1,5" points="744,-95 744,-365 1016,-365 1016,-95 744,-95"/>
<text text-anchor="start" x="846.5" y="-350.8" font-family="Helvetica,sans-Serif" font-style="italic" font-size="14.00" fill="Azure">Roller Tree</text>
</g>
<g id="clust3" class="cluster">
<title>cluster_roll_outcomes</title>
<polygon fill="transparent" stroke="Azure" stroke-dasharray="1,5" points="51,-8 51,-170 529,-170 529,-8 51,-8"/>
<text text-anchor="start" x="244.5" y="-155.8" font-family="Helvetica,sans-Serif" font-style="italic" font-size="14.00" fill="Azure">Roll Outcomes</text>
</g>
<!-- Roll&#45;1 -->
<g id="node1" class="node">
<title>Roll&#45;1</title>
<polygon fill="none" stroke="Azure" points="329,-442 275,-442 275,-406 329,-406 329,-442"/>
<text text-anchor="start" x="289" y="-421.3" font-family="Helvetica,sans-Serif" font-weight="bold" font-size="14.00" fill="Azure">Roll</text>
</g>
<!-- SelectionRoller&#45;2 -->
<g id="node2" class="node">
<title>SelectionRoller&#45;2</title>
<polygon fill="none" stroke="Azure" points="1008,-334 752,-334 752,-298 1008,-298 1008,-334"/>
<text text-anchor="start" x="830.5" y="-319.8" font-family="Helvetica,sans-Serif" font-weight="bold" font-size="14.00" fill="Azure">SelectionRoller</text>
<text text-anchor="start" x="760" y="-305.8" font-family="Courier New" font-size="14.00" fill="Azure">which=(slice(1, None, None),)</text>
</g>
<!-- Roll&#45;1&#45;&gt;SelectionRoller&#45;2 -->
<g id="edge1" class="edge">
<title>Roll&#45;1&#45;&gt;SelectionRoller&#45;2</title>
<path fill="none" stroke="Azure" d="M329.07,-421.98C410.07,-418.75 649.61,-407.74 725,-388 766.78,-377.06 811.28,-355.53 841.84,-339.03"/>
<polygon fill="Azure" stroke="Azure" points="843.77,-341.97 850.85,-334.09 840.4,-335.83 843.77,-341.97"/>
<text text-anchor="middle" x="773.5" y="-376.8" font-family="Courier New" font-size="14.00" fill="Azure">r</text>
</g>
<!-- RollOutcome&#45;3 -->
<g id="node3" class="node">
<title>RollOutcome&#45;3</title>
<polygon fill="none" stroke="LightBlue" stroke-dasharray="5,2" points="161,-139 59,-139 59,-103 161,-103 161,-139"/>
<text text-anchor="start" x="67" y="-124.8" font-family="Helvetica,sans-Serif" font-weight="bold" font-size="14.00" fill="LightBlue">RollOutcome</text>
<text text-anchor="start" x="81" y="-110.8" font-family="Courier New" font-size="14.00" fill="LightBlue">value=1</text>
</g>
<!-- Roll&#45;1&#45;&gt;RollOutcome&#45;3 -->
<g id="edge2" class="edge">
<title>Roll&#45;1&#45;&gt;RollOutcome&#45;3</title>
<path fill="none" stroke="LightBlue" stroke-dasharray="5,2" d="M329.13,-419.9C349.1,-416.05 374.95,-407.39 388,-388 395.32,-377.12 460.28,-292.53 380,-203 364.23,-185.41 191.61,-179.53 170,-170 157,-164.27 144.43,-154.99 134.18,-146.12"/>
<polygon fill="LightBlue" stroke="LightBlue" points="136.26,-143.28 126.5,-139.16 131.56,-148.47 136.26,-143.28"/>
<text text-anchor="middle" x="430.5" y="-268.8" font-family="Courier New" font-size="14.00" fill="LightBlue">[0]</text>
</g>
<!-- RollOutcome&#45;4 -->
<g id="node4" class="node">
<title>RollOutcome&#45;4</title>
<polygon fill="none" stroke="LightPink" stroke-dasharray="5,2" points="401,-139 299,-139 299,-103 401,-103 401,-139"/>
<text text-anchor="start" x="307" y="-124.8" font-family="Helvetica,sans-Serif" font-weight="bold" font-size="14.00" fill="LightPink">RollOutcome</text>
<text text-anchor="start" x="321" y="-110.8" font-family="Courier New" font-size="14.00" fill="LightPink">value=5</text>
</g>
<!-- Roll&#45;1&#45;&gt;RollOutcome&#45;4 -->
<g id="edge3" class="edge">
<title>Roll&#45;1&#45;&gt;RollOutcome&#45;4</title>
<path fill="none" stroke="LightPink" stroke-dasharray="5,2" d="M329.31,-422.22C379.04,-420.18 481.46,-412.99 505,-388 569.06,-319.97 579.3,-245.8 515,-178 498.9,-161.02 431.77,-178.58 410,-170 396.55,-164.7 383.73,-155.28 373.43,-146.19"/>
<polygon fill="LightPink" stroke="LightPink" points="375.78,-143.6 366.06,-139.37 371.02,-148.73 375.78,-143.6"/>
<text text-anchor="middle" x="570.5" y="-268.8" font-family="Courier New" font-size="14.00" fill="LightPink">[1]</text>
</g>
<!-- RollOutcome&#45;5 -->
<g id="node5" class="node">
<title>RollOutcome&#45;5</title>
<polygon fill="none" stroke="LightBlue" stroke-dasharray="5,2" points="281,-139 179,-139 179,-103 281,-103 281,-139"/>
<text text-anchor="start" x="187" y="-124.8" font-family="Helvetica,sans-Serif" font-weight="bold" font-size="14.00" fill="LightBlue">RollOutcome</text>
<text text-anchor="start" x="201" y="-110.8" font-family="Courier New" font-size="14.00" fill="LightBlue">value=6</text>
</g>
<!-- Roll&#45;1&#45;&gt;RollOutcome&#45;5 -->
<g id="edge4" class="edge">
<title>Roll&#45;1&#45;&gt;RollOutcome&#45;5</title>
<path fill="none" stroke="LightBlue" stroke-dasharray="5,2" d="M329.04,-421.01C354.29,-417.82 391.65,-409.54 416,-388 481.06,-330.45 527.79,-274.86 479,-203 462.08,-178.08 445.39,-184.59 416,-178 388.62,-171.86 316.17,-180.12 290,-170 276.52,-164.78 263.7,-155.38 253.39,-146.27"/>
<polygon fill="LightBlue" stroke="LightBlue" points="255.75,-143.68 246.04,-139.44 250.98,-148.81 255.75,-143.68"/>
<text text-anchor="middle" x="511.5" y="-268.8" font-family="Courier New" font-size="14.00" fill="LightBlue">[2]</text>
</g>
<!-- RollOutcome&#45;6 -->
<g id="node6" class="node">
<title>RollOutcome&#45;6</title>
<polygon fill="none" stroke="Azure" stroke-dasharray="1,5" points="521,-139 419,-139 419,-103 521,-103 521,-139"/>
<text text-anchor="start" x="427" y="-124.8" font-family="Helvetica,sans-Serif" font-weight="bold" font-size="14.00" fill="Azure">RollOutcome</text>
<text text-anchor="start" x="428.5" y="-110.8" font-family="Courier New" font-size="14.00" fill="Azure">value=None</text>
</g>
<!-- Roll&#45;1&#45;&gt;RollOutcome&#45;6 -->
<g id="edge5" class="edge">
<title>Roll&#45;1&#45;&gt;RollOutcome&#45;6</title>
<path fill="none" stroke="Azure" d="M329.06,-422.54C401.87,-419.67 602.23,-400.67 689,-280 716.13,-242.27 744.15,-211.56 712,-178 697.69,-163.06 545.24,-177.59 526,-170 513.03,-164.88 500.96,-155.43 491.37,-146.26"/>
<polygon fill="Azure" stroke="Azure" points="493.77,-143.71 484.25,-139.06 488.79,-148.63 493.77,-143.71"/>
<text text-anchor="middle" x="711.5" y="-268.8" font-family="Courier New" font-size="14.00" fill="Azure">[3]</text>
</g>
<!-- Roll&#45;7 -->
<g id="node7" class="node">
<title>Roll&#45;7</title>
<polygon fill="none" stroke="LightBlue" stroke-dasharray="5,2" points="257,-334 203,-334 203,-298 257,-298 257,-334"/>
<text text-anchor="start" x="217" y="-313.3" font-family="Helvetica,sans-Serif" font-weight="bold" font-size="14.00" fill="LightBlue">Roll</text>
</g>
<!-- Roll&#45;1&#45;&gt;Roll&#45;7 -->
<g id="edge18" class="edge">
<title>Roll&#45;1&#45;&gt;Roll&#45;7</title>
<path fill="none" stroke="LightBlue" stroke-dasharray="5,2" d="M274.99,-420.08C254.73,-416.31 228.31,-407.7 215,-388 206.18,-374.94 209.56,-357.68 215.33,-343.45"/>
<polygon fill="LightBlue" stroke="LightBlue" points="218.6,-344.72 219.58,-334.18 212.23,-341.81 218.6,-344.72"/>
<text text-anchor="middle" x="256.5" y="-376.8" font-family="Courier New" font-size="14.00" fill="LightBlue">sources[0]</text>
</g>
<!-- Roll&#45;10 -->
<g id="node10" class="node">
<title>Roll&#45;10</title>
<polygon fill="none" stroke="LightPink" stroke-dasharray="5,2" points="329,-334 275,-334 275,-298 329,-298 329,-334"/>
<text text-anchor="start" x="289" y="-313.3" font-family="Helvetica,sans-Serif" font-weight="bold" font-size="14.00" fill="LightPink">Roll</text>
</g>
<!-- Roll&#45;1&#45;&gt;Roll&#45;10 -->
<g id="edge19" class="edge">
<title>Roll&#45;1&#45;&gt;Roll&#45;10</title>
<path fill="none" stroke="LightPink" stroke-dasharray="5,2" d="M302,-405.97C302,-389.38 302,-363.88 302,-344.43"/>
<polygon fill="LightPink" stroke="LightPink" points="305.5,-344.34 302,-334.34 298.5,-344.34 305.5,-344.34"/>
<text text-anchor="middle" x="343.5" y="-376.8" font-family="Courier New" font-size="14.00" fill="LightPink">sources[1]</text>
</g>
<!-- RepeatRoller&#45;8 -->
<g id="node8" class="node">
<title>RepeatRoller&#45;8</title>
<polygon fill="none" stroke="LightBlue" stroke-dasharray="5,2" points="852,-247 752,-247 752,-211 852,-211 852,-247"/>
<text text-anchor="start" x="760" y="-232.8" font-family="Helvetica,sans-Serif" font-weight="bold" font-size="14.00" fill="LightBlue">RepeatRoller</text>
<text text-anchor="start" x="789.5" y="-218.8" font-family="Courier New" font-size="14.00" fill="LightBlue">n=3</text>
</g>
<!-- SelectionRoller&#45;2&#45;&gt;RepeatRoller&#45;8 -->
<g id="edge23" class="edge">
<title>SelectionRoller&#45;2&#45;&gt;RepeatRoller&#45;8</title>
<path fill="none" stroke="LightBlue" stroke-dasharray="5,2" d="M830.68,-297.94C822.75,-293.24 815.38,-287.34 810,-280 805.23,-273.49 802.85,-265.23 801.76,-257.3"/>
<polygon fill="LightBlue" stroke="LightBlue" points="805.24,-256.94 800.98,-247.24 798.27,-257.48 805.24,-256.94"/>
<text text-anchor="middle" x="851.5" y="-268.8" font-family="Courier New" font-size="14.00" fill="LightBlue">sources[0]</text>
</g>
<!-- ValueRoller&#45;11 -->
<g id="node11" class="node">
<title>ValueRoller&#45;11</title>
<polygon fill="none" stroke="LightPink" stroke-dasharray="5,2" points="969.5,-247 870.5,-247 870.5,-211 969.5,-211 969.5,-247"/>
<text text-anchor="start" x="882.5" y="-232.8" font-family="Helvetica,sans-Serif" font-weight="bold" font-size="14.00" fill="LightPink">ValueRoller</text>
<text text-anchor="start" x="878.5" y="-218.8" font-family="Courier New" font-size="14.00" fill="LightPink">value=H(8)</text>
</g>
<!-- SelectionRoller&#45;2&#45;&gt;ValueRoller&#45;11 -->
<g id="edge24" class="edge">
<title>SelectionRoller&#45;2&#45;&gt;ValueRoller&#45;11</title>
<path fill="none" stroke="LightPink" stroke-dasharray="5,2" d="M888.09,-297.8C893.68,-285.93 901.21,-269.93 907.55,-256.45"/>
<polygon fill="LightPink" stroke="LightPink" points="910.83,-257.71 911.92,-247.18 904.49,-254.73 910.83,-257.71"/>
<text text-anchor="middle" x="943.5" y="-268.8" font-family="Courier New" font-size="14.00" fill="LightPink">sources[1]</text>
</g>
<!-- RollOutcome&#45;9 -->
<g id="node9" class="node">
<title>RollOutcome&#45;9</title>
<polygon fill="none" stroke="LightBlue" stroke-dasharray="5,2" points="521,-52 419,-52 419,-16 521,-16 521,-52"/>
<text text-anchor="start" x="427" y="-37.8" font-family="Helvetica,sans-Serif" font-weight="bold" font-size="14.00" fill="LightBlue">RollOutcome</text>
<text text-anchor="start" x="441" y="-23.8" font-family="Courier New" font-size="14.00" fill="LightBlue">value=1</text>
</g>
<!-- RollOutcome&#45;6&#45;&gt;RollOutcome&#45;9 -->
<g id="edge26" class="edge">
<title>RollOutcome&#45;6&#45;&gt;RollOutcome&#45;9</title>
<path fill="none" stroke="LightBlue" stroke-dasharray="5,2" d="M463.69,-102.96C460.85,-93.33 458.45,-81.05 460,-70 460.36,-67.43 460.86,-64.78 461.45,-62.14"/>
<polygon fill="LightBlue" stroke="LightBlue" points="464.9,-62.8 464.04,-52.24 458.13,-61.03 464.9,-62.8"/>
<text text-anchor="middle" x="501.5" y="-73.8" font-family="Courier New" font-size="14.00" fill="LightBlue">sources[0]</text>
</g>
<!-- Roll&#45;7&#45;&gt;RollOutcome&#45;3 -->
<g id="edge9" class="edge">
<title>Roll&#45;7&#45;&gt;RollOutcome&#45;3</title>
<path fill="none" stroke="LightBlue" stroke-dasharray="5,2" d="M257.01,-301.93C260.03,-300.56 263.07,-299.23 266,-298 287.4,-289.04 301.72,-299.02 315,-280 318.82,-274.53 318.04,-270.93 315,-265 308.76,-252.81 299.48,-256.88 290,-247 273.78,-230.1 279.39,-217.51 261,-203 227.22,-176.35 207.52,-191.05 170,-170 157.97,-163.25 145.88,-154.13 135.73,-145.65"/>
<polygon fill="LightBlue" stroke="LightBlue" points="137.91,-142.91 128.04,-139.04 133.35,-148.21 137.91,-142.91"/>
<text text-anchor="middle" x="302.5" y="-225.3" font-family="Courier New" font-size="14.00" fill="LightBlue">[2]</text>
</g>
<!-- Roll&#45;7&#45;&gt;RollOutcome&#45;5 -->
<g id="edge7" class="edge">
<title>Roll&#45;7&#45;&gt;RollOutcome&#45;5</title>
<path fill="none" stroke="LightBlue" stroke-dasharray="5,2" d="M257.24,-301.3C260.16,-300.09 263.11,-298.96 266,-298 304.3,-285.29 329.45,-311.24 355,-280 375.54,-254.9 300.72,-183.24 257.92,-145.66"/>
<polygon fill="LightBlue" stroke="LightBlue" points="260.18,-142.98 250.33,-139.06 255.58,-148.26 260.18,-142.98"/>
<text text-anchor="middle" x="363.5" y="-225.3" font-family="Courier New" font-size="14.00" fill="LightBlue">[0]</text>
</g>
<!-- Roll&#45;7&#45;&gt;RepeatRoller&#45;8 -->
<g id="edge6" class="edge">
<title>Roll&#45;7&#45;&gt;RepeatRoller&#45;8</title>
<path fill="none" stroke="LightBlue" stroke-dasharray="5,2" d="M257.11,-300.86C260.05,-299.73 263.05,-298.74 266,-298 411.86,-261.19 457.02,-312.03 604,-280 621.74,-276.13 624.63,-270.29 642,-265 674.5,-255.1 711.52,-246.82 741.76,-240.8"/>
<polygon fill="LightBlue" stroke="LightBlue" points="742.6,-244.2 751.74,-238.84 741.25,-237.33 742.6,-244.2"/>
<text text-anchor="middle" x="646.5" y="-268.8" font-family="Courier New" font-size="14.00" fill="LightBlue">r</text>
</g>
<!-- Roll&#45;7&#45;&gt;RollOutcome&#45;9 -->
<g id="edge8" class="edge">
<title>Roll&#45;7&#45;&gt;RollOutcome&#45;9</title>
<path fill="none" stroke="LightBlue" stroke-dasharray="5,2" d="M257.11,-300.88C260.06,-299.75 263.05,-298.75 266,-298 299.43,-289.48 551.1,-303.88 576,-280 584.86,-271.5 586.39,-182.27 587,-170 588.66,-136.71 600.06,-125.67 587,-95 577.1,-71.74 553.87,-57.38 530.69,-48.56"/>
<polygon fill="LightBlue" stroke="LightBlue" points="531.75,-45.23 521.15,-45.23 529.44,-51.83 531.75,-45.23"/>
<text text-anchor="middle" x="598.5" y="-181.8" font-family="Courier New" font-size="14.00" fill="LightBlue">[1]</text>
</g>
<!-- Roll&#45;12 -->
<g id="node12" class="node">
<title>Roll&#45;12</title>
<polygon fill="none" stroke="LightBlue" stroke-dasharray="5,2" points="180,-247 126,-247 126,-211 180,-211 180,-247"/>
<text text-anchor="start" x="140" y="-226.3" font-family="Helvetica,sans-Serif" font-weight="bold" font-size="14.00" fill="LightBlue">Roll</text>
</g>
<!-- Roll&#45;7&#45;&gt;Roll&#45;12 -->
<g id="edge20" class="edge">
<title>Roll&#45;7&#45;&gt;Roll&#45;12</title>
<path fill="none" stroke="LightBlue" stroke-dasharray="5,2" d="M202.81,-312.34C182.05,-308.72 154.74,-300.17 141,-280 136.41,-273.26 136.62,-264.95 138.8,-257.07"/>
<polygon fill="LightBlue" stroke="LightBlue" points="142.17,-258.04 142.39,-247.44 135.62,-255.59 142.17,-258.04"/>
<text text-anchor="middle" x="182.5" y="-268.8" font-family="Courier New" font-size="14.00" fill="LightBlue">sources[0]</text>
</g>
<!-- Roll&#45;14 -->
<g id="node14" class="node">
<title>Roll&#45;14</title>
<polygon fill="none" stroke="LightBlue" stroke-dasharray="5,2" points="252,-247 198,-247 198,-211 252,-211 252,-247"/>
<text text-anchor="start" x="212" y="-226.3" font-family="Helvetica,sans-Serif" font-weight="bold" font-size="14.00" fill="LightBlue">Roll</text>
</g>
<!-- Roll&#45;7&#45;&gt;Roll&#45;14 -->
<g id="edge21" class="edge">
<title>Roll&#45;7&#45;&gt;Roll&#45;14</title>
<path fill="none" stroke="LightBlue" stroke-dasharray="5,2" d="M228.99,-297.8C228.3,-286.16 227.39,-270.55 226.6,-257.24"/>
<polygon fill="LightBlue" stroke="LightBlue" points="230.09,-256.95 226.01,-247.18 223.1,-257.36 230.09,-256.95"/>
<text text-anchor="middle" x="269.5" y="-268.8" font-family="Courier New" font-size="14.00" fill="LightBlue">sources[1]</text>
</g>
<!-- Roll&#45;15 -->
<g id="node15" class="node">
<title>Roll&#45;15</title>
<polygon fill="none" stroke="LightBlue" stroke-dasharray="5,2" points="108,-247 54,-247 54,-211 108,-211 108,-247"/>
<text text-anchor="start" x="68" y="-226.3" font-family="Helvetica,sans-Serif" font-weight="bold" font-size="14.00" fill="LightBlue">Roll</text>
</g>
<!-- Roll&#45;7&#45;&gt;Roll&#45;15 -->
<g id="edge22" class="edge">
<title>Roll&#45;7&#45;&gt;Roll&#45;15</title>
<path fill="none" stroke="LightBlue" stroke-dasharray="5,2" d="M202.83,-313.77C157.59,-311.08 69.92,-302.98 51,-280 44.66,-272.3 47.64,-263.12 53.71,-254.74"/>
<polygon fill="LightBlue" stroke="LightBlue" points="56.46,-256.92 60.27,-247.03 51.13,-252.38 56.46,-256.92"/>
<text text-anchor="middle" x="92.5" y="-268.8" font-family="Courier New" font-size="14.00" fill="LightBlue">sources[2]</text>
</g>
<!-- ValueRoller&#45;13 -->
<g id="node13" class="node">
<title>ValueRoller&#45;13</title>
<polygon fill="none" stroke="LightBlue" stroke-dasharray="5,2" points="851.5,-139 752.5,-139 752.5,-103 851.5,-103 851.5,-139"/>
<text text-anchor="start" x="764.5" y="-124.8" font-family="Helvetica,sans-Serif" font-weight="bold" font-size="14.00" fill="LightBlue">ValueRoller</text>
<text text-anchor="start" x="760.5" y="-110.8" font-family="Courier New" font-size="14.00" fill="LightBlue">value=H(6)</text>
</g>
<!-- RepeatRoller&#45;8&#45;&gt;ValueRoller&#45;13 -->
<g id="edge25" class="edge">
<title>RepeatRoller&#45;8&#45;&gt;ValueRoller&#45;13</title>
<path fill="none" stroke="LightBlue" stroke-dasharray="5,2" d="M802,-210.97C802,-194.38 802,-168.88 802,-149.43"/>
<polygon fill="LightBlue" stroke="LightBlue" points="805.5,-149.34 802,-139.34 798.5,-149.34 805.5,-149.34"/>
<text text-anchor="middle" x="843.5" y="-181.8" font-family="Courier New" font-size="14.00" fill="LightBlue">sources[0]</text>
</g>
<!-- Roll&#45;10&#45;&gt;RollOutcome&#45;4 -->
<g id="edge11" class="edge">
<title>Roll&#45;10&#45;&gt;RollOutcome&#45;4</title>
<path fill="none" stroke="LightPink" stroke-dasharray="5,2" d="M329.16,-311.51C363.23,-306.5 418.7,-296.08 431,-280 445.62,-260.89 480.89,-291.6 416,-178 411.44,-170.02 396.17,-156.88 381.46,-145.33"/>
<polygon fill="LightPink" stroke="LightPink" points="383.47,-142.46 373.42,-139.12 379.19,-148 383.47,-142.46"/>
<text text-anchor="middle" x="462.5" y="-225.3" font-family="Courier New" font-size="14.00" fill="LightPink">[0]</text>
</g>
<!-- Roll&#45;10&#45;&gt;ValueRoller&#45;11 -->
<g id="edge10" class="edge">
<title>Roll&#45;10&#45;&gt;ValueRoller&#45;11</title>
<path fill="none" stroke="LightPink" stroke-dasharray="5,2" d="M329.37,-315.7C389.12,-316.5 535.13,-314.41 651,-280 664.91,-275.87 666.09,-269.12 680,-265 754.48,-242.92 779.65,-260.74 860.16,-246.87"/>
<polygon fill="LightPink" stroke="LightPink" points="861.06,-250.27 870.26,-245.02 859.79,-243.38 861.06,-250.27"/>
<text text-anchor="middle" x="684.5" y="-268.8" font-family="Courier New" font-size="14.00" fill="LightPink">r</text>
</g>
<!-- Roll&#45;12&#45;&gt;RollOutcome&#45;5 -->
<g id="edge13" class="edge">
<title>Roll&#45;12&#45;&gt;RollOutcome&#45;5</title>
<path fill="none" stroke="LightBlue" stroke-dasharray="5,2" d="M165.37,-210.97C177.81,-193.84 197.15,-167.22 211.43,-147.56"/>
<polygon fill="LightBlue" stroke="LightBlue" points="214.36,-149.49 217.4,-139.34 208.69,-145.37 214.36,-149.49"/>
<text text-anchor="middle" x="202.5" y="-181.8" font-family="Courier New" font-size="14.00" fill="LightBlue">[0]</text>
</g>
<!-- Roll&#45;12&#45;&gt;ValueRoller&#45;13 -->
<g id="edge12" class="edge">
<title>Roll&#45;12&#45;&gt;ValueRoller&#45;13</title>
<path fill="none" stroke="LightBlue" stroke-dasharray="5,2" d="M173.21,-210.95C178.09,-207.72 183.5,-204.79 189,-203 237.51,-187.23 599.26,-208.07 648,-193 659.66,-189.4 660.24,-183.75 671,-178 695.46,-164.93 723.62,-152.56 747.55,-142.8"/>
<polygon fill="LightBlue" stroke="LightBlue" points="748.87,-146.04 756.83,-139.05 746.25,-139.54 748.87,-146.04"/>
<text text-anchor="middle" x="675.5" y="-181.8" font-family="Courier New" font-size="14.00" fill="LightBlue">r</text>
</g>
<!-- Roll&#45;14&#45;&gt;RollOutcome&#45;9 -->
<g id="edge15" class="edge">
<title>Roll&#45;14&#45;&gt;RollOutcome&#45;9</title>
<path fill="none" stroke="LightBlue" stroke-dasharray="5,2" d="M243.56,-210.82C247.72,-207.76 252.31,-204.94 257,-203 313.48,-179.67 486.12,-212.52 530,-170 562.19,-138.81 566.88,-107.93 543,-70 539.56,-64.54 535,-59.91 529.84,-55.99"/>
<polygon fill="LightBlue" stroke="LightBlue" points="531.59,-52.95 521.31,-50.39 527.76,-58.8 531.59,-52.95"/>
<text text-anchor="middle" x="570.5" y="-117.3" font-family="Courier New" font-size="14.00" fill="LightBlue">[0]</text>
</g>
<!-- Roll&#45;14&#45;&gt;ValueRoller&#45;13 -->
<g id="edge14" class="edge">
<title>Roll&#45;14&#45;&gt;ValueRoller&#45;13</title>
<path fill="none" stroke="LightBlue" stroke-dasharray="5,2" d="M248.29,-210.95C253.84,-207.72 259.92,-204.79 266,-203 354.29,-177.05 591.45,-218.04 680,-193 714.02,-183.38 748.45,-162.05 772.01,-145.27"/>
<polygon fill="LightBlue" stroke="LightBlue" points="774.16,-148.03 780.18,-139.32 770.04,-142.37 774.16,-148.03"/>
<text text-anchor="middle" x="719.5" y="-181.8" font-family="Courier New" font-size="14.00" fill="LightBlue">r</text>
</g>
<!-- Roll&#45;15&#45;&gt;RollOutcome&#45;3 -->
<g id="edge17" class="edge">
<title>Roll&#45;15&#45;&gt;RollOutcome&#45;3</title>
<path fill="none" stroke="LightBlue" stroke-dasharray="5,2" d="M85.66,-210.97C90.22,-194.3 97.24,-168.65 102.57,-149.16"/>
<polygon fill="LightBlue" stroke="LightBlue" points="105.99,-149.91 105.26,-139.34 99.24,-148.06 105.99,-149.91"/>
<text text-anchor="middle" x="107.5" y="-181.8" font-family="Courier New" font-size="14.00" fill="LightBlue">[0]</text>
</g>
<!-- Roll&#45;15&#45;&gt;ValueRoller&#45;13 -->
<g id="edge16" class="edge">
<title>Roll&#45;15&#45;&gt;ValueRoller&#45;13</title>
<path fill="none" stroke="LightBlue" stroke-dasharray="5,2" d="M101.21,-210.95C106.09,-207.71 111.5,-204.78 117,-203 169.75,-185.9 563,-209.33 616,-193 627.66,-189.41 628.03,-183.36 639,-178 671.99,-161.88 710.81,-148.35 742.29,-138.63"/>
<polygon fill="LightBlue" stroke="LightBlue" points="743.68,-141.86 752.23,-135.6 741.65,-135.16 743.68,-141.86"/>
<text text-anchor="middle" x="643.5" y="-181.8" font-family="Courier New" font-size="14.00" fill="LightBlue">r</text>
</g>
</g>
</svg>
