<?xml version="1.0" encoding="UTF-8" standalone="no"?>
<!DOCTYPE svg PUBLIC "-//W3C//DTD SVG 1.1//EN"
 "http://www.w3.org/Graphics/SVG/1.1/DTD/svg11.dtd">
<!-- Generated by graphviz version 2.49.3 (20211023.0002)
 -->
<!-- Title: classes_dyce_r_dark Pages: 1 -->
<svg width="763pt" height="264pt"
 viewBox="0.00 0.00 763.00 264.00" xmlns="http://www.w3.org/2000/svg" xmlns:xlink="http://www.w3.org/1999/xlink">
<g id="graph0" class="graph" transform="scale(1 1) rotate(0) translate(4 260)">
<title>classes_dyce_r_dark</title>
<!-- dyce.r.BasicOpRoller -->
<g id="node1" class="node">
<title>dyce.r.BasicOpRoller</title>
<polygon fill="none" stroke="Azure" points="554,-146.5 554,-182.5 660,-182.5 660,-146.5 554,-146.5"/>
<text text-anchor="middle" x="607" y="-160.8" font-family="Helvetica,sans-Serif" font-size="14.00" fill="Azure">BasicOpRoller</text>
</g>
<!-- dyce.r.R -->
<g id="node2" class="node">
<title>dyce.r.R</title>
<polygon fill="none" stroke="Azure" points="285,-219.5 285,-255.5 339,-255.5 339,-219.5 285,-219.5"/>
<text text-anchor="middle" x="312" y="-233.8" font-family="Helvetica,sans-Serif" font-size="14.00" fill="Azure">R</text>
</g>
<!-- dyce.r.BasicOpRoller&#45;&gt;dyce.r.R -->
<g id="edge1" class="edge">
<title>dyce.r.BasicOpRoller&#45;&gt;dyce.r.R</title>
<path fill="none" stroke="Azure" d="M553.95,-180.66C550.92,-181.47 547.93,-182.25 545,-183 476.03,-200.64 394.88,-218.66 348.84,-228.63"/>
<polygon fill="none" stroke="Azure" points="348.05,-225.22 339.01,-230.75 349.53,-232.06 348.05,-225.22"/>
</g>
<!-- dyce.r.BinarySumOpRoller -->
<g id="node3" class="node">
<title>dyce.r.BinarySumOpRoller</title>
<polygon fill="none" stroke="Azure" points="459,-0.5 459,-36.5 599,-36.5 599,-0.5 459,-0.5"/>
<text text-anchor="middle" x="529" y="-14.8" font-family="Helvetica,sans-Serif" font-size="14.00" fill="Azure">BinarySumOpRoller</text>
</g>
<!-- dyce.r.NarySumOpRoller -->
<g id="node4" class="node">
<title>dyce.r.NarySumOpRoller</title>
<polygon fill="none" stroke="Azure" points="542,-73.5 542,-109.5 672,-109.5 672,-73.5 542,-73.5"/>
<text text-anchor="middle" x="607" y="-87.8" font-family="Helvetica,sans-Serif" font-size="14.00" fill="Azure">NarySumOpRoller</text>
</g>
<!-- dyce.r.BinarySumOpRoller&#45;&gt;dyce.r.NarySumOpRoller -->
<g id="edge2" class="edge">
<title>dyce.r.BinarySumOpRoller&#45;&gt;dyce.r.NarySumOpRoller</title>
<path fill="none" stroke="Azure" d="M547.88,-36.69C557.75,-45.67 569.98,-56.81 580.76,-66.61"/>
<polygon fill="none" stroke="Azure" points="578.54,-69.33 588.29,-73.47 583.25,-64.15 578.54,-69.33"/>
</g>
<!-- dyce.r.NarySumOpRoller&#45;&gt;dyce.r.BasicOpRoller -->
<g id="edge3" class="edge">
<title>dyce.r.NarySumOpRoller&#45;&gt;dyce.r.BasicOpRoller</title>
<path fill="none" stroke="Azure" d="M607,-109.69C607,-117.71 607,-127.45 607,-136.43"/>
<polygon fill="none" stroke="Azure" points="603.5,-136.47 607,-146.47 610.5,-136.47 603.5,-136.47"/>
</g>
<!-- dyce.r.FilterRoller -->
<g id="node5" class="node">
<title>dyce.r.FilterRoller</title>
<polygon fill="none" stroke="Azure" points="0,-146.5 0,-182.5 84,-182.5 84,-146.5 0,-146.5"/>
<text text-anchor="middle" x="42" y="-160.8" font-family="Helvetica,sans-Serif" font-size="14.00" fill="Azure">FilterRoller</text>
</g>
<!-- dyce.r.FilterRoller&#45;&gt;dyce.r.R -->
<g id="edge4" class="edge">
<title>dyce.r.FilterRoller&#45;&gt;dyce.r.R</title>
<path fill="none" stroke="Azure" d="M84.19,-180.03C87.5,-181.07 90.8,-182.07 94,-183 157.06,-201.31 231.54,-218.7 275.1,-228.44"/>
<polygon fill="none" stroke="Azure" points="274.44,-231.88 284.96,-230.63 275.96,-225.04 274.44,-231.88"/>
</g>
<!-- dyce.r.PoolRoller -->
<g id="node6" class="node">
<title>dyce.r.PoolRoller</title>
<polygon fill="none" stroke="Azure" points="102.5,-146.5 102.5,-182.5 183.5,-182.5 183.5,-146.5 102.5,-146.5"/>
<text text-anchor="middle" x="143" y="-160.8" font-family="Helvetica,sans-Serif" font-size="14.00" fill="Azure">PoolRoller</text>
</g>
<!-- dyce.r.PoolRoller&#45;&gt;dyce.r.R -->
<g id="edge5" class="edge">
<title>dyce.r.PoolRoller&#45;&gt;dyce.r.R</title>
<path fill="none" stroke="Azure" d="M183.48,-182.51C211.4,-194.23 248.21,-209.7 275.28,-221.07"/>
<polygon fill="none" stroke="Azure" points="274.2,-224.42 284.77,-225.06 276.91,-217.96 274.2,-224.42"/>
</g>
<!-- dyce.r.RepeatRoller -->
<g id="node7" class="node">
<title>dyce.r.RepeatRoller</title>
<polygon fill="none" stroke="Azure" points="202,-146.5 202,-182.5 300,-182.5 300,-146.5 202,-146.5"/>
<text text-anchor="middle" x="251" y="-160.8" font-family="Helvetica,sans-Serif" font-size="14.00" fill="Azure">RepeatRoller</text>
</g>
<!-- dyce.r.RepeatRoller&#45;&gt;dyce.r.R -->
<g id="edge6" class="edge">
<title>dyce.r.RepeatRoller&#45;&gt;dyce.r.R</title>
<path fill="none" stroke="Azure" d="M265.77,-182.69C273.26,-191.41 282.5,-202.16 290.74,-211.75"/>
<polygon fill="none" stroke="Azure" points="288.2,-214.17 297.37,-219.47 293.51,-209.61 288.2,-214.17"/>
</g>
<!-- dyce.r.SelectionRoller -->
<g id="node8" class="node">
<title>dyce.r.SelectionRoller</title>
<polygon fill="none" stroke="Azure" points="318.5,-146.5 318.5,-182.5 429.5,-182.5 429.5,-146.5 318.5,-146.5"/>
<text text-anchor="middle" x="374" y="-160.8" font-family="Helvetica,sans-Serif" font-size="14.00" fill="Azure">SelectionRoller</text>
</g>
<!-- dyce.r.SelectionRoller&#45;&gt;dyce.r.R -->
<g id="edge7" class="edge">
<title>dyce.r.SelectionRoller&#45;&gt;dyce.r.R</title>
<path fill="none" stroke="Azure" d="M358.99,-182.69C351.38,-191.41 341.99,-202.16 333.61,-211.75"/>
<polygon fill="none" stroke="Azure" points="330.81,-209.64 326.87,-219.47 336.08,-214.24 330.81,-209.64"/>
</g>
<!-- dyce.r.UnarySumOpRoller -->
<g id="node9" class="node">
<title>dyce.r.UnarySumOpRoller</title>
<polygon fill="none" stroke="Azure" points="617,-0.5 617,-36.5 755,-36.5 755,-0.5 617,-0.5"/>
<text text-anchor="middle" x="686" y="-14.8" font-family="Helvetica,sans-Serif" font-size="14.00" fill="Azure">UnarySumOpRoller</text>
</g>
<!-- dyce.r.UnarySumOpRoller&#45;&gt;dyce.r.NarySumOpRoller -->
<g id="edge8" class="edge">
<title>dyce.r.UnarySumOpRoller&#45;&gt;dyce.r.NarySumOpRoller</title>
<path fill="none" stroke="Azure" d="M666.88,-36.69C656.88,-45.67 644.49,-56.81 633.58,-66.61"/>
<polygon fill="none" stroke="Azure" points="631.05,-64.18 625.95,-73.47 635.72,-69.39 631.05,-64.18"/>
</g>
<!-- dyce.r.ValueRoller -->
<g id="node10" class="node">
<title>dyce.r.ValueRoller</title>
<polygon fill="none" stroke="Azure" points="448,-146.5 448,-182.5 536,-182.5 536,-146.5 448,-146.5"/>
<text text-anchor="middle" x="492" y="-160.8" font-family="Helvetica,sans-Serif" font-size="14.00" fill="Azure">ValueRoller</text>
</g>
<!-- dyce.r.ValueRoller&#45;&gt;dyce.r.R -->
<g id="edge9" class="edge">
<title>dyce.r.ValueRoller&#45;&gt;dyce.r.R</title>
<path fill="none" stroke="Azure" d="M448.89,-182.51C418.24,-194.6 377.52,-210.66 348.48,-222.11"/>
<polygon fill="none" stroke="Azure" points="347.13,-218.88 339.11,-225.81 349.7,-225.39 347.13,-218.88"/>
</g>
</g>
</svg>
