<?xml version="1.0" encoding="UTF-8" standalone="no"?>
<!DOCTYPE svg PUBLIC "-//W3C//DTD SVG 1.1//EN"
 "http://www.w3.org/Graphics/SVG/1.1/DTD/svg11.dtd">
<!-- Generated by graphviz version 2.49.3 (20211023.0002)
 -->
<!-- Pages: 1 -->
<svg width="1196pt" height="402pt"
 viewBox="0.00 0.00 1196.00 402.00" xmlns="http://www.w3.org/2000/svg" xmlns:xlink="http://www.w3.org/1999/xlink">
<g id="graph0" class="graph" transform="scale(1 1) rotate(0) translate(4 398)">
<g id="clust1" class="cluster">
<title>cluster_rolls</title>
<polygon fill="transparent" stroke="DarkSlateGray" stroke-dasharray="1,5" points="351,-203 351,-386 902,-386 902,-203 351,-203"/>
<text text-anchor="start" x="598" y="-371.8" font-family="Helvetica,sans-Serif" font-style="italic" font-size="14.00" fill="DarkSlateGray">Roll Tree</text>
</g>
<g id="clust2" class="cluster">
<title>cluster_rollers</title>
<polygon fill="transparent" stroke="DarkSlateGray" stroke-dasharray="1,5" points="8,-95 8,-278 343,-278 343,-95 8,-95"/>
<text text-anchor="start" x="141" y="-263.8" font-family="Helvetica,sans-Serif" font-style="italic" font-size="14.00" fill="DarkSlateGray">Roller Tree</text>
</g>
<g id="clust3" class="cluster">
<title>cluster_roll_outcomes</title>
<polygon fill="transparent" stroke="DarkSlateGray" stroke-dasharray="1,5" points="572,-8 572,-170 1180,-170 1180,-8 572,-8"/>
<text text-anchor="start" x="830" y="-155.8" font-family="Helvetica,sans-Serif" font-style="italic" font-size="14.00" fill="DarkSlateGray">Roll Outcomes</text>
</g>
<!-- Roll&#45;1 -->
<g id="node1" class="node">
<title>Roll&#45;1</title>
<polygon fill="none" stroke="DarkSlateGray" points="836,-355 782,-355 782,-319 836,-319 836,-355"/>
<text text-anchor="start" x="795.5" y="-334.3" font-family="Helvetica,sans-Serif" font-weight="bold" font-size="14.00" fill="DarkSlateGray">Roll</text>
</g>
<!-- BranchOperationRoller&#45;2 -->
<g id="node2" class="node">
<title>BranchOperationRoller&#45;2</title>
<polygon fill="none" stroke="DarkSlateGray" points="278.5,-247 107.5,-247 107.5,-211 278.5,-211 278.5,-247"/>
<text text-anchor="start" x="115.5" y="-226.3" font-family="Helvetica,sans-Serif" font-weight="bold" font-size="14.00" fill="DarkSlateGray">BranchOperationRoller</text>
</g>
<!-- Roll&#45;1&#45;&gt;BranchOperationRoller&#45;2 -->
<g id="edge1" class="edge">
<title>Roll&#45;1&#45;&gt;BranchOperationRoller&#45;2</title>
<path fill="none" stroke="DarkSlateGray" d="M781.67,-336.18C714.3,-336.09 535.14,-332.64 390,-301 337.44,-289.54 279.83,-267.61 240.56,-251.14"/>
<polygon fill="DarkSlateGray" stroke="DarkSlateGray" points="241.56,-247.76 230.99,-247.08 238.83,-254.21 241.56,-247.76"/>
<text text-anchor="middle" x="394.5" y="-289.8" font-family="Courier New" font-size="14.00" fill="DarkSlateGray">r</text>
</g>
<!-- RollOutcome&#45;3 -->
<g id="node3" class="node">
<title>RollOutcome&#45;3</title>
<polygon fill="none" stroke="DarkSlateGray" stroke-dasharray="1,5" points="1172,-139 1068,-139 1068,-103 1172,-103 1172,-139"/>
<text text-anchor="start" x="1076" y="-124.8" font-family="Helvetica,sans-Serif" font-weight="bold" font-size="14.00" fill="DarkSlateGray">RollOutcome</text>
<text text-anchor="start" x="1077.5" y="-110.8" font-family="Courier New" font-size="14.00" fill="DarkSlateGray">value=None</text>
</g>
<!-- Roll&#45;1&#45;&gt;RollOutcome&#45;3 -->
<g id="edge2" class="edge">
<title>Roll&#45;1&#45;&gt;RollOutcome&#45;3</title>
<path fill="none" stroke="DarkSlateGray" d="M836.1,-336.78C882.75,-336.62 978.65,-329.52 1035,-278 1074.4,-241.98 1099.38,-183.35 1111.43,-149.15"/>
<polygon fill="DarkSlateGray" stroke="DarkSlateGray" points="1114.85,-149.97 1114.75,-139.38 1108.22,-147.72 1114.85,-149.97"/>
<text text-anchor="middle" x="1100" y="-225.3" font-family="Courier New" font-size="14.00" fill="DarkSlateGray">[0]</text>
</g>
<!-- RollOutcome&#45;4 -->
<g id="node4" class="node">
<title>RollOutcome&#45;4</title>
<polygon fill="none" stroke="DarkSlateGray" points="684,-139 580,-139 580,-103 684,-103 684,-139"/>
<text text-anchor="start" x="588" y="-124.8" font-family="Helvetica,sans-Serif" font-weight="bold" font-size="14.00" fill="DarkSlateGray">RollOutcome</text>
<text text-anchor="start" x="602.5" y="-110.8" font-family="Courier New" font-size="14.00" fill="DarkSlateGray">value=5</text>
</g>
<!-- Roll&#45;1&#45;&gt;RollOutcome&#45;4 -->
<g id="edge3" class="edge">
<title>Roll&#45;1&#45;&gt;RollOutcome&#45;4</title>
<path fill="none" stroke="DarkSlateGray" d="M836.13,-332.9C856.1,-329.05 881.95,-320.39 895,-301 898.72,-295.47 898.35,-291.77 895,-286 891.4,-279.8 885.27,-283.75 881,-278 853.81,-241.39 892.98,-207.26 858,-178 843.92,-166.22 710.19,-176.42 693,-170 679.12,-164.81 665.91,-155.23 655.35,-145.97"/>
<polygon fill="DarkSlateGray" stroke="DarkSlateGray" points="657.56,-143.25 647.83,-139.04 652.81,-148.39 657.56,-143.25"/>
<text text-anchor="middle" x="894" y="-225.3" font-family="Courier New" font-size="14.00" fill="DarkSlateGray">[1]</text>
</g>
<!-- RollOutcome&#45;5 -->
<g id="node5" class="node">
<title>RollOutcome&#45;5</title>
<polygon fill="none" stroke="DarkSlateGray" points="806,-139 702,-139 702,-103 806,-103 806,-139"/>
<text text-anchor="start" x="710" y="-124.8" font-family="Helvetica,sans-Serif" font-weight="bold" font-size="14.00" fill="DarkSlateGray">RollOutcome</text>
<text text-anchor="start" x="724.5" y="-110.8" font-family="Courier New" font-size="14.00" fill="DarkSlateGray">value=2</text>
</g>
<!-- Roll&#45;1&#45;&gt;RollOutcome&#45;5 -->
<g id="edge4" class="edge">
<title>Roll&#45;1&#45;&gt;RollOutcome&#45;5</title>
<path fill="none" stroke="DarkSlateGray" d="M836.06,-335.93C862.3,-334.23 900.88,-327.07 920,-301 923.94,-295.62 920.71,-292.63 920,-286 914.64,-235.96 928.72,-204.6 886,-178 859.04,-161.22 844.38,-182.06 815,-170 801.49,-164.46 788.49,-155 777.98,-145.94"/>
<polygon fill="DarkSlateGray" stroke="DarkSlateGray" points="780.24,-143.27 770.47,-139.17 775.55,-148.46 780.24,-143.27"/>
<text text-anchor="middle" x="932" y="-225.3" font-family="Courier New" font-size="14.00" fill="DarkSlateGray">[2]</text>
</g>
<!-- RollOutcome&#45;6 -->
<g id="node6" class="node">
<title>RollOutcome&#45;6</title>
<polygon fill="none" stroke="DarkSlateGray" stroke-dasharray="1,5" points="1050,-139 946,-139 946,-103 1050,-103 1050,-139"/>
<text text-anchor="start" x="954" y="-124.8" font-family="Helvetica,sans-Serif" font-weight="bold" font-size="14.00" fill="DarkSlateGray">RollOutcome</text>
<text text-anchor="start" x="955.5" y="-110.8" font-family="Courier New" font-size="14.00" fill="DarkSlateGray">value=None</text>
</g>
<!-- Roll&#45;1&#45;&gt;RollOutcome&#45;6 -->
<g id="edge5" class="edge">
<title>Roll&#45;1&#45;&gt;RollOutcome&#45;6</title>
<path fill="none" stroke="DarkSlateGray" d="M836.13,-332.7C866.25,-328.32 915.78,-318.95 955,-301 970.93,-293.71 978.47,-293.29 987,-278 1009.47,-237.74 1006.97,-182.26 1002.74,-149.45"/>
<polygon fill="DarkSlateGray" stroke="DarkSlateGray" points="1006.16,-148.66 1001.27,-139.26 999.23,-149.65 1006.16,-148.66"/>
<text text-anchor="middle" x="1018" y="-225.3" font-family="Courier New" font-size="14.00" fill="DarkSlateGray">[3]</text>
</g>
<!-- RollOutcome&#45;7 -->
<g id="node7" class="node">
<title>RollOutcome&#45;7</title>
<polygon fill="none" stroke="DarkSlateGray" points="928,-139 824,-139 824,-103 928,-103 928,-139"/>
<text text-anchor="start" x="832" y="-124.8" font-family="Helvetica,sans-Serif" font-weight="bold" font-size="14.00" fill="DarkSlateGray">RollOutcome</text>
<text text-anchor="start" x="846.5" y="-110.8" font-family="Courier New" font-size="14.00" fill="DarkSlateGray">value=1</text>
</g>
<!-- Roll&#45;1&#45;&gt;RollOutcome&#45;7 -->
<g id="edge6" class="edge">
<title>Roll&#45;1&#45;&gt;RollOutcome&#45;7</title>
<path fill="none" stroke="DarkSlateGray" d="M836.04,-335.65C872.83,-333.45 935.62,-323.01 949,-278 958.5,-246.05 960.95,-234.12 949,-203 940.37,-180.52 922.29,-160.39 906.29,-145.81"/>
<polygon fill="DarkSlateGray" stroke="DarkSlateGray" points="908.48,-143.08 898.65,-139.12 903.87,-148.34 908.48,-143.08"/>
<text text-anchor="middle" x="970" y="-225.3" font-family="Courier New" font-size="14.00" fill="DarkSlateGray">[4]</text>
</g>
<!-- Roll&#45;8 -->
<g id="node8" class="node">
<title>Roll&#45;8</title>
<polygon fill="none" stroke="DarkSlateGray" points="413,-247 359,-247 359,-211 413,-211 413,-247"/>
<text text-anchor="start" x="372.5" y="-226.3" font-family="Helvetica,sans-Serif" font-weight="bold" font-size="14.00" fill="DarkSlateGray">Roll</text>
</g>
<!-- Roll&#45;1&#45;&gt;Roll&#45;8 -->
<g id="edge17" class="edge">
<title>Roll&#45;1&#45;&gt;Roll&#45;8</title>
<path fill="none" stroke="DarkSlateGray" d="M781.88,-335.21C697.64,-332.52 444.42,-322.72 415,-301 401.07,-290.72 393.81,-272.57 390.04,-257.2"/>
<polygon fill="DarkSlateGray" stroke="DarkSlateGray" points="393.41,-256.21 387.94,-247.13 386.55,-257.63 393.41,-256.21"/>
<text text-anchor="middle" x="457.5" y="-289.8" font-family="Courier New" font-size="14.00" fill="DarkSlateGray">sources[0]</text>
</g>
<!-- Roll&#45;11 -->
<g id="node11" class="node">
<title>Roll&#45;11</title>
<polygon fill="none" stroke="DarkSlateGray" points="620,-247 566,-247 566,-211 620,-211 620,-247"/>
<text text-anchor="start" x="579.5" y="-226.3" font-family="Helvetica,sans-Serif" font-weight="bold" font-size="14.00" fill="DarkSlateGray">Roll</text>
</g>
<!-- Roll&#45;1&#45;&gt;Roll&#45;11 -->
<g id="edge18" class="edge">
<title>Roll&#45;1&#45;&gt;Roll&#45;11</title>
<path fill="none" stroke="DarkSlateGray" d="M781.72,-334.14C735.66,-330.47 645.14,-320.91 621,-301 607.79,-290.11 600.79,-272.13 597.08,-256.99"/>
<polygon fill="DarkSlateGray" stroke="DarkSlateGray" points="600.48,-256.15 595.01,-247.08 593.63,-257.59 600.48,-256.15"/>
<text text-anchor="middle" x="663.5" y="-289.8" font-family="Courier New" font-size="14.00" fill="DarkSlateGray">sources[1]</text>
</g>
<!-- Roll&#45;12 -->
<g id="node12" class="node">
<title>Roll&#45;12</title>
<polygon fill="none" stroke="DarkSlateGray" points="728,-247 674,-247 674,-211 728,-211 728,-247"/>
<text text-anchor="start" x="687.5" y="-226.3" font-family="Helvetica,sans-Serif" font-weight="bold" font-size="14.00" fill="DarkSlateGray">Roll</text>
</g>
<!-- Roll&#45;1&#45;&gt;Roll&#45;12 -->
<g id="edge19" class="edge">
<title>Roll&#45;1&#45;&gt;Roll&#45;12</title>
<path fill="none" stroke="DarkSlateGray" d="M781.94,-332.01C762.09,-327.68 735.92,-318.84 720,-301 709.33,-289.05 704.56,-271.75 702.46,-257.22"/>
<polygon fill="DarkSlateGray" stroke="DarkSlateGray" points="705.94,-256.8 701.36,-247.24 698.98,-257.56 705.94,-256.8"/>
<text text-anchor="middle" x="762.5" y="-289.8" font-family="Courier New" font-size="14.00" fill="DarkSlateGray">sources[2]</text>
</g>
<!-- Roll&#45;13 -->
<g id="node13" class="node">
<title>Roll&#45;13</title>
<polygon fill="none" stroke="DarkSlateGray" points="501,-247 447,-247 447,-211 501,-211 501,-247"/>
<text text-anchor="start" x="460.5" y="-226.3" font-family="Helvetica,sans-Serif" font-weight="bold" font-size="14.00" fill="DarkSlateGray">Roll</text>
</g>
<!-- Roll&#45;1&#45;&gt;Roll&#45;13 -->
<g id="edge20" class="edge">
<title>Roll&#45;1&#45;&gt;Roll&#45;13</title>
<path fill="none" stroke="DarkSlateGray" d="M781.63,-335.59C718.2,-334.2 563.3,-328.04 520,-301 503.49,-290.69 491.75,-272.03 484.26,-256.43"/>
<polygon fill="DarkSlateGray" stroke="DarkSlateGray" points="487.42,-254.92 480.15,-247.21 481.03,-257.77 487.42,-254.92"/>
<text text-anchor="middle" x="562.5" y="-289.8" font-family="Courier New" font-size="14.00" fill="DarkSlateGray">sources[3]</text>
</g>
<!-- Roll&#45;15 -->
<g id="node15" class="node">
<title>Roll&#45;15</title>
<polygon fill="none" stroke="DarkSlateGray" points="836,-247 782,-247 782,-211 836,-211 836,-247"/>
<text text-anchor="start" x="795.5" y="-226.3" font-family="Helvetica,sans-Serif" font-weight="bold" font-size="14.00" fill="DarkSlateGray">Roll</text>
</g>
<!-- Roll&#45;1&#45;&gt;Roll&#45;15 -->
<g id="edge21" class="edge">
<title>Roll&#45;1&#45;&gt;Roll&#45;15</title>
<path fill="none" stroke="DarkSlateGray" d="M809,-318.97C809,-302.38 809,-276.88 809,-257.43"/>
<polygon fill="DarkSlateGray" stroke="DarkSlateGray" points="812.5,-257.34 809,-247.34 805.5,-257.34 812.5,-257.34"/>
<text text-anchor="middle" x="851.5" y="-289.8" font-family="Courier New" font-size="14.00" fill="DarkSlateGray">sources[4]</text>
</g>
<!-- ValueRoller&#45;9 -->
<g id="node9" class="node">
<title>ValueRoller&#45;9</title>
<polygon fill="none" stroke="DarkSlateGray" points="334.5,-139 233.5,-139 233.5,-103 334.5,-103 334.5,-139"/>
<text text-anchor="start" x="245.5" y="-124.8" font-family="Helvetica,sans-Serif" font-weight="bold" font-size="14.00" fill="DarkSlateGray">ValueRoller</text>
<text text-anchor="start" x="241.5" y="-110.8" font-family="Courier New" font-size="14.00" fill="DarkSlateGray">value=H(6)</text>
</g>
<!-- BranchOperationRoller&#45;2&#45;&gt;ValueRoller&#45;9 -->
<g id="edge22" class="edge">
<title>BranchOperationRoller&#45;2&#45;&gt;ValueRoller&#45;9</title>
<path fill="none" stroke="DarkSlateGray" d="M107.43,-225.68C58.05,-221.11 10.2,-209 35,-178 58.12,-149.1 157.11,-134.07 223.09,-127.12"/>
<polygon fill="DarkSlateGray" stroke="DarkSlateGray" points="223.79,-130.56 233.39,-126.07 223.08,-123.6 223.79,-130.56"/>
<text text-anchor="middle" x="77.5" y="-181.8" font-family="Courier New" font-size="14.00" fill="DarkSlateGray">sources[0]</text>
</g>
<!-- BranchOperationRoller&#45;2&#45;&gt;ValueRoller&#45;9 -->
<g id="edge23" class="edge">
<title>BranchOperationRoller&#45;2&#45;&gt;ValueRoller&#45;9</title>
<path fill="none" stroke="DarkSlateGray" d="M158.65,-210.98C145.2,-201.94 134.73,-190.19 143,-178 161.08,-151.37 194.02,-137.41 223.52,-130.08"/>
<polygon fill="DarkSlateGray" stroke="DarkSlateGray" points="224.39,-133.47 233.36,-127.84 222.84,-126.65 224.39,-133.47"/>
<text text-anchor="middle" x="185.5" y="-181.8" font-family="Courier New" font-size="14.00" fill="DarkSlateGray">sources[1]</text>
</g>
<!-- BranchOperationRoller&#45;2&#45;&gt;ValueRoller&#45;9 -->
<g id="edge24" class="edge">
<title>BranchOperationRoller&#45;2&#45;&gt;ValueRoller&#45;9</title>
<path fill="none" stroke="DarkSlateGray" d="M210.86,-210.94C216.49,-205.36 222.63,-199.04 228,-193 241.04,-178.33 254.7,-161.05 265.27,-147.21"/>
<polygon fill="DarkSlateGray" stroke="DarkSlateGray" points="268.17,-149.18 271.41,-139.09 262.59,-144.95 268.17,-149.18"/>
<text text-anchor="middle" x="282.5" y="-181.8" font-family="Courier New" font-size="14.00" fill="DarkSlateGray">sources[2]</text>
</g>
<!-- RollOutcome&#45;10 -->
<g id="node10" class="node">
<title>RollOutcome&#45;10</title>
<polygon fill="none" stroke="DarkSlateGray" points="1055,-52 951,-52 951,-16 1055,-16 1055,-52"/>
<text text-anchor="start" x="959" y="-37.8" font-family="Helvetica,sans-Serif" font-weight="bold" font-size="14.00" fill="DarkSlateGray">RollOutcome</text>
<text text-anchor="start" x="973.5" y="-23.8" font-family="Courier New" font-size="14.00" fill="DarkSlateGray">value=1</text>
</g>
<!-- RollOutcome&#45;3&#45;&gt;RollOutcome&#45;10 -->
<g id="edge25" class="edge">
<title>RollOutcome&#45;3&#45;&gt;RollOutcome&#45;10</title>
<path fill="none" stroke="DarkSlateGray" d="M1096.32,-102.8C1078.64,-89.95 1054.28,-72.26 1034.89,-58.17"/>
<polygon fill="DarkSlateGray" stroke="DarkSlateGray" points="1036.79,-55.22 1026.64,-52.18 1032.67,-60.88 1036.79,-55.22"/>
<text text-anchor="middle" x="1110.5" y="-73.8" font-family="Courier New" font-size="14.00" fill="DarkSlateGray">sources[0]</text>
</g>
<!-- RollOutcome&#45;14 -->
<g id="node14" class="node">
<title>RollOutcome&#45;14</title>
<polygon fill="none" stroke="DarkSlateGray" points="850,-52 746,-52 746,-16 850,-16 850,-52"/>
<text text-anchor="start" x="754" y="-37.8" font-family="Helvetica,sans-Serif" font-weight="bold" font-size="14.00" fill="DarkSlateGray">RollOutcome</text>
<text text-anchor="start" x="768.5" y="-23.8" font-family="Courier New" font-size="14.00" fill="DarkSlateGray">value=1</text>
</g>
<!-- RollOutcome&#45;6&#45;&gt;RollOutcome&#45;14 -->
<g id="edge26" class="edge">
<title>RollOutcome&#45;6&#45;&gt;RollOutcome&#45;14</title>
<path fill="none" stroke="DarkSlateGray" d="M957.53,-102.8C925.71,-89.27 881.24,-70.38 847.33,-55.97"/>
<polygon fill="DarkSlateGray" stroke="DarkSlateGray" points="848.64,-52.72 838.07,-52.03 845.91,-59.16 848.64,-52.72"/>
<text text-anchor="middle" x="951.5" y="-73.8" font-family="Courier New" font-size="14.00" fill="DarkSlateGray">sources[0]</text>
</g>
<!-- Roll&#45;8&#45;&gt;ValueRoller&#45;9 -->
<g id="edge7" class="edge">
<title>Roll&#45;8&#45;&gt;ValueRoller&#45;9</title>
<path fill="none" stroke="DarkSlateGray" d="M369.61,-210.97C352.91,-193.61 326.82,-166.5 307.83,-146.77"/>
<polygon fill="DarkSlateGray" stroke="DarkSlateGray" points="310.14,-144.12 300.69,-139.34 305.1,-148.97 310.14,-144.12"/>
<text text-anchor="middle" x="355.5" y="-181.8" font-family="Courier New" font-size="14.00" fill="DarkSlateGray">r</text>
</g>
<!-- Roll&#45;8&#45;&gt;RollOutcome&#45;10 -->
<g id="edge8" class="edge">
<title>Roll&#45;8&#45;&gt;RollOutcome&#45;10</title>
<path fill="none" stroke="DarkSlateGray" d="M413.21,-213.15C421.03,-209.38 429.7,-205.64 438,-203 463.34,-194.94 474.34,-206.93 497,-193 507.83,-186.34 507.75,-181.07 514,-170 531.74,-138.6 516.39,-116.96 545,-95 552.79,-89.02 817.1,-57.03 940.58,-42.36"/>
<polygon fill="DarkSlateGray" stroke="DarkSlateGray" points="941.14,-45.82 950.65,-41.16 940.31,-38.87 941.14,-45.82"/>
<text text-anchor="middle" x="558" y="-117.3" font-family="Courier New" font-size="14.00" fill="DarkSlateGray">[0]</text>
</g>
<!-- Roll&#45;11&#45;&gt;RollOutcome&#45;4 -->
<g id="edge10" class="edge">
<title>Roll&#45;11&#45;&gt;RollOutcome&#45;4</title>
<path fill="none" stroke="DarkSlateGray" d="M599.27,-210.97C605.43,-194.22 614.92,-168.41 622.11,-148.89"/>
<polygon fill="DarkSlateGray" stroke="DarkSlateGray" points="625.45,-149.93 625.62,-139.34 618.88,-147.52 625.45,-149.93"/>
<text text-anchor="middle" x="624" y="-181.8" font-family="Courier New" font-size="14.00" fill="DarkSlateGray">[0]</text>
</g>
<!-- Roll&#45;11&#45;&gt;ValueRoller&#45;9 -->
<g id="edge9" class="edge">
<title>Roll&#45;11&#45;&gt;ValueRoller&#45;9</title>
<path fill="none" stroke="DarkSlateGray" d="M565.85,-218.69C516.3,-201.69 410.16,-165.28 343.2,-142.31"/>
<polygon fill="DarkSlateGray" stroke="DarkSlateGray" points="344.22,-138.96 333.62,-139.02 341.94,-145.58 344.22,-138.96"/>
<text text-anchor="middle" x="488.5" y="-181.8" font-family="Courier New" font-size="14.00" fill="DarkSlateGray">r</text>
</g>
<!-- Roll&#45;12&#45;&gt;RollOutcome&#45;5 -->
<g id="edge12" class="edge">
<title>Roll&#45;12&#45;&gt;RollOutcome&#45;5</title>
<path fill="none" stroke="DarkSlateGray" d="M709.52,-210.97C717.96,-194.07 731.03,-167.94 740.82,-148.36"/>
<polygon fill="DarkSlateGray" stroke="DarkSlateGray" points="743.99,-149.85 745.33,-139.34 737.73,-146.72 743.99,-149.85"/>
<text text-anchor="middle" x="738" y="-181.8" font-family="Courier New" font-size="14.00" fill="DarkSlateGray">[0]</text>
</g>
<!-- Roll&#45;12&#45;&gt;ValueRoller&#45;9 -->
<g id="edge11" class="edge">
<title>Roll&#45;12&#45;&gt;ValueRoller&#45;9</title>
<path fill="none" stroke="DarkSlateGray" d="M686.11,-210.72C674.99,-199.15 658.71,-184.84 641,-178 601.78,-162.86 493.5,-176.71 452,-170 414.69,-163.97 373.89,-152.43 341.85,-142.19"/>
<polygon fill="DarkSlateGray" stroke="DarkSlateGray" points="342.79,-138.81 332.2,-139.05 340.63,-145.47 342.79,-138.81"/>
<text text-anchor="middle" x="668.5" y="-181.8" font-family="Courier New" font-size="14.00" fill="DarkSlateGray">r</text>
</g>
<!-- Roll&#45;13&#45;&gt;ValueRoller&#45;9 -->
<g id="edge13" class="edge">
<title>Roll&#45;13&#45;&gt;ValueRoller&#45;9</title>
<path fill="none" stroke="DarkSlateGray" d="M446.78,-212.81C414.52,-194.82 360.51,-164.69 323.62,-144.1"/>
<polygon fill="DarkSlateGray" stroke="DarkSlateGray" points="325.07,-140.91 314.63,-139.09 321.66,-147.02 325.07,-140.91"/>
<text text-anchor="middle" x="412.5" y="-181.8" font-family="Courier New" font-size="14.00" fill="DarkSlateGray">r</text>
</g>
<!-- Roll&#45;13&#45;&gt;RollOutcome&#45;14 -->
<g id="edge14" class="edge">
<title>Roll&#45;13&#45;&gt;RollOutcome&#45;14</title>
<path fill="none" stroke="DarkSlateGray" d="M471.61,-210.71C468.79,-183.98 466.86,-131.86 488,-95 497.33,-78.73 504.58,-76.96 522,-70 559.6,-54.98 666.31,-44.62 735.5,-39.26"/>
<polygon fill="DarkSlateGray" stroke="DarkSlateGray" points="736.14,-42.72 745.84,-38.48 735.6,-35.74 736.14,-42.72"/>
<text text-anchor="middle" x="501" y="-117.3" font-family="Courier New" font-size="14.00" fill="DarkSlateGray">[0]</text>
</g>
<!-- Roll&#45;15&#45;&gt;RollOutcome&#45;7 -->
<g id="edge16" class="edge">
<title>Roll&#45;15&#45;&gt;RollOutcome&#45;7</title>
<path fill="none" stroke="DarkSlateGray" d="M819.76,-210.97C830.54,-193.92 847.27,-167.46 859.68,-147.82"/>
<polygon fill="DarkSlateGray" stroke="DarkSlateGray" points="862.66,-149.66 865.04,-139.34 856.74,-145.92 862.66,-149.66"/>
<text text-anchor="middle" x="853" y="-181.8" font-family="Courier New" font-size="14.00" fill="DarkSlateGray">[0]</text>
</g>
<!-- Roll&#45;15&#45;&gt;ValueRoller&#45;9 -->
<g id="edge15" class="edge">
<title>Roll&#45;15&#45;&gt;ValueRoller&#45;9</title>
<path fill="none" stroke="DarkSlateGray" d="M795.99,-210.66C786.16,-199.07 771.57,-184.75 755,-178 723.81,-165.3 485.29,-175.11 452,-170 414.37,-164.22 373.25,-152.57 341.11,-142.2"/>
<polygon fill="DarkSlateGray" stroke="DarkSlateGray" points="342.04,-138.81 331.44,-139.02 339.85,-145.47 342.04,-138.81"/>
<text text-anchor="middle" x="782.5" y="-181.8" font-family="Courier New" font-size="14.00" fill="DarkSlateGray">r</text>
</g>
</g>
</svg>
