<?xml version="1.0" encoding="UTF-8" standalone="no"?>
<!DOCTYPE svg PUBLIC "-//W3C//DTD SVG 1.1//EN"
 "http://www.w3.org/Graphics/SVG/1.1/DTD/svg11.dtd">
<!-- Generated by graphviz version 2.49.3 (20211023.0002)
 -->
<!-- Pages: 1 -->
<svg width="323pt" height="381pt"
 viewBox="0.00 0.00 323.00 381.00" xmlns="http://www.w3.org/2000/svg" xmlns:xlink="http://www.w3.org/1999/xlink">
<g id="graph0" class="graph" transform="scale(1 1) rotate(0) translate(4 377)">
<g id="clust1" class="cluster">
<title>cluster_rolls</title>
<polygon fill="transparent" stroke="DarkSlateGray" stroke-dasharray="1,5" points="135,-290 135,-365 208,-365 208,-290 135,-290"/>
<text text-anchor="start" x="143" y="-350.8" font-family="Helvetica,sans-Serif" font-style="italic" font-size="14.00" fill="DarkSlateGray">Roll Tree</text>
</g>
<g id="clust2" class="cluster">
<title>cluster_rollers</title>
<polygon fill="transparent" stroke="DarkSlateGray" stroke-dasharray="1,5" points="8,-182 8,-257 162,-257 162,-182 8,-182"/>
<text text-anchor="start" x="50.5" y="-242.8" font-family="Helvetica,sans-Serif" font-style="italic" font-size="14.00" fill="DarkSlateGray">Roller Tree</text>
</g>
<g id="clust3" class="cluster">
<title>cluster_roll_outcomes</title>
<polygon fill="transparent" stroke="DarkSlateGray" stroke-dasharray="1,5" points="170,-8 170,-257 290,-257 290,-8 170,-8"/>
<text text-anchor="start" x="184" y="-242.8" font-family="Helvetica,sans-Serif" font-style="italic" font-size="14.00" fill="DarkSlateGray">Roll Outcomes</text>
</g>
<!-- Roll&#45;1 -->
<g id="node1" class="node">
<title>Roll&#45;1</title>
<polygon fill="none" stroke="DarkSlateGray" points="198,-334 144,-334 144,-298 198,-298 198,-334"/>
<text text-anchor="start" x="157.5" y="-313.3" font-family="Helvetica,sans-Serif" font-weight="bold" font-size="14.00" fill="DarkSlateGray">Roll</text>
</g>
<!-- SubstitutionRoller&#45;2 -->
<g id="node2" class="node">
<title>SubstitutionRoller&#45;2</title>
<polygon fill="none" stroke="DarkSlateGray" points="154,-226 16,-226 16,-190 154,-190 154,-226"/>
<text text-anchor="start" x="24" y="-211.8" font-family="Helvetica,sans-Serif" font-weight="bold" font-size="14.00" fill="DarkSlateGray">SubstitutionRoller</text>
<text text-anchor="start" x="42.5" y="-197.8" font-family="Courier New" font-size="14.00" fill="DarkSlateGray">value=H(6)</text>
</g>
<!-- Roll&#45;1&#45;&gt;SubstitutionRoller&#45;2 -->
<g id="edge1" class="edge">
<title>Roll&#45;1&#45;&gt;SubstitutionRoller&#45;2</title>
<path fill="none" stroke="DarkSlateGray" d="M157.18,-297.97C143.22,-280.76 121.49,-253.98 105.52,-234.29"/>
<polygon fill="DarkSlateGray" stroke="DarkSlateGray" points="108.09,-231.9 99.07,-226.34 102.65,-236.31 108.09,-231.9"/>
<text text-anchor="middle" x="144.5" y="-268.8" font-family="Courier New" font-size="14.00" fill="DarkSlateGray">r</text>
</g>
<!-- RollOutcome&#45;3 -->
<g id="node3" class="node">
<title>RollOutcome&#45;3</title>
<polygon fill="none" stroke="DarkSlateGray" points="282,-226 178,-226 178,-190 282,-190 282,-226"/>
<text text-anchor="start" x="186" y="-211.8" font-family="Helvetica,sans-Serif" font-weight="bold" font-size="14.00" fill="DarkSlateGray">RollOutcome</text>
<text text-anchor="start" x="200.5" y="-197.8" font-family="Courier New" font-size="14.00" fill="DarkSlateGray">value=2</text>
</g>
<!-- Roll&#45;1&#45;&gt;RollOutcome&#45;3 -->
<g id="edge2" class="edge">
<title>Roll&#45;1&#45;&gt;RollOutcome&#45;3</title>
<path fill="none" stroke="DarkSlateGray" d="M180.48,-297.97C189.93,-280.99 204.56,-254.7 215.48,-235.09"/>
<polygon fill="DarkSlateGray" stroke="DarkSlateGray" points="218.54,-236.78 220.35,-226.34 212.43,-233.38 218.54,-236.78"/>
<text text-anchor="middle" x="211" y="-268.8" font-family="Courier New" font-size="14.00" fill="DarkSlateGray">[0]</text>
</g>
<!-- RollOutcome&#45;4 -->
<g id="node4" class="node">
<title>RollOutcome&#45;4</title>
<polygon fill="none" stroke="DarkSlateGray" points="282,-139 178,-139 178,-103 282,-103 282,-139"/>
<text text-anchor="start" x="186" y="-124.8" font-family="Helvetica,sans-Serif" font-weight="bold" font-size="14.00" fill="DarkSlateGray">RollOutcome</text>
<text text-anchor="start" x="200.5" y="-110.8" font-family="Courier New" font-size="14.00" fill="DarkSlateGray">value=1</text>
</g>
<!-- RollOutcome&#45;3&#45;&gt;RollOutcome&#45;4 -->
<g id="edge3" class="edge">
<title>RollOutcome&#45;3&#45;&gt;RollOutcome&#45;4</title>
<path fill="none" stroke="DarkSlateGray" d="M230,-189.8C230,-178.16 230,-162.55 230,-149.24"/>
<polygon fill="DarkSlateGray" stroke="DarkSlateGray" points="233.5,-149.18 230,-139.18 226.5,-149.18 233.5,-149.18"/>
<text text-anchor="middle" x="272.5" y="-160.8" font-family="Courier New" font-size="14.00" fill="DarkSlateGray">sources[0]</text>
</g>
<!-- RollOutcome&#45;5 -->
<g id="node5" class="node">
<title>RollOutcome&#45;5</title>
<polygon fill="none" stroke="DarkSlateGray" points="282,-52 178,-52 178,-16 282,-16 282,-52"/>
<text text-anchor="start" x="186" y="-37.8" font-family="Helvetica,sans-Serif" font-weight="bold" font-size="14.00" fill="DarkSlateGray">RollOutcome</text>
<text text-anchor="start" x="200.5" y="-23.8" font-family="Courier New" font-size="14.00" fill="DarkSlateGray">value=1</text>
</g>
<!-- RollOutcome&#45;4&#45;&gt;RollOutcome&#45;5 -->
<g id="edge4" class="edge">
<title>RollOutcome&#45;4&#45;&gt;RollOutcome&#45;5</title>
<path fill="none" stroke="DarkSlateGray" d="M230,-102.8C230,-91.16 230,-75.55 230,-62.24"/>
<polygon fill="DarkSlateGray" stroke="DarkSlateGray" points="233.5,-62.18 230,-52.18 226.5,-62.18 233.5,-62.18"/>
<text text-anchor="middle" x="272.5" y="-73.8" font-family="Courier New" font-size="14.00" fill="DarkSlateGray">sources[0]</text>
</g>
</g>
</svg>
