<?xml version="1.0" encoding="UTF-8" standalone="no"?>
<!DOCTYPE svg PUBLIC "-//W3C//DTD SVG 1.1//EN"
 "http://www.w3.org/Graphics/SVG/1.1/DTD/svg11.dtd">
<!-- Generated by graphviz version 2.49.3 (20211023.0002)
 -->
<!-- Pages: 1 -->
<svg width="728pt" height="489pt"
 viewBox="0.00 0.00 728.00 489.00" xmlns="http://www.w3.org/2000/svg" xmlns:xlink="http://www.w3.org/1999/xlink">
<g id="graph0" class="graph" transform="scale(1 1) rotate(0) translate(4 485)">
<g id="clust1" class="cluster">
<title>cluster_rolls</title>
<polygon fill="transparent" stroke="Azure" stroke-dasharray="1,5" points="170,-290 170,-473 505,-473 505,-290 170,-290"/>
<text text-anchor="start" x="309" y="-458.8" font-family="Helvetica,sans-Serif" font-style="italic" font-size="14.00" fill="Azure">Roll Tree</text>
</g>
<g id="clust2" class="cluster">
<title>cluster_rollers</title>
<polygon fill="transparent" stroke="Azure" stroke-dasharray="1,5" points="8,-182 8,-365 162,-365 162,-182 8,-182"/>
<text text-anchor="start" x="50.5" y="-350.8" font-family="Helvetica,sans-Serif" font-style="italic" font-size="14.00" fill="Azure">Roller Tree</text>
</g>
<g id="clust3" class="cluster">
<title>cluster_roll_outcomes</title>
<polygon fill="transparent" stroke="Azure" stroke-dasharray="1,5" points="384,-8 384,-257 626,-257 626,-8 384,-8"/>
<text text-anchor="start" x="459" y="-242.8" font-family="Helvetica,sans-Serif" font-style="italic" font-size="14.00" fill="Azure">Roll Outcomes</text>
</g>
<!-- Roll&#45;1 -->
<g id="node1" class="node">
<title>Roll&#45;1</title>
<polygon fill="none" stroke="Azure" points="439,-442 385,-442 385,-406 439,-406 439,-442"/>
<text text-anchor="start" x="398.5" y="-421.3" font-family="Helvetica,sans-Serif" font-weight="bold" font-size="14.00" fill="Azure">Roll</text>
</g>
<!-- SubstitutionRoller&#45;2 -->
<g id="node2" class="node">
<title>SubstitutionRoller&#45;2</title>
<polygon fill="none" stroke="Azure" points="154,-334 16,-334 16,-298 154,-298 154,-334"/>
<text text-anchor="start" x="24" y="-313.3" font-family="Helvetica,sans-Serif" font-weight="bold" font-size="14.00" fill="Azure">SubstitutionRoller</text>
</g>
<!-- Roll&#45;1&#45;&gt;SubstitutionRoller&#45;2 -->
<g id="edge1" class="edge">
<title>Roll&#45;1&#45;&gt;SubstitutionRoller&#45;2</title>
<path fill="none" stroke="Azure" d="M384.68,-423C340.43,-422.09 251.07,-416.51 182,-388 155.23,-376.95 128.99,-357.02 110.56,-341.09"/>
<polygon fill="Azure" stroke="Azure" points="112.47,-338.11 102.67,-334.09 107.83,-343.34 112.47,-338.11"/>
<text text-anchor="middle" x="186.5" y="-376.8" font-family="Courier New" font-size="14.00" fill="Azure">r</text>
</g>
<!-- RollOutcome&#45;3 -->
<g id="node3" class="node">
<title>RollOutcome&#45;3</title>
<polygon fill="none" stroke="Azure" stroke-dasharray="1,5" points="618,-139 514,-139 514,-103 618,-103 618,-139"/>
<text text-anchor="start" x="522" y="-124.8" font-family="Helvetica,sans-Serif" font-weight="bold" font-size="14.00" fill="Azure">RollOutcome</text>
<text text-anchor="start" x="523.5" y="-110.8" font-family="Courier New" font-size="14.00" fill="Azure">value=None</text>
</g>
<!-- Roll&#45;1&#45;&gt;RollOutcome&#45;3 -->
<g id="edge2" class="edge">
<title>Roll&#45;1&#45;&gt;RollOutcome&#45;3</title>
<path fill="none" stroke="Azure" d="M439.12,-415.53C457.9,-409.66 483.01,-400.41 503,-388 546.76,-360.84 607.5,-307.13 627,-257 643.19,-215.37 644.91,-191.87 617,-157 613.69,-152.86 609.76,-149.02 605.57,-145.51"/>
<polygon fill="Azure" stroke="Azure" points="607.36,-142.48 597.29,-139.18 603.11,-148.04 607.36,-142.48"/>
<text text-anchor="middle" x="636" y="-268.8" font-family="Courier New" font-size="14.00" fill="Azure">[0]</text>
</g>
<!-- RollOutcome&#45;4 -->
<g id="node4" class="node">
<title>RollOutcome&#45;4</title>
<polygon fill="none" stroke="Azure" stroke-dasharray="1,5" points="618,-226 514,-226 514,-190 618,-190 618,-226"/>
<text text-anchor="start" x="522" y="-211.8" font-family="Helvetica,sans-Serif" font-weight="bold" font-size="14.00" fill="Azure">RollOutcome</text>
<text text-anchor="start" x="523.5" y="-197.8" font-family="Courier New" font-size="14.00" fill="Azure">value=None</text>
</g>
<!-- Roll&#45;1&#45;&gt;RollOutcome&#45;4 -->
<g id="edge3" class="edge">
<title>Roll&#45;1&#45;&gt;RollOutcome&#45;4</title>
<path fill="none" stroke="Azure" d="M439.28,-423.1C497.14,-422.7 629.38,-418.41 660,-388 699.11,-349.15 704.81,-312 676,-265 665.03,-247.1 646.34,-234.7 627.46,-226.21"/>
<polygon fill="Azure" stroke="Azure" points="628.78,-222.97 618.2,-222.35 626.08,-229.43 628.78,-222.97"/>
<text text-anchor="middle" x="707" y="-312.3" font-family="Courier New" font-size="14.00" fill="Azure">[1]</text>
</g>
<!-- RollOutcome&#45;5 -->
<g id="node5" class="node">
<title>RollOutcome&#45;5</title>
<polygon fill="none" stroke="Azure" points="496,-226 392,-226 392,-190 496,-190 496,-226"/>
<text text-anchor="start" x="400" y="-211.8" font-family="Helvetica,sans-Serif" font-weight="bold" font-size="14.00" fill="Azure">RollOutcome</text>
<text text-anchor="start" x="414.5" y="-197.8" font-family="Courier New" font-size="14.00" fill="Azure">value=2</text>
</g>
<!-- Roll&#45;1&#45;&gt;RollOutcome&#45;5 -->
<g id="edge4" class="edge">
<title>Roll&#45;1&#45;&gt;RollOutcome&#45;5</title>
<path fill="none" stroke="Azure" d="M439.09,-417.8C455.72,-413.06 475.74,-404.21 486,-388 516.54,-339.77 483.91,-271.57 461.47,-234.83"/>
<polygon fill="Azure" stroke="Azure" points="464.32,-232.8 456.03,-226.21 458.4,-236.53 464.32,-232.8"/>
<text text-anchor="middle" x="511" y="-312.3" font-family="Courier New" font-size="14.00" fill="Azure">[2]</text>
</g>
<!-- Roll&#45;6 -->
<g id="node6" class="node">
<title>Roll&#45;6</title>
<polygon fill="none" stroke="Azure" points="232,-334 178,-334 178,-298 232,-298 232,-334"/>
<text text-anchor="start" x="191.5" y="-313.3" font-family="Helvetica,sans-Serif" font-weight="bold" font-size="14.00" fill="Azure">Roll</text>
</g>
<!-- Roll&#45;1&#45;&gt;Roll&#45;6 -->
<g id="edge11" class="edge">
<title>Roll&#45;1&#45;&gt;Roll&#45;6</title>
<path fill="none" stroke="Azure" d="M384.69,-422.64C333.26,-421.32 225.11,-415.29 202,-388 191.93,-376.11 192.52,-358.66 195.72,-344.04"/>
<polygon fill="Azure" stroke="Azure" points="199.2,-344.57 198.38,-334.01 192.43,-342.78 199.2,-344.57"/>
<text text-anchor="middle" x="244.5" y="-376.8" font-family="Courier New" font-size="14.00" fill="Azure">sources[0]</text>
</g>
<!-- Roll&#45;9 -->
<g id="node9" class="node">
<title>Roll&#45;9</title>
<polygon fill="none" stroke="Azure" points="376,-334 322,-334 322,-298 376,-298 376,-334"/>
<text text-anchor="start" x="335.5" y="-313.3" font-family="Helvetica,sans-Serif" font-weight="bold" font-size="14.00" fill="Azure">Roll</text>
</g>
<!-- Roll&#45;1&#45;&gt;Roll&#45;9 -->
<g id="edge12" class="edge">
<title>Roll&#45;1&#45;&gt;Roll&#45;9</title>
<path fill="none" stroke="Azure" d="M405.55,-405.89C401.57,-396.01 396.07,-383.51 390,-373 384.01,-362.61 376.48,-351.84 369.51,-342.54"/>
<polygon fill="Azure" stroke="Azure" points="372.19,-340.29 363.33,-334.48 366.64,-344.55 372.19,-340.29"/>
<text text-anchor="middle" x="439.5" y="-376.8" font-family="Courier New" font-size="14.00" fill="Azure">sources[1]</text>
</g>
<!-- Roll&#45;11 -->
<g id="node11" class="node">
<title>Roll&#45;11</title>
<polygon fill="none" stroke="Azure" points="304,-334 250,-334 250,-298 304,-298 304,-334"/>
<text text-anchor="start" x="263.5" y="-313.3" font-family="Helvetica,sans-Serif" font-weight="bold" font-size="14.00" fill="Azure">Roll</text>
</g>
<!-- Roll&#45;1&#45;&gt;Roll&#45;11 -->
<g id="edge13" class="edge">
<title>Roll&#45;1&#45;&gt;Roll&#45;11</title>
<path fill="none" stroke="Azure" d="M384.73,-421.25C359.81,-418.23 323.52,-410.06 301,-388 289.26,-376.5 283.26,-359.06 280.2,-344.34"/>
<polygon fill="Azure" stroke="Azure" points="283.6,-343.48 278.44,-334.23 276.7,-344.68 283.6,-343.48"/>
<text text-anchor="middle" x="343.5" y="-376.8" font-family="Courier New" font-size="14.00" fill="Azure">sources[2]</text>
</g>
<!-- ValueRoller&#45;7 -->
<g id="node7" class="node">
<title>ValueRoller&#45;7</title>
<polygon fill="none" stroke="Azure" points="153.5,-226 52.5,-226 52.5,-190 153.5,-190 153.5,-226"/>
<text text-anchor="start" x="64.5" y="-211.8" font-family="Helvetica,sans-Serif" font-weight="bold" font-size="14.00" fill="Azure">ValueRoller</text>
<text text-anchor="start" x="60.5" y="-197.8" font-family="Courier New" font-size="14.00" fill="Azure">value=H(6)</text>
</g>
<!-- SubstitutionRoller&#45;2&#45;&gt;ValueRoller&#45;7 -->
<g id="edge14" class="edge">
<title>SubstitutionRoller&#45;2&#45;&gt;ValueRoller&#45;7</title>
<path fill="none" stroke="Azure" d="M76.16,-297.88C72.28,-288.23 69.17,-275.94 72,-265 74.71,-254.51 79.85,-243.89 85.18,-234.75"/>
<polygon fill="Azure" stroke="Azure" points="88.2,-236.52 90.49,-226.18 82.25,-232.84 88.2,-236.52"/>
<text text-anchor="middle" x="114.5" y="-268.8" font-family="Courier New" font-size="14.00" fill="Azure">sources[0]</text>
</g>
<!-- RollOutcome&#45;8 -->
<g id="node8" class="node">
<title>RollOutcome&#45;8</title>
<polygon fill="none" stroke="Azure" points="496,-52 392,-52 392,-16 496,-16 496,-52"/>
<text text-anchor="start" x="400" y="-37.8" font-family="Helvetica,sans-Serif" font-weight="bold" font-size="14.00" fill="Azure">RollOutcome</text>
<text text-anchor="start" x="414.5" y="-23.8" font-family="Courier New" font-size="14.00" fill="Azure">value=1</text>
</g>
<!-- RollOutcome&#45;3&#45;&gt;RollOutcome&#45;8 -->
<g id="edge15" class="edge">
<title>RollOutcome&#45;3&#45;&gt;RollOutcome&#45;8</title>
<path fill="none" stroke="Azure" d="M549.14,-102.57C538.72,-92.35 524.75,-79.6 511,-70 504.42,-65.4 497.16,-61.01 489.92,-56.97"/>
<polygon fill="Azure" stroke="Azure" points="491.27,-53.73 480.81,-52.07 487.96,-59.89 491.27,-53.73"/>
<text text-anchor="middle" x="570.5" y="-73.8" font-family="Courier New" font-size="14.00" fill="Azure">sources[0]</text>
</g>
<!-- RollOutcome&#45;10 -->
<g id="node10" class="node">
<title>RollOutcome&#45;10</title>
<polygon fill="none" stroke="Azure" points="496,-139 392,-139 392,-103 496,-103 496,-139"/>
<text text-anchor="start" x="400" y="-124.8" font-family="Helvetica,sans-Serif" font-weight="bold" font-size="14.00" fill="Azure">RollOutcome</text>
<text text-anchor="start" x="414.5" y="-110.8" font-family="Courier New" font-size="14.00" fill="Azure">value=1</text>
</g>
<!-- RollOutcome&#45;4&#45;&gt;RollOutcome&#45;10 -->
<g id="edge16" class="edge">
<title>RollOutcome&#45;4&#45;&gt;RollOutcome&#45;10</title>
<path fill="none" stroke="Azure" d="M549.14,-189.57C538.72,-179.35 524.75,-166.6 511,-157 504.42,-152.4 497.16,-148.01 489.92,-143.97"/>
<polygon fill="Azure" stroke="Azure" points="491.27,-140.73 480.81,-139.07 487.96,-146.89 491.27,-140.73"/>
<text text-anchor="middle" x="570.5" y="-160.8" font-family="Courier New" font-size="14.00" fill="Azure">sources[0]</text>
</g>
<!-- RollOutcome&#45;5&#45;&gt;RollOutcome&#45;10 -->
<g id="edge17" class="edge">
<title>RollOutcome&#45;5&#45;&gt;RollOutcome&#45;10</title>
<path fill="none" stroke="Azure" d="M433.12,-189.83C430.22,-184.35 427.48,-178.11 426,-172 424.13,-164.27 425.56,-156.07 428.28,-148.6"/>
<polygon fill="Azure" stroke="Azure" points="431.55,-149.86 432.43,-139.3 425.16,-147.01 431.55,-149.86"/>
<text text-anchor="middle" x="468.5" y="-160.8" font-family="Courier New" font-size="14.00" fill="Azure">sources[0]</text>
</g>
<!-- Roll&#45;6&#45;&gt;ValueRoller&#45;7 -->
<g id="edge5" class="edge">
<title>Roll&#45;6&#45;&gt;ValueRoller&#45;7</title>
<path fill="none" stroke="Azure" d="M188.57,-297.87C179.3,-288.21 167.51,-275.93 157,-265 147.1,-254.71 136.16,-243.37 126.74,-233.6"/>
<polygon fill="Azure" stroke="Azure" points="129.02,-230.91 119.55,-226.15 123.98,-235.77 129.02,-230.91"/>
<text text-anchor="middle" x="175.5" y="-268.8" font-family="Courier New" font-size="14.00" fill="Azure">r</text>
</g>
<!-- Roll&#45;6&#45;&gt;RollOutcome&#45;8 -->
<g id="edge6" class="edge">
<title>Roll&#45;6&#45;&gt;RollOutcome&#45;8</title>
<path fill="none" stroke="Azure" d="M207.98,-297.97C210.25,-287.89 214.03,-275.15 220,-265 271.97,-176.67 364.84,-96.58 413.04,-58.45"/>
<polygon fill="Azure" stroke="Azure" points="415.23,-61.19 420.95,-52.27 410.92,-55.68 415.23,-61.19"/>
<text text-anchor="middle" x="316" y="-160.8" font-family="Courier New" font-size="14.00" fill="Azure">[0]</text>
</g>
<!-- Roll&#45;9&#45;&gt;ValueRoller&#45;7 -->
<g id="edge7" class="edge">
<title>Roll&#45;9&#45;&gt;ValueRoller&#45;7</title>
<path fill="none" stroke="Azure" d="M336.83,-297.88C328.25,-286.99 315.85,-273.4 302,-265 259.62,-239.29 205.05,-225.02 163.77,-217.33"/>
<polygon fill="Azure" stroke="Azure" points="164.31,-213.87 153.85,-215.56 163.08,-220.76 164.31,-213.87"/>
<text text-anchor="middle" x="324.5" y="-268.8" font-family="Courier New" font-size="14.00" fill="Azure">r</text>
</g>
<!-- Roll&#45;9&#45;&gt;RollOutcome&#45;10 -->
<g id="edge8" class="edge">
<title>Roll&#45;9&#45;&gt;RollOutcome&#45;10</title>
<path fill="none" stroke="Azure" d="M345.51,-297.72C341.05,-270.99 336.2,-218.87 357,-182 365.89,-166.24 380.85,-153.71 395.87,-144.27"/>
<polygon fill="Azure" stroke="Azure" points="397.85,-147.17 404.69,-139.07 394.29,-141.14 397.85,-147.17"/>
<text text-anchor="middle" x="370" y="-204.3" font-family="Courier New" font-size="14.00" fill="Azure">[0]</text>
</g>
<!-- RollOutcome&#45;10&#45;&gt;RollOutcome&#45;8 -->
<g id="edge18" class="edge">
<title>RollOutcome&#45;10&#45;&gt;RollOutcome&#45;8</title>
<path fill="none" stroke="Azure" d="M433.12,-102.83C430.22,-97.35 427.48,-91.11 426,-85 424.13,-77.27 425.56,-69.07 428.28,-61.6"/>
<polygon fill="Azure" stroke="Azure" points="431.55,-62.86 432.43,-52.3 425.16,-60.01 431.55,-62.86"/>
<text text-anchor="middle" x="468.5" y="-73.8" font-family="Courier New" font-size="14.00" fill="Azure">sources[0]</text>
</g>
<!-- Roll&#45;11&#45;&gt;RollOutcome&#45;5 -->
<g id="edge10" class="edge">
<title>Roll&#45;11&#45;&gt;RollOutcome&#45;5</title>
<path fill="none" stroke="Azure" d="M271.15,-297.58C268.75,-286.84 268.1,-273.54 276,-265 291.44,-248.31 356.67,-264.87 378,-257 392.65,-251.59 406.93,-241.94 418.43,-232.7"/>
<polygon fill="Azure" stroke="Azure" points="420.87,-235.23 426.28,-226.12 416.37,-229.86 420.87,-235.23"/>
<text text-anchor="middle" x="289" y="-268.8" font-family="Courier New" font-size="14.00" fill="Azure">[0]</text>
</g>
<!-- Roll&#45;11&#45;&gt;ValueRoller&#45;7 -->
<g id="edge9" class="edge">
<title>Roll&#45;11&#45;&gt;ValueRoller&#45;7</title>
<path fill="none" stroke="Azure" d="M252.77,-297.8C248.87,-295.14 244.85,-292.46 241,-290 208.41,-269.16 170.44,-247.02 142.59,-231.17"/>
<polygon fill="Azure" stroke="Azure" points="143.98,-227.93 133.55,-226.04 140.52,-234.02 143.98,-227.93"/>
<text text-anchor="middle" x="227.5" y="-268.8" font-family="Courier New" font-size="14.00" fill="Azure">r</text>
</g>
</g>
</svg>
