<?xml version="1.0" encoding="UTF-8" standalone="no"?>
<!DOCTYPE svg PUBLIC "-//W3C//DTD SVG 1.1//EN"
 "http://www.w3.org/Graphics/SVG/1.1/DTD/svg11.dtd">
<!-- Generated by graphviz version 2.50.0 (20211204.2007)
 -->
<!-- Pages: 1 -->
<svg width="734pt" height="294pt"
 viewBox="0.00 0.00 734.00 294.00" xmlns="http://www.w3.org/2000/svg" xmlns:xlink="http://www.w3.org/1999/xlink">
<g id="graph0" class="graph" transform="scale(1 1) rotate(0) translate(4 290)">
<g id="clust1" class="cluster">
<title>cluster_rolls</title>
<polygon fill="transparent" stroke="Azure" stroke-dasharray="1,5" points="249,-95 249,-278 472,-278 472,-95 249,-95"/>
<text text-anchor="start" x="333" y="-263.8" font-family="Helvetica,sans-Serif" font-style="italic" font-size="14.00" fill="Azure">Roll Tree</text>
</g>
<g id="clust2" class="cluster">
<title>cluster_rollers</title>
<polygon fill="transparent" stroke="Azure" stroke-dasharray="1,5" points="8,-8 8,-170 241,-170 241,-8 8,-8"/>
<text text-anchor="start" x="91" y="-155.8" font-family="Helvetica,sans-Serif" font-style="italic" font-size="14.00" fill="Azure">Roller Tree</text>
</g>
<g id="clust3" class="cluster">
<title>cluster_roll_outcomes</title>
<polygon fill="transparent" stroke="Azure" stroke-dasharray="1,5" points="480,-8 480,-170 718,-170 718,-8 480,-8"/>
<text text-anchor="start" x="553.5" y="-155.8" font-family="Helvetica,sans-Serif" font-style="italic" font-size="14.00" fill="Azure">Roll Outcomes</text>
</g>
<!-- Roll&#45;1 -->
<g id="node1" class="node">
<title>Roll&#45;1</title>
<polygon fill="none" stroke="Azure" points="359,-247 305,-247 305,-211 359,-211 359,-247"/>
<text text-anchor="start" x="319" y="-226.3" font-family="Helvetica,sans-Serif" font-weight="bold" font-size="14.00" fill="Azure">Roll</text>
</g>
<!-- BinarySumOpRoller&#45;2 -->
<g id="node2" class="node">
<title>BinarySumOpRoller&#45;2</title>
<polygon fill="none" stroke="Azure" points="223,-139 77,-139 77,-103 223,-103 223,-139"/>
<text text-anchor="start" x="85" y="-124.8" font-family="Helvetica,sans-Serif" font-weight="bold" font-size="14.00" fill="Azure">BinarySumOpRoller</text>
<text text-anchor="start" x="108.5" y="-110.8" font-family="Courier New" font-size="14.00" fill="Azure">bin_op=add</text>
</g>
<!-- Roll&#45;1&#45;&gt;BinarySumOpRoller&#45;2 -->
<g id="edge1" class="edge">
<title>Roll&#45;1&#45;&gt;BinarySumOpRoller&#45;2</title>
<path fill="none" stroke="Azure" d="M304.88,-216.02C290.94,-209.61 273.82,-201.33 259,-193 232.53,-178.12 203.79,-159.28 182.47,-144.75"/>
<polygon fill="Azure" stroke="Azure" points="184.33,-141.78 174.11,-139.01 180.37,-147.55 184.33,-141.78"/>
<text text-anchor="middle" x="263.5" y="-181.8" font-family="Courier New" font-size="14.00" fill="Azure">r</text>
</g>
<!-- RollOutcome&#45;3 -->
<g id="node3" class="node">
<title>RollOutcome&#45;3</title>
<polygon fill="none" stroke="Azure" points="590,-139 488,-139 488,-103 590,-103 590,-139"/>
<text text-anchor="start" x="496" y="-124.8" font-family="Helvetica,sans-Serif" font-weight="bold" font-size="14.00" fill="Azure">RollOutcome</text>
<text text-anchor="start" x="505.5" y="-110.8" font-family="Courier New" font-size="14.00" fill="Azure">value=11</text>
</g>
<!-- Roll&#45;1&#45;&gt;RollOutcome&#45;3 -->
<g id="edge2" class="edge">
<title>Roll&#45;1&#45;&gt;RollOutcome&#45;3</title>
<path fill="none" stroke="Azure" d="M359.39,-223.27C384.52,-218.18 422.23,-208.66 452,-193 475.28,-180.76 498.19,-161.7 514.65,-146.41"/>
<polygon fill="Azure" stroke="Azure" points="517.34,-148.67 522.18,-139.25 512.52,-143.6 517.34,-148.67"/>
<text text-anchor="middle" x="487.5" y="-181.8" font-family="Courier New" font-size="14.00" fill="Azure">[0]</text>
</g>
<!-- Roll&#45;4 -->
<g id="node4" class="node">
<title>Roll&#45;4</title>
<polygon fill="none" stroke="LightBlue" stroke-dasharray="5,2" points="311,-139 257,-139 257,-103 311,-103 311,-139"/>
<text text-anchor="start" x="271" y="-118.3" font-family="Helvetica,sans-Serif" font-weight="bold" font-size="14.00" fill="LightBlue">Roll</text>
</g>
<!-- Roll&#45;1&#45;&gt;Roll&#45;4 -->
<g id="edge7" class="edge">
<title>Roll&#45;1&#45;&gt;Roll&#45;4</title>
<path fill="none" stroke="LightBlue" stroke-dasharray="5,2" d="M304.98,-218.04C293.93,-212.48 282.28,-204.33 276,-193 268.67,-179.77 270.13,-163.04 273.68,-149.14"/>
<polygon fill="LightBlue" stroke="LightBlue" points="277.15,-149.76 276.69,-139.17 270.45,-147.73 277.15,-149.76"/>
<text text-anchor="middle" x="317.5" y="-181.8" font-family="Courier New" font-size="14.00" fill="LightBlue">sources[0]</text>
</g>
<!-- Roll&#45;7 -->
<g id="node7" class="node">
<title>Roll&#45;7</title>
<polygon fill="none" stroke="LightPink" stroke-dasharray="5,2" points="408,-139 354,-139 354,-103 408,-103 408,-139"/>
<text text-anchor="start" x="368" y="-118.3" font-family="Helvetica,sans-Serif" font-weight="bold" font-size="14.00" fill="LightPink">Roll</text>
</g>
<!-- Roll&#45;1&#45;&gt;Roll&#45;7 -->
<g id="edge8" class="edge">
<title>Roll&#45;1&#45;&gt;Roll&#45;7</title>
<path fill="none" stroke="LightPink" stroke-dasharray="5,2" d="M347.32,-210.67C351.54,-205.28 355.82,-199.13 359,-193 366.2,-179.13 371.51,-162.49 375.11,-148.8"/>
<polygon fill="LightPink" stroke="LightPink" points="378.53,-149.56 377.53,-139.01 371.73,-147.88 378.53,-149.56"/>
<text text-anchor="middle" x="406.5" y="-181.8" font-family="Courier New" font-size="14.00" fill="LightPink">sources[1]</text>
</g>
<!-- ValueRoller&#45;5 -->
<g id="node5" class="node">
<title>ValueRoller&#45;5</title>
<polygon fill="none" stroke="LightBlue" stroke-dasharray="5,2" points="123.5,-52 16.5,-52 16.5,-16 123.5,-16 123.5,-52"/>
<text text-anchor="start" x="32.5" y="-37.8" font-family="Helvetica,sans-Serif" font-weight="bold" font-size="14.00" fill="LightBlue">ValueRoller</text>
<text text-anchor="start" x="24.5" y="-23.8" font-family="Courier New" font-size="14.00" fill="LightBlue">value=H(12)</text>
</g>
<!-- BinarySumOpRoller&#45;2&#45;&gt;ValueRoller&#45;5 -->
<g id="edge9" class="edge">
<title>BinarySumOpRoller&#45;2&#45;&gt;ValueRoller&#45;5</title>
<path fill="none" stroke="LightBlue" stroke-dasharray="5,2" d="M94.1,-102.89C86.27,-98.25 79.16,-92.38 74,-85 69.42,-78.45 67.62,-70.17 67.18,-62.24"/>
<polygon fill="LightBlue" stroke="LightBlue" points="70.68,-62.23 67.27,-52.19 63.68,-62.16 70.68,-62.23"/>
<text text-anchor="middle" x="115.5" y="-73.8" font-family="Courier New" font-size="14.00" fill="LightBlue">sources[0]</text>
</g>
<!-- ValueRoller&#45;8 -->
<g id="node8" class="node">
<title>ValueRoller&#45;8</title>
<polygon fill="none" stroke="LightPink" stroke-dasharray="5,2" points="232.5,-52 141.5,-52 141.5,-16 232.5,-16 232.5,-52"/>
<text text-anchor="start" x="149.5" y="-37.8" font-family="Helvetica,sans-Serif" font-weight="bold" font-size="14.00" fill="LightPink">ValueRoller</text>
<text text-anchor="start" x="158" y="-23.8" font-family="Courier New" font-size="14.00" fill="LightPink">value=4</text>
</g>
<!-- BinarySumOpRoller&#45;2&#45;&gt;ValueRoller&#45;8 -->
<g id="edge10" class="edge">
<title>BinarySumOpRoller&#45;2&#45;&gt;ValueRoller&#45;8</title>
<path fill="none" stroke="LightPink" stroke-dasharray="5,2" d="M154.39,-102.97C157.19,-93.13 161.19,-80.63 166,-70 167.37,-66.97 168.95,-63.87 170.61,-60.83"/>
<polygon fill="LightPink" stroke="LightPink" points="173.73,-62.43 175.71,-52.02 167.67,-58.92 173.73,-62.43"/>
<text text-anchor="middle" x="207.5" y="-73.8" font-family="Courier New" font-size="14.00" fill="LightPink">sources[1]</text>
</g>
<!-- RollOutcome&#45;6 -->
<g id="node6" class="node">
<title>RollOutcome&#45;6</title>
<polygon fill="none" stroke="LightBlue" stroke-dasharray="5,2" points="590,-52 488,-52 488,-16 590,-16 590,-52"/>
<text text-anchor="start" x="496" y="-37.8" font-family="Helvetica,sans-Serif" font-weight="bold" font-size="14.00" fill="LightBlue">RollOutcome</text>
<text text-anchor="start" x="510" y="-23.8" font-family="Courier New" font-size="14.00" fill="LightBlue">value=7</text>
</g>
<!-- RollOutcome&#45;3&#45;&gt;RollOutcome&#45;6 -->
<g id="edge11" class="edge">
<title>RollOutcome&#45;3&#45;&gt;RollOutcome&#45;6</title>
<path fill="none" stroke="LightBlue" stroke-dasharray="5,2" d="M528.07,-102.67C523.36,-93.16 519.45,-81.08 522,-70 522.65,-67.16 523.57,-64.29 524.64,-61.47"/>
<polygon fill="LightBlue" stroke="LightBlue" points="527.88,-62.79 528.72,-52.23 521.48,-59.96 527.88,-62.79"/>
<text text-anchor="middle" x="563.5" y="-73.8" font-family="Courier New" font-size="14.00" fill="LightBlue">sources[0]</text>
</g>
<!-- RollOutcome&#45;9 -->
<g id="node9" class="node">
<title>RollOutcome&#45;9</title>
<polygon fill="none" stroke="LightPink" stroke-dasharray="5,2" points="710,-52 608,-52 608,-16 710,-16 710,-52"/>
<text text-anchor="start" x="616" y="-37.8" font-family="Helvetica,sans-Serif" font-weight="bold" font-size="14.00" fill="LightPink">RollOutcome</text>
<text text-anchor="start" x="630" y="-23.8" font-family="Courier New" font-size="14.00" fill="LightPink">value=4</text>
</g>
<!-- RollOutcome&#45;3&#45;&gt;RollOutcome&#45;9 -->
<g id="edge12" class="edge">
<title>RollOutcome&#45;3&#45;&gt;RollOutcome&#45;9</title>
<path fill="none" stroke="LightPink" stroke-dasharray="5,2" d="M575.28,-102.92C585.23,-97.67 595.8,-91.53 605,-85 615.58,-77.49 626.27,-68.07 635.31,-59.43"/>
<polygon fill="LightPink" stroke="LightPink" points="637.77,-61.92 642.48,-52.43 632.88,-56.91 637.77,-61.92"/>
<text text-anchor="middle" x="663.5" y="-73.8" font-family="Courier New" font-size="14.00" fill="LightPink">sources[1]</text>
</g>
<!-- Roll&#45;4&#45;&gt;ValueRoller&#45;5 -->
<g id="edge3" class="edge">
<title>Roll&#45;4&#45;&gt;ValueRoller&#45;5</title>
<path fill="none" stroke="LightBlue" stroke-dasharray="5,2" d="M276.46,-102.85C270.62,-91.65 261.42,-77.72 249,-70 206.94,-43.84 185.98,-60.71 133.8,-52.05"/>
<polygon fill="LightBlue" stroke="LightBlue" points="134.15,-48.56 123.68,-50.12 132.84,-55.43 134.15,-48.56"/>
<text text-anchor="middle" x="269.5" y="-73.8" font-family="Courier New" font-size="14.00" fill="LightBlue">r</text>
</g>
<!-- Roll&#45;4&#45;&gt;RollOutcome&#45;6 -->
<g id="edge4" class="edge">
<title>Roll&#45;4&#45;&gt;RollOutcome&#45;6</title>
<path fill="none" stroke="LightBlue" stroke-dasharray="5,2" d="M300.63,-102.99C312.51,-91.86 329.45,-77.96 347,-70 388.22,-51.32 438.69,-42.6 477.54,-38.54"/>
<polygon fill="LightBlue" stroke="LightBlue" points="478.05,-42.01 487.66,-37.56 477.37,-35.04 478.05,-42.01"/>
<text text-anchor="middle" x="359.5" y="-73.8" font-family="Courier New" font-size="14.00" fill="LightBlue">[0]</text>
</g>
<!-- Roll&#45;7&#45;&gt;ValueRoller&#45;8 -->
<g id="edge5" class="edge">
<title>Roll&#45;7&#45;&gt;ValueRoller&#45;8</title>
<path fill="none" stroke="LightPink" stroke-dasharray="5,2" d="M353.86,-106.05C341.41,-99.64 326.45,-91.94 313,-85 300.1,-78.35 297.3,-75.81 284,-70 270.8,-64.23 256.31,-58.63 242.65,-53.67"/>
<polygon fill="LightPink" stroke="LightPink" points="243.48,-50.24 232.88,-50.17 241.12,-56.83 243.48,-50.24"/>
<text text-anchor="middle" x="317.5" y="-73.8" font-family="Courier New" font-size="14.00" fill="LightPink">r</text>
</g>
<!-- Roll&#45;7&#45;&gt;RollOutcome&#45;9 -->
<g id="edge6" class="edge">
<title>Roll&#45;7&#45;&gt;RollOutcome&#45;9</title>
<path fill="none" stroke="LightPink" stroke-dasharray="5,2" d="M408.07,-105.44C430.09,-94.18 462.27,-79.03 492,-70 535.26,-56.86 550.1,-61.84 597.73,-52.09"/>
<polygon fill="LightPink" stroke="LightPink" points="598.67,-55.47 607.71,-49.93 597.19,-48.62 598.67,-55.47"/>
<text text-anchor="middle" x="504.5" y="-73.8" font-family="Courier New" font-size="14.00" fill="LightPink">[0]</text>
</g>
</g>
</svg>
