<?xml version="1.0" encoding="UTF-8" standalone="no"?>
<!DOCTYPE svg PUBLIC "-//W3C//DTD SVG 1.1//EN"
 "http://www.w3.org/Graphics/SVG/1.1/DTD/svg11.dtd">
<!-- Generated by graphviz version 2.43.0 (0)
 -->
<!-- Title: classes_dyce_r_light Pages: 1 -->
<svg width="885pt" height="264pt"
 viewBox="0.00 0.00 884.50 264.00" xmlns="http://www.w3.org/2000/svg" xmlns:xlink="http://www.w3.org/1999/xlink">
<g id="graph0" class="graph" transform="scale(1 1) rotate(0) translate(4 260)">
<title>classes_dyce_r_light</title>
<!-- dyce.r.BasicOpRoller -->
<g id="node1" class="node">
<title>dyce.r.BasicOpRoller</title>
<polygon fill="none" stroke="DarkSlateGray" points="680,-146.5 680,-182.5 784,-182.5 784,-146.5 680,-146.5"/>
<text text-anchor="start" x="688" y="-160.8" font-family="Helvetica,sans-Serif" font-size="14.00" fill="DarkSlateGray">BasicOpRoller</text>
</g>
<!-- dyce.r.R -->
<g id="node2" class="node">
<title>dyce.r.R</title>
<polygon fill="none" stroke="DarkSlateGray" points="337,-219.5 337,-255.5 391,-255.5 391,-219.5 337,-219.5"/>
<text text-anchor="start" x="359" y="-233.8" font-family="Helvetica,sans-Serif" font-size="14.00" fill="DarkSlateGray">R</text>
</g>
<!-- dyce.r.BasicOpRoller&#45;&gt;dyce.r.R -->
<g id="edge1" class="edge">
<title>dyce.r.BasicOpRoller&#45;&gt;dyce.r.R</title>
<path fill="none" stroke="DarkSlateGray" d="M679.85,-180.86C676.87,-181.61 673.9,-182.33 671,-183 574.7,-205.14 459.56,-222.92 401.47,-231.29"/>
<polygon fill="none" stroke="DarkSlateGray" points="400.7,-227.86 391.3,-232.74 401.69,-234.79 400.7,-227.86"/>
</g>
<!-- dyce.r.BinarySumOpRoller -->
<g id="node3" class="node">
<title>dyce.r.BinarySumOpRoller</title>
<polygon fill="none" stroke="DarkSlateGray" points="586.5,-0.5 586.5,-36.5 723.5,-36.5 723.5,-0.5 586.5,-0.5"/>
<text text-anchor="start" x="594.5" y="-14.8" font-family="Helvetica,sans-Serif" font-size="14.00" fill="DarkSlateGray">BinarySumOpRoller</text>
</g>
<!-- dyce.r.NarySumOpRoller -->
<g id="node4" class="node">
<title>dyce.r.NarySumOpRoller</title>
<polygon fill="none" stroke="DarkSlateGray" points="668,-73.5 668,-109.5 796,-109.5 796,-73.5 668,-73.5"/>
<text text-anchor="start" x="676" y="-87.8" font-family="Helvetica,sans-Serif" font-size="14.00" fill="DarkSlateGray">NarySumOpRoller</text>
</g>
<!-- dyce.r.BinarySumOpRoller&#45;&gt;dyce.r.NarySumOpRoller -->
<g id="edge2" class="edge">
<title>dyce.r.BinarySumOpRoller&#45;&gt;dyce.r.NarySumOpRoller</title>
<path fill="none" stroke="DarkSlateGray" d="M673.64,-36.69C683.38,-45.67 695.46,-56.81 706.1,-66.61"/>
<polygon fill="none" stroke="DarkSlateGray" points="703.81,-69.27 713.53,-73.47 708.55,-64.12 703.81,-69.27"/>
</g>
<!-- dyce.r.NarySumOpRoller&#45;&gt;dyce.r.BasicOpRoller -->
<g id="edge3" class="edge">
<title>dyce.r.NarySumOpRoller&#45;&gt;dyce.r.BasicOpRoller</title>
<path fill="none" stroke="DarkSlateGray" d="M732,-109.69C732,-117.71 732,-127.45 732,-136.43"/>
<polygon fill="none" stroke="DarkSlateGray" points="728.5,-136.47 732,-146.47 735.5,-136.47 728.5,-136.47"/>
</g>
<!-- dyce.r.FilterRoller -->
<g id="node5" class="node">
<title>dyce.r.FilterRoller</title>
<polygon fill="none" stroke="DarkSlateGray" points="0,-146.5 0,-182.5 82,-182.5 82,-146.5 0,-146.5"/>
<text text-anchor="start" x="8" y="-160.8" font-family="Helvetica,sans-Serif" font-size="14.00" fill="DarkSlateGray">FilterRoller</text>
</g>
<!-- dyce.r.FilterRoller&#45;&gt;dyce.r.R -->
<g id="edge4" class="edge">
<title>dyce.r.FilterRoller&#45;&gt;dyce.r.R</title>
<path fill="none" stroke="DarkSlateGray" d="M82.05,-180.12C85.4,-181.15 88.75,-182.13 92,-183 174.79,-205.24 274.06,-222.43 326.79,-230.83"/>
<polygon fill="none" stroke="DarkSlateGray" points="326.27,-234.29 336.69,-232.39 327.36,-227.38 326.27,-234.29"/>
</g>
<!-- dyce.r.PoolRoller -->
<g id="node6" class="node">
<title>dyce.r.PoolRoller</title>
<polygon fill="none" stroke="DarkSlateGray" points="100.5,-146.5 100.5,-182.5 179.5,-182.5 179.5,-146.5 100.5,-146.5"/>
<text text-anchor="start" x="108.5" y="-160.8" font-family="Helvetica,sans-Serif" font-size="14.00" fill="DarkSlateGray">PoolRoller</text>
</g>
<!-- dyce.r.PoolRoller&#45;&gt;dyce.r.R -->
<g id="edge5" class="edge">
<title>dyce.r.PoolRoller&#45;&gt;dyce.r.R</title>
<path fill="none" stroke="DarkSlateGray" d="M179.53,-179.79C182.73,-180.9 185.91,-181.98 189,-183 236.35,-198.68 291.44,-215.25 326.97,-225.72"/>
<polygon fill="none" stroke="DarkSlateGray" points="326.31,-229.18 336.9,-228.64 328.29,-222.46 326.31,-229.18"/>
</g>
<!-- dyce.r.RepeatRoller -->
<g id="node7" class="node">
<title>dyce.r.RepeatRoller</title>
<polygon fill="none" stroke="DarkSlateGray" points="197.5,-146.5 197.5,-182.5 292.5,-182.5 292.5,-146.5 197.5,-146.5"/>
<text text-anchor="start" x="205.5" y="-160.8" font-family="Helvetica,sans-Serif" font-size="14.00" fill="DarkSlateGray">RepeatRoller</text>
</g>
<!-- dyce.r.RepeatRoller&#45;&gt;dyce.r.R -->
<g id="edge6" class="edge">
<title>dyce.r.RepeatRoller&#45;&gt;dyce.r.R</title>
<path fill="none" stroke="DarkSlateGray" d="M273.5,-182.51C289.9,-192.29 310.65,-204.67 328.14,-215.11"/>
<polygon fill="none" stroke="DarkSlateGray" points="326.57,-218.25 336.96,-220.36 330.16,-212.23 326.57,-218.25"/>
</g>
<!-- dyce.r.SelectionRoller -->
<g id="node8" class="node">
<title>dyce.r.SelectionRoller</title>
<polygon fill="none" stroke="DarkSlateGray" points="310.5,-146.5 310.5,-182.5 417.5,-182.5 417.5,-146.5 310.5,-146.5"/>
<text text-anchor="start" x="318.5" y="-160.8" font-family="Helvetica,sans-Serif" font-size="14.00" fill="DarkSlateGray">SelectionRoller</text>
</g>
<!-- dyce.r.SelectionRoller&#45;&gt;dyce.r.R -->
<g id="edge7" class="edge">
<title>dyce.r.SelectionRoller&#45;&gt;dyce.r.R</title>
<path fill="none" stroke="DarkSlateGray" d="M364,-182.69C364,-190.71 364,-200.45 364,-209.43"/>
<polygon fill="none" stroke="DarkSlateGray" points="360.5,-209.47 364,-219.47 367.5,-209.47 360.5,-209.47"/>
</g>
<!-- dyce.r.SubstitutionRoller -->
<g id="node9" class="node">
<title>dyce.r.SubstitutionRoller</title>
<polygon fill="none" stroke="DarkSlateGray" points="436,-146.5 436,-182.5 558,-182.5 558,-146.5 436,-146.5"/>
<text text-anchor="start" x="444" y="-160.8" font-family="Helvetica,sans-Serif" font-size="14.00" fill="DarkSlateGray">SubstitutionRoller</text>
</g>
<!-- dyce.r.SubstitutionRoller&#45;&gt;dyce.r.R -->
<g id="edge8" class="edge">
<title>dyce.r.SubstitutionRoller&#45;&gt;dyce.r.R</title>
<path fill="none" stroke="DarkSlateGray" d="M465.14,-182.51C445.55,-192.97 420.39,-206.4 400.07,-217.25"/>
<polygon fill="none" stroke="DarkSlateGray" points="398.28,-214.23 391.11,-222.03 401.58,-220.41 398.28,-214.23"/>
</g>
<!-- dyce.r.UnarySumOpRoller -->
<g id="node10" class="node">
<title>dyce.r.UnarySumOpRoller</title>
<polygon fill="none" stroke="DarkSlateGray" points="741.5,-0.5 741.5,-36.5 876.5,-36.5 876.5,-0.5 741.5,-0.5"/>
<text text-anchor="start" x="749.5" y="-14.8" font-family="Helvetica,sans-Serif" font-size="14.00" fill="DarkSlateGray">UnarySumOpRoller</text>
</g>
<!-- dyce.r.UnarySumOpRoller&#45;&gt;dyce.r.NarySumOpRoller -->
<g id="edge9" class="edge">
<title>dyce.r.UnarySumOpRoller&#45;&gt;dyce.r.NarySumOpRoller</title>
<path fill="none" stroke="DarkSlateGray" d="M790.36,-36.69C780.62,-45.67 768.54,-56.81 757.9,-66.61"/>
<polygon fill="none" stroke="DarkSlateGray" points="755.45,-64.12 750.47,-73.47 760.19,-69.27 755.45,-64.12"/>
</g>
<!-- dyce.r.ValueRoller -->
<g id="node11" class="node">
<title>dyce.r.ValueRoller</title>
<polygon fill="none" stroke="DarkSlateGray" points="576,-146.5 576,-182.5 662,-182.5 662,-146.5 576,-146.5"/>
<text text-anchor="start" x="584" y="-160.8" font-family="Helvetica,sans-Serif" font-size="14.00" fill="DarkSlateGray">ValueRoller</text>
</g>
<!-- dyce.r.ValueRoller&#45;&gt;dyce.r.R -->
<g id="edge10" class="edge">
<title>dyce.r.ValueRoller&#45;&gt;dyce.r.R</title>
<path fill="none" stroke="DarkSlateGray" d="M575.94,-180.24C572.92,-181.2 569.92,-182.13 567,-183 509.39,-200.26 441.7,-217.5 400.87,-227.57"/>
<polygon fill="none" stroke="DarkSlateGray" points="399.96,-224.19 391.09,-229.97 401.63,-230.99 399.96,-224.19"/>
</g>
</g>
</svg>
