<?xml version="1.0" encoding="UTF-8" standalone="no"?>
<!DOCTYPE svg PUBLIC "-//W3C//DTD SVG 1.1//EN"
 "http://www.w3.org/Graphics/SVG/1.1/DTD/svg11.dtd">
<!-- Generated by graphviz version 2.50.0 (20211204.2007)
 -->
<!-- Pages: 1 -->
<svg width="858pt" height="402pt"
 viewBox="0.00 0.00 858.00 402.00" xmlns="http://www.w3.org/2000/svg" xmlns:xlink="http://www.w3.org/1999/xlink">
<g id="graph0" class="graph" transform="scale(1 1) rotate(0) translate(4 398)">
<g id="clust3" class="cluster">
<title>cluster_roll_outcomes</title>
<polygon fill="transparent" stroke="DarkSlateGray" stroke-dasharray="1,5" points="8,-8 8,-170 486,-170 486,-8 8,-8"/>
<text text-anchor="start" x="201.5" y="-155.8" font-family="Helvetica,sans-Serif" font-style="italic" font-size="14.00" fill="DarkSlateGray">Roll Outcomes</text>
</g>
<g id="clust1" class="cluster">
<title>cluster_rolls</title>
<polygon fill="transparent" stroke="DarkSlateGray" stroke-dasharray="1,5" points="328,-203 328,-386 551,-386 551,-203 328,-203"/>
<text text-anchor="start" x="412" y="-371.8" font-family="Helvetica,sans-Serif" font-style="italic" font-size="14.00" fill="DarkSlateGray">Roll Tree</text>
</g>
<g id="clust2" class="cluster">
<title>cluster_rollers</title>
<polygon fill="transparent" stroke="DarkSlateGray" stroke-dasharray="1,5" points="559,-95 559,-278 842,-278 842,-95 559,-95"/>
<text text-anchor="start" x="667" y="-263.8" font-family="Helvetica,sans-Serif" font-style="italic" font-size="14.00" fill="DarkSlateGray">Roller Tree</text>
</g>
<!-- Roll&#45;1 -->
<g id="node1" class="node">
<title>Roll&#45;1</title>
<polygon fill="none" stroke="DarkSlateGray" points="390,-355 336,-355 336,-319 390,-319 390,-355"/>
<text text-anchor="start" x="350" y="-334.3" font-family="Helvetica,sans-Serif" font-weight="bold" font-size="14.00" fill="DarkSlateGray">Roll</text>
</g>
<!-- SelectionRoller&#45;2 -->
<g id="node2" class="node">
<title>SelectionRoller&#45;2</title>
<polygon fill="none" stroke="DarkSlateGray" points="823,-247 567,-247 567,-211 823,-211 823,-247"/>
<text text-anchor="start" x="645.5" y="-232.8" font-family="Helvetica,sans-Serif" font-weight="bold" font-size="14.00" fill="DarkSlateGray">SelectionRoller</text>
<text text-anchor="start" x="575" y="-218.8" font-family="Courier New" font-size="14.00" fill="DarkSlateGray">which=(slice(1, None, None),)</text>
</g>
<!-- Roll&#45;1&#45;&gt;SelectionRoller&#45;2 -->
<g id="edge1" class="edge">
<title>Roll&#45;1&#45;&gt;SelectionRoller&#45;2</title>
<path fill="none" stroke="DarkSlateGray" d="M390.05,-332.84C425.73,-328.2 490.17,-318.19 543,-301 582.53,-288.14 625.23,-267.55 655.28,-251.84"/>
<polygon fill="DarkSlateGray" stroke="DarkSlateGray" points="656.98,-254.91 664.18,-247.14 653.71,-248.72 656.98,-254.91"/>
<text text-anchor="middle" x="585.5" y="-289.8" font-family="Courier New" font-size="14.00" fill="DarkSlateGray">r</text>
</g>
<!-- RollOutcome&#45;3 -->
<g id="node3" class="node">
<title>RollOutcome&#45;3</title>
<polygon fill="none" stroke="MediumBlue" stroke-dasharray="5,2" points="238,-139 136,-139 136,-103 238,-103 238,-139"/>
<text text-anchor="start" x="144" y="-124.8" font-family="Helvetica,sans-Serif" font-weight="bold" font-size="14.00" fill="MediumBlue">RollOutcome</text>
<text text-anchor="start" x="158" y="-110.8" font-family="Courier New" font-size="14.00" fill="MediumBlue">value=2</text>
</g>
<!-- Roll&#45;1&#45;&gt;RollOutcome&#45;3 -->
<g id="edge2" class="edge">
<title>Roll&#45;1&#45;&gt;RollOutcome&#45;3</title>
<path fill="none" stroke="MediumBlue" stroke-dasharray="5,2" d="M335.97,-331.32C306.46,-324.74 260.09,-309.79 235,-278 204.9,-239.87 193.59,-182.84 189.4,-149.33"/>
<polygon fill="MediumBlue" stroke="MediumBlue" points="192.87,-148.88 188.27,-139.33 185.91,-149.66 192.87,-148.88"/>
<text text-anchor="middle" x="247.5" y="-225.3" font-family="Courier New" font-size="14.00" fill="MediumBlue">[0]</text>
</g>
<!-- RollOutcome&#45;4 -->
<g id="node4" class="node">
<title>RollOutcome&#45;4</title>
<polygon fill="none" stroke="MediumBlue" stroke-dasharray="5,2" points="358,-139 256,-139 256,-103 358,-103 358,-139"/>
<text text-anchor="start" x="264" y="-124.8" font-family="Helvetica,sans-Serif" font-weight="bold" font-size="14.00" fill="MediumBlue">RollOutcome</text>
<text text-anchor="start" x="278" y="-110.8" font-family="Courier New" font-size="14.00" fill="MediumBlue">value=4</text>
</g>
<!-- Roll&#45;1&#45;&gt;RollOutcome&#45;4 -->
<g id="edge3" class="edge">
<title>Roll&#45;1&#45;&gt;RollOutcome&#45;4</title>
<path fill="none" stroke="MediumBlue" stroke-dasharray="5,2" d="M335.59,-326.66C314.4,-317.8 286.63,-302.2 274,-278 252.08,-236.01 274.21,-180.46 291.29,-148.23"/>
<polygon fill="MediumBlue" stroke="MediumBlue" points="294.39,-149.85 296.15,-139.41 288.26,-146.48 294.39,-149.85"/>
<text text-anchor="middle" x="286.5" y="-225.3" font-family="Courier New" font-size="14.00" fill="MediumBlue">[1]</text>
</g>
<!-- RollOutcome&#45;5 -->
<g id="node5" class="node">
<title>RollOutcome&#45;5</title>
<polygon fill="none" stroke="MediumBlue" stroke-dasharray="5,2" points="478,-139 376,-139 376,-103 478,-103 478,-139"/>
<text text-anchor="start" x="384" y="-124.8" font-family="Helvetica,sans-Serif" font-weight="bold" font-size="14.00" fill="MediumBlue">RollOutcome</text>
<text text-anchor="start" x="398" y="-110.8" font-family="Courier New" font-size="14.00" fill="MediumBlue">value=4</text>
</g>
<!-- Roll&#45;1&#45;&gt;RollOutcome&#45;5 -->
<g id="edge4" class="edge">
<title>Roll&#45;1&#45;&gt;RollOutcome&#45;5</title>
<path fill="none" stroke="MediumBlue" stroke-dasharray="5,2" d="M350.03,-318.76C342.56,-307.74 333.91,-292.78 330,-278 321.47,-245.78 320.19,-234.86 330,-203 333.95,-190.16 336.53,-186.42 347,-178 354.46,-172 358.73,-174.82 367,-170 378.82,-163.11 390.8,-154.04 400.92,-145.63"/>
<polygon fill="MediumBlue" stroke="MediumBlue" points="403.25,-148.24 408.59,-139.09 398.71,-142.92 403.25,-148.24"/>
<text text-anchor="middle" x="342.5" y="-225.3" font-family="Courier New" font-size="14.00" fill="MediumBlue">[2]</text>
</g>
<!-- RollOutcome&#45;6 -->
<g id="node6" class="node">
<title>RollOutcome&#45;6</title>
<polygon fill="none" stroke="DarkSlateGray" stroke-dasharray="1,5" points="118,-139 16,-139 16,-103 118,-103 118,-139"/>
<text text-anchor="start" x="24" y="-124.8" font-family="Helvetica,sans-Serif" font-weight="bold" font-size="14.00" fill="DarkSlateGray">RollOutcome</text>
<text text-anchor="start" x="25.5" y="-110.8" font-family="Courier New" font-size="14.00" fill="DarkSlateGray">value=None</text>
</g>
<!-- Roll&#45;1&#45;&gt;RollOutcome&#45;6 -->
<g id="edge5" class="edge">
<title>Roll&#45;1&#45;&gt;RollOutcome&#45;6</title>
<path fill="none" stroke="DarkSlateGray" d="M335.95,-333.91C295.92,-329.58 220.24,-316.55 170,-278 125.01,-243.47 93.44,-183.39 77.94,-148.73"/>
<polygon fill="DarkSlateGray" stroke="DarkSlateGray" points="81.02,-147.04 73.82,-139.26 74.6,-149.83 81.02,-147.04"/>
<text text-anchor="middle" x="182.5" y="-225.3" font-family="Courier New" font-size="14.00" fill="DarkSlateGray">[3]</text>
</g>
<!-- Roll&#45;7 -->
<g id="node7" class="node">
<title>Roll&#45;7</title>
<polygon fill="none" stroke="MediumBlue" stroke-dasharray="5,2" points="418,-247 364,-247 364,-211 418,-211 418,-247"/>
<text text-anchor="start" x="378" y="-226.3" font-family="Helvetica,sans-Serif" font-weight="bold" font-size="14.00" fill="MediumBlue">Roll</text>
</g>
<!-- Roll&#45;1&#45;&gt;Roll&#45;7 -->
<g id="edge12" class="edge">
<title>Roll&#45;1&#45;&gt;Roll&#45;7</title>
<path fill="none" stroke="MediumBlue" stroke-dasharray="5,2" d="M356.49,-318.64C353.77,-308.91 351.88,-296.63 355,-286 358.16,-275.24 364.09,-264.6 370.24,-255.52"/>
<polygon fill="MediumBlue" stroke="MediumBlue" points="373.12,-257.51 376.13,-247.35 367.44,-253.43 373.12,-257.51"/>
<text text-anchor="middle" x="396.5" y="-289.8" font-family="Courier New" font-size="14.00" fill="MediumBlue">sources[0]</text>
</g>
<!-- Roll&#45;9 -->
<g id="node9" class="node">
<title>Roll&#45;9</title>
<polygon fill="none" stroke="MediumVioletRed" stroke-dasharray="5,2" points="541,-247 487,-247 487,-211 541,-211 541,-247"/>
<text text-anchor="start" x="501" y="-226.3" font-family="Helvetica,sans-Serif" font-weight="bold" font-size="14.00" fill="MediumVioletRed">Roll</text>
</g>
<!-- Roll&#45;1&#45;&gt;Roll&#45;9 -->
<g id="edge13" class="edge">
<title>Roll&#45;1&#45;&gt;Roll&#45;9</title>
<path fill="none" stroke="MediumVioletRed" stroke-dasharray="5,2" d="M390.13,-325.78C404.89,-319.63 423.12,-311.05 438,-301 457.75,-287.66 477.34,-269.2 491.68,-254.45"/>
<polygon fill="MediumVioletRed" stroke="MediumVioletRed" points="494.3,-256.77 498.68,-247.12 489.24,-251.94 494.3,-256.77"/>
<text text-anchor="middle" x="497.5" y="-289.8" font-family="Courier New" font-size="14.00" fill="MediumVioletRed">sources[1]</text>
</g>
<!-- ValueRoller&#45;8 -->
<g id="node8" class="node">
<title>ValueRoller&#45;8</title>
<polygon fill="none" stroke="MediumBlue" stroke-dasharray="5,2" points="716.5,-139 567.5,-139 567.5,-103 716.5,-103 716.5,-139"/>
<text text-anchor="start" x="604.5" y="-124.8" font-family="Helvetica,sans-Serif" font-weight="bold" font-size="14.00" fill="MediumBlue">ValueRoller</text>
<text text-anchor="start" x="575.5" y="-110.8" font-family="Courier New" font-size="14.00" fill="MediumBlue">value=P(6, 6, 6)</text>
</g>
<!-- SelectionRoller&#45;2&#45;&gt;ValueRoller&#45;8 -->
<g id="edge14" class="edge">
<title>SelectionRoller&#45;2&#45;&gt;ValueRoller&#45;8</title>
<path fill="none" stroke="MediumBlue" stroke-dasharray="5,2" d="M661.34,-210.9C654.85,-206.02 648.87,-200.06 645,-193 637.77,-179.81 636.75,-163.08 637.66,-149.17"/>
<polygon fill="MediumBlue" stroke="MediumBlue" points="641.15,-149.49 638.66,-139.19 634.18,-148.79 641.15,-149.49"/>
<text text-anchor="middle" x="686.5" y="-181.8" font-family="Courier New" font-size="14.00" fill="MediumBlue">sources[0]</text>
</g>
<!-- ValueRoller&#45;10 -->
<g id="node10" class="node">
<title>ValueRoller&#45;10</title>
<polygon fill="none" stroke="MediumVioletRed" stroke-dasharray="5,2" points="833.5,-139 734.5,-139 734.5,-103 833.5,-103 833.5,-139"/>
<text text-anchor="start" x="746.5" y="-124.8" font-family="Helvetica,sans-Serif" font-weight="bold" font-size="14.00" fill="MediumVioletRed">ValueRoller</text>
<text text-anchor="start" x="742.5" y="-110.8" font-family="Courier New" font-size="14.00" fill="MediumVioletRed">value=H(8)</text>
</g>
<!-- SelectionRoller&#45;2&#45;&gt;ValueRoller&#45;10 -->
<g id="edge15" class="edge">
<title>SelectionRoller&#45;2&#45;&gt;ValueRoller&#45;10</title>
<path fill="none" stroke="MediumVioletRed" stroke-dasharray="5,2" d="M711.76,-210.83C717.06,-205.24 722.87,-198.94 728,-193 740.74,-178.24 754.3,-161.08 764.89,-147.34"/>
<polygon fill="MediumVioletRed" stroke="MediumVioletRed" points="767.76,-149.34 771.06,-139.27 762.2,-145.08 767.76,-149.34"/>
<text text-anchor="middle" x="780.5" y="-181.8" font-family="Courier New" font-size="14.00" fill="MediumVioletRed">sources[1]</text>
</g>
<!-- RollOutcome&#45;11 -->
<g id="node11" class="node">
<title>RollOutcome&#45;11</title>
<polygon fill="none" stroke="MediumVioletRed" stroke-dasharray="5,2" points="388,-52 286,-52 286,-16 388,-16 388,-52"/>
<text text-anchor="start" x="294" y="-37.8" font-family="Helvetica,sans-Serif" font-weight="bold" font-size="14.00" fill="MediumVioletRed">RollOutcome</text>
<text text-anchor="start" x="308" y="-23.8" font-family="Courier New" font-size="14.00" fill="MediumVioletRed">value=1</text>
</g>
<!-- RollOutcome&#45;6&#45;&gt;RollOutcome&#45;11 -->
<g id="edge16" class="edge">
<title>RollOutcome&#45;6&#45;&gt;RollOutcome&#45;11</title>
<path fill="none" stroke="MediumVioletRed" stroke-dasharray="5,2" d="M106.12,-102.93C113.02,-100.14 120.18,-97.38 127,-95 176.54,-77.67 233.89,-61.54 276.13,-50.38"/>
<polygon fill="MediumVioletRed" stroke="MediumVioletRed" points="277.2,-53.72 285.99,-47.79 275.43,-46.95 277.2,-53.72"/>
<text text-anchor="middle" x="242.5" y="-73.8" font-family="Courier New" font-size="14.00" fill="MediumVioletRed">sources[0]</text>
</g>
<!-- Roll&#45;7&#45;&gt;RollOutcome&#45;3 -->
<g id="edge7" class="edge">
<title>Roll&#45;7&#45;&gt;RollOutcome&#45;3</title>
<path fill="none" stroke="MediumBlue" stroke-dasharray="5,2" d="M365.04,-210.91C360.15,-208.06 355,-205.29 350,-203 328.14,-193.01 268.18,-181.36 247,-170 234.76,-163.43 222.54,-154.26 212.36,-145.7"/>
<polygon fill="MediumBlue" stroke="MediumBlue" points="214.52,-142.93 204.67,-139.02 209.93,-148.22 214.52,-142.93"/>
<text text-anchor="middle" x="331.5" y="-181.8" font-family="Courier New" font-size="14.00" fill="MediumBlue">[0]</text>
</g>
<!-- Roll&#45;7&#45;&gt;RollOutcome&#45;4 -->
<g id="edge8" class="edge">
<title>Roll&#45;7&#45;&gt;RollOutcome&#45;4</title>
<path fill="none" stroke="MediumBlue" stroke-dasharray="5,2" d="M377.5,-210.97C363.87,-193.76 342.65,-166.98 327.05,-147.29"/>
<polygon fill="MediumBlue" stroke="MediumBlue" points="329.7,-145 320.74,-139.34 324.21,-149.35 329.7,-145"/>
<text text-anchor="middle" x="373.5" y="-181.8" font-family="Courier New" font-size="14.00" fill="MediumBlue">[1]</text>
</g>
<!-- Roll&#45;7&#45;&gt;RollOutcome&#45;5 -->
<g id="edge9" class="edge">
<title>Roll&#45;7&#45;&gt;RollOutcome&#45;5</title>
<path fill="none" stroke="MediumBlue" stroke-dasharray="5,2" d="M396.78,-210.97C402.47,-194.22 411.24,-168.41 417.87,-148.89"/>
<polygon fill="MediumBlue" stroke="MediumBlue" points="421.21,-149.93 421.11,-139.34 414.58,-147.68 421.21,-149.93"/>
<text text-anchor="middle" x="419.5" y="-181.8" font-family="Courier New" font-size="14.00" fill="MediumBlue">[2]</text>
</g>
<!-- Roll&#45;7&#45;&gt;ValueRoller&#45;8 -->
<g id="edge6" class="edge">
<title>Roll&#45;7&#45;&gt;ValueRoller&#45;8</title>
<path fill="none" stroke="MediumBlue" stroke-dasharray="5,2" d="M418.19,-218.43C448.83,-207.47 499.96,-188.6 543,-170 561.64,-161.94 581.87,-152.3 599.16,-143.78"/>
<polygon fill="MediumBlue" stroke="MediumBlue" points="601.03,-146.76 608.43,-139.18 597.92,-140.49 601.03,-146.76"/>
<text text-anchor="middle" x="526.5" y="-181.8" font-family="Courier New" font-size="14.00" fill="MediumBlue">r</text>
</g>
<!-- Roll&#45;9&#45;&gt;ValueRoller&#45;10 -->
<g id="edge10" class="edge">
<title>Roll&#45;9&#45;&gt;ValueRoller&#45;10</title>
<path fill="none" stroke="MediumVioletRed" stroke-dasharray="5,2" d="M540.46,-210.77C545.21,-207.99 550.18,-205.29 555,-203 585.22,-188.66 593.27,-184.95 626,-178 669.61,-168.74 684.69,-186.77 726,-170 739,-164.72 751.29,-155.44 761.18,-146.43"/>
<polygon fill="MediumVioletRed" stroke="MediumVioletRed" points="763.78,-148.79 768.57,-139.35 758.93,-143.74 763.78,-148.79"/>
<text text-anchor="middle" x="630.5" y="-181.8" font-family="Courier New" font-size="14.00" fill="MediumVioletRed">r</text>
</g>
<!-- Roll&#45;9&#45;&gt;RollOutcome&#45;11 -->
<g id="edge11" class="edge">
<title>Roll&#45;9&#45;&gt;RollOutcome&#45;11</title>
<path fill="none" stroke="MediumVioletRed" stroke-dasharray="5,2" d="M515.36,-210.71C516.59,-183.02 514.92,-128.47 487,-95 464.79,-68.38 429.05,-53.47 398.03,-45.18"/>
<polygon fill="MediumVioletRed" stroke="MediumVioletRed" points="398.7,-41.74 388.15,-42.71 397,-48.53 398.7,-41.74"/>
<text text-anchor="middle" x="526.5" y="-117.3" font-family="Courier New" font-size="14.00" fill="MediumVioletRed">[0]</text>
</g>
</g>
</svg>
