<?xml version="1.0" encoding="UTF-8" standalone="no"?>
<!DOCTYPE svg PUBLIC "-//W3C//DTD SVG 1.1//EN"
 "http://www.w3.org/Graphics/SVG/1.1/DTD/svg11.dtd">
<!-- Generated by graphviz version 2.49.3 (20211023.0002)
 -->
<!-- Pages: 1 -->
<svg width="1200pt" height="402pt"
 viewBox="0.00 0.00 1200.00 402.00" xmlns="http://www.w3.org/2000/svg" xmlns:xlink="http://www.w3.org/1999/xlink">
<g id="graph0" class="graph" transform="scale(1 1) rotate(0) translate(4 398)">
<g id="clust1" class="cluster">
<title>cluster_rolls</title>
<polygon fill="transparent" stroke="Azure" stroke-dasharray="1,5" points="212,-116 212,-386 763,-386 763,-116 212,-116"/>
<text text-anchor="start" x="459" y="-371.8" font-family="Helvetica,sans-Serif" font-style="italic" font-size="14.00" fill="Azure">Roll Tree</text>
</g>
<g id="clust2" class="cluster">
<title>cluster_rollers</title>
<polygon fill="transparent" stroke="Azure" stroke-dasharray="1,5" points="8,-8 8,-278 196,-278 196,-8 8,-8"/>
<text text-anchor="start" x="67.5" y="-263.8" font-family="Helvetica,sans-Serif" font-style="italic" font-size="14.00" fill="Azure">Roller Tree</text>
</g>
<g id="clust3" class="cluster">
<title>cluster_roll_outcomes</title>
<polygon fill="transparent" stroke="Azure" stroke-dasharray="1,5" points="576,-8 576,-83 1184,-83 1184,-8 576,-8"/>
<text text-anchor="start" x="834" y="-68.8" font-family="Helvetica,sans-Serif" font-style="italic" font-size="14.00" fill="Azure">Roll Outcomes</text>
</g>
<!-- Roll&#45;1 -->
<g id="node1" class="node">
<title>Roll&#45;1</title>
<polygon fill="none" stroke="Azure" points="755,-355 701,-355 701,-319 755,-319 755,-355"/>
<text text-anchor="start" x="714.5" y="-334.3" font-family="Helvetica,sans-Serif" font-weight="bold" font-size="14.00" fill="Azure">Roll</text>
</g>
<!-- RepeatRoller&#45;2 -->
<g id="node2" class="node">
<title>RepeatRoller&#45;2</title>
<polygon fill="none" stroke="Azure" points="153.5,-247 50.5,-247 50.5,-211 153.5,-211 153.5,-247"/>
<text text-anchor="start" x="58.5" y="-232.8" font-family="Helvetica,sans-Serif" font-weight="bold" font-size="14.00" fill="Azure">RepeatRoller</text>
<text text-anchor="start" x="89" y="-218.8" font-family="Courier New" font-size="14.00" fill="Azure">n=3</text>
</g>
<!-- Roll&#45;1&#45;&gt;RepeatRoller&#45;2 -->
<g id="edge1" class="edge">
<title>Roll&#45;1&#45;&gt;RepeatRoller&#45;2</title>
<path fill="none" stroke="Azure" d="M700.93,-335.94C622.91,-335.16 391.5,-328.42 208,-278 185.4,-271.79 161.51,-261.35 142.15,-251.79"/>
<polygon fill="Azure" stroke="Azure" points="143.54,-248.57 133.03,-247.19 140.38,-254.82 143.54,-248.57"/>
<text text-anchor="middle" x="310.5" y="-289.8" font-family="Courier New" font-size="14.00" fill="Azure">r</text>
</g>
<!-- RollOutcome&#45;3 -->
<g id="node3" class="node">
<title>RollOutcome&#45;3</title>
<polygon fill="none" stroke="Azure" points="1176,-52 1072,-52 1072,-16 1176,-16 1176,-52"/>
<text text-anchor="start" x="1080" y="-37.8" font-family="Helvetica,sans-Serif" font-weight="bold" font-size="14.00" fill="Azure">RollOutcome</text>
<text text-anchor="start" x="1094.5" y="-23.8" font-family="Courier New" font-size="14.00" fill="Azure">value=6</text>
</g>
<!-- Roll&#45;1&#45;&gt;RollOutcome&#45;3 -->
<g id="edge2" class="edge">
<title>Roll&#45;1&#45;&gt;RollOutcome&#45;3</title>
<path fill="none" stroke="Azure" d="M755.47,-334.74C823.39,-331.34 997.68,-320.9 1052,-301 1069.13,-294.72 1074.34,-292.03 1086,-278 1138.01,-215.41 1133.64,-111.33 1128.01,-62.23"/>
<polygon fill="Azure" stroke="Azure" points="1131.46,-61.56 1126.74,-52.07 1124.51,-62.43 1131.46,-61.56"/>
<text text-anchor="middle" x="1139" y="-181.8" font-family="Courier New" font-size="14.00" fill="Azure">[0]</text>
</g>
<!-- RollOutcome&#45;4 -->
<g id="node4" class="node">
<title>RollOutcome&#45;4</title>
<polygon fill="none" stroke="Azure" points="1054,-52 950,-52 950,-16 1054,-16 1054,-52"/>
<text text-anchor="start" x="958" y="-37.8" font-family="Helvetica,sans-Serif" font-weight="bold" font-size="14.00" fill="Azure">RollOutcome</text>
<text text-anchor="start" x="972.5" y="-23.8" font-family="Courier New" font-size="14.00" fill="Azure">value=4</text>
</g>
<!-- Roll&#45;1&#45;&gt;RollOutcome&#45;4 -->
<g id="edge3" class="edge">
<title>Roll&#45;1&#45;&gt;RollOutcome&#45;4</title>
<path fill="none" stroke="Azure" d="M755.27,-335.12C820.13,-332.66 981.77,-324.32 1030,-301 1043.01,-294.71 1044.74,-289.87 1053,-278 1080.24,-238.84 1099.76,-225.07 1092,-178 1087.27,-149.29 1085.27,-141.35 1071,-116 1063.88,-103.35 1059.39,-102.06 1050,-91 1041.33,-80.78 1031.72,-69.55 1023.39,-59.85"/>
<polygon fill="Azure" stroke="Azure" points="1025.92,-57.42 1016.75,-52.12 1020.61,-61.98 1025.92,-57.42"/>
<text text-anchor="middle" x="1106" y="-181.8" font-family="Courier New" font-size="14.00" fill="Azure">[1]</text>
</g>
<!-- RollOutcome&#45;5 -->
<g id="node5" class="node">
<title>RollOutcome&#45;5</title>
<polygon fill="none" stroke="Azure" points="688,-52 584,-52 584,-16 688,-16 688,-52"/>
<text text-anchor="start" x="592" y="-37.8" font-family="Helvetica,sans-Serif" font-weight="bold" font-size="14.00" fill="Azure">RollOutcome</text>
<text text-anchor="start" x="606.5" y="-23.8" font-family="Courier New" font-size="14.00" fill="Azure">value=5</text>
</g>
<!-- Roll&#45;1&#45;&gt;RollOutcome&#45;5 -->
<g id="edge4" class="edge">
<title>Roll&#45;1&#45;&gt;RollOutcome&#45;5</title>
<path fill="none" stroke="Azure" d="M755.05,-323.38C767.76,-317.13 782.95,-309.17 796,-301 884.52,-245.57 937.29,-253.42 984,-160 997.71,-132.57 1005.38,-112.98 984,-91 972.88,-79.57 712,-88.43 697,-83 683.07,-77.96 669.85,-68.39 659.3,-59.11"/>
<polygon fill="Azure" stroke="Azure" points="661.5,-56.38 651.79,-52.16 656.75,-61.52 661.5,-56.38"/>
<text text-anchor="middle" x="987" y="-181.8" font-family="Courier New" font-size="14.00" fill="Azure">[2]</text>
</g>
<!-- RollOutcome&#45;6 -->
<g id="node6" class="node">
<title>RollOutcome&#45;6</title>
<polygon fill="none" stroke="Azure" points="932,-52 828,-52 828,-16 932,-16 932,-52"/>
<text text-anchor="start" x="836" y="-37.8" font-family="Helvetica,sans-Serif" font-weight="bold" font-size="14.00" fill="Azure">RollOutcome</text>
<text text-anchor="start" x="850.5" y="-23.8" font-family="Courier New" font-size="14.00" fill="Azure">value=6</text>
</g>
<!-- Roll&#45;1&#45;&gt;RollOutcome&#45;6 -->
<g id="edge5" class="edge">
<title>Roll&#45;1&#45;&gt;RollOutcome&#45;6</title>
<path fill="none" stroke="Azure" d="M755.12,-335.41C817.17,-333.62 967.45,-326.69 1010,-301 1020.66,-294.56 1021.19,-289.48 1026,-278 1058.14,-201.33 1090.16,-148.37 1030,-91 1015.63,-77.3 959.45,-90.33 941,-83 927.43,-77.61 914.41,-68.18 903.92,-59.1"/>
<polygon fill="Azure" stroke="Azure" points="906.18,-56.42 896.42,-52.29 901.47,-61.6 906.18,-56.42"/>
<text text-anchor="middle" x="1075" y="-181.8" font-family="Courier New" font-size="14.00" fill="Azure">[3]</text>
</g>
<!-- RollOutcome&#45;7 -->
<g id="node7" class="node">
<title>RollOutcome&#45;7</title>
<polygon fill="none" stroke="Azure" points="810,-52 706,-52 706,-16 810,-16 810,-52"/>
<text text-anchor="start" x="714" y="-37.8" font-family="Helvetica,sans-Serif" font-weight="bold" font-size="14.00" fill="Azure">RollOutcome</text>
<text text-anchor="start" x="728.5" y="-23.8" font-family="Courier New" font-size="14.00" fill="Azure">value=4</text>
</g>
<!-- Roll&#45;1&#45;&gt;RollOutcome&#45;7 -->
<g id="edge6" class="edge">
<title>Roll&#45;1&#45;&gt;RollOutcome&#45;7</title>
<path fill="none" stroke="Azure" d="M755.42,-336.32C815.74,-336.4 957.2,-333.09 990,-301 1035.34,-256.65 1007.1,-223.24 1012,-160 1014.37,-129.43 1033.23,-113.13 1012,-91 997.14,-75.51 839.13,-90.44 819,-83 805.1,-77.86 791.89,-68.28 781.33,-59.02"/>
<polygon fill="Azure" stroke="Azure" points="783.54,-56.29 773.81,-52.08 778.79,-61.44 783.54,-56.29"/>
<text text-anchor="middle" x="1025" y="-181.8" font-family="Courier New" font-size="14.00" fill="Azure">[4]</text>
</g>
<!-- Roll&#45;8 -->
<g id="node8" class="node">
<title>Roll&#45;8</title>
<polygon fill="none" stroke="Azure" points="697,-247 643,-247 643,-211 697,-211 697,-247"/>
<text text-anchor="start" x="656.5" y="-226.3" font-family="Helvetica,sans-Serif" font-weight="bold" font-size="14.00" fill="Azure">Roll</text>
</g>
<!-- Roll&#45;1&#45;&gt;Roll&#45;8 -->
<g id="edge25" class="edge">
<title>Roll&#45;1&#45;&gt;Roll&#45;8</title>
<path fill="none" stroke="Azure" d="M718.68,-318.97C709.43,-302.07 695.13,-275.94 684.42,-256.36"/>
<polygon fill="Azure" stroke="Azure" points="687.36,-254.43 679.49,-247.34 681.22,-257.79 687.36,-254.43"/>
<text text-anchor="middle" x="749.5" y="-289.8" font-family="Courier New" font-size="14.00" fill="Azure">sources[0]</text>
</g>
<!-- Roll&#45;10 -->
<g id="node10" class="node">
<title>Roll&#45;10</title>
<polygon fill="none" stroke="Azure" points="377,-247 323,-247 323,-211 377,-211 377,-247"/>
<text text-anchor="start" x="336.5" y="-226.3" font-family="Helvetica,sans-Serif" font-weight="bold" font-size="14.00" fill="Azure">Roll</text>
</g>
<!-- Roll&#45;1&#45;&gt;Roll&#45;10 -->
<g id="edge26" class="edge">
<title>Roll&#45;1&#45;&gt;Roll&#45;10</title>
<path fill="none" stroke="Azure" d="M700.84,-334.76C656.27,-332.1 565.28,-324.11 492,-301 454.21,-289.09 414.09,-268.16 386.17,-252.11"/>
<polygon fill="Azure" stroke="Azure" points="387.59,-248.89 377.19,-246.87 384.06,-254.93 387.59,-248.89"/>
<text text-anchor="middle" x="534.5" y="-289.8" font-family="Courier New" font-size="14.00" fill="Azure">sources[1]</text>
</g>
<!-- Roll&#45;11 -->
<g id="node11" class="node">
<title>Roll&#45;11</title>
<polygon fill="none" stroke="Azure" points="509,-247 455,-247 455,-211 509,-211 509,-247"/>
<text text-anchor="start" x="468.5" y="-226.3" font-family="Helvetica,sans-Serif" font-weight="bold" font-size="14.00" fill="Azure">Roll</text>
</g>
<!-- Roll&#45;1&#45;&gt;Roll&#45;11 -->
<g id="edge27" class="edge">
<title>Roll&#45;1&#45;&gt;Roll&#45;11</title>
<path fill="none" stroke="Azure" d="M700.95,-329.65C676.87,-323.59 640.92,-313.54 611,-301 578.45,-287.36 543.5,-267.78 518.19,-252.64"/>
<polygon fill="Azure" stroke="Azure" points="519.7,-249.46 509.33,-247.28 516.08,-255.45 519.7,-249.46"/>
<text text-anchor="middle" x="653.5" y="-289.8" font-family="Courier New" font-size="14.00" fill="Azure">sources[2]</text>
</g>
<!-- BranchOperationRoller&#45;9 -->
<g id="node9" class="node">
<title>BranchOperationRoller&#45;9</title>
<polygon fill="none" stroke="Azure" points="187.5,-160 16.5,-160 16.5,-124 187.5,-124 187.5,-160"/>
<text text-anchor="start" x="24.5" y="-139.3" font-family="Helvetica,sans-Serif" font-weight="bold" font-size="14.00" fill="Azure">BranchOperationRoller</text>
</g>
<!-- RepeatRoller&#45;2&#45;&gt;BranchOperationRoller&#45;9 -->
<g id="edge33" class="edge">
<title>RepeatRoller&#45;2&#45;&gt;BranchOperationRoller&#45;9</title>
<path fill="none" stroke="Azure" d="M53.15,-210.81C45.91,-206.14 39.42,-200.3 35,-193 28.47,-182.22 34.08,-173 44.35,-165.52"/>
<polygon fill="Azure" stroke="Azure" points="46.35,-168.4 52.99,-160.14 42.65,-162.45 46.35,-168.4"/>
<text text-anchor="middle" x="77.5" y="-181.8" font-family="Courier New" font-size="14.00" fill="Azure">sources[0]</text>
</g>
<!-- Roll&#45;8&#45;&gt;RollOutcome&#45;3 -->
<g id="edge8" class="edge">
<title>Roll&#45;8&#45;&gt;RollOutcome&#45;3</title>
<path fill="none" stroke="Azure" d="M697.22,-226.16C766.38,-220.24 951.74,-196.37 1070,-106 1086,-93.77 1099.67,-75.65 1109.26,-60.78"/>
<polygon fill="Azure" stroke="Azure" points="1112.4,-62.36 1114.69,-52.02 1106.45,-58.68 1112.4,-62.36"/>
<text text-anchor="middle" x="1067" y="-138.3" font-family="Courier New" font-size="14.00" fill="Azure">[0]</text>
</g>
<!-- Roll&#45;8&#45;&gt;RollOutcome&#45;4 -->
<g id="edge9" class="edge">
<title>Roll&#45;8&#45;&gt;RollOutcome&#45;4</title>
<path fill="none" stroke="Azure" d="M697.29,-228.55C732.13,-227.92 792.81,-222.24 834,-193 877.26,-162.29 852.22,-120.97 896,-91 912.76,-79.53 922.46,-91.31 941,-83 954.23,-77.07 967.11,-67.65 977.6,-58.72"/>
<polygon fill="Azure" stroke="Azure" points="979.97,-61.3 985.13,-52.05 975.32,-56.06 979.97,-61.3"/>
<text text-anchor="middle" x="886" y="-138.3" font-family="Courier New" font-size="14.00" fill="Azure">[1]</text>
</g>
<!-- Roll&#45;8&#45;&gt;BranchOperationRoller&#45;9 -->
<g id="edge7" class="edge">
<title>Roll&#45;8&#45;&gt;BranchOperationRoller&#45;9</title>
<path fill="none" stroke="Azure" d="M642.86,-224.54C612.48,-220.78 561.78,-214.78 518,-211 386.69,-199.67 350.39,-222.76 222,-193 218.16,-192.11 182.85,-177.33 151.51,-164.07"/>
<polygon fill="Azure" stroke="Azure" points="152.53,-160.7 141.95,-160.02 149.8,-167.14 152.53,-160.7"/>
<text text-anchor="middle" x="226.5" y="-181.8" font-family="Courier New" font-size="14.00" fill="Azure">r</text>
</g>
<!-- Roll&#45;12 -->
<g id="node12" class="node">
<title>Roll&#45;12</title>
<polygon fill="none" stroke="Azure" points="660,-160 606,-160 606,-124 660,-124 660,-160"/>
<text text-anchor="start" x="619.5" y="-139.3" font-family="Helvetica,sans-Serif" font-weight="bold" font-size="14.00" fill="Azure">Roll</text>
</g>
<!-- Roll&#45;8&#45;&gt;Roll&#45;12 -->
<g id="edge28" class="edge">
<title>Roll&#45;8&#45;&gt;Roll&#45;12</title>
<path fill="none" stroke="Azure" d="M662.51,-210.8C657.35,-198.93 650.38,-182.93 644.51,-169.45"/>
<polygon fill="Azure" stroke="Azure" points="647.68,-167.95 640.48,-160.18 641.26,-170.74 647.68,-167.95"/>
<text text-anchor="middle" x="695.5" y="-181.8" font-family="Courier New" font-size="14.00" fill="Azure">sources[0]</text>
</g>
<!-- Roll&#45;14 -->
<g id="node14" class="node">
<title>Roll&#45;14</title>
<polygon fill="none" stroke="Azure" points="588,-160 534,-160 534,-124 588,-124 588,-160"/>
<text text-anchor="start" x="547.5" y="-139.3" font-family="Helvetica,sans-Serif" font-weight="bold" font-size="14.00" fill="Azure">Roll</text>
</g>
<!-- Roll&#45;8&#45;&gt;Roll&#45;14 -->
<g id="edge29" class="edge">
<title>Roll&#45;8&#45;&gt;Roll&#45;14</title>
<path fill="none" stroke="Azure" d="M642.69,-227.81C616.69,-225.99 578.81,-218.72 560,-193 555.3,-186.57 554.09,-178.32 554.49,-170.39"/>
<polygon fill="Azure" stroke="Azure" points="557.98,-170.68 555.76,-160.32 551.03,-169.8 557.98,-170.68"/>
<text text-anchor="middle" x="602.5" y="-181.8" font-family="Courier New" font-size="14.00" fill="Azure">sources[1]</text>
</g>
<!-- ValueRoller&#45;13 -->
<g id="node13" class="node">
<title>ValueRoller&#45;13</title>
<polygon fill="none" stroke="Azure" points="187.5,-52 86.5,-52 86.5,-16 187.5,-16 187.5,-52"/>
<text text-anchor="start" x="98.5" y="-37.8" font-family="Helvetica,sans-Serif" font-weight="bold" font-size="14.00" fill="Azure">ValueRoller</text>
<text text-anchor="start" x="94.5" y="-23.8" font-family="Courier New" font-size="14.00" fill="Azure">value=H(6)</text>
</g>
<!-- BranchOperationRoller&#45;9&#45;&gt;ValueRoller&#45;13 -->
<g id="edge34" class="edge">
<title>BranchOperationRoller&#45;9&#45;&gt;ValueRoller&#45;13</title>
<path fill="none" stroke="Azure" d="M107.62,-123.97C113.15,-107.22 121.68,-81.41 128.12,-61.89"/>
<polygon fill="Azure" stroke="Azure" points="131.46,-62.93 131.27,-52.34 124.82,-60.74 131.46,-62.93"/>
<text text-anchor="middle" x="161.5" y="-94.8" font-family="Courier New" font-size="14.00" fill="Azure">sources[0]</text>
</g>
<!-- Roll&#45;10&#45;&gt;RollOutcome&#45;5 -->
<g id="edge11" class="edge">
<title>Roll&#45;10&#45;&gt;RollOutcome&#45;5</title>
<path fill="none" stroke="Azure" d="M377.19,-222.33C396.34,-218.54 422.64,-213.77 446,-211 478.72,-207.12 719.42,-217 742,-193 746.57,-188.14 743.98,-184.37 742,-178 738.51,-166.79 689.07,-100.38 682,-91 674.27,-80.74 665.39,-69.76 657.51,-60.26"/>
<polygon fill="Azure" stroke="Azure" points="659.99,-57.77 650.89,-52.35 654.62,-62.27 659.99,-57.77"/>
<text text-anchor="middle" x="744" y="-138.3" font-family="Courier New" font-size="14.00" fill="Azure">[0]</text>
</g>
<!-- Roll&#45;10&#45;&gt;BranchOperationRoller&#45;9 -->
<g id="edge10" class="edge">
<title>Roll&#45;10&#45;&gt;BranchOperationRoller&#45;9</title>
<path fill="none" stroke="Azure" d="M322.95,-225.79C274.04,-221.41 173.19,-210.51 143,-193 132.85,-187.11 124.15,-177.69 117.41,-168.6"/>
<polygon fill="Azure" stroke="Azure" points="120.12,-166.37 111.56,-160.12 114.35,-170.34 120.12,-166.37"/>
<text text-anchor="middle" x="147.5" y="-181.8" font-family="Courier New" font-size="14.00" fill="Azure">r</text>
</g>
<!-- Roll&#45;15 -->
<g id="node15" class="node">
<title>Roll&#45;15</title>
<polygon fill="none" stroke="Azure" points="274,-160 220,-160 220,-124 274,-124 274,-160"/>
<text text-anchor="start" x="233.5" y="-139.3" font-family="Helvetica,sans-Serif" font-weight="bold" font-size="14.00" fill="Azure">Roll</text>
</g>
<!-- Roll&#45;10&#45;&gt;Roll&#45;15 -->
<g id="edge30" class="edge">
<title>Roll&#45;10&#45;&gt;Roll&#45;15</title>
<path fill="none" stroke="Azure" d="M322.94,-227.93C296.7,-226.23 258.12,-219.07 239,-193 234.18,-186.42 233.9,-178.04 235.51,-170.03"/>
<polygon fill="Azure" stroke="Azure" points="238.93,-170.82 238.36,-160.24 232.2,-168.87 238.93,-170.82"/>
<text text-anchor="middle" x="281.5" y="-181.8" font-family="Courier New" font-size="14.00" fill="Azure">sources[0]</text>
</g>
<!-- Roll&#45;11&#45;&gt;RollOutcome&#45;6 -->
<g id="edge13" class="edge">
<title>Roll&#45;11&#45;&gt;RollOutcome&#45;6</title>
<path fill="none" stroke="Azure" d="M509.18,-224.95C539.59,-221.55 590.32,-215.87 634,-211 670,-206.99 766.91,-214.58 796,-193 825.9,-170.82 811.69,-148.97 829,-116 839.01,-96.94 851.95,-76.42 862.29,-60.81"/>
<polygon fill="Azure" stroke="Azure" points="865.38,-62.48 868.04,-52.23 859.57,-58.59 865.38,-62.48"/>
<text text-anchor="middle" x="842" y="-138.3" font-family="Courier New" font-size="14.00" fill="Azure">[0]</text>
</g>
<!-- Roll&#45;11&#45;&gt;RollOutcome&#45;7 -->
<g id="edge14" class="edge">
<title>Roll&#45;11&#45;&gt;RollOutcome&#45;7</title>
<path fill="none" stroke="Azure" d="M509.21,-224.93C582.72,-216.64 779.87,-194.27 781,-193 791.11,-181.64 776.31,-174.58 772,-160 762.35,-127.39 759.26,-88.19 758.32,-62.49"/>
<polygon fill="Azure" stroke="Azure" points="761.82,-62.26 758.04,-52.36 754.82,-62.46 761.82,-62.26"/>
<text text-anchor="middle" x="785" y="-138.3" font-family="Courier New" font-size="14.00" fill="Azure">[1]</text>
</g>
<!-- Roll&#45;11&#45;&gt;BranchOperationRoller&#45;9 -->
<g id="edge12" class="edge">
<title>Roll&#45;11&#45;&gt;BranchOperationRoller&#45;9</title>
<path fill="none" stroke="Azure" d="M454.79,-222.51C435.63,-218.8 409.33,-214.05 386,-211 292.68,-198.78 263.64,-224.64 175,-193 172.58,-192.14 152.82,-178.57 134.47,-165.78"/>
<polygon fill="Azure" stroke="Azure" points="136.41,-162.87 126.21,-160.01 132.4,-168.61 136.41,-162.87"/>
<text text-anchor="middle" x="179.5" y="-181.8" font-family="Courier New" font-size="14.00" fill="Azure">r</text>
</g>
<!-- Roll&#45;16 -->
<g id="node16" class="node">
<title>Roll&#45;16</title>
<polygon fill="none" stroke="Azure" points="481,-160 427,-160 427,-124 481,-124 481,-160"/>
<text text-anchor="start" x="440.5" y="-139.3" font-family="Helvetica,sans-Serif" font-weight="bold" font-size="14.00" fill="Azure">Roll</text>
</g>
<!-- Roll&#45;11&#45;&gt;Roll&#45;16 -->
<g id="edge31" class="edge">
<title>Roll&#45;11&#45;&gt;Roll&#45;16</title>
<path fill="none" stroke="Azure" d="M465.28,-210.79C461.13,-205.5 457.24,-199.37 455,-193 452.49,-185.88 451.57,-177.82 451.45,-170.29"/>
<polygon fill="Azure" stroke="Azure" points="454.95,-170.23 451.73,-160.14 447.96,-170.04 454.95,-170.23"/>
<text text-anchor="middle" x="497.5" y="-181.8" font-family="Courier New" font-size="14.00" fill="Azure">sources[0]</text>
</g>
<!-- Roll&#45;17 -->
<g id="node17" class="node">
<title>Roll&#45;17</title>
<polygon fill="none" stroke="Azure" points="373,-160 319,-160 319,-124 373,-124 373,-160"/>
<text text-anchor="start" x="332.5" y="-139.3" font-family="Helvetica,sans-Serif" font-weight="bold" font-size="14.00" fill="Azure">Roll</text>
</g>
<!-- Roll&#45;11&#45;&gt;Roll&#45;17 -->
<g id="edge32" class="edge">
<title>Roll&#45;11&#45;&gt;Roll&#45;17</title>
<path fill="none" stroke="Azure" d="M454.78,-227.17C427.78,-224.89 386.95,-217.31 362,-193 355.78,-186.94 351.98,-178.47 349.65,-170.21"/>
<polygon fill="Azure" stroke="Azure" points="353.06,-169.44 347.48,-160.44 346.23,-170.96 353.06,-169.44"/>
<text text-anchor="middle" x="404.5" y="-181.8" font-family="Courier New" font-size="14.00" fill="Azure">sources[1]</text>
</g>
<!-- Roll&#45;12&#45;&gt;RollOutcome&#45;3 -->
<g id="edge16" class="edge">
<title>Roll&#45;12&#45;&gt;RollOutcome&#45;3</title>
<path fill="none" stroke="Azure" d="M656.76,-123.81C662.19,-120.67 668.1,-117.82 674,-116 716.1,-103.02 828.1,-109.75 872,-106 957.19,-98.73 984.02,-115.77 1063,-83 1076.49,-77.4 1089.49,-67.94 1100,-58.89"/>
<polygon fill="Azure" stroke="Azure" points="1102.43,-61.42 1107.51,-52.12 1097.74,-56.22 1102.43,-61.42"/>
<text text-anchor="middle" x="1053" y="-94.8" font-family="Courier New" font-size="14.00" fill="Azure">[0]</text>
</g>
<!-- Roll&#45;12&#45;&gt;ValueRoller&#45;13 -->
<g id="edge15" class="edge">
<title>Roll&#45;12&#45;&gt;ValueRoller&#45;13</title>
<path fill="none" stroke="Azure" d="M626.55,-123.75C621.4,-112.5 613.04,-98.56 601,-91 584.14,-80.41 320.37,-53.14 198.22,-40.99"/>
<polygon fill="Azure" stroke="Azure" points="198.21,-37.47 187.91,-39.97 197.52,-44.44 198.21,-37.47"/>
<text text-anchor="middle" x="619.5" y="-94.8" font-family="Courier New" font-size="14.00" fill="Azure">r</text>
</g>
<!-- Roll&#45;14&#45;&gt;RollOutcome&#45;4 -->
<g id="edge18" class="edge">
<title>Roll&#45;14&#45;&gt;RollOutcome&#45;4</title>
<path fill="none" stroke="Azure" d="M582.1,-123.77C586.77,-120.71 591.86,-117.9 597,-116 648.33,-97.01 787.5,-95.98 842,-91 863.98,-88.99 920.45,-91.06 941,-83 954.6,-77.67 967.61,-68.25 978.1,-59.16"/>
<polygon fill="Azure" stroke="Azure" points="980.56,-61.66 985.6,-52.34 975.85,-56.48 980.56,-61.66"/>
<text text-anchor="middle" x="855" y="-94.8" font-family="Courier New" font-size="14.00" fill="Azure">[0]</text>
</g>
<!-- Roll&#45;14&#45;&gt;ValueRoller&#45;13 -->
<g id="edge17" class="edge">
<title>Roll&#45;14&#45;&gt;ValueRoller&#45;13</title>
<path fill="none" stroke="Azure" d="M550.51,-123.78C542.71,-112.55 531.02,-98.62 517,-91 463.14,-61.73 290.64,-45.62 197.69,-38.86"/>
<polygon fill="Azure" stroke="Azure" points="197.81,-35.36 187.58,-38.14 197.31,-42.34 197.81,-35.36"/>
<text text-anchor="middle" x="539.5" y="-94.8" font-family="Courier New" font-size="14.00" fill="Azure">r</text>
</g>
<!-- Roll&#45;15&#45;&gt;RollOutcome&#45;5 -->
<g id="edge20" class="edge">
<title>Roll&#45;15&#45;&gt;RollOutcome&#45;5</title>
<path fill="none" stroke="Azure" d="M274.2,-129.94C285.27,-125.51 298.21,-120.41 310,-116 341.33,-104.27 348.82,-100.16 381,-91 445.98,-72.5 521.75,-56.56 573.7,-46.47"/>
<polygon fill="Azure" stroke="Azure" points="574.61,-49.86 583.77,-44.53 573.29,-42.98 574.61,-49.86"/>
<text text-anchor="middle" x="394" y="-94.8" font-family="Courier New" font-size="14.00" fill="Azure">[0]</text>
</g>
<!-- Roll&#45;15&#45;&gt;ValueRoller&#45;13 -->
<g id="edge19" class="edge">
<title>Roll&#45;15&#45;&gt;ValueRoller&#45;13</title>
<path fill="none" stroke="Azure" d="M234.14,-123.6C226.44,-113.63 216.19,-101.13 206,-91 194.45,-79.51 180.68,-67.96 168.5,-58.37"/>
<polygon fill="Azure" stroke="Azure" points="170.41,-55.42 160.36,-52.06 166.12,-60.96 170.41,-55.42"/>
<text text-anchor="middle" x="224.5" y="-94.8" font-family="Courier New" font-size="14.00" fill="Azure">r</text>
</g>
<!-- Roll&#45;16&#45;&gt;RollOutcome&#45;6 -->
<g id="edge22" class="edge">
<title>Roll&#45;16&#45;&gt;RollOutcome&#45;6</title>
<path fill="none" stroke="Azure" d="M481.18,-132.1C500.19,-125.58 526.02,-116.13 548,-106 560.47,-100.26 561.77,-94.66 575,-91 627.29,-76.53 768.03,-101.59 819,-83 832.92,-77.92 846.14,-68.35 856.69,-59.08"/>
<polygon fill="Azure" stroke="Azure" points="859.24,-61.49 864.2,-52.13 854.48,-56.35 859.24,-61.49"/>
<text text-anchor="middle" x="588" y="-94.8" font-family="Courier New" font-size="14.00" fill="Azure">[0]</text>
</g>
<!-- Roll&#45;16&#45;&gt;ValueRoller&#45;13 -->
<g id="edge21" class="edge">
<title>Roll&#45;16&#45;&gt;ValueRoller&#45;13</title>
<path fill="none" stroke="Azure" d="M443.36,-123.54C435.72,-112.5 424.43,-98.89 411,-91 344.95,-52.2 256.23,-39.96 197.88,-36.27"/>
<polygon fill="Azure" stroke="Azure" points="197.9,-32.77 187.71,-35.7 197.5,-39.76 197.9,-32.77"/>
<text text-anchor="middle" x="434.5" y="-94.8" font-family="Courier New" font-size="14.00" fill="Azure">r</text>
</g>
<!-- Roll&#45;17&#45;&gt;RollOutcome&#45;7 -->
<g id="edge24" class="edge">
<title>Roll&#45;17&#45;&gt;RollOutcome&#45;7</title>
<path fill="none" stroke="Azure" d="M373,-131.59C386.51,-126.9 403.11,-121.13 418,-116 450.42,-104.82 457.29,-97.29 491,-91 536.04,-82.6 654.01,-98.83 697,-83 710.91,-77.88 724.12,-68.3 734.67,-59.04"/>
<polygon fill="Azure" stroke="Azure" points="737.22,-61.45 742.19,-52.1 732.47,-56.31 737.22,-61.45"/>
<text text-anchor="middle" x="504" y="-94.8" font-family="Courier New" font-size="14.00" fill="Azure">[0]</text>
</g>
<!-- Roll&#45;17&#45;&gt;ValueRoller&#45;13 -->
<g id="edge23" class="edge">
<title>Roll&#45;17&#45;&gt;ValueRoller&#45;13</title>
<path fill="none" stroke="Azure" d="M318.68,-127.14C283.29,-109.2 221.23,-77.72 179.62,-56.62"/>
<polygon fill="Azure" stroke="Azure" points="181.05,-53.42 170.55,-52.02 177.89,-59.66 181.05,-53.42"/>
<text text-anchor="middle" x="277.5" y="-94.8" font-family="Courier New" font-size="14.00" fill="Azure">r</text>
</g>
</g>
</svg>
