<?xml version="1.0" encoding="UTF-8" standalone="no"?>
<!DOCTYPE svg PUBLIC "-//W3C//DTD SVG 1.1//EN"
 "http://www.w3.org/Graphics/SVG/1.1/DTD/svg11.dtd">
<!-- Generated by graphviz version 2.49.3 (20211023.0002)
 -->
<!-- Pages: 1 -->
<svg width="620pt" height="489pt"
 viewBox="0.00 0.00 620.00 489.00" xmlns="http://www.w3.org/2000/svg" xmlns:xlink="http://www.w3.org/1999/xlink">
<g id="graph0" class="graph" transform="scale(1 1) rotate(0) translate(4 485)">
<g id="clust1" class="cluster">
<title>cluster_rolls</title>
<polygon fill="transparent" stroke="DarkSlateGray" stroke-dasharray="1,5" points="107,-290 107,-473 442,-473 442,-290 107,-290"/>
<text text-anchor="start" x="246" y="-458.8" font-family="Helvetica,sans-Serif" font-style="italic" font-size="14.00" fill="DarkSlateGray">Roll Tree</text>
</g>
<g id="clust2" class="cluster">
<title>cluster_rollers</title>
<polygon fill="transparent" stroke="DarkSlateGray" stroke-dasharray="1,5" points="450,-182 450,-365 604,-365 604,-182 450,-182"/>
<text text-anchor="start" x="492.5" y="-350.8" font-family="Helvetica,sans-Serif" font-style="italic" font-size="14.00" fill="DarkSlateGray">Roller Tree</text>
</g>
<g id="clust3" class="cluster">
<title>cluster_roll_outcomes</title>
<polygon fill="transparent" stroke="DarkSlateGray" stroke-dasharray="1,5" points="74,-8 74,-257 194,-257 194,-8 74,-8"/>
<text text-anchor="start" x="88" y="-242.8" font-family="Helvetica,sans-Serif" font-style="italic" font-size="14.00" fill="DarkSlateGray">Roll Outcomes</text>
</g>
<!-- Roll&#45;1 -->
<g id="node1" class="node">
<title>Roll&#45;1</title>
<polygon fill="none" stroke="DarkSlateGray" points="169,-442 115,-442 115,-406 169,-406 169,-442"/>
<text text-anchor="start" x="128.5" y="-421.3" font-family="Helvetica,sans-Serif" font-weight="bold" font-size="14.00" fill="DarkSlateGray">Roll</text>
</g>
<!-- SubstitutionRoller&#45;2 -->
<g id="node2" class="node">
<title>SubstitutionRoller&#45;2</title>
<polygon fill="none" stroke="DarkSlateGray" points="596,-334 458,-334 458,-298 596,-298 596,-334"/>
<text text-anchor="start" x="466" y="-313.3" font-family="Helvetica,sans-Serif" font-weight="bold" font-size="14.00" fill="DarkSlateGray">SubstitutionRoller</text>
</g>
<!-- Roll&#45;1&#45;&gt;SubstitutionRoller&#45;2 -->
<g id="edge1" class="edge">
<title>Roll&#45;1&#45;&gt;SubstitutionRoller&#45;2</title>
<path fill="none" stroke="DarkSlateGray" d="M169.14,-421.31C230.57,-417.22 378.53,-405.79 425,-388 453.21,-377.2 481.07,-356.98 500.53,-340.87"/>
<polygon fill="DarkSlateGray" stroke="DarkSlateGray" points="502.96,-343.39 508.33,-334.26 498.44,-338.06 502.96,-343.39"/>
<text text-anchor="middle" x="459.5" y="-376.8" font-family="Courier New" font-size="14.00" fill="DarkSlateGray">r</text>
</g>
<!-- RollOutcome&#45;3 -->
<g id="node3" class="node">
<title>RollOutcome&#45;3</title>
<polygon fill="none" stroke="DarkSlateGray" points="186,-52 82,-52 82,-16 186,-16 186,-52"/>
<text text-anchor="start" x="90" y="-37.8" font-family="Helvetica,sans-Serif" font-weight="bold" font-size="14.00" fill="DarkSlateGray">RollOutcome</text>
<text text-anchor="start" x="104.5" y="-23.8" font-family="Courier New" font-size="14.00" fill="DarkSlateGray">value=1</text>
</g>
<!-- Roll&#45;1&#45;&gt;RollOutcome&#45;3 -->
<g id="edge2" class="edge">
<title>Roll&#45;1&#45;&gt;RollOutcome&#45;3</title>
<path fill="none" stroke="DarkSlateGray" d="M114.96,-416.1C73.76,-403.76 0,-373.76 0,-317 0,-317 0,-317 0,-120 0,-82.98 36.92,-61.41 72,-49.26"/>
<polygon fill="DarkSlateGray" stroke="DarkSlateGray" points="73.37,-52.49 81.81,-46.08 71.22,-45.83 73.37,-52.49"/>
<text text-anchor="middle" x="13" y="-204.3" font-family="Courier New" font-size="14.00" fill="DarkSlateGray">[0]</text>
</g>
<!-- RollOutcome&#45;4 -->
<g id="node4" class="node">
<title>RollOutcome&#45;4</title>
<polygon fill="none" stroke="DarkSlateGray" points="186,-139 82,-139 82,-103 186,-103 186,-139"/>
<text text-anchor="start" x="90" y="-124.8" font-family="Helvetica,sans-Serif" font-weight="bold" font-size="14.00" fill="DarkSlateGray">RollOutcome</text>
<text text-anchor="start" x="104.5" y="-110.8" font-family="Courier New" font-size="14.00" fill="DarkSlateGray">value=1</text>
</g>
<!-- Roll&#45;1&#45;&gt;RollOutcome&#45;4 -->
<g id="edge3" class="edge">
<title>Roll&#45;1&#45;&gt;RollOutcome&#45;4</title>
<path fill="none" stroke="DarkSlateGray" d="M131.47,-405.85C128.23,-400.26 124.79,-393.96 122,-388 95.6,-331.72 84.07,-318.17 73,-257 67.07,-224.2 60.12,-212.74 73,-182 78.87,-168 89.77,-155.61 100.76,-145.79"/>
<polygon fill="DarkSlateGray" stroke="DarkSlateGray" points="103.3,-148.22 108.7,-139.1 98.79,-142.86 103.3,-148.22"/>
<text text-anchor="middle" x="91" y="-268.8" font-family="Courier New" font-size="14.00" fill="DarkSlateGray">[1]</text>
</g>
<!-- RollOutcome&#45;5 -->
<g id="node5" class="node">
<title>RollOutcome&#45;5</title>
<polygon fill="none" stroke="DarkSlateGray" points="186,-226 82,-226 82,-190 186,-190 186,-226"/>
<text text-anchor="start" x="90" y="-211.8" font-family="Helvetica,sans-Serif" font-weight="bold" font-size="14.00" fill="DarkSlateGray">RollOutcome</text>
<text text-anchor="start" x="104.5" y="-197.8" font-family="Courier New" font-size="14.00" fill="DarkSlateGray">value=2</text>
</g>
<!-- Roll&#45;1&#45;&gt;RollOutcome&#45;5 -->
<g id="edge4" class="edge">
<title>Roll&#45;1&#45;&gt;RollOutcome&#45;5</title>
<path fill="none" stroke="DarkSlateGray" d="M133.67,-405.95C131.36,-400.36 129.16,-394.04 128,-388 117.8,-335.01 124.18,-271.6 129.36,-236.25"/>
<polygon fill="DarkSlateGray" stroke="DarkSlateGray" points="132.84,-236.64 130.9,-226.23 125.92,-235.58 132.84,-236.64"/>
<text text-anchor="middle" x="138" y="-312.3" font-family="Courier New" font-size="14.00" fill="DarkSlateGray">[2]</text>
</g>
<!-- Roll&#45;6 -->
<g id="node6" class="node">
<title>Roll&#45;6</title>
<polygon fill="none" stroke="DarkSlateGray" points="387,-334 333,-334 333,-298 387,-298 387,-334"/>
<text text-anchor="start" x="346.5" y="-313.3" font-family="Helvetica,sans-Serif" font-weight="bold" font-size="14.00" fill="DarkSlateGray">Roll</text>
</g>
<!-- Roll&#45;1&#45;&gt;Roll&#45;6 -->
<g id="edge11" class="edge">
<title>Roll&#45;1&#45;&gt;Roll&#45;6</title>
<path fill="none" stroke="DarkSlateGray" d="M169.13,-420.64C213.49,-416.32 299.01,-405.89 323,-388 337.53,-377.16 346.86,-358.94 352.52,-343.67"/>
<polygon fill="DarkSlateGray" stroke="DarkSlateGray" points="355.84,-344.76 355.72,-334.17 349.21,-342.52 355.84,-344.76"/>
<text text-anchor="middle" x="378.5" y="-376.8" font-family="Courier New" font-size="14.00" fill="DarkSlateGray">sources[0]</text>
</g>
<!-- Roll&#45;8 -->
<g id="node8" class="node">
<title>Roll&#45;8</title>
<polygon fill="none" stroke="DarkSlateGray" points="227,-334 173,-334 173,-298 227,-298 227,-334"/>
<text text-anchor="start" x="186.5" y="-313.3" font-family="Helvetica,sans-Serif" font-weight="bold" font-size="14.00" fill="DarkSlateGray">Roll</text>
</g>
<!-- Roll&#45;1&#45;&gt;Roll&#45;8 -->
<g id="edge12" class="edge">
<title>Roll&#45;1&#45;&gt;Roll&#45;8</title>
<path fill="none" stroke="DarkSlateGray" d="M134.45,-405.66C131.27,-395.71 129.27,-383.21 134,-373 140.51,-358.93 152.5,-347.1 164.49,-338"/>
<polygon fill="DarkSlateGray" stroke="DarkSlateGray" points="166.61,-340.79 172.72,-332.14 162.55,-335.09 166.61,-340.79"/>
<text text-anchor="middle" x="176.5" y="-376.8" font-family="Courier New" font-size="14.00" fill="DarkSlateGray">sources[1]</text>
</g>
<!-- Roll&#45;9 -->
<g id="node9" class="node">
<title>Roll&#45;9</title>
<polygon fill="none" stroke="DarkSlateGray" points="299,-334 245,-334 245,-298 299,-298 299,-334"/>
<text text-anchor="start" x="258.5" y="-313.3" font-family="Helvetica,sans-Serif" font-weight="bold" font-size="14.00" fill="DarkSlateGray">Roll</text>
</g>
<!-- Roll&#45;1&#45;&gt;Roll&#45;9 -->
<g id="edge13" class="edge">
<title>Roll&#45;1&#45;&gt;Roll&#45;9</title>
<path fill="none" stroke="DarkSlateGray" d="M169.16,-414.48C184.81,-408.68 204.25,-399.88 219,-388 234.48,-375.53 247.83,-357.57 257.26,-342.83"/>
<polygon fill="DarkSlateGray" stroke="DarkSlateGray" points="260.34,-344.5 262.61,-334.15 254.39,-340.82 260.34,-344.5"/>
<text text-anchor="middle" x="276.5" y="-376.8" font-family="Courier New" font-size="14.00" fill="DarkSlateGray">sources[2]</text>
</g>
<!-- ValueRoller&#45;7 -->
<g id="node7" class="node">
<title>ValueRoller&#45;7</title>
<polygon fill="none" stroke="DarkSlateGray" points="559.5,-226 458.5,-226 458.5,-190 559.5,-190 559.5,-226"/>
<text text-anchor="start" x="470.5" y="-211.8" font-family="Helvetica,sans-Serif" font-weight="bold" font-size="14.00" fill="DarkSlateGray">ValueRoller</text>
<text text-anchor="start" x="466.5" y="-197.8" font-family="Courier New" font-size="14.00" fill="DarkSlateGray">value=H(6)</text>
</g>
<!-- SubstitutionRoller&#45;2&#45;&gt;ValueRoller&#45;7 -->
<g id="edge14" class="edge">
<title>SubstitutionRoller&#45;2&#45;&gt;ValueRoller&#45;7</title>
<path fill="none" stroke="DarkSlateGray" d="M524.11,-297.97C521.29,-281.38 516.96,-255.88 513.66,-236.43"/>
<polygon fill="DarkSlateGray" stroke="DarkSlateGray" points="517.07,-235.61 511.94,-226.34 510.17,-236.79 517.07,-235.61"/>
<text text-anchor="middle" x="562.5" y="-268.8" font-family="Courier New" font-size="14.00" fill="DarkSlateGray">sources[0]</text>
</g>
<!-- RollOutcome&#45;4&#45;&gt;RollOutcome&#45;3 -->
<g id="edge15" class="edge">
<title>RollOutcome&#45;4&#45;&gt;RollOutcome&#45;3</title>
<path fill="none" stroke="DarkSlateGray" d="M134,-102.8C134,-91.16 134,-75.55 134,-62.24"/>
<polygon fill="DarkSlateGray" stroke="DarkSlateGray" points="137.5,-62.18 134,-52.18 130.5,-62.18 137.5,-62.18"/>
<text text-anchor="middle" x="176.5" y="-73.8" font-family="Courier New" font-size="14.00" fill="DarkSlateGray">sources[0]</text>
</g>
<!-- RollOutcome&#45;5&#45;&gt;RollOutcome&#45;4 -->
<g id="edge16" class="edge">
<title>RollOutcome&#45;5&#45;&gt;RollOutcome&#45;4</title>
<path fill="none" stroke="DarkSlateGray" d="M127.45,-189.8C125.63,-184.21 123.91,-177.92 123,-172 121.83,-164.39 122.71,-156.2 124.39,-148.71"/>
<polygon fill="DarkSlateGray" stroke="DarkSlateGray" points="127.78,-149.59 127.06,-139.02 121.03,-147.74 127.78,-149.59"/>
<text text-anchor="middle" x="165.5" y="-160.8" font-family="Courier New" font-size="14.00" fill="DarkSlateGray">sources[0]</text>
</g>
<!-- Roll&#45;6&#45;&gt;RollOutcome&#45;3 -->
<g id="edge6" class="edge">
<title>Roll&#45;6&#45;&gt;RollOutcome&#45;3</title>
<path fill="none" stroke="DarkSlateGray" d="M356.51,-297.91C354.18,-288.05 350.68,-275.55 346,-265 304.42,-171.35 301.94,-135.33 223,-70 214.95,-63.34 205.49,-57.84 195.79,-53.33"/>
<polygon fill="DarkSlateGray" stroke="DarkSlateGray" points="197.02,-50.05 186.46,-49.31 194.25,-56.48 197.02,-50.05"/>
<text text-anchor="middle" x="319" y="-160.8" font-family="Courier New" font-size="14.00" fill="DarkSlateGray">[0]</text>
</g>
<!-- Roll&#45;6&#45;&gt;ValueRoller&#45;7 -->
<g id="edge5" class="edge">
<title>Roll&#45;6&#45;&gt;ValueRoller&#45;7</title>
<path fill="none" stroke="DarkSlateGray" d="M383.94,-297.97C408.99,-280.15 448.48,-252.06 476.37,-232.21"/>
<polygon fill="DarkSlateGray" stroke="DarkSlateGray" points="478.51,-234.99 484.62,-226.34 474.45,-229.29 478.51,-234.99"/>
<text text-anchor="middle" x="434.5" y="-268.8" font-family="Courier New" font-size="14.00" fill="DarkSlateGray">r</text>
</g>
<!-- Roll&#45;8&#45;&gt;RollOutcome&#45;4 -->
<g id="edge8" class="edge">
<title>Roll&#45;8&#45;&gt;RollOutcome&#45;4</title>
<path fill="none" stroke="DarkSlateGray" d="M206.89,-297.7C217.99,-266.77 235.92,-201.09 208,-157 204.56,-151.56 200.02,-146.95 194.88,-143.05"/>
<polygon fill="DarkSlateGray" stroke="DarkSlateGray" points="196.66,-140.03 186.37,-137.48 192.82,-145.89 196.66,-140.03"/>
<text text-anchor="middle" x="236" y="-204.3" font-family="Courier New" font-size="14.00" fill="DarkSlateGray">[0]</text>
</g>
<!-- Roll&#45;8&#45;&gt;ValueRoller&#45;7 -->
<g id="edge7" class="edge">
<title>Roll&#45;8&#45;&gt;ValueRoller&#45;7</title>
<path fill="none" stroke="DarkSlateGray" d="M222.18,-297.98C226.61,-295.05 231.34,-292.24 236,-290 305.58,-256.59 391.83,-233.8 448.54,-221.11"/>
<polygon fill="DarkSlateGray" stroke="DarkSlateGray" points="449.41,-224.5 458.42,-218.93 447.9,-217.66 449.41,-224.5"/>
<text text-anchor="middle" x="297.5" y="-268.8" font-family="Courier New" font-size="14.00" fill="DarkSlateGray">r</text>
</g>
<!-- Roll&#45;9&#45;&gt;RollOutcome&#45;5 -->
<g id="edge10" class="edge">
<title>Roll&#45;9&#45;&gt;RollOutcome&#45;5</title>
<path fill="none" stroke="DarkSlateGray" d="M249.83,-297.97C226.73,-280.23 190.37,-252.3 164.56,-232.47"/>
<polygon fill="DarkSlateGray" stroke="DarkSlateGray" points="166.64,-229.66 156.58,-226.34 162.37,-235.21 166.64,-229.66"/>
<text text-anchor="middle" x="237" y="-268.8" font-family="Courier New" font-size="14.00" fill="DarkSlateGray">[0]</text>
</g>
<!-- Roll&#45;9&#45;&gt;ValueRoller&#45;7 -->
<g id="edge9" class="edge">
<title>Roll&#45;9&#45;&gt;ValueRoller&#45;7</title>
<path fill="none" stroke="DarkSlateGray" d="M299.17,-301.71C307.14,-297.87 315.9,-293.72 324,-290 369.48,-269.12 421.76,-246.34 459.12,-230.27"/>
<polygon fill="DarkSlateGray" stroke="DarkSlateGray" points="460.95,-233.29 468.76,-226.13 458.19,-226.86 460.95,-233.29"/>
<text text-anchor="middle" x="378.5" y="-268.8" font-family="Courier New" font-size="14.00" fill="DarkSlateGray">r</text>
</g>
</g>
</svg>
