<?xml version="1.0" encoding="UTF-8" standalone="no"?>
<!DOCTYPE svg PUBLIC "-//W3C//DTD SVG 1.1//EN"
 "http://www.w3.org/Graphics/SVG/1.1/DTD/svg11.dtd">
<!-- Generated by graphviz version 2.43.0 (0)
 -->
<!-- Title: %3 Pages: 1 -->
<svg width="739pt" height="489pt"
 viewBox="0.00 0.00 739.00 489.00" xmlns="http://www.w3.org/2000/svg" xmlns:xlink="http://www.w3.org/1999/xlink">
<g id="graph0" class="graph" transform="scale(1 1) rotate(0) translate(4 485)">
<title>%3</title>
<g id="clust1" class="cluster">
<title>cluster_rolls</title>
<polygon fill="transparent" stroke="Azure" stroke-dasharray="1,5" points="106,-290 106,-473 435,-473 435,-290 106,-290"/>
<text text-anchor="start" x="243" y="-458.8" font-family="Helvetica,sans-Serif" font-style="italic" font-size="14.00" fill="Azure">Roll Tree</text>
</g>
<g id="clust2" class="cluster">
<title>cluster_rollers</title>
<polygon fill="transparent" stroke="Azure" stroke-dasharray="1,5" points="443,-182 443,-365 723,-365 723,-182 443,-182"/>
<text text-anchor="start" x="549.5" y="-350.8" font-family="Helvetica,sans-Serif" font-style="italic" font-size="14.00" fill="Azure">Roller Tree</text>
</g>
<g id="clust3" class="cluster">
<title>cluster_roll_outcomes</title>
<polygon fill="transparent" stroke="Azure" stroke-dasharray="1,5" points="73,-8 73,-257 191,-257 191,-8 73,-8"/>
<text text-anchor="start" x="86.5" y="-242.8" font-family="Helvetica,sans-Serif" font-style="italic" font-size="14.00" fill="Azure">Roll Outcomes</text>
</g>
<!-- Roll&#45;1 -->
<g id="node1" class="node">
<title>Roll&#45;1</title>
<polygon fill="none" stroke="Azure" points="168,-442 114,-442 114,-406 168,-406 168,-442"/>
<text text-anchor="start" x="128" y="-421.3" font-family="Helvetica,sans-Serif" font-weight="bold" font-size="14.00" fill="Azure">Roll</text>
</g>
<!-- SubstitutionRoller&#45;2 -->
<g id="node2" class="node">
<title>SubstitutionRoller&#45;2</title>
<polygon fill="none" stroke="Azure" points="617,-334 483,-334 483,-298 617,-298 617,-334"/>
<text text-anchor="start" x="491" y="-313.3" font-family="Helvetica,sans-Serif" font-weight="bold" font-size="14.00" fill="Azure">SubstitutionRoller</text>
</g>
<!-- Roll&#45;1&#45;&gt;SubstitutionRoller&#45;2 -->
<g id="edge1" class="edge">
<title>Roll&#45;1&#45;&gt;SubstitutionRoller&#45;2</title>
<path fill="none" stroke="Azure" d="M168.34,-422.79C218.72,-421.7 329.09,-415.99 417,-388 452.7,-376.63 490.05,-355.78 516.05,-339.61"/>
<polygon fill="Azure" stroke="Azure" points="518.17,-342.41 524.75,-334.1 514.43,-336.49 518.17,-342.41"/>
<text text-anchor="middle" x="455.5" y="-376.8" font-family="Courier New" font-size="14.00" fill="Azure">r</text>
</g>
<!-- RollOutcome&#45;3 -->
<g id="node3" class="node">
<title>RollOutcome&#45;3</title>
<polygon fill="none" stroke="LightBlue" stroke-dasharray="5,2" points="183,-52 81,-52 81,-16 183,-16 183,-52"/>
<text text-anchor="start" x="89" y="-37.8" font-family="Helvetica,sans-Serif" font-weight="bold" font-size="14.00" fill="LightBlue">RollOutcome</text>
<text text-anchor="start" x="103" y="-23.8" font-family="Courier New" font-size="14.00" fill="LightBlue">value=1</text>
</g>
<!-- Roll&#45;1&#45;&gt;RollOutcome&#45;3 -->
<g id="edge2" class="edge">
<title>Roll&#45;1&#45;&gt;RollOutcome&#45;3</title>
<path fill="none" stroke="LightBlue" stroke-dasharray="5,2" d="M113.81,-415.93C72.84,-403.46 0,-373.35 0,-317 0,-317 0,-317 0,-120 0,-83.25 36.61,-61.63 71.27,-49.4"/>
<polygon fill="LightBlue" stroke="LightBlue" points="72.57,-52.66 80.97,-46.2 70.37,-46.01 72.57,-52.66"/>
<text text-anchor="middle" x="12.5" y="-204.3" font-family="Courier New" font-size="14.00" fill="LightBlue">[0]</text>
</g>
<!-- RollOutcome&#45;4 -->
<g id="node4" class="node">
<title>RollOutcome&#45;4</title>
<polygon fill="none" stroke="LightBlue" stroke-dasharray="5,2" points="183,-139 81,-139 81,-103 183,-103 183,-139"/>
<text text-anchor="start" x="89" y="-124.8" font-family="Helvetica,sans-Serif" font-weight="bold" font-size="14.00" fill="LightBlue">RollOutcome</text>
<text text-anchor="start" x="103" y="-110.8" font-family="Courier New" font-size="14.00" fill="LightBlue">value=1</text>
</g>
<!-- Roll&#45;1&#45;&gt;RollOutcome&#45;4 -->
<g id="edge3" class="edge">
<title>Roll&#45;1&#45;&gt;RollOutcome&#45;4</title>
<path fill="none" stroke="LightBlue" stroke-dasharray="5,2" d="M130.47,-405.85C127.23,-400.26 123.79,-393.96 121,-388 94.6,-331.72 83.07,-318.17 72,-257 66.07,-224.2 59.24,-212.8 72,-182 77.76,-168.09 88.48,-155.73 99.29,-145.89"/>
<polygon fill="LightBlue" stroke="LightBlue" points="101.79,-148.35 107.1,-139.18 97.23,-143.04 101.79,-148.35"/>
<text text-anchor="middle" x="89.5" y="-268.8" font-family="Courier New" font-size="14.00" fill="LightBlue">[1]</text>
</g>
<!-- RollOutcome&#45;5 -->
<g id="node5" class="node">
<title>RollOutcome&#45;5</title>
<polygon fill="none" stroke="LightBlue" stroke-dasharray="5,2" points="183,-226 81,-226 81,-190 183,-190 183,-226"/>
<text text-anchor="start" x="89" y="-211.8" font-family="Helvetica,sans-Serif" font-weight="bold" font-size="14.00" fill="LightBlue">RollOutcome</text>
<text text-anchor="start" x="103" y="-197.8" font-family="Courier New" font-size="14.00" fill="LightBlue">value=2</text>
</g>
<!-- Roll&#45;1&#45;&gt;RollOutcome&#45;5 -->
<g id="edge4" class="edge">
<title>Roll&#45;1&#45;&gt;RollOutcome&#45;5</title>
<path fill="none" stroke="LightBlue" stroke-dasharray="5,2" d="M132.67,-405.95C130.36,-400.36 128.16,-394.04 127,-388 116.8,-335.02 122.73,-271.61 127.6,-236.26"/>
<polygon fill="LightBlue" stroke="LightBlue" points="131.09,-236.63 129.06,-226.23 124.16,-235.62 131.09,-236.63"/>
<text text-anchor="middle" x="136.5" y="-312.3" font-family="Courier New" font-size="14.00" fill="LightBlue">[2]</text>
</g>
<!-- Roll&#45;6 -->
<g id="node6" class="node">
<title>Roll&#45;6</title>
<polygon fill="none" stroke="LightBlue" stroke-dasharray="5,2" points="383,-334 329,-334 329,-298 383,-298 383,-334"/>
<text text-anchor="start" x="343" y="-313.3" font-family="Helvetica,sans-Serif" font-weight="bold" font-size="14.00" fill="LightBlue">Roll</text>
</g>
<!-- Roll&#45;1&#45;&gt;Roll&#45;6 -->
<g id="edge11" class="edge">
<title>Roll&#45;1&#45;&gt;Roll&#45;6</title>
<path fill="none" stroke="LightBlue" stroke-dasharray="5,2" d="M168.04,-420.42C211.31,-415.84 293.63,-405.13 317,-388 331.8,-377.16 341.64,-358.93 347.73,-343.66"/>
<polygon fill="LightBlue" stroke="LightBlue" points="351.06,-344.76 351.21,-334.16 344.49,-342.35 351.06,-344.76"/>
<text text-anchor="middle" x="371.5" y="-376.8" font-family="Courier New" font-size="14.00" fill="LightBlue">sources[0]</text>
</g>
<!-- Roll&#45;8 -->
<g id="node8" class="node">
<title>Roll&#45;8</title>
<polygon fill="none" stroke="LightBlue" stroke-dasharray="5,2" points="223,-334 169,-334 169,-298 223,-298 223,-334"/>
<text text-anchor="start" x="183" y="-313.3" font-family="Helvetica,sans-Serif" font-weight="bold" font-size="14.00" fill="LightBlue">Roll</text>
</g>
<!-- Roll&#45;1&#45;&gt;Roll&#45;8 -->
<g id="edge12" class="edge">
<title>Roll&#45;1&#45;&gt;Roll&#45;8</title>
<path fill="none" stroke="LightBlue" stroke-dasharray="5,2" d="M133.54,-405.7C130.39,-395.76 128.39,-383.26 133,-373 138.98,-359.68 149.87,-348.24 160.93,-339.23"/>
<polygon fill="LightBlue" stroke="LightBlue" points="163.13,-341.96 168.95,-333.11 158.88,-336.39 163.13,-341.96"/>
<text text-anchor="middle" x="174.5" y="-376.8" font-family="Courier New" font-size="14.00" fill="LightBlue">sources[1]</text>
</g>
<!-- Roll&#45;9 -->
<g id="node9" class="node">
<title>Roll&#45;9</title>
<polygon fill="none" stroke="LightBlue" stroke-dasharray="5,2" points="295,-334 241,-334 241,-298 295,-298 295,-334"/>
<text text-anchor="start" x="255" y="-313.3" font-family="Helvetica,sans-Serif" font-weight="bold" font-size="14.00" fill="LightBlue">Roll</text>
</g>
<!-- Roll&#45;1&#45;&gt;Roll&#45;9 -->
<g id="edge13" class="edge">
<title>Roll&#45;1&#45;&gt;Roll&#45;9</title>
<path fill="none" stroke="LightBlue" stroke-dasharray="5,2" d="M168.2,-414.12C183.33,-408.29 201.9,-399.58 216,-388 231.25,-375.47 244.35,-357.51 253.59,-342.78"/>
<polygon fill="LightBlue" stroke="LightBlue" points="256.65,-344.48 258.83,-334.11 250.66,-340.86 256.65,-344.48"/>
<text text-anchor="middle" x="271.5" y="-376.8" font-family="Courier New" font-size="14.00" fill="LightBlue">sources[2]</text>
</g>
<!-- ValueRoller&#45;7 -->
<g id="node7" class="node">
<title>ValueRoller&#45;7</title>
<polygon fill="none" stroke="LightBlue" stroke-dasharray="5,2" points="715,-226 451,-226 451,-190 715,-190 715,-226"/>
<text text-anchor="start" x="545.5" y="-211.8" font-family="Helvetica,sans-Serif" font-weight="bold" font-size="14.00" fill="LightBlue">ValueRoller</text>
<text text-anchor="start" x="459" y="-197.8" font-family="Courier New" font-size="14.00" fill="LightBlue">value=H({1: 1, 2: 1, 3: 1, ...</text>
</g>
<!-- SubstitutionRoller&#45;2&#45;&gt;ValueRoller&#45;7 -->
<g id="edge14" class="edge">
<title>SubstitutionRoller&#45;2&#45;&gt;ValueRoller&#45;7</title>
<path fill="none" stroke="LightBlue" stroke-dasharray="5,2" d="M555.3,-297.97C560.52,-281.22 568.55,-255.41 574.63,-235.89"/>
<polygon fill="LightBlue" stroke="LightBlue" points="577.97,-236.93 577.6,-226.34 571.29,-234.85 577.97,-236.93"/>
<text text-anchor="middle" x="606.5" y="-268.8" font-family="Courier New" font-size="14.00" fill="LightBlue">sources[0]</text>
</g>
<!-- RollOutcome&#45;4&#45;&gt;RollOutcome&#45;3 -->
<g id="edge15" class="edge">
<title>RollOutcome&#45;4&#45;&gt;RollOutcome&#45;3</title>
<path fill="none" stroke="LightBlue" stroke-dasharray="5,2" d="M132,-102.8C132,-91.16 132,-75.55 132,-62.24"/>
<polygon fill="LightBlue" stroke="LightBlue" points="135.5,-62.18 132,-52.18 128.5,-62.18 135.5,-62.18"/>
<text text-anchor="middle" x="173.5" y="-73.8" font-family="Courier New" font-size="14.00" fill="LightBlue">sources[0]</text>
</g>
<!-- RollOutcome&#45;5&#45;&gt;RollOutcome&#45;4 -->
<g id="edge16" class="edge">
<title>RollOutcome&#45;5&#45;&gt;RollOutcome&#45;4</title>
<path fill="none" stroke="LightBlue" stroke-dasharray="5,2" d="M126.04,-189.76C124.39,-184.16 122.82,-177.88 122,-172 120.95,-164.49 121.72,-156.41 123.21,-148.98"/>
<polygon fill="LightBlue" stroke="LightBlue" points="126.67,-149.59 125.69,-139.04 119.87,-147.9 126.67,-149.59"/>
<text text-anchor="middle" x="163.5" y="-160.8" font-family="Courier New" font-size="14.00" fill="LightBlue">sources[0]</text>
</g>
<!-- Roll&#45;6&#45;&gt;RollOutcome&#45;3 -->
<g id="edge6" class="edge">
<title>Roll&#45;6&#45;&gt;RollOutcome&#45;3</title>
<path fill="none" stroke="LightBlue" stroke-dasharray="5,2" d="M352.51,-297.91C350.18,-288.05 346.68,-275.55 342,-265 300.42,-171.35 297.68,-135.64 219,-70 211.22,-63.51 202.08,-58.1 192.7,-53.64"/>
<polygon fill="LightBlue" stroke="LightBlue" points="193.84,-50.32 183.28,-49.49 191.02,-56.73 193.84,-50.32"/>
<text text-anchor="middle" x="314.5" y="-160.8" font-family="Courier New" font-size="14.00" fill="LightBlue">[0]</text>
</g>
<!-- Roll&#45;6&#45;&gt;ValueRoller&#45;7 -->
<g id="edge5" class="edge">
<title>Roll&#45;6&#45;&gt;ValueRoller&#45;7</title>
<path fill="none" stroke="LightBlue" stroke-dasharray="5,2" d="M383.38,-302.21C421.55,-284.39 491.25,-251.84 537.35,-230.32"/>
<polygon fill="LightBlue" stroke="LightBlue" points="538.94,-233.44 546.52,-226.03 535.98,-227.09 538.94,-233.44"/>
<text text-anchor="middle" x="466.5" y="-268.8" font-family="Courier New" font-size="14.00" fill="LightBlue">r</text>
</g>
<!-- Roll&#45;8&#45;&gt;RollOutcome&#45;4 -->
<g id="edge8" class="edge">
<title>Roll&#45;8&#45;&gt;RollOutcome&#45;4</title>
<path fill="none" stroke="LightBlue" stroke-dasharray="5,2" d="M203.03,-297.72C214.38,-266.81 232.81,-201.18 205,-157 201.56,-151.54 197,-146.91 191.84,-142.99"/>
<polygon fill="LightBlue" stroke="LightBlue" points="193.59,-139.95 183.31,-137.39 189.76,-145.8 193.59,-139.95"/>
<text text-anchor="middle" x="232.5" y="-204.3" font-family="Courier New" font-size="14.00" fill="LightBlue">[0]</text>
</g>
<!-- Roll&#45;8&#45;&gt;ValueRoller&#45;7 -->
<g id="edge7" class="edge">
<title>Roll&#45;8&#45;&gt;ValueRoller&#45;7</title>
<path fill="none" stroke="LightBlue" stroke-dasharray="5,2" d="M218.1,-297.8C222.53,-294.89 227.28,-292.13 232,-290 299.1,-259.74 378.71,-240.18 445.13,-227.88"/>
<polygon fill="LightBlue" stroke="LightBlue" points="446.03,-231.27 455.25,-226.04 444.78,-224.39 446.03,-231.27"/>
<text text-anchor="middle" x="300.5" y="-268.8" font-family="Courier New" font-size="14.00" fill="LightBlue">r</text>
</g>
<!-- Roll&#45;9&#45;&gt;RollOutcome&#45;5 -->
<g id="edge10" class="edge">
<title>Roll&#45;9&#45;&gt;RollOutcome&#45;5</title>
<path fill="none" stroke="LightBlue" stroke-dasharray="5,2" d="M246.15,-297.97C223.48,-280.3 187.86,-252.54 162.44,-232.73"/>
<polygon fill="LightBlue" stroke="LightBlue" points="164.29,-229.73 154.25,-226.34 159.98,-235.25 164.29,-229.73"/>
<text text-anchor="middle" x="233.5" y="-268.8" font-family="Courier New" font-size="14.00" fill="LightBlue">[0]</text>
</g>
<!-- Roll&#45;9&#45;&gt;ValueRoller&#45;7 -->
<g id="edge9" class="edge">
<title>Roll&#45;9&#45;&gt;ValueRoller&#45;7</title>
<path fill="none" stroke="LightBlue" stroke-dasharray="5,2" d="M295.19,-300.99C303.08,-297.18 311.79,-293.22 320,-290 382.4,-265.55 455.37,-243.58 508.61,-228.7"/>
<polygon fill="LightBlue" stroke="LightBlue" points="509.61,-232.06 518.31,-226.01 507.74,-225.31 509.61,-232.06"/>
<text text-anchor="middle" x="387.5" y="-268.8" font-family="Courier New" font-size="14.00" fill="LightBlue">r</text>
</g>
</g>
</svg>
