<?xml version="1.0" encoding="UTF-8" standalone="no"?>
<!DOCTYPE svg PUBLIC "-//W3C//DTD SVG 1.1//EN"
 "http://www.w3.org/Graphics/SVG/1.1/DTD/svg11.dtd">
<!-- Generated by graphviz version 2.49.3 (20211023.0002)
 -->
<!-- Pages: 1 -->
<svg width="1044pt" height="489pt"
 viewBox="0.00 0.00 1044.00 489.00" xmlns="http://www.w3.org/2000/svg" xmlns:xlink="http://www.w3.org/1999/xlink">
<g id="graph0" class="graph" transform="scale(1 1) rotate(0) translate(4 485)">
<g id="clust1" class="cluster">
<title>cluster_rolls</title>
<polygon fill="transparent" stroke="Azure" stroke-dasharray="1,5" points="8,-203 8,-473 343,-473 343,-203 8,-203"/>
<text text-anchor="start" x="147" y="-458.8" font-family="Helvetica,sans-Serif" font-style="italic" font-size="14.00" fill="Azure">Roll Tree</text>
</g>
<g id="clust2" class="cluster">
<title>cluster_rollers</title>
<polygon fill="transparent" stroke="Azure" stroke-dasharray="1,5" points="752,-95 752,-365 1028,-365 1028,-95 752,-95"/>
<text text-anchor="start" x="855.5" y="-350.8" font-family="Helvetica,sans-Serif" font-style="italic" font-size="14.00" fill="Azure">Roller Tree</text>
</g>
<g id="clust3" class="cluster">
<title>cluster_roll_outcomes</title>
<polygon fill="transparent" stroke="Azure" stroke-dasharray="1,5" points="50,-8 50,-170 536,-170 536,-8 50,-8"/>
<text text-anchor="start" x="247" y="-155.8" font-family="Helvetica,sans-Serif" font-style="italic" font-size="14.00" fill="Azure">Roll Outcomes</text>
</g>
<!-- Roll&#45;1 -->
<g id="node1" class="node">
<title>Roll&#45;1</title>
<polygon fill="none" stroke="Azure" points="335,-442 281,-442 281,-406 335,-406 335,-442"/>
<text text-anchor="start" x="294.5" y="-421.3" font-family="Helvetica,sans-Serif" font-weight="bold" font-size="14.00" fill="Azure">Roll</text>
</g>
<!-- SelectionRoller&#45;2 -->
<g id="node2" class="node">
<title>SelectionRoller&#45;2</title>
<polygon fill="none" stroke="Azure" points="1020,-334 760,-334 760,-298 1020,-298 1020,-334"/>
<text text-anchor="start" x="839" y="-319.8" font-family="Helvetica,sans-Serif" font-weight="bold" font-size="14.00" fill="Azure">SelectionRoller</text>
<text text-anchor="start" x="768" y="-305.8" font-family="Courier New" font-size="14.00" fill="Azure">which=(slice(1, None, None),)</text>
</g>
<!-- Roll&#45;1&#45;&gt;SelectionRoller&#45;2 -->
<g id="edge1" class="edge">
<title>Roll&#45;1&#45;&gt;SelectionRoller&#45;2</title>
<path fill="none" stroke="Azure" d="M335.12,-421.96C416.3,-418.67 656.37,-407.5 732,-388 774.49,-377.04 819.87,-355.51 851.04,-339.02"/>
<polygon fill="Azure" stroke="Azure" points="853.09,-341.9 860.24,-334.08 849.78,-335.73 853.09,-341.9"/>
<text text-anchor="middle" x="781.5" y="-376.8" font-family="Courier New" font-size="14.00" fill="Azure">r</text>
</g>
<!-- RollOutcome&#45;3 -->
<g id="node3" class="node">
<title>RollOutcome&#45;3</title>
<polygon fill="none" stroke="LightBlue" stroke-dasharray="5,2" points="162,-139 58,-139 58,-103 162,-103 162,-139"/>
<text text-anchor="start" x="66" y="-124.8" font-family="Helvetica,sans-Serif" font-weight="bold" font-size="14.00" fill="LightBlue">RollOutcome</text>
<text text-anchor="start" x="80.5" y="-110.8" font-family="Courier New" font-size="14.00" fill="LightBlue">value=1</text>
</g>
<!-- Roll&#45;1&#45;&gt;RollOutcome&#45;3 -->
<g id="edge2" class="edge">
<title>Roll&#45;1&#45;&gt;RollOutcome&#45;3</title>
<path fill="none" stroke="LightBlue" stroke-dasharray="5,2" d="M335.13,-419.9C355.1,-416.05 380.95,-407.39 394,-388 401.3,-377.15 467.37,-292.77 387,-203 370.81,-184.91 193.27,-179.66 171,-170 157.7,-164.23 144.81,-154.84 134.32,-145.88"/>
<polygon fill="LightBlue" stroke="LightBlue" points="136.61,-143.23 126.81,-139.18 131.95,-148.45 136.61,-143.23"/>
<text text-anchor="middle" x="438" y="-268.8" font-family="Courier New" font-size="14.00" fill="LightBlue">[0]</text>
</g>
<!-- RollOutcome&#45;4 -->
<g id="node4" class="node">
<title>RollOutcome&#45;4</title>
<polygon fill="none" stroke="LightPink" stroke-dasharray="5,2" points="406,-139 302,-139 302,-103 406,-103 406,-139"/>
<text text-anchor="start" x="310" y="-124.8" font-family="Helvetica,sans-Serif" font-weight="bold" font-size="14.00" fill="LightPink">RollOutcome</text>
<text text-anchor="start" x="324.5" y="-110.8" font-family="Courier New" font-size="14.00" fill="LightPink">value=5</text>
</g>
<!-- Roll&#45;1&#45;&gt;RollOutcome&#45;4 -->
<g id="edge3" class="edge">
<title>Roll&#45;1&#45;&gt;RollOutcome&#45;4</title>
<path fill="none" stroke="LightPink" stroke-dasharray="5,2" d="M335.28,-422.2C384.99,-420.13 487.35,-412.89 511,-388 575.38,-320.25 586.36,-245.77 522,-178 505.58,-160.71 437.22,-178.64 415,-170 401.39,-164.71 388.37,-155.3 377.88,-146.2"/>
<polygon fill="LightPink" stroke="LightPink" points="380.14,-143.52 370.38,-139.38 375.42,-148.7 380.14,-143.52"/>
<text text-anchor="middle" x="578" y="-268.8" font-family="Courier New" font-size="14.00" fill="LightPink">[1]</text>
</g>
<!-- RollOutcome&#45;5 -->
<g id="node5" class="node">
<title>RollOutcome&#45;5</title>
<polygon fill="none" stroke="LightBlue" stroke-dasharray="5,2" points="284,-139 180,-139 180,-103 284,-103 284,-139"/>
<text text-anchor="start" x="188" y="-124.8" font-family="Helvetica,sans-Serif" font-weight="bold" font-size="14.00" fill="LightBlue">RollOutcome</text>
<text text-anchor="start" x="202.5" y="-110.8" font-family="Courier New" font-size="14.00" fill="LightBlue">value=6</text>
</g>
<!-- Roll&#45;1&#45;&gt;RollOutcome&#45;5 -->
<g id="edge4" class="edge">
<title>Roll&#45;1&#45;&gt;RollOutcome&#45;5</title>
<path fill="none" stroke="LightBlue" stroke-dasharray="5,2" d="M335.46,-420.88C360.67,-417.6 397.68,-409.26 422,-388 487.61,-330.64 536.34,-274.84 487,-203 469.48,-177.49 452.24,-184.59 422,-178 393.94,-171.88 319.84,-180.23 293,-170 279.35,-164.8 266.33,-155.4 255.85,-146.29"/>
<polygon fill="LightBlue" stroke="LightBlue" points="258.1,-143.61 248.36,-139.45 253.38,-148.78 258.1,-143.61"/>
<text text-anchor="middle" x="520" y="-268.8" font-family="Courier New" font-size="14.00" fill="LightBlue">[2]</text>
</g>
<!-- RollOutcome&#45;6 -->
<g id="node6" class="node">
<title>RollOutcome&#45;6</title>
<polygon fill="none" stroke="Azure" stroke-dasharray="1,5" points="528,-139 424,-139 424,-103 528,-103 528,-139"/>
<text text-anchor="start" x="432" y="-124.8" font-family="Helvetica,sans-Serif" font-weight="bold" font-size="14.00" fill="Azure">RollOutcome</text>
<text text-anchor="start" x="433.5" y="-110.8" font-family="Courier New" font-size="14.00" fill="Azure">value=None</text>
</g>
<!-- Roll&#45;1&#45;&gt;RollOutcome&#45;6 -->
<g id="edge5" class="edge">
<title>Roll&#45;1&#45;&gt;RollOutcome&#45;6</title>
<path fill="none" stroke="Azure" d="M335.05,-422.51C407.83,-419.55 608.21,-400.35 696,-280 723.44,-242.37 752.22,-211.63 720,-178 705.61,-162.98 552.38,-177.55 533,-170 519.87,-164.89 507.6,-155.44 497.83,-146.27"/>
<polygon fill="Azure" stroke="Azure" points="500.13,-143.62 490.56,-139.06 495.2,-148.59 500.13,-143.62"/>
<text text-anchor="middle" x="719" y="-268.8" font-family="Courier New" font-size="14.00" fill="Azure">[3]</text>
</g>
<!-- Roll&#45;7 -->
<g id="node7" class="node">
<title>Roll&#45;7</title>
<polygon fill="none" stroke="LightBlue" stroke-dasharray="5,2" points="263,-334 209,-334 209,-298 263,-298 263,-334"/>
<text text-anchor="start" x="222.5" y="-313.3" font-family="Helvetica,sans-Serif" font-weight="bold" font-size="14.00" fill="LightBlue">Roll</text>
</g>
<!-- Roll&#45;1&#45;&gt;Roll&#45;7 -->
<g id="edge18" class="edge">
<title>Roll&#45;1&#45;&gt;Roll&#45;7</title>
<path fill="none" stroke="LightBlue" stroke-dasharray="5,2" d="M280.81,-420.34C260.05,-416.72 232.74,-408.17 219,-388 210.07,-374.89 213.93,-357.64 220.21,-343.42"/>
<polygon fill="LightBlue" stroke="LightBlue" points="223.5,-344.66 224.82,-334.15 217.23,-341.55 223.5,-344.66"/>
<text text-anchor="middle" x="261.5" y="-376.8" font-family="Courier New" font-size="14.00" fill="LightBlue">sources[0]</text>
</g>
<!-- Roll&#45;10 -->
<g id="node10" class="node">
<title>Roll&#45;10</title>
<polygon fill="none" stroke="LightPink" stroke-dasharray="5,2" points="335,-334 281,-334 281,-298 335,-298 335,-334"/>
<text text-anchor="start" x="294.5" y="-313.3" font-family="Helvetica,sans-Serif" font-weight="bold" font-size="14.00" fill="LightPink">Roll</text>
</g>
<!-- Roll&#45;1&#45;&gt;Roll&#45;10 -->
<g id="edge19" class="edge">
<title>Roll&#45;1&#45;&gt;Roll&#45;10</title>
<path fill="none" stroke="LightPink" stroke-dasharray="5,2" d="M308,-405.97C308,-389.38 308,-363.88 308,-344.43"/>
<polygon fill="LightPink" stroke="LightPink" points="311.5,-344.34 308,-334.34 304.5,-344.34 311.5,-344.34"/>
<text text-anchor="middle" x="350.5" y="-376.8" font-family="Courier New" font-size="14.00" fill="LightPink">sources[1]</text>
</g>
<!-- RepeatRoller&#45;8 -->
<g id="node8" class="node">
<title>RepeatRoller&#45;8</title>
<polygon fill="none" stroke="LightBlue" stroke-dasharray="5,2" points="863.5,-247 760.5,-247 760.5,-211 863.5,-211 863.5,-247"/>
<text text-anchor="start" x="768.5" y="-232.8" font-family="Helvetica,sans-Serif" font-weight="bold" font-size="14.00" fill="LightBlue">RepeatRoller</text>
<text text-anchor="start" x="799" y="-218.8" font-family="Courier New" font-size="14.00" fill="LightBlue">n=3</text>
</g>
<!-- SelectionRoller&#45;2&#45;&gt;RepeatRoller&#45;8 -->
<g id="edge23" class="edge">
<title>SelectionRoller&#45;2&#45;&gt;RepeatRoller&#45;8</title>
<path fill="none" stroke="LightBlue" stroke-dasharray="5,2" d="M839.51,-297.93C831.61,-293.24 824.31,-287.35 819,-280 814.29,-273.48 812.05,-265.21 811.13,-257.28"/>
<polygon fill="LightBlue" stroke="LightBlue" points="814.62,-257.02 810.56,-247.23 807.63,-257.41 814.62,-257.02"/>
<text text-anchor="middle" x="861.5" y="-268.8" font-family="Courier New" font-size="14.00" fill="LightBlue">sources[0]</text>
</g>
<!-- ValueRoller&#45;11 -->
<g id="node11" class="node">
<title>ValueRoller&#45;11</title>
<polygon fill="none" stroke="LightPink" stroke-dasharray="5,2" points="982.5,-247 881.5,-247 881.5,-211 982.5,-211 982.5,-247"/>
<text text-anchor="start" x="893.5" y="-232.8" font-family="Helvetica,sans-Serif" font-weight="bold" font-size="14.00" fill="LightPink">ValueRoller</text>
<text text-anchor="start" x="889.5" y="-218.8" font-family="Courier New" font-size="14.00" fill="LightPink">value=H(8)</text>
</g>
<!-- SelectionRoller&#45;2&#45;&gt;ValueRoller&#45;11 -->
<g id="edge24" class="edge">
<title>SelectionRoller&#45;2&#45;&gt;ValueRoller&#45;11</title>
<path fill="none" stroke="LightPink" stroke-dasharray="5,2" d="M898.5,-297.8C904.36,-285.93 912.27,-269.93 918.93,-256.45"/>
<polygon fill="LightPink" stroke="LightPink" points="922.22,-257.69 923.51,-247.18 915.95,-254.59 922.22,-257.69"/>
<text text-anchor="middle" x="955.5" y="-268.8" font-family="Courier New" font-size="14.00" fill="LightPink">sources[1]</text>
</g>
<!-- RollOutcome&#45;9 -->
<g id="node9" class="node">
<title>RollOutcome&#45;9</title>
<polygon fill="none" stroke="LightBlue" stroke-dasharray="5,2" points="528,-52 424,-52 424,-16 528,-16 528,-52"/>
<text text-anchor="start" x="432" y="-37.8" font-family="Helvetica,sans-Serif" font-weight="bold" font-size="14.00" fill="LightBlue">RollOutcome</text>
<text text-anchor="start" x="446.5" y="-23.8" font-family="Courier New" font-size="14.00" fill="LightBlue">value=1</text>
</g>
<!-- RollOutcome&#45;6&#45;&gt;RollOutcome&#45;9 -->
<g id="edge26" class="edge">
<title>RollOutcome&#45;6&#45;&gt;RollOutcome&#45;9</title>
<path fill="none" stroke="LightBlue" stroke-dasharray="5,2" d="M469.06,-102.98C465.94,-93.35 463.3,-81.07 465,-70 465.41,-67.32 465.99,-64.56 466.67,-61.83"/>
<polygon fill="LightBlue" stroke="LightBlue" points="470.04,-62.78 469.45,-52.2 463.31,-60.83 470.04,-62.78"/>
<text text-anchor="middle" x="507.5" y="-73.8" font-family="Courier New" font-size="14.00" fill="LightBlue">sources[0]</text>
</g>
<!-- Roll&#45;7&#45;&gt;RollOutcome&#45;3 -->
<g id="edge9" class="edge">
<title>Roll&#45;7&#45;&gt;RollOutcome&#45;3</title>
<path fill="none" stroke="LightBlue" stroke-dasharray="5,2" d="M263,-301.91C266.02,-300.55 269.06,-299.22 272,-298 293.81,-288.95 308.42,-299.32 322,-280 325.83,-274.55 325.19,-270.85 322,-265 314.91,-252.02 304.52,-257.4 294,-247 277.34,-230.53 283.46,-217.41 265,-203 230.1,-175.75 209.81,-191.31 171,-170 158.79,-163.3 146.5,-154.18 136.17,-145.69"/>
<polygon fill="LightBlue" stroke="LightBlue" points="138.25,-142.87 128.36,-139.08 133.73,-148.21 138.25,-142.87"/>
<text text-anchor="middle" x="307" y="-225.3" font-family="Courier New" font-size="14.00" fill="LightBlue">[2]</text>
</g>
<!-- Roll&#45;7&#45;&gt;RollOutcome&#45;5 -->
<g id="edge7" class="edge">
<title>Roll&#45;7&#45;&gt;RollOutcome&#45;5</title>
<path fill="none" stroke="LightBlue" stroke-dasharray="5,2" d="M263.24,-301.3C266.16,-300.09 269.11,-298.96 272,-298 310.3,-285.29 335.45,-311.24 361,-280 381.79,-254.58 304.76,-183.07 260.72,-145.59"/>
<polygon fill="LightBlue" stroke="LightBlue" points="262.82,-142.78 252.92,-139.01 258.3,-148.13 262.82,-142.78"/>
<text text-anchor="middle" x="370" y="-225.3" font-family="Courier New" font-size="14.00" fill="LightBlue">[0]</text>
</g>
<!-- Roll&#45;7&#45;&gt;RepeatRoller&#45;8 -->
<g id="edge6" class="edge">
<title>Roll&#45;7&#45;&gt;RepeatRoller&#45;8</title>
<path fill="none" stroke="LightBlue" stroke-dasharray="5,2" d="M263.11,-300.86C266.05,-299.73 269.05,-298.74 272,-298 418.3,-261.09 463.58,-312.12 611,-280 628.74,-276.14 631.62,-270.26 649,-265 681.98,-255.02 719.53,-246.76 750.28,-240.77"/>
<polygon fill="LightBlue" stroke="LightBlue" points="751.26,-244.14 760.43,-238.83 749.95,-237.27 751.26,-244.14"/>
<text text-anchor="middle" x="653.5" y="-268.8" font-family="Courier New" font-size="14.00" fill="LightBlue">r</text>
</g>
<!-- Roll&#45;7&#45;&gt;RollOutcome&#45;9 -->
<g id="edge8" class="edge">
<title>Roll&#45;7&#45;&gt;RollOutcome&#45;9</title>
<path fill="none" stroke="LightBlue" stroke-dasharray="5,2" d="M263.11,-300.88C266.06,-299.75 269.05,-298.75 272,-298 305.54,-289.45 557.93,-303.86 583,-280 616.03,-248.57 588.73,-223.29 594,-178 594.41,-174.44 594.78,-173.58 595,-170 597.07,-136.73 608.35,-125.55 595,-95 584.78,-71.61 561.28,-57.24 537.83,-48.46"/>
<polygon fill="LightBlue" stroke="LightBlue" points="538.77,-45.08 528.18,-45.14 536.5,-51.7 538.77,-45.08"/>
<text text-anchor="middle" x="607" y="-181.8" font-family="Courier New" font-size="14.00" fill="LightBlue">[1]</text>
</g>
<!-- Roll&#45;12 -->
<g id="node12" class="node">
<title>Roll&#45;12</title>
<polygon fill="none" stroke="LightBlue" stroke-dasharray="5,2" points="184,-247 130,-247 130,-211 184,-211 184,-247"/>
<text text-anchor="start" x="143.5" y="-226.3" font-family="Helvetica,sans-Serif" font-weight="bold" font-size="14.00" fill="LightBlue">Roll</text>
</g>
<!-- Roll&#45;7&#45;&gt;Roll&#45;12 -->
<g id="edge20" class="edge">
<title>Roll&#45;7&#45;&gt;Roll&#45;12</title>
<path fill="none" stroke="LightBlue" stroke-dasharray="5,2" d="M208.79,-312.75C187.25,-309.38 158.45,-300.96 144,-280 139.29,-273.18 139.68,-264.76 142.1,-256.8"/>
<polygon fill="LightBlue" stroke="LightBlue" points="145.38,-258.02 145.84,-247.44 138.88,-255.42 145.38,-258.02"/>
<text text-anchor="middle" x="186.5" y="-268.8" font-family="Courier New" font-size="14.00" fill="LightBlue">sources[0]</text>
</g>
<!-- Roll&#45;14 -->
<g id="node14" class="node">
<title>Roll&#45;14</title>
<polygon fill="none" stroke="LightBlue" stroke-dasharray="5,2" points="256,-247 202,-247 202,-211 256,-211 256,-247"/>
<text text-anchor="start" x="215.5" y="-226.3" font-family="Helvetica,sans-Serif" font-weight="bold" font-size="14.00" fill="LightBlue">Roll</text>
</g>
<!-- Roll&#45;7&#45;&gt;Roll&#45;14 -->
<g id="edge21" class="edge">
<title>Roll&#45;7&#45;&gt;Roll&#45;14</title>
<path fill="none" stroke="LightBlue" stroke-dasharray="5,2" d="M234.58,-297.8C233.63,-286.16 232.34,-270.55 231.24,-257.24"/>
<polygon fill="LightBlue" stroke="LightBlue" points="234.72,-256.85 230.41,-247.18 227.75,-257.43 234.72,-256.85"/>
<text text-anchor="middle" x="275.5" y="-268.8" font-family="Courier New" font-size="14.00" fill="LightBlue">sources[1]</text>
</g>
<!-- Roll&#45;15 -->
<g id="node15" class="node">
<title>Roll&#45;15</title>
<polygon fill="none" stroke="LightBlue" stroke-dasharray="5,2" points="112,-247 58,-247 58,-211 112,-211 112,-247"/>
<text text-anchor="start" x="71.5" y="-226.3" font-family="Helvetica,sans-Serif" font-weight="bold" font-size="14.00" fill="LightBlue">Roll</text>
</g>
<!-- Roll&#45;7&#45;&gt;Roll&#45;15 -->
<g id="edge22" class="edge">
<title>Roll&#45;7&#45;&gt;Roll&#45;15</title>
<path fill="none" stroke="LightBlue" stroke-dasharray="5,2" d="M208.81,-313.93C162.55,-311.47 71.59,-303.67 52,-280 45.57,-272.23 48.75,-263.17 55.18,-254.91"/>
<polygon fill="LightBlue" stroke="LightBlue" points="57.97,-257.05 62.13,-247.31 52.8,-252.32 57.97,-257.05"/>
<text text-anchor="middle" x="94.5" y="-268.8" font-family="Courier New" font-size="14.00" fill="LightBlue">sources[2]</text>
</g>
<!-- ValueRoller&#45;13 -->
<g id="node13" class="node">
<title>ValueRoller&#45;13</title>
<polygon fill="none" stroke="LightBlue" stroke-dasharray="5,2" points="861.5,-139 760.5,-139 760.5,-103 861.5,-103 861.5,-139"/>
<text text-anchor="start" x="772.5" y="-124.8" font-family="Helvetica,sans-Serif" font-weight="bold" font-size="14.00" fill="LightBlue">ValueRoller</text>
<text text-anchor="start" x="768.5" y="-110.8" font-family="Courier New" font-size="14.00" fill="LightBlue">value=H(6)</text>
</g>
<!-- RepeatRoller&#45;8&#45;&gt;ValueRoller&#45;13 -->
<g id="edge25" class="edge">
<title>RepeatRoller&#45;8&#45;&gt;ValueRoller&#45;13</title>
<path fill="none" stroke="LightBlue" stroke-dasharray="5,2" d="M811.84,-210.97C811.68,-194.38 811.44,-168.88 811.26,-149.43"/>
<polygon fill="LightBlue" stroke="LightBlue" points="814.76,-149.31 811.16,-139.34 807.76,-149.37 814.76,-149.31"/>
<text text-anchor="middle" x="853.5" y="-181.8" font-family="Courier New" font-size="14.00" fill="LightBlue">sources[0]</text>
</g>
<!-- Roll&#45;10&#45;&gt;RollOutcome&#45;4 -->
<g id="edge11" class="edge">
<title>Roll&#45;10&#45;&gt;RollOutcome&#45;4</title>
<path fill="none" stroke="LightPink" stroke-dasharray="5,2" d="M335.07,-311.58C369.38,-306.63 425.56,-296.23 438,-280 452.99,-260.44 487.85,-289.91 422,-178 419.43,-173.64 401.35,-158.82 384.47,-145.52"/>
<polygon fill="LightPink" stroke="LightPink" points="386.39,-142.58 376.36,-139.17 382.08,-148.09 386.39,-142.58"/>
<text text-anchor="middle" x="470" y="-225.3" font-family="Courier New" font-size="14.00" fill="LightPink">[0]</text>
</g>
<!-- Roll&#45;10&#45;&gt;ValueRoller&#45;11 -->
<g id="edge10" class="edge">
<title>Roll&#45;10&#45;&gt;ValueRoller&#45;11</title>
<path fill="none" stroke="LightPink" stroke-dasharray="5,2" d="M335,-315.71C394.63,-316.55 541.5,-314.58 658,-280 671.91,-275.87 673.08,-269.11 687,-265 763.55,-242.42 789.4,-260.99 871.05,-247.11"/>
<polygon fill="LightPink" stroke="LightPink" points="872.08,-250.48 881.29,-245.25 870.83,-243.59 872.08,-250.48"/>
<text text-anchor="middle" x="691.5" y="-268.8" font-family="Courier New" font-size="14.00" fill="LightPink">r</text>
</g>
<!-- Roll&#45;12&#45;&gt;RollOutcome&#45;5 -->
<g id="edge13" class="edge">
<title>Roll&#45;12&#45;&gt;RollOutcome&#45;5</title>
<path fill="none" stroke="LightBlue" stroke-dasharray="5,2" d="M169.05,-210.97C181.17,-193.84 200,-167.22 213.92,-147.56"/>
<polygon fill="LightBlue" stroke="LightBlue" points="216.81,-149.53 219.73,-139.34 211.1,-145.48 216.81,-149.53"/>
<text text-anchor="middle" x="206" y="-181.8" font-family="Courier New" font-size="14.00" fill="LightBlue">[0]</text>
</g>
<!-- Roll&#45;12&#45;&gt;ValueRoller&#45;13 -->
<g id="edge12" class="edge">
<title>Roll&#45;12&#45;&gt;ValueRoller&#45;13</title>
<path fill="none" stroke="LightBlue" stroke-dasharray="5,2" d="M177.21,-210.95C182.09,-207.72 187.5,-204.79 193,-203 241.94,-187.09 606.84,-208.19 656,-193 667.66,-189.4 668.23,-183.74 679,-178 703.63,-164.88 732.01,-152.51 756.12,-142.75"/>
<polygon fill="LightBlue" stroke="LightBlue" points="757.5,-145.97 765.48,-139 754.9,-139.47 757.5,-145.97"/>
<text text-anchor="middle" x="683.5" y="-181.8" font-family="Courier New" font-size="14.00" fill="LightBlue">r</text>
</g>
<!-- Roll&#45;14&#45;&gt;RollOutcome&#45;9 -->
<g id="edge15" class="edge">
<title>Roll&#45;14&#45;&gt;RollOutcome&#45;9</title>
<path fill="none" stroke="LightBlue" stroke-dasharray="5,2" d="M247.56,-210.82C251.72,-207.76 256.31,-204.94 261,-203 318.11,-179.45 492.61,-212.96 537,-170 569.21,-138.83 573.98,-107.87 550,-70 546.56,-64.56 542.02,-59.95 536.88,-56.05"/>
<polygon fill="LightBlue" stroke="LightBlue" points="538.66,-53.03 528.37,-50.48 534.82,-58.89 538.66,-53.03"/>
<text text-anchor="middle" x="578" y="-117.3" font-family="Courier New" font-size="14.00" fill="LightBlue">[0]</text>
</g>
<!-- Roll&#45;14&#45;&gt;ValueRoller&#45;13 -->
<g id="edge14" class="edge">
<title>Roll&#45;14&#45;&gt;ValueRoller&#45;13</title>
<path fill="none" stroke="LightBlue" stroke-dasharray="5,2" d="M252.29,-210.95C257.84,-207.71 263.92,-204.79 270,-203 359.15,-176.81 598.54,-218.12 688,-193 722.46,-183.32 757.39,-161.79 781.18,-144.96"/>
<polygon fill="LightBlue" stroke="LightBlue" points="783.36,-147.7 789.42,-139 779.26,-142.03 783.36,-147.7"/>
<text text-anchor="middle" x="728.5" y="-181.8" font-family="Courier New" font-size="14.00" fill="LightBlue">r</text>
</g>
<!-- Roll&#45;15&#45;&gt;RollOutcome&#45;3 -->
<g id="edge17" class="edge">
<title>Roll&#45;15&#45;&gt;RollOutcome&#45;3</title>
<path fill="none" stroke="LightBlue" stroke-dasharray="5,2" d="M89.02,-210.97C92.95,-194.3 99,-168.65 103.59,-149.16"/>
<polygon fill="LightBlue" stroke="LightBlue" points="107.02,-149.88 105.91,-139.34 100.21,-148.27 107.02,-149.88"/>
<text text-anchor="middle" x="110" y="-181.8" font-family="Courier New" font-size="14.00" fill="LightBlue">[0]</text>
</g>
<!-- Roll&#45;15&#45;&gt;ValueRoller&#45;13 -->
<g id="edge16" class="edge">
<title>Roll&#45;15&#45;&gt;ValueRoller&#45;13</title>
<path fill="none" stroke="LightBlue" stroke-dasharray="5,2" d="M105.21,-210.95C110.09,-207.71 115.5,-204.78 121,-203 174.18,-185.76 570.58,-209.46 624,-193 635.66,-189.41 636.03,-183.35 647,-178 679.95,-161.94 718.67,-148.49 750.22,-138.79"/>
<polygon fill="LightBlue" stroke="LightBlue" points="751.63,-142.02 760.19,-135.78 749.61,-135.32 751.63,-142.02"/>
<text text-anchor="middle" x="651.5" y="-181.8" font-family="Courier New" font-size="14.00" fill="LightBlue">r</text>
</g>
</g>
</svg>
