<?xml version="1.0" encoding="UTF-8" standalone="no"?>
<!DOCTYPE svg PUBLIC "-//W3C//DTD SVG 1.1//EN"
 "http://www.w3.org/Graphics/SVG/1.1/DTD/svg11.dtd">
<!-- Generated by graphviz version 2.50.0 (20211204.2007)
 -->
<!-- Pages: 1 -->
<svg width="717pt" height="489pt"
 viewBox="0.00 0.00 717.00 489.00" xmlns="http://www.w3.org/2000/svg" xmlns:xlink="http://www.w3.org/1999/xlink">
<g id="graph0" class="graph" transform="scale(1 1) rotate(0) translate(4 485)">
<g id="clust1" class="cluster">
<title>cluster_rolls</title>
<polygon fill="transparent" stroke="DarkSlateGray" stroke-dasharray="1,5" points="166,-290 166,-473 495,-473 495,-290 166,-290"/>
<text text-anchor="start" x="303" y="-458.8" font-family="Helvetica,sans-Serif" font-style="italic" font-size="14.00" fill="DarkSlateGray">Roll Tree</text>
</g>
<g id="clust2" class="cluster">
<title>cluster_rollers</title>
<polygon fill="transparent" stroke="DarkSlateGray" stroke-dasharray="1,5" points="8,-182 8,-365 158,-365 158,-182 8,-182"/>
<text text-anchor="start" x="49.5" y="-350.8" font-family="Helvetica,sans-Serif" font-style="italic" font-size="14.00" fill="DarkSlateGray">Roller Tree</text>
</g>
<g id="clust3" class="cluster">
<title>cluster_roll_outcomes</title>
<polygon fill="transparent" stroke="DarkSlateGray" stroke-dasharray="1,5" points="379,-8 379,-257 617,-257 617,-8 379,-8"/>
<text text-anchor="start" x="452.5" y="-242.8" font-family="Helvetica,sans-Serif" font-style="italic" font-size="14.00" fill="DarkSlateGray">Roll Outcomes</text>
</g>
<!-- Roll&#45;1 -->
<g id="node1" class="node">
<title>Roll&#45;1</title>
<polygon fill="none" stroke="DarkSlateGray" points="431,-442 377,-442 377,-406 431,-406 431,-442"/>
<text text-anchor="start" x="391" y="-421.3" font-family="Helvetica,sans-Serif" font-weight="bold" font-size="14.00" fill="DarkSlateGray">Roll</text>
</g>
<!-- SubstitutionRoller&#45;2 -->
<g id="node2" class="node">
<title>SubstitutionRoller&#45;2</title>
<polygon fill="none" stroke="DarkSlateGray" points="150,-334 16,-334 16,-298 150,-298 150,-334"/>
<text text-anchor="start" x="24" y="-313.3" font-family="Helvetica,sans-Serif" font-weight="bold" font-size="14.00" fill="DarkSlateGray">SubstitutionRoller</text>
</g>
<!-- Roll&#45;1&#45;&gt;SubstitutionRoller&#45;2 -->
<g id="edge1" class="edge">
<title>Roll&#45;1&#45;&gt;SubstitutionRoller&#45;2</title>
<path fill="none" stroke="DarkSlateGray" d="M376.76,-422.97C333.11,-422.03 245.54,-416.37 178,-388 151.66,-376.93 125.97,-357.01 107.95,-341.07"/>
<polygon fill="DarkSlateGray" stroke="DarkSlateGray" points="110,-338.21 100.25,-334.08 105.3,-343.39 110,-338.21"/>
<text text-anchor="middle" x="182.5" y="-376.8" font-family="Courier New" font-size="14.00" fill="DarkSlateGray">r</text>
</g>
<!-- RollOutcome&#45;3 -->
<g id="node3" class="node">
<title>RollOutcome&#45;3</title>
<polygon fill="none" stroke="DarkSlateGray" stroke-dasharray="1,5" points="609,-139 507,-139 507,-103 609,-103 609,-139"/>
<text text-anchor="start" x="515" y="-124.8" font-family="Helvetica,sans-Serif" font-weight="bold" font-size="14.00" fill="DarkSlateGray">RollOutcome</text>
<text text-anchor="start" x="516.5" y="-110.8" font-family="Courier New" font-size="14.00" fill="DarkSlateGray">value=None</text>
</g>
<!-- Roll&#45;1&#45;&gt;RollOutcome&#45;3 -->
<g id="edge2" class="edge">
<title>Roll&#45;1&#45;&gt;RollOutcome&#45;3</title>
<path fill="none" stroke="DarkSlateGray" d="M431.4,-415.29C449.7,-409.42 473.84,-400.26 493,-388 533.93,-361.8 591.42,-324.35 618,-257 634.4,-215.45 635.75,-192 608,-157 604.71,-152.85 600.8,-148.99 596.64,-145.46"/>
<polygon fill="DarkSlateGray" stroke="DarkSlateGray" points="598.47,-142.45 588.42,-139.09 594.18,-147.98 598.47,-142.45"/>
<text text-anchor="middle" x="626.5" y="-268.8" font-family="Courier New" font-size="14.00" fill="DarkSlateGray">[0]</text>
</g>
<!-- RollOutcome&#45;4 -->
<g id="node4" class="node">
<title>RollOutcome&#45;4</title>
<polygon fill="none" stroke="DarkSlateGray" stroke-dasharray="1,5" points="609,-226 507,-226 507,-190 609,-190 609,-226"/>
<text text-anchor="start" x="515" y="-211.8" font-family="Helvetica,sans-Serif" font-weight="bold" font-size="14.00" fill="DarkSlateGray">RollOutcome</text>
<text text-anchor="start" x="516.5" y="-197.8" font-family="Courier New" font-size="14.00" fill="DarkSlateGray">value=None</text>
</g>
<!-- Roll&#45;1&#45;&gt;RollOutcome&#45;4 -->
<g id="edge3" class="edge">
<title>Roll&#45;1&#45;&gt;RollOutcome&#45;4</title>
<path fill="none" stroke="DarkSlateGray" d="M431.19,-423.1C488.86,-422.72 620.65,-418.44 651,-388 689.89,-349 694.61,-312.06 666,-265 655.3,-247.4 637.08,-235.08 618.62,-226.58"/>
<polygon fill="DarkSlateGray" stroke="DarkSlateGray" points="619.85,-223.3 609.28,-222.58 617.1,-229.73 619.85,-223.3"/>
<text text-anchor="middle" x="696.5" y="-312.3" font-family="Courier New" font-size="14.00" fill="DarkSlateGray">[1]</text>
</g>
<!-- RollOutcome&#45;5 -->
<g id="node5" class="node">
<title>RollOutcome&#45;5</title>
<polygon fill="none" stroke="MediumVioletRed" stroke-dasharray="5,2" points="489,-226 387,-226 387,-190 489,-190 489,-226"/>
<text text-anchor="start" x="395" y="-211.8" font-family="Helvetica,sans-Serif" font-weight="bold" font-size="14.00" fill="MediumVioletRed">RollOutcome</text>
<text text-anchor="start" x="409" y="-197.8" font-family="Courier New" font-size="14.00" fill="MediumVioletRed">value=2</text>
</g>
<!-- Roll&#45;1&#45;&gt;RollOutcome&#45;5 -->
<g id="edge4" class="edge">
<title>Roll&#45;1&#45;&gt;RollOutcome&#45;5</title>
<path fill="none" stroke="MediumVioletRed" stroke-dasharray="5,2" d="M431.1,-417.38C447.14,-412.5 466.19,-403.67 476,-388 506.14,-339.84 475.62,-271.61 454.49,-234.85"/>
<polygon fill="MediumVioletRed" stroke="MediumVioletRed" points="457.48,-233.03 449.36,-226.22 451.46,-236.6 457.48,-233.03"/>
<text text-anchor="middle" x="500.5" y="-312.3" font-family="Courier New" font-size="14.00" fill="MediumVioletRed">[2]</text>
</g>
<!-- Roll&#45;6 -->
<g id="node6" class="node">
<title>Roll&#45;6</title>
<polygon fill="none" stroke="MediumVioletRed" stroke-dasharray="5,2" points="228,-334 174,-334 174,-298 228,-298 228,-334"/>
<text text-anchor="start" x="188" y="-313.3" font-family="Helvetica,sans-Serif" font-weight="bold" font-size="14.00" fill="MediumVioletRed">Roll</text>
</g>
<!-- Roll&#45;1&#45;&gt;Roll&#45;6 -->
<g id="edge11" class="edge">
<title>Roll&#45;1&#45;&gt;Roll&#45;6</title>
<path fill="none" stroke="MediumVioletRed" stroke-dasharray="5,2" d="M376.82,-422.54C326.2,-421.06 220.59,-414.75 198,-388 187.94,-376.09 188.54,-358.65 191.73,-344.03"/>
<polygon fill="MediumVioletRed" stroke="MediumVioletRed" points="195.21,-344.57 194.39,-334 188.44,-342.77 195.21,-344.57"/>
<text text-anchor="middle" x="239.5" y="-376.8" font-family="Courier New" font-size="14.00" fill="MediumVioletRed">sources[0]</text>
</g>
<!-- Roll&#45;9 -->
<g id="node9" class="node">
<title>Roll&#45;9</title>
<polygon fill="none" stroke="MediumVioletRed" stroke-dasharray="5,2" points="372,-334 318,-334 318,-298 372,-298 372,-334"/>
<text text-anchor="start" x="332" y="-313.3" font-family="Helvetica,sans-Serif" font-weight="bold" font-size="14.00" fill="MediumVioletRed">Roll</text>
</g>
<!-- Roll&#45;1&#45;&gt;Roll&#45;9 -->
<g id="edge12" class="edge">
<title>Roll&#45;1&#45;&gt;Roll&#45;9</title>
<path fill="none" stroke="MediumVioletRed" stroke-dasharray="5,2" d="M397.36,-405.99C393.31,-396.16 387.81,-383.66 382,-373 376.42,-362.77 369.55,-351.98 363.25,-342.64"/>
<polygon fill="MediumVioletRed" stroke="MediumVioletRed" points="366,-340.45 357.45,-334.18 360.22,-344.41 366,-340.45"/>
<text text-anchor="middle" x="430.5" y="-376.8" font-family="Courier New" font-size="14.00" fill="MediumVioletRed">sources[1]</text>
</g>
<!-- Roll&#45;11 -->
<g id="node11" class="node">
<title>Roll&#45;11</title>
<polygon fill="none" stroke="MediumVioletRed" stroke-dasharray="5,2" points="300,-334 246,-334 246,-298 300,-298 300,-334"/>
<text text-anchor="start" x="260" y="-313.3" font-family="Helvetica,sans-Serif" font-weight="bold" font-size="14.00" fill="MediumVioletRed">Roll</text>
</g>
<!-- Roll&#45;1&#45;&gt;Roll&#45;11 -->
<g id="edge13" class="edge">
<title>Roll&#45;1&#45;&gt;Roll&#45;11</title>
<path fill="none" stroke="MediumVioletRed" stroke-dasharray="5,2" d="M376.61,-421.18C352.06,-418.11 316.67,-409.89 295,-388 283.53,-376.41 278.02,-358.97 275.39,-344.27"/>
<polygon fill="MediumVioletRed" stroke="MediumVioletRed" points="278.82,-343.58 273.93,-334.18 271.9,-344.58 278.82,-343.58"/>
<text text-anchor="middle" x="336.5" y="-376.8" font-family="Courier New" font-size="14.00" fill="MediumVioletRed">sources[2]</text>
</g>
<!-- ValueRoller&#45;7 -->
<g id="node7" class="node">
<title>ValueRoller&#45;7</title>
<polygon fill="none" stroke="MediumVioletRed" stroke-dasharray="5,2" points="149.5,-226 50.5,-226 50.5,-190 149.5,-190 149.5,-226"/>
<text text-anchor="start" x="62.5" y="-211.8" font-family="Helvetica,sans-Serif" font-weight="bold" font-size="14.00" fill="MediumVioletRed">ValueRoller</text>
<text text-anchor="start" x="58.5" y="-197.8" font-family="Courier New" font-size="14.00" fill="MediumVioletRed">value=H(6)</text>
</g>
<!-- SubstitutionRoller&#45;2&#45;&gt;ValueRoller&#45;7 -->
<g id="edge14" class="edge">
<title>SubstitutionRoller&#45;2&#45;&gt;ValueRoller&#45;7</title>
<path fill="none" stroke="MediumVioletRed" stroke-dasharray="5,2" d="M74.22,-297.89C70.36,-288.24 67.25,-275.96 70,-265 72.62,-254.57 77.59,-243.96 82.75,-234.82"/>
<polygon fill="MediumVioletRed" stroke="MediumVioletRed" points="85.76,-236.62 87.89,-226.24 79.75,-233.02 85.76,-236.62"/>
<text text-anchor="middle" x="111.5" y="-268.8" font-family="Courier New" font-size="14.00" fill="MediumVioletRed">sources[0]</text>
</g>
<!-- RollOutcome&#45;8 -->
<g id="node8" class="node">
<title>RollOutcome&#45;8</title>
<polygon fill="none" stroke="MediumVioletRed" stroke-dasharray="5,2" points="489,-52 387,-52 387,-16 489,-16 489,-52"/>
<text text-anchor="start" x="395" y="-37.8" font-family="Helvetica,sans-Serif" font-weight="bold" font-size="14.00" fill="MediumVioletRed">RollOutcome</text>
<text text-anchor="start" x="409" y="-23.8" font-family="Courier New" font-size="14.00" fill="MediumVioletRed">value=1</text>
</g>
<!-- RollOutcome&#45;3&#45;&gt;RollOutcome&#45;8 -->
<g id="edge15" class="edge">
<title>RollOutcome&#45;3&#45;&gt;RollOutcome&#45;8</title>
<path fill="none" stroke="MediumVioletRed" stroke-dasharray="5,2" d="M541.48,-102.57C531.26,-92.36 517.54,-79.61 504,-70 497.53,-65.41 490.38,-61.01 483.25,-56.98"/>
<polygon fill="MediumVioletRed" stroke="MediumVioletRed" points="484.74,-53.8 474.28,-52.08 481.38,-59.95 484.74,-53.8"/>
<text text-anchor="middle" x="562.5" y="-73.8" font-family="Courier New" font-size="14.00" fill="MediumVioletRed">sources[0]</text>
</g>
<!-- RollOutcome&#45;10 -->
<g id="node10" class="node">
<title>RollOutcome&#45;10</title>
<polygon fill="none" stroke="MediumVioletRed" stroke-dasharray="5,2" points="489,-139 387,-139 387,-103 489,-103 489,-139"/>
<text text-anchor="start" x="395" y="-124.8" font-family="Helvetica,sans-Serif" font-weight="bold" font-size="14.00" fill="MediumVioletRed">RollOutcome</text>
<text text-anchor="start" x="409" y="-110.8" font-family="Courier New" font-size="14.00" fill="MediumVioletRed">value=1</text>
</g>
<!-- RollOutcome&#45;4&#45;&gt;RollOutcome&#45;10 -->
<g id="edge16" class="edge">
<title>RollOutcome&#45;4&#45;&gt;RollOutcome&#45;10</title>
<path fill="none" stroke="MediumVioletRed" stroke-dasharray="5,2" d="M541.48,-189.57C531.26,-179.36 517.54,-166.61 504,-157 497.53,-152.41 490.38,-148.01 483.25,-143.98"/>
<polygon fill="MediumVioletRed" stroke="MediumVioletRed" points="484.74,-140.8 474.28,-139.08 481.38,-146.95 484.74,-140.8"/>
<text text-anchor="middle" x="562.5" y="-160.8" font-family="Courier New" font-size="14.00" fill="MediumVioletRed">sources[0]</text>
</g>
<!-- RollOutcome&#45;5&#45;&gt;RollOutcome&#45;10 -->
<g id="edge17" class="edge">
<title>RollOutcome&#45;5&#45;&gt;RollOutcome&#45;10</title>
<path fill="none" stroke="MediumVioletRed" stroke-dasharray="5,2" d="M427.07,-189.67C422.36,-180.16 418.45,-168.08 421,-157 421.65,-154.16 422.57,-151.29 423.64,-148.47"/>
<polygon fill="MediumVioletRed" stroke="MediumVioletRed" points="426.88,-149.79 427.72,-139.23 420.48,-146.96 426.88,-149.79"/>
<text text-anchor="middle" x="462.5" y="-160.8" font-family="Courier New" font-size="14.00" fill="MediumVioletRed">sources[0]</text>
</g>
<!-- Roll&#45;6&#45;&gt;ValueRoller&#45;7 -->
<g id="edge5" class="edge">
<title>Roll&#45;6&#45;&gt;ValueRoller&#45;7</title>
<path fill="none" stroke="MediumVioletRed" stroke-dasharray="5,2" d="M184.77,-297.97C168.23,-280.61 142.4,-253.5 123.6,-233.77"/>
<polygon fill="MediumVioletRed" stroke="MediumVioletRed" points="125.95,-231.17 116.52,-226.34 120.89,-235.99 125.95,-231.17"/>
<text text-anchor="middle" x="170.5" y="-268.8" font-family="Courier New" font-size="14.00" fill="MediumVioletRed">r</text>
</g>
<!-- Roll&#45;6&#45;&gt;RollOutcome&#45;8 -->
<g id="edge6" class="edge">
<title>Roll&#45;6&#45;&gt;RollOutcome&#45;8</title>
<path fill="none" stroke="MediumVioletRed" stroke-dasharray="5,2" d="M204,-297.98C206.27,-287.9 210.05,-275.17 216,-265 267.57,-176.89 359.66,-96.65 407.4,-58.46"/>
<polygon fill="MediumVioletRed" stroke="MediumVioletRed" points="409.84,-61 415.5,-52.05 405.49,-55.51 409.84,-61"/>
<text text-anchor="middle" x="310.5" y="-160.8" font-family="Courier New" font-size="14.00" fill="MediumVioletRed">[0]</text>
</g>
<!-- Roll&#45;9&#45;&gt;ValueRoller&#45;7 -->
<g id="edge7" class="edge">
<title>Roll&#45;9&#45;&gt;ValueRoller&#45;7</title>
<path fill="none" stroke="MediumVioletRed" stroke-dasharray="5,2" d="M332.83,-297.89C324.25,-287 311.85,-273.41 298,-265 255.55,-239.21 200.81,-224.92 159.65,-217.24"/>
<polygon fill="MediumVioletRed" stroke="MediumVioletRed" points="160.21,-213.78 149.75,-215.47 158.98,-220.67 160.21,-213.78"/>
<text text-anchor="middle" x="320.5" y="-268.8" font-family="Courier New" font-size="14.00" fill="MediumVioletRed">r</text>
</g>
<!-- Roll&#45;9&#45;&gt;RollOutcome&#45;10 -->
<g id="edge8" class="edge">
<title>Roll&#45;9&#45;&gt;RollOutcome&#45;10</title>
<path fill="none" stroke="MediumVioletRed" stroke-dasharray="5,2" d="M341.56,-297.75C337.17,-271.06 332.4,-218.98 353,-182 361.74,-166.3 376.52,-153.74 391.33,-144.26"/>
<polygon fill="MediumVioletRed" stroke="MediumVioletRed" points="393.25,-147.19 400.01,-139.02 389.64,-141.19 393.25,-147.19"/>
<text text-anchor="middle" x="365.5" y="-204.3" font-family="Courier New" font-size="14.00" fill="MediumVioletRed">[0]</text>
</g>
<!-- RollOutcome&#45;10&#45;&gt;RollOutcome&#45;8 -->
<g id="edge18" class="edge">
<title>RollOutcome&#45;10&#45;&gt;RollOutcome&#45;8</title>
<path fill="none" stroke="MediumVioletRed" stroke-dasharray="5,2" d="M427.07,-102.67C422.36,-93.16 418.45,-81.08 421,-70 421.65,-67.16 422.57,-64.29 423.64,-61.47"/>
<polygon fill="MediumVioletRed" stroke="MediumVioletRed" points="426.88,-62.79 427.72,-52.23 420.48,-59.96 426.88,-62.79"/>
<text text-anchor="middle" x="462.5" y="-73.8" font-family="Courier New" font-size="14.00" fill="MediumVioletRed">sources[0]</text>
</g>
<!-- Roll&#45;11&#45;&gt;RollOutcome&#45;5 -->
<g id="edge10" class="edge">
<title>Roll&#45;11&#45;&gt;RollOutcome&#45;5</title>
<path fill="none" stroke="MediumVioletRed" stroke-dasharray="5,2" d="M267.62,-297.58C265.48,-286.85 265.11,-273.55 273,-265 288.12,-248.62 352.12,-264.81 373,-257 387.48,-251.58 401.55,-241.93 412.87,-232.69"/>
<polygon fill="MediumVioletRed" stroke="MediumVioletRed" points="415.25,-235.26 420.59,-226.11 410.71,-229.93 415.25,-235.26"/>
<text text-anchor="middle" x="285.5" y="-268.8" font-family="Courier New" font-size="14.00" fill="MediumVioletRed">[0]</text>
</g>
<!-- Roll&#45;11&#45;&gt;ValueRoller&#45;7 -->
<g id="edge9" class="edge">
<title>Roll&#45;11&#45;&gt;ValueRoller&#45;7</title>
<path fill="none" stroke="MediumVioletRed" stroke-dasharray="5,2" d="M248.76,-297.81C244.86,-295.15 240.84,-292.47 237,-290 204.61,-269.22 166.92,-247.08 139.28,-231.21"/>
<polygon fill="MediumVioletRed" stroke="MediumVioletRed" points="140.73,-228 130.32,-226.08 137.26,-234.08 140.73,-228"/>
<text text-anchor="middle" x="223.5" y="-268.8" font-family="Courier New" font-size="14.00" fill="MediumVioletRed">r</text>
</g>
</g>
</svg>
