<?xml version="1.0" encoding="UTF-8" standalone="no"?>
<!DOCTYPE svg PUBLIC "-//W3C//DTD SVG 1.1//EN"
 "http://www.w3.org/Graphics/SVG/1.1/DTD/svg11.dtd">
<!-- Generated by graphviz version 2.49.3 (20211023.0002)
 -->
<!-- Title: classes_dyce_r_light Pages: 1 -->
<svg width="785pt" height="264pt"
 viewBox="0.00 0.00 785.00 264.00" xmlns="http://www.w3.org/2000/svg" xmlns:xlink="http://www.w3.org/1999/xlink">
<g id="graph0" class="graph" transform="scale(1 1) rotate(0) translate(4 260)">
<title>classes_dyce_r_light</title>
<!-- dyce.r.BasicOpRoller -->
<g id="node1" class="node">
<title>dyce.r.BasicOpRoller</title>
<polygon fill="none" stroke="DarkSlateGray" points="569,-146.5 569,-182.5 675,-182.5 675,-146.5 569,-146.5"/>
<text text-anchor="middle" x="622" y="-160.8" font-family="Helvetica,sans-Serif" font-size="14.00" fill="DarkSlateGray">BasicOpRoller</text>
</g>
<!-- dyce.r.R -->
<g id="node2" class="node">
<title>dyce.r.R</title>
<polygon fill="none" stroke="DarkSlateGray" points="285,-219.5 285,-255.5 339,-255.5 339,-219.5 285,-219.5"/>
<text text-anchor="middle" x="312" y="-233.8" font-family="Helvetica,sans-Serif" font-size="14.00" fill="DarkSlateGray">R</text>
</g>
<!-- dyce.r.BasicOpRoller&#45;&gt;dyce.r.R -->
<g id="edge1" class="edge">
<title>dyce.r.BasicOpRoller&#45;&gt;dyce.r.R</title>
<path fill="none" stroke="DarkSlateGray" d="M568.71,-177.71C506.1,-192.05 403.84,-215.47 349.19,-227.98"/>
<polygon fill="none" stroke="DarkSlateGray" points="348.21,-224.62 339.25,-230.26 349.78,-231.44 348.21,-224.62"/>
</g>
<!-- dyce.r.BinarySumOpRoller -->
<g id="node3" class="node">
<title>dyce.r.BinarySumOpRoller</title>
<polygon fill="none" stroke="DarkSlateGray" points="481,-0.5 481,-36.5 621,-36.5 621,-0.5 481,-0.5"/>
<text text-anchor="middle" x="551" y="-14.8" font-family="Helvetica,sans-Serif" font-size="14.00" fill="DarkSlateGray">BinarySumOpRoller</text>
</g>
<!-- dyce.r.NarySumOpRoller -->
<g id="node4" class="node">
<title>dyce.r.NarySumOpRoller</title>
<polygon fill="none" stroke="DarkSlateGray" points="565,-73.5 565,-109.5 695,-109.5 695,-73.5 565,-73.5"/>
<text text-anchor="middle" x="630" y="-87.8" font-family="Helvetica,sans-Serif" font-size="14.00" fill="DarkSlateGray">NarySumOpRoller</text>
</g>
<!-- dyce.r.BinarySumOpRoller&#45;&gt;dyce.r.NarySumOpRoller -->
<g id="edge2" class="edge">
<title>dyce.r.BinarySumOpRoller&#45;&gt;dyce.r.NarySumOpRoller</title>
<path fill="none" stroke="DarkSlateGray" d="M570.12,-36.69C580.12,-45.67 592.51,-56.81 603.42,-66.61"/>
<polygon fill="none" stroke="DarkSlateGray" points="601.28,-69.39 611.05,-73.47 605.95,-64.18 601.28,-69.39"/>
</g>
<!-- dyce.r.NarySumOpRoller&#45;&gt;dyce.r.BasicOpRoller -->
<g id="edge3" class="edge">
<title>dyce.r.NarySumOpRoller&#45;&gt;dyce.r.BasicOpRoller</title>
<path fill="none" stroke="DarkSlateGray" d="M628.06,-109.69C627.16,-117.71 626.06,-127.45 625.05,-136.43"/>
<polygon fill="none" stroke="DarkSlateGray" points="621.56,-136.14 623.92,-146.47 628.52,-136.93 621.56,-136.14"/>
</g>
<!-- dyce.r.FilterRoller -->
<g id="node5" class="node">
<title>dyce.r.FilterRoller</title>
<polygon fill="none" stroke="DarkSlateGray" points="0,-146.5 0,-182.5 84,-182.5 84,-146.5 0,-146.5"/>
<text text-anchor="middle" x="42" y="-160.8" font-family="Helvetica,sans-Serif" font-size="14.00" fill="DarkSlateGray">FilterRoller</text>
</g>
<!-- dyce.r.FilterRoller&#45;&gt;dyce.r.R -->
<g id="edge4" class="edge">
<title>dyce.r.FilterRoller&#45;&gt;dyce.r.R</title>
<path fill="none" stroke="DarkSlateGray" d="M84.21,-180.31C87.17,-181.25 90.13,-182.16 93,-183 156.28,-201.55 231.13,-218.85 274.91,-228.52"/>
<polygon fill="none" stroke="DarkSlateGray" points="274.3,-231.97 284.82,-230.7 275.8,-225.13 274.3,-231.97"/>
</g>
<!-- dyce.r.PoolRoller -->
<g id="node6" class="node">
<title>dyce.r.PoolRoller</title>
<polygon fill="none" stroke="DarkSlateGray" points="102.5,-146.5 102.5,-182.5 183.5,-182.5 183.5,-146.5 102.5,-146.5"/>
<text text-anchor="middle" x="143" y="-160.8" font-family="Helvetica,sans-Serif" font-size="14.00" fill="DarkSlateGray">PoolRoller</text>
</g>
<!-- dyce.r.PoolRoller&#45;&gt;dyce.r.R -->
<g id="edge5" class="edge">
<title>dyce.r.PoolRoller&#45;&gt;dyce.r.R</title>
<path fill="none" stroke="DarkSlateGray" d="M183.48,-182.51C211.4,-194.23 248.21,-209.7 275.28,-221.07"/>
<polygon fill="none" stroke="DarkSlateGray" points="274.2,-224.42 284.77,-225.06 276.91,-217.96 274.2,-224.42"/>
</g>
<!-- dyce.r.RepeatRoller -->
<g id="node7" class="node">
<title>dyce.r.RepeatRoller</title>
<polygon fill="none" stroke="DarkSlateGray" points="202,-146.5 202,-182.5 300,-182.5 300,-146.5 202,-146.5"/>
<text text-anchor="middle" x="251" y="-160.8" font-family="Helvetica,sans-Serif" font-size="14.00" fill="DarkSlateGray">RepeatRoller</text>
</g>
<!-- dyce.r.RepeatRoller&#45;&gt;dyce.r.R -->
<g id="edge6" class="edge">
<title>dyce.r.RepeatRoller&#45;&gt;dyce.r.R</title>
<path fill="none" stroke="DarkSlateGray" d="M265.77,-182.69C273.26,-191.41 282.5,-202.16 290.74,-211.75"/>
<polygon fill="none" stroke="DarkSlateGray" points="288.2,-214.17 297.37,-219.47 293.51,-209.61 288.2,-214.17"/>
</g>
<!-- dyce.r.SelectionRoller -->
<g id="node8" class="node">
<title>dyce.r.SelectionRoller</title>
<polygon fill="none" stroke="DarkSlateGray" points="318.5,-146.5 318.5,-182.5 429.5,-182.5 429.5,-146.5 318.5,-146.5"/>
<text text-anchor="middle" x="374" y="-160.8" font-family="Helvetica,sans-Serif" font-size="14.00" fill="DarkSlateGray">SelectionRoller</text>
</g>
<!-- dyce.r.SelectionRoller&#45;&gt;dyce.r.R -->
<g id="edge7" class="edge">
<title>dyce.r.SelectionRoller&#45;&gt;dyce.r.R</title>
<path fill="none" stroke="DarkSlateGray" d="M358.99,-182.69C351.38,-191.41 341.99,-202.16 333.61,-211.75"/>
<polygon fill="none" stroke="DarkSlateGray" points="330.81,-209.64 326.87,-219.47 336.08,-214.24 330.81,-209.64"/>
</g>
<!-- dyce.r.SubstitutionRoller -->
<g id="node9" class="node">
<title>dyce.r.SubstitutionRoller</title>
<polygon fill="none" stroke="DarkSlateGray" points="421,-73.5 421,-109.5 547,-109.5 547,-73.5 421,-73.5"/>
<text text-anchor="middle" x="484" y="-87.8" font-family="Helvetica,sans-Serif" font-size="14.00" fill="DarkSlateGray">SubstitutionRoller</text>
</g>
<!-- dyce.r.ValueRoller -->
<g id="node10" class="node">
<title>dyce.r.ValueRoller</title>
<polygon fill="none" stroke="DarkSlateGray" points="448,-146.5 448,-182.5 536,-182.5 536,-146.5 448,-146.5"/>
<text text-anchor="middle" x="492" y="-160.8" font-family="Helvetica,sans-Serif" font-size="14.00" fill="DarkSlateGray">ValueRoller</text>
</g>
<!-- dyce.r.SubstitutionRoller&#45;&gt;dyce.r.ValueRoller -->
<g id="edge8" class="edge">
<title>dyce.r.SubstitutionRoller&#45;&gt;dyce.r.ValueRoller</title>
<path fill="none" stroke="DarkSlateGray" d="M485.94,-109.69C486.84,-117.71 487.94,-127.45 488.95,-136.43"/>
<polygon fill="none" stroke="DarkSlateGray" points="485.48,-136.93 490.08,-146.47 492.44,-136.14 485.48,-136.93"/>
</g>
<!-- dyce.r.ValueRoller&#45;&gt;dyce.r.R -->
<g id="edge9" class="edge">
<title>dyce.r.ValueRoller&#45;&gt;dyce.r.R</title>
<path fill="none" stroke="DarkSlateGray" d="M448.89,-182.51C418.24,-194.6 377.52,-210.66 348.48,-222.11"/>
<polygon fill="none" stroke="DarkSlateGray" points="347.13,-218.88 339.11,-225.81 349.7,-225.39 347.13,-218.88"/>
</g>
<!-- dyce.r.UnarySumOpRoller -->
<g id="node11" class="node">
<title>dyce.r.UnarySumOpRoller</title>
<polygon fill="none" stroke="DarkSlateGray" points="639,-0.5 639,-36.5 777,-36.5 777,-0.5 639,-0.5"/>
<text text-anchor="middle" x="708" y="-14.8" font-family="Helvetica,sans-Serif" font-size="14.00" fill="DarkSlateGray">UnarySumOpRoller</text>
</g>
<!-- dyce.r.UnarySumOpRoller&#45;&gt;dyce.r.NarySumOpRoller -->
<g id="edge10" class="edge">
<title>dyce.r.UnarySumOpRoller&#45;&gt;dyce.r.NarySumOpRoller</title>
<path fill="none" stroke="DarkSlateGray" d="M689.12,-36.69C679.25,-45.67 667.02,-56.81 656.24,-66.61"/>
<polygon fill="none" stroke="DarkSlateGray" points="653.75,-64.15 648.71,-73.47 658.46,-69.33 653.75,-64.15"/>
</g>
</g>
</svg>
