<?xml version="1.0" encoding="UTF-8" standalone="no"?>
<!DOCTYPE svg PUBLIC "-//W3C//DTD SVG 1.1//EN"
 "http://www.w3.org/Graphics/SVG/1.1/DTD/svg11.dtd">
<!-- Generated by graphviz version 2.49.3 (20211023.0002)
 -->
<!-- Pages: 1 -->
<svg width="1746pt" height="402pt"
 viewBox="0.00 0.00 1746.00 402.00" xmlns="http://www.w3.org/2000/svg" xmlns:xlink="http://www.w3.org/1999/xlink">
<g id="graph0" class="graph" transform="scale(1 1) rotate(0) translate(4 398)">
<g id="clust1" class="cluster">
<title>cluster_rolls</title>
<polygon fill="transparent" stroke="Azure" stroke-dasharray="1,5" points="681,-203 681,-386 1340,-386 1340,-203 681,-203"/>
<text text-anchor="start" x="982" y="-371.8" font-family="Helvetica,sans-Serif" font-style="italic" font-size="14.00" fill="Azure">Roll Tree</text>
</g>
<g id="clust2" class="cluster">
<title>cluster_rollers</title>
<polygon fill="transparent" stroke="Azure" stroke-dasharray="1,5" points="8,-95 8,-278 673,-278 673,-95 8,-95"/>
<text text-anchor="start" x="306" y="-263.8" font-family="Helvetica,sans-Serif" font-style="italic" font-size="14.00" fill="Azure">Roller Tree</text>
</g>
<g id="clust3" class="cluster">
<title>cluster_roll_outcomes</title>
<polygon fill="transparent" stroke="Azure" stroke-dasharray="1,5" points="1000,-8 1000,-170 1730,-170 1730,-8 1000,-8"/>
<text text-anchor="start" x="1319" y="-155.8" font-family="Helvetica,sans-Serif" font-style="italic" font-size="14.00" fill="Azure">Roll Outcomes</text>
</g>
<!-- Roll&#45;1 -->
<g id="node1" class="node">
<title>Roll&#45;1</title>
<polygon fill="none" stroke="Azure" points="1274,-355 1220,-355 1220,-319 1274,-319 1274,-355"/>
<text text-anchor="start" x="1233.5" y="-334.3" font-family="Helvetica,sans-Serif" font-weight="bold" font-size="14.00" fill="Azure">Roll</text>
</g>
<!-- FilterRoller&#45;2 -->
<g id="node2" class="node">
<title>FilterRoller&#45;2</title>
<polygon fill="none" stroke="Azure" points="409,-247 319,-247 319,-211 409,-211 409,-247"/>
<text text-anchor="start" x="327" y="-226.3" font-family="Helvetica,sans-Serif" font-weight="bold" font-size="14.00" fill="Azure">FilterRoller</text>
</g>
<!-- Roll&#45;1&#45;&gt;FilterRoller&#45;2 -->
<g id="edge1" class="edge">
<title>Roll&#45;1&#45;&gt;FilterRoller&#45;2</title>
<path fill="none" stroke="Azure" d="M1219.78,-335.43C1141.77,-333.55 910.86,-326.09 721,-301 613.07,-286.74 488.73,-259.52 418.94,-243.24"/>
<polygon fill="Azure" stroke="Azure" points="419.59,-239.79 409.05,-240.92 417.99,-246.61 419.59,-239.79"/>
<text text-anchor="middle" x="725.5" y="-289.8" font-family="Courier New" font-size="14.00" fill="Azure">r</text>
</g>
<!-- RollOutcome&#45;3 -->
<g id="node3" class="node">
<title>RollOutcome&#45;3</title>
<polygon fill="none" stroke="Azure" stroke-dasharray="1,5" points="1478,-139 1374,-139 1374,-103 1478,-103 1478,-139"/>
<text text-anchor="start" x="1382" y="-124.8" font-family="Helvetica,sans-Serif" font-weight="bold" font-size="14.00" fill="Azure">RollOutcome</text>
<text text-anchor="start" x="1383.5" y="-110.8" font-family="Courier New" font-size="14.00" fill="Azure">value=None</text>
</g>
<!-- Roll&#45;1&#45;&gt;RollOutcome&#45;3 -->
<g id="edge2" class="edge">
<title>Roll&#45;1&#45;&gt;RollOutcome&#45;3</title>
<path fill="none" stroke="Azure" d="M1274,-334.25C1306.5,-331.21 1361.92,-322.99 1404,-301 1417.38,-294.01 1422.93,-291.83 1429,-278 1447.39,-236.1 1440.2,-181.58 1433.19,-149.33"/>
<polygon fill="Azure" stroke="Azure" points="1436.53,-148.25 1430.85,-139.3 1429.71,-149.84 1436.53,-148.25"/>
<text text-anchor="middle" x="1453" y="-225.3" font-family="Courier New" font-size="14.00" fill="Azure">[0]</text>
</g>
<!-- RollOutcome&#45;4 -->
<g id="node4" class="node">
<title>RollOutcome&#45;4</title>
<polygon fill="none" stroke="LightBlue" stroke-dasharray="5,2" points="1112,-139 1008,-139 1008,-103 1112,-103 1112,-139"/>
<text text-anchor="start" x="1016" y="-124.8" font-family="Helvetica,sans-Serif" font-weight="bold" font-size="14.00" fill="LightBlue">RollOutcome</text>
<text text-anchor="start" x="1030.5" y="-110.8" font-family="Courier New" font-size="14.00" fill="LightBlue">value=1</text>
</g>
<!-- Roll&#45;1&#45;&gt;RollOutcome&#45;4 -->
<g id="edge3" class="edge">
<title>Roll&#45;1&#45;&gt;RollOutcome&#45;4</title>
<path fill="none" stroke="LightBlue" stroke-dasharray="5,2" d="M1274.23,-332.73C1293.92,-328.78 1319.21,-320.09 1332,-301 1335.71,-295.46 1336.1,-291.25 1332,-286 1322.98,-274.44 1310.87,-287.83 1300,-278 1273.72,-254.24 1298.75,-227.34 1273,-203 1244.69,-176.24 1227.15,-185.86 1189,-178 1159.2,-171.86 1149.12,-181.62 1121,-170 1107.5,-164.42 1094.5,-154.96 1083.99,-145.91"/>
<polygon fill="LightBlue" stroke="LightBlue" points="1086.25,-143.23 1076.48,-139.14 1081.56,-148.43 1086.25,-143.23"/>
<text text-anchor="middle" x="1313" y="-225.3" font-family="Courier New" font-size="14.00" fill="LightBlue">[1]</text>
</g>
<!-- RollOutcome&#45;5 -->
<g id="node5" class="node">
<title>RollOutcome&#45;5</title>
<polygon fill="none" stroke="Azure" stroke-dasharray="1,5" points="1722,-139 1618,-139 1618,-103 1722,-103 1722,-139"/>
<text text-anchor="start" x="1626" y="-124.8" font-family="Helvetica,sans-Serif" font-weight="bold" font-size="14.00" fill="Azure">RollOutcome</text>
<text text-anchor="start" x="1627.5" y="-110.8" font-family="Courier New" font-size="14.00" fill="Azure">value=None</text>
</g>
<!-- Roll&#45;1&#45;&gt;RollOutcome&#45;5 -->
<g id="edge4" class="edge">
<title>Roll&#45;1&#45;&gt;RollOutcome&#45;5</title>
<path fill="none" stroke="Azure" d="M1274.07,-333.42C1339.2,-326.8 1502.67,-307.61 1548,-278 1598.78,-244.83 1637.51,-183.29 1656.68,-148.24"/>
<polygon fill="Azure" stroke="Azure" points="1659.94,-149.57 1661.56,-139.1 1653.76,-146.27 1659.94,-149.57"/>
<text text-anchor="middle" x="1634" y="-225.3" font-family="Courier New" font-size="14.00" fill="Azure">[2]</text>
</g>
<!-- RollOutcome&#45;6 -->
<g id="node6" class="node">
<title>RollOutcome&#45;6</title>
<polygon fill="none" stroke="LightGoldenRodYellow" stroke-dasharray="5,2" points="1234,-139 1130,-139 1130,-103 1234,-103 1234,-139"/>
<text text-anchor="start" x="1138" y="-124.8" font-family="Helvetica,sans-Serif" font-weight="bold" font-size="14.00" fill="LightGoldenRodYellow">RollOutcome</text>
<text text-anchor="start" x="1152.5" y="-110.8" font-family="Courier New" font-size="14.00" fill="LightGoldenRodYellow">value=3</text>
</g>
<!-- Roll&#45;1&#45;&gt;RollOutcome&#45;6 -->
<g id="edge5" class="edge">
<title>Roll&#45;1&#45;&gt;RollOutcome&#45;6</title>
<path fill="none" stroke="LightGoldenRodYellow" stroke-dasharray="5,2" d="M1274.06,-335.93C1300.3,-334.23 1338.88,-327.07 1358,-301 1361.94,-295.62 1359.08,-292.58 1358,-286 1351.69,-247.58 1352.51,-234.76 1330,-203 1319.57,-188.27 1314.6,-185.09 1298,-178 1275.29,-168.29 1265.7,-179.75 1243,-170 1229.68,-164.28 1216.78,-154.89 1206.3,-145.93"/>
<polygon fill="LightGoldenRodYellow" stroke="LightGoldenRodYellow" points="1208.59,-143.27 1198.8,-139.22 1203.92,-148.49 1208.59,-143.27"/>
<text text-anchor="middle" x="1369" y="-225.3" font-family="Courier New" font-size="14.00" fill="LightGoldenRodYellow">[3]</text>
</g>
<!-- RollOutcome&#45;7 -->
<g id="node7" class="node">
<title>RollOutcome&#45;7</title>
<polygon fill="none" stroke="Azure" stroke-dasharray="1,5" points="1600,-139 1496,-139 1496,-103 1600,-103 1600,-139"/>
<text text-anchor="start" x="1504" y="-124.8" font-family="Helvetica,sans-Serif" font-weight="bold" font-size="14.00" fill="Azure">RollOutcome</text>
<text text-anchor="start" x="1505.5" y="-110.8" font-family="Courier New" font-size="14.00" fill="Azure">value=None</text>
</g>
<!-- Roll&#45;1&#45;&gt;RollOutcome&#45;7 -->
<g id="edge6" class="edge">
<title>Roll&#45;1&#45;&gt;RollOutcome&#45;7</title>
<path fill="none" stroke="Azure" d="M1274.07,-333.41C1310.08,-329.38 1375.31,-320 1428,-301 1448.02,-293.78 1455.23,-293.33 1470,-278 1506.36,-240.25 1529.21,-182.23 1540.2,-148.61"/>
<polygon fill="Azure" stroke="Azure" points="1543.56,-149.6 1543.23,-139.01 1536.88,-147.49 1543.56,-149.6"/>
<text text-anchor="middle" x="1531" y="-225.3" font-family="Courier New" font-size="14.00" fill="Azure">[4]</text>
</g>
<!-- RollOutcome&#45;8 -->
<g id="node8" class="node">
<title>RollOutcome&#45;8</title>
<polygon fill="none" stroke="LightPink" stroke-dasharray="5,2" points="1356,-139 1252,-139 1252,-103 1356,-103 1356,-139"/>
<text text-anchor="start" x="1260" y="-124.8" font-family="Helvetica,sans-Serif" font-weight="bold" font-size="14.00" fill="LightPink">RollOutcome</text>
<text text-anchor="start" x="1274.5" y="-110.8" font-family="Courier New" font-size="14.00" fill="LightPink">value=5</text>
</g>
<!-- Roll&#45;1&#45;&gt;RollOutcome&#45;8 -->
<g id="edge7" class="edge">
<title>Roll&#45;1&#45;&gt;RollOutcome&#45;8</title>
<path fill="none" stroke="LightPink" stroke-dasharray="5,2" d="M1274.18,-336.88C1305.43,-336.35 1356.22,-330.52 1386,-301 1405.05,-282.12 1400.3,-231.38 1392,-203 1388.3,-190.34 1385.05,-187.6 1376,-178 1371.85,-173.6 1369.82,-173.65 1365,-170 1354.59,-162.12 1343.32,-153.33 1333.34,-145.45"/>
<polygon fill="LightPink" stroke="LightPink" points="1335.31,-142.55 1325.3,-139.08 1330.97,-148.04 1335.31,-142.55"/>
<text text-anchor="middle" x="1412" y="-225.3" font-family="Courier New" font-size="14.00" fill="LightPink">[5]</text>
</g>
<!-- Roll&#45;9 -->
<g id="node9" class="node">
<title>Roll&#45;9</title>
<polygon fill="none" stroke="Lavender" stroke-dasharray="5,2" points="743,-247 689,-247 689,-211 743,-211 743,-247"/>
<text text-anchor="start" x="702.5" y="-226.3" font-family="Helvetica,sans-Serif" font-weight="bold" font-size="14.00" fill="Lavender">Roll</text>
</g>
<!-- Roll&#45;1&#45;&gt;Roll&#45;9 -->
<g id="edge20" class="edge">
<title>Roll&#45;1&#45;&gt;Roll&#45;9</title>
<path fill="none" stroke="Lavender" stroke-dasharray="5,2" d="M1219.85,-335.7C1121.38,-334.41 786.83,-328.06 748,-301 733.58,-290.95 725.55,-272.8 721.15,-257.36"/>
<polygon fill="Lavender" stroke="Lavender" points="724.44,-256.11 718.64,-247.25 717.65,-257.79 724.44,-256.11"/>
<text text-anchor="middle" x="790.5" y="-289.8" font-family="Courier New" font-size="14.00" fill="Lavender">sources[0]</text>
</g>
<!-- Roll&#45;12 -->
<g id="node12" class="node">
<title>Roll&#45;12</title>
<polygon fill="none" stroke="LightBlue" stroke-dasharray="5,2" points="1058,-247 1004,-247 1004,-211 1058,-211 1058,-247"/>
<text text-anchor="start" x="1017.5" y="-226.3" font-family="Helvetica,sans-Serif" font-weight="bold" font-size="14.00" fill="LightBlue">Roll</text>
</g>
<!-- Roll&#45;1&#45;&gt;Roll&#45;12 -->
<g id="edge21" class="edge">
<title>Roll&#45;1&#45;&gt;Roll&#45;12</title>
<path fill="none" stroke="LightBlue" stroke-dasharray="5,2" d="M1219.78,-334.39C1172.83,-331.08 1079.29,-321.99 1055,-301 1042.4,-290.12 1036.4,-272.38 1033.55,-257.35"/>
<polygon fill="LightBlue" stroke="LightBlue" points="1036.95,-256.39 1031.98,-247.03 1030.03,-257.44 1036.95,-256.39"/>
<text text-anchor="middle" x="1097.5" y="-289.8" font-family="Courier New" font-size="14.00" fill="LightBlue">sources[1]</text>
</g>
<!-- Roll&#45;14 -->
<g id="node14" class="node">
<title>Roll&#45;14</title>
<polygon fill="none" stroke="LightGreen" stroke-dasharray="5,2" points="950,-247 896,-247 896,-211 950,-211 950,-247"/>
<text text-anchor="start" x="909.5" y="-226.3" font-family="Helvetica,sans-Serif" font-weight="bold" font-size="14.00" fill="LightGreen">Roll</text>
</g>
<!-- Roll&#45;1&#45;&gt;Roll&#45;14 -->
<g id="edge22" class="edge">
<title>Roll&#45;1&#45;&gt;Roll&#45;14</title>
<path fill="none" stroke="LightGreen" stroke-dasharray="5,2" d="M1219.89,-336.11C1155.52,-335.85 995.74,-332.01 954,-301 939.96,-290.57 932.19,-272.43 927.94,-257.09"/>
<polygon fill="LightGreen" stroke="LightGreen" points="931.26,-255.95 925.52,-247.05 924.46,-257.59 931.26,-255.95"/>
<text text-anchor="middle" x="996.5" y="-289.8" font-family="Courier New" font-size="14.00" fill="LightGreen">sources[2]</text>
</g>
<!-- Roll&#45;17 -->
<g id="node17" class="node">
<title>Roll&#45;17</title>
<polygon fill="none" stroke="LightGoldenRodYellow" stroke-dasharray="5,2" points="1166,-247 1112,-247 1112,-211 1166,-211 1166,-247"/>
<text text-anchor="start" x="1125.5" y="-226.3" font-family="Helvetica,sans-Serif" font-weight="bold" font-size="14.00" fill="LightGoldenRodYellow">Roll</text>
</g>
<!-- Roll&#45;1&#45;&gt;Roll&#45;17 -->
<g id="edge23" class="edge">
<title>Roll&#45;1&#45;&gt;Roll&#45;17</title>
<path fill="none" stroke="LightGoldenRodYellow" stroke-dasharray="5,2" d="M1219.84,-333.05C1198.5,-329.27 1169.69,-320.64 1153,-301 1142.88,-289.1 1139.29,-272.02 1138.27,-257.59"/>
<polygon fill="LightGoldenRodYellow" stroke="LightGoldenRodYellow" points="1141.76,-257.08 1137.93,-247.2 1134.76,-257.31 1141.76,-257.08"/>
<text text-anchor="middle" x="1195.5" y="-289.8" font-family="Courier New" font-size="14.00" fill="LightGoldenRodYellow">sources[3]</text>
</g>
<!-- Roll&#45;19 -->
<g id="node19" class="node">
<title>Roll&#45;19</title>
<polygon fill="none" stroke="LightSalmon" stroke-dasharray="5,2" points="842,-247 788,-247 788,-211 842,-211 842,-247"/>
<text text-anchor="start" x="801.5" y="-226.3" font-family="Helvetica,sans-Serif" font-weight="bold" font-size="14.00" fill="LightSalmon">Roll</text>
</g>
<!-- Roll&#45;1&#45;&gt;Roll&#45;19 -->
<g id="edge24" class="edge">
<title>Roll&#45;1&#45;&gt;Roll&#45;19</title>
<path fill="none" stroke="LightSalmon" stroke-dasharray="5,2" d="M1219.89,-335.09C1135.69,-332.08 882.47,-321.38 852,-301 836.83,-290.86 827.49,-272.45 821.99,-256.92"/>
<polygon fill="LightSalmon" stroke="LightSalmon" points="825.28,-255.71 818.91,-247.25 818.61,-257.84 825.28,-255.71"/>
<text text-anchor="middle" x="894.5" y="-289.8" font-family="Courier New" font-size="14.00" fill="LightSalmon">sources[4]</text>
</g>
<!-- Roll&#45;22 -->
<g id="node22" class="node">
<title>Roll&#45;22</title>
<polygon fill="none" stroke="LightPink" stroke-dasharray="5,2" points="1264,-247 1210,-247 1210,-211 1264,-211 1264,-247"/>
<text text-anchor="start" x="1223.5" y="-226.3" font-family="Helvetica,sans-Serif" font-weight="bold" font-size="14.00" fill="LightPink">Roll</text>
</g>
<!-- Roll&#45;1&#45;&gt;Roll&#45;22 -->
<g id="edge25" class="edge">
<title>Roll&#45;1&#45;&gt;Roll&#45;22</title>
<path fill="none" stroke="LightPink" stroke-dasharray="5,2" d="M1245.39,-318.97C1243.83,-302.38 1241.42,-276.88 1239.59,-257.43"/>
<polygon fill="LightPink" stroke="LightPink" points="1243.06,-256.97 1238.64,-247.34 1236.09,-257.63 1243.06,-256.97"/>
<text text-anchor="middle" x="1285.5" y="-289.8" font-family="Courier New" font-size="14.00" fill="LightPink">sources[5]</text>
</g>
<!-- ValueRoller&#45;10 -->
<g id="node10" class="node">
<title>ValueRoller&#45;10</title>
<polygon fill="none" stroke="Lavender" stroke-dasharray="5,2" points="109.5,-139 16.5,-139 16.5,-103 109.5,-103 109.5,-139"/>
<text text-anchor="start" x="24.5" y="-124.8" font-family="Helvetica,sans-Serif" font-weight="bold" font-size="14.00" fill="Lavender">ValueRoller</text>
<text text-anchor="start" x="33.5" y="-110.8" font-family="Courier New" font-size="14.00" fill="Lavender">value=0</text>
</g>
<!-- FilterRoller&#45;2&#45;&gt;ValueRoller&#45;10 -->
<g id="edge26" class="edge">
<title>FilterRoller&#45;2&#45;&gt;ValueRoller&#45;10</title>
<path fill="none" stroke="Lavender" stroke-dasharray="5,2" d="M318.82,-228.26C248.52,-227.71 117.44,-222.6 83,-193 70.58,-182.32 65.57,-164.58 63.68,-149.51"/>
<polygon fill="Lavender" stroke="Lavender" points="67.13,-148.8 62.79,-139.14 60.16,-149.4 67.13,-148.8"/>
<text text-anchor="middle" x="125.5" y="-181.8" font-family="Courier New" font-size="14.00" fill="Lavender">sources[0]</text>
</g>
<!-- ValueRoller&#45;13 -->
<g id="node13" class="node">
<title>ValueRoller&#45;13</title>
<polygon fill="none" stroke="LightBlue" stroke-dasharray="5,2" points="442.5,-139 349.5,-139 349.5,-103 442.5,-103 442.5,-139"/>
<text text-anchor="start" x="357.5" y="-124.8" font-family="Helvetica,sans-Serif" font-weight="bold" font-size="14.00" fill="LightBlue">ValueRoller</text>
<text text-anchor="start" x="366.5" y="-110.8" font-family="Courier New" font-size="14.00" fill="LightBlue">value=1</text>
</g>
<!-- FilterRoller&#45;2&#45;&gt;ValueRoller&#45;13 -->
<g id="edge27" class="edge">
<title>FilterRoller&#45;2&#45;&gt;ValueRoller&#45;13</title>
<path fill="none" stroke="LightBlue" stroke-dasharray="5,2" d="M362.31,-210.59C361.87,-200.84 362.16,-188.56 365,-178 367.81,-167.54 372.98,-156.92 378.3,-147.79"/>
<polygon fill="LightBlue" stroke="LightBlue" points="381.32,-149.55 383.59,-139.21 375.36,-145.88 381.32,-149.55"/>
<text text-anchor="middle" x="407.5" y="-181.8" font-family="Courier New" font-size="14.00" fill="LightBlue">sources[1]</text>
</g>
<!-- ValueRoller&#45;15 -->
<g id="node15" class="node">
<title>ValueRoller&#45;15</title>
<polygon fill="none" stroke="LightGreen" stroke-dasharray="5,2" points="331.5,-139 238.5,-139 238.5,-103 331.5,-103 331.5,-139"/>
<text text-anchor="start" x="246.5" y="-124.8" font-family="Helvetica,sans-Serif" font-weight="bold" font-size="14.00" fill="LightGreen">ValueRoller</text>
<text text-anchor="start" x="255.5" y="-110.8" font-family="Courier New" font-size="14.00" fill="LightGreen">value=2</text>
</g>
<!-- FilterRoller&#45;2&#45;&gt;ValueRoller&#45;15 -->
<g id="edge28" class="edge">
<title>FilterRoller&#45;2&#45;&gt;ValueRoller&#45;15</title>
<path fill="none" stroke="LightGreen" stroke-dasharray="5,2" d="M318.79,-221.42C301.84,-216.51 284.22,-207.94 274,-193 265.27,-180.24 267.57,-163.2 272.27,-149.01"/>
<polygon fill="LightGreen" stroke="LightGreen" points="275.68,-149.87 275.99,-139.28 269.15,-147.37 275.68,-149.87"/>
<text text-anchor="middle" x="316.5" y="-181.8" font-family="Courier New" font-size="14.00" fill="LightGreen">sources[2]</text>
</g>
<!-- ValueRoller&#45;18 -->
<g id="node18" class="node">
<title>ValueRoller&#45;18</title>
<polygon fill="none" stroke="LightGoldenRodYellow" stroke-dasharray="5,2" points="553.5,-139 460.5,-139 460.5,-103 553.5,-103 553.5,-139"/>
<text text-anchor="start" x="468.5" y="-124.8" font-family="Helvetica,sans-Serif" font-weight="bold" font-size="14.00" fill="LightGoldenRodYellow">ValueRoller</text>
<text text-anchor="start" x="477.5" y="-110.8" font-family="Courier New" font-size="14.00" fill="LightGoldenRodYellow">value=3</text>
</g>
<!-- FilterRoller&#45;2&#45;&gt;ValueRoller&#45;18 -->
<g id="edge29" class="edge">
<title>FilterRoller&#45;2&#45;&gt;ValueRoller&#45;18</title>
<path fill="none" stroke="LightGoldenRodYellow" stroke-dasharray="5,2" d="M409.13,-214.57C423.03,-209.18 437.85,-202.05 450,-193 466.37,-180.8 480.74,-162.83 490.95,-148.02"/>
<polygon fill="LightGoldenRodYellow" stroke="LightGoldenRodYellow" points="494.13,-149.56 496.75,-139.29 488.3,-145.68 494.13,-149.56"/>
<text text-anchor="middle" x="509.5" y="-181.8" font-family="Courier New" font-size="14.00" fill="LightGoldenRodYellow">sources[3]</text>
</g>
<!-- ValueRoller&#45;20 -->
<g id="node20" class="node">
<title>ValueRoller&#45;20</title>
<polygon fill="none" stroke="LightSalmon" stroke-dasharray="5,2" points="220.5,-139 127.5,-139 127.5,-103 220.5,-103 220.5,-139"/>
<text text-anchor="start" x="135.5" y="-124.8" font-family="Helvetica,sans-Serif" font-weight="bold" font-size="14.00" fill="LightSalmon">ValueRoller</text>
<text text-anchor="start" x="144.5" y="-110.8" font-family="Courier New" font-size="14.00" fill="LightSalmon">value=4</text>
</g>
<!-- FilterRoller&#45;2&#45;&gt;ValueRoller&#45;20 -->
<g id="edge30" class="edge">
<title>FilterRoller&#45;2&#45;&gt;ValueRoller&#45;20</title>
<path fill="none" stroke="LightSalmon" stroke-dasharray="5,2" d="M318.9,-225.53C270.51,-221.87 198.12,-213.11 180,-193 169.54,-181.39 167.94,-163.95 169.01,-149.26"/>
<polygon fill="LightSalmon" stroke="LightSalmon" points="172.5,-149.5 170.16,-139.17 165.55,-148.71 172.5,-149.5"/>
<text text-anchor="middle" x="222.5" y="-181.8" font-family="Courier New" font-size="14.00" fill="LightSalmon">sources[4]</text>
</g>
<!-- ValueRoller&#45;23 -->
<g id="node23" class="node">
<title>ValueRoller&#45;23</title>
<polygon fill="none" stroke="LightPink" stroke-dasharray="5,2" points="664.5,-139 571.5,-139 571.5,-103 664.5,-103 664.5,-139"/>
<text text-anchor="start" x="579.5" y="-124.8" font-family="Helvetica,sans-Serif" font-weight="bold" font-size="14.00" fill="LightPink">ValueRoller</text>
<text text-anchor="start" x="588.5" y="-110.8" font-family="Courier New" font-size="14.00" fill="LightPink">value=5</text>
</g>
<!-- FilterRoller&#45;2&#45;&gt;ValueRoller&#45;23 -->
<g id="edge31" class="edge">
<title>FilterRoller&#45;2&#45;&gt;ValueRoller&#45;23</title>
<path fill="none" stroke="LightPink" stroke-dasharray="5,2" d="M409.15,-228.05C449.97,-226.25 510.48,-218.86 556,-193 575.03,-182.19 591.1,-163.29 602.11,-147.71"/>
<polygon fill="LightPink" stroke="LightPink" points="605.29,-149.25 607.99,-139.01 599.49,-145.34 605.29,-149.25"/>
<text text-anchor="middle" x="617.5" y="-181.8" font-family="Courier New" font-size="14.00" fill="LightPink">sources[5]</text>
</g>
<!-- RollOutcome&#45;11 -->
<g id="node11" class="node">
<title>RollOutcome&#45;11</title>
<polygon fill="none" stroke="Lavender" stroke-dasharray="5,2" points="1278,-52 1174,-52 1174,-16 1278,-16 1278,-52"/>
<text text-anchor="start" x="1182" y="-37.8" font-family="Helvetica,sans-Serif" font-weight="bold" font-size="14.00" fill="Lavender">RollOutcome</text>
<text text-anchor="start" x="1196.5" y="-23.8" font-family="Courier New" font-size="14.00" fill="Lavender">value=0</text>
</g>
<!-- RollOutcome&#45;3&#45;&gt;RollOutcome&#45;11 -->
<g id="edge32" class="edge">
<title>RollOutcome&#45;3&#45;&gt;RollOutcome&#45;11</title>
<path fill="none" stroke="Lavender" stroke-dasharray="5,2" d="M1385.53,-102.8C1353.71,-89.27 1309.24,-70.38 1275.33,-55.97"/>
<polygon fill="Lavender" stroke="Lavender" points="1276.64,-52.72 1266.07,-52.03 1273.91,-59.16 1276.64,-52.72"/>
<text text-anchor="middle" x="1379.5" y="-73.8" font-family="Courier New" font-size="14.00" fill="Lavender">sources[0]</text>
</g>
<!-- RollOutcome&#45;16 -->
<g id="node16" class="node">
<title>RollOutcome&#45;16</title>
<polygon fill="none" stroke="LightGreen" stroke-dasharray="5,2" points="1647,-52 1543,-52 1543,-16 1647,-16 1647,-52"/>
<text text-anchor="start" x="1551" y="-37.8" font-family="Helvetica,sans-Serif" font-weight="bold" font-size="14.00" fill="LightGreen">RollOutcome</text>
<text text-anchor="start" x="1565.5" y="-23.8" font-family="Courier New" font-size="14.00" fill="LightGreen">value=2</text>
</g>
<!-- RollOutcome&#45;5&#45;&gt;RollOutcome&#45;16 -->
<g id="edge33" class="edge">
<title>RollOutcome&#45;5&#45;&gt;RollOutcome&#45;16</title>
<path fill="none" stroke="LightGreen" stroke-dasharray="5,2" d="M1654.82,-102.8C1643.95,-90.47 1629.13,-73.68 1616.96,-59.89"/>
<polygon fill="LightGreen" stroke="LightGreen" points="1619.4,-57.36 1610.15,-52.18 1614.15,-61.99 1619.4,-57.36"/>
<text text-anchor="middle" x="1678.5" y="-73.8" font-family="Courier New" font-size="14.00" fill="LightGreen">sources[0]</text>
</g>
<!-- RollOutcome&#45;21 -->
<g id="node21" class="node">
<title>RollOutcome&#45;21</title>
<polygon fill="none" stroke="LightSalmon" stroke-dasharray="5,2" points="1483,-52 1379,-52 1379,-16 1483,-16 1483,-52"/>
<text text-anchor="start" x="1387" y="-37.8" font-family="Helvetica,sans-Serif" font-weight="bold" font-size="14.00" fill="LightSalmon">RollOutcome</text>
<text text-anchor="start" x="1401.5" y="-23.8" font-family="Courier New" font-size="14.00" fill="LightSalmon">value=4</text>
</g>
<!-- RollOutcome&#45;7&#45;&gt;RollOutcome&#45;21 -->
<g id="edge34" class="edge">
<title>RollOutcome&#45;7&#45;&gt;RollOutcome&#45;21</title>
<path fill="none" stroke="LightSalmon" stroke-dasharray="5,2" d="M1524.32,-102.8C1506.64,-89.95 1482.28,-72.26 1462.89,-58.17"/>
<polygon fill="LightSalmon" stroke="LightSalmon" points="1464.79,-55.22 1454.64,-52.18 1460.67,-60.88 1464.79,-55.22"/>
<text text-anchor="middle" x="1538.5" y="-73.8" font-family="Courier New" font-size="14.00" fill="LightSalmon">sources[0]</text>
</g>
<!-- Roll&#45;9&#45;&gt;ValueRoller&#45;10 -->
<g id="edge8" class="edge">
<title>Roll&#45;9&#45;&gt;ValueRoller&#45;10</title>
<path fill="none" stroke="Lavender" stroke-dasharray="5,2" d="M703.63,-210.61C694.25,-199 680.22,-184.67 664,-178 607.89,-154.92 174.65,-191.72 118,-170 105.11,-165.06 93.24,-155.64 83.85,-146.44"/>
<polygon fill="Lavender" stroke="Lavender" points="86.33,-143.98 76.87,-139.2 81.29,-148.83 86.33,-143.98"/>
<text text-anchor="middle" x="691.5" y="-181.8" font-family="Courier New" font-size="14.00" fill="Lavender">r</text>
</g>
<!-- Roll&#45;9&#45;&gt;RollOutcome&#45;11 -->
<g id="edge9" class="edge">
<title>Roll&#45;9&#45;&gt;RollOutcome&#45;11</title>
<path fill="none" stroke="Lavender" stroke-dasharray="5,2" d="M743.24,-216.03C754.21,-211.52 767.06,-206.61 779,-203 799.44,-196.82 810.39,-207.57 826,-193 859.11,-162.09 828.14,-132.19 854,-95 864.71,-79.6 870.5,-76.76 888,-70 936.8,-51.15 1080.21,-41.62 1163.72,-37.54"/>
<polygon fill="Lavender" stroke="Lavender" points="1164.02,-41.03 1173.84,-37.06 1163.69,-34.04 1164.02,-41.03"/>
<text text-anchor="middle" x="867" y="-117.3" font-family="Courier New" font-size="14.00" fill="Lavender">[0]</text>
</g>
<!-- Roll&#45;12&#45;&gt;RollOutcome&#45;4 -->
<g id="edge11" class="edge">
<title>Roll&#45;12&#45;&gt;RollOutcome&#45;4</title>
<path fill="none" stroke="LightBlue" stroke-dasharray="5,2" d="M1035.66,-210.97C1040.22,-194.3 1047.24,-168.65 1052.57,-149.16"/>
<polygon fill="LightBlue" stroke="LightBlue" points="1055.99,-149.91 1055.26,-139.34 1049.24,-148.06 1055.99,-149.91"/>
<text text-anchor="middle" x="1057" y="-181.8" font-family="Courier New" font-size="14.00" fill="LightBlue">[0]</text>
</g>
<!-- Roll&#45;12&#45;&gt;ValueRoller&#45;13 -->
<g id="edge10" class="edge">
<title>Roll&#45;12&#45;&gt;ValueRoller&#45;13</title>
<path fill="none" stroke="LightBlue" stroke-dasharray="5,2" d="M1003.8,-216.56C990.53,-211.49 974.19,-206.01 959,-203 921.01,-195.46 821.79,-205.1 785,-193 773.41,-189.19 773.65,-181.63 762,-178 729,-167.73 483.21,-182.55 451,-170 438.14,-164.99 426.27,-155.56 416.87,-146.37"/>
<polygon fill="LightBlue" stroke="LightBlue" points="419.36,-143.91 409.9,-139.15 414.33,-148.77 419.36,-143.91"/>
<text text-anchor="middle" x="789.5" y="-181.8" font-family="Courier New" font-size="14.00" fill="LightBlue">r</text>
</g>
<!-- Roll&#45;14&#45;&gt;ValueRoller&#45;15 -->
<g id="edge12" class="edge">
<title>Roll&#45;14&#45;&gt;ValueRoller&#45;15</title>
<path fill="none" stroke="LightGreen" stroke-dasharray="5,2" d="M895.74,-216.85C882.45,-211.86 866.12,-206.35 851,-203 808.25,-193.53 794.28,-207.59 753,-193 741.49,-188.93 741.66,-181.6 730,-178 688.58,-165.22 380.42,-185.63 340,-170 327.13,-165.02 315.26,-155.59 305.86,-146.4"/>
<polygon fill="LightGreen" stroke="LightGreen" points="308.35,-143.94 298.89,-139.17 303.31,-148.8 308.35,-143.94"/>
<text text-anchor="middle" x="757.5" y="-181.8" font-family="Courier New" font-size="14.00" fill="LightGreen">r</text>
</g>
<!-- Roll&#45;14&#45;&gt;RollOutcome&#45;16 -->
<g id="edge13" class="edge">
<title>Roll&#45;14&#45;&gt;RollOutcome&#45;16</title>
<path fill="none" stroke="LightGreen" stroke-dasharray="5,2" d="M928.88,-210.91C941.02,-175.84 968.14,-98.67 973,-95 1065.34,-25.25 1377.15,-66.21 1492,-52 1505.26,-50.36 1519.42,-48.25 1532.87,-46.09"/>
<polygon fill="LightGreen" stroke="LightGreen" points="1533.68,-49.5 1542.98,-44.43 1532.55,-42.59 1533.68,-49.5"/>
<text text-anchor="middle" x="986" y="-117.3" font-family="Courier New" font-size="14.00" fill="LightGreen">[0]</text>
</g>
<!-- Roll&#45;17&#45;&gt;RollOutcome&#45;6 -->
<g id="edge15" class="edge">
<title>Roll&#45;17&#45;&gt;RollOutcome&#45;6</title>
<path fill="none" stroke="LightGoldenRodYellow" stroke-dasharray="5,2" d="M1145.91,-210.97C1152.73,-194.15 1163.27,-168.17 1171.2,-148.62"/>
<polygon fill="LightGoldenRodYellow" stroke="LightGoldenRodYellow" points="1174.45,-149.92 1174.97,-139.34 1167.96,-147.29 1174.45,-149.92"/>
<text text-anchor="middle" x="1172" y="-181.8" font-family="Courier New" font-size="14.00" fill="LightGoldenRodYellow">[0]</text>
</g>
<!-- Roll&#45;17&#45;&gt;ValueRoller&#45;18 -->
<g id="edge14" class="edge">
<title>Roll&#45;17&#45;&gt;ValueRoller&#45;18</title>
<path fill="none" stroke="LightGoldenRodYellow" stroke-dasharray="5,2" d="M1111.75,-216.78C1098.47,-211.77 1082.13,-206.27 1067,-203 947.91,-177.27 915.6,-185.66 794,-178 768.26,-176.38 585.99,-179.47 562,-170 549.16,-164.93 537.3,-155.49 527.9,-146.31"/>
<polygon fill="LightGoldenRodYellow" stroke="LightGoldenRodYellow" points="530.38,-143.85 520.92,-139.1 525.35,-148.72 530.38,-143.85"/>
<text text-anchor="middle" x="1014.5" y="-181.8" font-family="Courier New" font-size="14.00" fill="LightGoldenRodYellow">r</text>
</g>
<!-- Roll&#45;19&#45;&gt;ValueRoller&#45;20 -->
<g id="edge16" class="edge">
<title>Roll&#45;19&#45;&gt;ValueRoller&#45;20</title>
<path fill="none" stroke="LightSalmon" stroke-dasharray="5,2" d="M787.86,-216.78C776.8,-212.32 763.85,-207.26 752,-203 738.38,-198.11 734.07,-199.23 721,-193 709.98,-187.75 709.67,-181.58 698,-178 648.17,-162.72 277.64,-188.72 229,-170 216.12,-165.04 204.25,-155.62 194.85,-146.43"/>
<polygon fill="LightSalmon" stroke="LightSalmon" points="197.34,-143.96 187.88,-139.19 192.3,-148.82 197.34,-143.96"/>
<text text-anchor="middle" x="725.5" y="-181.8" font-family="Courier New" font-size="14.00" fill="LightSalmon">r</text>
</g>
<!-- Roll&#45;19&#45;&gt;RollOutcome&#45;21 -->
<g id="edge17" class="edge">
<title>Roll&#45;19&#45;&gt;RollOutcome&#45;21</title>
<path fill="none" stroke="LightSalmon" stroke-dasharray="5,2" d="M838.46,-210.85C851.86,-200.2 868.27,-185.59 880,-170 912.61,-126.64 898.92,-88.28 950,-70 1020.61,-44.73 1212.28,-58.4 1287,-52 1313.78,-49.71 1343.28,-46.37 1368.56,-43.26"/>
<polygon fill="LightSalmon" stroke="LightSalmon" points="1369.27,-46.7 1378.76,-41.99 1368.4,-39.75 1369.27,-46.7"/>
<text text-anchor="middle" x="928" y="-117.3" font-family="Courier New" font-size="14.00" fill="LightSalmon">[0]</text>
</g>
<!-- Roll&#45;22&#45;&gt;RollOutcome&#45;8 -->
<g id="edge19" class="edge">
<title>Roll&#45;22&#45;&gt;RollOutcome&#45;8</title>
<path fill="none" stroke="LightPink" stroke-dasharray="5,2" d="M1247.76,-210.97C1258.54,-193.92 1275.27,-167.46 1287.68,-147.82"/>
<polygon fill="LightPink" stroke="LightPink" points="1290.66,-149.66 1293.04,-139.34 1284.74,-145.92 1290.66,-149.66"/>
<text text-anchor="middle" x="1281" y="-181.8" font-family="Courier New" font-size="14.00" fill="LightPink">[0]</text>
</g>
<!-- Roll&#45;22&#45;&gt;ValueRoller&#45;23 -->
<g id="edge18" class="edge">
<title>Roll&#45;22&#45;&gt;ValueRoller&#45;23</title>
<path fill="none" stroke="LightPink" stroke-dasharray="5,2" d="M1209.84,-216.08C1199.11,-211.63 1186.59,-206.75 1175,-203 1153,-195.88 1096.91,-181.16 1074,-178 961.23,-162.46 930.82,-185.14 818,-170 768.9,-163.41 714.27,-149.87 674.54,-138.84"/>
<polygon fill="LightPink" stroke="LightPink" points="675.34,-135.43 664.77,-136.1 673.45,-142.17 675.34,-135.43"/>
<text text-anchor="middle" x="1142.5" y="-181.8" font-family="Courier New" font-size="14.00" fill="LightPink">r</text>
</g>
</g>
</svg>
