<?xml version="1.0" encoding="UTF-8" standalone="no"?>
<!DOCTYPE svg PUBLIC "-//W3C//DTD SVG 1.1//EN"
 "http://www.w3.org/Graphics/SVG/1.1/DTD/svg11.dtd">
<!-- Generated by graphviz version 2.49.3 (20211023.0002)
 -->
<!-- Pages: 1 -->
<svg width="376pt" height="381pt"
 viewBox="0.00 0.00 376.00 381.00" xmlns="http://www.w3.org/2000/svg" xmlns:xlink="http://www.w3.org/1999/xlink">
<g id="graph0" class="graph" transform="scale(1 1) rotate(0) translate(4 377)">
<g id="clust1" class="cluster">
<title>cluster_rolls</title>
<polygon fill="transparent" stroke="Azure" stroke-dasharray="1,5" points="211,-290 211,-365 284,-365 284,-290 211,-290"/>
<text text-anchor="start" x="219" y="-350.8" font-family="Helvetica,sans-Serif" font-style="italic" font-size="14.00" fill="Azure">Roll Tree</text>
</g>
<g id="clust2" class="cluster">
<title>cluster_rollers</title>
<polygon fill="transparent" stroke="Azure" stroke-dasharray="1,5" points="8,-182 8,-257 162,-257 162,-182 8,-182"/>
<text text-anchor="start" x="50.5" y="-242.8" font-family="Helvetica,sans-Serif" font-style="italic" font-size="14.00" fill="Azure">Roller Tree</text>
</g>
<g id="clust3" class="cluster">
<title>cluster_roll_outcomes</title>
<polygon fill="transparent" stroke="Azure" stroke-dasharray="1,5" points="170,-8 170,-257 290,-257 290,-8 170,-8"/>
<text text-anchor="start" x="184" y="-242.8" font-family="Helvetica,sans-Serif" font-style="italic" font-size="14.00" fill="Azure">Roll Outcomes</text>
</g>
<!-- Roll&#45;1 -->
<g id="node1" class="node">
<title>Roll&#45;1</title>
<polygon fill="none" stroke="Azure" points="274,-334 220,-334 220,-298 274,-298 274,-334"/>
<text text-anchor="start" x="233.5" y="-313.3" font-family="Helvetica,sans-Serif" font-weight="bold" font-size="14.00" fill="Azure">Roll</text>
</g>
<!-- SubstitutionRoller&#45;2 -->
<g id="node2" class="node">
<title>SubstitutionRoller&#45;2</title>
<polygon fill="none" stroke="Azure" points="154,-226 16,-226 16,-190 154,-190 154,-226"/>
<text text-anchor="start" x="24" y="-211.8" font-family="Helvetica,sans-Serif" font-weight="bold" font-size="14.00" fill="Azure">SubstitutionRoller</text>
<text text-anchor="start" x="42.5" y="-197.8" font-family="Courier New" font-size="14.00" fill="Azure">value=H(6)</text>
</g>
<!-- Roll&#45;1&#45;&gt;SubstitutionRoller&#45;2 -->
<g id="edge1" class="edge">
<title>Roll&#45;1&#45;&gt;SubstitutionRoller&#45;2</title>
<path fill="none" stroke="Azure" d="M220.97,-297.97C193.54,-280.02 150.18,-251.65 119.82,-231.78"/>
<polygon fill="Azure" stroke="Azure" points="121.52,-228.71 111.23,-226.16 117.68,-234.57 121.52,-228.71"/>
<text text-anchor="middle" x="193.5" y="-268.8" font-family="Courier New" font-size="14.00" fill="Azure">r</text>
</g>
<!-- RollOutcome&#45;3 -->
<g id="node3" class="node">
<title>RollOutcome&#45;3</title>
<polygon fill="none" stroke="Azure" points="282,-52 178,-52 178,-16 282,-16 282,-52"/>
<text text-anchor="start" x="186" y="-37.8" font-family="Helvetica,sans-Serif" font-weight="bold" font-size="14.00" fill="Azure">RollOutcome</text>
<text text-anchor="start" x="200.5" y="-23.8" font-family="Courier New" font-size="14.00" fill="Azure">value=1</text>
</g>
<!-- Roll&#45;1&#45;&gt;RollOutcome&#45;3 -->
<g id="edge2" class="edge">
<title>Roll&#45;1&#45;&gt;RollOutcome&#45;3</title>
<path fill="none" stroke="Azure" d="M274.01,-306.99C296.93,-298.6 328.36,-282.95 343,-257 359.38,-227.97 346.51,-215.15 343,-182 337.64,-131.38 351.94,-108.82 319,-70 311.61,-61.29 301.75,-54.73 291.3,-49.79"/>
<polygon fill="Azure" stroke="Azure" points="292.58,-46.54 282,-45.87 289.85,-52.98 292.58,-46.54"/>
<text text-anchor="middle" x="355" y="-160.8" font-family="Courier New" font-size="14.00" fill="Azure">[0]</text>
</g>
<!-- RollOutcome&#45;4 -->
<g id="node4" class="node">
<title>RollOutcome&#45;4</title>
<polygon fill="none" stroke="Azure" points="282,-139 178,-139 178,-103 282,-103 282,-139"/>
<text text-anchor="start" x="186" y="-124.8" font-family="Helvetica,sans-Serif" font-weight="bold" font-size="14.00" fill="Azure">RollOutcome</text>
<text text-anchor="start" x="200.5" y="-110.8" font-family="Courier New" font-size="14.00" fill="Azure">value=1</text>
</g>
<!-- Roll&#45;1&#45;&gt;RollOutcome&#45;4 -->
<g id="edge3" class="edge">
<title>Roll&#45;1&#45;&gt;RollOutcome&#45;4</title>
<path fill="none" stroke="Azure" d="M262.73,-297.77C288.37,-267.49 333.49,-203.56 304,-157 300.56,-151.56 296.02,-146.95 290.88,-143.05"/>
<polygon fill="Azure" stroke="Azure" points="292.66,-140.03 282.37,-137.48 288.82,-145.89 292.66,-140.03"/>
<text text-anchor="middle" x="326" y="-204.3" font-family="Courier New" font-size="14.00" fill="Azure">[1]</text>
</g>
<!-- RollOutcome&#45;5 -->
<g id="node5" class="node">
<title>RollOutcome&#45;5</title>
<polygon fill="none" stroke="Azure" points="282,-226 178,-226 178,-190 282,-190 282,-226"/>
<text text-anchor="start" x="186" y="-211.8" font-family="Helvetica,sans-Serif" font-weight="bold" font-size="14.00" fill="Azure">RollOutcome</text>
<text text-anchor="start" x="200.5" y="-197.8" font-family="Courier New" font-size="14.00" fill="Azure">value=2</text>
</g>
<!-- Roll&#45;1&#45;&gt;RollOutcome&#45;5 -->
<g id="edge4" class="edge">
<title>Roll&#45;1&#45;&gt;RollOutcome&#45;5</title>
<path fill="none" stroke="Azure" d="M244.27,-297.97C241.61,-281.38 237.52,-255.88 234.4,-236.43"/>
<polygon fill="Azure" stroke="Azure" points="237.82,-235.66 232.78,-226.34 230.91,-236.77 237.82,-235.66"/>
<text text-anchor="middle" x="254" y="-268.8" font-family="Courier New" font-size="14.00" fill="Azure">[2]</text>
</g>
<!-- RollOutcome&#45;4&#45;&gt;RollOutcome&#45;3 -->
<g id="edge5" class="edge">
<title>RollOutcome&#45;4&#45;&gt;RollOutcome&#45;3</title>
<path fill="none" stroke="Azure" d="M230,-102.8C230,-91.16 230,-75.55 230,-62.24"/>
<polygon fill="Azure" stroke="Azure" points="233.5,-62.18 230,-52.18 226.5,-62.18 233.5,-62.18"/>
<text text-anchor="middle" x="272.5" y="-73.8" font-family="Courier New" font-size="14.00" fill="Azure">sources[0]</text>
</g>
<!-- RollOutcome&#45;5&#45;&gt;RollOutcome&#45;4 -->
<g id="edge6" class="edge">
<title>RollOutcome&#45;5&#45;&gt;RollOutcome&#45;4</title>
<path fill="none" stroke="Azure" d="M223.06,-189.98C219.94,-180.35 217.3,-168.07 219,-157 219.41,-154.32 219.99,-151.56 220.67,-148.83"/>
<polygon fill="Azure" stroke="Azure" points="224.04,-149.78 223.45,-139.2 217.31,-147.83 224.04,-149.78"/>
<text text-anchor="middle" x="261.5" y="-160.8" font-family="Courier New" font-size="14.00" fill="Azure">sources[0]</text>
</g>
</g>
</svg>
