<?xml version="1.0" encoding="utf-8" standalone="no"?>
<!DOCTYPE svg PUBLIC "-//W3C//DTD SVG 1.1//EN"
  "http://www.w3.org/Graphics/SVG/1.1/DTD/svg11.dtd">
<svg xmlns:xlink="http://www.w3.org/1999/xlink" width="460.8pt" height="230.4pt" viewBox="0 0 460.8 230.4" xmlns="http://www.w3.org/2000/svg" version="1.1">
 <metadata>
  <rdf:RDF xmlns:dc="http://purl.org/dc/elements/1.1/" xmlns:cc="http://creativecommons.org/ns#" xmlns:rdf="http://www.w3.org/1999/02/22-rdf-syntax-ns#">
   <cc:Work>
    <dc:type rdf:resource="http://purl.org/dc/dcmitype/StillImage"/>
    <dc:format>image/svg+xml</dc:format>
    <dc:creator>
     <cc:Agent>
      <dc:title>Matplotlib, https://matplotlib.org/</dc:title>
     </cc:Agent>
    </dc:creator>
   </cc:Work>
  </rdf:RDF>
 </metadata>
 <defs>
  <style type="text/css">*{stroke-linejoin: round; stroke-linecap: butt}</style>
 </defs>
 <g id="figure_1">
  <g id="patch_1">
   <path d="M 0 230.4 
L 460.8 230.4 
L 460.8 0 
L 0 0 
L 0 230.4 
z
" style="fill: none"/>
  </g>
  <g id="axes_1">
   <g id="patch_2">
    <path d="M 132.752812 47.671409 
C 120.074967 47.671409 107.617786 51.0093 96.638451 57.348223 
C 85.659115 63.687145 76.539826 72.806434 70.200903 83.78577 
L 120.24243 112.677258 
C 121.510214 110.481391 123.334072 108.657534 125.529939 107.389749 
C 127.725807 106.121965 130.217243 105.454386 132.752812 105.454386 
z
" style="fill: #481f70; fill-opacity: 0.75; stroke: #262626; stroke-width: 0.5; stroke-linejoin: miter"/>
   </g>
   <g id="patch_3">
    <path d="M 70.200903 83.78577 
C 63.861981 94.765105 60.52409 107.222286 60.52409 119.900131 
C 60.52409 132.577976 63.861981 145.035156 70.200903 156.014492 
L 120.24243 127.123003 
C 118.974645 124.927136 118.307067 122.4357 118.307067 119.900131 
C 118.307067 117.364562 118.974645 114.873126 120.24243 112.677258 
z
" style="fill: #3b528b; fill-opacity: 0.75; stroke: #262626; stroke-width: 0.5; stroke-linejoin: miter"/>
   </g>
   <g id="patch_4">
    <path d="M 70.200903 156.014492 
C 76.539826 166.993827 85.659115 176.113116 96.638451 182.452039 
C 107.617786 188.790961 120.074967 192.128853 132.752812 192.128853 
L 132.752812 134.345875 
C 130.217243 134.345875 127.725807 133.678297 125.529939 132.410512 
C 123.334072 131.142728 121.510214 129.31887 120.24243 127.123003 
z
" style="fill: #287c8e; fill-opacity: 0.75; stroke: #262626; stroke-width: 0.5; stroke-linejoin: miter"/>
   </g>
   <g id="patch_5">
    <path d="M 132.752812 192.128853 
C 145.430657 192.128853 157.887837 188.790961 168.867173 182.452039 
C 179.846508 176.113116 188.965797 166.993827 195.30472 156.014492 
L 145.263193 127.123003 
C 143.995409 129.31887 142.171551 131.142728 139.975684 132.410512 
C 137.779817 133.678297 135.288381 134.345875 132.752812 134.345875 
z
" style="fill: #20a486; fill-opacity: 0.75; stroke: #262626; stroke-width: 0.5; stroke-linejoin: miter"/>
   </g>
   <g id="patch_6">
    <path d="M 195.30472 156.014492 
C 201.643642 145.035156 204.981534 132.577976 204.981534 119.900131 
C 204.981534 107.222286 201.643642 94.765105 195.30472 83.78577 
L 145.263193 112.677258 
C 146.530978 114.873126 147.198556 117.364562 147.198556 119.900131 
C 147.198556 122.4357 146.530978 124.927136 145.263193 127.123003 
z
" style="fill: #5ec962; fill-opacity: 0.75; stroke: #262626; stroke-width: 0.5; stroke-linejoin: miter"/>
   </g>
   <g id="patch_7">
    <path d="M 195.30472 83.78577 
C 188.965797 72.806434 179.846508 63.687145 168.867173 57.348223 
C 157.887837 51.0093 145.430657 47.671409 132.752812 47.671409 
L 132.752812 105.454386 
C 135.288381 105.454386 137.779817 106.121965 139.975684 107.389749 
C 142.171551 108.657534 143.995409 110.481391 145.263193 112.677258 
z
" style="fill: #c8e020; fill-opacity: 0.75; stroke: #262626; stroke-width: 0.5; stroke-linejoin: miter"/>
   </g>
   <g id="patch_8">
    <path d="M 132.752812 58.505717 
C 121.976643 58.505717 111.38804 61.342925 102.055605 66.731009 
C 92.723169 72.119093 84.971774 79.870488 79.58369 89.202924 
L 110.859644 107.260104 
C 113.078267 103.417337 116.270018 100.225586 120.112785 98.006963 
C 123.955553 95.78834 128.315566 94.620078 132.752812 94.620078 
z
" style="fill: #481f70; fill-opacity: 0.75; stroke: #262626; stroke-width: 0.5; stroke-linejoin: miter"/>
   </g>
   <g id="patch_9">
    <path d="M 79.58369 89.202924 
C 74.195606 98.535359 71.358398 109.123962 71.358398 119.900131 
C 71.358398 130.676299 74.195606 141.264902 79.58369 150.597338 
L 110.859644 132.540157 
C 108.641021 128.697389 107.472759 124.337376 107.472759 119.900131 
C 107.472759 115.462885 108.641021 111.102872 110.859644 107.260104 
z
" style="fill: #3b528b; fill-opacity: 0.75; stroke: #262626; stroke-width: 0.5; stroke-linejoin: miter"/>
   </g>
   <g id="patch_10">
    <path d="M 79.58369 150.597338 
C 84.971774 159.929773 92.723169 167.681168 102.055605 173.069253 
C 111.38804 178.457337 121.976643 181.294544 132.752812 181.294544 
L 132.752812 145.180183 
C 128.315566 145.180183 123.955553 144.011921 120.112785 141.793299 
C 116.270018 139.574676 113.078267 136.382925 110.859644 132.540157 
z
" style="fill: #287c8e; fill-opacity: 0.75; stroke: #262626; stroke-width: 0.5; stroke-linejoin: miter"/>
   </g>
   <g id="patch_11">
    <path d="M 132.752812 181.294544 
C 143.52898 181.294544 154.117583 178.457337 163.450018 173.069253 
C 172.782454 167.681168 180.533849 159.929773 185.921933 150.597338 
L 154.645979 132.540157 
C 152.427357 136.382925 149.235605 139.574676 145.392838 141.793299 
C 141.55007 144.011921 137.190057 145.180183 132.752812 145.180183 
z
" style="fill: #20a486; fill-opacity: 0.75; stroke: #262626; stroke-width: 0.5; stroke-linejoin: miter"/>
   </g>
   <g id="patch_12">
    <path d="M 185.921933 150.597338 
C 191.310018 141.264902 194.147225 130.676299 194.147225 119.900131 
C 194.147225 109.123962 191.310018 98.535359 185.921933 89.202924 
L 154.645979 107.260104 
C 156.864602 111.102872 158.032864 115.462885 158.032864 119.900131 
C 158.032864 124.337376 156.864602 128.697389 154.645979 132.540157 
z
" style="fill: #5ec962; fill-opacity: 0.75; stroke: #262626; stroke-width: 0.5; stroke-linejoin: miter"/>
   </g>
   <g id="patch_13">
    <path d="M 185.921933 89.202924 
C 180.533849 79.870488 172.782454 72.119093 163.450018 66.731009 
C 154.117583 61.342925 143.52898 58.505717 132.752812 58.505717 
L 132.752812 94.620078 
C 137.190057 94.620078 141.55007 95.78834 145.392838 98.006963 
C 149.235605 100.225586 152.427357 103.417337 154.645979 107.260104 
z
" style="fill: #c8e020; fill-opacity: 0.75; stroke: #262626; stroke-width: 0.5; stroke-linejoin: miter"/>
   </g>
   <g id="matplotlib.axis_1"/>
   <g id="matplotlib.axis_2"/>
   <g id="text_1">
    <!-- 16.67% -->
    <g style="fill: #262626" transform="translate(53.091609 50.563093) scale(0.1 -0.1)">
     <defs>
      <path id="DejaVuSans-14" d="M 794 531 
L 1825 531 
L 1825 4091 
L 703 3866 
L 703 4441 
L 1819 4666 
L 2450 4666 
L 2450 531 
L 3481 531 
L 3481 0 
L 794 0 
L 794 531 
z
" transform="scale(0.015625)"/>
      <path id="DejaVuSans-19" d="M 2113 2584 
Q 1688 2584 1439 2293 
Q 1191 2003 1191 1497 
Q 1191 994 1439 701 
Q 1688 409 2113 409 
Q 2538 409 2786 701 
Q 3034 994 3034 1497 
Q 3034 2003 2786 2293 
Q 2538 2584 2113 2584 
z
M 3366 4563 
L 3366 3988 
Q 3128 4100 2886 4159 
Q 2644 4219 2406 4219 
Q 1781 4219 1451 3797 
Q 1122 3375 1075 2522 
Q 1259 2794 1537 2939 
Q 1816 3084 2150 3084 
Q 2853 3084 3261 2657 
Q 3669 2231 3669 1497 
Q 3669 778 3244 343 
Q 2819 -91 2113 -91 
Q 1303 -91 875 529 
Q 447 1150 447 2328 
Q 447 3434 972 4092 
Q 1497 4750 2381 4750 
Q 2619 4750 2861 4703 
Q 3103 4656 3366 4563 
z
" transform="scale(0.015625)"/>
      <path id="DejaVuSans-11" d="M 684 794 
L 1344 794 
L 1344 0 
L 684 0 
L 684 794 
z
" transform="scale(0.015625)"/>
      <path id="DejaVuSans-1a" d="M 525 4666 
L 3525 4666 
L 3525 4397 
L 1831 0 
L 1172 0 
L 2766 4134 
L 525 4134 
L 525 4666 
z
" transform="scale(0.015625)"/>
      <path id="DejaVuSans-8" d="M 4653 2053 
Q 4381 2053 4226 1822 
Q 4072 1591 4072 1178 
Q 4072 772 4226 539 
Q 4381 306 4653 306 
Q 4919 306 5073 539 
Q 5228 772 5228 1178 
Q 5228 1588 5073 1820 
Q 4919 2053 4653 2053 
z
M 4653 2450 
Q 5147 2450 5437 2106 
Q 5728 1763 5728 1178 
Q 5728 594 5436 251 
Q 5144 -91 4653 -91 
Q 4153 -91 3862 251 
Q 3572 594 3572 1178 
Q 3572 1766 3864 2108 
Q 4156 2450 4653 2450 
z
M 1428 4353 
Q 1159 4353 1004 4120 
Q 850 3888 850 3481 
Q 850 3069 1003 2837 
Q 1156 2606 1428 2606 
Q 1700 2606 1854 2837 
Q 2009 3069 2009 3481 
Q 2009 3884 1853 4118 
Q 1697 4353 1428 4353 
z
M 4250 4750 
L 4750 4750 
L 1831 -91 
L 1331 -91 
L 4250 4750 
z
M 1428 4750 
Q 1922 4750 2215 4408 
Q 2509 4066 2509 3481 
Q 2509 2891 2217 2550 
Q 1925 2209 1428 2209 
Q 931 2209 642 2551 
Q 353 2894 353 3481 
Q 353 4063 643 4406 
Q 934 4750 1428 4750 
z
" transform="scale(0.015625)"/>
     </defs>
     <use xlink:href="#DejaVuSans-14"/>
     <use xlink:href="#DejaVuSans-19" transform="translate(63.625 0)"/>
     <use xlink:href="#DejaVuSans-11" transform="translate(127.25 0)"/>
     <use xlink:href="#DejaVuSans-19" transform="translate(159.03125 0)"/>
     <use xlink:href="#DejaVuSans-1a" transform="translate(222.65625 0)"/>
     <use xlink:href="#DejaVuSans-8" transform="translate(286.28125 0)"/>
    </g>
   </g>
   <g id="text_2">
    <!-- 16.67% -->
    <g style="fill: #262626" transform="translate(11.560094 122.497787) scale(0.1 -0.1)">
     <use xlink:href="#DejaVuSans-14"/>
     <use xlink:href="#DejaVuSans-19" transform="translate(63.625 0)"/>
     <use xlink:href="#DejaVuSans-11" transform="translate(127.25 0)"/>
     <use xlink:href="#DejaVuSans-19" transform="translate(159.03125 0)"/>
     <use xlink:href="#DejaVuSans-1a" transform="translate(222.65625 0)"/>
     <use xlink:href="#DejaVuSans-8" transform="translate(286.28125 0)"/>
    </g>
   </g>
   <g id="text_3">
    <!-- 16.67% -->
    <g style="fill: #262626" transform="translate(53.091609 194.432481) scale(0.1 -0.1)">
     <use xlink:href="#DejaVuSans-14"/>
     <use xlink:href="#DejaVuSans-19" transform="translate(63.625 0)"/>
     <use xlink:href="#DejaVuSans-11" transform="translate(127.25 0)"/>
     <use xlink:href="#DejaVuSans-19" transform="translate(159.03125 0)"/>
     <use xlink:href="#DejaVuSans-1a" transform="translate(222.65625 0)"/>
     <use xlink:href="#DejaVuSans-8" transform="translate(286.28125 0)"/>
    </g>
   </g>
   <g id="text_4">
    <!-- 16.67% -->
    <g style="fill: #262626" transform="translate(174.284327 194.432481) scale(0.1 -0.1)">
     <use xlink:href="#DejaVuSans-14"/>
     <use xlink:href="#DejaVuSans-19" transform="translate(63.625 0)"/>
     <use xlink:href="#DejaVuSans-11" transform="translate(127.25 0)"/>
     <use xlink:href="#DejaVuSans-19" transform="translate(159.03125 0)"/>
     <use xlink:href="#DejaVuSans-1a" transform="translate(222.65625 0)"/>
     <use xlink:href="#DejaVuSans-8" transform="translate(286.28125 0)"/>
    </g>
   </g>
   <g id="text_5">
    <!-- 16.67% -->
    <g style="fill: #262626" transform="translate(215.815842 122.497787) scale(0.1 -0.1)">
     <use xlink:href="#DejaVuSans-14"/>
     <use xlink:href="#DejaVuSans-19" transform="translate(63.625 0)"/>
     <use xlink:href="#DejaVuSans-11" transform="translate(127.25 0)"/>
     <use xlink:href="#DejaVuSans-19" transform="translate(159.03125 0)"/>
     <use xlink:href="#DejaVuSans-1a" transform="translate(222.65625 0)"/>
     <use xlink:href="#DejaVuSans-8" transform="translate(286.28125 0)"/>
    </g>
   </g>
   <g id="text_6">
    <!-- 16.67% -->
    <g style="fill: #262626" transform="translate(174.284327 50.563093) scale(0.1 -0.1)">
     <use xlink:href="#DejaVuSans-14"/>
     <use xlink:href="#DejaVuSans-19" transform="translate(63.625 0)"/>
     <use xlink:href="#DejaVuSans-11" transform="translate(127.25 0)"/>
     <use xlink:href="#DejaVuSans-19" transform="translate(159.03125 0)"/>
     <use xlink:href="#DejaVuSans-1a" transform="translate(222.65625 0)"/>
     <use xlink:href="#DejaVuSans-8" transform="translate(286.28125 0)"/>
    </g>
   </g>
   <g id="text_7">
    <!-- 1 -->
    <g style="fill: #262626" transform="translate(104.902267 85.279402) scale(0.1 -0.1)">
     <use xlink:href="#DejaVuSans-14"/>
    </g>
   </g>
   <g id="text_8">
    <!-- 2 -->
    <g style="fill: #262626" transform="translate(83.414222 122.497787) scale(0.1 -0.1)">
     <defs>
      <path id="DejaVuSans-15" d="M 1228 531 
L 3431 531 
L 3431 0 
L 469 0 
L 469 531 
Q 828 903 1448 1529 
Q 2069 2156 2228 2338 
Q 2531 2678 2651 2914 
Q 2772 3150 2772 3378 
Q 2772 3750 2511 3984 
Q 2250 4219 1831 4219 
Q 1534 4219 1204 4116 
Q 875 4013 500 3803 
L 500 4441 
Q 881 4594 1212 4672 
Q 1544 4750 1819 4750 
Q 2544 4750 2975 4387 
Q 3406 4025 3406 3419 
Q 3406 3131 3298 2873 
Q 3191 2616 2906 2266 
Q 2828 2175 2409 1742 
Q 1991 1309 1228 531 
z
" transform="scale(0.015625)"/>
     </defs>
     <use xlink:href="#DejaVuSans-15"/>
    </g>
   </g>
   <g id="text_9">
    <!-- 3 -->
    <g style="fill: #262626" transform="translate(104.902267 159.716172) scale(0.1 -0.1)">
     <defs>
      <path id="DejaVuSans-16" d="M 2597 2516 
Q 3050 2419 3304 2112 
Q 3559 1806 3559 1356 
Q 3559 666 3084 287 
Q 2609 -91 1734 -91 
Q 1441 -91 1130 -33 
Q 819 25 488 141 
L 488 750 
Q 750 597 1062 519 
Q 1375 441 1716 441 
Q 2309 441 2620 675 
Q 2931 909 2931 1356 
Q 2931 1769 2642 2001 
Q 2353 2234 1838 2234 
L 1294 2234 
L 1294 2753 
L 1863 2753 
Q 2328 2753 2575 2939 
Q 2822 3125 2822 3475 
Q 2822 3834 2567 4026 
Q 2313 4219 1838 4219 
Q 1578 4219 1281 4162 
Q 984 4106 628 3988 
L 628 4550 
Q 988 4650 1302 4700 
Q 1616 4750 1894 4750 
Q 2613 4750 3031 4423 
Q 3450 4097 3450 3541 
Q 3450 3153 3228 2886 
Q 3006 2619 2597 2516 
z
" transform="scale(0.015625)"/>
     </defs>
     <use xlink:href="#DejaVuSans-16"/>
    </g>
   </g>
   <g id="text_10">
    <!-- 4 -->
    <g style="fill: #262626" transform="translate(154.240856 159.716172) scale(0.1 -0.1)">
     <defs>
      <path id="DejaVuSans-17" d="M 2419 4116 
L 825 1625 
L 2419 1625 
L 2419 4116 
z
M 2253 4666 
L 3047 4666 
L 3047 1625 
L 3713 1625 
L 3713 1100 
L 3047 1100 
L 3047 0 
L 2419 0 
L 2419 1100 
L 313 1100 
L 313 1709 
L 2253 4666 
z
" transform="scale(0.015625)"/>
     </defs>
     <use xlink:href="#DejaVuSans-17"/>
    </g>
   </g>
   <g id="text_11">
    <!-- 5 -->
    <g style="fill: #262626" transform="translate(175.728901 122.497787) scale(0.1 -0.1)">
     <defs>
      <path id="DejaVuSans-18" d="M 691 4666 
L 3169 4666 
L 3169 4134 
L 1269 4134 
L 1269 2991 
Q 1406 3038 1543 3061 
Q 1681 3084 1819 3084 
Q 2600 3084 3056 2656 
Q 3513 2228 3513 1497 
Q 3513 744 3044 326 
Q 2575 -91 1722 -91 
Q 1428 -91 1123 -41 
Q 819 9 494 109 
L 494 744 
Q 775 591 1075 516 
Q 1375 441 1709 441 
Q 2250 441 2565 725 
Q 2881 1009 2881 1497 
Q 2881 1984 2565 2268 
Q 2250 2553 1709 2553 
Q 1456 2553 1204 2497 
Q 953 2441 691 2322 
L 691 4666 
z
" transform="scale(0.015625)"/>
     </defs>
     <use xlink:href="#DejaVuSans-18"/>
    </g>
   </g>
   <g id="text_12">
    <!-- 6 -->
    <g style="fill: #262626" transform="translate(154.240856 85.279402) scale(0.1 -0.1)">
     <use xlink:href="#DejaVuSans-19"/>
    </g>
   </g>
   <g id="text_13">
    <!-- d6 -->
    <g style="fill: #262626" transform="translate(123.600937 23.614228) scale(0.144 -0.144)">
     <defs>
      <path id="DejaVuSans-47" d="M 2906 2969 
L 2906 4863 
L 3481 4863 
L 3481 0 
L 2906 0 
L 2906 525 
Q 2725 213 2448 61 
Q 2172 -91 1784 -91 
Q 1150 -91 751 415 
Q 353 922 353 1747 
Q 353 2572 751 3078 
Q 1150 3584 1784 3584 
Q 2172 3584 2448 3432 
Q 2725 3281 2906 2969 
z
M 947 1747 
Q 947 1113 1208 752 
Q 1469 391 1925 391 
Q 2381 391 2643 752 
Q 2906 1113 2906 1747 
Q 2906 2381 2643 2742 
Q 2381 3103 1925 3103 
Q 1469 3103 1208 2742 
Q 947 2381 947 1747 
z
" transform="scale(0.015625)"/>
     </defs>
     <use xlink:href="#DejaVuSans-47"/>
     <use xlink:href="#DejaVuSans-19" transform="translate(63.484375 0)"/>
    </g>
   </g>
  </g>
  <g id="axes_2">
   <g id="patch_14">
    <path d="M 355.791526 47.671409 
C 349.479394 47.671409 343.194408 48.498843 337.097357 50.132543 
C 331.000306 51.766243 325.143631 54.192157 319.677165 57.348223 
L 348.568653 107.389749 
C 349.661947 106.758536 350.833282 106.273353 352.052692 105.946613 
C 353.272102 105.619873 354.529099 105.454386 355.791526 105.454386 
z
" style="fill: #b91326; fill-opacity: 0.75; stroke: #262626; stroke-width: 0.5; stroke-linejoin: miter"/>
   </g>
   <g id="patch_15">
    <path d="M 319.677165 57.348223 
C 314.210698 60.504288 309.181458 64.36336 304.718106 68.826712 
C 300.254755 73.290063 296.395683 78.319303 293.239617 83.78577 
L 343.281144 112.677258 
C 343.912357 111.583965 344.684172 110.578117 345.576842 109.685447 
C 346.469512 108.792777 347.47536 108.020962 348.568653 107.389749 
z
" style="fill: #de402e; fill-opacity: 0.75; stroke: #262626; stroke-width: 0.5; stroke-linejoin: miter"/>
   </g>
   <g id="patch_16">
    <path d="M 293.239617 83.78577 
C 290.083552 89.252236 287.657638 95.108911 286.023938 101.205962 
C 284.390238 107.303013 283.562804 113.587999 283.562804 119.900131 
L 341.345781 119.900131 
C 341.345781 118.637704 341.511268 117.380707 341.838008 116.161297 
C 342.164748 114.941887 342.649931 113.770552 343.281144 112.677258 
z
" style="fill: #f57245; fill-opacity: 0.75; stroke: #262626; stroke-width: 0.5; stroke-linejoin: miter"/>
   </g>
   <g id="patch_17">
    <path d="M 283.562804 119.900131 
C 283.562804 126.212262 284.390238 132.497249 286.023938 138.5943 
C 287.657638 144.691351 290.083552 150.548025 293.239617 156.014492 
L 343.281144 127.123003 
C 342.649931 126.02971 342.164748 124.858375 341.838008 123.638964 
C 341.511268 122.419554 341.345781 121.162557 341.345781 119.900131 
z
" style="fill: #fca85e; fill-opacity: 0.75; stroke: #262626; stroke-width: 0.5; stroke-linejoin: miter"/>
   </g>
   <g id="patch_18">
    <path d="M 293.239617 156.014492 
C 296.395683 161.480958 300.254755 166.510199 304.718106 170.97355 
C 309.181458 175.436901 314.210698 179.295973 319.677165 182.452039 
L 348.568653 132.410512 
C 347.47536 131.779299 346.469512 131.007485 345.576842 130.114815 
C 344.684172 129.222144 343.912357 128.216296 343.281144 127.123003 
z
" style="fill: #fed485; fill-opacity: 0.75; stroke: #262626; stroke-width: 0.5; stroke-linejoin: miter"/>
   </g>
   <g id="patch_19">
    <path d="M 319.677165 182.452039 
C 325.143631 185.608105 331.000306 188.034019 337.097357 189.667719 
C 343.194408 191.301419 349.479394 192.128853 355.791526 192.128853 
L 355.791526 134.345875 
C 354.529099 134.345875 353.272102 134.180388 352.052692 133.853648 
C 350.833282 133.526908 349.661947 133.041725 348.568653 132.410512 
z
" style="fill: #fff2ac; fill-opacity: 0.75; stroke: #262626; stroke-width: 0.5; stroke-linejoin: miter"/>
   </g>
   <g id="patch_20">
    <path d="M 355.791526 192.128853 
C 362.103657 192.128853 368.388643 191.301419 374.485694 189.667719 
C 380.582745 188.034019 386.43942 185.608105 391.905887 182.452039 
L 363.014398 132.410512 
C 361.921105 133.041725 360.74977 133.526908 359.530359 133.853648 
C 358.310949 134.180388 357.053952 134.345875 355.791526 134.345875 
z
" style="fill: #f2fad6; fill-opacity: 0.75; stroke: #262626; stroke-width: 0.5; stroke-linejoin: miter"/>
   </g>
   <g id="patch_21">
    <path d="M 391.905887 182.452039 
C 397.372353 179.295973 402.401594 175.436901 406.864945 170.97355 
C 411.328296 166.510199 415.187368 161.480958 418.343434 156.014492 
L 368.301907 127.123003 
C 367.670694 128.216296 366.89888 129.222144 366.006209 130.114815 
C 365.113539 131.007485 364.107691 131.779299 363.014398 132.410512 
z
" style="fill: #d1ecf4; fill-opacity: 0.75; stroke: #262626; stroke-width: 0.5; stroke-linejoin: miter"/>
   </g>
   <g id="patch_22">
    <path d="M 418.343434 156.014492 
C 421.4995 150.548025 423.925414 144.691351 425.559114 138.5943 
C 427.192813 132.497249 428.020248 126.212262 428.020248 119.900131 
L 370.23727 119.900131 
C 370.23727 121.162557 370.071783 122.419554 369.745043 123.638964 
C 369.418303 124.858375 368.93312 126.02971 368.301907 127.123003 
z
" style="fill: #a6d5e7; fill-opacity: 0.75; stroke: #262626; stroke-width: 0.5; stroke-linejoin: miter"/>
   </g>
   <g id="patch_23">
    <path d="M 428.020248 119.900131 
C 428.020248 113.587999 427.192813 107.303013 425.559114 101.205962 
C 423.925414 95.108911 421.4995 89.252236 418.343434 83.78577 
L 368.301907 112.677258 
C 368.93312 113.770552 369.418303 114.941887 369.745043 116.161297 
C 370.071783 117.380707 370.23727 118.637704 370.23727 119.900131 
z
" style="fill: #78b0d3; fill-opacity: 0.75; stroke: #262626; stroke-width: 0.5; stroke-linejoin: miter"/>
   </g>
   <g id="patch_24">
    <path d="M 418.343434 83.78577 
C 415.187368 78.319303 411.328296 73.290063 406.864945 68.826712 
C 402.401594 64.36336 397.372353 60.504288 391.905887 57.348223 
L 363.014398 107.389749 
C 364.107691 108.020962 365.113539 108.792777 366.006209 109.685447 
C 366.89888 110.578117 367.670694 111.583965 368.301907 112.677258 
z
" style="fill: #4f81ba; fill-opacity: 0.75; stroke: #262626; stroke-width: 0.5; stroke-linejoin: miter"/>
   </g>
   <g id="patch_25">
    <path d="M 391.905887 57.348223 
C 386.43942 54.192157 380.582745 51.766243 374.485694 50.132543 
C 368.388643 48.498843 362.103657 47.671409 355.791526 47.671409 
L 355.791526 105.454386 
C 357.053952 105.454386 358.310949 105.619873 359.530359 105.946613 
C 360.74977 106.273353 361.921105 106.758536 363.014398 107.389749 
z
" style="fill: #394fa1; fill-opacity: 0.75; stroke: #262626; stroke-width: 0.5; stroke-linejoin: miter"/>
   </g>
   <g id="patch_26">
    <path d="M 355.791526 58.505717 
C 354.005351 58.505717 352.220027 58.583666 350.44065 58.739341 
C 348.661272 58.895017 346.889536 59.12827 345.130498 59.438436 
L 351.40169 95.004139 
C 352.126 94.876423 352.855539 94.780378 353.588224 94.716276 
C 354.320909 94.652175 355.056042 94.620078 355.791526 94.620078 
z
" style="fill: #ab0626; fill-opacity: 0.75; stroke: #262626; stroke-width: 0.5; stroke-linejoin: miter"/>
   </g>
   <g id="patch_27">
    <path d="M 345.130498 59.438436 
C 341.610748 60.059063 338.151905 60.985857 334.793399 62.208253 
C 331.434893 63.430649 328.189535 64.943985 325.094319 66.731009 
L 343.151499 98.006963 
C 344.426 97.27113 345.762324 96.647991 347.145238 96.144652 
C 348.528153 95.641312 349.952382 95.259691 351.40169 95.004139 
z
" style="fill: #c01a27; fill-opacity: 0.75; stroke: #262626; stroke-width: 0.5; stroke-linejoin: miter"/>
   </g>
   <g id="patch_28">
    <path d="M 325.094319 66.731009 
C 320.447822 69.413665 316.172968 72.693876 312.379119 76.487724 
C 308.585271 80.281573 305.30506 84.556427 302.622404 89.202924 
L 333.898358 107.260104 
C 335.002981 105.346841 336.353656 103.586607 337.915829 102.024434 
C 339.478002 100.462261 341.238236 99.111586 343.151499 98.006963 
z
" style="fill: #dd3d2d; fill-opacity: 0.75; stroke: #262626; stroke-width: 0.5; stroke-linejoin: miter"/>
   </g>
   <g id="patch_29">
    <path d="M 302.622404 89.202924 
C 299.041579 95.405094 296.573438 102.186255 295.329831 109.239103 
C 294.086224 116.29195 294.086224 123.508311 295.329831 130.561159 
L 330.895534 124.289966 
C 330.38346 121.385852 330.38346 118.414409 330.895534 115.510296 
C 331.407607 112.606182 332.423901 109.813939 333.898358 107.260104 
z
" style="fill: #f67a49; fill-opacity: 0.75; stroke: #262626; stroke-width: 0.5; stroke-linejoin: miter"/>
   </g>
   <g id="patch_30">
    <path d="M 295.329831 130.561159 
C 296.886539 139.389686 300.358213 147.771049 305.500166 155.11452 
C 310.642119 162.45799 317.330642 168.586892 325.094319 173.069253 
L 343.151499 141.793299 
C 339.954691 139.94762 337.200594 137.423955 335.083319 134.400173 
C 332.966044 131.376391 331.536531 127.925242 330.895534 124.289966 
z
" style="fill: #fdc574; fill-opacity: 0.75; stroke: #262626; stroke-width: 0.5; stroke-linejoin: miter"/>
   </g>
   <g id="patch_31">
    <path d="M 325.094319 173.069253 
C 334.426754 178.457337 345.015357 181.294544 355.791526 181.294544 
C 366.567694 181.294544 377.156297 178.457337 386.488732 173.069253 
L 368.431552 141.793299 
C 364.588784 144.011921 360.228771 145.180183 355.791526 145.180183 
C 351.35428 145.180183 346.994267 144.011921 343.151499 141.793299 
z
" style="fill: #fffebe; fill-opacity: 0.75; stroke: #262626; stroke-width: 0.5; stroke-linejoin: miter"/>
   </g>
   <g id="patch_32">
    <path d="M 386.488732 173.069253 
C 394.252409 168.586892 400.940932 162.45799 406.082885 155.11452 
C 411.224838 147.771049 414.696513 139.389686 416.25322 130.561159 
L 380.687517 124.289966 
C 380.04652 127.925242 378.617007 131.376391 376.499732 134.400173 
C 374.382458 137.423955 371.62836 139.94762 368.431552 141.793299 
z
" style="fill: #bde379; fill-opacity: 0.75; stroke: #262626; stroke-width: 0.5; stroke-linejoin: miter"/>
   </g>
   <g id="patch_33">
    <path d="M 416.25322 130.561159 
C 417.496827 123.508311 417.496827 116.29195 416.25322 109.239103 
C 415.009613 102.186255 412.541472 95.405094 408.960647 89.202924 
L 377.684693 107.260104 
C 379.159151 109.813939 380.175444 112.606182 380.687517 115.510296 
C 381.199591 118.414409 381.199591 121.385852 380.687517 124.289966 
z
" style="fill: #73c264; fill-opacity: 0.75; stroke: #262626; stroke-width: 0.5; stroke-linejoin: miter"/>
   </g>
   <g id="patch_34">
    <path d="M 408.960647 89.202924 
C 406.277992 84.556427 402.99778 80.281573 399.203932 76.487724 
C 395.410083 72.693876 391.135229 69.413665 386.488732 66.731009 
L 368.431552 98.006963 
C 370.344815 99.111586 372.105049 100.462261 373.667222 102.024434 
C 375.229395 103.586607 376.58007 105.346841 377.684693 107.260104 
z
" style="fill: #2aa054; fill-opacity: 0.75; stroke: #262626; stroke-width: 0.5; stroke-linejoin: miter"/>
   </g>
   <g id="patch_35">
    <path d="M 386.488732 66.731009 
C 383.393517 64.943985 380.148158 63.430649 376.789652 62.208253 
C 373.431146 60.985857 369.972303 60.059063 366.452554 59.438436 
L 360.181361 95.004139 
C 361.630669 95.259691 363.054899 95.641312 364.437813 96.144652 
C 365.820727 96.647991 367.157051 97.27113 368.431552 98.006963 
z
" style="fill: #0e8245; fill-opacity: 0.75; stroke: #262626; stroke-width: 0.5; stroke-linejoin: miter"/>
   </g>
   <g id="patch_36">
    <path d="M 366.452554 59.438436 
C 364.693515 59.12827 362.921779 58.895017 361.142401 58.739341 
C 359.363024 58.583666 357.5777 58.505717 355.791526 58.505717 
L 355.791526 94.620078 
C 356.527009 94.620078 357.262143 94.652175 357.994827 94.716276 
C 358.727512 94.780378 359.457051 94.876423 360.181361 95.004139 
z
" style="fill: #036e3a; fill-opacity: 0.75; stroke: #262626; stroke-width: 0.5; stroke-linejoin: miter"/>
   </g>
   <g id="matplotlib.axis_3"/>
   <g id="matplotlib.axis_4"/>
   <g id="text_14">
    <!-- 1 -->
    <g style="fill: #262626" transform="translate(327.930731 42.265061) scale(0.1 -0.1)">
     <use xlink:href="#DejaVuSans-14"/>
    </g>
   </g>
   <g id="text_15">
    <!-- 2 -->
    <g style="fill: #262626" transform="translate(290.694594 63.763355) scale(0.1 -0.1)">
     <use xlink:href="#DejaVuSans-15"/>
    </g>
   </g>
   <g id="text_16">
    <!-- 3 -->
    <g style="fill: #262626" transform="translate(269.196299 100.999493) scale(0.1 -0.1)">
     <use xlink:href="#DejaVuSans-16"/>
    </g>
   </g>
   <g id="text_17">
    <!-- 4 -->
    <g style="fill: #262626" transform="translate(269.196299 143.996081) scale(0.1 -0.1)">
     <use xlink:href="#DejaVuSans-17"/>
    </g>
   </g>
   <g id="text_18">
    <!-- 5 -->
    <g style="fill: #262626" transform="translate(290.694594 181.232219) scale(0.1 -0.1)">
     <use xlink:href="#DejaVuSans-18"/>
    </g>
   </g>
   <g id="text_19">
    <!-- 6 -->
    <g style="fill: #262626" transform="translate(327.930731 202.730513) scale(0.1 -0.1)">
     <use xlink:href="#DejaVuSans-19"/>
    </g>
   </g>
   <g id="text_20">
    <!-- 7 -->
    <g style="fill: #262626" transform="translate(377.28982 202.730513) scale(0.1 -0.1)">
     <use xlink:href="#DejaVuSans-1a"/>
    </g>
   </g>
   <g id="text_21">
    <!-- 8 -->
    <g style="fill: #262626" transform="translate(414.525958 181.232219) scale(0.1 -0.1)">
     <defs>
      <path id="DejaVuSans-1b" d="M 2034 2216 
Q 1584 2216 1326 1975 
Q 1069 1734 1069 1313 
Q 1069 891 1326 650 
Q 1584 409 2034 409 
Q 2484 409 2743 651 
Q 3003 894 3003 1313 
Q 3003 1734 2745 1975 
Q 2488 2216 2034 2216 
z
M 1403 2484 
Q 997 2584 770 2862 
Q 544 3141 544 3541 
Q 544 4100 942 4425 
Q 1341 4750 2034 4750 
Q 2731 4750 3128 4425 
Q 3525 4100 3525 3541 
Q 3525 3141 3298 2862 
Q 3072 2584 2669 2484 
Q 3125 2378 3379 2068 
Q 3634 1759 3634 1313 
Q 3634 634 3220 271 
Q 2806 -91 2034 -91 
Q 1263 -91 848 271 
Q 434 634 434 1313 
Q 434 1759 690 2068 
Q 947 2378 1403 2484 
z
M 1172 3481 
Q 1172 3119 1398 2916 
Q 1625 2713 2034 2713 
Q 2441 2713 2670 2916 
Q 2900 3119 2900 3481 
Q 2900 3844 2670 4047 
Q 2441 4250 2034 4250 
Q 1625 4250 1398 4047 
Q 1172 3844 1172 3481 
z
" transform="scale(0.015625)"/>
     </defs>
     <use xlink:href="#DejaVuSans-1b"/>
    </g>
   </g>
   <g id="text_22">
    <!-- 9 -->
    <g style="fill: #262626" transform="translate(436.024252 143.996081) scale(0.1 -0.1)">
     <defs>
      <path id="DejaVuSans-1c" d="M 703 97 
L 703 672 
Q 941 559 1184 500 
Q 1428 441 1663 441 
Q 2288 441 2617 861 
Q 2947 1281 2994 2138 
Q 2813 1869 2534 1725 
Q 2256 1581 1919 1581 
Q 1219 1581 811 2004 
Q 403 2428 403 3163 
Q 403 3881 828 4315 
Q 1253 4750 1959 4750 
Q 2769 4750 3195 4129 
Q 3622 3509 3622 2328 
Q 3622 1225 3098 567 
Q 2575 -91 1691 -91 
Q 1453 -91 1209 -44 
Q 966 3 703 97 
z
M 1959 2075 
Q 2384 2075 2632 2365 
Q 2881 2656 2881 3163 
Q 2881 3666 2632 3958 
Q 2384 4250 1959 4250 
Q 1534 4250 1286 3958 
Q 1038 3666 1038 3163 
Q 1038 2656 1286 2365 
Q 1534 2075 1959 2075 
z
" transform="scale(0.015625)"/>
     </defs>
     <use xlink:href="#DejaVuSans-1c"/>
    </g>
   </g>
   <g id="text_23">
    <!-- 10 -->
    <g style="fill: #262626" transform="translate(436.024252 100.999493) scale(0.1 -0.1)">
     <defs>
      <path id="DejaVuSans-13" d="M 2034 4250 
Q 1547 4250 1301 3770 
Q 1056 3291 1056 2328 
Q 1056 1369 1301 889 
Q 1547 409 2034 409 
Q 2525 409 2770 889 
Q 3016 1369 3016 2328 
Q 3016 3291 2770 3770 
Q 2525 4250 2034 4250 
z
M 2034 4750 
Q 2819 4750 3233 4129 
Q 3647 3509 3647 2328 
Q 3647 1150 3233 529 
Q 2819 -91 2034 -91 
Q 1250 -91 836 529 
Q 422 1150 422 2328 
Q 422 3509 836 4129 
Q 1250 4750 2034 4750 
z
" transform="scale(0.015625)"/>
     </defs>
     <use xlink:href="#DejaVuSans-14"/>
     <use xlink:href="#DejaVuSans-13" transform="translate(63.625 0)"/>
    </g>
   </g>
   <g id="text_24">
    <!-- 11 -->
    <g style="fill: #262626" transform="translate(414.525958 63.763355) scale(0.1 -0.1)">
     <use xlink:href="#DejaVuSans-14"/>
     <use xlink:href="#DejaVuSans-14" transform="translate(63.625 0)"/>
    </g>
   </g>
   <g id="text_25">
    <!-- 12 -->
    <g style="fill: #262626" transform="translate(377.28982 42.265061) scale(0.1 -0.1)">
     <use xlink:href="#DejaVuSans-14"/>
     <use xlink:href="#DejaVuSans-15" transform="translate(63.625 0)"/>
    </g>
   </g>
   <g id="text_26">
    <!-- 3 -->
    <g style="fill: #262626" transform="translate(334.730337 82.113473) scale(0.1 -0.1)">
     <use xlink:href="#DejaVuSans-16"/>
    </g>
   </g>
   <g id="text_27">
    <!-- 4 -->
    <g style="fill: #262626" transform="translate(319.040341 92.109103) scale(0.1 -0.1)">
     <use xlink:href="#DejaVuSans-17"/>
    </g>
   </g>
   <g id="text_28">
    <!-- 5 -->
    <g style="fill: #262626" transform="translate(307.105839 115.035067) scale(0.1 -0.1)">
     <use xlink:href="#DejaVuSans-18"/>
    </g>
   </g>
   <g id="text_29">
    <!-- 6 -->
    <g style="fill: #262626" transform="translate(314.225074 147.147859) scale(0.1 -0.1)">
     <use xlink:href="#DejaVuSans-19"/>
    </g>
   </g>
   <g id="text_30">
    <!-- 7 -->
    <g style="fill: #262626" transform="translate(349.429026 165.473877) scale(0.1 -0.1)">
     <use xlink:href="#DejaVuSans-1a"/>
    </g>
   </g>
   <g id="text_31">
    <!-- 8 -->
    <g style="fill: #262626" transform="translate(390.995477 147.147859) scale(0.1 -0.1)">
     <use xlink:href="#DejaVuSans-1b"/>
    </g>
   </g>
   <g id="text_32">
    <!-- 9 -->
    <g style="fill: #262626" transform="translate(398.114712 115.035067) scale(0.1 -0.1)">
     <use xlink:href="#DejaVuSans-1c"/>
    </g>
   </g>
   <g id="text_33">
    <!-- 10 -->
    <g style="fill: #262626" transform="translate(386.18021 92.109103) scale(0.1 -0.1)">
     <use xlink:href="#DejaVuSans-14"/>
     <use xlink:href="#DejaVuSans-13" transform="translate(63.625 0)"/>
    </g>
   </g>
   <g id="text_34">
    <!-- 11 -->
    <g style="fill: #262626" transform="translate(370.490214 82.113473) scale(0.1 -0.1)">
     <use xlink:href="#DejaVuSans-14"/>
     <use xlink:href="#DejaVuSans-14" transform="translate(63.625 0)"/>
    </g>
   </g>
   <g id="text_35">
    <!-- 2d6 vs. d12 -->
    <g style="fill: #262626" transform="translate(313.448776 23.614228) scale(0.144 -0.144)">
     <defs>
      <path id="DejaVuSans-3" transform="scale(0.015625)"/>
      <path id="DejaVuSans-59" d="M 191 3500 
L 800 3500 
L 1894 563 
L 2988 3500 
L 3597 3500 
L 2284 0 
L 1503 0 
L 191 3500 
z
" transform="scale(0.015625)"/>
      <path id="DejaVuSans-56" d="M 2834 3397 
L 2834 2853 
Q 2591 2978 2328 3040 
Q 2066 3103 1784 3103 
Q 1356 3103 1142 2972 
Q 928 2841 928 2578 
Q 928 2378 1081 2264 
Q 1234 2150 1697 2047 
L 1894 2003 
Q 2506 1872 2764 1633 
Q 3022 1394 3022 966 
Q 3022 478 2636 193 
Q 2250 -91 1575 -91 
Q 1294 -91 989 -36 
Q 684 19 347 128 
L 347 722 
Q 666 556 975 473 
Q 1284 391 1588 391 
Q 1994 391 2212 530 
Q 2431 669 2431 922 
Q 2431 1156 2273 1281 
Q 2116 1406 1581 1522 
L 1381 1569 
Q 847 1681 609 1914 
Q 372 2147 372 2553 
Q 372 3047 722 3315 
Q 1072 3584 1716 3584 
Q 2034 3584 2315 3537 
Q 2597 3491 2834 3397 
z
" transform="scale(0.015625)"/>
     </defs>
     <use xlink:href="#DejaVuSans-15"/>
     <use xlink:href="#DejaVuSans-47" transform="translate(63.625 0)"/>
     <use xlink:href="#DejaVuSans-19" transform="translate(127.109375 0)"/>
     <use xlink:href="#DejaVuSans-3" transform="translate(190.734375 0)"/>
     <use xlink:href="#DejaVuSans-59" transform="translate(222.515625 0)"/>
     <use xlink:href="#DejaVuSans-56" transform="translate(281.703125 0)"/>
     <use xlink:href="#DejaVuSans-11" transform="translate(333.796875 0)"/>
     <use xlink:href="#DejaVuSans-3" transform="translate(365.578125 0)"/>
     <use xlink:href="#DejaVuSans-47" transform="translate(397.359375 0)"/>
     <use xlink:href="#DejaVuSans-14" transform="translate(460.84375 0)"/>
     <use xlink:href="#DejaVuSans-15" transform="translate(524.46875 0)"/>
    </g>
   </g>
  </g>
 </g>
</svg>
