<?xml version="1.0" encoding="utf-8" standalone="no"?>
<!DOCTYPE svg PUBLIC "-//W3C//DTD SVG 1.1//EN"
  "http://www.w3.org/Graphics/SVG/1.1/DTD/svg11.dtd">
<svg xmlns:xlink="http://www.w3.org/1999/xlink" width="460.8pt" height="345.6pt" viewBox="0 0 460.8 345.6" xmlns="http://www.w3.org/2000/svg" version="1.1">
 <metadata>
  <rdf:RDF xmlns:dc="http://purl.org/dc/elements/1.1/" xmlns:cc="http://creativecommons.org/ns#" xmlns:rdf="http://www.w3.org/1999/02/22-rdf-syntax-ns#">
   <cc:Work>
    <dc:type rdf:resource="http://purl.org/dc/dcmitype/StillImage"/>
    <dc:format>image/svg+xml</dc:format>
    <dc:creator>
     <cc:Agent>
      <dc:title>Matplotlib v3.10.8, https://matplotlib.org/</dc:title>
     </cc:Agent>
    </dc:creator>
   </cc:Work>
  </rdf:RDF>
 </metadata>
 <defs>
  <style type="text/css">*{stroke-linejoin: round; stroke-linecap: butt}</style>
 </defs>
 <g id="figure_1">
  <g id="patch_1">
   <path d="M 0 345.6 
L 460.8 345.6 
L 460.8 0 
L 0 0 
L 0 345.6 
z
" style="fill: none"/>
  </g>
  <g id="axes_1">
   <g id="patch_2">
    <path d="M 41.16 321.22 
L 450 321.22 
L 450 27.6 
L 41.16 27.6 
L 41.16 321.22 
z
" style="fill: none"/>
   </g>
   <g id="patch_3">
    <path d="M 41.16 306.539 
L 73.607619 306.539 
L 73.607619 277.177 
L 41.16 277.177 
z
" clip-path="url(#p6f281b0766)" style="fill: #348abd"/>
   </g>
   <g id="patch_4">
    <path d="M 41.16 247.815 
L 70.362857 247.815 
L 70.362857 218.453 
L 41.16 218.453 
z
" clip-path="url(#p6f281b0766)" style="fill: #348abd"/>
   </g>
   <g id="patch_5">
    <path d="M 41.16 189.091 
L 66.469143 189.091 
L 66.469143 159.729 
L 41.16 159.729 
z
" clip-path="url(#p6f281b0766)" style="fill: #348abd"/>
   </g>
   <g id="patch_6">
    <path d="M 41.16 130.367 
L 62.575429 130.367 
L 62.575429 101.005 
L 41.16 101.005 
z
" clip-path="url(#p6f281b0766)" style="fill: #348abd"/>
   </g>
   <g id="patch_7">
    <path d="M 41.16 71.643 
L 58.681714 71.643 
L 58.681714 42.281 
L 41.16 42.281 
z
" clip-path="url(#p6f281b0766)" style="fill: #348abd"/>
   </g>
   <g id="patch_8">
    <path d="M 73.607619 306.539 
L 320.209524 306.539 
L 320.209524 277.177 
L 73.607619 277.177 
z
" clip-path="url(#p6f281b0766)" style="fill: #a60628"/>
   </g>
   <g id="patch_9">
    <path d="M 70.362857 247.815 
L 271.538095 247.815 
L 271.538095 218.453 
L 70.362857 218.453 
z
" clip-path="url(#p6f281b0766)" style="fill: #a60628"/>
   </g>
   <g id="patch_10">
    <path d="M 66.469143 189.091 
L 217.026095 189.091 
L 217.026095 159.729 
L 66.469143 159.729 
z
" clip-path="url(#p6f281b0766)" style="fill: #a60628"/>
   </g>
   <g id="patch_11">
    <path d="M 62.575429 130.367 
L 170.301524 130.367 
L 170.301524 101.005 
L 62.575429 101.005 
z
" clip-path="url(#p6f281b0766)" style="fill: #a60628"/>
   </g>
   <g id="patch_12">
    <path d="M 58.681714 71.643 
L 131.364381 71.643 
L 131.364381 42.281 
L 58.681714 42.281 
z
" clip-path="url(#p6f281b0766)" style="fill: #a60628"/>
   </g>
   <g id="patch_13">
    <path d="M 320.209524 306.539 
L 411.062857 306.539 
L 411.062857 277.177 
L 320.209524 277.177 
z
" clip-path="url(#p6f281b0766)" style="fill: #7a68a6"/>
   </g>
   <g id="patch_14">
    <path d="M 271.538095 247.815 
L 394.839048 247.815 
L 394.839048 218.453 
L 271.538095 218.453 
z
" clip-path="url(#p6f281b0766)" style="fill: #7a68a6"/>
   </g>
   <g id="patch_15">
    <path d="M 217.026095 189.091 
L 371.476762 189.091 
L 371.476762 159.729 
L 217.026095 159.729 
z
" clip-path="url(#p6f281b0766)" style="fill: #7a68a6"/>
   </g>
   <g id="patch_16">
    <path d="M 170.301524 130.367 
L 340.327048 130.367 
L 340.327048 101.005 
L 170.301524 101.005 
z
" clip-path="url(#p6f281b0766)" style="fill: #7a68a6"/>
   </g>
   <g id="patch_17">
    <path d="M 131.364381 71.643 
L 301.389905 71.643 
L 301.389905 42.281 
L 131.364381 42.281 
z
" clip-path="url(#p6f281b0766)" style="fill: #7a68a6"/>
   </g>
   <g id="patch_18">
    <path d="M 411.062857 306.539 
L 424.041905 306.539 
L 424.041905 277.177 
L 411.062857 277.177 
z
" clip-path="url(#p6f281b0766)" style="fill: #467821"/>
   </g>
   <g id="patch_19">
    <path d="M 394.839048 247.815 
L 420.797143 247.815 
L 420.797143 218.453 
L 394.839048 218.453 
z
" clip-path="url(#p6f281b0766)" style="fill: #467821"/>
   </g>
   <g id="patch_20">
    <path d="M 371.476762 189.091 
L 416.903429 189.091 
L 416.903429 159.729 
L 371.476762 159.729 
z
" clip-path="url(#p6f281b0766)" style="fill: #467821"/>
   </g>
   <g id="patch_21">
    <path d="M 340.327048 130.367 
L 413.009714 130.367 
L 413.009714 101.005 
L 340.327048 101.005 
z
" clip-path="url(#p6f281b0766)" style="fill: #467821"/>
   </g>
   <g id="patch_22">
    <path d="M 301.389905 71.643 
L 409.116 71.643 
L 409.116 42.281 
L 301.389905 42.281 
z
" clip-path="url(#p6f281b0766)" style="fill: #467821"/>
   </g>
   <g id="patch_23">
    <path d="M 424.041905 306.539 
L 430.531429 306.539 
L 430.531429 277.177 
L 424.041905 277.177 
z
" clip-path="url(#p6f281b0766)" style="fill: #d55e00"/>
   </g>
   <g id="patch_24">
    <path d="M 420.797143 247.815 
L 430.531429 247.815 
L 430.531429 218.453 
L 420.797143 218.453 
z
" clip-path="url(#p6f281b0766)" style="fill: #d55e00"/>
   </g>
   <g id="patch_25">
    <path d="M 416.903429 189.091 
L 430.531429 189.091 
L 430.531429 159.729 
L 416.903429 159.729 
z
" clip-path="url(#p6f281b0766)" style="fill: #d55e00"/>
   </g>
   <g id="patch_26">
    <path d="M 413.009714 130.367 
L 430.531429 130.367 
L 430.531429 101.005 
L 413.009714 101.005 
z
" clip-path="url(#p6f281b0766)" style="fill: #d55e00"/>
   </g>
   <g id="patch_27">
    <path d="M 409.116 71.643 
L 430.531429 71.643 
L 430.531429 42.281 
L 409.116 42.281 
z
" clip-path="url(#p6f281b0766)" style="fill: #d55e00"/>
   </g>
   <g id="matplotlib.axis_1">
    <g id="xtick_1">
     <g id="line2d_1">
      <path d="M 41.16 321.22 
L 41.16 27.6 
" clip-path="url(#p6f281b0766)" style="fill: none; stroke-dasharray: 1.85,0.8; stroke-dashoffset: 0; stroke: #b2b2b2; stroke-width: 0.5"/>
     </g>
     <g id="line2d_2">
      <defs>
       <path id="m2dd0287f95" d="M 0 0 
L 0 -3.5 
" style="stroke: #000000; stroke-width: 0.8"/>
      </defs>
      <g>
       <use xlink:href="#m2dd0287f95" x="41.16" y="321.22" style="stroke: #000000; stroke-width: 0.8"/>
      </g>
     </g>
     <g id="text_1">
      <!-- 0% -->
      <g transform="translate(33.227969 332.318437) scale(0.1 -0.1)">
       <defs>
        <path id="DejaVuSans-30" d="M 2034 4250 
Q 1547 4250 1301 3770 
Q 1056 3291 1056 2328 
Q 1056 1369 1301 889 
Q 1547 409 2034 409 
Q 2525 409 2770 889 
Q 3016 1369 3016 2328 
Q 3016 3291 2770 3770 
Q 2525 4250 2034 4250 
z
M 2034 4750 
Q 2819 4750 3233 4129 
Q 3647 3509 3647 2328 
Q 3647 1150 3233 529 
Q 2819 -91 2034 -91 
Q 1250 -91 836 529 
Q 422 1150 422 2328 
Q 422 3509 836 4129 
Q 1250 4750 2034 4750 
z
" transform="scale(0.015625)"/>
        <path id="DejaVuSans-25" d="M 4653 2053 
Q 4381 2053 4226 1822 
Q 4072 1591 4072 1178 
Q 4072 772 4226 539 
Q 4381 306 4653 306 
Q 4919 306 5073 539 
Q 5228 772 5228 1178 
Q 5228 1588 5073 1820 
Q 4919 2053 4653 2053 
z
M 4653 2450 
Q 5147 2450 5437 2106 
Q 5728 1763 5728 1178 
Q 5728 594 5436 251 
Q 5144 -91 4653 -91 
Q 4153 -91 3862 251 
Q 3572 594 3572 1178 
Q 3572 1766 3864 2108 
Q 4156 2450 4653 2450 
z
M 1428 4353 
Q 1159 4353 1004 4120 
Q 850 3888 850 3481 
Q 850 3069 1003 2837 
Q 1156 2606 1428 2606 
Q 1700 2606 1854 2837 
Q 2009 3069 2009 3481 
Q 2009 3884 1853 4118 
Q 1697 4353 1428 4353 
z
M 4250 4750 
L 4750 4750 
L 1831 -91 
L 1331 -91 
L 4250 4750 
z
M 1428 4750 
Q 1922 4750 2215 4408 
Q 2509 4066 2509 3481 
Q 2509 2891 2217 2550 
Q 1925 2209 1428 2209 
Q 931 2209 642 2551 
Q 353 2894 353 3481 
Q 353 4063 643 4406 
Q 934 4750 1428 4750 
z
" transform="scale(0.015625)"/>
       </defs>
       <use xlink:href="#DejaVuSans-30"/>
       <use xlink:href="#DejaVuSans-25" transform="translate(63.623047 0)"/>
      </g>
     </g>
    </g>
    <g id="xtick_2">
     <g id="line2d_3">
      <path d="M 119.034286 321.22 
L 119.034286 27.6 
" clip-path="url(#p6f281b0766)" style="fill: none; stroke-dasharray: 1.85,0.8; stroke-dashoffset: 0; stroke: #b2b2b2; stroke-width: 0.5"/>
     </g>
     <g id="line2d_4">
      <g>
       <use xlink:href="#m2dd0287f95" x="119.034286" y="321.22" style="stroke: #000000; stroke-width: 0.8"/>
      </g>
     </g>
     <g id="text_2">
      <!-- 20% -->
      <g transform="translate(107.921004 332.318437) scale(0.1 -0.1)">
       <defs>
        <path id="DejaVuSans-32" d="M 1228 531 
L 3431 531 
L 3431 0 
L 469 0 
L 469 531 
Q 828 903 1448 1529 
Q 2069 2156 2228 2338 
Q 2531 2678 2651 2914 
Q 2772 3150 2772 3378 
Q 2772 3750 2511 3984 
Q 2250 4219 1831 4219 
Q 1534 4219 1204 4116 
Q 875 4013 500 3803 
L 500 4441 
Q 881 4594 1212 4672 
Q 1544 4750 1819 4750 
Q 2544 4750 2975 4387 
Q 3406 4025 3406 3419 
Q 3406 3131 3298 2873 
Q 3191 2616 2906 2266 
Q 2828 2175 2409 1742 
Q 1991 1309 1228 531 
z
" transform="scale(0.015625)"/>
       </defs>
       <use xlink:href="#DejaVuSans-32"/>
       <use xlink:href="#DejaVuSans-30" transform="translate(63.623047 0)"/>
       <use xlink:href="#DejaVuSans-25" transform="translate(127.246094 0)"/>
      </g>
     </g>
    </g>
    <g id="xtick_3">
     <g id="line2d_5">
      <path d="M 196.908571 321.22 
L 196.908571 27.6 
" clip-path="url(#p6f281b0766)" style="fill: none; stroke-dasharray: 1.85,0.8; stroke-dashoffset: 0; stroke: #b2b2b2; stroke-width: 0.5"/>
     </g>
     <g id="line2d_6">
      <g>
       <use xlink:href="#m2dd0287f95" x="196.908571" y="321.22" style="stroke: #000000; stroke-width: 0.8"/>
      </g>
     </g>
     <g id="text_3">
      <!-- 40% -->
      <g transform="translate(185.79529 332.318437) scale(0.1 -0.1)">
       <defs>
        <path id="DejaVuSans-34" d="M 2419 4116 
L 825 1625 
L 2419 1625 
L 2419 4116 
z
M 2253 4666 
L 3047 4666 
L 3047 1625 
L 3713 1625 
L 3713 1100 
L 3047 1100 
L 3047 0 
L 2419 0 
L 2419 1100 
L 313 1100 
L 313 1709 
L 2253 4666 
z
" transform="scale(0.015625)"/>
       </defs>
       <use xlink:href="#DejaVuSans-34"/>
       <use xlink:href="#DejaVuSans-30" transform="translate(63.623047 0)"/>
       <use xlink:href="#DejaVuSans-25" transform="translate(127.246094 0)"/>
      </g>
     </g>
    </g>
    <g id="xtick_4">
     <g id="line2d_7">
      <path d="M 274.782857 321.22 
L 274.782857 27.6 
" clip-path="url(#p6f281b0766)" style="fill: none; stroke-dasharray: 1.85,0.8; stroke-dashoffset: 0; stroke: #b2b2b2; stroke-width: 0.5"/>
     </g>
     <g id="line2d_8">
      <g>
       <use xlink:href="#m2dd0287f95" x="274.782857" y="321.22" style="stroke: #000000; stroke-width: 0.8"/>
      </g>
     </g>
     <g id="text_4">
      <!-- 60% -->
      <g transform="translate(263.669576 332.318437) scale(0.1 -0.1)">
       <defs>
        <path id="DejaVuSans-36" d="M 2113 2584 
Q 1688 2584 1439 2293 
Q 1191 2003 1191 1497 
Q 1191 994 1439 701 
Q 1688 409 2113 409 
Q 2538 409 2786 701 
Q 3034 994 3034 1497 
Q 3034 2003 2786 2293 
Q 2538 2584 2113 2584 
z
M 3366 4563 
L 3366 3988 
Q 3128 4100 2886 4159 
Q 2644 4219 2406 4219 
Q 1781 4219 1451 3797 
Q 1122 3375 1075 2522 
Q 1259 2794 1537 2939 
Q 1816 3084 2150 3084 
Q 2853 3084 3261 2657 
Q 3669 2231 3669 1497 
Q 3669 778 3244 343 
Q 2819 -91 2113 -91 
Q 1303 -91 875 529 
Q 447 1150 447 2328 
Q 447 3434 972 4092 
Q 1497 4750 2381 4750 
Q 2619 4750 2861 4703 
Q 3103 4656 3366 4563 
z
" transform="scale(0.015625)"/>
       </defs>
       <use xlink:href="#DejaVuSans-36"/>
       <use xlink:href="#DejaVuSans-30" transform="translate(63.623047 0)"/>
       <use xlink:href="#DejaVuSans-25" transform="translate(127.246094 0)"/>
      </g>
     </g>
    </g>
    <g id="xtick_5">
     <g id="line2d_9">
      <path d="M 352.657143 321.22 
L 352.657143 27.6 
" clip-path="url(#p6f281b0766)" style="fill: none; stroke-dasharray: 1.85,0.8; stroke-dashoffset: 0; stroke: #b2b2b2; stroke-width: 0.5"/>
     </g>
     <g id="line2d_10">
      <g>
       <use xlink:href="#m2dd0287f95" x="352.657143" y="321.22" style="stroke: #000000; stroke-width: 0.8"/>
      </g>
     </g>
     <g id="text_5">
      <!-- 80% -->
      <g transform="translate(341.543862 332.318437) scale(0.1 -0.1)">
       <defs>
        <path id="DejaVuSans-38" d="M 2034 2216 
Q 1584 2216 1326 1975 
Q 1069 1734 1069 1313 
Q 1069 891 1326 650 
Q 1584 409 2034 409 
Q 2484 409 2743 651 
Q 3003 894 3003 1313 
Q 3003 1734 2745 1975 
Q 2488 2216 2034 2216 
z
M 1403 2484 
Q 997 2584 770 2862 
Q 544 3141 544 3541 
Q 544 4100 942 4425 
Q 1341 4750 2034 4750 
Q 2731 4750 3128 4425 
Q 3525 4100 3525 3541 
Q 3525 3141 3298 2862 
Q 3072 2584 2669 2484 
Q 3125 2378 3379 2068 
Q 3634 1759 3634 1313 
Q 3634 634 3220 271 
Q 2806 -91 2034 -91 
Q 1263 -91 848 271 
Q 434 634 434 1313 
Q 434 1759 690 2068 
Q 947 2378 1403 2484 
z
M 1172 3481 
Q 1172 3119 1398 2916 
Q 1625 2713 2034 2713 
Q 2441 2713 2670 2916 
Q 2900 3119 2900 3481 
Q 2900 3844 2670 4047 
Q 2441 4250 2034 4250 
Q 1625 4250 1398 4047 
Q 1172 3844 1172 3481 
z
" transform="scale(0.015625)"/>
       </defs>
       <use xlink:href="#DejaVuSans-38"/>
       <use xlink:href="#DejaVuSans-30" transform="translate(63.623047 0)"/>
       <use xlink:href="#DejaVuSans-25" transform="translate(127.246094 0)"/>
      </g>
     </g>
    </g>
    <g id="xtick_6">
     <g id="line2d_11">
      <path d="M 430.531429 321.22 
L 430.531429 27.6 
" clip-path="url(#p6f281b0766)" style="fill: none; stroke-dasharray: 1.85,0.8; stroke-dashoffset: 0; stroke: #b2b2b2; stroke-width: 0.5"/>
     </g>
     <g id="line2d_12">
      <g>
       <use xlink:href="#m2dd0287f95" x="430.531429" y="321.22" style="stroke: #000000; stroke-width: 0.8"/>
      </g>
     </g>
     <g id="text_6">
      <!-- 100% -->
      <g transform="translate(416.236897 332.318437) scale(0.1 -0.1)">
       <defs>
        <path id="DejaVuSans-31" d="M 794 531 
L 1825 531 
L 1825 4091 
L 703 3866 
L 703 4441 
L 1819 4666 
L 2450 4666 
L 2450 531 
L 3481 531 
L 3481 0 
L 794 0 
L 794 531 
z
" transform="scale(0.015625)"/>
       </defs>
       <use xlink:href="#DejaVuSans-31"/>
       <use xlink:href="#DejaVuSans-30" transform="translate(63.623047 0)"/>
       <use xlink:href="#DejaVuSans-30" transform="translate(127.246094 0)"/>
       <use xlink:href="#DejaVuSans-25" transform="translate(190.869141 0)"/>
      </g>
     </g>
    </g>
   </g>
   <g id="matplotlib.axis_2">
    <g id="ytick_1">
     <g id="line2d_13">
      <path d="M 41.16 291.858 
L 450 291.858 
" clip-path="url(#p6f281b0766)" style="fill: none; stroke-dasharray: 1.85,0.8; stroke-dashoffset: 0; stroke: #b2b2b2; stroke-width: 0.5"/>
     </g>
     <g id="line2d_14">
      <defs>
       <path id="m525068247a" d="M 0 0 
L 3.5 0 
" style="stroke: #000000; stroke-width: 0.8"/>
      </defs>
      <g>
       <use xlink:href="#m525068247a" x="41.16" y="291.858" style="stroke: #000000; stroke-width: 0.8"/>
      </g>
     </g>
     <g id="text_7">
      <!-- -1 -->
      <g transform="translate(27.689688 295.657219) scale(0.1 -0.1)">
       <defs>
        <path id="DejaVuSans-2d" d="M 313 2009 
L 1997 2009 
L 1997 1497 
L 313 1497 
L 313 2009 
z
" transform="scale(0.015625)"/>
       </defs>
       <use xlink:href="#DejaVuSans-2d"/>
       <use xlink:href="#DejaVuSans-31" transform="translate(36.083984 0)"/>
      </g>
     </g>
    </g>
    <g id="ytick_2">
     <g id="line2d_15">
      <path d="M 41.16 233.134 
L 450 233.134 
" clip-path="url(#p6f281b0766)" style="fill: none; stroke-dasharray: 1.85,0.8; stroke-dashoffset: 0; stroke: #b2b2b2; stroke-width: 0.5"/>
     </g>
     <g id="line2d_16">
      <g>
       <use xlink:href="#m525068247a" x="41.16" y="233.134" style="stroke: #000000; stroke-width: 0.8"/>
      </g>
     </g>
     <g id="text_8">
      <!-- 0 -->
      <g transform="translate(31.2975 236.933219) scale(0.1 -0.1)">
       <use xlink:href="#DejaVuSans-30"/>
      </g>
     </g>
    </g>
    <g id="ytick_3">
     <g id="line2d_17">
      <path d="M 41.16 174.41 
L 450 174.41 
" clip-path="url(#p6f281b0766)" style="fill: none; stroke-dasharray: 1.85,0.8; stroke-dashoffset: 0; stroke: #b2b2b2; stroke-width: 0.5"/>
     </g>
     <g id="line2d_18">
      <g>
       <use xlink:href="#m525068247a" x="41.16" y="174.41" style="stroke: #000000; stroke-width: 0.8"/>
      </g>
     </g>
     <g id="text_9">
      <!-- 1 -->
      <g transform="translate(31.2975 178.209219) scale(0.1 -0.1)">
       <use xlink:href="#DejaVuSans-31"/>
      </g>
     </g>
    </g>
    <g id="ytick_4">
     <g id="line2d_19">
      <path d="M 41.16 115.686 
L 450 115.686 
" clip-path="url(#p6f281b0766)" style="fill: none; stroke-dasharray: 1.85,0.8; stroke-dashoffset: 0; stroke: #b2b2b2; stroke-width: 0.5"/>
     </g>
     <g id="line2d_20">
      <g>
       <use xlink:href="#m525068247a" x="41.16" y="115.686" style="stroke: #000000; stroke-width: 0.8"/>
      </g>
     </g>
     <g id="text_10">
      <!-- 2 -->
      <g transform="translate(31.2975 119.485219) scale(0.1 -0.1)">
       <use xlink:href="#DejaVuSans-32"/>
      </g>
     </g>
    </g>
    <g id="ytick_5">
     <g id="line2d_21">
      <path d="M 41.16 56.962 
L 450 56.962 
" clip-path="url(#p6f281b0766)" style="fill: none; stroke-dasharray: 1.85,0.8; stroke-dashoffset: 0; stroke: #b2b2b2; stroke-width: 0.5"/>
     </g>
     <g id="line2d_22">
      <g>
       <use xlink:href="#m525068247a" x="41.16" y="56.962" style="stroke: #000000; stroke-width: 0.8"/>
      </g>
     </g>
     <g id="text_11">
      <!-- 3 -->
      <g transform="translate(31.2975 60.761219) scale(0.1 -0.1)">
       <defs>
        <path id="DejaVuSans-33" d="M 2597 2516 
Q 3050 2419 3304 2112 
Q 3559 1806 3559 1356 
Q 3559 666 3084 287 
Q 2609 -91 1734 -91 
Q 1441 -91 1130 -33 
Q 819 25 488 141 
L 488 750 
Q 750 597 1062 519 
Q 1375 441 1716 441 
Q 2309 441 2620 675 
Q 2931 909 2931 1356 
Q 2931 1769 2642 2001 
Q 2353 2234 1838 2234 
L 1294 2234 
L 1294 2753 
L 1863 2753 
Q 2328 2753 2575 2939 
Q 2822 3125 2822 3475 
Q 2822 3834 2567 4026 
Q 2313 4219 1838 4219 
Q 1578 4219 1281 4162 
Q 984 4106 628 3988 
L 628 4550 
Q 988 4650 1302 4700 
Q 1616 4750 1894 4750 
Q 2613 4750 3031 4423 
Q 3450 4097 3450 3541 
Q 3450 3153 3228 2886 
Q 3006 2619 2597 2516 
z
" transform="scale(0.015625)"/>
       </defs>
       <use xlink:href="#DejaVuSans-33"/>
      </g>
     </g>
    </g>
    <g id="text_12">
     <!-- Action Modifier -->
     <g transform="translate(21.194063 219.369687) rotate(-90) scale(0.12 -0.12)">
      <defs>
       <path id="DejaVuSans-41" d="M 2188 4044 
L 1331 1722 
L 3047 1722 
L 2188 4044 
z
M 1831 4666 
L 2547 4666 
L 4325 0 
L 3669 0 
L 3244 1197 
L 1141 1197 
L 716 0 
L 50 0 
L 1831 4666 
z
" transform="scale(0.015625)"/>
       <path id="DejaVuSans-63" d="M 3122 3366 
L 3122 2828 
Q 2878 2963 2633 3030 
Q 2388 3097 2138 3097 
Q 1578 3097 1268 2742 
Q 959 2388 959 1747 
Q 959 1106 1268 751 
Q 1578 397 2138 397 
Q 2388 397 2633 464 
Q 2878 531 3122 666 
L 3122 134 
Q 2881 22 2623 -34 
Q 2366 -91 2075 -91 
Q 1284 -91 818 406 
Q 353 903 353 1747 
Q 353 2603 823 3093 
Q 1294 3584 2113 3584 
Q 2378 3584 2631 3529 
Q 2884 3475 3122 3366 
z
" transform="scale(0.015625)"/>
       <path id="DejaVuSans-74" d="M 1172 4494 
L 1172 3500 
L 2356 3500 
L 2356 3053 
L 1172 3053 
L 1172 1153 
Q 1172 725 1289 603 
Q 1406 481 1766 481 
L 2356 481 
L 2356 0 
L 1766 0 
Q 1100 0 847 248 
Q 594 497 594 1153 
L 594 3053 
L 172 3053 
L 172 3500 
L 594 3500 
L 594 4494 
L 1172 4494 
z
" transform="scale(0.015625)"/>
       <path id="DejaVuSans-69" d="M 603 3500 
L 1178 3500 
L 1178 0 
L 603 0 
L 603 3500 
z
M 603 4863 
L 1178 4863 
L 1178 4134 
L 603 4134 
L 603 4863 
z
" transform="scale(0.015625)"/>
       <path id="DejaVuSans-6f" d="M 1959 3097 
Q 1497 3097 1228 2736 
Q 959 2375 959 1747 
Q 959 1119 1226 758 
Q 1494 397 1959 397 
Q 2419 397 2687 759 
Q 2956 1122 2956 1747 
Q 2956 2369 2687 2733 
Q 2419 3097 1959 3097 
z
M 1959 3584 
Q 2709 3584 3137 3096 
Q 3566 2609 3566 1747 
Q 3566 888 3137 398 
Q 2709 -91 1959 -91 
Q 1206 -91 779 398 
Q 353 888 353 1747 
Q 353 2609 779 3096 
Q 1206 3584 1959 3584 
z
" transform="scale(0.015625)"/>
       <path id="DejaVuSans-6e" d="M 3513 2113 
L 3513 0 
L 2938 0 
L 2938 2094 
Q 2938 2591 2744 2837 
Q 2550 3084 2163 3084 
Q 1697 3084 1428 2787 
Q 1159 2491 1159 1978 
L 1159 0 
L 581 0 
L 581 3500 
L 1159 3500 
L 1159 2956 
Q 1366 3272 1645 3428 
Q 1925 3584 2291 3584 
Q 2894 3584 3203 3211 
Q 3513 2838 3513 2113 
z
" transform="scale(0.015625)"/>
       <path id="DejaVuSans-20" transform="scale(0.015625)"/>
       <path id="DejaVuSans-4d" d="M 628 4666 
L 1569 4666 
L 2759 1491 
L 3956 4666 
L 4897 4666 
L 4897 0 
L 4281 0 
L 4281 4097 
L 3078 897 
L 2444 897 
L 1241 4097 
L 1241 0 
L 628 0 
L 628 4666 
z
" transform="scale(0.015625)"/>
       <path id="DejaVuSans-64" d="M 2906 2969 
L 2906 4863 
L 3481 4863 
L 3481 0 
L 2906 0 
L 2906 525 
Q 2725 213 2448 61 
Q 2172 -91 1784 -91 
Q 1150 -91 751 415 
Q 353 922 353 1747 
Q 353 2572 751 3078 
Q 1150 3584 1784 3584 
Q 2172 3584 2448 3432 
Q 2725 3281 2906 2969 
z
M 947 1747 
Q 947 1113 1208 752 
Q 1469 391 1925 391 
Q 2381 391 2643 752 
Q 2906 1113 2906 1747 
Q 2906 2381 2643 2742 
Q 2381 3103 1925 3103 
Q 1469 3103 1208 2742 
Q 947 2381 947 1747 
z
" transform="scale(0.015625)"/>
       <path id="DejaVuSans-66" d="M 2375 4863 
L 2375 4384 
L 1825 4384 
Q 1516 4384 1395 4259 
Q 1275 4134 1275 3809 
L 1275 3500 
L 2222 3500 
L 2222 3053 
L 1275 3053 
L 1275 0 
L 697 0 
L 697 3053 
L 147 3053 
L 147 3500 
L 697 3500 
L 697 3744 
Q 697 4328 969 4595 
Q 1241 4863 1831 4863 
L 2375 4863 
z
" transform="scale(0.015625)"/>
       <path id="DejaVuSans-65" d="M 3597 1894 
L 3597 1613 
L 953 1613 
Q 991 1019 1311 708 
Q 1631 397 2203 397 
Q 2534 397 2845 478 
Q 3156 559 3463 722 
L 3463 178 
Q 3153 47 2828 -22 
Q 2503 -91 2169 -91 
Q 1331 -91 842 396 
Q 353 884 353 1716 
Q 353 2575 817 3079 
Q 1281 3584 2069 3584 
Q 2775 3584 3186 3129 
Q 3597 2675 3597 1894 
z
M 3022 2063 
Q 3016 2534 2758 2815 
Q 2500 3097 2075 3097 
Q 1594 3097 1305 2825 
Q 1016 2553 972 2059 
L 3022 2063 
z
" transform="scale(0.015625)"/>
       <path id="DejaVuSans-72" d="M 2631 2963 
Q 2534 3019 2420 3045 
Q 2306 3072 2169 3072 
Q 1681 3072 1420 2755 
Q 1159 2438 1159 1844 
L 1159 0 
L 581 0 
L 581 3500 
L 1159 3500 
L 1159 2956 
Q 1341 3275 1631 3429 
Q 1922 3584 2338 3584 
Q 2397 3584 2469 3576 
Q 2541 3569 2628 3553 
L 2631 2963 
z
" transform="scale(0.015625)"/>
      </defs>
      <use xlink:href="#DejaVuSans-41"/>
      <use xlink:href="#DejaVuSans-63" transform="translate(66.658203 0)"/>
      <use xlink:href="#DejaVuSans-74" transform="translate(121.638672 0)"/>
      <use xlink:href="#DejaVuSans-69" transform="translate(160.847656 0)"/>
      <use xlink:href="#DejaVuSans-6f" transform="translate(188.630859 0)"/>
      <use xlink:href="#DejaVuSans-6e" transform="translate(249.8125 0)"/>
      <use xlink:href="#DejaVuSans-20" transform="translate(313.191406 0)"/>
      <use xlink:href="#DejaVuSans-4d" transform="translate(344.978516 0)"/>
      <use xlink:href="#DejaVuSans-6f" transform="translate(431.257812 0)"/>
      <use xlink:href="#DejaVuSans-64" transform="translate(492.439453 0)"/>
      <use xlink:href="#DejaVuSans-69" transform="translate(555.916016 0)"/>
      <use xlink:href="#DejaVuSans-66" transform="translate(583.699219 0)"/>
      <use xlink:href="#DejaVuSans-69" transform="translate(618.904297 0)"/>
      <use xlink:href="#DejaVuSans-65" transform="translate(646.6875 0)"/>
      <use xlink:href="#DejaVuSans-72" transform="translate(708.210938 0)"/>
     </g>
    </g>
   </g>
   <g id="patch_28">
    <path d="M 41.16 321.22 
L 41.16 27.6 
" style="fill: none; stroke: #bcbcbc; stroke-width: 0.8; stroke-linejoin: miter; stroke-linecap: square"/>
   </g>
   <g id="patch_29">
    <path d="M 450 321.22 
L 450 27.6 
" style="fill: none; stroke: #bcbcbc; stroke-width: 0.8; stroke-linejoin: miter; stroke-linecap: square"/>
   </g>
   <g id="patch_30">
    <path d="M 41.16 321.22 
L 450 321.22 
" style="fill: none; stroke: #bcbcbc; stroke-width: 0.8; stroke-linejoin: miter; stroke-linecap: square"/>
   </g>
   <g id="patch_31">
    <path d="M 41.16 27.6 
L 450 27.6 
" style="fill: none; stroke: #bcbcbc; stroke-width: 0.8; stroke-linejoin: miter; stroke-linecap: square"/>
   </g>
   <g id="text_13">
    <!-- Ironsworn distributions -->
    <g transform="translate(163.179375 21.6) scale(0.144 -0.144)">
     <defs>
      <path id="DejaVuSans-49" d="M 628 4666 
L 1259 4666 
L 1259 0 
L 628 0 
L 628 4666 
z
" transform="scale(0.015625)"/>
      <path id="DejaVuSans-73" d="M 2834 3397 
L 2834 2853 
Q 2591 2978 2328 3040 
Q 2066 3103 1784 3103 
Q 1356 3103 1142 2972 
Q 928 2841 928 2578 
Q 928 2378 1081 2264 
Q 1234 2150 1697 2047 
L 1894 2003 
Q 2506 1872 2764 1633 
Q 3022 1394 3022 966 
Q 3022 478 2636 193 
Q 2250 -91 1575 -91 
Q 1294 -91 989 -36 
Q 684 19 347 128 
L 347 722 
Q 666 556 975 473 
Q 1284 391 1588 391 
Q 1994 391 2212 530 
Q 2431 669 2431 922 
Q 2431 1156 2273 1281 
Q 2116 1406 1581 1522 
L 1381 1569 
Q 847 1681 609 1914 
Q 372 2147 372 2553 
Q 372 3047 722 3315 
Q 1072 3584 1716 3584 
Q 2034 3584 2315 3537 
Q 2597 3491 2834 3397 
z
" transform="scale(0.015625)"/>
      <path id="DejaVuSans-77" d="M 269 3500 
L 844 3500 
L 1563 769 
L 2278 3500 
L 2956 3500 
L 3675 769 
L 4391 3500 
L 4966 3500 
L 4050 0 
L 3372 0 
L 2619 2869 
L 1863 0 
L 1184 0 
L 269 3500 
z
" transform="scale(0.015625)"/>
      <path id="DejaVuSans-62" d="M 3116 1747 
Q 3116 2381 2855 2742 
Q 2594 3103 2138 3103 
Q 1681 3103 1420 2742 
Q 1159 2381 1159 1747 
Q 1159 1113 1420 752 
Q 1681 391 2138 391 
Q 2594 391 2855 752 
Q 3116 1113 3116 1747 
z
M 1159 2969 
Q 1341 3281 1617 3432 
Q 1894 3584 2278 3584 
Q 2916 3584 3314 3078 
Q 3713 2572 3713 1747 
Q 3713 922 3314 415 
Q 2916 -91 2278 -91 
Q 1894 -91 1617 61 
Q 1341 213 1159 525 
L 1159 0 
L 581 0 
L 581 4863 
L 1159 4863 
L 1159 2969 
z
" transform="scale(0.015625)"/>
      <path id="DejaVuSans-75" d="M 544 1381 
L 544 3500 
L 1119 3500 
L 1119 1403 
Q 1119 906 1312 657 
Q 1506 409 1894 409 
Q 2359 409 2629 706 
Q 2900 1003 2900 1516 
L 2900 3500 
L 3475 3500 
L 3475 0 
L 2900 0 
L 2900 538 
Q 2691 219 2414 64 
Q 2138 -91 1772 -91 
Q 1169 -91 856 284 
Q 544 659 544 1381 
z
M 1991 3584 
L 1991 3584 
z
" transform="scale(0.015625)"/>
     </defs>
     <use xlink:href="#DejaVuSans-49"/>
     <use xlink:href="#DejaVuSans-72" transform="translate(29.492188 0)"/>
     <use xlink:href="#DejaVuSans-6f" transform="translate(68.355469 0)"/>
     <use xlink:href="#DejaVuSans-6e" transform="translate(129.537109 0)"/>
     <use xlink:href="#DejaVuSans-73" transform="translate(192.916016 0)"/>
     <use xlink:href="#DejaVuSans-77" transform="translate(245.015625 0)"/>
     <use xlink:href="#DejaVuSans-6f" transform="translate(326.802734 0)"/>
     <use xlink:href="#DejaVuSans-72" transform="translate(387.984375 0)"/>
     <use xlink:href="#DejaVuSans-6e" transform="translate(427.347656 0)"/>
     <use xlink:href="#DejaVuSans-20" transform="translate(490.726562 0)"/>
     <use xlink:href="#DejaVuSans-64" transform="translate(522.513672 0)"/>
     <use xlink:href="#DejaVuSans-69" transform="translate(585.990234 0)"/>
     <use xlink:href="#DejaVuSans-73" transform="translate(613.773438 0)"/>
     <use xlink:href="#DejaVuSans-74" transform="translate(665.873047 0)"/>
     <use xlink:href="#DejaVuSans-72" transform="translate(705.082031 0)"/>
     <use xlink:href="#DejaVuSans-69" transform="translate(746.195312 0)"/>
     <use xlink:href="#DejaVuSans-62" transform="translate(773.978516 0)"/>
     <use xlink:href="#DejaVuSans-75" transform="translate(837.455078 0)"/>
     <use xlink:href="#DejaVuSans-74" transform="translate(900.833984 0)"/>
     <use xlink:href="#DejaVuSans-69" transform="translate(940.042969 0)"/>
     <use xlink:href="#DejaVuSans-6f" transform="translate(967.826172 0)"/>
     <use xlink:href="#DejaVuSans-6e" transform="translate(1029.007812 0)"/>
     <use xlink:href="#DejaVuSans-73" transform="translate(1092.386719 0)"/>
    </g>
   </g>
   <g id="legend_1">
    <g id="patch_32">
     <path d="M 167.972969 213.161562 
L 323.187031 213.161562 
Q 325.187031 213.161562 325.187031 211.161562 
L 325.187031 137.658437 
Q 325.187031 135.658437 323.187031 135.658437 
L 167.972969 135.658437 
Q 165.972969 135.658437 165.972969 137.658437 
L 165.972969 211.161562 
Q 165.972969 213.161562 167.972969 213.161562 
z
" style="fill: #eeeeee; opacity: 0.8; stroke: #cccccc; stroke-width: 0.5; stroke-linejoin: miter"/>
    </g>
    <g id="patch_33">
     <path d="M 169.972969 147.256875 
L 189.972969 147.256875 
L 189.972969 140.256875 
L 169.972969 140.256875 
z
" style="fill: #348abd"/>
    </g>
    <g id="text_14">
     <!-- SPECTACULAR_FAILURE -->
     <g transform="translate(197.972969 147.256875) scale(0.1 -0.1)">
      <defs>
       <path id="DejaVuSans-53" d="M 3425 4513 
L 3425 3897 
Q 3066 4069 2747 4153 
Q 2428 4238 2131 4238 
Q 1616 4238 1336 4038 
Q 1056 3838 1056 3469 
Q 1056 3159 1242 3001 
Q 1428 2844 1947 2747 
L 2328 2669 
Q 3034 2534 3370 2195 
Q 3706 1856 3706 1288 
Q 3706 609 3251 259 
Q 2797 -91 1919 -91 
Q 1588 -91 1214 -16 
Q 841 59 441 206 
L 441 856 
Q 825 641 1194 531 
Q 1563 422 1919 422 
Q 2459 422 2753 634 
Q 3047 847 3047 1241 
Q 3047 1584 2836 1778 
Q 2625 1972 2144 2069 
L 1759 2144 
Q 1053 2284 737 2584 
Q 422 2884 422 3419 
Q 422 4038 858 4394 
Q 1294 4750 2059 4750 
Q 2388 4750 2728 4690 
Q 3069 4631 3425 4513 
z
" transform="scale(0.015625)"/>
       <path id="DejaVuSans-50" d="M 1259 4147 
L 1259 2394 
L 2053 2394 
Q 2494 2394 2734 2622 
Q 2975 2850 2975 3272 
Q 2975 3691 2734 3919 
Q 2494 4147 2053 4147 
L 1259 4147 
z
M 628 4666 
L 2053 4666 
Q 2838 4666 3239 4311 
Q 3641 3956 3641 3272 
Q 3641 2581 3239 2228 
Q 2838 1875 2053 1875 
L 1259 1875 
L 1259 0 
L 628 0 
L 628 4666 
z
" transform="scale(0.015625)"/>
       <path id="DejaVuSans-45" d="M 628 4666 
L 3578 4666 
L 3578 4134 
L 1259 4134 
L 1259 2753 
L 3481 2753 
L 3481 2222 
L 1259 2222 
L 1259 531 
L 3634 531 
L 3634 0 
L 628 0 
L 628 4666 
z
" transform="scale(0.015625)"/>
       <path id="DejaVuSans-43" d="M 4122 4306 
L 4122 3641 
Q 3803 3938 3442 4084 
Q 3081 4231 2675 4231 
Q 1875 4231 1450 3742 
Q 1025 3253 1025 2328 
Q 1025 1406 1450 917 
Q 1875 428 2675 428 
Q 3081 428 3442 575 
Q 3803 722 4122 1019 
L 4122 359 
Q 3791 134 3420 21 
Q 3050 -91 2638 -91 
Q 1578 -91 968 557 
Q 359 1206 359 2328 
Q 359 3453 968 4101 
Q 1578 4750 2638 4750 
Q 3056 4750 3426 4639 
Q 3797 4528 4122 4306 
z
" transform="scale(0.015625)"/>
       <path id="DejaVuSans-54" d="M -19 4666 
L 3928 4666 
L 3928 4134 
L 2272 4134 
L 2272 0 
L 1638 0 
L 1638 4134 
L -19 4134 
L -19 4666 
z
" transform="scale(0.015625)"/>
       <path id="DejaVuSans-55" d="M 556 4666 
L 1191 4666 
L 1191 1831 
Q 1191 1081 1462 751 
Q 1734 422 2344 422 
Q 2950 422 3222 751 
Q 3494 1081 3494 1831 
L 3494 4666 
L 4128 4666 
L 4128 1753 
Q 4128 841 3676 375 
Q 3225 -91 2344 -91 
Q 1459 -91 1007 375 
Q 556 841 556 1753 
L 556 4666 
z
" transform="scale(0.015625)"/>
       <path id="DejaVuSans-4c" d="M 628 4666 
L 1259 4666 
L 1259 531 
L 3531 531 
L 3531 0 
L 628 0 
L 628 4666 
z
" transform="scale(0.015625)"/>
       <path id="DejaVuSans-52" d="M 2841 2188 
Q 3044 2119 3236 1894 
Q 3428 1669 3622 1275 
L 4263 0 
L 3584 0 
L 2988 1197 
Q 2756 1666 2539 1819 
Q 2322 1972 1947 1972 
L 1259 1972 
L 1259 0 
L 628 0 
L 628 4666 
L 2053 4666 
Q 2853 4666 3247 4331 
Q 3641 3997 3641 3322 
Q 3641 2881 3436 2590 
Q 3231 2300 2841 2188 
z
M 1259 4147 
L 1259 2491 
L 2053 2491 
Q 2509 2491 2742 2702 
Q 2975 2913 2975 3322 
Q 2975 3731 2742 3939 
Q 2509 4147 2053 4147 
L 1259 4147 
z
" transform="scale(0.015625)"/>
       <path id="DejaVuSans-5f" d="M 3263 -1063 
L 3263 -1509 
L -63 -1509 
L -63 -1063 
L 3263 -1063 
z
" transform="scale(0.015625)"/>
       <path id="DejaVuSans-46" d="M 628 4666 
L 3309 4666 
L 3309 4134 
L 1259 4134 
L 1259 2759 
L 3109 2759 
L 3109 2228 
L 1259 2228 
L 1259 0 
L 628 0 
L 628 4666 
z
" transform="scale(0.015625)"/>
      </defs>
      <use xlink:href="#DejaVuSans-53"/>
      <use xlink:href="#DejaVuSans-50" transform="translate(63.476562 0)"/>
      <use xlink:href="#DejaVuSans-45" transform="translate(123.779297 0)"/>
      <use xlink:href="#DejaVuSans-43" transform="translate(186.962891 0)"/>
      <use xlink:href="#DejaVuSans-54" transform="translate(256.787109 0)"/>
      <use xlink:href="#DejaVuSans-41" transform="translate(310.121094 0)"/>
      <use xlink:href="#DejaVuSans-43" transform="translate(376.779297 0)"/>
      <use xlink:href="#DejaVuSans-55" transform="translate(446.603516 0)"/>
      <use xlink:href="#DejaVuSans-4c" transform="translate(519.796875 0)"/>
      <use xlink:href="#DejaVuSans-41" transform="translate(577.759766 0)"/>
      <use xlink:href="#DejaVuSans-52" transform="translate(646.167969 0)"/>
      <use xlink:href="#DejaVuSans-5f" transform="translate(715.650391 0)"/>
      <use xlink:href="#DejaVuSans-46" transform="translate(765.650391 0)"/>
      <use xlink:href="#DejaVuSans-41" transform="translate(814.044922 0)"/>
      <use xlink:href="#DejaVuSans-49" transform="translate(882.453125 0)"/>
      <use xlink:href="#DejaVuSans-4c" transform="translate(911.945312 0)"/>
      <use xlink:href="#DejaVuSans-55" transform="translate(962.658203 0)"/>
      <use xlink:href="#DejaVuSans-52" transform="translate(1035.851562 0)"/>
      <use xlink:href="#DejaVuSans-45" transform="translate(1105.333984 0)"/>
     </g>
    </g>
    <g id="patch_34">
     <path d="M 169.972969 162.213125 
L 189.972969 162.213125 
L 189.972969 155.213125 
L 169.972969 155.213125 
z
" style="fill: #a60628"/>
    </g>
    <g id="text_15">
     <!-- FAILURE -->
     <g transform="translate(197.972969 162.213125) scale(0.1 -0.1)">
      <use xlink:href="#DejaVuSans-46"/>
      <use xlink:href="#DejaVuSans-41" transform="translate(48.394531 0)"/>
      <use xlink:href="#DejaVuSans-49" transform="translate(116.802734 0)"/>
      <use xlink:href="#DejaVuSans-4c" transform="translate(146.294922 0)"/>
      <use xlink:href="#DejaVuSans-55" transform="translate(197.007812 0)"/>
      <use xlink:href="#DejaVuSans-52" transform="translate(270.201172 0)"/>
      <use xlink:href="#DejaVuSans-45" transform="translate(339.683594 0)"/>
     </g>
    </g>
    <g id="patch_35">
     <path d="M 169.972969 176.89125 
L 189.972969 176.89125 
L 189.972969 169.89125 
L 169.972969 169.89125 
z
" style="fill: #7a68a6"/>
    </g>
    <g id="text_16">
     <!-- WEAK_SUCCESS -->
     <g transform="translate(197.972969 176.89125) scale(0.1 -0.1)">
      <defs>
       <path id="DejaVuSans-57" d="M 213 4666 
L 850 4666 
L 1831 722 
L 2809 4666 
L 3519 4666 
L 4500 722 
L 5478 4666 
L 6119 4666 
L 4947 0 
L 4153 0 
L 3169 4050 
L 2175 0 
L 1381 0 
L 213 4666 
z
" transform="scale(0.015625)"/>
       <path id="DejaVuSans-4b" d="M 628 4666 
L 1259 4666 
L 1259 2694 
L 3353 4666 
L 4166 4666 
L 1850 2491 
L 4331 0 
L 3500 0 
L 1259 2247 
L 1259 0 
L 628 0 
L 628 4666 
z
" transform="scale(0.015625)"/>
      </defs>
      <use xlink:href="#DejaVuSans-57"/>
      <use xlink:href="#DejaVuSans-45" transform="translate(98.876953 0)"/>
      <use xlink:href="#DejaVuSans-41" transform="translate(162.060547 0)"/>
      <use xlink:href="#DejaVuSans-4b" transform="translate(230.46875 0)"/>
      <use xlink:href="#DejaVuSans-5f" transform="translate(296.044922 0)"/>
      <use xlink:href="#DejaVuSans-53" transform="translate(346.044922 0)"/>
      <use xlink:href="#DejaVuSans-55" transform="translate(409.521484 0)"/>
      <use xlink:href="#DejaVuSans-43" transform="translate(482.714844 0)"/>
      <use xlink:href="#DejaVuSans-43" transform="translate(552.539062 0)"/>
      <use xlink:href="#DejaVuSans-45" transform="translate(622.363281 0)"/>
      <use xlink:href="#DejaVuSans-53" transform="translate(685.546875 0)"/>
      <use xlink:href="#DejaVuSans-53" transform="translate(749.023438 0)"/>
     </g>
    </g>
    <g id="patch_36">
     <path d="M 169.972969 191.8475 
L 189.972969 191.8475 
L 189.972969 184.8475 
L 169.972969 184.8475 
z
" style="fill: #467821"/>
    </g>
    <g id="text_17">
     <!-- STRONG_SUCCESS -->
     <g transform="translate(197.972969 191.8475) scale(0.1 -0.1)">
      <defs>
       <path id="DejaVuSans-4f" d="M 2522 4238 
Q 1834 4238 1429 3725 
Q 1025 3213 1025 2328 
Q 1025 1447 1429 934 
Q 1834 422 2522 422 
Q 3209 422 3611 934 
Q 4013 1447 4013 2328 
Q 4013 3213 3611 3725 
Q 3209 4238 2522 4238 
z
M 2522 4750 
Q 3503 4750 4090 4092 
Q 4678 3434 4678 2328 
Q 4678 1225 4090 567 
Q 3503 -91 2522 -91 
Q 1538 -91 948 565 
Q 359 1222 359 2328 
Q 359 3434 948 4092 
Q 1538 4750 2522 4750 
z
" transform="scale(0.015625)"/>
       <path id="DejaVuSans-4e" d="M 628 4666 
L 1478 4666 
L 3547 763 
L 3547 4666 
L 4159 4666 
L 4159 0 
L 3309 0 
L 1241 3903 
L 1241 0 
L 628 0 
L 628 4666 
z
" transform="scale(0.015625)"/>
       <path id="DejaVuSans-47" d="M 3809 666 
L 3809 1919 
L 2778 1919 
L 2778 2438 
L 4434 2438 
L 4434 434 
Q 4069 175 3628 42 
Q 3188 -91 2688 -91 
Q 1594 -91 976 548 
Q 359 1188 359 2328 
Q 359 3472 976 4111 
Q 1594 4750 2688 4750 
Q 3144 4750 3555 4637 
Q 3966 4525 4313 4306 
L 4313 3634 
Q 3963 3931 3569 4081 
Q 3175 4231 2741 4231 
Q 1884 4231 1454 3753 
Q 1025 3275 1025 2328 
Q 1025 1384 1454 906 
Q 1884 428 2741 428 
Q 3075 428 3337 486 
Q 3600 544 3809 666 
z
" transform="scale(0.015625)"/>
      </defs>
      <use xlink:href="#DejaVuSans-53"/>
      <use xlink:href="#DejaVuSans-54" transform="translate(63.476562 0)"/>
      <use xlink:href="#DejaVuSans-52" transform="translate(124.560547 0)"/>
      <use xlink:href="#DejaVuSans-4f" transform="translate(194.042969 0)"/>
      <use xlink:href="#DejaVuSans-4e" transform="translate(272.753906 0)"/>
      <use xlink:href="#DejaVuSans-47" transform="translate(347.558594 0)"/>
      <use xlink:href="#DejaVuSans-5f" transform="translate(425.048828 0)"/>
      <use xlink:href="#DejaVuSans-53" transform="translate(475.048828 0)"/>
      <use xlink:href="#DejaVuSans-55" transform="translate(538.525391 0)"/>
      <use xlink:href="#DejaVuSans-43" transform="translate(611.71875 0)"/>
      <use xlink:href="#DejaVuSans-43" transform="translate(681.542969 0)"/>
      <use xlink:href="#DejaVuSans-45" transform="translate(751.367188 0)"/>
      <use xlink:href="#DejaVuSans-53" transform="translate(814.550781 0)"/>
      <use xlink:href="#DejaVuSans-53" transform="translate(878.027344 0)"/>
     </g>
    </g>
    <g id="patch_37">
     <path d="M 169.972969 206.80375 
L 189.972969 206.80375 
L 189.972969 199.80375 
L 169.972969 199.80375 
z
" style="fill: #d55e00"/>
    </g>
    <g id="text_18">
     <!-- SPECTACULAR_SUCCESS -->
     <g transform="translate(197.972969 206.80375) scale(0.1 -0.1)">
      <use xlink:href="#DejaVuSans-53"/>
      <use xlink:href="#DejaVuSans-50" transform="translate(63.476562 0)"/>
      <use xlink:href="#DejaVuSans-45" transform="translate(123.779297 0)"/>
      <use xlink:href="#DejaVuSans-43" transform="translate(186.962891 0)"/>
      <use xlink:href="#DejaVuSans-54" transform="translate(256.787109 0)"/>
      <use xlink:href="#DejaVuSans-41" transform="translate(310.121094 0)"/>
      <use xlink:href="#DejaVuSans-43" transform="translate(376.779297 0)"/>
      <use xlink:href="#DejaVuSans-55" transform="translate(446.603516 0)"/>
      <use xlink:href="#DejaVuSans-4c" transform="translate(519.796875 0)"/>
      <use xlink:href="#DejaVuSans-41" transform="translate(577.759766 0)"/>
      <use xlink:href="#DejaVuSans-52" transform="translate(646.167969 0)"/>
      <use xlink:href="#DejaVuSans-5f" transform="translate(715.650391 0)"/>
      <use xlink:href="#DejaVuSans-53" transform="translate(765.650391 0)"/>
      <use xlink:href="#DejaVuSans-55" transform="translate(829.126953 0)"/>
      <use xlink:href="#DejaVuSans-43" transform="translate(902.320312 0)"/>
      <use xlink:href="#DejaVuSans-43" transform="translate(972.144531 0)"/>
      <use xlink:href="#DejaVuSans-45" transform="translate(1041.96875 0)"/>
      <use xlink:href="#DejaVuSans-53" transform="translate(1105.152344 0)"/>
      <use xlink:href="#DejaVuSans-53" transform="translate(1168.628906 0)"/>
     </g>
    </g>
   </g>
  </g>
 </g>
 <defs>
  <clipPath id="p6f281b0766">
   <rect x="41.16" y="27.6" width="408.84" height="293.62"/>
  </clipPath>
 </defs>
</svg>
