<?xml version="1.0" encoding="utf-8" standalone="no"?>
<!DOCTYPE svg PUBLIC "-//W3C//DTD SVG 1.1//EN"
  "http://www.w3.org/Graphics/SVG/1.1/DTD/svg11.dtd">
<svg xmlns:xlink="http://www.w3.org/1999/xlink" width="460.8pt" height="230.4pt" viewBox="0 0 460.8 230.4" xmlns="http://www.w3.org/2000/svg" version="1.1">
 <metadata>
  <rdf:RDF xmlns:dc="http://purl.org/dc/elements/1.1/" xmlns:cc="http://creativecommons.org/ns#" xmlns:rdf="http://www.w3.org/1999/02/22-rdf-syntax-ns#">
   <cc:Work>
    <dc:type rdf:resource="http://purl.org/dc/dcmitype/StillImage"/>
    <dc:format>image/svg+xml</dc:format>
    <dc:creator>
     <cc:Agent>
      <dc:title>Matplotlib v3.10.8, https://matplotlib.org/</dc:title>
     </cc:Agent>
    </dc:creator>
   </cc:Work>
  </rdf:RDF>
 </metadata>
 <defs>
  <style type="text/css">*{stroke-linejoin: round; stroke-linecap: butt}</style>
 </defs>
 <g id="figure_1">
  <g id="patch_1">
   <path d="M 0 230.4 
L 460.8 230.4 
L 460.8 0 
L 0 0 
L 0 230.4 
z
" style="fill: none"/>
  </g>
  <g id="axes_1">
   <g id="patch_2">
    <path d="M 132.775321 47.511088 
C 120.081678 47.511088 107.608974 50.853139 96.615956 57.199961 
C 85.622939 63.546783 76.492286 72.677436 70.145464 83.670453 
L 120.24935 112.597945 
C 121.518714 110.399342 123.344845 108.573211 125.543448 107.303847 
C 127.742052 106.034482 130.236593 105.366072 132.775321 105.366072 
z
" style="fill: #416aaf; fill-opacity: 0.75; stroke: #000000; stroke-width: 0.5; stroke-linejoin: miter"/>
   </g>
   <g id="patch_3">
    <path d="M 70.145465 83.670449 
C 63.798642 94.66347 60.456592 107.136178 60.456592 119.829825 
C 60.456592 132.523471 63.798642 144.996175 70.14547 155.989196 
L 120.249351 127.061694 
C 118.979985 124.86309 118.311575 122.368549 118.311575 119.829819 
C 118.311575 117.29109 118.979985 114.796549 120.24935 112.597944 
z
" style="fill: #90c3dd; fill-opacity: 0.75; stroke: #000000; stroke-width: 0.5; stroke-linejoin: miter"/>
   </g>
   <g id="patch_4">
    <path d="M 70.14547 155.989196 
C 76.492297 166.982217 85.622944 176.112855 96.615963 182.459679 
C 107.608984 188.806502 120.08171 192.148557 132.775357 192.148548 
L 132.775328 134.293564 
C 130.236599 134.293566 127.742054 133.625155 125.54345 132.35579 
C 123.344846 131.086426 121.518717 129.260298 120.249351 127.061694 
z
" style="fill: #e5f5ef; fill-opacity: 0.75; stroke: #000000; stroke-width: 0.5; stroke-linejoin: miter"/>
   </g>
   <g id="patch_5">
    <path d="M 132.775357 192.148548 
C 145.468998 192.148544 157.941695 188.806485 168.934708 182.459661 
C 179.92772 176.112838 189.058371 166.982182 195.40519 155.989166 
L 145.301295 127.061688 
C 144.031931 129.260291 142.205801 131.086422 140.007199 132.355787 
C 137.808596 133.625151 135.314057 134.293563 132.775328 134.293564 
z
" style="fill: #fee597; fill-opacity: 0.75; stroke: #000000; stroke-width: 0.5; stroke-linejoin: miter"/>
   </g>
   <g id="patch_6">
    <path d="M 195.40519 155.989166 
C 201.752009 144.996149 205.094051 132.523446 205.094051 119.829806 
C 205.094047 107.136164 201.752001 94.663466 195.405177 83.670449 
L 145.301293 112.597944 
C 146.570657 114.796548 147.239066 117.291087 147.239067 119.829816 
C 147.239067 122.368544 146.570659 124.863084 145.301295 127.061688 
z
" style="fill: #f88c51; fill-opacity: 0.75; stroke: #000000; stroke-width: 0.5; stroke-linejoin: miter"/>
   </g>
   <g id="patch_7">
    <path d="M 195.405177 83.670449 
C 189.058354 72.677432 179.927703 63.546781 168.934686 57.199962 
C 157.94167 50.853143 145.468972 47.511088 132.775331 47.511088 
L 132.775323 105.366072 
C 135.314052 105.366072 137.808591 106.034483 140.007194 107.303847 
C 142.205798 108.573211 144.031928 110.399341 145.301293 112.597944 
z
" style="fill: #ce2827; fill-opacity: 0.75; stroke: #000000; stroke-width: 0.5; stroke-linejoin: miter"/>
   </g>
   <g id="patch_8">
    <path d="M 132.775321 58.358898 
C 121.985724 58.358898 111.383926 61.199641 102.039861 66.59444 
C 92.695796 71.989238 84.934741 79.750293 79.539943 89.094358 
L 110.854871 107.17404 
C 113.076259 103.326484 116.271987 100.130756 120.119544 97.909368 
C 123.9671 95.687981 128.332546 94.518263 132.775321 94.518263 
z
" style="fill: #15904c; fill-opacity: 0.75; stroke: #000000; stroke-width: 0.5; stroke-linejoin: miter"/>
   </g>
   <g id="patch_9">
    <path d="M 79.539944 89.094354 
C 74.145144 98.438422 71.304401 109.040224 71.304401 119.829824 
C 71.304401 130.619423 74.145144 141.221222 79.539947 150.565289 
L 110.854873 132.4856 
C 108.633484 128.638043 107.463766 124.272597 107.463766 119.82982 
C 107.463766 115.387044 108.633484 111.021596 110.854872 107.174039 
z
" style="fill: #87cb67; fill-opacity: 0.75; stroke: #000000; stroke-width: 0.5; stroke-linejoin: miter"/>
   </g>
   <g id="patch_10">
    <path d="M 79.539947 150.565289 
C 84.934751 159.909357 92.695801 167.6704 102.039867 173.0652 
C 111.383935 178.459999 121.985752 181.300746 132.775351 181.300739 
L 132.775334 145.141374 
C 128.332557 145.141377 123.967103 143.971657 120.119546 141.750269 
C 116.271989 139.528881 113.076263 136.333158 110.854873 132.4856 
z
" style="fill: #dff293; fill-opacity: 0.75; stroke: #000000; stroke-width: 0.5; stroke-linejoin: miter"/>
   </g>
   <g id="patch_11">
    <path d="M 132.775351 181.300739 
C 143.564947 181.300735 154.166739 178.459985 163.5108 173.065185 
C 172.85486 167.670385 180.615914 159.909328 186.01071 150.565264 
L 154.695776 132.48559 
C 152.474389 136.333146 149.278661 139.528875 145.431107 141.750263 
C 141.583552 143.971651 137.218108 145.141372 132.775334 145.141374 
z
" style="fill: #fee593; fill-opacity: 0.75; stroke: #000000; stroke-width: 0.5; stroke-linejoin: miter"/>
   </g>
   <g id="patch_12">
    <path d="M 186.01071 150.565264 
C 191.405506 141.2212 194.246242 130.619402 194.246242 119.829807 
C 194.246238 109.040212 191.405499 98.438418 186.010699 89.094354 
L 154.695771 107.174039 
C 156.917159 111.021595 158.086875 115.387039 158.086877 119.829814 
C 158.086877 124.272588 156.917162 128.638034 154.695776 132.48559 
z
" style="fill: #f88c51; fill-opacity: 0.75; stroke: #000000; stroke-width: 0.5; stroke-linejoin: miter"/>
   </g>
   <g id="patch_13">
    <path d="M 186.010699 89.094354 
C 180.615899 79.75029 172.854846 71.989237 163.510782 66.594441 
C 154.166717 61.199644 143.564925 58.358898 132.77533 58.358898 
L 132.775325 94.518263 
C 137.218099 94.518263 141.583543 95.687982 145.431099 97.909369 
C 149.278655 100.130755 152.474383 103.326483 154.695771 107.174039 
z
" style="fill: #ce2827; fill-opacity: 0.75; stroke: #000000; stroke-width: 0.5; stroke-linejoin: miter"/>
   </g>
   <g id="matplotlib.axis_1"/>
   <g id="matplotlib.axis_2"/>
   <g id="text_1">
    <!-- 16.67% -->
    <g transform="translate(53.06236 50.56486) scale(0.1 -0.1)">
     <defs>
      <path id="DejaVuSans-31" d="M 794 531 
L 1825 531 
L 1825 4091 
L 703 3866 
L 703 4441 
L 1819 4666 
L 2450 4666 
L 2450 531 
L 3481 531 
L 3481 0 
L 794 0 
L 794 531 
z
" transform="scale(0.015625)"/>
      <path id="DejaVuSans-36" d="M 2113 2584 
Q 1688 2584 1439 2293 
Q 1191 2003 1191 1497 
Q 1191 994 1439 701 
Q 1688 409 2113 409 
Q 2538 409 2786 701 
Q 3034 994 3034 1497 
Q 3034 2003 2786 2293 
Q 2538 2584 2113 2584 
z
M 3366 4563 
L 3366 3988 
Q 3128 4100 2886 4159 
Q 2644 4219 2406 4219 
Q 1781 4219 1451 3797 
Q 1122 3375 1075 2522 
Q 1259 2794 1537 2939 
Q 1816 3084 2150 3084 
Q 2853 3084 3261 2657 
Q 3669 2231 3669 1497 
Q 3669 778 3244 343 
Q 2819 -91 2113 -91 
Q 1303 -91 875 529 
Q 447 1150 447 2328 
Q 447 3434 972 4092 
Q 1497 4750 2381 4750 
Q 2619 4750 2861 4703 
Q 3103 4656 3366 4563 
z
" transform="scale(0.015625)"/>
      <path id="DejaVuSans-2e" d="M 684 794 
L 1344 794 
L 1344 0 
L 684 0 
L 684 794 
z
" transform="scale(0.015625)"/>
      <path id="DejaVuSans-37" d="M 525 4666 
L 3525 4666 
L 3525 4397 
L 1831 0 
L 1172 0 
L 2766 4134 
L 525 4134 
L 525 4666 
z
" transform="scale(0.015625)"/>
      <path id="DejaVuSans-25" d="M 4653 2053 
Q 4381 2053 4226 1822 
Q 4072 1591 4072 1178 
Q 4072 772 4226 539 
Q 4381 306 4653 306 
Q 4919 306 5073 539 
Q 5228 772 5228 1178 
Q 5228 1588 5073 1820 
Q 4919 2053 4653 2053 
z
M 4653 2450 
Q 5147 2450 5437 2106 
Q 5728 1763 5728 1178 
Q 5728 594 5436 251 
Q 5144 -91 4653 -91 
Q 4153 -91 3862 251 
Q 3572 594 3572 1178 
Q 3572 1766 3864 2108 
Q 4156 2450 4653 2450 
z
M 1428 4353 
Q 1159 4353 1004 4120 
Q 850 3888 850 3481 
Q 850 3069 1003 2837 
Q 1156 2606 1428 2606 
Q 1700 2606 1854 2837 
Q 2009 3069 2009 3481 
Q 2009 3884 1853 4118 
Q 1697 4353 1428 4353 
z
M 4250 4750 
L 4750 4750 
L 1831 -91 
L 1331 -91 
L 4250 4750 
z
M 1428 4750 
Q 1922 4750 2215 4408 
Q 2509 4066 2509 3481 
Q 2509 2891 2217 2550 
Q 1925 2209 1428 2209 
Q 931 2209 642 2551 
Q 353 2894 353 3481 
Q 353 4063 643 4406 
Q 934 4750 1428 4750 
z
" transform="scale(0.015625)"/>
     </defs>
     <use xlink:href="#DejaVuSans-31"/>
     <use xlink:href="#DejaVuSans-36" transform="translate(63.623047 0)"/>
     <use xlink:href="#DejaVuSans-2e" transform="translate(127.246094 0)"/>
     <use xlink:href="#DejaVuSans-36" transform="translate(159.033203 0)"/>
     <use xlink:href="#DejaVuSans-37" transform="translate(222.65625 0)"/>
     <use xlink:href="#DejaVuSans-25" transform="translate(286.279297 0)"/>
    </g>
   </g>
   <g id="text_2">
    <!-- 16.67% -->
    <g transform="translate(11.479095 122.5892) scale(0.1 -0.1)">
     <use xlink:href="#DejaVuSans-31"/>
     <use xlink:href="#DejaVuSans-36" transform="translate(63.623047 0)"/>
     <use xlink:href="#DejaVuSans-2e" transform="translate(127.246094 0)"/>
     <use xlink:href="#DejaVuSans-36" transform="translate(159.033203 0)"/>
     <use xlink:href="#DejaVuSans-37" transform="translate(222.65625 0)"/>
     <use xlink:href="#DejaVuSans-25" transform="translate(286.279297 0)"/>
    </g>
   </g>
   <g id="text_3">
    <!-- 16.67% -->
    <g transform="translate(53.062407 194.613554) scale(0.1 -0.1)">
     <use xlink:href="#DejaVuSans-31"/>
     <use xlink:href="#DejaVuSans-36" transform="translate(63.623047 0)"/>
     <use xlink:href="#DejaVuSans-2e" transform="translate(127.246094 0)"/>
     <use xlink:href="#DejaVuSans-36" transform="translate(159.033203 0)"/>
     <use xlink:href="#DejaVuSans-37" transform="translate(222.65625 0)"/>
     <use xlink:href="#DejaVuSans-25" transform="translate(286.279297 0)"/>
    </g>
   </g>
   <g id="text_4">
    <!-- 16.67% -->
    <g transform="translate(174.358619 194.613513) scale(0.1 -0.1)">
     <use xlink:href="#DejaVuSans-31"/>
     <use xlink:href="#DejaVuSans-36" transform="translate(63.623047 0)"/>
     <use xlink:href="#DejaVuSans-2e" transform="translate(127.246094 0)"/>
     <use xlink:href="#DejaVuSans-36" transform="translate(159.033203 0)"/>
     <use xlink:href="#DejaVuSans-37" transform="translate(222.65625 0)"/>
     <use xlink:href="#DejaVuSans-25" transform="translate(286.279297 0)"/>
    </g>
   </g>
   <g id="text_5">
    <!-- 16.67% -->
    <g transform="translate(215.941861 122.589179) scale(0.1 -0.1)">
     <use xlink:href="#DejaVuSans-31"/>
     <use xlink:href="#DejaVuSans-36" transform="translate(63.623047 0)"/>
     <use xlink:href="#DejaVuSans-2e" transform="translate(127.246094 0)"/>
     <use xlink:href="#DejaVuSans-36" transform="translate(159.033203 0)"/>
     <use xlink:href="#DejaVuSans-37" transform="translate(222.65625 0)"/>
     <use xlink:href="#DejaVuSans-25" transform="translate(286.279297 0)"/>
    </g>
   </g>
   <g id="text_6">
    <!-- 16.67% -->
    <g transform="translate(174.358525 50.564819) scale(0.1 -0.1)">
     <use xlink:href="#DejaVuSans-31"/>
     <use xlink:href="#DejaVuSans-36" transform="translate(63.623047 0)"/>
     <use xlink:href="#DejaVuSans-2e" transform="translate(127.246094 0)"/>
     <use xlink:href="#DejaVuSans-36" transform="translate(159.033203 0)"/>
     <use xlink:href="#DejaVuSans-37" transform="translate(222.65625 0)"/>
     <use xlink:href="#DejaVuSans-25" transform="translate(286.279297 0)"/>
    </g>
   </g>
   <g id="text_7">
    <!-- 1 -->
    <g transform="translate(104.897997 85.324429) scale(0.1 -0.1)">
     <use xlink:href="#DejaVuSans-31"/>
    </g>
   </g>
   <g id="text_8">
    <!-- 2 -->
    <g transform="translate(83.383177 122.589197) scale(0.1 -0.1)">
     <defs>
      <path id="DejaVuSans-32" d="M 1228 531 
L 3431 531 
L 3431 0 
L 469 0 
L 469 531 
Q 828 903 1448 1529 
Q 2069 2156 2228 2338 
Q 2531 2678 2651 2914 
Q 2772 3150 2772 3378 
Q 2772 3750 2511 3984 
Q 2250 4219 1831 4219 
Q 1534 4219 1204 4116 
Q 875 4013 500 3803 
L 500 4441 
Q 881 4594 1212 4672 
Q 1544 4750 1819 4750 
Q 2544 4750 2975 4387 
Q 3406 4025 3406 3419 
Q 3406 3131 3298 2873 
Q 3191 2616 2906 2266 
Q 2828 2175 2409 1742 
Q 1991 1309 1228 531 
z
" transform="scale(0.015625)"/>
     </defs>
     <use xlink:href="#DejaVuSans-32"/>
    </g>
   </g>
   <g id="text_9">
    <!-- 3 -->
    <g transform="translate(104.898021 159.853971) scale(0.1 -0.1)">
     <defs>
      <path id="DejaVuSans-33" d="M 2597 2516 
Q 3050 2419 3304 2112 
Q 3559 1806 3559 1356 
Q 3559 666 3084 287 
Q 2609 -91 1734 -91 
Q 1441 -91 1130 -33 
Q 819 25 488 141 
L 488 750 
Q 750 597 1062 519 
Q 1375 441 1716 441 
Q 2309 441 2620 675 
Q 2931 909 2931 1356 
Q 2931 1769 2642 2001 
Q 2353 2234 1838 2234 
L 1294 2234 
L 1294 2753 
L 1863 2753 
Q 2328 2753 2575 2939 
Q 2822 3125 2822 3475 
Q 2822 3834 2567 4026 
Q 2313 4219 1838 4219 
Q 1578 4219 1281 4162 
Q 984 4106 628 3988 
L 628 4550 
Q 988 4650 1302 4700 
Q 1616 4750 1894 4750 
Q 2613 4750 3031 4423 
Q 3450 4097 3450 3541 
Q 3450 3153 3228 2886 
Q 3006 2619 2597 2516 
z
" transform="scale(0.015625)"/>
     </defs>
     <use xlink:href="#DejaVuSans-33"/>
    </g>
   </g>
   <g id="text_10">
    <!-- 4 -->
    <g transform="translate(154.290158 159.85395) scale(0.1 -0.1)">
     <defs>
      <path id="DejaVuSans-34" d="M 2419 4116 
L 825 1625 
L 2419 1625 
L 2419 4116 
z
M 2253 4666 
L 3047 4666 
L 3047 1625 
L 3713 1625 
L 3713 1100 
L 3047 1100 
L 3047 0 
L 2419 0 
L 2419 1100 
L 313 1100 
L 313 1709 
L 2253 4666 
z
" transform="scale(0.015625)"/>
     </defs>
     <use xlink:href="#DejaVuSans-34"/>
    </g>
   </g>
   <g id="text_11">
    <!-- 5 -->
    <g transform="translate(175.804966 122.589186) scale(0.1 -0.1)">
     <defs>
      <path id="DejaVuSans-35" d="M 691 4666 
L 3169 4666 
L 3169 4134 
L 1269 4134 
L 1269 2991 
Q 1406 3038 1543 3061 
Q 1681 3084 1819 3084 
Q 2600 3084 3056 2656 
Q 3513 2228 3513 1497 
Q 3513 744 3044 326 
Q 2575 -91 1722 -91 
Q 1428 -91 1123 -41 
Q 819 9 494 109 
L 494 744 
Q 775 591 1075 516 
Q 1375 441 1709 441 
Q 2250 441 2565 725 
Q 2881 1009 2881 1497 
Q 2881 1984 2565 2268 
Q 2250 2553 1709 2553 
Q 1456 2553 1204 2497 
Q 953 2441 691 2322 
L 691 4666 
z
" transform="scale(0.015625)"/>
     </defs>
     <use xlink:href="#DejaVuSans-35"/>
    </g>
   </g>
   <g id="text_12">
    <!-- 6 -->
    <g transform="translate(154.290109 85.324408) scale(0.1 -0.1)">
     <use xlink:href="#DejaVuSans-36"/>
    </g>
   </g>
   <g id="text_13">
    <!-- d6 -->
    <g transform="translate(123.623446 23.431406) scale(0.144 -0.144)">
     <defs>
      <path id="DejaVuSans-64" d="M 2906 2969 
L 2906 4863 
L 3481 4863 
L 3481 0 
L 2906 0 
L 2906 525 
Q 2725 213 2448 61 
Q 2172 -91 1784 -91 
Q 1150 -91 751 415 
Q 353 922 353 1747 
Q 353 2572 751 3078 
Q 1150 3584 1784 3584 
Q 2172 3584 2448 3432 
Q 2725 3281 2906 2969 
z
M 947 1747 
Q 947 1113 1208 752 
Q 1469 391 1925 391 
Q 2381 391 2643 752 
Q 2906 1113 2906 1747 
Q 2906 2381 2643 2742 
Q 2381 3103 1925 3103 
Q 1469 3103 1208 2742 
Q 947 2381 947 1747 
z
" transform="scale(0.015625)"/>
     </defs>
     <use xlink:href="#DejaVuSans-64"/>
     <use xlink:href="#DejaVuSans-36" transform="translate(63.476562 0)"/>
    </g>
   </g>
  </g>
  <g id="axes_2">
   <g id="patch_14">
    <path d="M 355.949055 47.511088 
C 349.629057 47.511088 343.336239 48.339554 337.23159 49.975289 
C 331.126942 51.611025 325.262969 54.039962 319.78969 57.199961 
L 348.717182 107.303847 
C 349.811838 106.671847 350.984632 106.18606 352.205562 105.858912 
C 353.426492 105.531765 354.685055 105.366072 355.949055 105.366072 
z
" style="fill: #394fa1; fill-opacity: 0.75; stroke: #000000; stroke-width: 0.5; stroke-linejoin: miter"/>
   </g>
   <g id="patch_15">
    <path d="M 319.789686 57.199962 
C 314.316409 60.359962 309.280906 64.223841 304.811992 68.692755 
C 300.343078 73.161669 296.479198 78.197172 293.319199 83.670449 
L 343.423084 112.597944 
C 344.055084 111.503289 344.82786 110.496188 345.721642 109.602406 
C 346.615425 108.708623 347.622526 107.935847 348.717181 107.303847 
z
" style="fill: #5183bb; fill-opacity: 0.75; stroke: #000000; stroke-width: 0.5; stroke-linejoin: miter"/>
   </g>
   <g id="patch_16">
    <path d="M 293.319199 83.670449 
C 290.1592 89.143728 287.730262 95.007696 286.094527 101.112347 
C 284.458792 107.216997 283.630325 113.509826 283.630325 119.829825 
L 341.485309 119.829819 
C 341.485309 118.56582 341.651002 117.307254 341.978149 116.086324 
C 342.305296 114.865394 342.791084 113.6926 343.423084 112.597944 
z
" style="fill: #78b0d3; fill-opacity: 0.75; stroke: #000000; stroke-width: 0.5; stroke-linejoin: miter"/>
   </g>
   <g id="patch_17">
    <path d="M 283.630325 119.829825 
C 283.630325 126.149824 284.458792 132.442653 286.094531 138.547302 
C 287.730271 144.651951 290.159204 150.515917 293.319203 155.989196 
L 343.423085 127.061694 
C 342.791085 125.967038 342.305298 124.794245 341.97815 123.573315 
C 341.651002 122.352385 341.485309 121.093819 341.485309 119.829819 
z
" style="fill: #a6d5e7; fill-opacity: 0.75; stroke: #000000; stroke-width: 0.5; stroke-linejoin: miter"/>
   </g>
   <g id="patch_18">
    <path d="M 293.319203 155.989196 
C 296.479207 161.462477 300.343095 166.497989 304.812013 170.966903 
C 309.280932 175.435817 314.316444 179.299696 319.789727 182.459696 
L 348.717189 132.355794 
C 347.622533 131.723794 346.61543 130.951018 345.721647 130.057235 
C 344.827863 129.163452 344.055085 128.15635 343.423085 127.061694 
z
" style="fill: #d4edf4; fill-opacity: 0.75; stroke: #000000; stroke-width: 0.5; stroke-linejoin: miter"/>
   </g>
   <g id="patch_19">
    <path d="M 319.789727 182.459696 
C 325.263006 185.619691 331.126978 188.048628 337.231627 189.684359 
C 343.336276 191.32009 349.629094 192.148548 355.94909 192.148548 
L 355.949062 134.293564 
C 354.685063 134.293564 353.426499 134.127872 352.205569 133.800726 
C 350.98464 133.47358 349.811845 132.987793 348.717189 132.355794 
z
" style="fill: #f2fad6; fill-opacity: 0.75; stroke: #000000; stroke-width: 0.5; stroke-linejoin: miter"/>
   </g>
   <g id="patch_20">
    <path d="M 355.94909 192.148548 
C 362.269092 192.148544 368.561899 191.320077 374.66655 189.684337 
C 380.771201 188.048598 386.635193 185.619648 392.108472 182.459644 
L 363.180938 132.355783 
C 362.086283 132.987784 360.913484 133.473574 359.692554 133.800722 
C 358.471624 134.12787 357.213062 134.293563 355.949062 134.293564 
z
" style="fill: #fff2ac; fill-opacity: 0.75; stroke: #000000; stroke-width: 0.5; stroke-linejoin: miter"/>
   </g>
   <g id="patch_21">
    <path d="M 392.108472 182.459644 
C 397.581753 179.29964 402.617278 175.43574 407.086187 170.966817 
C 411.555097 166.497894 415.418963 161.462391 418.578958 155.989106 
L 368.475036 127.061676 
C 367.843037 128.156333 367.070263 129.163433 366.176481 130.057218 
C 365.2827 130.951002 364.275595 131.723783 363.180938 132.355783 
z
" style="fill: #fed283; fill-opacity: 0.75; stroke: #000000; stroke-width: 0.5; stroke-linejoin: miter"/>
   </g>
   <g id="patch_22">
    <path d="M 418.578958 155.989106 
C 421.738954 150.51582 424.167874 144.651854 425.803604 138.547201 
C 427.439335 132.442546 428.267793 126.149704 428.267785 119.829702 
L 370.412801 119.829795 
C 370.412803 121.093795 370.247111 122.352364 369.919965 123.573295 
C 369.592819 124.794225 369.107035 125.967019 368.475036 127.061676 
z
" style="fill: #fca85e; fill-opacity: 0.75; stroke: #000000; stroke-width: 0.5; stroke-linejoin: miter"/>
   </g>
   <g id="patch_23">
    <path d="M 428.267785 119.829702 
C 428.267776 113.509706 427.439301 107.216888 425.803557 101.112244 
C 424.167813 95.007599 421.738867 89.143631 418.578859 83.670358 
L 368.475016 112.597926 
C 369.107017 113.692581 369.592807 114.865374 369.919955 116.086303 
C 370.247104 117.307232 370.412799 118.565796 370.412801 119.829795 
z
" style="fill: #f57245; fill-opacity: 0.75; stroke: #000000; stroke-width: 0.5; stroke-linejoin: miter"/>
   </g>
   <g id="patch_24">
    <path d="M 418.578859 83.670358 
C 415.418851 78.197082 411.554942 73.161561 407.086019 68.692656 
C 402.617097 64.22375 397.581589 60.359884 392.108301 57.199893 
L 363.180904 107.303833 
C 364.275562 107.935831 365.282663 108.708605 366.176448 109.602386 
C 367.070232 110.496167 367.843014 111.503271 368.475016 112.597926 
z
" style="fill: #dd3d2d; fill-opacity: 0.75; stroke: #000000; stroke-width: 0.5; stroke-linejoin: miter"/>
   </g>
   <g id="patch_25">
    <path d="M 392.108301 57.199893 
C 386.635014 54.039902 380.771048 51.610982 374.666392 49.975256 
C 368.561737 48.33953 362.268894 47.511071 355.948893 47.511088 
L 355.949023 105.366072 
C 357.213023 105.366069 358.471591 105.53176 359.692522 105.858906 
C 360.913454 106.186051 362.086247 106.671835 363.180904 107.303833 
z
" style="fill: #b91326; fill-opacity: 0.75; stroke: #000000; stroke-width: 0.5; stroke-linejoin: miter"/>
   </g>
   <g id="patch_26">
    <path d="M 355.949055 58.358898 
C 354.160653 58.358898 352.373103 58.436944 350.591507 58.592814 
C 348.809911 58.748683 347.035965 58.982228 345.274734 59.292781 
L 351.553746 94.902803 
C 352.278959 94.774928 353.009407 94.678763 353.743006 94.614581 
C 354.476604 94.550399 355.212654 94.518263 355.949055 94.518263 
z
" style="fill: #036e3a; fill-opacity: 0.75; stroke: #000000; stroke-width: 0.5; stroke-linejoin: miter"/>
   </g>
   <g id="patch_27">
    <path d="M 345.274734 59.292781 
C 341.750599 59.91418 338.287449 60.842127 334.924758 62.066048 
C 331.562066 63.28997 328.312665 64.80519 325.213591 66.594441 
L 343.293276 97.909369 
C 344.569365 97.172618 345.907354 96.548704 347.291991 96.044736 
C 348.676629 95.540769 350.102632 95.158673 351.553746 94.902803 
z
" style="fill: #0e8245; fill-opacity: 0.75; stroke: #000000; stroke-width: 0.5; stroke-linejoin: miter"/>
   </g>
   <g id="patch_28">
    <path d="M 325.213591 66.594441 
C 320.561306 69.28044 316.281128 72.564737 312.482551 76.363314 
C 308.683974 80.161891 305.399677 84.442069 302.713677 89.094354 
L 334.028605 107.174039 
C 335.134605 105.258392 336.486963 103.495966 338.051083 101.931846 
C 339.615203 100.367726 341.377629 99.015368 343.293276 97.909369 
z
" style="fill: #2aa054; fill-opacity: 0.75; stroke: #000000; stroke-width: 0.5; stroke-linejoin: miter"/>
   </g>
   <g id="patch_29">
    <path d="M 302.713677 89.094354 
C 299.12839 95.304253 296.657175 102.093861 295.412017 109.155498 
C 294.16686 116.217136 294.16686 123.442498 295.412017 130.504135 
L 331.02204 124.225125 
C 330.509328 121.317392 330.509328 118.342243 331.02204 115.43451 
C 331.534751 112.526777 332.552311 109.731056 334.028605 107.174039 
z
" style="fill: #73c264; fill-opacity: 0.75; stroke: #000000; stroke-width: 0.5; stroke-linejoin: miter"/>
   </g>
   <g id="patch_30">
    <path d="M 295.412017 130.504135 
C 296.970666 139.343666 300.446669 147.735476 305.595031 155.088098 
C 310.743394 162.44072 317.440249 168.577254 325.2136 173.0652 
L 343.29328 141.750269 
C 340.092488 139.902292 337.334959 137.375483 335.215045 134.347933 
C 333.095131 131.320383 331.663836 127.864932 331.02204 124.225125 
z
" style="fill: #bde379; fill-opacity: 0.75; stroke: #000000; stroke-width: 0.5; stroke-linejoin: miter"/>
   </g>
   <g id="patch_31">
    <path d="M 325.2136 173.0652 
C 334.557664 178.459996 345.159461 181.300739 355.949056 181.300739 
C 366.738651 181.300739 377.340446 178.459996 386.68451 173.0652 
L 368.60483 141.750269 
C 364.757275 143.971656 360.39183 145.141374 355.949055 145.141374 
C 351.506281 145.141374 347.140835 143.971656 343.29328 141.750269 
z
" style="fill: #feffbe; fill-opacity: 0.75; stroke: #000000; stroke-width: 0.5; stroke-linejoin: miter"/>
   </g>
   <g id="patch_32">
    <path d="M 386.68451 173.0652 
C 394.457869 168.57725 401.154734 162.440705 406.303097 155.088076 
C 411.451459 147.735447 414.927458 139.343629 416.4861 130.504089 
L 380.876073 124.225106 
C 380.23428 127.864917 378.802986 131.320371 376.683072 134.347924 
C 374.563158 137.375477 371.805625 139.90229 368.60483 141.750269 
z
" style="fill: #fdc574; fill-opacity: 0.75; stroke: #000000; stroke-width: 0.5; stroke-linejoin: miter"/>
   </g>
   <g id="patch_33">
    <path d="M 416.4861 130.504089 
C 417.73125 123.442458 417.73125 116.217097 416.486089 109.155467 
C 415.240928 102.093838 412.769716 95.304248 409.184433 89.094354 
L 377.869505 107.174039 
C 379.345798 109.731054 380.363355 112.526767 380.876069 115.434497 
C 381.388782 118.342227 381.388782 121.317376 380.876073 124.225106 
z
" style="fill: #f67a49; fill-opacity: 0.75; stroke: #000000; stroke-width: 0.5; stroke-linejoin: miter"/>
   </g>
   <g id="patch_34">
    <path d="M 409.184433 89.094354 
C 406.498433 84.442065 403.214136 80.161891 399.415559 76.363314 
C 395.616982 72.564737 391.336782 69.280425 386.684491 66.594426 
L 368.604823 97.909363 
C 370.520472 99.015362 372.282907 100.367726 373.847027 101.931846 
C 375.411147 103.495966 376.763505 105.258391 377.869505 107.174039 
z
" style="fill: #dd3d2d; fill-opacity: 0.75; stroke: #000000; stroke-width: 0.5; stroke-linejoin: miter"/>
   </g>
   <g id="patch_35">
    <path d="M 386.684491 66.594426 
C 383.585418 64.805175 380.336016 63.289959 376.973325 62.066041 
C 373.610634 60.842123 370.14748 59.914176 366.623345 59.292777 
L 360.344351 94.902801 
C 361.795465 95.158671 363.22147 95.540767 364.606107 96.044733 
C 365.990745 96.548699 367.328734 97.172612 368.604823 97.909363 
z
" style="fill: #c01a27; fill-opacity: 0.75; stroke: #000000; stroke-width: 0.5; stroke-linejoin: miter"/>
   </g>
   <g id="patch_36">
    <path d="M 366.623345 59.292777 
C 364.862116 58.982224 363.088171 58.74868 361.306577 58.592812 
C 359.524983 58.436944 357.737434 58.358898 355.949034 58.358898 
L 355.949046 94.518263 
C 356.685446 94.518263 357.421496 94.550399 358.155094 94.61458 
C 358.888691 94.678761 359.619139 94.774926 360.344351 94.902801 
z
" style="fill: #ab0626; fill-opacity: 0.75; stroke: #000000; stroke-width: 0.5; stroke-linejoin: miter"/>
   </g>
   <g id="matplotlib.axis_3"/>
   <g id="matplotlib.axis_4"/>
   <g id="text_14">
    <!-- 1 -->
    <g transform="translate(328.061452 42.25649) scale(0.1 -0.1)">
     <use xlink:href="#DejaVuSans-31"/>
    </g>
   </g>
   <g id="text_15">
    <!-- 2 -->
    <g transform="translate(290.778931 63.78157) scale(0.1 -0.1)">
     <use xlink:href="#DejaVuSans-32"/>
    </g>
   </g>
   <g id="text_16">
    <!-- 3 -->
    <g transform="translate(269.253844 101.06412) scale(0.1 -0.1)">
     <use xlink:href="#DejaVuSans-33"/>
    </g>
   </g>
   <g id="text_17">
    <!-- 4 -->
    <g transform="translate(269.253853 144.114299) scale(0.1 -0.1)">
     <use xlink:href="#DejaVuSans-34"/>
    </g>
   </g>
   <g id="text_18">
    <!-- 5 -->
    <g transform="translate(290.778955 181.396841) scale(0.1 -0.1)">
     <use xlink:href="#DejaVuSans-35"/>
    </g>
   </g>
   <g id="text_19">
    <!-- 6 -->
    <g transform="translate(328.061514 202.921913) scale(0.1 -0.1)">
     <use xlink:href="#DejaVuSans-36"/>
    </g>
   </g>
   <g id="text_20">
    <!-- 7 -->
    <g transform="translate(377.474213 202.921882) scale(0.1 -0.1)">
     <use xlink:href="#DejaVuSans-37"/>
    </g>
   </g>
   <g id="text_21">
    <!-- 8 -->
    <g transform="translate(414.756754 181.396741) scale(0.1 -0.1)">
     <defs>
      <path id="DejaVuSans-38" d="M 2034 2216 
Q 1584 2216 1326 1975 
Q 1069 1734 1069 1313 
Q 1069 891 1326 650 
Q 1584 409 2034 409 
Q 2484 409 2743 651 
Q 3003 894 3003 1313 
Q 3003 1734 2745 1975 
Q 2488 2216 2034 2216 
z
M 1403 2484 
Q 997 2584 770 2862 
Q 544 3141 544 3541 
Q 544 4100 942 4425 
Q 1341 4750 2034 4750 
Q 2731 4750 3128 4425 
Q 3525 4100 3525 3541 
Q 3525 3141 3298 2862 
Q 3072 2584 2669 2484 
Q 3125 2378 3379 2068 
Q 3634 1759 3634 1313 
Q 3634 634 3220 271 
Q 2806 -91 2034 -91 
Q 1263 -91 848 271 
Q 434 634 434 1313 
Q 434 1759 690 2068 
Q 947 2378 1403 2484 
z
M 1172 3481 
Q 1172 3119 1398 2916 
Q 1625 2713 2034 2713 
Q 2441 2713 2670 2916 
Q 2900 3119 2900 3481 
Q 2900 3844 2670 4047 
Q 2441 4250 2034 4250 
Q 1625 4250 1398 4047 
Q 1172 3844 1172 3481 
z
" transform="scale(0.015625)"/>
     </defs>
     <use xlink:href="#DejaVuSans-38"/>
    </g>
   </g>
   <g id="text_22">
    <!-- 9 -->
    <g transform="translate(436.281799 144.114144) scale(0.1 -0.1)">
     <defs>
      <path id="DejaVuSans-39" d="M 703 97 
L 703 672 
Q 941 559 1184 500 
Q 1428 441 1663 441 
Q 2288 441 2617 861 
Q 2947 1281 2994 2138 
Q 2813 1869 2534 1725 
Q 2256 1581 1919 1581 
Q 1219 1581 811 2004 
Q 403 2428 403 3163 
Q 403 3881 828 4315 
Q 1253 4750 1959 4750 
Q 2769 4750 3195 4129 
Q 3622 3509 3622 2328 
Q 3622 1225 3098 567 
Q 2575 -91 1691 -91 
Q 1453 -91 1209 -44 
Q 966 3 703 97 
z
M 1959 2075 
Q 2384 2075 2632 2365 
Q 2881 2656 2881 3163 
Q 2881 3666 2632 3958 
Q 2384 4250 1959 4250 
Q 1534 4250 1286 3958 
Q 1038 3666 1038 3163 
Q 1038 2656 1286 2365 
Q 1534 2075 1959 2075 
z
" transform="scale(0.015625)"/>
     </defs>
     <use xlink:href="#DejaVuSans-39"/>
    </g>
   </g>
   <g id="text_23">
    <!-- 10 -->
    <g transform="translate(436.281719 101.063946) scale(0.1 -0.1)">
     <defs>
      <path id="DejaVuSans-30" d="M 2034 4250 
Q 1547 4250 1301 3770 
Q 1056 3291 1056 2328 
Q 1056 1369 1301 889 
Q 1547 409 2034 409 
Q 2525 409 2770 889 
Q 3016 1369 3016 2328 
Q 3016 3291 2770 3770 
Q 2525 4250 2034 4250 
z
M 2034 4750 
Q 2819 4750 3233 4129 
Q 3647 3509 3647 2328 
Q 3647 1150 3233 529 
Q 2819 -91 2034 -91 
Q 1250 -91 836 529 
Q 422 1150 422 2328 
Q 422 3509 836 4129 
Q 1250 4750 2034 4750 
z
" transform="scale(0.015625)"/>
     </defs>
     <use xlink:href="#DejaVuSans-31"/>
     <use xlink:href="#DejaVuSans-30" transform="translate(63.623047 0)"/>
    </g>
   </g>
   <g id="text_24">
    <!-- 11 -->
    <g transform="translate(414.756566 63.781456) scale(0.1 -0.1)">
     <use xlink:href="#DejaVuSans-31"/>
     <use xlink:href="#DejaVuSans-31" transform="translate(63.623047 0)"/>
    </g>
   </g>
   <g id="text_25">
    <!-- 12 -->
    <g transform="translate(377.473916 42.256425) scale(0.1 -0.1)">
     <use xlink:href="#DejaVuSans-31"/>
     <use xlink:href="#DejaVuSans-32" transform="translate(63.623047 0)"/>
    </g>
   </g>
   <g id="text_26">
    <!-- 3 -->
    <g transform="translate(334.869541 82.154557) scale(0.1 -0.1)">
     <use xlink:href="#DejaVuSans-33"/>
    </g>
   </g>
   <g id="text_27">
    <!-- 4 -->
    <g transform="translate(319.160002 92.16264) scale(0.1 -0.1)">
     <use xlink:href="#DejaVuSans-34"/>
    </g>
   </g>
   <g id="text_28">
    <!-- 5 -->
    <g transform="translate(307.210627 115.117179) scale(0.1 -0.1)">
     <use xlink:href="#DejaVuSans-35"/>
    </g>
   </g>
   <g id="text_29">
    <!-- 6 -->
    <g transform="translate(314.338733 147.269982) scale(0.1 -0.1)">
     <use xlink:href="#DejaVuSans-36"/>
    </g>
   </g>
   <g id="text_30">
    <!-- 7 -->
    <g transform="translate(355.949056 165.618837) scale(0.1 -0.1)">
     <use xlink:href="#DejaVuSans-37"/>
    </g>
   </g>
   <g id="text_31">
    <!-- 8 -->
    <g transform="translate(391.196883 147.269973) scale(0.1 -0.1)">
     <use xlink:href="#DejaVuSans-38"/>
    </g>
   </g>
   <g id="text_32">
    <!-- 9 -->
    <g transform="translate(398.324981 115.117168) scale(0.1 -0.1)">
     <use xlink:href="#DejaVuSans-39"/>
    </g>
   </g>
   <g id="text_33">
    <!-- 10 -->
    <g transform="translate(386.375608 92.162639) scale(0.1 -0.1)">
     <use xlink:href="#DejaVuSans-31"/>
     <use xlink:href="#DejaVuSans-30" transform="translate(63.623047 0)"/>
    </g>
   </g>
   <g id="text_34">
    <!-- 11 -->
    <g transform="translate(370.666024 82.154541) scale(0.1 -0.1)">
     <use xlink:href="#DejaVuSans-31"/>
     <use xlink:href="#DejaVuSans-31" transform="translate(63.623047 0)"/>
    </g>
   </g>
   <g id="text_35">
    <!-- 2d6 vs. d12 -->
    <g transform="translate(313.606305 23.431406) scale(0.144 -0.144)">
     <defs>
      <path id="DejaVuSans-20" transform="scale(0.015625)"/>
      <path id="DejaVuSans-76" d="M 191 3500 
L 800 3500 
L 1894 563 
L 2988 3500 
L 3597 3500 
L 2284 0 
L 1503 0 
L 191 3500 
z
" transform="scale(0.015625)"/>
      <path id="DejaVuSans-73" d="M 2834 3397 
L 2834 2853 
Q 2591 2978 2328 3040 
Q 2066 3103 1784 3103 
Q 1356 3103 1142 2972 
Q 928 2841 928 2578 
Q 928 2378 1081 2264 
Q 1234 2150 1697 2047 
L 1894 2003 
Q 2506 1872 2764 1633 
Q 3022 1394 3022 966 
Q 3022 478 2636 193 
Q 2250 -91 1575 -91 
Q 1294 -91 989 -36 
Q 684 19 347 128 
L 347 722 
Q 666 556 975 473 
Q 1284 391 1588 391 
Q 1994 391 2212 530 
Q 2431 669 2431 922 
Q 2431 1156 2273 1281 
Q 2116 1406 1581 1522 
L 1381 1569 
Q 847 1681 609 1914 
Q 372 2147 372 2553 
Q 372 3047 722 3315 
Q 1072 3584 1716 3584 
Q 2034 3584 2315 3537 
Q 2597 3491 2834 3397 
z
" transform="scale(0.015625)"/>
     </defs>
     <use xlink:href="#DejaVuSans-32"/>
     <use xlink:href="#DejaVuSans-64" transform="translate(63.623047 0)"/>
     <use xlink:href="#DejaVuSans-36" transform="translate(127.099609 0)"/>
     <use xlink:href="#DejaVuSans-20" transform="translate(190.722656 0)"/>
     <use xlink:href="#DejaVuSans-76" transform="translate(222.509766 0)"/>
     <use xlink:href="#DejaVuSans-73" transform="translate(281.689453 0)"/>
     <use xlink:href="#DejaVuSans-2e" transform="translate(333.789062 0)"/>
     <use xlink:href="#DejaVuSans-20" transform="translate(365.576172 0)"/>
     <use xlink:href="#DejaVuSans-64" transform="translate(397.363281 0)"/>
     <use xlink:href="#DejaVuSans-31" transform="translate(460.839844 0)"/>
     <use xlink:href="#DejaVuSans-32" transform="translate(524.462891 0)"/>
    </g>
   </g>
  </g>
 </g>
</svg>
