<?xml version="1.0" encoding="utf-8" standalone="no"?>
<!DOCTYPE svg PUBLIC "-//W3C//DTD SVG 1.1//EN"
  "http://www.w3.org/Graphics/SVG/1.1/DTD/svg11.dtd">
<svg xmlns:xlink="http://www.w3.org/1999/xlink" width="460.8pt" height="345.6pt" viewBox="0 0 460.8 345.6" xmlns="http://www.w3.org/2000/svg" version="1.1">
 <metadata>
  <rdf:RDF xmlns:dc="http://purl.org/dc/elements/1.1/" xmlns:cc="http://creativecommons.org/ns#" xmlns:rdf="http://www.w3.org/1999/02/22-rdf-syntax-ns#">
   <cc:Work>
    <dc:type rdf:resource="http://purl.org/dc/dcmitype/StillImage"/>
    <dc:format>image/svg+xml</dc:format>
    <dc:creator>
     <cc:Agent>
      <dc:title>Matplotlib, https://matplotlib.org/</dc:title>
     </cc:Agent>
    </dc:creator>
   </cc:Work>
  </rdf:RDF>
 </metadata>
 <defs>
  <style type="text/css">*{stroke-linejoin: round; stroke-linecap: butt}</style>
 </defs>
 <g id="figure_1">
  <g id="patch_1">
   <path d="M 0 345.6 
L 460.8 345.6 
L 460.8 0 
L 0 0 
L 0 345.6 
z
" style="fill: none"/>
  </g>
  <g id="axes_1">
   <g id="patch_2">
    <path d="M 45.98 321.3 
L 450 321.3 
L 450 27.740625 
L 45.98 27.740625 
L 45.98 321.3 
z
" style="fill: none"/>
   </g>
   <g id="patch_3">
    <path d="M 80.610286 321.3 
L 103.697143 321.3 
L 103.697143 41.719643 
L 80.610286 41.719643 
z
" clip-path="url(#p5dc106ff17)" style="fill: #348abd; opacity: 0.75"/>
   </g>
   <g id="patch_4">
    <path d="M 138.327429 321.3 
L 161.414286 321.3 
L 161.414286 92.552435 
L 138.327429 92.552435 
z
" clip-path="url(#p5dc106ff17)" style="fill: #348abd; opacity: 0.75"/>
   </g>
   <g id="patch_5">
    <path d="M 196.044571 321.3 
L 219.131429 321.3 
L 219.131429 143.385227 
L 196.044571 143.385227 
z
" clip-path="url(#p5dc106ff17)" style="fill: #348abd; opacity: 0.75"/>
   </g>
   <g id="patch_6">
    <path d="M 253.761714 321.3 
L 276.848571 321.3 
L 276.848571 194.218019 
L 253.761714 194.218019 
z
" clip-path="url(#p5dc106ff17)" style="fill: #348abd; opacity: 0.75"/>
   </g>
   <g id="patch_7">
    <path d="M 311.478857 321.3 
L 334.565714 321.3 
L 334.565714 245.050812 
L 311.478857 245.050812 
z
" clip-path="url(#p5dc106ff17)" style="fill: #348abd; opacity: 0.75"/>
   </g>
   <g id="patch_8">
    <path d="M 369.196 321.3 
L 392.282857 321.3 
L 392.282857 295.883604 
L 369.196 295.883604 
z
" clip-path="url(#p5dc106ff17)" style="fill: #348abd; opacity: 0.75"/>
   </g>
   <g id="patch_9">
    <path d="M 103.697143 321.3 
L 126.784 321.3 
L 126.784 295.883604 
L 103.697143 295.883604 
z
" clip-path="url(#p5dc106ff17)" style="fill: #a60628; opacity: 0.75"/>
   </g>
   <g id="patch_10">
    <path d="M 161.414286 321.3 
L 184.501143 321.3 
L 184.501143 245.050812 
L 161.414286 245.050812 
z
" clip-path="url(#p5dc106ff17)" style="fill: #a60628; opacity: 0.75"/>
   </g>
   <g id="patch_11">
    <path d="M 219.131429 321.3 
L 242.218286 321.3 
L 242.218286 194.218019 
L 219.131429 194.218019 
z
" clip-path="url(#p5dc106ff17)" style="fill: #a60628; opacity: 0.75"/>
   </g>
   <g id="patch_12">
    <path d="M 276.848571 321.3 
L 299.935429 321.3 
L 299.935429 143.385227 
L 276.848571 143.385227 
z
" clip-path="url(#p5dc106ff17)" style="fill: #a60628; opacity: 0.75"/>
   </g>
   <g id="patch_13">
    <path d="M 334.565714 321.3 
L 357.652571 321.3 
L 357.652571 92.552435 
L 334.565714 92.552435 
z
" clip-path="url(#p5dc106ff17)" style="fill: #a60628; opacity: 0.75"/>
   </g>
   <g id="patch_14">
    <path d="M 392.282857 321.3 
L 415.369714 321.3 
L 415.369714 41.719643 
L 392.282857 41.719643 
z
" clip-path="url(#p5dc106ff17)" style="fill: #a60628; opacity: 0.75"/>
   </g>
   <g id="matplotlib.axis_1">
    <g id="xtick_1">
     <g id="line2d_1">
      <path d="M 103.697143 321.3 
L 103.697143 27.740625 
" clip-path="url(#p5dc106ff17)" style="fill: none; stroke-dasharray: 1.85,0.8; stroke-dashoffset: 0; stroke: #b2b2b2; stroke-width: 0.5"/>
     </g>
     <g id="line2d_2">
      <defs>
       <path id="m21876d499b" d="M 0 0 
L 0 -3.5 
" style="stroke: #d9d9d9; stroke-width: 0.8"/>
      </defs>
      <g>
       <use xlink:href="#m21876d499b" x="103.697143" y="321.3" style="fill: #d9d9d9; stroke: #d9d9d9; stroke-width: 0.8"/>
      </g>
     </g>
     <g id="text_1">
      <!-- 1 -->
      <g style="fill: #d9d9d9" transform="translate(100.515893 332.397656) scale(0.1 -0.1)">
       <defs>
        <path id="DejaVuSans-14" d="M 794 531 
L 1825 531 
L 1825 4091 
L 703 3866 
L 703 4441 
L 1819 4666 
L 2450 4666 
L 2450 531 
L 3481 531 
L 3481 0 
L 794 0 
L 794 531 
z
" transform="scale(0.015625)"/>
       </defs>
       <use xlink:href="#DejaVuSans-14"/>
      </g>
     </g>
    </g>
    <g id="xtick_2">
     <g id="line2d_3">
      <path d="M 161.414286 321.3 
L 161.414286 27.740625 
" clip-path="url(#p5dc106ff17)" style="fill: none; stroke-dasharray: 1.85,0.8; stroke-dashoffset: 0; stroke: #b2b2b2; stroke-width: 0.5"/>
     </g>
     <g id="line2d_4">
      <g>
       <use xlink:href="#m21876d499b" x="161.414286" y="321.3" style="fill: #d9d9d9; stroke: #d9d9d9; stroke-width: 0.8"/>
      </g>
     </g>
     <g id="text_2">
      <!-- 2 -->
      <g style="fill: #d9d9d9" transform="translate(158.233036 332.397656) scale(0.1 -0.1)">
       <defs>
        <path id="DejaVuSans-15" d="M 1228 531 
L 3431 531 
L 3431 0 
L 469 0 
L 469 531 
Q 828 903 1448 1529 
Q 2069 2156 2228 2338 
Q 2531 2678 2651 2914 
Q 2772 3150 2772 3378 
Q 2772 3750 2511 3984 
Q 2250 4219 1831 4219 
Q 1534 4219 1204 4116 
Q 875 4013 500 3803 
L 500 4441 
Q 881 4594 1212 4672 
Q 1544 4750 1819 4750 
Q 2544 4750 2975 4387 
Q 3406 4025 3406 3419 
Q 3406 3131 3298 2873 
Q 3191 2616 2906 2266 
Q 2828 2175 2409 1742 
Q 1991 1309 1228 531 
z
" transform="scale(0.015625)"/>
       </defs>
       <use xlink:href="#DejaVuSans-15"/>
      </g>
     </g>
    </g>
    <g id="xtick_3">
     <g id="line2d_5">
      <path d="M 219.131429 321.3 
L 219.131429 27.740625 
" clip-path="url(#p5dc106ff17)" style="fill: none; stroke-dasharray: 1.85,0.8; stroke-dashoffset: 0; stroke: #b2b2b2; stroke-width: 0.5"/>
     </g>
     <g id="line2d_6">
      <g>
       <use xlink:href="#m21876d499b" x="219.131429" y="321.3" style="fill: #d9d9d9; stroke: #d9d9d9; stroke-width: 0.8"/>
      </g>
     </g>
     <g id="text_3">
      <!-- 3 -->
      <g style="fill: #d9d9d9" transform="translate(215.950179 332.397656) scale(0.1 -0.1)">
       <defs>
        <path id="DejaVuSans-16" d="M 2597 2516 
Q 3050 2419 3304 2112 
Q 3559 1806 3559 1356 
Q 3559 666 3084 287 
Q 2609 -91 1734 -91 
Q 1441 -91 1130 -33 
Q 819 25 488 141 
L 488 750 
Q 750 597 1062 519 
Q 1375 441 1716 441 
Q 2309 441 2620 675 
Q 2931 909 2931 1356 
Q 2931 1769 2642 2001 
Q 2353 2234 1838 2234 
L 1294 2234 
L 1294 2753 
L 1863 2753 
Q 2328 2753 2575 2939 
Q 2822 3125 2822 3475 
Q 2822 3834 2567 4026 
Q 2313 4219 1838 4219 
Q 1578 4219 1281 4162 
Q 984 4106 628 3988 
L 628 4550 
Q 988 4650 1302 4700 
Q 1616 4750 1894 4750 
Q 2613 4750 3031 4423 
Q 3450 4097 3450 3541 
Q 3450 3153 3228 2886 
Q 3006 2619 2597 2516 
z
" transform="scale(0.015625)"/>
       </defs>
       <use xlink:href="#DejaVuSans-16"/>
      </g>
     </g>
    </g>
    <g id="xtick_4">
     <g id="line2d_7">
      <path d="M 276.848571 321.3 
L 276.848571 27.740625 
" clip-path="url(#p5dc106ff17)" style="fill: none; stroke-dasharray: 1.85,0.8; stroke-dashoffset: 0; stroke: #b2b2b2; stroke-width: 0.5"/>
     </g>
     <g id="line2d_8">
      <g>
       <use xlink:href="#m21876d499b" x="276.848571" y="321.3" style="fill: #d9d9d9; stroke: #d9d9d9; stroke-width: 0.8"/>
      </g>
     </g>
     <g id="text_4">
      <!-- 4 -->
      <g style="fill: #d9d9d9" transform="translate(273.667321 332.397656) scale(0.1 -0.1)">
       <defs>
        <path id="DejaVuSans-17" d="M 2419 4116 
L 825 1625 
L 2419 1625 
L 2419 4116 
z
M 2253 4666 
L 3047 4666 
L 3047 1625 
L 3713 1625 
L 3713 1100 
L 3047 1100 
L 3047 0 
L 2419 0 
L 2419 1100 
L 313 1100 
L 313 1709 
L 2253 4666 
z
" transform="scale(0.015625)"/>
       </defs>
       <use xlink:href="#DejaVuSans-17"/>
      </g>
     </g>
    </g>
    <g id="xtick_5">
     <g id="line2d_9">
      <path d="M 334.565714 321.3 
L 334.565714 27.740625 
" clip-path="url(#p5dc106ff17)" style="fill: none; stroke-dasharray: 1.85,0.8; stroke-dashoffset: 0; stroke: #b2b2b2; stroke-width: 0.5"/>
     </g>
     <g id="line2d_10">
      <g>
       <use xlink:href="#m21876d499b" x="334.565714" y="321.3" style="fill: #d9d9d9; stroke: #d9d9d9; stroke-width: 0.8"/>
      </g>
     </g>
     <g id="text_5">
      <!-- 5 -->
      <g style="fill: #d9d9d9" transform="translate(331.384464 332.397656) scale(0.1 -0.1)">
       <defs>
        <path id="DejaVuSans-18" d="M 691 4666 
L 3169 4666 
L 3169 4134 
L 1269 4134 
L 1269 2991 
Q 1406 3038 1543 3061 
Q 1681 3084 1819 3084 
Q 2600 3084 3056 2656 
Q 3513 2228 3513 1497 
Q 3513 744 3044 326 
Q 2575 -91 1722 -91 
Q 1428 -91 1123 -41 
Q 819 9 494 109 
L 494 744 
Q 775 591 1075 516 
Q 1375 441 1709 441 
Q 2250 441 2565 725 
Q 2881 1009 2881 1497 
Q 2881 1984 2565 2268 
Q 2250 2553 1709 2553 
Q 1456 2553 1204 2497 
Q 953 2441 691 2322 
L 691 4666 
z
" transform="scale(0.015625)"/>
       </defs>
       <use xlink:href="#DejaVuSans-18"/>
      </g>
     </g>
    </g>
    <g id="xtick_6">
     <g id="line2d_11">
      <path d="M 392.282857 321.3 
L 392.282857 27.740625 
" clip-path="url(#p5dc106ff17)" style="fill: none; stroke-dasharray: 1.85,0.8; stroke-dashoffset: 0; stroke: #b2b2b2; stroke-width: 0.5"/>
     </g>
     <g id="line2d_12">
      <g>
       <use xlink:href="#m21876d499b" x="392.282857" y="321.3" style="fill: #d9d9d9; stroke: #d9d9d9; stroke-width: 0.8"/>
      </g>
     </g>
     <g id="text_6">
      <!-- 6 -->
      <g style="fill: #d9d9d9" transform="translate(389.101607 332.397656) scale(0.1 -0.1)">
       <defs>
        <path id="DejaVuSans-19" d="M 2113 2584 
Q 1688 2584 1439 2293 
Q 1191 2003 1191 1497 
Q 1191 994 1439 701 
Q 1688 409 2113 409 
Q 2538 409 2786 701 
Q 3034 994 3034 1497 
Q 3034 2003 2786 2293 
Q 2538 2584 2113 2584 
z
M 3366 4563 
L 3366 3988 
Q 3128 4100 2886 4159 
Q 2644 4219 2406 4219 
Q 1781 4219 1451 3797 
Q 1122 3375 1075 2522 
Q 1259 2794 1537 2939 
Q 1816 3084 2150 3084 
Q 2853 3084 3261 2657 
Q 3669 2231 3669 1497 
Q 3669 778 3244 343 
Q 2819 -91 2113 -91 
Q 1303 -91 875 529 
Q 447 1150 447 2328 
Q 447 3434 972 4092 
Q 1497 4750 2381 4750 
Q 2619 4750 2861 4703 
Q 3103 4656 3366 4563 
z
" transform="scale(0.015625)"/>
       </defs>
       <use xlink:href="#DejaVuSans-19"/>
      </g>
     </g>
    </g>
   </g>
   <g id="matplotlib.axis_2">
    <g id="ytick_1">
     <g id="line2d_13">
      <path d="M 45.98 321.3 
L 450 321.3 
" clip-path="url(#p5dc106ff17)" style="fill: none; stroke-dasharray: 1.85,0.8; stroke-dashoffset: 0; stroke: #b2b2b2; stroke-width: 0.5"/>
     </g>
     <g id="line2d_14">
      <defs>
       <path id="m99eab70db1" d="M 0 0 
L 3.5 0 
" style="stroke: #d9d9d9; stroke-width: 0.8"/>
      </defs>
      <g>
       <use xlink:href="#m99eab70db1" x="45.98" y="321.3" style="fill: #d9d9d9; stroke: #d9d9d9; stroke-width: 0.8"/>
      </g>
     </g>
     <g id="text_7">
      <!-- 0.0% -->
      <g style="fill: #d9d9d9" transform="translate(17.075313 325.098828) scale(0.1 -0.1)">
       <defs>
        <path id="DejaVuSans-13" d="M 2034 4250 
Q 1547 4250 1301 3770 
Q 1056 3291 1056 2328 
Q 1056 1369 1301 889 
Q 1547 409 2034 409 
Q 2525 409 2770 889 
Q 3016 1369 3016 2328 
Q 3016 3291 2770 3770 
Q 2525 4250 2034 4250 
z
M 2034 4750 
Q 2819 4750 3233 4129 
Q 3647 3509 3647 2328 
Q 3647 1150 3233 529 
Q 2819 -91 2034 -91 
Q 1250 -91 836 529 
Q 422 1150 422 2328 
Q 422 3509 836 4129 
Q 1250 4750 2034 4750 
z
" transform="scale(0.015625)"/>
        <path id="DejaVuSans-11" d="M 684 794 
L 1344 794 
L 1344 0 
L 684 0 
L 684 794 
z
" transform="scale(0.015625)"/>
        <path id="DejaVuSans-8" d="M 4653 2053 
Q 4381 2053 4226 1822 
Q 4072 1591 4072 1178 
Q 4072 772 4226 539 
Q 4381 306 4653 306 
Q 4919 306 5073 539 
Q 5228 772 5228 1178 
Q 5228 1588 5073 1820 
Q 4919 2053 4653 2053 
z
M 4653 2450 
Q 5147 2450 5437 2106 
Q 5728 1763 5728 1178 
Q 5728 594 5436 251 
Q 5144 -91 4653 -91 
Q 4153 -91 3862 251 
Q 3572 594 3572 1178 
Q 3572 1766 3864 2108 
Q 4156 2450 4653 2450 
z
M 1428 4353 
Q 1159 4353 1004 4120 
Q 850 3888 850 3481 
Q 850 3069 1003 2837 
Q 1156 2606 1428 2606 
Q 1700 2606 1854 2837 
Q 2009 3069 2009 3481 
Q 2009 3884 1853 4118 
Q 1697 4353 1428 4353 
z
M 4250 4750 
L 4750 4750 
L 1831 -91 
L 1331 -91 
L 4250 4750 
z
M 1428 4750 
Q 1922 4750 2215 4408 
Q 2509 4066 2509 3481 
Q 2509 2891 2217 2550 
Q 1925 2209 1428 2209 
Q 931 2209 642 2551 
Q 353 2894 353 3481 
Q 353 4063 643 4406 
Q 934 4750 1428 4750 
z
" transform="scale(0.015625)"/>
       </defs>
       <use xlink:href="#DejaVuSans-13"/>
       <use xlink:href="#DejaVuSans-11" transform="translate(63.625 0)"/>
       <use xlink:href="#DejaVuSans-13" transform="translate(95.40625 0)"/>
       <use xlink:href="#DejaVuSans-8" transform="translate(159.03125 0)"/>
      </g>
     </g>
    </g>
    <g id="ytick_2">
     <g id="line2d_15">
      <path d="M 45.98 275.550487 
L 450 275.550487 
" clip-path="url(#p5dc106ff17)" style="fill: none; stroke-dasharray: 1.85,0.8; stroke-dashoffset: 0; stroke: #b2b2b2; stroke-width: 0.5"/>
     </g>
     <g id="line2d_16">
      <g>
       <use xlink:href="#m99eab70db1" x="45.98" y="275.550487" style="fill: #d9d9d9; stroke: #d9d9d9; stroke-width: 0.8"/>
      </g>
     </g>
     <g id="text_8">
      <!-- 5.0% -->
      <g style="fill: #d9d9d9" transform="translate(17.075313 279.349315) scale(0.1 -0.1)">
       <use xlink:href="#DejaVuSans-18"/>
       <use xlink:href="#DejaVuSans-11" transform="translate(63.625 0)"/>
       <use xlink:href="#DejaVuSans-13" transform="translate(95.40625 0)"/>
       <use xlink:href="#DejaVuSans-8" transform="translate(159.03125 0)"/>
      </g>
     </g>
    </g>
    <g id="ytick_3">
     <g id="line2d_17">
      <path d="M 45.98 229.800974 
L 450 229.800974 
" clip-path="url(#p5dc106ff17)" style="fill: none; stroke-dasharray: 1.85,0.8; stroke-dashoffset: 0; stroke: #b2b2b2; stroke-width: 0.5"/>
     </g>
     <g id="line2d_18">
      <g>
       <use xlink:href="#m99eab70db1" x="45.98" y="229.800974" style="fill: #d9d9d9; stroke: #d9d9d9; stroke-width: 0.8"/>
      </g>
     </g>
     <g id="text_9">
      <!-- 10.0% -->
      <g style="fill: #d9d9d9" transform="translate(10.712813 233.599802) scale(0.1 -0.1)">
       <use xlink:href="#DejaVuSans-14"/>
       <use xlink:href="#DejaVuSans-13" transform="translate(63.625 0)"/>
       <use xlink:href="#DejaVuSans-11" transform="translate(127.25 0)"/>
       <use xlink:href="#DejaVuSans-13" transform="translate(159.03125 0)"/>
       <use xlink:href="#DejaVuSans-8" transform="translate(222.65625 0)"/>
      </g>
     </g>
    </g>
    <g id="ytick_4">
     <g id="line2d_19">
      <path d="M 45.98 184.051461 
L 450 184.051461 
" clip-path="url(#p5dc106ff17)" style="fill: none; stroke-dasharray: 1.85,0.8; stroke-dashoffset: 0; stroke: #b2b2b2; stroke-width: 0.5"/>
     </g>
     <g id="line2d_20">
      <g>
       <use xlink:href="#m99eab70db1" x="45.98" y="184.051461" style="fill: #d9d9d9; stroke: #d9d9d9; stroke-width: 0.8"/>
      </g>
     </g>
     <g id="text_10">
      <!-- 15.0% -->
      <g style="fill: #d9d9d9" transform="translate(10.712813 187.850289) scale(0.1 -0.1)">
       <use xlink:href="#DejaVuSans-14"/>
       <use xlink:href="#DejaVuSans-18" transform="translate(63.625 0)"/>
       <use xlink:href="#DejaVuSans-11" transform="translate(127.25 0)"/>
       <use xlink:href="#DejaVuSans-13" transform="translate(159.03125 0)"/>
       <use xlink:href="#DejaVuSans-8" transform="translate(222.65625 0)"/>
      </g>
     </g>
    </g>
    <g id="ytick_5">
     <g id="line2d_21">
      <path d="M 45.98 138.301948 
L 450 138.301948 
" clip-path="url(#p5dc106ff17)" style="fill: none; stroke-dasharray: 1.85,0.8; stroke-dashoffset: 0; stroke: #b2b2b2; stroke-width: 0.5"/>
     </g>
     <g id="line2d_22">
      <g>
       <use xlink:href="#m99eab70db1" x="45.98" y="138.301948" style="fill: #d9d9d9; stroke: #d9d9d9; stroke-width: 0.8"/>
      </g>
     </g>
     <g id="text_11">
      <!-- 20.0% -->
      <g style="fill: #d9d9d9" transform="translate(10.712813 142.100776) scale(0.1 -0.1)">
       <use xlink:href="#DejaVuSans-15"/>
       <use xlink:href="#DejaVuSans-13" transform="translate(63.625 0)"/>
       <use xlink:href="#DejaVuSans-11" transform="translate(127.25 0)"/>
       <use xlink:href="#DejaVuSans-13" transform="translate(159.03125 0)"/>
       <use xlink:href="#DejaVuSans-8" transform="translate(222.65625 0)"/>
      </g>
     </g>
    </g>
    <g id="ytick_6">
     <g id="line2d_23">
      <path d="M 45.98 92.552435 
L 450 92.552435 
" clip-path="url(#p5dc106ff17)" style="fill: none; stroke-dasharray: 1.85,0.8; stroke-dashoffset: 0; stroke: #b2b2b2; stroke-width: 0.5"/>
     </g>
     <g id="line2d_24">
      <g>
       <use xlink:href="#m99eab70db1" x="45.98" y="92.552435" style="fill: #d9d9d9; stroke: #d9d9d9; stroke-width: 0.8"/>
      </g>
     </g>
     <g id="text_12">
      <!-- 25.0% -->
      <g style="fill: #d9d9d9" transform="translate(10.712813 96.351263) scale(0.1 -0.1)">
       <use xlink:href="#DejaVuSans-15"/>
       <use xlink:href="#DejaVuSans-18" transform="translate(63.625 0)"/>
       <use xlink:href="#DejaVuSans-11" transform="translate(127.25 0)"/>
       <use xlink:href="#DejaVuSans-13" transform="translate(159.03125 0)"/>
       <use xlink:href="#DejaVuSans-8" transform="translate(222.65625 0)"/>
      </g>
     </g>
    </g>
    <g id="ytick_7">
     <g id="line2d_25">
      <path d="M 45.98 46.802922 
L 450 46.802922 
" clip-path="url(#p5dc106ff17)" style="fill: none; stroke-dasharray: 1.85,0.8; stroke-dashoffset: 0; stroke: #b2b2b2; stroke-width: 0.5"/>
     </g>
     <g id="line2d_26">
      <g>
       <use xlink:href="#m99eab70db1" x="45.98" y="46.802922" style="fill: #d9d9d9; stroke: #d9d9d9; stroke-width: 0.8"/>
      </g>
     </g>
     <g id="text_13">
      <!-- 30.0% -->
      <g style="fill: #d9d9d9" transform="translate(10.712813 50.60175) scale(0.1 -0.1)">
       <use xlink:href="#DejaVuSans-16"/>
       <use xlink:href="#DejaVuSans-13" transform="translate(63.625 0)"/>
       <use xlink:href="#DejaVuSans-11" transform="translate(127.25 0)"/>
       <use xlink:href="#DejaVuSans-13" transform="translate(159.03125 0)"/>
       <use xlink:href="#DejaVuSans-8" transform="translate(222.65625 0)"/>
      </g>
     </g>
    </g>
   </g>
   <g id="patch_15">
    <path d="M 45.98 321.3 
L 45.98 27.740625 
" style="fill: none; stroke: #bcbcbc; stroke-width: 0.8; stroke-linejoin: miter; stroke-linecap: square"/>
   </g>
   <g id="patch_16">
    <path d="M 450 321.3 
L 450 27.740625 
" style="fill: none; stroke: #bcbcbc; stroke-width: 0.8; stroke-linejoin: miter; stroke-linecap: square"/>
   </g>
   <g id="patch_17">
    <path d="M 45.98 321.3 
L 450 321.3 
" style="fill: none; stroke: #bcbcbc; stroke-width: 0.8; stroke-linejoin: miter; stroke-linecap: square"/>
   </g>
   <g id="patch_18">
    <path d="M 45.98 27.740625 
L 450 27.740625 
" style="fill: none; stroke: #bcbcbc; stroke-width: 0.8; stroke-linejoin: miter; stroke-linecap: square"/>
   </g>
   <g id="text_14">
    <!-- Taking the lowest or highest die of 2d6 -->
    <g style="fill: #d9d9d9" transform="translate(108.196375 21.740625) scale(0.144 -0.144)">
     <defs>
      <path id="DejaVuSans-37" d="M -19 4666 
L 3928 4666 
L 3928 4134 
L 2272 4134 
L 2272 0 
L 1638 0 
L 1638 4134 
L -19 4134 
L -19 4666 
z
" transform="scale(0.015625)"/>
      <path id="DejaVuSans-44" d="M 2194 1759 
Q 1497 1759 1228 1600 
Q 959 1441 959 1056 
Q 959 750 1161 570 
Q 1363 391 1709 391 
Q 2188 391 2477 730 
Q 2766 1069 2766 1631 
L 2766 1759 
L 2194 1759 
z
M 3341 1997 
L 3341 0 
L 2766 0 
L 2766 531 
Q 2569 213 2275 61 
Q 1981 -91 1556 -91 
Q 1019 -91 701 211 
Q 384 513 384 1019 
Q 384 1609 779 1909 
Q 1175 2209 1959 2209 
L 2766 2209 
L 2766 2266 
Q 2766 2663 2505 2880 
Q 2244 3097 1772 3097 
Q 1472 3097 1187 3025 
Q 903 2953 641 2809 
L 641 3341 
Q 956 3463 1253 3523 
Q 1550 3584 1831 3584 
Q 2591 3584 2966 3190 
Q 3341 2797 3341 1997 
z
" transform="scale(0.015625)"/>
      <path id="DejaVuSans-4e" d="M 581 4863 
L 1159 4863 
L 1159 1991 
L 2875 3500 
L 3609 3500 
L 1753 1863 
L 3688 0 
L 2938 0 
L 1159 1709 
L 1159 0 
L 581 0 
L 581 4863 
z
" transform="scale(0.015625)"/>
      <path id="DejaVuSans-4c" d="M 603 3500 
L 1178 3500 
L 1178 0 
L 603 0 
L 603 3500 
z
M 603 4863 
L 1178 4863 
L 1178 4134 
L 603 4134 
L 603 4863 
z
" transform="scale(0.015625)"/>
      <path id="DejaVuSans-51" d="M 3513 2113 
L 3513 0 
L 2938 0 
L 2938 2094 
Q 2938 2591 2744 2837 
Q 2550 3084 2163 3084 
Q 1697 3084 1428 2787 
Q 1159 2491 1159 1978 
L 1159 0 
L 581 0 
L 581 3500 
L 1159 3500 
L 1159 2956 
Q 1366 3272 1645 3428 
Q 1925 3584 2291 3584 
Q 2894 3584 3203 3211 
Q 3513 2838 3513 2113 
z
" transform="scale(0.015625)"/>
      <path id="DejaVuSans-4a" d="M 2906 1791 
Q 2906 2416 2648 2759 
Q 2391 3103 1925 3103 
Q 1463 3103 1205 2759 
Q 947 2416 947 1791 
Q 947 1169 1205 825 
Q 1463 481 1925 481 
Q 2391 481 2648 825 
Q 2906 1169 2906 1791 
z
M 3481 434 
Q 3481 -459 3084 -895 
Q 2688 -1331 1869 -1331 
Q 1566 -1331 1297 -1286 
Q 1028 -1241 775 -1147 
L 775 -588 
Q 1028 -725 1275 -790 
Q 1522 -856 1778 -856 
Q 2344 -856 2625 -561 
Q 2906 -266 2906 331 
L 2906 616 
Q 2728 306 2450 153 
Q 2172 0 1784 0 
Q 1141 0 747 490 
Q 353 981 353 1791 
Q 353 2603 747 3093 
Q 1141 3584 1784 3584 
Q 2172 3584 2450 3431 
Q 2728 3278 2906 2969 
L 2906 3500 
L 3481 3500 
L 3481 434 
z
" transform="scale(0.015625)"/>
      <path id="DejaVuSans-3" transform="scale(0.015625)"/>
      <path id="DejaVuSans-57" d="M 1172 4494 
L 1172 3500 
L 2356 3500 
L 2356 3053 
L 1172 3053 
L 1172 1153 
Q 1172 725 1289 603 
Q 1406 481 1766 481 
L 2356 481 
L 2356 0 
L 1766 0 
Q 1100 0 847 248 
Q 594 497 594 1153 
L 594 3053 
L 172 3053 
L 172 3500 
L 594 3500 
L 594 4494 
L 1172 4494 
z
" transform="scale(0.015625)"/>
      <path id="DejaVuSans-4b" d="M 3513 2113 
L 3513 0 
L 2938 0 
L 2938 2094 
Q 2938 2591 2744 2837 
Q 2550 3084 2163 3084 
Q 1697 3084 1428 2787 
Q 1159 2491 1159 1978 
L 1159 0 
L 581 0 
L 581 4863 
L 1159 4863 
L 1159 2956 
Q 1366 3272 1645 3428 
Q 1925 3584 2291 3584 
Q 2894 3584 3203 3211 
Q 3513 2838 3513 2113 
z
" transform="scale(0.015625)"/>
      <path id="DejaVuSans-48" d="M 3597 1894 
L 3597 1613 
L 953 1613 
Q 991 1019 1311 708 
Q 1631 397 2203 397 
Q 2534 397 2845 478 
Q 3156 559 3463 722 
L 3463 178 
Q 3153 47 2828 -22 
Q 2503 -91 2169 -91 
Q 1331 -91 842 396 
Q 353 884 353 1716 
Q 353 2575 817 3079 
Q 1281 3584 2069 3584 
Q 2775 3584 3186 3129 
Q 3597 2675 3597 1894 
z
M 3022 2063 
Q 3016 2534 2758 2815 
Q 2500 3097 2075 3097 
Q 1594 3097 1305 2825 
Q 1016 2553 972 2059 
L 3022 2063 
z
" transform="scale(0.015625)"/>
      <path id="DejaVuSans-4f" d="M 603 4863 
L 1178 4863 
L 1178 0 
L 603 0 
L 603 4863 
z
" transform="scale(0.015625)"/>
      <path id="DejaVuSans-52" d="M 1959 3097 
Q 1497 3097 1228 2736 
Q 959 2375 959 1747 
Q 959 1119 1226 758 
Q 1494 397 1959 397 
Q 2419 397 2687 759 
Q 2956 1122 2956 1747 
Q 2956 2369 2687 2733 
Q 2419 3097 1959 3097 
z
M 1959 3584 
Q 2709 3584 3137 3096 
Q 3566 2609 3566 1747 
Q 3566 888 3137 398 
Q 2709 -91 1959 -91 
Q 1206 -91 779 398 
Q 353 888 353 1747 
Q 353 2609 779 3096 
Q 1206 3584 1959 3584 
z
" transform="scale(0.015625)"/>
      <path id="DejaVuSans-5a" d="M 269 3500 
L 844 3500 
L 1563 769 
L 2278 3500 
L 2956 3500 
L 3675 769 
L 4391 3500 
L 4966 3500 
L 4050 0 
L 3372 0 
L 2619 2869 
L 1863 0 
L 1184 0 
L 269 3500 
z
" transform="scale(0.015625)"/>
      <path id="DejaVuSans-56" d="M 2834 3397 
L 2834 2853 
Q 2591 2978 2328 3040 
Q 2066 3103 1784 3103 
Q 1356 3103 1142 2972 
Q 928 2841 928 2578 
Q 928 2378 1081 2264 
Q 1234 2150 1697 2047 
L 1894 2003 
Q 2506 1872 2764 1633 
Q 3022 1394 3022 966 
Q 3022 478 2636 193 
Q 2250 -91 1575 -91 
Q 1294 -91 989 -36 
Q 684 19 347 128 
L 347 722 
Q 666 556 975 473 
Q 1284 391 1588 391 
Q 1994 391 2212 530 
Q 2431 669 2431 922 
Q 2431 1156 2273 1281 
Q 2116 1406 1581 1522 
L 1381 1569 
Q 847 1681 609 1914 
Q 372 2147 372 2553 
Q 372 3047 722 3315 
Q 1072 3584 1716 3584 
Q 2034 3584 2315 3537 
Q 2597 3491 2834 3397 
z
" transform="scale(0.015625)"/>
      <path id="DejaVuSans-55" d="M 2631 2963 
Q 2534 3019 2420 3045 
Q 2306 3072 2169 3072 
Q 1681 3072 1420 2755 
Q 1159 2438 1159 1844 
L 1159 0 
L 581 0 
L 581 3500 
L 1159 3500 
L 1159 2956 
Q 1341 3275 1631 3429 
Q 1922 3584 2338 3584 
Q 2397 3584 2469 3576 
Q 2541 3569 2628 3553 
L 2631 2963 
z
" transform="scale(0.015625)"/>
      <path id="DejaVuSans-47" d="M 2906 2969 
L 2906 4863 
L 3481 4863 
L 3481 0 
L 2906 0 
L 2906 525 
Q 2725 213 2448 61 
Q 2172 -91 1784 -91 
Q 1150 -91 751 415 
Q 353 922 353 1747 
Q 353 2572 751 3078 
Q 1150 3584 1784 3584 
Q 2172 3584 2448 3432 
Q 2725 3281 2906 2969 
z
M 947 1747 
Q 947 1113 1208 752 
Q 1469 391 1925 391 
Q 2381 391 2643 752 
Q 2906 1113 2906 1747 
Q 2906 2381 2643 2742 
Q 2381 3103 1925 3103 
Q 1469 3103 1208 2742 
Q 947 2381 947 1747 
z
" transform="scale(0.015625)"/>
      <path id="DejaVuSans-49" d="M 2375 4863 
L 2375 4384 
L 1825 4384 
Q 1516 4384 1395 4259 
Q 1275 4134 1275 3809 
L 1275 3500 
L 2222 3500 
L 2222 3053 
L 1275 3053 
L 1275 0 
L 697 0 
L 697 3053 
L 147 3053 
L 147 3500 
L 697 3500 
L 697 3744 
Q 697 4328 969 4595 
Q 1241 4863 1831 4863 
L 2375 4863 
z
" transform="scale(0.015625)"/>
     </defs>
     <use xlink:href="#DejaVuSans-37"/>
     <use xlink:href="#DejaVuSans-44" transform="translate(44.53125 0)"/>
     <use xlink:href="#DejaVuSans-4e" transform="translate(105.8125 0)"/>
     <use xlink:href="#DejaVuSans-4c" transform="translate(163.71875 0)"/>
     <use xlink:href="#DejaVuSans-51" transform="translate(191.5 0)"/>
     <use xlink:href="#DejaVuSans-4a" transform="translate(254.875 0)"/>
     <use xlink:href="#DejaVuSans-3" transform="translate(318.359375 0)"/>
     <use xlink:href="#DejaVuSans-57" transform="translate(350.140625 0)"/>
     <use xlink:href="#DejaVuSans-4b" transform="translate(389.34375 0)"/>
     <use xlink:href="#DejaVuSans-48" transform="translate(452.71875 0)"/>
     <use xlink:href="#DejaVuSans-3" transform="translate(514.25 0)"/>
     <use xlink:href="#DejaVuSans-4f" transform="translate(546.03125 0)"/>
     <use xlink:href="#DejaVuSans-52" transform="translate(573.8125 0)"/>
     <use xlink:href="#DejaVuSans-5a" transform="translate(635 0)"/>
     <use xlink:href="#DejaVuSans-48" transform="translate(716.78125 0)"/>
     <use xlink:href="#DejaVuSans-56" transform="translate(778.3125 0)"/>
     <use xlink:href="#DejaVuSans-57" transform="translate(830.40625 0)"/>
     <use xlink:href="#DejaVuSans-3" transform="translate(869.609375 0)"/>
     <use xlink:href="#DejaVuSans-52" transform="translate(901.390625 0)"/>
     <use xlink:href="#DejaVuSans-55" transform="translate(962.578125 0)"/>
     <use xlink:href="#DejaVuSans-3" transform="translate(1003.6875 0)"/>
     <use xlink:href="#DejaVuSans-4b" transform="translate(1035.46875 0)"/>
     <use xlink:href="#DejaVuSans-4c" transform="translate(1098.84375 0)"/>
     <use xlink:href="#DejaVuSans-4a" transform="translate(1126.625 0)"/>
     <use xlink:href="#DejaVuSans-4b" transform="translate(1190.109375 0)"/>
     <use xlink:href="#DejaVuSans-48" transform="translate(1253.484375 0)"/>
     <use xlink:href="#DejaVuSans-56" transform="translate(1315.015625 0)"/>
     <use xlink:href="#DejaVuSans-57" transform="translate(1367.109375 0)"/>
     <use xlink:href="#DejaVuSans-3" transform="translate(1406.3125 0)"/>
     <use xlink:href="#DejaVuSans-47" transform="translate(1438.09375 0)"/>
     <use xlink:href="#DejaVuSans-4c" transform="translate(1501.578125 0)"/>
     <use xlink:href="#DejaVuSans-48" transform="translate(1529.359375 0)"/>
     <use xlink:href="#DejaVuSans-3" transform="translate(1590.890625 0)"/>
     <use xlink:href="#DejaVuSans-52" transform="translate(1622.671875 0)"/>
     <use xlink:href="#DejaVuSans-49" transform="translate(1683.859375 0)"/>
     <use xlink:href="#DejaVuSans-3" transform="translate(1719.0625 0)"/>
     <use xlink:href="#DejaVuSans-15" transform="translate(1750.84375 0)"/>
     <use xlink:href="#DejaVuSans-47" transform="translate(1814.46875 0)"/>
     <use xlink:href="#DejaVuSans-19" transform="translate(1877.953125 0)"/>
    </g>
   </g>
   <g id="legend_1">
    <g id="patch_19">
     <path d="M 212.856406 65.742188 
L 283.123594 65.742188 
Q 285.123594 65.742188 285.123594 63.742188 
L 285.123594 34.740625 
Q 285.123594 32.740625 283.123594 32.740625 
L 212.856406 32.740625 
Q 210.856406 32.740625 210.856406 34.740625 
L 210.856406 63.742188 
Q 210.856406 65.742188 212.856406 65.742188 
z
" style="fill: #eeeeee; opacity: 0.8; stroke: #cccccc; stroke-width: 0.5; stroke-linejoin: miter"/>
    </g>
    <g id="patch_20">
     <path d="M 214.856406 44.339063 
L 234.856406 44.339063 
L 234.856406 37.339063 
L 214.856406 37.339063 
z
" style="fill: #348abd; opacity: 0.75"/>
    </g>
    <g id="text_15">
     <!-- Lowest -->
     <g transform="translate(242.856406 44.339063) scale(0.1 -0.1)">
      <defs>
       <path id="DejaVuSans-2f" d="M 628 4666 
L 1259 4666 
L 1259 531 
L 3531 531 
L 3531 0 
L 628 0 
L 628 4666 
z
" transform="scale(0.015625)"/>
      </defs>
      <use xlink:href="#DejaVuSans-2f"/>
      <use xlink:href="#DejaVuSans-52" transform="translate(53.96875 0)"/>
      <use xlink:href="#DejaVuSans-5a" transform="translate(115.15625 0)"/>
      <use xlink:href="#DejaVuSans-48" transform="translate(196.9375 0)"/>
      <use xlink:href="#DejaVuSans-56" transform="translate(258.46875 0)"/>
      <use xlink:href="#DejaVuSans-57" transform="translate(310.5625 0)"/>
     </g>
    </g>
    <g id="patch_21">
     <path d="M 214.856406 59.339844 
L 234.856406 59.339844 
L 234.856406 52.339844 
L 214.856406 52.339844 
z
" style="fill: #a60628; opacity: 0.75"/>
    </g>
    <g id="text_16">
     <!-- Highest -->
     <g transform="translate(242.856406 59.339844) scale(0.1 -0.1)">
      <defs>
       <path id="DejaVuSans-2b" d="M 628 4666 
L 1259 4666 
L 1259 2753 
L 3553 2753 
L 3553 4666 
L 4184 4666 
L 4184 0 
L 3553 0 
L 3553 2222 
L 1259 2222 
L 1259 0 
L 628 0 
L 628 4666 
z
" transform="scale(0.015625)"/>
      </defs>
      <use xlink:href="#DejaVuSans-2b"/>
      <use xlink:href="#DejaVuSans-4c" transform="translate(75.203125 0)"/>
      <use xlink:href="#DejaVuSans-4a" transform="translate(102.984375 0)"/>
      <use xlink:href="#DejaVuSans-4b" transform="translate(166.46875 0)"/>
      <use xlink:href="#DejaVuSans-48" transform="translate(229.84375 0)"/>
      <use xlink:href="#DejaVuSans-56" transform="translate(291.375 0)"/>
      <use xlink:href="#DejaVuSans-57" transform="translate(343.46875 0)"/>
     </g>
    </g>
   </g>
  </g>
 </g>
 <defs>
  <clipPath id="p5dc106ff17">
   <rect x="45.98" y="27.740625" width="404.02" height="293.559375"/>
  </clipPath>
 </defs>
</svg>
